<svg width="1000" height="1000" viewBox="0 0 1000 1000" fill="none" xmlns="http://www.w3.org/2000/svg">
<rect x="87" y="131" width="833" height="138" fill="#333333"/>
<path fill-rule="evenodd" clip-rule="evenodd" d="M343 72H92H65V99V973V1000H92H915H942V973V99V72H915H656V99H915V973H92V99H343V72Z" fill="#333333"/>
<path d="M426.258 109H413.952V87.56H395.72V109H383.343V57.6568H395.72V78.0389H413.952V57.6568H426.258V109ZM463.919 99.4084H446.958L443.996 109H430.772L449.603 57.6568H461.239L480.211 109H466.917L463.919 99.4084ZM449.92 89.8521H460.957L455.421 72.0442L449.92 89.8521ZM496.362 91.58V109H483.984V57.6568H504.472C508.398 57.6568 511.866 58.3856 514.875 59.8431C517.907 61.2772 520.247 63.3342 521.892 66.0142C523.561 68.6707 524.396 71.6916 524.396 75.0768C524.396 80.0842 522.597 84.0924 519.001 87.1016C515.427 90.0872 510.514 91.58 504.261 91.58H496.362ZM496.362 82.0237H504.472C506.87 82.0237 508.692 81.4242 509.938 80.2252C511.207 79.0263 511.842 77.3337 511.842 75.1474C511.842 72.7495 511.196 70.8335 509.903 69.3995C508.61 67.9654 506.846 67.2366 504.613 67.2131H496.362V82.0237ZM543.403 91.58V109H531.025V57.6568H551.513C555.439 57.6568 558.907 58.3856 561.916 59.8431C564.948 61.2772 567.288 63.3342 568.933 66.0142C570.602 68.6707 571.437 71.6916 571.437 75.0768C571.437 80.0842 569.638 84.0924 566.042 87.1016C562.468 90.0872 557.555 91.58 551.302 91.58H543.403ZM543.403 82.0237H551.513C553.911 82.0237 555.733 81.4242 556.979 80.2252C558.248 79.0263 558.883 77.3337 558.883 75.1474C558.883 72.7495 558.237 70.8335 556.944 69.3995C555.651 67.9654 553.888 67.2366 551.654 67.2131H543.403V82.0237ZM596.862 79.9431L606.312 57.6568H619.677L603.138 90.5574V109H590.585V90.5574L574.082 57.6568H587.376L596.862 79.9431Z" fill="#333333"/>
<path d="M438.671 316.386C438.671 321.394 437.742 325.825 435.885 329.681C434.028 333.536 431.383 336.51 427.951 338.602C424.542 340.671 420.652 341.705 416.279 341.705C411.906 341.705 408.027 340.706 404.642 338.708C401.257 336.686 398.612 333.806 396.708 330.068C394.827 326.331 393.84 322.04 393.746 317.197V314.306C393.746 309.275 394.663 304.843 396.496 301.012C398.353 297.156 400.998 294.182 404.43 292.09C407.886 289.998 411.812 288.952 416.208 288.952C420.558 288.952 424.436 289.986 427.845 292.055C431.254 294.123 433.899 297.074 435.779 300.906C437.684 304.714 438.648 309.087 438.671 314.024V316.386ZM426.082 314.235C426.082 309.134 425.224 305.267 423.508 302.634C421.815 299.977 419.382 298.649 416.208 298.649C410.002 298.649 406.723 303.304 406.37 312.613L406.335 316.386C406.335 321.417 407.169 325.284 408.838 327.988C410.507 330.691 412.988 332.043 416.279 332.043C419.406 332.043 421.815 330.715 423.508 328.058C425.2 325.402 426.059 321.582 426.082 316.598V314.235ZM477.39 320.547H457.431V341H445.054V289.657H479.4V299.213H457.431V311.026H477.39V320.547ZM516.885 320.547H496.926V341H484.548V289.657H518.895V299.213H496.926V311.026H516.885V320.547ZM555.886 319.243H536.421V331.479H559.412V341H524.043V289.657H559.483V299.213H536.421V310.039H555.886V319.243ZM583.532 322.875H576.832V341H564.455V289.657H584.661C590.749 289.657 595.51 291.009 598.942 293.712C602.374 296.416 604.091 300.236 604.091 305.173C604.091 308.746 603.362 311.708 601.904 314.059C600.47 316.41 598.213 318.314 595.134 319.772L605.854 340.471V341H592.595L583.532 322.875ZM576.832 313.318H584.661C587.011 313.318 588.775 312.707 589.95 311.485C591.149 310.239 591.748 308.511 591.748 306.301C591.748 304.091 591.149 302.363 589.95 301.117C588.751 299.848 586.988 299.213 584.661 299.213H576.832V313.318Z" fill="#333333"/>
<path d="M368.039 225H356.367L344.095 192.593L338.453 225H326.393L335.279 173.657H347.057L359.294 206.064L364.9 173.657H376.96L368.039 225ZM410.707 203.243H391.842L389.69 215.479H412.012L410.355 225H375.973L384.859 173.657H419.312L417.654 183.213H395.297L393.393 194.039H412.294L410.707 203.243ZM457.396 205.711L468.116 173.657H480.317L461.698 225H449.215L447.134 195.908L436.062 225H423.578L421.004 173.657H432.747L433.452 205.57L445.23 173.657H455.492L457.396 205.711ZM517.731 195.873L530.708 173.657H544.284L522.139 207.122L519.071 225H506.799L510.114 205.958L499.853 173.692L512.406 173.657L517.731 195.873ZM573.764 203.243H554.898L552.747 215.479H575.069L573.412 225H539.03L547.916 173.657H582.368L580.711 183.213H558.354L556.45 194.039H575.351L573.764 203.243ZM608.745 215.408H592.348L587.799 225H574.505L601.693 173.657H613.047L622.533 225H609.98L608.745 215.408ZM596.862 205.852H607.511L605.254 188.15L596.862 205.852ZM648.628 206.875H641.928L638.754 225H626.694L635.581 173.657L653.706 173.692C659.513 173.692 663.979 175.056 667.106 177.783C670.256 180.486 671.667 184.189 671.337 188.891C671.079 192.605 670.009 195.685 668.129 198.129C666.248 200.551 663.615 202.467 660.23 203.877L667.141 224.401V225H654.27L648.628 206.875ZM643.55 197.318L650.603 197.389C652.53 197.389 654.2 196.919 655.61 195.978C657.044 195.038 658.067 193.757 658.678 192.135C659.289 190.489 659.466 188.902 659.207 187.374C658.737 184.765 657.068 183.389 654.2 183.248L646.018 183.213L643.55 197.318Z" fill="white"/>
<rect x="201" y="363" width="598" height="598" rx="13.1028" fill="white"/>
<path d="M631.141 418.107H744.791V531.757" stroke="#C2C2C2" stroke-width="22.73"/>
<path d="M369.742 418.107H256.092V531.757" stroke="#C2C2C2" stroke-width="22.73"/>
<path d="M631.141 906.803H744.791V793.153" stroke="#C2C2C2" stroke-width="22.73"/>
<path d="M369.742 906.803H256.092V793.153" stroke="#C2C2C2" stroke-width="22.73"/>
<path d="M364.928 615.619L355.523 588.247L345.527 615.619H364.928ZM351.137 579.053H360.626L383.105 641.008H373.911L367.627 622.451H343.123L336.418 641.008H327.814L351.137 579.053ZM394.535 618.95C394.535 623.786 395.561 627.835 397.613 631.097C399.666 634.358 402.955 635.989 407.482 635.989C410.997 635.989 413.879 634.485 416.128 631.476C418.405 628.44 419.544 624.096 419.544 618.444C419.544 612.737 418.377 608.519 416.044 605.792C413.71 603.036 410.828 601.659 407.398 601.659C403.574 601.659 400.467 603.121 398.077 606.045C395.715 608.969 394.535 613.271 394.535 618.95ZM405.964 595.037C409.422 595.037 412.318 595.768 414.652 597.23C416.001 598.074 417.534 599.55 419.249 601.659V578.842H426.545V641.008H419.713V634.724C417.942 637.507 415.847 639.518 413.429 640.755C411.011 641.992 408.241 642.61 405.12 642.61C400.088 642.61 395.729 640.502 392.046 636.284C388.363 632.039 386.521 626.401 386.521 619.372C386.521 612.793 388.194 607.099 391.54 602.291C394.914 597.455 399.722 595.037 405.964 595.037ZM442.614 618.95C442.614 623.786 443.64 627.835 445.692 631.097C447.745 634.358 451.035 635.989 455.561 635.989C459.076 635.989 461.958 634.485 464.207 631.476C466.485 628.44 467.623 624.096 467.623 618.444C467.623 612.737 466.457 608.519 464.123 605.792C461.789 603.036 458.907 601.659 455.477 601.659C451.653 601.659 448.546 603.121 446.156 606.045C443.795 608.969 442.614 613.271 442.614 618.95ZM454.043 595.037C457.501 595.037 460.397 595.768 462.731 597.23C464.081 598.074 465.613 599.55 467.328 601.659V578.842H474.624V641.008H467.792V634.724C466.021 637.507 463.926 639.518 461.508 640.755C459.09 641.992 456.321 642.61 453.2 642.61C448.167 642.61 443.809 640.502 440.125 636.284C436.442 632.039 434.601 626.401 434.601 619.372C434.601 612.793 436.273 607.099 439.619 602.291C442.993 597.455 447.801 595.037 454.043 595.037ZM538.14 595.839H546.532C545.464 598.735 543.088 605.342 539.405 615.661C536.649 623.421 534.344 629.747 532.488 634.639C528.102 646.167 525.009 653.196 523.21 655.727C521.41 658.257 518.317 659.523 513.931 659.523C512.863 659.523 512.033 659.48 511.443 659.396C510.881 659.312 510.178 659.157 509.334 658.932V652.015C510.656 652.381 511.612 652.606 512.202 652.69C512.793 652.775 513.313 652.817 513.763 652.817C515.168 652.817 516.195 652.578 516.841 652.1C517.516 651.65 518.078 651.088 518.528 650.413C518.669 650.188 519.175 649.035 520.047 646.954C520.918 644.874 521.551 643.327 521.944 642.315L505.243 595.839H513.847L525.951 632.615L538.14 595.839ZM571.036 636.116C576.069 636.116 579.513 634.218 581.369 630.422C583.253 626.598 584.194 622.353 584.194 617.685C584.194 613.468 583.52 610.037 582.17 607.395C580.033 603.233 576.35 601.153 571.12 601.153C566.481 601.153 563.107 602.924 560.998 606.467C558.89 610.009 557.835 614.283 557.835 619.288C557.835 624.096 558.89 628.102 560.998 631.308C563.107 634.513 566.453 636.116 571.036 636.116ZM571.331 594.531C577.151 594.531 582.072 596.471 586.092 600.351C590.113 604.231 592.123 609.939 592.123 617.474C592.123 624.756 590.352 630.773 586.809 635.525C583.267 640.277 577.77 642.653 570.319 642.653C564.105 642.653 559.171 640.558 555.516 636.369C551.86 632.151 550.033 626.5 550.033 619.414C550.033 611.823 551.959 605.778 555.811 601.279C559.663 596.781 564.836 594.531 571.331 594.531ZM608.782 595.839V625.825C608.782 628.13 609.148 630.014 609.879 631.476C611.228 634.176 613.745 635.525 617.428 635.525C622.714 635.525 626.313 633.163 628.225 628.44C629.265 625.909 629.785 622.437 629.785 618.023V595.839H637.377V641.008H630.207L630.291 634.344C629.307 636.059 628.084 637.507 626.622 638.688C623.726 641.05 620.212 642.231 616.079 642.231C609.64 642.231 605.254 640.08 602.92 635.778C601.655 633.473 601.022 630.394 601.022 626.542V595.839H608.782ZM649.481 595.839H656.693V603.641C657.283 602.123 658.731 600.281 661.037 598.116C663.342 595.923 665.999 594.826 669.008 594.826C669.148 594.826 669.387 594.841 669.725 594.869C670.062 594.897 670.639 594.953 671.454 595.037V603.051C671.004 602.966 670.582 602.91 670.189 602.882C669.823 602.854 669.416 602.84 668.966 602.84C665.142 602.84 662.204 604.077 660.151 606.551C658.099 608.997 657.072 611.823 657.072 615.028V641.008H649.481V595.839Z" fill="#C2C2C2"/>
<path d="M365.689 743.376C362.906 744.304 359.574 744.768 355.694 744.768C347.596 744.768 340.905 742.35 335.619 737.514C329.208 731.694 326.003 723.147 326.003 711.872C326.003 700.513 329.292 691.923 335.872 686.103C341.242 681.351 347.92 678.976 355.905 678.976C363.946 678.976 370.694 681.492 376.149 686.525C382.447 692.345 385.596 700.485 385.596 710.944C385.596 716.483 384.921 721.122 383.571 724.862C382.475 728.433 380.858 731.399 378.721 733.761L385.891 740.466L379.101 747.552L371.594 740.466C369.316 741.844 367.348 742.814 365.689 743.376ZM362.906 732.158L356.622 726.169L363.327 719.168L369.611 725.157C370.596 723.133 371.284 721.361 371.678 719.843C372.297 717.566 372.606 714.908 372.606 711.872C372.606 704.899 371.172 699.515 368.304 695.719C365.464 691.895 361.303 689.983 355.82 689.983C350.675 689.983 346.57 691.811 343.505 695.466C340.441 699.121 338.908 704.59 338.908 711.872C338.908 720.391 341.101 726.492 345.488 730.176C348.327 732.566 351.729 733.761 355.694 733.761C357.184 733.761 358.618 733.578 359.996 733.212C360.755 733.016 361.725 732.664 362.906 732.158ZM421.95 718.662H408.539V743.039H395.844V680.873H426.337C430.695 680.958 434.04 681.492 436.374 682.476C438.736 683.46 440.732 684.908 442.363 686.82C443.713 688.395 444.781 690.138 445.568 692.05C446.355 693.962 446.749 696.141 446.749 698.587C446.749 701.539 446.004 704.449 444.514 707.317C443.024 710.157 440.563 712.167 437.133 713.348C440.001 714.501 442.026 716.146 443.206 718.282C444.415 720.391 445.02 723.625 445.02 727.983V732.158C445.02 734.998 445.132 736.924 445.357 737.936C445.695 739.539 446.482 740.719 447.719 741.479V743.039H433.422C433.028 741.661 432.747 740.551 432.578 739.707C432.241 737.964 432.058 736.179 432.03 734.351L431.946 728.573C431.89 724.609 431.159 721.966 429.753 720.644C428.375 719.323 425.774 718.662 421.95 718.662ZM429.837 707.359C432.424 706.178 433.717 703.845 433.717 700.358C433.717 696.591 432.466 694.06 429.964 692.767C428.558 692.036 426.449 691.67 423.637 691.67H408.539V708.371H423.258C426.182 708.371 428.375 708.034 429.837 707.359ZM520.808 713.559H508.493C508.268 711.844 507.692 710.297 506.764 708.92C505.414 707.064 503.32 706.136 500.48 706.136C496.431 706.136 493.662 708.146 492.171 712.167C491.384 714.304 490.99 717.144 490.99 720.686C490.99 724.06 491.384 726.774 492.171 728.826C493.605 732.65 496.304 734.562 500.269 734.562C503.081 734.562 505.077 733.803 506.258 732.284C507.439 730.766 508.156 728.798 508.409 726.38H520.681C520.4 730.035 519.079 733.494 516.717 736.755C512.949 742.013 507.368 744.642 499.974 744.642C492.579 744.642 487.138 742.449 483.652 738.062C480.166 733.676 478.422 727.983 478.422 720.982C478.422 713.081 480.348 706.937 484.2 702.551C488.052 698.165 493.366 695.972 500.142 695.972C505.906 695.972 510.616 697.265 514.271 699.852C517.954 702.439 520.133 707.008 520.808 713.559ZM567.453 702.889C571.333 707.753 573.273 713.503 573.273 720.138C573.273 726.886 571.333 732.664 567.453 737.472C563.573 742.252 557.683 744.642 549.782 744.642C541.881 744.642 535.991 742.252 532.111 737.472C528.231 732.664 526.291 726.886 526.291 720.138C526.291 713.503 528.231 707.753 532.111 702.889C535.991 698.025 541.881 695.592 549.782 695.592C557.683 695.592 563.573 698.025 567.453 702.889ZM549.74 705.757C546.225 705.757 543.512 707.008 541.6 709.51C539.716 711.984 538.774 715.527 538.774 720.138C538.774 724.749 539.716 728.306 541.6 730.808C543.512 733.311 546.225 734.562 549.74 734.562C553.254 734.562 555.954 733.311 557.837 730.808C559.721 728.306 560.663 724.749 560.663 720.138C560.663 715.527 559.721 711.984 557.837 709.51C555.954 707.008 553.254 705.757 549.74 705.757ZM623.757 680.958V743.039H612.074V736.671C610.359 739.398 608.405 741.38 606.212 742.617C604.019 743.854 601.291 744.473 598.03 744.473C592.66 744.473 588.133 742.308 584.45 737.978C580.795 733.62 578.967 728.039 578.967 721.235C578.967 713.39 580.766 707.219 584.365 702.72C587.992 698.221 592.828 695.972 598.873 695.972C601.657 695.972 604.131 696.591 606.296 697.828C608.461 699.037 610.218 700.724 611.568 702.889V680.958H623.757ZM591.366 720.349C591.366 724.595 592.21 727.983 593.897 730.513C595.556 733.072 598.086 734.351 601.488 734.351C604.89 734.351 607.477 733.086 609.248 730.555C611.02 728.025 611.905 724.749 611.905 720.729C611.905 715.105 610.486 711.085 607.646 708.667C605.903 707.205 603.878 706.474 601.573 706.474C598.058 706.474 595.471 707.809 593.812 710.48C592.182 713.123 591.366 716.413 591.366 720.349ZM674.071 729.543C673.762 732.27 672.342 735.04 669.811 737.852C665.875 742.322 660.364 744.557 653.279 744.557C647.431 744.557 642.271 742.674 637.801 738.906C633.33 735.138 631.095 729.009 631.095 720.518C631.095 712.561 633.105 706.459 637.126 702.214C641.175 697.968 646.419 695.846 652.857 695.846C656.681 695.846 660.125 696.562 663.19 697.996C666.255 699.43 668.785 701.694 670.781 704.787C672.581 707.514 673.748 710.677 674.282 714.276C674.591 716.385 674.718 719.421 674.662 723.386H643.199C643.368 727.997 644.816 731.23 647.543 733.086C649.202 734.239 651.198 734.815 653.532 734.815C656.006 734.815 658.017 734.112 659.563 732.706C660.406 731.947 661.152 730.893 661.798 729.543H674.071ZM662.178 715.457C661.981 712.28 661.011 709.876 659.268 708.245C657.553 706.586 655.416 705.757 652.857 705.757C650.074 705.757 647.909 706.628 646.362 708.371C644.844 710.115 643.888 712.476 643.494 715.457H662.178Z" fill="#C2C2C2"/>
</svg>
