<svg width="1000" height="1000" viewBox="0 0 1000 1000" fill="none" xmlns="http://www.w3.org/2000/svg">
<g clip-path="url(#clip0_270:121)">
<mask id="path-1-inside-1_270:121" fill="white">
<rect x="171.133" y="243.572" width="691.665" height="691.665" rx="15"/>
</mask>
<rect x="171.133" y="243.572" width="691.665" height="691.665" rx="15" stroke="#333333" stroke-width="40" mask="url(#path-1-inside-1_270:121)"/>
<rect x="253.422" y="325.859" width="527.091" height="527.091" rx="23" fill="white"/>
<path d="M631.992 374.357H732.015V474.38" stroke="#C2C2C2" stroke-width="20.0045"/>
<path d="M401.938 374.357H301.915V474.38" stroke="#C2C2C2" stroke-width="20.0045"/>
<path d="M631.992 804.453H732.015V704.43" stroke="#C2C2C2" stroke-width="20.0045"/>
<path d="M401.938 804.453H301.915V704.43" stroke="#C2C2C2" stroke-width="20.0045"/>
<path d="M398.06 549.038L389.783 524.948L380.986 549.038H398.06ZM385.923 516.857H394.274L414.058 571.383H405.967L400.436 555.051H378.871L372.969 571.383H365.397L385.923 516.857ZM424.117 551.97C424.117 556.226 425.02 559.79 426.827 562.66C428.633 565.531 431.528 566.966 435.512 566.966C438.605 566.966 441.142 565.642 443.121 562.994C445.126 560.322 446.128 556.499 446.128 551.525C446.128 546.502 445.101 542.79 443.047 540.389C440.993 537.964 438.457 536.752 435.438 536.752C432.073 536.752 429.338 538.039 427.235 540.612C425.156 543.186 424.117 546.972 424.117 551.97ZM434.176 530.924C437.22 530.924 439.768 531.568 441.822 532.855C443.01 533.597 444.359 534.896 445.868 536.752V516.671H452.29V571.383H446.276V565.852C444.717 568.302 442.874 570.071 440.746 571.16C438.618 572.249 436.18 572.793 433.434 572.793C429.004 572.793 425.169 570.937 421.927 567.226C418.686 563.489 417.065 558.528 417.065 552.341C417.065 546.551 418.537 541.54 421.482 537.309C424.451 533.053 428.683 530.924 434.176 530.924ZM466.431 551.97C466.431 556.226 467.335 559.79 469.141 562.66C470.947 565.531 473.843 566.966 477.827 566.966C480.92 566.966 483.456 565.642 485.436 562.994C487.44 560.322 488.442 556.499 488.442 551.525C488.442 546.502 487.415 542.79 485.361 540.389C483.308 537.964 480.771 536.752 477.752 536.752C474.387 536.752 471.653 538.039 469.549 540.612C467.471 543.186 466.431 546.972 466.431 551.97ZM476.49 530.924C479.534 530.924 482.083 531.568 484.137 532.855C485.324 533.597 486.673 534.896 488.182 536.752V516.671H494.604V571.383H488.591V565.852C487.032 568.302 485.188 570.071 483.06 571.16C480.932 572.249 478.495 572.793 475.748 572.793C471.319 572.793 467.483 570.937 464.241 567.226C461 563.489 459.379 558.528 459.379 552.341C459.379 546.551 460.851 541.54 463.796 537.309C466.765 533.053 470.997 530.924 476.49 530.924ZM550.503 531.63H557.89C556.949 534.178 554.858 539.994 551.617 549.075C549.192 555.905 547.163 561.472 545.529 565.778C541.669 575.924 538.947 582.11 537.363 584.337C535.78 586.564 533.058 587.678 529.198 587.678C528.257 587.678 527.527 587.64 527.008 587.566C526.513 587.492 525.894 587.356 525.152 587.158V581.071C526.315 581.392 527.156 581.59 527.676 581.664C528.195 581.739 528.653 581.776 529.049 581.776C530.286 581.776 531.19 581.565 531.759 581.145C532.353 580.749 532.847 580.254 533.243 579.66C533.367 579.462 533.813 578.448 534.58 576.616C535.347 574.785 535.903 573.424 536.25 572.533L521.551 531.63H529.123L539.776 563.996L550.503 531.63ZM579.455 567.077C583.884 567.077 586.916 565.407 588.549 562.066C590.207 558.701 591.036 554.964 591.036 550.857C591.036 547.145 590.442 544.126 589.254 541.8C587.373 538.138 584.132 536.307 579.529 536.307C575.446 536.307 572.477 537.865 570.621 540.983C568.765 544.101 567.837 547.863 567.837 552.267C567.837 556.499 568.765 560.025 570.621 562.846C572.477 565.667 575.422 567.077 579.455 567.077ZM579.715 530.479C584.837 530.479 589.167 532.186 592.706 535.601C596.245 539.016 598.014 544.039 598.014 550.671C598.014 557.08 596.455 562.376 593.337 566.558C590.219 570.739 585.381 572.83 578.824 572.83C573.355 572.83 569.013 570.987 565.796 567.3C562.579 563.588 560.97 558.614 560.97 552.379C560.97 545.697 562.665 540.377 566.055 536.418C569.446 532.459 573.999 530.479 579.715 530.479ZM612.675 531.63V558.02C612.675 560.05 612.997 561.707 613.64 562.994C614.828 565.37 617.043 566.558 620.285 566.558C624.937 566.558 628.104 564.479 629.787 560.322C630.702 558.095 631.16 555.039 631.16 551.154V531.63H637.841V571.383H631.531L631.605 565.518C630.739 567.028 629.663 568.302 628.376 569.341C625.827 571.42 622.734 572.459 619.097 572.459C613.43 572.459 609.57 570.566 607.516 566.78C606.402 564.751 605.846 562.042 605.846 558.651V531.63H612.675ZM648.494 531.63H654.841V538.496C655.361 537.16 656.635 535.539 658.664 533.634C660.693 531.704 663.032 530.739 665.68 530.739C665.803 530.739 666.014 530.751 666.311 530.776C666.608 530.801 667.115 530.85 667.832 530.924V537.977C667.436 537.903 667.065 537.853 666.719 537.828C666.397 537.804 666.038 537.791 665.642 537.791C662.277 537.791 659.691 538.88 657.885 541.058C656.078 543.21 655.175 545.697 655.175 548.518V571.383H648.494V531.63Z" fill="#C2C2C2"/>
<path d="M398.731 661.477C396.282 662.293 393.349 662.702 389.935 662.702C382.808 662.702 376.919 660.573 372.266 656.317C366.625 651.195 363.804 643.672 363.804 633.75C363.804 623.753 366.699 616.193 372.489 611.071C377.216 606.889 383.092 604.798 390.12 604.798C397.197 604.798 403.136 607.012 407.937 611.442C413.48 616.564 416.251 623.728 416.251 632.933C416.251 637.808 415.657 641.891 414.469 645.182C413.504 648.325 412.081 650.935 410.201 653.014L416.511 658.916L410.535 665.151L403.928 658.916C401.924 660.128 400.191 660.982 398.731 661.477ZM396.282 651.603L390.751 646.333L396.653 640.171L402.183 645.442C403.049 643.66 403.656 642.101 404.002 640.765C404.547 638.761 404.819 636.422 404.819 633.75C404.819 627.613 403.557 622.874 401.033 619.534C398.533 616.168 394.871 614.486 390.046 614.486C385.518 614.486 381.905 616.094 379.208 619.311C376.51 622.528 375.162 627.341 375.162 633.75C375.162 641.247 377.092 646.617 380.952 649.859C383.451 651.962 386.445 653.014 389.935 653.014C391.246 653.014 392.508 652.853 393.721 652.531C394.389 652.358 395.242 652.049 396.282 651.603ZM448.247 639.726H436.443V661.18H425.271V606.468H452.107C455.942 606.542 458.887 607.012 460.941 607.879C463.019 608.745 464.776 610.019 466.212 611.702C467.399 613.087 468.34 614.622 469.032 616.304C469.725 617.987 470.072 619.905 470.072 622.058C470.072 624.656 469.416 627.217 468.105 629.741C466.793 632.24 464.628 634.009 461.609 635.049C464.133 636.063 465.915 637.511 466.954 639.392C468.018 641.247 468.55 644.093 468.55 647.929V651.603C468.55 654.103 468.649 655.798 468.847 656.688C469.144 658.099 469.837 659.138 470.926 659.806V661.18H458.343C457.996 659.967 457.749 658.99 457.6 658.247C457.303 656.713 457.142 655.142 457.118 653.533L457.043 648.448C456.994 644.959 456.351 642.633 455.113 641.47C453.901 640.307 451.612 639.726 448.247 639.726ZM455.188 629.778C457.464 628.739 458.602 626.685 458.602 623.617C458.602 620.301 457.501 618.074 455.299 616.935C454.062 616.292 452.206 615.97 449.731 615.97H436.443V630.669H449.397C451.971 630.669 453.901 630.372 455.188 629.778ZM535.251 635.234H524.412C524.214 633.725 523.707 632.364 522.89 631.151C521.703 629.518 519.859 628.702 517.36 628.702C513.797 628.702 511.359 630.471 510.048 634.009C509.355 635.89 509.008 638.389 509.008 641.507C509.008 644.477 509.355 646.865 510.048 648.671C511.31 652.036 513.685 653.719 517.174 653.719C519.649 653.719 521.406 653.051 522.445 651.715C523.484 650.378 524.115 648.646 524.338 646.518H535.139C534.892 649.735 533.729 652.779 531.65 655.649C528.334 660.276 523.422 662.59 516.914 662.59C510.406 662.59 505.618 660.66 502.55 656.8C499.481 652.94 497.947 647.929 497.947 641.767C497.947 634.814 499.642 629.407 503.032 625.547C506.422 621.686 511.099 619.756 517.063 619.756C522.136 619.756 526.28 620.895 529.497 623.171C532.739 625.448 534.657 629.469 535.251 635.234ZM576.303 625.844C579.718 630.124 581.425 635.185 581.425 641.025C581.425 646.964 579.718 652.049 576.303 656.28C572.888 660.487 567.704 662.59 560.75 662.59C553.797 662.59 548.613 660.487 545.198 656.28C541.783 652.049 540.076 646.964 540.076 641.025C540.076 635.185 541.783 630.124 545.198 625.844C548.613 621.563 553.797 619.422 560.75 619.422C567.704 619.422 572.888 621.563 576.303 625.844ZM560.713 628.368C557.62 628.368 555.232 629.469 553.55 631.671C551.892 633.849 551.063 636.967 551.063 641.025C551.063 645.083 551.892 648.213 553.55 650.416C555.232 652.618 557.62 653.719 560.713 653.719C563.807 653.719 566.182 652.618 567.84 650.416C569.498 648.213 570.327 645.083 570.327 641.025C570.327 636.967 569.498 633.849 567.84 631.671C566.182 629.469 563.807 628.368 560.713 628.368ZM625.855 606.542V661.18H615.573V655.575C614.064 657.975 612.344 659.72 610.414 660.809C608.484 661.897 606.084 662.442 603.213 662.442C598.487 662.442 594.503 660.536 591.261 656.726C588.044 652.89 586.436 647.978 586.436 641.99C586.436 635.086 588.02 629.654 591.187 625.695C594.379 621.736 598.635 619.756 603.956 619.756C606.405 619.756 608.583 620.301 610.488 621.389C612.394 622.453 613.94 623.938 615.128 625.844V606.542H625.855ZM597.349 641.21C597.349 644.947 598.091 647.929 599.576 650.156C601.036 652.408 603.263 653.533 606.257 653.533C609.251 653.533 611.528 652.42 613.087 650.193C614.646 647.966 615.425 645.083 615.425 641.544C615.425 636.595 614.175 633.057 611.676 630.929C610.142 629.642 608.36 628.999 606.331 628.999C603.238 628.999 600.961 630.174 599.501 632.525C598.066 634.851 597.349 637.746 597.349 641.21ZM670.137 649.302C669.864 651.702 668.615 654.14 666.388 656.614C662.923 660.549 658.073 662.516 651.838 662.516C646.691 662.516 642.15 660.858 638.215 657.542C634.281 654.226 632.314 648.832 632.314 641.359C632.314 634.356 634.083 628.986 637.621 625.25C641.185 621.513 645.8 619.645 651.466 619.645C654.832 619.645 657.863 620.276 660.56 621.538C663.257 622.8 665.484 624.792 667.241 627.514C668.825 629.914 669.852 632.698 670.322 635.865C670.594 637.721 670.706 640.394 670.656 643.883H642.966C643.115 647.941 644.389 650.787 646.789 652.42C648.249 653.434 650.006 653.942 652.06 653.942C654.238 653.942 656.007 653.323 657.368 652.086C658.11 651.418 658.766 650.49 659.335 649.302H670.137ZM659.669 636.905C659.496 634.108 658.642 631.993 657.108 630.558C655.599 629.098 653.718 628.368 651.466 628.368C649.017 628.368 647.111 629.135 645.75 630.669C644.414 632.203 643.573 634.282 643.226 636.905H659.669Z" fill="#C2C2C2"/>
<path d="M894.998 891.59L886.775 853.023C885.583 847.433 878.557 845.55 874.73 849.795L848.324 879.084L809.104 874.987C803.419 874.393 799.458 880.493 802.312 885.445L822.007 919.608L805.991 955.644C803.67 960.866 808.247 966.519 813.839 965.335L852.416 957.161L881.738 983.528C885.988 987.35 892.779 984.743 893.38 979.059L897.527 939.844L931.666 920.105C936.613 917.244 936.233 909.98 931.013 907.652L894.998 891.59Z" fill="white" stroke="#333333" stroke-width="12"/>
<path d="M150.76 453.458L117.674 432.002C112.879 428.892 106.579 432.529 106.875 438.237L108.913 477.618L78.2831 502.455C73.8437 506.054 75.356 513.169 80.8757 514.652L118.96 524.883L133.115 561.689C135.167 567.023 142.401 567.783 145.517 562.992L167.015 529.934L206.394 527.845C212.101 527.542 215.06 520.897 211.466 516.453L186.669 485.791L196.851 447.694C198.327 442.172 192.921 437.305 187.584 439.35L150.76 453.458Z" fill="white" stroke="#333333" stroke-width="12"/>
<path d="M762.859 146.274L722.606 96.2153C718.895 91.5992 711.514 93.1363 709.954 98.8507L693.036 160.817L632.989 183.631C627.451 185.734 626.633 193.229 631.585 196.478L685.291 231.717L688.432 295.875C688.722 301.791 695.596 304.886 700.217 301.18L750.327 260.992L812.316 277.831C818.032 279.383 823.099 273.802 821.003 268.262L798.267 208.185L833.437 154.434C836.68 149.478 832.937 142.933 827.021 143.215L762.859 146.274Z" fill="white" stroke="#333333" stroke-width="12"/>
<path d="M168.358 149.744C166.955 155.692 164.836 161.409 161.401 166.518C160.628 167.647 158.879 170.729 157.639 171.407C152.688 174.156 152.514 168.054 152.077 165.135C150.373 153.756 151.571 142.022 153.055 130.635C154.51 119.716 156.407 108.87 157.058 97.8211C157.384 92.0082 159.534 80.6725 152.807 77.9405C151.982 77.5852 150.44 77.4221 149.814 78.2429C136.55 95.2849 130.44 116.366 125.53 137.049C122.982 147.761 120.75 158.504 118.752 169.261C119.307 161.005 119.816 152.722 120.207 144.432C120.719 134.15 121.4 123.784 121.1 113.489C120.917 106.352 120.968 92.7739 114.217 88.0885C102.511 79.9661 90.2793 104.302 86.1542 111.709C77.1595 127.761 71.3713 146.027 70.3126 164.449C69.851 172.335 70.8519 181.52 78.7682 185.393C83.8066 187.847 90.3505 187.746 93.6512 182.712C94.5986 181.228 90.9274 180.291 90.0177 181.341C86.5818 185.298 79.5383 183.534 77.1351 179.298C75.743 176.827 75.187 173.749 75.0043 170.916C74.6376 166.249 75.3037 161.421 75.9461 156.791C77.1318 148.596 79.121 140.531 81.8708 132.724C84.7064 124.663 88.3577 116.921 92.7915 109.662C95.025 105.95 97.4499 102.38 100.066 98.9509C101.141 97.5102 102.26 96.0958 103.425 94.7077C105.844 91.8308 106.729 89.8261 110.499 91.8516C118.239 95.9261 116.441 114.315 116.261 121.818C116.029 131.564 115.527 141.305 115.015 151.011C113.927 170.9 113.145 190.784 112.174 210.681C112.109 212.158 115.768 212.907 115.96 211.472C118.889 187.554 123.324 163.809 128.917 140.369C133.801 119.731 139.678 99.2119 152.435 81.9984C154.071 86.6708 152.351 98.4675 152.094 101.38C151.519 107.836 150.618 114.226 149.681 120.625C147.843 133.414 145.963 146.33 146.901 159.298C147.324 165.179 148.48 177.666 157.499 175.902C161.438 175.116 164.239 170.369 166.249 167.256C169.459 162.169 171.58 156.605 172.641 150.671C172.919 148.983 168.763 148.099 168.358 149.744ZM193.619 131.87C190.894 136.328 185.6 150.273 178.299 151.423C176.162 151.765 174.572 149.27 174.331 147.798C173.592 143.462 174.234 138.832 175.571 134.785C178.106 141.522 191.803 130.973 190.648 124.942C190.158 122.538 187.638 118.87 183.939 118.978C179.179 119.139 175.712 123.411 173.488 127.158C169.418 134.051 164.198 151.858 175.818 155.354C184.17 157.843 193.113 138.73 195.69 132.429C196.303 130.844 194.425 130.578 193.619 131.87ZM180.645 125.471C183.615 122.215 187.219 120.75 185.92 125.94C185.625 127.134 181.92 133.814 179.101 134.338C177.925 134.538 176.492 133.923 175.854 133.979C177.1 130.455 178.859 127.409 180.645 125.471ZM222.305 105.7C219.207 115.791 216.203 127.24 214.135 137.593C213.767 139.229 212.815 144.711 211.122 144.703C210.266 144.663 209.656 142.675 209.235 140.674C208.158 135.506 208.303 130.741 207.512 125.496C207.3 124.131 203.767 122.849 203.315 124.315C202.319 127.771 201.288 131.237 200.257 134.703C199.669 136.666 199.275 139.5 198.315 141.794C197.704 138.653 198.039 135.028 198.2 132.333C198.356 130.332 198.606 121.657 200.736 120.856C202.659 120.148 199.875 118.935 199.002 118.976C191.839 119.205 193.892 140.635 196.195 144.783C196.751 145.71 198.534 147.346 199.423 146.647C201.984 144.731 202.208 142.557 203.137 139.426C203.675 137.706 204.197 136.068 204.718 134.429C205.578 139.502 206.668 144.859 208.014 146.727C208.89 147.991 212.269 150.275 213.932 149.022C217.701 146.168 218.661 129.387 225.766 106.425C226.149 105.131 222.725 104.397 222.305 105.7ZM296.493 40.247C290.995 65.6218 285.958 92.1412 276.299 116.325C273.767 122.653 270.793 128.906 267.008 134.57C266.28 135.726 265.471 136.865 264.561 137.916C262.381 138.384 261.414 137.644 261.615 135.669C260.388 133.385 260.88 128.335 260.728 125.762C260.051 113.339 260.849 100.829 259.192 88.4768C258.239 81.6231 257.086 69.2895 249.417 66.1952C241.657 63.0484 235.928 70.9239 233.114 77.0577C229.334 85.1796 227.891 96.2873 232.109 104.572C235.508 111.231 242.891 114.979 250.135 112.615C252.257 111.931 249.274 110.117 248.028 110.489C235.587 113.823 233.899 97.4828 234.641 90.2134C235.04 86.11 236.162 82.1205 237.891 78.3909C239.09 75.8407 240.92 72.1995 243.45 70.5993C248.51 67.3989 250.473 71.7146 251.75 75.9069C253.198 80.5914 254.036 85.4393 254.577 90.3282C255.721 101.05 255.129 111.892 255.481 122.672C255.687 128.458 254.409 139.752 261.348 142.273C267.871 144.676 271.54 137.429 274.217 132.792C278.977 124.6 282.402 115.728 285.223 106.749C290.017 91.5147 293.834 75.9282 297.543 60.3705C298.071 76.2531 297.691 92.187 296.318 108.002C295.372 118.67 293.993 129.299 292.172 139.855C290.284 150.736 286.704 161.61 285.646 172.576C285.454 174.587 289.788 175.847 290.63 173.969C295.256 163.699 296.779 151.455 298.655 140.385C300.523 129.432 301.904 118.38 302.816 107.299C304.571 85.3095 304.21 63.3106 301.977 41.3523C301.812 39.5903 296.945 38.2046 296.493 40.247ZM330.434 95.2106C327.709 99.6682 322.415 113.614 315.115 114.763C312.977 115.105 311.387 112.611 311.146 111.138C310.407 106.802 311.049 102.172 312.386 98.1253C314.921 104.862 328.618 94.3138 327.463 88.2827C326.973 85.878 324.453 82.2109 320.754 82.3181C315.994 82.4793 312.527 86.7513 310.304 90.4982C306.233 97.3914 301.013 115.198 312.633 118.694C320.985 121.183 329.928 102.071 332.505 95.77C333.118 94.1841 331.241 93.9185 330.434 95.2106ZM317.46 88.8112C320.431 85.5559 324.034 84.0907 322.735 89.2807C322.44 90.4741 318.735 97.1541 315.917 97.6787C314.74 97.8786 313.308 97.2634 312.669 97.3192C313.915 93.7958 315.674 90.75 317.46 88.8112ZM350.739 97.9933C351.141 100.499 352.108 102.814 354.45 103.954C363.347 108.333 367.239 91.8814 368.748 86.3277C369.027 85.2156 366.905 84.9001 366.565 86.0673C365.415 89.9493 362.342 99.995 357.876 99.9621C355.805 99.9789 355.82 96.5933 355.815 94.1354C355.845 86.7879 357.612 79.4742 358.797 72.2784C359.196 70.3269 354.087 70.6199 353.58 72.6002C353.023 74.8245 352.529 76.9937 352.079 79.1891C351.118 75.0276 348.006 72.0187 342.706 74.899C333.553 79.8879 328.705 97.3645 330.108 106.903C331.287 114.887 339.047 115.882 343.69 109.835C346.447 106.214 348.757 102.213 350.739 97.9933ZM336.907 109.616C332.345 107.649 336.661 93.9264 338.389 89.6206C342.771 78.7245 345.725 77.7024 347.235 78.6044C348.598 79.3917 347.855 83.3569 347.586 84.5048C347.272 85.6266 349.12 87.9364 350.476 87.6885C350.133 88.7027 349.78 89.681 349.375 90.7503C347.866 94.7283 342.057 111.771 336.907 109.616ZM387.697 63.1127C374.151 63.8988 372.16 76.1142 370.211 87.6267C370.08 80.3989 370.958 73.2082 371.528 67.4453C371.631 66.111 368.035 68.0353 367.642 69.2934C367.642 69.2934 363.664 91.3022 366.909 101.692C367.413 103.286 371.461 103.623 372.119 102.063C377.22 90.552 373.474 69.1143 388.89 64.9834C391.006 64.4166 388.902 63.0204 387.697 63.1127Z" fill="#333333"/>
<path d="M173.234 203.46C173.234 199.769 173.952 196.487 175.388 193.616C176.823 190.722 178.885 188.501 181.574 186.951C184.263 185.402 187.419 184.627 191.042 184.627C196.579 184.627 200.943 186.347 204.133 189.788C207.323 193.206 208.918 197.866 208.918 203.768V204.178C208.918 209.943 207.312 214.523 204.099 217.918C200.909 221.29 196.579 222.977 191.11 222.977C185.847 222.977 181.62 221.404 178.43 218.26C175.24 215.092 173.519 210.809 173.269 205.408L173.234 203.46ZM184.753 204.178C184.753 207.596 185.288 210.102 186.359 211.697C187.43 213.292 189.014 214.09 191.11 214.09C195.212 214.09 197.308 210.934 197.399 204.622V203.46C197.399 196.829 195.28 193.514 191.042 193.514C187.191 193.514 185.106 196.373 184.787 202.093L184.753 204.178ZM218.64 222.293V193.309H213.274V185.311H218.64V182.371C218.64 178.156 219.882 174.886 222.366 172.562C224.849 170.237 228.336 169.075 232.825 169.075C234.465 169.075 236.265 169.314 238.225 169.793L238.259 178.27C237.553 178.064 236.607 177.962 235.422 177.962C231.936 177.962 230.193 179.466 230.193 182.474V185.311H237.405V193.309H230.193V222.293H218.64ZM246.101 222.293V193.309H240.735V185.311H246.101V182.371C246.101 178.156 247.343 174.886 249.827 172.562C252.311 170.237 255.797 169.075 260.286 169.075C261.927 169.075 263.727 169.314 265.686 169.793L265.721 178.27C265.014 178.064 264.068 177.962 262.884 177.962C259.397 177.962 257.654 179.466 257.654 182.474V185.311H264.866V193.309H257.654V222.293H246.101ZM288.089 222.977C282.415 222.977 277.824 221.29 274.315 217.918C270.806 214.523 269.051 210.114 269.051 204.69V203.733C269.051 199.951 269.746 196.613 271.136 193.719C272.549 190.825 274.599 188.592 277.288 187.02C279.977 185.424 283.167 184.627 286.859 184.627C292.054 184.627 296.155 186.245 299.163 189.48C302.171 192.693 303.675 197.182 303.675 202.947V207.425H280.775C281.185 209.498 282.085 211.128 283.475 212.312C284.865 213.497 286.665 214.09 288.875 214.09C292.521 214.09 295.369 212.814 297.42 210.262L302.684 216.482C301.248 218.465 299.209 220.049 296.566 221.233C293.945 222.396 291.12 222.977 288.089 222.977ZM286.79 193.514C283.418 193.514 281.413 195.747 280.775 200.213H292.396V199.324C292.441 197.479 291.974 196.054 290.994 195.052C290.015 194.026 288.613 193.514 286.79 193.514ZM332.811 195.735L329.017 195.462C325.394 195.462 323.07 196.601 322.045 198.88V222.293H310.526V185.311H321.327L321.703 190.062C323.64 186.438 326.34 184.627 329.803 184.627C331.034 184.627 332.105 184.764 333.016 185.037L332.811 195.735Z" fill="black"/>
<path d="M707.184 194.663C707.011 193.831 706.534 193.269 705.753 192.977C704.984 192.683 703.772 192.534 702.116 192.53C700.46 192.526 699.048 192.378 697.879 192.086C695.316 191.443 693.813 190.052 693.37 187.915C692.999 186.123 693.443 184.469 694.704 182.953C695.965 181.437 697.761 180.437 700.09 179.954C702.573 179.44 704.704 179.639 706.481 180.552C708.272 181.462 709.37 182.897 709.776 184.855L705.111 185.822C704.925 184.926 704.438 184.253 703.651 183.802C702.861 183.338 701.915 183.22 700.814 183.449C699.79 183.661 699.001 184.071 698.446 184.68C697.905 185.286 697.716 185.986 697.88 186.78C698.029 187.497 698.445 187.991 699.129 188.263C699.813 188.535 701.112 188.686 703.028 188.717C704.94 188.734 706.473 188.917 707.627 189.265C708.79 189.598 709.703 190.103 710.364 190.78C711.037 191.455 711.49 192.349 711.72 193.463C712.108 195.331 711.648 197.009 710.34 198.494C709.031 199.967 707.121 200.964 704.613 201.484C702.91 201.837 701.33 201.844 699.871 201.505C698.413 201.167 697.201 200.537 696.236 199.616C695.271 198.694 694.659 197.613 694.402 196.371L698.933 195.432C699.225 196.52 699.818 197.285 700.71 197.727C701.6 198.157 702.679 198.24 703.946 197.978C705.175 197.723 706.061 197.299 706.606 196.705C707.147 196.099 707.34 195.418 707.184 194.663ZM724.863 193.402C726.028 193.16 726.924 192.621 727.552 191.783C728.179 190.946 728.415 190.022 728.259 189.013L732.656 188.102C732.872 189.405 732.72 190.699 732.198 191.981C731.674 193.251 730.833 194.347 729.676 195.268C728.518 196.188 727.191 196.804 725.693 197.114C722.788 197.716 720.289 197.253 718.196 195.725C716.104 194.196 714.714 191.774 714.027 188.459L713.928 187.979C713.273 184.818 713.593 182.115 714.89 179.87C716.184 177.613 718.291 176.182 721.209 175.577C723.679 175.065 725.839 175.372 727.687 176.497C729.546 177.607 730.756 179.325 731.319 181.651L726.922 182.563C726.624 181.383 726.012 180.489 725.084 179.88C724.17 179.268 723.124 179.085 721.947 179.329C720.436 179.642 719.386 180.434 718.795 181.704C718.201 182.962 718.128 184.706 718.577 186.935L718.733 187.684C719.199 189.937 719.951 191.536 720.989 192.483C722.036 193.414 723.328 193.72 724.863 193.402ZM750.016 191.672C749.728 191.318 749.415 190.709 749.076 189.845C747.912 191.701 746.255 192.852 744.105 193.298C742.019 193.73 740.193 193.488 738.628 192.571C737.063 191.654 736.099 190.319 735.735 188.565C735.276 186.351 735.744 184.485 737.138 182.968C738.543 181.435 740.774 180.352 743.833 179.718L746.694 179.125L746.411 177.762C746.189 176.687 745.71 175.892 744.976 175.376C744.239 174.848 743.256 174.712 742.027 174.966C740.965 175.186 740.15 175.636 739.583 176.314C739.014 176.979 738.814 177.721 738.984 178.541L734.318 179.508C734.082 178.368 734.24 177.228 734.791 176.086C735.339 174.931 736.201 173.938 737.377 173.107C738.566 172.273 739.96 171.69 741.56 171.359C743.992 170.855 746.058 171.067 747.759 171.996C749.458 172.912 750.556 174.473 751.053 176.68L752.995 186.049C753.382 187.918 753.954 189.354 754.709 190.359L754.777 190.686L750.016 191.672ZM744.193 189.375C745.115 189.184 745.932 188.781 746.646 188.166C747.372 187.548 747.862 186.819 748.115 185.979L747.303 182.063L744.788 182.584C743.06 182.942 741.823 183.512 741.077 184.294C740.332 185.076 740.073 186.017 740.301 187.118C740.487 188.014 740.93 188.67 741.63 189.085C742.34 189.485 743.195 189.582 744.193 189.375ZM758.9 168.165L759.531 170.537C760.683 168.363 762.506 167.017 765.002 166.5C769.328 165.603 772.043 167.624 773.147 172.561L775.992 186.288L771.326 187.255L768.537 173.797C768.264 172.478 767.774 171.565 767.068 171.058C766.372 170.534 765.378 170.407 764.085 170.675C762.204 171.065 760.979 172.206 760.41 174.1L763.474 188.883L758.809 189.85L754.503 169.076L758.9 168.165ZM720.082 221.146L720.666 223.288C721.772 221.283 723.592 220.018 726.127 219.493C728.904 218.917 731.025 219.586 732.489 221.498C733.559 219.06 735.464 217.558 738.203 216.99C740.494 216.515 742.327 216.796 743.704 217.832C745.093 218.866 746.056 220.615 746.594 223.08L749.423 236.73L744.758 237.697L741.956 224.181C741.683 222.863 741.195 221.956 740.491 221.461C739.788 220.966 738.771 220.857 737.44 221.133C736.377 221.353 735.567 221.821 735.008 222.538C734.459 223.239 734.145 224.078 734.068 225.055L737.04 239.297L732.374 240.264L729.541 226.594C728.97 224.163 727.469 223.199 725.037 223.703C723.168 224.091 722.001 225.127 721.536 226.812L724.656 241.864L719.991 242.831L715.685 222.058L720.082 221.146ZM763.441 234.225C760.484 234.838 757.892 234.408 755.664 232.934C753.447 231.444 752.017 229.151 751.375 226.054L751.256 225.478C750.826 223.404 750.839 221.472 751.296 219.682C751.763 217.877 752.625 216.37 753.883 215.161C755.141 213.953 756.659 213.164 758.439 212.795C761.267 212.209 763.637 212.659 765.547 214.146C767.469 215.629 768.773 218.022 769.457 221.324L769.847 223.206L756.274 226.019C756.77 227.705 757.621 228.944 758.826 229.735C760.044 230.524 761.415 230.761 762.938 230.445C765.075 230.002 766.637 228.777 767.623 226.771L770.635 228.649C770.061 230.063 769.147 231.261 767.896 232.241C766.654 233.206 765.169 233.867 763.441 234.225ZM759.195 216.543C757.915 216.809 756.972 217.471 756.364 218.532C755.769 219.59 755.528 220.941 755.642 222.586L764.531 220.744L764.46 220.398C764.034 218.858 763.374 217.766 762.479 217.124C761.583 216.469 760.488 216.275 759.195 216.543Z" fill="black"/>
</g>
<defs>
<clipPath id="clip0_270:121">
<rect width="1000" height="1000" fill="white"/>
</clipPath>
</defs>
</svg>
