<svg width="1300" height="550" viewBox="0 0 1300 550" fill="none" xmlns="http://www.w3.org/2000/svg">
<rect width="1300" height="550" fill="#333333"/>
<path d="M211.168 361.993C211.168 359.737 210.362 357.979 208.751 356.72C207.169 355.46 204.371 354.156 200.357 352.809C196.344 351.461 193.062 350.157 190.514 348.897C182.223 344.825 178.077 339.229 178.077 332.11C178.077 328.565 179.103 325.445 181.153 322.75C183.233 320.025 186.163 317.916 189.942 316.422C193.722 314.898 197.97 314.137 202.687 314.137C207.286 314.137 211.402 314.957 215.035 316.598C218.697 318.238 221.539 320.582 223.561 323.629C225.582 326.646 226.593 330.104 226.593 334H211.212C211.212 331.393 210.406 329.371 208.795 327.936C207.213 326.5 205.06 325.782 202.335 325.782C199.581 325.782 197.398 326.397 195.787 327.628C194.205 328.829 193.414 330.367 193.414 332.242C193.414 333.883 194.293 335.377 196.051 336.725C197.809 338.043 200.899 339.42 205.323 340.855C209.747 342.262 213.38 343.785 216.222 345.426C223.136 349.41 226.593 354.903 226.593 361.905C226.593 367.501 224.483 371.896 220.265 375.089C216.046 378.282 210.26 379.879 202.906 379.879C197.721 379.879 193.019 378.956 188.8 377.11C184.61 375.235 181.446 372.687 179.308 369.464C177.198 366.212 176.144 362.477 176.144 358.258H191.612C191.612 361.686 192.491 364.22 194.249 365.86C196.036 367.472 198.922 368.277 202.906 368.277C205.455 368.277 207.462 367.735 208.927 366.651C210.421 365.538 211.168 363.985 211.168 361.993Z" fill="white"/>
<path d="M328.369 367.135H355.22V379H312.944V315.016H328.369V367.135Z" fill="white"/>
<path d="M401.836 351.886H377.578V367.135H406.23V379H362.153V315.016H406.318V326.925H377.578V340.416H401.836V351.886Z" fill="white"/>
<path d="M274.529 296.734L295.102 319.183C299.511 323.994 296.098 331.75 289.573 331.75H248.427C241.902 331.75 238.489 323.994 242.898 319.183L263.471 296.734C266.443 293.49 271.557 293.49 274.529 296.734Z" fill="#333333" stroke="white" stroke-width="5"/>
<path d="M274.529 318.734L295.102 341.183C299.511 345.994 296.098 353.75 289.573 353.75H248.427C241.902 353.75 238.489 345.994 242.898 341.183L263.471 318.734C266.443 315.49 271.557 315.49 274.529 318.734Z" fill="#333333" stroke="white" stroke-width="5"/>
<path d="M274.529 340.734L295.102 363.183C299.511 367.994 296.098 375.75 289.573 375.75H248.427C241.902 375.75 238.489 367.994 242.898 363.183L263.471 340.734C266.443 337.49 271.557 337.49 274.529 340.734Z" fill="#333333" stroke="white" stroke-width="5"/>
<path d="M251.946 241.988C247.041 251.107 241.067 259.533 233.206 266.387C231.446 267.897 227.232 272.173 224.906 272.739C215.599 275.066 217.988 265.004 218.554 260.036C220.755 240.668 227.861 221.991 235.282 204.006C242.45 186.775 250.311 169.86 256.222 152.063C259.304 142.693 267.793 125.086 257.983 117.665C256.788 116.722 254.336 115.779 252.952 116.848C223.774 138.92 204.531 170.74 187.426 202.434C178.56 218.847 170.196 235.448 162.21 252.176C166.737 238.907 171.202 225.575 175.478 212.181C180.823 195.579 186.483 178.915 190.508 161.936C193.337 150.177 199.374 127.978 190.382 117.351C174.787 98.9256 144.099 133.386 134.1 143.699C112.342 166.024 94.8601 193.378 85.0501 223.06C80.8368 235.763 78.4472 251.232 89.7036 261.042C96.8724 267.268 107.626 269.972 115.235 263.18C117.436 261.168 111.839 258.024 109.89 259.344C102.532 264.312 91.7788 258.338 89.7036 250.352C88.5088 245.698 88.9489 240.416 89.8922 235.7C91.3386 227.902 94.5457 220.293 97.627 212.998C103.161 200.107 109.952 187.782 117.876 176.211C126.051 164.263 135.421 153.195 145.86 143.259C151.142 138.166 156.676 133.386 162.461 128.922C164.851 127.035 167.303 125.211 169.819 123.451C175.038 119.803 177.365 116.911 182.647 121.879C193.526 131.94 182.521 161.244 178.937 173.444C174.283 189.291 169.19 205.012 164.096 220.67C153.594 252.742 143.596 284.938 133.283 317.073C132.528 319.462 138.188 322.292 139.131 320.028C154.412 282.172 172.082 245.258 191.514 209.351C208.556 177.72 227.169 146.718 255.593 124.142C256.222 132.506 248.236 151.057 246.538 155.71C242.765 166.024 238.489 176.085 234.15 186.147C225.534 206.27 216.793 226.581 212.643 248.214C210.757 258.024 207.172 278.964 222.705 280.033C229.496 280.474 236.162 273.934 240.815 269.72C248.299 262.803 254.21 254.628 258.549 245.384C259.744 242.743 253.329 239.473 251.946 241.988ZM301.122 223.815C294.708 229.914 279.93 250.415 267.479 249.094C263.831 248.717 262.322 243.938 262.573 241.422C263.265 234.002 266.347 226.707 270.308 220.67C271.503 232.807 298.544 221.551 299.298 211.175C299.55 207.024 297.034 199.918 290.934 198.472C283.074 196.648 275.528 202.119 270.245 207.276C260.561 216.771 244.211 243.623 261.693 254.439C274.27 262.174 297.286 234.819 304.266 225.638C305.964 223.311 303.008 222.054 301.122 223.815ZM282.697 207.653C288.985 203.629 295.525 202.811 291.123 210.735C290.117 212.558 281.124 221.865 276.282 221.488C274.27 221.299 272.195 219.664 271.126 219.476C274.71 214.256 278.924 210.043 282.697 207.653ZM359.542 193.567C350.046 208.722 340.11 226.141 332.187 242.177C330.866 244.692 326.905 253.245 324.138 252.49C322.754 252.05 322.628 248.528 322.817 245.07C323.32 236.14 325.647 228.405 326.653 219.476C326.905 217.149 321.685 213.501 320.302 215.702C317.157 220.922 313.95 226.141 310.743 231.361C308.92 234.316 307.033 238.781 304.455 242.114C304.832 236.706 306.97 230.921 308.416 226.581C309.548 223.374 313.762 209.288 317.598 208.911C321.056 208.596 317.032 205.389 315.585 205.075C303.763 202.308 297.726 238.278 299.675 246.076C300.179 247.837 302.379 251.295 304.14 250.541C309.171 248.528 310.492 245.07 313.384 240.353C315.019 237.775 316.591 235.322 318.164 232.87C317.346 241.548 316.78 250.792 318.164 254.439C319.044 256.892 323.572 262.111 326.842 260.791C334.262 257.772 343.192 230.732 364.887 196.271C366.082 194.322 360.799 191.618 359.542 193.567ZM509.647 118.986C489.524 158.1 469.653 199.29 443.241 234.631C436.324 243.875 428.715 252.804 420.037 260.413C418.339 261.986 416.515 263.495 414.566 264.815C410.793 264.627 409.535 262.992 410.73 259.847C409.724 255.571 412.742 247.522 413.622 243.246C417.961 222.62 424.753 202.497 427.457 181.556C428.903 169.922 432.425 149.233 421.231 140.807C409.912 132.254 397.084 142.63 389.789 151.434C380.042 163.068 372.81 180.613 376.08 196.02C378.721 208.408 389.16 217.778 402.052 217.086C405.825 216.897 401.737 212.621 399.536 212.684C377.715 212.684 382.117 185.203 386.519 173.633C388.972 167.093 392.556 161.056 397.021 155.71C400.102 152.063 404.693 146.907 409.535 145.397C419.219 142.379 420.54 150.302 420.791 157.723C421.106 166.024 420.351 174.324 419.093 182.562C416.264 200.61 410.541 218.092 406.391 235.888C404.19 245.447 397.147 263.369 407.397 270.538C417.018 277.329 426.199 267.079 432.614 260.665C443.996 249.346 453.491 236.329 462.044 222.871C476.57 200.044 489.65 176.211 502.541 152.378C496.442 178.6 488.833 204.509 479.651 229.789C473.426 246.83 466.508 263.621 458.899 280.096C451.039 297.075 440.411 313.299 433.871 330.781C432.677 333.988 439.217 337.95 441.417 335.246C453.491 320.468 461.352 301.1 469.275 283.807C477.136 266.702 484.242 249.22 490.593 231.486C503.107 196.271 512.163 160.112 518.137 123.199C518.64 120.244 511.282 115.842 509.647 118.986ZM541.09 223.815C534.675 229.914 519.898 250.415 507.446 249.094C503.799 248.717 502.29 243.938 502.541 241.422C503.233 234.002 506.314 226.707 510.276 220.67C511.471 232.807 538.511 221.551 539.266 211.175C539.518 207.024 537.002 199.918 530.902 198.472C523.042 196.648 515.496 202.119 510.213 207.276C500.529 216.771 484.179 243.623 501.661 254.439C514.238 262.174 537.254 234.819 544.234 225.638C545.932 223.311 542.976 222.054 541.09 223.815ZM522.664 207.653C528.953 203.629 535.493 202.811 531.091 210.735C530.085 212.558 521.092 221.865 516.25 221.488C514.238 221.299 512.163 219.664 511.094 219.476C514.678 214.256 518.891 210.043 522.664 207.653ZM573.098 237.272C572.658 241.548 573.224 245.761 576.557 248.654C589.196 259.722 602.78 234.505 607.685 226.078C608.628 224.381 605.295 222.934 604.226 224.695C600.641 230.543 591.209 245.636 583.914 243.623C580.518 242.743 582.028 237.209 583.097 233.184C586.367 221.173 592.466 209.98 597.56 198.724C599.069 195.705 590.58 193.944 588.882 196.963C586.995 200.359 585.235 203.691 583.537 207.087C583.788 199.856 580.015 193.567 570.08 195.957C552.912 200.107 537.317 226.581 535.43 242.806C533.858 256.389 546.12 261.42 556.371 253.559C562.47 248.843 568.004 243.309 573.098 237.272ZM545.366 250.226C538.763 245.007 551.843 224.443 556.559 218.155C568.507 202.245 573.79 201.868 575.865 204.006C577.751 205.892 574.796 212.055 573.853 213.816C572.846 215.514 574.859 220.104 577.185 220.293C576.179 221.802 575.173 223.249 574.041 224.821C569.828 230.669 552.849 256.012 545.366 250.226ZM648.874 196.397C626.361 191.743 617.746 210.86 609.508 228.845C612.464 216.96 617.054 205.578 620.513 196.397C621.268 194.259 614.539 195.831 613.344 197.717C613.344 197.717 597.183 231.99 597.937 250.415C598.063 253.245 604.54 255.571 606.301 253.307C619.696 236.706 622.966 199.981 650.006 199.981C653.716 199.981 650.886 196.774 648.874 196.397Z" fill="white"/>
<rect x="750" y="25" width="500" height="500" rx="10.9555" fill="white"/>
<path d="M1109.65 71.0762H1204.67V166.101" stroke="#C2C2C2" stroke-width="19.005"/>
<path d="M891.09 71.0762H796.065V166.101" stroke="#C2C2C2" stroke-width="19.005"/>
<path d="M1109.65 479.684H1204.67V384.659" stroke="#C2C2C2" stroke-width="19.005"/>
<path d="M891.09 479.684H796.065V384.659" stroke="#C2C2C2" stroke-width="19.005"/>
<path d="M887.064 235.838L879.2 212.952L870.843 235.838H887.064ZM875.533 205.265H883.467L902.263 257.066H894.575L889.321 241.551H868.833L863.226 257.066H856.033L875.533 205.265ZM911.819 238.624C911.819 242.667 912.677 246.053 914.393 248.78C916.109 251.507 918.86 252.87 922.645 252.87C925.583 252.87 927.993 251.612 929.874 249.097C931.778 246.558 932.73 242.926 932.73 238.201C932.73 233.428 931.754 229.902 929.803 227.622C927.852 225.318 925.442 224.166 922.574 224.166C919.377 224.166 916.779 225.388 914.781 227.833C912.806 230.278 911.819 233.875 911.819 238.624ZM921.375 218.63C924.267 218.63 926.688 219.241 928.639 220.463C929.768 221.168 931.049 222.403 932.483 224.166V205.088H938.584V257.066H932.871V251.812C931.39 254.14 929.639 255.82 927.617 256.855C925.595 257.889 923.279 258.406 920.67 258.406C916.462 258.406 912.818 256.643 909.738 253.117C906.659 249.567 905.119 244.854 905.119 238.976C905.119 233.475 906.518 228.715 909.315 224.695C912.136 220.651 916.156 218.63 921.375 218.63ZM952.019 238.624C952.019 242.667 952.877 246.053 954.593 248.78C956.309 251.507 959.06 252.87 962.845 252.87C965.783 252.87 968.193 251.612 970.074 249.097C971.978 246.558 972.93 242.926 972.93 238.201C972.93 233.428 971.954 229.902 970.003 227.622C968.052 225.318 965.642 224.166 962.774 224.166C959.577 224.166 956.979 225.388 954.981 227.833C953.006 230.278 952.019 233.875 952.019 238.624ZM961.575 218.63C964.467 218.63 966.888 219.241 968.839 220.463C969.968 221.168 971.249 222.403 972.683 224.166V205.088H978.784V257.066H973.071V251.812C971.59 254.14 969.839 255.82 967.817 256.855C965.795 257.889 963.479 258.406 960.87 258.406C956.662 258.406 953.018 256.643 949.938 253.117C946.859 249.567 945.319 244.854 945.319 238.976C945.319 233.475 946.718 228.715 949.515 224.695C952.336 220.651 956.356 218.63 961.575 218.63ZM1031.89 219.3H1038.91C1038.01 221.721 1036.03 227.246 1032.95 235.873C1030.64 242.362 1028.72 247.651 1027.16 251.742C1023.5 261.38 1020.91 267.257 1019.41 269.373C1017.9 271.489 1015.32 272.547 1011.65 272.547C1010.76 272.547 1010.06 272.512 1009.57 272.441C1009.1 272.371 1008.51 272.241 1007.81 272.053V266.27C1008.91 266.576 1009.71 266.764 1010.2 266.834C1010.7 266.905 1011.13 266.94 1011.51 266.94C1012.68 266.94 1013.54 266.74 1014.08 266.341C1014.65 265.964 1015.12 265.494 1015.49 264.93C1015.61 264.742 1016.03 263.778 1016.76 262.039C1017.49 260.299 1018.02 259.006 1018.35 258.16L1004.38 219.3H1011.58L1021.7 250.049L1031.89 219.3ZM1059.4 252.976C1063.6 252.976 1066.48 251.389 1068.03 248.215C1069.61 245.018 1070.4 241.468 1070.4 237.566C1070.4 234.04 1069.83 231.171 1068.7 228.962C1066.92 225.482 1063.84 223.743 1059.47 223.743C1055.59 223.743 1052.77 225.224 1051 228.186C1049.24 231.148 1048.36 234.721 1048.36 238.906C1048.36 242.926 1049.24 246.276 1051 248.956C1052.77 251.636 1055.56 252.976 1059.4 252.976ZM1059.64 218.206C1064.51 218.206 1068.62 219.828 1071.98 223.073C1075.35 226.317 1077.03 231.089 1077.03 237.39C1077.03 243.478 1075.55 248.509 1072.58 252.482C1069.62 256.455 1065.03 258.442 1058.8 258.442C1053.6 258.442 1049.47 256.69 1046.42 253.187C1043.36 249.661 1041.83 244.936 1041.83 239.012C1041.83 232.664 1043.44 227.61 1046.67 223.848C1049.89 220.087 1054.21 218.206 1059.64 218.206ZM1090.96 219.3V244.372C1090.96 246.299 1091.26 247.874 1091.87 249.097C1093 251.354 1095.11 252.482 1098.18 252.482C1102.6 252.482 1105.61 250.507 1107.21 246.558C1108.08 244.442 1108.52 241.539 1108.52 237.848V219.3H1114.86V257.066H1108.87L1108.94 251.495C1108.12 252.929 1107.09 254.14 1105.87 255.127C1103.45 257.102 1100.51 258.089 1097.06 258.089C1091.67 258.089 1088.01 256.291 1086.05 252.694C1085 250.766 1084.47 248.192 1084.47 244.971V219.3H1090.96ZM1124.98 219.3H1131.01V225.823C1131.51 224.554 1132.72 223.014 1134.65 221.204C1136.57 219.37 1138.8 218.453 1141.31 218.453C1141.43 218.453 1141.63 218.465 1141.91 218.488C1142.19 218.512 1142.68 218.559 1143.36 218.63V225.33C1142.98 225.259 1142.63 225.212 1142.3 225.188C1141.99 225.165 1141.65 225.153 1141.28 225.153C1138.08 225.153 1135.62 226.188 1133.91 228.256C1132.19 230.302 1131.33 232.664 1131.33 235.344V257.066H1124.98V219.3Z" fill="#C2C2C2"/>
<path d="M887.699 342.659C885.372 343.435 882.586 343.823 879.342 343.823C872.571 343.823 866.976 341.801 862.557 337.757C857.197 332.891 854.517 325.744 854.517 316.317C854.517 306.82 857.267 299.638 862.768 294.772C867.258 290.799 872.842 288.812 879.518 288.812C886.242 288.812 891.884 290.916 896.444 295.124C901.71 299.991 904.343 306.796 904.343 315.542C904.343 320.173 903.779 324.052 902.651 327.179C901.734 330.164 900.382 332.644 898.595 334.619L904.59 340.226L898.913 346.15L892.636 340.226C890.732 341.378 889.086 342.189 887.699 342.659ZM885.372 333.279L880.118 328.272L885.724 322.418L890.979 327.425C891.801 325.733 892.377 324.252 892.707 322.982C893.224 321.078 893.482 318.856 893.482 316.317C893.482 310.487 892.283 305.985 889.885 302.812C887.511 299.614 884.032 298.016 879.448 298.016C875.145 298.016 871.713 299.544 869.151 302.6C866.588 305.656 865.307 310.229 865.307 316.317C865.307 323.441 867.141 328.542 870.808 331.622C873.182 333.62 876.027 334.619 879.342 334.619C880.588 334.619 881.787 334.466 882.939 334.161C883.573 333.996 884.384 333.702 885.372 333.279ZM934.74 321.995H923.527V342.377H912.912V290.399H938.408C942.051 290.47 944.849 290.916 946.8 291.739C948.775 292.562 950.444 293.773 951.808 295.371C952.936 296.688 953.829 298.145 954.488 299.744C955.146 301.342 955.475 303.164 955.475 305.21C955.475 307.678 954.852 310.111 953.606 312.509C952.36 314.883 950.303 316.564 947.435 317.552C949.833 318.516 951.526 319.891 952.513 321.677C953.524 323.441 954.029 326.144 954.029 329.788V333.279C954.029 335.653 954.123 337.264 954.311 338.11C954.593 339.45 955.252 340.437 956.286 341.072V342.377H944.332C944.003 341.225 943.768 340.296 943.627 339.591C943.344 338.134 943.192 336.641 943.168 335.113L943.098 330.282C943.051 326.967 942.439 324.757 941.264 323.652C940.112 322.547 937.937 321.995 934.74 321.995ZM941.334 312.544C943.497 311.557 944.579 309.606 944.579 306.691C944.579 303.54 943.533 301.425 941.44 300.343C940.265 299.732 938.502 299.426 936.151 299.426H923.527V313.391H935.833C938.278 313.391 940.112 313.109 941.334 312.544ZM1017.4 317.728H1007.1C1006.91 316.294 1006.43 315.001 1005.65 313.849C1004.53 312.297 1002.77 311.522 1000.4 311.522C997.015 311.522 994.699 313.203 993.453 316.564C992.795 318.351 992.466 320.725 992.466 323.687C992.466 326.509 992.795 328.777 993.453 330.493C994.652 333.69 996.909 335.289 1000.22 335.289C1002.57 335.289 1004.24 334.654 1005.23 333.385C1006.22 332.115 1006.82 330.47 1007.03 328.448H1017.29C1017.06 331.504 1015.95 334.396 1013.98 337.123C1010.83 341.519 1006.16 343.717 999.977 343.717C993.794 343.717 989.245 341.883 986.33 338.216C983.415 334.549 981.958 329.788 981.958 323.934C981.958 317.328 983.568 312.192 986.789 308.524C990.009 304.857 994.453 303.023 1000.12 303.023C1004.94 303.023 1008.88 304.105 1011.93 306.267C1015.01 308.43 1016.83 312.25 1017.4 317.728ZM1056.4 308.806C1059.64 312.873 1061.26 317.681 1061.26 323.229C1061.26 328.871 1059.64 333.702 1056.4 337.722C1053.15 341.719 1048.23 343.717 1041.62 343.717C1035.02 343.717 1030.09 341.719 1026.85 337.722C1023.6 333.702 1021.98 328.871 1021.98 323.229C1021.98 317.681 1023.6 312.873 1026.85 308.806C1030.09 304.739 1035.02 302.706 1041.62 302.706C1048.23 302.706 1053.15 304.739 1056.4 308.806ZM1041.59 311.204C1038.65 311.204 1036.38 312.25 1034.78 314.343C1033.21 316.412 1032.42 319.374 1032.42 323.229C1032.42 327.084 1033.21 330.058 1034.78 332.151C1036.38 334.243 1038.65 335.289 1041.59 335.289C1044.53 335.289 1046.78 334.243 1048.36 332.151C1049.93 330.058 1050.72 327.084 1050.72 323.229C1050.72 319.374 1049.93 316.412 1048.36 314.343C1046.78 312.25 1044.53 311.204 1041.59 311.204ZM1103.47 290.47V342.377H1093.71V337.052C1092.27 339.333 1090.64 340.99 1088.81 342.024C1086.97 343.059 1084.69 343.576 1081.96 343.576C1077.47 343.576 1073.69 341.766 1070.61 338.145C1067.55 334.502 1066.03 329.835 1066.03 324.146C1066.03 317.587 1067.53 312.427 1070.54 308.665C1073.57 304.904 1077.61 303.023 1082.67 303.023C1085 303.023 1087.07 303.54 1088.88 304.575C1090.69 305.586 1092.16 306.996 1093.28 308.806V290.47H1103.47ZM1076.39 323.405C1076.39 326.955 1077.1 329.788 1078.51 331.904C1079.9 334.043 1082.01 335.113 1084.86 335.113C1087.7 335.113 1089.86 334.055 1091.34 331.939C1092.83 329.823 1093.57 327.084 1093.57 323.723C1093.57 319.021 1092.38 315.659 1090 313.637C1088.55 312.415 1086.85 311.804 1084.93 311.804C1081.99 311.804 1079.82 312.92 1078.44 315.154C1077.07 317.364 1076.39 320.114 1076.39 323.405ZM1145.54 331.093C1145.28 333.373 1144.1 335.689 1141.98 338.04C1138.69 341.777 1134.08 343.646 1128.16 343.646C1123.27 343.646 1118.96 342.071 1115.22 338.921C1111.48 335.771 1109.61 330.646 1109.61 323.546C1109.61 316.893 1111.29 311.792 1114.65 308.242C1118.04 304.692 1122.42 302.917 1127.81 302.917C1131 302.917 1133.88 303.517 1136.45 304.716C1139.01 305.915 1141.12 307.807 1142.79 310.393C1144.3 312.674 1145.27 315.318 1145.72 318.327C1145.98 320.091 1146.08 322.63 1146.04 325.944H1119.73C1119.87 329.8 1121.08 332.503 1123.36 334.055C1124.75 335.019 1126.42 335.501 1128.37 335.501C1130.44 335.501 1132.12 334.913 1133.41 333.737C1134.12 333.103 1134.74 332.221 1135.28 331.093H1145.54ZM1135.6 319.315C1135.43 316.658 1134.62 314.648 1133.17 313.285C1131.73 311.898 1129.95 311.204 1127.81 311.204C1125.48 311.204 1123.67 311.933 1122.38 313.391C1121.11 314.848 1120.31 316.823 1119.98 319.315H1135.6Z" fill="#C2C2C2"/>
<path d="M74.3258 451.008C73.2254 451.104 72.4114 452.074 72.5076 453.174C72.6038 454.275 73.5738 455.089 74.6742 454.992L74.3258 451.008ZM440.5 421L441.196 422.875L440.326 419.008L440.5 421ZM256 489.5L255.304 487.625L256.193 491.491L256 489.5ZM701.544 447.771C702.246 446.919 702.124 445.658 701.271 444.956L687.376 433.514C686.523 432.812 685.263 432.934 684.56 433.787C683.858 434.64 683.98 435.9 684.833 436.602L697.185 446.773L687.014 459.124C686.312 459.977 686.434 461.237 687.287 461.94C688.14 462.642 689.4 462.52 690.102 461.667L701.544 447.771ZM74.6742 454.992L440.674 422.992L440.326 419.008L74.3258 451.008L74.6742 454.992ZM439.804 419.125L255.304 487.625L256.696 491.375L441.196 422.875L439.804 419.125ZM256.193 491.491L700.193 448.491L699.807 444.509L255.807 487.509L256.193 491.491Z" fill="white"/>
</svg>
