<svg width="1065" height="1087" viewBox="0 0 1065 1087" fill="none" xmlns="http://www.w3.org/2000/svg">
<g clip-path="url(#clip0_271:476)">
<rect x="361" y="381" width="694" height="694" rx="12" fill="#333333" stroke="#333333" stroke-width="20"/>
<circle cx="319.5" cy="360.5" r="247.5" fill="white"/>
<circle cx="319.5" cy="360.5" r="222.412" fill="white" stroke="#333333" stroke-width="24.1753"/>
<rect x="513" y="533" width="509" height="509" rx="11.1527" fill="white"/>
<path d="M879.121 579.906H975.857V676.642" stroke="#C2C2C2" stroke-width="19.3471"/>
<path d="M656.629 579.906H559.893V676.642" stroke="#C2C2C2" stroke-width="19.3471"/>
<path d="M879.121 995.869H975.857V899.134" stroke="#C2C2C2" stroke-width="19.3471"/>
<path d="M656.629 995.869H559.893V899.134" stroke="#C2C2C2" stroke-width="19.3471"/>
<path d="M652.53 747.481L644.525 724.184L636.017 747.481H652.53ZM640.791 716.358H648.868L668.002 769.092H660.176L654.827 753.297H633.971L628.263 769.092H620.94L640.791 716.358ZM677.73 750.317C677.73 754.433 678.604 757.88 680.351 760.656C682.098 763.432 684.898 764.82 688.751 764.82C691.742 764.82 694.195 763.54 696.11 760.979C698.048 758.394 699.018 754.697 699.018 749.886C699.018 745.028 698.025 741.438 696.038 739.117C694.052 736.772 691.599 735.599 688.679 735.599C685.424 735.599 682.78 736.844 680.746 739.332C678.735 741.821 677.73 745.483 677.73 750.317ZM687.459 729.963C690.402 729.963 692.867 730.585 694.854 731.83C696.002 732.548 697.307 733.804 698.766 735.599V716.178H704.977V769.092H699.161V763.743C697.654 766.112 695.871 767.823 693.812 768.876C691.754 769.929 689.397 770.456 686.741 770.456C682.457 770.456 678.747 768.661 675.612 765.071C672.477 761.458 670.91 756.659 670.91 750.676C670.91 745.076 672.334 740.23 675.181 736.138C678.053 732.021 682.146 729.963 687.459 729.963ZM718.654 750.317C718.654 754.433 719.527 757.88 721.274 760.656C723.021 763.432 725.821 764.82 729.675 764.82C732.666 764.82 735.119 763.54 737.034 760.979C738.972 758.394 739.941 754.697 739.941 749.886C739.941 745.028 738.948 741.438 736.962 739.117C734.975 736.772 732.522 735.599 729.603 735.599C726.348 735.599 723.703 736.844 721.669 739.332C719.659 741.821 718.654 745.483 718.654 750.317ZM728.382 729.963C731.326 729.963 733.791 730.585 735.777 731.83C736.926 732.548 738.23 733.804 739.69 735.599V716.178H745.9V769.092H740.085V763.743C738.577 766.112 736.794 767.823 734.736 768.876C732.678 769.929 730.321 770.456 727.664 770.456C723.38 770.456 719.671 768.661 716.536 765.071C713.401 761.458 711.833 756.659 711.833 750.676C711.833 745.076 713.257 740.23 716.105 736.138C718.977 732.021 723.069 729.963 728.382 729.963ZM799.963 730.645H807.106C806.197 733.11 804.175 738.734 801.04 747.517C798.694 754.122 796.732 759.507 795.152 763.671C791.419 773.483 788.786 779.466 787.255 781.62C785.723 783.774 783.091 784.851 779.357 784.851C778.448 784.851 777.742 784.815 777.239 784.743C776.761 784.671 776.162 784.54 775.444 784.348V778.461C776.569 778.772 777.383 778.964 777.885 779.036C778.388 779.107 778.831 779.143 779.214 779.143C780.41 779.143 781.284 778.94 781.834 778.533C782.409 778.15 782.887 777.671 783.27 777.097C783.39 776.906 783.821 775.924 784.562 774.153C785.304 772.382 785.843 771.066 786.178 770.205L771.962 730.645H779.285L789.588 761.948L799.963 730.645ZM827.963 764.928C832.247 764.928 835.178 763.312 836.758 760.081C838.361 756.827 839.163 753.213 839.163 749.24C839.163 745.65 838.589 742.731 837.44 740.481C835.621 736.939 832.486 735.168 828.035 735.168C824.086 735.168 821.214 736.676 819.419 739.691C817.624 742.707 816.727 746.344 816.727 750.604C816.727 754.697 817.624 758.107 819.419 760.835C821.214 763.564 824.062 764.928 827.963 764.928ZM828.214 729.532C833.168 729.532 837.356 731.184 840.779 734.486C844.201 737.789 845.912 742.647 845.912 749.061C845.912 755.259 844.404 760.381 841.389 764.425C838.373 768.47 833.695 770.492 827.353 770.492C822.064 770.492 817.864 768.709 814.753 765.143C811.641 761.553 810.086 756.743 810.086 750.712C810.086 744.25 811.725 739.105 815.004 735.276C818.283 731.447 822.686 729.532 828.214 729.532ZM860.092 730.645V756.169C860.092 758.131 860.403 759.734 861.025 760.979C862.174 763.276 864.316 764.425 867.451 764.425C871.95 764.425 875.013 762.415 876.641 758.394C877.526 756.24 877.969 753.285 877.969 749.527V730.645H884.43V769.092H878.328L878.4 763.42C877.562 764.88 876.521 766.112 875.276 767.117C872.811 769.128 869.82 770.133 866.302 770.133C860.822 770.133 857.088 768.302 855.102 764.64C854.025 762.678 853.486 760.057 853.486 756.779V730.645H860.092ZM894.733 730.645H900.872V737.286C901.374 735.994 902.607 734.426 904.569 732.584C906.532 730.717 908.793 729.784 911.354 729.784C911.474 729.784 911.677 729.796 911.964 729.819C912.251 729.843 912.742 729.891 913.436 729.963V736.784C913.053 736.712 912.694 736.664 912.359 736.64C912.048 736.616 911.701 736.604 911.318 736.604C908.063 736.604 905.562 737.657 903.815 739.763C902.068 741.845 901.195 744.25 901.195 746.979V769.092H894.733V730.645Z" fill="#C2C2C2"/>
<path d="M653.179 856.225C650.81 857.014 647.974 857.409 644.671 857.409C637.779 857.409 632.083 855.351 627.584 851.235C622.127 846.281 619.399 839.006 619.399 829.409C619.399 819.74 622.199 812.429 627.799 807.475C632.37 803.431 638.054 801.409 644.851 801.409C651.695 801.409 657.439 803.55 662.082 807.834C667.442 812.788 670.123 819.717 670.123 828.619C670.123 833.334 669.548 837.283 668.4 840.465C667.466 843.505 666.09 846.03 664.272 848.04L670.374 853.748L664.595 859.779L658.205 853.748C656.266 854.92 654.591 855.746 653.179 856.225ZM650.81 846.676L645.461 841.578L651.169 835.619L656.518 840.717C657.355 838.994 657.942 837.486 658.277 836.194C658.803 834.255 659.066 831.994 659.066 829.409C659.066 823.474 657.846 818.891 655.405 815.66C652.988 812.405 649.446 810.778 644.779 810.778C640.399 810.778 636.905 812.334 634.297 815.445C631.688 818.556 630.384 823.211 630.384 829.409C630.384 836.66 632.251 841.854 635.984 844.989C638.401 847.023 641.297 848.04 644.671 848.04C645.94 848.04 647.16 847.884 648.333 847.573C648.979 847.406 649.805 847.107 650.81 846.676ZM701.067 835.189H689.651V855.938H678.846V803.024H704.8C708.51 803.096 711.358 803.55 713.344 804.388C715.354 805.226 717.053 806.458 718.441 808.086C719.59 809.426 720.5 810.91 721.17 812.537C721.84 814.164 722.175 816.019 722.175 818.101C722.175 820.614 721.541 823.091 720.272 825.532C719.004 827.949 716.91 829.66 713.99 830.665C716.431 831.647 718.154 833.047 719.159 834.865C720.188 836.66 720.703 839.412 720.703 843.122V846.676C720.703 849.093 720.799 850.732 720.99 851.594C721.277 852.958 721.947 853.963 723 854.609V855.938H710.831C710.496 854.765 710.257 853.82 710.113 853.102C709.826 851.618 709.67 850.098 709.646 848.543L709.575 843.625C709.527 840.25 708.905 838.001 707.708 836.876C706.535 835.751 704.322 835.189 701.067 835.189ZM707.78 825.568C709.982 824.563 711.082 822.576 711.082 819.609C711.082 816.402 710.017 814.248 707.887 813.147C706.691 812.525 704.896 812.214 702.503 812.214H689.651V826.429H702.18C704.669 826.429 706.535 826.142 707.78 825.568ZM785.212 830.845H774.729C774.538 829.385 774.047 828.069 773.258 826.896C772.109 825.317 770.326 824.527 767.909 824.527C764.463 824.527 762.105 826.238 760.837 829.66C760.167 831.479 759.832 833.896 759.832 836.912C759.832 839.783 760.167 842.093 760.837 843.84C762.057 847.095 764.355 848.722 767.729 848.722C770.122 848.722 771.822 848.076 772.827 846.784C773.832 845.491 774.442 843.816 774.658 841.758H785.104C784.865 844.869 783.74 847.813 781.729 850.589C778.523 855.064 773.772 857.302 767.478 857.302C761.184 857.302 756.553 855.435 753.586 851.702C750.618 847.968 749.134 843.122 749.134 837.163C749.134 830.438 750.774 825.209 754.052 821.476C757.331 817.742 761.854 815.875 767.622 815.875C772.528 815.875 776.536 816.976 779.647 819.178C782.782 821.38 784.637 825.269 785.212 830.845ZM824.915 821.763C828.217 825.903 829.869 830.797 829.869 836.445C829.869 842.189 828.217 847.107 824.915 851.199C821.612 855.267 816.598 857.302 809.873 857.302C803.149 857.302 798.135 855.267 794.832 851.199C791.53 847.107 789.878 842.189 789.878 836.445C789.878 830.797 791.53 825.903 794.832 821.763C798.135 817.622 803.149 815.552 809.873 815.552C816.598 815.552 821.612 817.622 824.915 821.763ZM809.838 824.204C806.846 824.204 804.537 825.269 802.909 827.399C801.306 829.505 800.504 832.52 800.504 836.445C800.504 840.37 801.306 843.397 802.909 845.527C804.537 847.657 806.846 848.722 809.838 848.722C812.829 848.722 815.127 847.657 816.73 845.527C818.333 843.397 819.135 840.37 819.135 836.445C819.135 832.52 818.333 829.505 816.73 827.399C815.127 825.269 812.829 824.204 809.838 824.204ZM872.838 803.096V855.938H862.895V850.517C861.435 852.838 859.772 854.526 857.905 855.579C856.038 856.632 853.717 857.158 850.941 857.158C846.37 857.158 842.517 855.315 839.382 851.63C836.27 847.92 834.715 843.17 834.715 837.378C834.715 830.701 836.246 825.448 839.31 821.619C842.397 817.79 846.513 815.875 851.659 815.875C854.028 815.875 856.134 816.402 857.977 817.455C859.819 818.484 861.315 819.92 862.464 821.763V803.096H872.838ZM845.269 836.624C845.269 840.238 845.987 843.122 847.423 845.276C848.835 847.454 850.989 848.543 853.884 848.543C856.78 848.543 858.982 847.466 860.49 845.312C861.997 843.158 862.751 840.37 862.751 836.948C862.751 832.161 861.543 828.739 859.125 826.681C857.642 825.436 855.919 824.814 853.956 824.814C850.965 824.814 848.763 825.951 847.351 828.224C845.963 830.474 845.269 833.274 845.269 836.624ZM915.665 844.45C915.401 846.772 914.193 849.129 912.039 851.522C908.688 855.327 903.998 857.23 897.967 857.23C892.989 857.23 888.598 855.626 884.792 852.42C880.987 849.213 879.085 843.995 879.085 836.768C879.085 829.995 880.796 824.802 884.218 821.188C887.664 817.575 892.128 815.768 897.608 815.768C900.863 815.768 903.794 816.378 906.403 817.599C909.011 818.819 911.165 820.746 912.865 823.378C914.396 825.699 915.389 828.392 915.844 831.455C916.107 833.25 916.215 835.835 916.167 839.209H889.387C889.531 843.134 890.763 845.886 893.085 847.466C894.497 848.447 896.196 848.937 898.182 848.937C900.288 848.937 901.999 848.339 903.316 847.143C904.034 846.496 904.668 845.599 905.218 844.45H915.665ZM905.541 832.46C905.374 829.756 904.548 827.71 903.064 826.322C901.605 824.91 899.786 824.204 897.608 824.204C895.239 824.204 893.396 824.946 892.08 826.429C890.787 827.913 889.974 829.923 889.639 832.46H905.541Z" fill="#C2C2C2"/>
<path d="M189.773 322H177.466L159.27 290.052V322H146.893V270.657H159.27L177.431 302.605V270.657H189.773V322ZM229.444 300.243H209.979V312.479H232.97V322H197.602V270.657H233.041V280.213H209.979V291.039H229.444V300.243ZM277.79 302.852L283.679 270.657H295.951L285.054 322H272.218L265.342 292.732L258.607 322H245.806L234.875 270.657H247.182L253.07 302.852L260.123 270.657H270.632L277.79 302.852ZM337.561 292.943L347.012 270.657H360.376L343.838 303.557V322H331.284V303.557L314.781 270.657H328.075L337.561 292.943ZM395.957 300.243H376.492V312.479H399.483V322H364.114V270.657H399.554V280.213H376.492V291.039H395.957V300.243ZM433.689 312.408H416.727L413.765 322H400.541L419.372 270.657H431.009L449.98 322H436.686L433.689 312.408ZM419.689 302.852H430.726L425.19 285.044L419.689 302.852ZM472.831 303.875H466.131V322H453.753V270.657H473.959C480.048 270.657 484.808 272.009 488.241 274.712C491.673 277.416 493.389 281.236 493.389 286.173C493.389 289.746 492.66 292.708 491.203 295.059C489.769 297.41 487.512 299.314 484.432 300.772L495.152 321.471V322H481.893L472.831 303.875ZM466.131 294.318H473.959C476.31 294.318 478.073 293.707 479.248 292.485C480.447 291.239 481.047 289.511 481.047 287.301C481.047 285.091 480.447 283.363 479.248 282.117C478.05 280.848 476.286 280.213 473.959 280.213H466.131V294.318Z" fill="black"/>
<path d="M203.345 427.881C203.345 424.284 202.061 421.481 199.491 419.472C196.969 417.464 192.507 415.385 186.107 413.236C179.707 411.087 174.475 409.008 170.41 406.999C157.19 400.506 150.579 391.583 150.579 380.231C150.579 374.578 152.214 369.603 155.485 365.305C158.801 360.96 163.473 357.597 169.499 355.214C175.526 352.785 182.3 351.57 189.821 351.57C197.155 351.57 203.719 352.878 209.512 355.495C215.351 358.111 219.883 361.848 223.106 366.706C226.33 371.518 227.941 377.031 227.941 383.244H203.415C203.415 379.086 202.131 375.863 199.561 373.574C197.039 371.285 193.605 370.14 189.26 370.14C184.869 370.14 181.389 371.121 178.819 373.083C176.297 374.999 175.035 377.451 175.035 380.441C175.035 383.057 176.437 385.44 179.24 387.589C182.043 389.691 186.971 391.886 194.025 394.176C201.08 396.418 206.872 398.847 211.404 401.463C222.429 407.817 227.941 416.576 227.941 427.741C227.941 436.664 224.578 443.671 217.851 448.763C211.124 453.855 201.897 456.401 190.171 456.401C181.903 456.401 174.405 454.93 167.678 451.987C160.997 448.997 155.952 444.933 152.542 439.794C149.178 434.608 147.496 428.652 147.496 421.925H172.162C172.162 427.391 173.564 431.432 176.367 434.048C179.216 436.617 183.818 437.902 190.171 437.902C194.236 437.902 197.436 437.038 199.772 435.309C202.154 433.534 203.345 431.058 203.345 427.881ZM298.506 435.94H264.8L258.914 455H232.636L270.056 352.972H293.181L330.881 455H304.463L298.506 435.94ZM270.687 416.95H292.62L281.618 381.562L270.687 416.95ZM362.975 436.08H405.79V455H338.378V352.972H362.975V436.08ZM479.438 411.764H440.757V436.08H486.445V455H416.161V352.972H486.586V371.962H440.757V393.475H479.438V411.764Z" fill="black"/>
<mask id="path-13-inside-1_271:476" fill="white">
<path d="M234.252 73.3337C234.252 73.3337 132.597 182.287 -6.59168 175.51L61.1781 243.279L-22.2308 326.688C-22.2308 326.688 148.758 297.495 303.585 142.667L234.252 73.3337"/>
</mask>
<path d="M234.252 73.3337C234.252 73.3337 132.597 182.287 -6.59168 175.51L61.1781 243.279L-22.2308 326.688C-22.2308 326.688 148.758 297.495 303.585 142.667L234.252 73.3337" fill="#333333"/>
<path d="M-6.59168 175.51L-6.29989 169.517L-21.8258 168.761L-10.8343 179.752L-6.59168 175.51ZM61.1781 243.279L65.4207 247.522L69.6634 243.279L65.4207 239.037L61.1781 243.279ZM-22.2308 326.688L-26.4735 322.446L-39.8031 335.775L-21.2211 332.603L-22.2308 326.688ZM303.585 142.667L307.828 146.91L312.071 142.667L307.828 138.425L303.585 142.667ZM234.252 73.3337C229.865 69.2405 229.866 69.2394 229.866 69.2387C229.866 69.239 229.866 69.2387 229.866 69.2394C229.865 69.2406 229.862 69.2435 229.858 69.2481C229.849 69.2572 229.834 69.2728 229.814 69.2948C229.772 69.3388 229.706 69.4086 229.616 69.5031C229.435 69.6922 229.158 69.9805 228.786 70.3613C228.041 71.1228 226.917 72.2537 225.43 73.6995C222.455 76.5915 218.027 80.7406 212.272 85.7107C200.756 95.6556 183.957 108.861 162.877 121.855C120.659 147.88 61.6573 172.826 -6.29989 169.517L-6.88347 181.503C64.348 184.971 125.768 158.828 169.174 132.071C190.906 118.674 208.221 105.065 220.115 94.7927C226.065 89.6544 230.666 85.3445 233.794 82.3045C235.358 80.7844 236.554 79.5812 237.366 78.75C237.773 78.3344 238.083 78.0118 238.296 77.789C238.402 77.6776 238.484 77.5911 238.541 77.5305C238.57 77.5002 238.592 77.4763 238.609 77.459C238.617 77.4503 238.623 77.4433 238.628 77.438C238.631 77.4353 238.633 77.4325 238.635 77.4312C238.637 77.4288 238.639 77.4269 234.252 73.3337ZM-10.8343 179.752L56.9355 247.522L65.4207 239.037L-2.34904 171.267L-10.8343 179.752ZM56.9355 239.037L-26.4735 322.446L-17.9882 330.931L65.4207 247.522L56.9355 239.037ZM-22.2308 326.688C-21.2211 332.603 -21.2183 332.602 -21.2149 332.602C-21.2129 332.601 -21.2088 332.601 -21.2048 332.6C-21.1968 332.599 -21.1862 332.597 -21.1729 332.594C-21.1465 332.59 -21.1097 332.583 -21.0626 332.575C-20.9684 332.559 -20.8331 332.534 -20.6574 332.502C-20.3061 332.438 -19.7931 332.342 -19.1242 332.212C-17.7865 331.951 -15.8252 331.552 -13.2859 330.99C-8.20764 329.867 -0.81675 328.096 8.52021 325.486C27.1924 320.268 53.6587 311.696 84.9831 298.252C147.625 271.368 229.765 224.973 307.828 146.91L299.343 138.425C222.578 215.189 141.81 260.805 80.2505 287.225C49.4743 300.433 23.5169 308.835 5.29033 313.929C-3.82206 316.476 -10.9992 318.195 -15.8767 319.273C-18.3153 319.812 -20.1787 320.191 -21.4213 320.434C-22.0426 320.555 -22.5087 320.642 -22.8138 320.698C-22.9664 320.725 -23.0787 320.745 -23.1501 320.758C-23.1857 320.764 -23.2112 320.769 -23.2263 320.771C-23.2339 320.773 -23.2389 320.774 -23.2413 320.774C-23.2424 320.774 -23.2423 320.774 -23.2429 320.774C-23.2421 320.774 -23.2406 320.774 -22.2308 326.688ZM307.828 138.425L238.494 69.0911L230.009 77.5763L299.343 146.91L307.828 138.425Z" fill="white" mask="url(#path-13-inside-1_271:476)"/>
<path d="M350.247 142.664L415.304 77.6066C416 78.3068 416.861 79.1612 417.883 80.1539C420.972 83.1568 425.53 87.4265 431.431 92.5228C443.231 102.713 460.416 116.221 481.985 129.517C523.527 155.125 581.51 180.054 648.679 178.766L586.286 241.159L584.165 243.28L586.286 245.401L662.586 321.701C657.802 320.607 651.359 319.019 643.488 316.819C625.15 311.694 599.065 303.249 568.152 289.982C506.89 263.69 426.699 218.476 350.247 142.664Z" fill="#333333" stroke="white" stroke-width="6"/>
<path d="M311.933 87.9846C311.933 125.584 269.91 161.708 219.041 169.081L178.493 174.979C127.623 182.351 92.973 165.395 101.82 138.117C110.667 110.839 110.667 65.8675 101.82 38.5897C92.973 11.3119 126.886 -5.64462 178.493 1.72776L219.041 6.88843C269.91 13.5236 311.933 50.3855 311.933 87.9846" fill="#333333"/>
<path d="M114.346 141.81C110.66 145.496 115.083 149.919 116.558 151.394C120.981 156.554 133.514 162.452 155.631 162.452C162.266 162.452 168.901 161.715 176.274 160.978L216.822 155.08C245.574 151.394 271.378 136.649 285.385 118.218C285.385 118.955 161.529 96.1009 114.346 141.81" fill="white"/>
<path d="M331.098 87.9846C331.098 125.584 373.12 161.708 423.99 169.081L464.538 174.979C515.407 182.351 550.057 165.395 541.21 138.117C532.364 110.839 532.364 65.8675 541.21 38.5897C550.057 11.3119 516.144 -5.64462 464.538 1.72776L423.99 6.88843C373.12 13.5236 331.098 50.3855 331.098 87.9846Z" fill="#333333"/>
<path d="M528.676 141.808C532.362 145.494 527.939 149.917 526.464 151.392C522.041 156.553 509.508 162.45 487.391 162.45C480.755 162.45 474.12 161.713 466.748 160.976L426.2 155.078C397.448 151.392 371.644 136.647 357.637 118.216C357.637 118.953 481.493 96.099 528.676 141.808" fill="white"/>
<path d="M315.623 76.9299C315.623 76.9299 303.09 87.2512 272.863 62.1851C238.213 33.4328 188.081 71.7692 255.169 88.7257C291.294 98.3098 315.623 76.9299 315.623 76.9299Z" fill="white"/>
<path d="M327.41 76.9299C327.41 76.9299 339.943 87.2512 370.17 62.1851C404.82 33.4328 454.952 71.7692 387.864 88.7257C351.739 98.3098 327.41 76.9299 327.41 76.9299Z" fill="white"/>
<path d="M321.513 143.108C294.168 143.108 286.777 165.544 286.777 88.6215C286.777 11.6995 293.429 34.1351 321.513 34.1351C349.598 34.1351 356.25 11.6995 356.25 88.6215C356.25 165.544 348.859 143.108 321.513 143.108Z" fill="#333333"/>
<path d="M321.515 140.338C299.398 140.338 293.5 160.981 293.5 88.7315C293.5 15.745 298.661 37.1249 321.515 37.1249C344.369 37.1249 349.53 16.4822 349.53 88.7315C349.53 160.981 343.632 140.338 321.515 140.338" fill="white"/>
<path d="M1005 412L1013.49 453.515L1055 462L1013.49 470.485L1005 512L996.515 470.485L955 462L996.515 453.515L1005 412Z" fill="white"/>
<path d="M936 381L941.261 406.739L967 412L941.261 417.261L936 443L930.739 417.261L905 412L930.739 406.739L936 381Z" fill="white"/>
<path d="M898 444L904.449 475.551L936 482L904.449 488.449L898 520L891.551 488.449L860 482L891.551 475.551L898 444Z" fill="white"/>
</g>
<defs>
<clipPath id="clip0_271:476">
<rect width="1065" height="1087" fill="white"/>
</clipPath>
</defs>
</svg>
