<svg width="1000" height="1000" viewBox="0 0 1000 1000" fill="none" xmlns="http://www.w3.org/2000/svg">
<rect x="117" width="767" height="767" rx="17.7273" fill="#333333"/>
<rect x="117" y="814" width="767" height="186" rx="17.7273" fill="#333333"/>
<rect x="181" y="64" width="639.364" height="639.364" rx="13.9905" fill="white"/>
<path d="M640.285 122.84H761.634V244.189" stroke="#C2C2C2" stroke-width="24.2698"/>
<path d="M361.18 122.84H239.831V244.189" stroke="#C2C2C2" stroke-width="24.2698"/>
<path d="M640.285 644.639H761.634V523.29" stroke="#C2C2C2" stroke-width="24.2698"/>
<path d="M361.18 644.639H239.831V523.29" stroke="#C2C2C2" stroke-width="24.2698"/>
<path d="M356.478 334.266L346.436 305.04L335.763 334.266H356.478ZM341.752 295.223H351.884L375.886 361.375H366.07L359.36 341.561H333.196L326.036 361.375H316.85L341.752 295.223ZM388.09 337.823C388.09 342.987 389.186 347.31 391.377 350.793C393.569 354.275 397.081 356.016 401.915 356.016C405.667 356.016 408.745 354.41 411.146 351.198C413.578 347.956 414.794 343.317 414.794 337.283C414.794 331.189 413.548 326.686 411.056 323.773C408.564 320.831 405.487 319.36 401.825 319.36C397.742 319.36 394.425 320.921 391.873 324.044C389.351 327.166 388.09 331.759 388.09 337.823ZM400.294 312.29C403.986 312.29 407.078 313.071 409.57 314.632C411.011 315.533 412.647 317.109 414.479 319.36V294.998H422.269V361.375H414.974V354.665C413.083 357.637 410.846 359.784 408.264 361.105C405.682 362.426 402.725 363.086 399.393 363.086C394.019 363.086 389.366 360.835 385.433 356.331C381.5 351.798 379.534 345.779 379.534 338.274C379.534 331.249 381.32 325.169 384.893 320.036C388.495 314.872 393.629 312.29 400.294 312.29ZM439.426 337.823C439.426 342.987 440.522 347.31 442.714 350.793C444.905 354.275 448.418 356.016 453.251 356.016C457.004 356.016 460.081 354.41 462.483 351.198C464.914 347.956 466.13 343.317 466.13 337.283C466.13 331.189 464.884 326.686 462.392 323.773C459.901 320.831 456.824 319.36 453.161 319.36C449.078 319.36 445.761 320.921 443.209 324.044C440.687 327.166 439.426 331.759 439.426 337.823ZM451.63 312.29C455.322 312.29 458.415 313.071 460.906 314.632C462.347 315.533 463.984 317.109 465.815 319.36V294.998H473.605V361.375H466.31V354.665C464.419 357.637 462.182 359.784 459.601 361.105C457.019 362.426 454.062 363.086 450.729 363.086C445.355 363.086 440.702 360.835 436.769 356.331C432.837 351.798 430.87 345.779 430.87 338.274C430.87 331.249 432.656 325.169 436.229 320.036C439.832 314.872 444.965 312.29 451.63 312.29ZM541.423 313.146H550.385C549.244 316.238 546.707 323.293 542.774 334.311C539.832 342.597 537.37 349.352 535.389 354.575C530.706 366.884 527.403 374.389 525.482 377.091C523.561 379.793 520.258 381.144 515.575 381.144C514.434 381.144 513.549 381.099 512.918 381.009C512.318 380.919 511.567 380.754 510.667 380.514V373.128C512.078 373.519 513.098 373.759 513.729 373.849C514.359 373.939 514.915 373.984 515.395 373.984C516.896 373.984 517.992 373.729 518.682 373.218C519.403 372.738 520.003 372.138 520.483 371.417C520.634 371.177 521.174 369.946 522.105 367.724C523.035 365.503 523.711 363.852 524.131 362.771L506.298 313.146H515.485L528.409 352.414L541.423 313.146ZM576.548 356.151C581.922 356.151 585.599 354.125 587.581 350.072C589.592 345.989 590.598 341.456 590.598 336.472C590.598 331.969 589.877 328.307 588.436 325.485C586.155 321.042 582.222 318.82 576.638 318.82C571.685 318.82 568.082 320.711 565.83 324.494C563.579 328.277 562.453 332.84 562.453 338.184C562.453 343.317 563.579 347.595 565.83 351.018C568.082 354.44 571.655 356.151 576.548 356.151ZM576.863 311.75C583.078 311.75 588.331 313.821 592.624 317.964C596.917 322.107 599.064 328.202 599.064 336.247C599.064 344.023 597.173 350.447 593.39 355.521C589.607 360.594 583.738 363.131 575.783 363.131C569.148 363.131 563.879 360.895 559.976 356.422C556.074 351.918 554.122 345.884 554.122 338.319C554.122 330.213 556.179 323.758 560.292 318.955C564.404 314.152 569.928 311.75 576.863 311.75ZM616.851 313.146V345.164C616.851 347.625 617.242 349.637 618.022 351.198C619.463 354.08 622.15 355.521 626.083 355.521C631.727 355.521 635.57 352.999 637.611 347.956C638.722 345.254 639.277 341.546 639.277 336.833V313.146H647.383V361.375H639.728L639.818 354.26C638.767 356.091 637.461 357.637 635.9 358.898C632.808 361.42 629.055 362.681 624.642 362.681C617.767 362.681 613.084 360.384 610.592 355.791C609.241 353.329 608.566 350.042 608.566 345.929V313.146H616.851ZM660.307 313.146H668.008V321.477C668.638 319.856 670.184 317.889 672.646 315.578C675.108 313.236 677.945 312.065 681.157 312.065C681.307 312.065 681.562 312.08 681.922 312.11C682.283 312.14 682.898 312.2 683.769 312.29V320.846C683.288 320.756 682.838 320.696 682.418 320.666C682.028 320.636 681.592 320.621 681.112 320.621C677.029 320.621 673.892 321.942 671.7 324.584C669.509 327.196 668.413 330.213 668.413 333.635V361.375H660.307V313.146Z" fill="#C2C2C2"/>
<path d="M357.289 470.677C354.317 471.667 350.759 472.163 346.616 472.163C337.97 472.163 330.825 469.581 325.181 464.417C318.336 458.203 314.914 449.076 314.914 437.038C314.914 424.909 318.426 415.738 325.451 409.524C331.185 404.45 338.315 401.913 346.841 401.913C355.428 401.913 362.633 404.6 368.457 409.974C375.181 416.188 378.544 424.879 378.544 436.047C378.544 441.961 377.823 446.915 376.382 450.908C375.212 454.72 373.485 457.888 371.204 460.409L378.859 467.569L371.609 475.135L363.593 467.569C361.162 469.041 359.06 470.076 357.289 470.677ZM354.317 458.698L347.607 452.304L354.767 444.828L361.477 451.223C362.528 449.061 363.263 447.17 363.683 445.549C364.344 443.117 364.674 440.28 364.674 437.038C364.674 429.593 363.143 423.844 360.081 419.791C357.049 415.708 352.606 413.666 346.751 413.666C341.258 413.666 336.874 415.618 333.602 419.521C330.33 423.423 328.694 429.262 328.694 437.038C328.694 446.134 331.035 452.649 335.719 456.582C338.751 459.134 342.383 460.409 346.616 460.409C348.207 460.409 349.739 460.214 351.21 459.824C352.02 459.614 353.056 459.239 354.317 458.698ZM417.361 444.288H403.041V470.316H389.487V403.94H422.045C426.698 404.03 430.27 404.6 432.762 405.651C435.284 406.702 437.415 408.248 439.157 410.289C440.598 411.97 441.738 413.832 442.579 415.873C443.42 417.914 443.84 420.241 443.84 422.853C443.84 426.005 443.044 429.112 441.453 432.174C439.862 435.207 437.235 437.353 433.573 438.614C436.635 439.845 438.796 441.601 440.057 443.883C441.348 446.134 441.994 449.587 441.994 454.24V458.698C441.994 461.73 442.114 463.787 442.354 464.868C442.714 466.579 443.555 467.84 444.876 468.65V470.316H429.61C429.19 468.845 428.889 467.66 428.709 466.759C428.349 464.898 428.154 462.991 428.124 461.04L428.034 454.871C427.974 450.638 427.193 447.816 425.692 446.405C424.221 444.994 421.444 444.288 417.361 444.288ZM425.782 432.22C428.544 430.959 429.925 428.467 429.925 424.744C429.925 420.721 428.589 418.019 425.917 416.639C424.416 415.858 422.165 415.468 419.163 415.468H403.041V433.3H418.757C421.879 433.3 424.221 432.94 425.782 432.22ZM522.916 438.839H509.766C509.526 437.008 508.911 435.357 507.92 433.886C506.479 431.904 504.243 430.914 501.21 430.914C496.887 430.914 493.93 433.06 492.339 437.353C491.499 439.635 491.078 442.667 491.078 446.45C491.078 450.052 491.499 452.949 492.339 455.141C493.87 459.224 496.752 461.265 500.985 461.265C503.987 461.265 506.119 460.454 507.38 458.833C508.641 457.212 509.406 455.111 509.676 452.529H522.781C522.48 456.432 521.069 460.124 518.548 463.607C514.525 469.221 508.566 472.028 500.67 472.028C492.775 472.028 486.965 469.686 483.243 465.003C479.52 460.319 477.659 454.24 477.659 446.765C477.659 438.329 479.715 431.769 483.828 427.086C487.941 422.403 493.615 420.061 500.85 420.061C507.005 420.061 512.033 421.442 515.936 424.204C519.869 426.966 522.195 431.844 522.916 438.839ZM572.721 427.446C576.864 432.64 578.935 438.779 578.935 445.864C578.935 453.069 576.864 459.239 572.721 464.372C568.578 469.476 562.289 472.028 553.853 472.028C545.417 472.028 539.127 469.476 534.984 464.372C530.841 459.239 528.77 453.069 528.77 445.864C528.77 438.779 530.841 432.64 534.984 427.446C539.127 422.252 545.417 419.656 553.853 419.656C562.289 419.656 568.578 422.252 572.721 427.446ZM553.808 430.508C550.055 430.508 547.158 431.844 545.116 434.516C543.105 437.158 542.099 440.941 542.099 445.864C542.099 450.788 543.105 454.585 545.116 457.257C547.158 459.929 550.055 461.265 553.808 461.265C557.56 461.265 560.442 459.929 562.454 457.257C564.465 454.585 565.471 450.788 565.471 445.864C565.471 440.941 564.465 437.158 562.454 434.516C560.442 431.844 557.56 430.508 553.808 430.508ZM632.838 404.03V470.316H620.365V463.517C618.533 466.429 616.447 468.545 614.105 469.866C611.763 471.187 608.851 471.847 605.369 471.847C599.635 471.847 594.801 469.536 590.869 464.913C586.966 460.259 585.015 454.3 585.015 447.035C585.015 438.659 586.936 432.069 590.779 427.266C594.651 422.463 599.815 420.061 606.27 420.061C609.242 420.061 611.884 420.721 614.195 422.042C616.507 423.333 618.383 425.135 619.824 427.446V404.03H632.838ZM598.254 446.089C598.254 450.623 599.155 454.24 600.956 456.942C602.727 459.674 605.429 461.04 609.062 461.04C612.694 461.04 615.456 459.689 617.347 456.987C619.239 454.285 620.184 450.788 620.184 446.495C620.184 440.49 618.668 436.197 615.636 433.616C613.775 432.054 611.613 431.274 609.152 431.274C605.399 431.274 602.637 432.7 600.866 435.552C599.125 438.374 598.254 441.886 598.254 446.089ZM686.561 455.906C686.231 458.818 684.715 461.775 682.013 464.777C677.81 469.551 671.926 471.938 664.361 471.938C658.116 471.938 652.607 469.926 647.834 465.903C643.061 461.88 640.674 455.336 640.674 446.269C640.674 437.773 642.82 431.259 647.113 426.726C651.436 422.192 657.035 419.926 663.91 419.926C667.993 419.926 671.671 420.691 674.943 422.222C678.215 423.754 680.917 426.17 683.049 429.473C684.97 432.385 686.216 435.762 686.786 439.605C687.117 441.856 687.252 445.099 687.192 449.332H653.598C653.778 454.255 655.324 457.708 658.236 459.689C660.008 460.92 662.139 461.535 664.631 461.535C667.273 461.535 669.419 460.785 671.07 459.284C671.971 458.473 672.767 457.347 673.457 455.906H686.561ZM673.862 440.866C673.652 437.473 672.616 434.906 670.755 433.165C668.924 431.394 666.642 430.508 663.91 430.508C660.938 430.508 658.627 431.439 656.975 433.3C655.354 435.162 654.334 437.683 653.913 440.866H673.862Z" fill="#C2C2C2"/>
<path d="M212.121 939H196.405L173.169 898.201V939H157.362V873.434H173.169L196.36 914.233V873.434H212.121V939ZM262.782 911.215H237.924V926.841H267.285V939H222.118V873.434H267.375V885.637H237.924V899.462H262.782V911.215ZM324.52 914.548L332.041 873.434H347.712L333.797 939H317.405L308.624 901.624L300.023 939H283.677L269.717 873.434H285.433L292.953 914.548L301.96 873.434H315.379L324.52 914.548ZM400.849 901.894L412.918 873.434H429.985L408.865 915.448V939H392.834V915.448L371.759 873.434H388.736L400.849 901.894ZM475.422 911.215H450.564V926.841H479.925V939H434.758V873.434H480.015V885.637H450.564V899.462H475.422V911.215ZM523.606 926.751H501.946L498.163 939H481.276L505.323 873.434H520.184L544.411 939H527.434L523.606 926.751ZM505.728 914.548H519.823L512.753 891.807L505.728 914.548ZM573.591 915.854H565.035V939H549.229V873.434H575.032C582.808 873.434 588.887 875.16 593.27 878.612C597.653 882.065 599.845 886.943 599.845 893.248C599.845 897.811 598.914 901.594 597.053 904.596C595.221 907.598 592.339 910.03 588.407 911.891L602.096 938.325V939H585.164L573.591 915.854ZM565.035 903.65H575.032C578.034 903.65 580.286 902.87 581.787 901.308C583.318 899.717 584.084 897.511 584.084 894.689C584.084 891.867 583.318 889.66 581.787 888.069C580.256 886.448 578.004 885.637 575.032 885.637H565.035V903.65ZM666.177 921.573C666.177 919.261 665.351 917.46 663.7 916.169C662.079 914.878 659.212 913.542 655.099 912.161C650.986 910.78 647.623 909.444 645.012 908.153C636.516 903.98 632.268 898.246 632.268 890.951C632.268 887.319 633.318 884.121 635.42 881.359C637.551 878.567 640.553 876.406 644.426 874.875C648.299 873.314 652.652 872.533 657.485 872.533C662.199 872.533 666.417 873.374 670.139 875.055C673.892 876.736 676.804 879.138 678.876 882.26C680.947 885.352 681.983 888.895 681.983 892.887H666.222C666.222 890.216 665.396 888.144 663.745 886.673C662.124 885.202 659.917 884.467 657.125 884.467C654.303 884.467 652.067 885.097 650.415 886.358C648.794 887.589 647.984 889.165 647.984 891.086C647.984 892.767 648.884 894.298 650.686 895.679C652.487 897.03 655.654 898.441 660.187 899.912C664.721 901.353 668.443 902.915 671.355 904.596C678.44 908.679 681.983 914.308 681.983 921.483C681.983 927.217 679.821 931.72 675.498 934.992C671.175 938.264 665.246 939.901 657.711 939.901C652.397 939.901 647.578 938.955 643.255 937.064C638.962 935.142 635.72 932.53 633.529 929.228C631.367 925.896 630.286 922.068 630.286 917.745H646.137C646.137 921.257 647.038 923.854 648.839 925.535C650.671 927.187 653.628 928.012 657.711 928.012C660.322 928.012 662.379 927.457 663.88 926.346C665.411 925.205 666.177 923.614 666.177 921.573ZM727.33 926.751H705.669L701.887 939H685L709.047 873.434H723.907L748.134 939H731.157L727.33 926.751ZM709.452 914.548H723.547L716.477 891.807L709.452 914.548ZM768.759 926.841H796.273V939H752.953V873.434H768.759V926.841ZM843.602 911.215H818.744V926.841H848.105V939H802.938V873.434H848.195V885.637H818.744V899.462H843.602V911.215Z" fill="white"/>
<path d="M241.05 781.95C243.784 779.216 248.216 779.216 250.95 781.95L283 814L246 851L209 814L241.05 781.95Z" fill="#333333"/>
</svg>
