<svg width="1000" height="1000" viewBox="0 0 1000 1000" fill="none" xmlns="http://www.w3.org/2000/svg">
<path d="M496.749 29.6068C498.292 28.1449 500.708 28.1449 502.251 29.6068L520.615 47.0067C522.042 48.3584 524.239 48.4735 525.799 47.2784L545.881 31.8933C547.568 30.6007 549.972 30.8534 551.353 32.4685L567.798 51.6926C569.075 53.186 571.248 53.5302 572.925 52.5047L594.505 39.303C596.318 38.1939 598.682 38.6964 599.887 40.4471L614.232 61.2848C615.347 62.9036 617.472 63.473 619.246 62.6283L642.088 51.7548C644.007 50.8413 646.306 51.5881 647.322 53.4551L659.41 75.6782C660.349 77.4046 662.403 78.1931 664.256 77.5385L688.109 69.1121C690.113 68.4042 692.321 69.3872 693.136 71.3502L702.835 94.7151C703.589 96.5302 705.549 97.529 707.46 97.0717L732.064 91.1849C734.131 90.6904 736.224 91.8987 736.829 93.9361L744.033 118.187C744.593 120.071 746.438 121.269 748.386 121.014L773.471 117.731C775.578 117.455 777.533 118.876 777.922 120.965L782.551 145.836C782.911 147.768 784.621 149.153 786.585 149.103L811.875 148.46C814 148.406 815.796 150.023 815.964 152.142L817.969 177.361C818.124 179.32 819.68 180.876 821.639 181.031L846.858 183.036C848.977 183.204 850.594 185 850.54 187.125L849.897 212.414C849.847 214.379 851.232 216.089 853.164 216.449L878.034 221.078C880.124 221.467 881.544 223.422 881.269 225.529L877.986 250.614C877.731 252.562 878.929 254.407 880.813 254.967L905.064 262.171C907.101 262.776 908.31 264.869 907.815 266.936L901.928 291.54C901.471 293.451 902.47 295.411 904.285 296.165L927.65 305.864C929.613 306.679 930.596 308.887 929.888 310.891L921.462 334.744C920.807 336.597 921.595 338.651 923.322 339.59L945.545 351.678C947.412 352.694 948.159 354.992 947.245 356.912L936.372 379.754C935.527 381.528 936.096 383.653 937.715 384.768L958.553 399.113C960.304 400.318 960.806 402.682 959.697 404.495L946.495 426.075C945.47 427.752 945.814 429.925 947.307 431.202L966.532 447.647C968.147 449.028 968.399 451.432 967.107 453.119L951.722 473.201C950.526 474.761 950.642 476.958 951.993 478.385L969.393 496.749C970.855 498.292 970.855 500.708 969.393 502.251L951.993 520.615C950.642 522.042 950.526 524.239 951.722 525.799L967.107 545.881C968.399 547.568 968.147 549.972 966.532 551.353L947.307 567.798C945.814 569.075 945.47 571.248 946.495 572.925L959.697 594.505C960.806 596.318 960.304 598.682 958.553 599.887L937.715 614.232C936.096 615.347 935.527 617.472 936.372 619.246L947.245 642.088C948.159 644.007 947.412 646.306 945.545 647.322L923.322 659.41C921.595 660.349 920.807 662.403 921.462 664.256L929.888 688.109C930.596 690.113 929.613 692.321 927.65 693.136L904.285 702.835C902.47 703.589 901.471 705.549 901.928 707.46L907.815 732.064C908.31 734.131 907.101 736.224 905.064 736.829L880.813 744.033C878.929 744.593 877.731 746.438 877.986 748.386L881.269 773.471C881.544 775.578 880.124 777.533 878.034 777.922L853.164 782.551C851.232 782.911 849.847 784.621 849.897 786.586L850.54 811.875C850.594 814 848.977 815.796 846.858 815.964L821.639 817.969C819.68 818.124 818.124 819.68 817.969 821.639L815.964 846.858C815.796 848.977 814 850.594 811.875 850.54L786.586 849.897C784.621 849.847 782.911 851.232 782.551 853.164L777.922 878.034C777.533 880.124 775.578 881.544 773.471 881.269L748.386 877.986C746.438 877.731 744.593 878.929 744.033 880.813L736.829 905.064C736.224 907.101 734.131 908.31 732.064 907.815L707.46 901.928C705.549 901.471 703.589 902.47 702.835 904.285L693.136 927.65C692.321 929.613 690.113 930.596 688.109 929.888L664.256 921.462C662.403 920.807 660.349 921.595 659.41 923.322L647.322 945.545C646.306 947.412 644.007 948.159 642.088 947.245L619.246 936.372C617.472 935.527 615.347 936.096 614.232 937.715L599.887 958.553C598.682 960.304 596.318 960.806 594.505 959.697L572.925 946.495C571.248 945.47 569.075 945.814 567.798 947.307L551.353 966.532C549.972 968.147 547.568 968.399 545.881 967.107L525.799 951.722C524.239 950.526 522.042 950.642 520.615 951.993L502.251 969.393C500.708 970.855 498.292 970.855 496.749 969.393L478.385 951.993C476.958 950.642 474.761 950.526 473.201 951.722L453.119 967.107C451.432 968.399 449.028 968.147 447.647 966.532L431.202 947.307C429.925 945.814 427.752 945.47 426.075 946.495L404.495 959.697C402.682 960.806 400.318 960.304 399.113 958.553L384.768 937.715C383.653 936.096 381.528 935.527 379.754 936.372L356.912 947.245C354.992 948.159 352.694 947.412 351.678 945.545L339.59 923.322C338.651 921.595 336.597 920.807 334.744 921.462L310.891 929.888C308.887 930.596 306.679 929.613 305.864 927.65L296.165 904.285C295.411 902.47 293.451 901.471 291.54 901.928L266.936 907.815C264.869 908.31 262.776 907.101 262.171 905.064L254.967 880.813C254.407 878.929 252.562 877.731 250.614 877.986L225.529 881.269C223.422 881.544 221.467 880.124 221.078 878.034L216.449 853.164C216.089 851.232 214.379 849.847 212.414 849.897L187.125 850.54C185 850.594 183.204 848.977 183.036 846.858L181.031 821.639C180.876 819.68 179.32 818.124 177.361 817.969L152.142 815.964C150.023 815.796 148.406 814 148.46 811.875L149.103 786.586C149.153 784.621 147.768 782.911 145.836 782.551L120.965 777.922C118.876 777.533 117.455 775.578 117.731 773.471L121.014 748.386C121.269 746.438 120.071 744.593 118.187 744.033L93.9361 736.829C91.8987 736.224 90.6904 734.131 91.1849 732.064L97.0717 707.46C97.529 705.549 96.5302 703.589 94.7151 702.835L71.3502 693.136C69.3872 692.321 68.4042 690.113 69.1121 688.109L77.5385 664.256C78.1931 662.403 77.4046 660.349 75.6782 659.41L53.4551 647.322C51.5881 646.306 50.8413 644.007 51.7548 642.088L62.6283 619.246C63.473 617.472 62.9036 615.347 61.2848 614.232L40.4471 599.887C38.6964 598.682 38.1939 596.318 39.303 594.505L52.5047 572.925C53.5302 571.248 53.186 569.075 51.6926 567.798L32.4685 551.353C30.8534 549.972 30.6007 547.568 31.8933 545.881L47.2783 525.799C48.4735 524.239 48.3584 522.042 47.0067 520.615L29.6068 502.251C28.1449 500.708 28.1449 498.292 29.6068 496.749L47.0067 478.385C48.3584 476.958 48.4735 474.761 47.2784 473.201L31.8933 453.119C30.6007 451.432 30.8534 449.028 32.4685 447.647L51.6926 431.202C53.186 429.925 53.5302 427.752 52.5047 426.075L39.303 404.495C38.1939 402.682 38.6964 400.318 40.4471 399.113L61.2848 384.768C62.9036 383.653 63.473 381.528 62.6283 379.754L51.7548 356.912C50.8413 354.992 51.5881 352.694 53.4551 351.678L75.6782 339.59C77.4046 338.651 78.1931 336.597 77.5385 334.744L69.1121 310.891C68.4042 308.887 69.3872 306.679 71.3502 305.864L94.7151 296.165C96.5302 295.411 97.529 293.451 97.0717 291.54L91.1849 266.936C90.6904 264.869 91.8987 262.776 93.9361 262.171L118.187 254.967C120.071 254.407 121.269 252.562 121.014 250.614L117.731 225.529C117.455 223.422 118.876 221.467 120.965 221.078L145.836 216.449C147.768 216.089 149.153 214.379 149.103 212.414L148.46 187.125C148.406 185 150.023 183.204 152.142 183.036L177.361 181.031C179.32 180.876 180.876 179.32 181.031 177.361L183.036 152.142C183.204 150.023 185 148.406 187.125 148.46L212.414 149.103C214.379 149.153 216.089 147.768 216.449 145.836L221.078 120.965C221.467 118.876 223.422 117.455 225.529 117.731L250.614 121.014C252.562 121.269 254.407 120.071 254.967 118.187L262.171 93.9361C262.776 91.8987 264.869 90.6904 266.936 91.1849L291.54 97.0717C293.451 97.529 295.411 96.5302 296.165 94.7151L305.864 71.3502C306.679 69.3872 308.887 68.4042 310.891 69.1121L334.744 77.5385C336.597 78.1931 338.651 77.4046 339.59 75.6782L351.678 53.4551C352.694 51.5881 354.992 50.8413 356.912 51.7548L379.754 62.6283C381.528 63.473 383.653 62.9036 384.768 61.2848L399.113 40.4471C400.318 38.6964 402.682 38.1939 404.495 39.303L426.075 52.5047C427.752 53.5302 429.925 53.186 431.202 51.6926L447.647 32.4685C449.028 30.8534 451.432 30.6007 453.119 31.8933L473.201 47.2783C474.761 48.4735 476.958 48.3584 478.385 47.0067L496.749 29.6068Z" fill="#333333"/>
<path d="M496.749 63.6068C498.292 62.1449 500.708 62.1449 502.251 63.6068L518.918 79.3982C520.344 80.7499 522.541 80.8651 524.101 79.6699L542.327 65.7071C544.014 64.4145 546.418 64.6671 547.799 66.2822L562.724 83.7293C564.001 85.2227 566.174 85.5669 567.851 84.5413L587.436 72.5601C589.249 71.4509 591.613 71.9534 592.818 73.7041L605.837 92.6156C606.952 94.2343 609.077 94.8038 610.851 93.9591L631.582 84.0907C633.501 83.1772 635.799 83.924 636.815 85.7911L647.786 105.96C648.725 107.686 650.779 108.475 652.632 107.82L674.28 100.173C676.284 99.4648 678.492 100.448 679.307 102.411L688.11 123.616C688.863 125.431 690.823 126.43 692.735 125.972L715.064 120.63C717.131 120.135 719.224 121.344 719.829 123.381L726.367 145.39C726.927 147.274 728.772 148.472 730.72 148.217L753.486 145.238C755.593 144.962 757.548 146.383 757.937 148.472L762.139 171.044C762.498 172.976 764.208 174.361 766.173 174.311L789.125 173.727C791.25 173.673 793.046 175.29 793.214 177.409L795.033 200.296C795.189 202.255 796.744 203.811 798.704 203.967L821.591 205.786C823.71 205.954 825.327 207.75 825.273 209.875L824.689 232.827C824.639 234.792 826.024 236.502 827.956 236.861L850.528 241.063C852.617 241.452 854.038 243.407 853.762 245.514L850.783 268.28C850.528 270.228 851.726 272.073 853.61 272.633L875.619 279.171C877.656 279.776 878.865 281.869 878.37 283.936L873.028 306.265C872.57 308.177 873.569 310.137 875.384 310.89L896.589 319.693C898.552 320.508 899.535 322.716 898.827 324.72L891.18 346.368C890.525 348.221 891.314 350.275 893.04 351.214L913.209 362.185C915.076 363.201 915.823 365.499 914.909 367.418L905.041 388.149C904.196 389.923 904.766 392.048 906.384 393.163L925.296 406.182C927.047 407.387 927.549 409.751 926.44 411.564L914.459 431.149C913.433 432.826 913.777 434.999 915.271 436.276L932.718 451.201C934.333 452.582 934.586 454.986 933.293 456.673L919.33 474.899C918.135 476.459 918.25 478.656 919.602 480.082L935.393 496.749C936.855 498.292 936.855 500.708 935.393 502.251L919.602 518.918C918.25 520.344 918.135 522.541 919.33 524.101L933.293 542.327C934.586 544.014 934.333 546.418 932.718 547.799L915.271 562.724C913.777 564.001 913.433 566.174 914.459 567.851L926.44 587.436C927.549 589.249 927.047 591.613 925.296 592.818L906.384 605.837C904.766 606.952 904.196 609.077 905.041 610.851L914.909 631.582C915.823 633.501 915.076 635.799 913.209 636.815L893.04 647.786C891.314 648.725 890.525 650.779 891.18 652.632L898.827 674.28C899.535 676.284 898.552 678.492 896.589 679.307L875.384 688.11C873.569 688.863 872.57 690.823 873.028 692.735L878.37 715.064C878.865 717.131 877.656 719.224 875.619 719.829L853.61 726.367C851.726 726.927 850.528 728.772 850.783 730.72L853.762 753.486C854.038 755.593 852.617 757.548 850.528 757.937L827.956 762.139C826.024 762.498 824.639 764.208 824.689 766.173L825.273 789.125C825.327 791.25 823.71 793.046 821.591 793.214L798.704 795.033C796.745 795.189 795.189 796.744 795.033 798.704L793.214 821.591C793.046 823.71 791.25 825.327 789.125 825.273L766.173 824.689C764.208 824.639 762.498 826.024 762.139 827.956L757.937 850.528C757.548 852.617 755.593 854.038 753.486 853.762L730.72 850.783C728.772 850.528 726.927 851.726 726.367 853.61L719.829 875.619C719.224 877.656 717.131 878.865 715.064 878.37L692.735 873.028C690.823 872.57 688.863 873.569 688.11 875.384L679.307 896.589C678.492 898.552 676.284 899.535 674.28 898.827L652.632 891.18C650.779 890.525 648.725 891.314 647.786 893.04L636.815 913.209C635.799 915.076 633.501 915.823 631.582 914.909L610.851 905.041C609.077 904.196 606.952 904.766 605.837 906.384L592.818 925.296C591.613 927.047 589.249 927.549 587.436 926.44L567.851 914.459C566.174 913.433 564.001 913.777 562.724 915.271L547.799 932.718C546.418 934.333 544.014 934.586 542.327 933.293L524.101 919.33C522.541 918.135 520.344 918.25 518.918 919.602L502.251 935.393C500.708 936.855 498.292 936.855 496.749 935.393L480.082 919.602C478.656 918.25 476.459 918.135 474.899 919.33L456.673 933.293C454.986 934.586 452.582 934.333 451.201 932.718L436.276 915.271C434.999 913.777 432.826 913.433 431.149 914.459L411.564 926.44C409.751 927.549 407.387 927.047 406.182 925.296L393.163 906.384C392.048 904.766 389.923 904.196 388.149 905.041L367.418 914.909C365.499 915.823 363.201 915.076 362.185 913.209L351.214 893.04C350.275 891.314 348.221 890.525 346.368 891.18L324.72 898.827C322.716 899.535 320.508 898.552 319.693 896.589L310.89 875.384C310.137 873.569 308.177 872.57 306.265 873.028L283.936 878.37C281.869 878.865 279.776 877.656 279.171 875.619L272.633 853.61C272.073 851.726 270.228 850.528 268.28 850.783L245.514 853.762C243.407 854.038 241.452 852.617 241.063 850.528L236.861 827.956C236.502 826.024 234.792 824.639 232.827 824.689L209.875 825.273C207.75 825.327 205.954 823.71 205.786 821.591L203.967 798.704C203.811 796.745 202.256 795.189 200.296 795.033L177.409 793.214C175.29 793.046 173.673 791.25 173.727 789.125L174.311 766.173C174.361 764.208 172.976 762.498 171.044 762.139L148.472 757.937C146.383 757.548 144.962 755.593 145.238 753.486L148.217 730.72C148.472 728.772 147.274 726.927 145.39 726.367L123.381 719.829C121.344 719.224 120.135 717.131 120.63 715.064L125.972 692.735C126.43 690.823 125.431 688.863 123.616 688.11L102.411 679.307C100.448 678.492 99.4648 676.284 100.173 674.28L107.82 652.632C108.475 650.779 107.686 648.725 105.96 647.786L85.7911 636.815C83.924 635.799 83.1772 633.501 84.0907 631.582L93.9591 610.851C94.8038 609.077 94.2343 606.952 92.6156 605.837L73.7041 592.818C71.9534 591.613 71.4509 589.249 72.5601 587.436L84.5413 567.851C85.5669 566.174 85.2227 564.001 83.7293 562.724L66.2822 547.799C64.6671 546.418 64.4145 544.014 65.7071 542.327L79.6699 524.101C80.8651 522.541 80.7499 520.344 79.3982 518.918L63.6068 502.251C62.1449 500.708 62.1449 498.292 63.6068 496.749L79.3982 480.082C80.7499 478.656 80.8651 476.459 79.6699 474.899L65.7071 456.673C64.4145 454.986 64.6671 452.582 66.2822 451.201L83.7293 436.276C85.2227 434.999 85.5669 432.826 84.5413 431.149L72.5601 411.564C71.4509 409.751 71.9534 407.387 73.7041 406.182L92.6156 393.163C94.2343 392.048 94.8038 389.923 93.9591 388.149L84.0907 367.418C83.1772 365.499 83.924 363.201 85.7911 362.185L105.96 351.214C107.686 350.275 108.475 348.221 107.82 346.368L100.173 324.72C99.4648 322.716 100.448 320.508 102.411 319.693L123.616 310.89C125.431 310.137 126.43 308.177 125.972 306.265L120.63 283.936C120.135 281.869 121.344 279.776 123.381 279.171L145.39 272.633C147.274 272.073 148.472 270.228 148.217 268.28L145.238 245.514C144.962 243.407 146.383 241.452 148.472 241.063L171.044 236.861C172.976 236.502 174.361 234.792 174.311 232.827L173.727 209.875C173.673 207.75 175.29 205.954 177.409 205.786L200.296 203.967C202.255 203.811 203.811 202.256 203.967 200.296L205.786 177.409C205.954 175.29 207.75 173.673 209.875 173.727L232.827 174.311C234.792 174.361 236.502 172.976 236.861 171.044L241.063 148.472C241.452 146.383 243.407 144.962 245.514 145.238L268.28 148.217C270.228 148.472 272.073 147.274 272.633 145.39L279.171 123.381C279.776 121.344 281.869 120.135 283.936 120.63L306.265 125.972C308.177 126.43 310.137 125.431 310.89 123.616L319.693 102.411C320.508 100.448 322.716 99.4648 324.72 100.173L346.368 107.82C348.221 108.475 350.275 107.686 351.214 105.96L362.185 85.7911C363.201 83.924 365.499 83.1772 367.418 84.0907L388.149 93.9591C389.923 94.8038 392.048 94.2343 393.163 92.6156L406.182 73.7041C407.387 71.9534 409.751 71.4509 411.564 72.5601L431.149 84.5413C432.826 85.5669 434.999 85.2227 436.276 83.7293L451.201 66.2822C452.582 64.6671 454.986 64.4145 456.673 65.7071L474.899 79.6699C476.459 80.8651 478.656 80.7499 480.082 79.3982L496.749 63.6068Z" stroke="white" stroke-width="5"/>
<rect x="262" y="182" width="476" height="476" rx="10.4297" fill="white"/>
<path d="M604.387 225.863H694.851V316.327" stroke="#C2C2C2" stroke-width="18.0928"/>
<path d="M396.32 225.863H305.857V316.327" stroke="#C2C2C2" stroke-width="18.0928"/>
<path d="M604.387 614.857H694.851V524.394" stroke="#C2C2C2" stroke-width="18.0928"/>
<path d="M396.32 614.857H305.857V524.394" stroke="#C2C2C2" stroke-width="18.0928"/>
<path d="M392.486 382.791L385 361.003L377.044 382.791H392.486ZM381.508 353.685H389.062L406.955 403H399.637L394.635 388.229H375.13L369.792 403H362.944L381.508 353.685ZM416.053 385.443C416.053 389.292 416.869 392.515 418.503 395.111C420.137 397.707 422.755 399.005 426.359 399.005C429.156 399.005 431.45 397.808 433.241 395.413C435.053 392.996 435.96 389.538 435.96 385.04C435.96 380.497 435.031 377.139 433.174 374.969C431.316 372.775 429.022 371.679 426.292 371.679C423.248 371.679 420.775 372.842 418.872 375.17C416.993 377.498 416.053 380.922 416.053 385.443ZM425.15 366.408C427.903 366.408 430.208 366.99 432.066 368.154C433.14 368.825 434.36 370 435.725 371.679V353.517H441.533V403H436.094V397.998C434.684 400.214 433.017 401.814 431.092 402.799C429.167 403.783 426.963 404.276 424.479 404.276C420.473 404.276 417.004 402.597 414.072 399.24C411.14 395.861 409.674 391.373 409.674 385.778C409.674 380.541 411.006 376.009 413.669 372.182C416.355 368.333 420.182 366.408 425.15 366.408ZM454.323 385.443C454.323 389.292 455.14 392.515 456.774 395.111C458.407 397.707 461.026 399.005 464.629 399.005C467.427 399.005 469.721 397.808 471.511 395.413C473.324 392.996 474.23 389.538 474.23 385.04C474.23 380.497 473.302 377.139 471.444 374.969C469.586 372.775 467.292 371.679 464.562 371.679C461.518 371.679 459.045 372.842 457.143 375.17C455.263 377.498 454.323 380.922 454.323 385.443ZM463.421 366.408C466.173 366.408 468.479 366.99 470.336 368.154C471.41 368.825 472.63 370 473.995 371.679V353.517H479.803V403H474.365V397.998C472.955 400.214 471.287 401.814 469.363 402.799C467.438 403.783 465.233 404.276 462.749 404.276C458.743 404.276 455.274 402.597 452.342 399.24C449.41 395.861 447.945 391.373 447.945 385.778C447.945 380.541 449.276 376.009 451.939 372.182C454.625 368.333 458.452 366.408 463.421 366.408ZM530.36 367.046H537.041C536.19 369.351 534.299 374.611 531.367 382.824C529.174 389.001 527.339 394.037 525.862 397.931C522.37 407.107 519.909 412.702 518.476 414.716C517.044 416.73 514.582 417.737 511.091 417.737C510.24 417.737 509.58 417.704 509.11 417.637C508.662 417.57 508.103 417.447 507.432 417.267V411.762C508.483 412.053 509.244 412.232 509.714 412.299C510.184 412.366 510.598 412.4 510.956 412.4C512.075 412.4 512.892 412.21 513.407 411.829C513.944 411.471 514.392 411.023 514.75 410.486C514.862 410.307 515.265 409.39 515.958 407.733C516.652 406.077 517.156 404.846 517.469 404.041L504.175 367.046H511.024L520.658 396.319L530.36 367.046ZM556.545 399.106C560.551 399.106 563.293 397.595 564.77 394.574C566.27 391.53 567.019 388.151 567.019 384.435C567.019 381.078 566.482 378.348 565.408 376.244C563.707 372.932 560.775 371.276 556.612 371.276C552.92 371.276 550.234 372.686 548.555 375.506C546.877 378.326 546.038 381.727 546.038 385.711C546.038 389.538 546.877 392.727 548.555 395.279C550.234 397.83 552.897 399.106 556.545 399.106ZM556.78 366.005C561.413 366.005 565.33 367.55 568.53 370.638C571.73 373.726 573.331 378.27 573.331 384.268C573.331 390.064 571.921 394.854 569.101 398.636C566.281 402.418 561.905 404.309 555.975 404.309C551.029 404.309 547.101 402.642 544.191 399.307C541.282 395.95 539.827 391.452 539.827 385.812C539.827 379.769 541.36 374.957 544.426 371.377C547.492 367.796 551.61 366.005 556.78 366.005ZM586.591 367.046V390.915C586.591 392.75 586.882 394.249 587.464 395.413C588.538 397.562 590.541 398.636 593.473 398.636C597.68 398.636 600.545 396.756 602.067 392.996C602.895 390.982 603.309 388.218 603.309 384.704V367.046H609.352V403H603.645L603.712 397.696C602.929 399.061 601.955 400.214 600.791 401.154C598.486 403.034 595.689 403.974 592.399 403.974C587.274 403.974 583.782 402.261 581.925 398.837C580.917 397.002 580.414 394.551 580.414 391.485V367.046H586.591ZM618.986 367.046H624.727V373.256C625.197 372.048 626.35 370.582 628.185 368.859C630.02 367.113 632.135 366.24 634.53 366.24C634.642 366.24 634.832 366.251 635.1 366.274C635.369 366.296 635.828 366.341 636.477 366.408V372.787C636.119 372.719 635.783 372.675 635.47 372.652C635.179 372.63 634.854 372.619 634.496 372.619C631.452 372.619 629.114 373.603 627.48 375.573C625.846 377.52 625.029 379.769 625.029 382.321V403H618.986V367.046Z" fill="#C2C2C2"/>
<path d="M393.09 484.483C390.874 485.222 388.222 485.591 385.134 485.591C378.688 485.591 373.362 483.667 369.154 479.817C364.052 475.184 361.5 468.381 361.5 459.406C361.5 450.365 364.119 443.527 369.356 438.895C373.63 435.112 378.946 433.221 385.302 433.221C391.703 433.221 397.074 435.224 401.416 439.23C406.429 443.863 408.935 450.342 408.935 458.668C408.935 463.077 408.398 466.769 407.324 469.746C406.451 472.588 405.164 474.949 403.463 476.829L409.17 482.167L403.766 487.807L397.79 482.167C395.977 483.264 394.411 484.036 393.09 484.483ZM390.874 475.554L385.872 470.787L391.21 465.214L396.212 469.981C396.995 468.37 397.544 466.96 397.857 465.751C398.349 463.938 398.596 461.823 398.596 459.406C398.596 453.856 397.454 449.57 395.171 446.549C392.911 443.505 389.599 441.983 385.235 441.983C381.139 441.983 377.871 443.438 375.432 446.347C372.993 449.257 371.773 453.61 371.773 459.406C371.773 466.187 373.518 471.044 377.01 473.976C379.27 475.878 381.978 476.829 385.134 476.829C386.32 476.829 387.461 476.684 388.558 476.393C389.162 476.236 389.934 475.956 390.874 475.554ZM437.873 464.811H427.198V484.215H417.093V434.732H441.365C444.833 434.799 447.497 435.224 449.354 436.008C451.234 436.791 452.823 437.943 454.121 439.465C455.196 440.719 456.046 442.106 456.673 443.628C457.299 445.15 457.613 446.884 457.613 448.831C457.613 451.181 457.02 453.498 455.833 455.781C454.647 458.041 452.689 459.641 449.959 460.581C452.241 461.499 453.853 462.808 454.793 464.509C455.755 466.187 456.236 468.761 456.236 472.23V475.554C456.236 477.814 456.326 479.347 456.505 480.153C456.773 481.428 457.4 482.368 458.385 482.973V484.215H447.004C446.691 483.118 446.467 482.234 446.333 481.563C446.064 480.175 445.919 478.754 445.897 477.299L445.829 472.7C445.785 469.545 445.203 467.441 444.084 466.389C442.987 465.337 440.917 464.811 437.873 464.811ZM444.151 455.814C446.21 454.874 447.239 453.017 447.239 450.241C447.239 447.242 446.243 445.228 444.252 444.199C443.133 443.617 441.454 443.326 439.216 443.326H427.198V456.62H438.914C441.241 456.62 442.987 456.351 444.151 455.814ZM516.563 460.749H506.76C506.581 459.384 506.122 458.153 505.384 457.056C504.309 455.579 502.642 454.841 500.382 454.841C497.159 454.841 494.954 456.441 493.768 459.641C493.141 461.342 492.828 463.603 492.828 466.422C492.828 469.108 493.141 471.268 493.768 472.902C494.91 475.945 497.058 477.467 500.214 477.467C502.452 477.467 504.041 476.863 504.981 475.654C505.921 474.446 506.491 472.879 506.693 470.954H516.462C516.238 473.864 515.186 476.617 513.306 479.213C510.307 483.398 505.865 485.491 499.979 485.491C494.093 485.491 489.762 483.745 486.987 480.254C484.212 476.762 482.824 472.23 482.824 466.657C482.824 460.369 484.357 455.478 487.423 451.987C490.489 448.496 494.719 446.75 500.113 446.75C504.701 446.75 508.45 447.78 511.359 449.839C514.291 451.898 516.025 455.534 516.563 460.749ZM553.692 452.256C556.78 456.127 558.324 460.704 558.324 465.986C558.324 471.357 556.78 475.956 553.692 479.784C550.603 483.588 545.914 485.491 539.626 485.491C533.337 485.491 528.648 483.588 525.559 479.784C522.471 475.956 520.927 471.357 520.927 465.986C520.927 460.704 522.471 456.127 525.559 452.256C528.648 448.384 533.337 446.448 539.626 446.448C545.914 446.448 550.603 448.384 553.692 452.256ZM539.592 454.538C536.794 454.538 534.635 455.534 533.113 457.526C531.613 459.496 530.864 462.316 530.864 465.986C530.864 469.656 531.613 472.488 533.113 474.479C534.635 476.471 536.794 477.467 539.592 477.467C542.389 477.467 544.538 476.471 546.037 474.479C547.537 472.488 548.287 469.656 548.287 465.986C548.287 462.316 547.537 459.496 546.037 457.526C544.538 455.534 542.389 454.538 539.592 454.538ZM598.508 434.799V484.215H589.209V479.146C587.844 481.317 586.289 482.894 584.543 483.879C582.797 484.864 580.626 485.356 578.03 485.356C573.756 485.356 570.152 483.633 567.22 480.186C564.311 476.717 562.856 472.275 562.856 466.859C562.856 460.615 564.289 455.702 567.153 452.121C570.04 448.541 573.89 446.75 578.702 446.75C580.917 446.75 582.887 447.242 584.61 448.227C586.333 449.19 587.732 450.532 588.806 452.256V434.799H598.508ZM572.726 466.154C572.726 469.533 573.397 472.23 574.74 474.244C576.061 476.281 578.075 477.299 580.783 477.299C583.491 477.299 585.55 476.292 586.96 474.278C588.37 472.264 589.075 469.656 589.075 466.456C589.075 461.98 587.945 458.78 585.684 456.855C584.297 455.691 582.685 455.109 580.85 455.109C578.053 455.109 575.994 456.172 574.673 458.298C573.375 460.402 572.726 463.021 572.726 466.154ZM638.558 473.472C638.312 475.643 637.182 477.848 635.167 480.086C632.034 483.644 627.647 485.423 622.008 485.423C617.353 485.423 613.246 483.924 609.687 480.925C606.129 477.926 604.35 473.047 604.35 466.288C604.35 459.955 605.95 455.098 609.15 451.719C612.373 448.339 616.547 446.649 621.672 446.649C624.716 446.649 627.457 447.22 629.897 448.362C632.336 449.503 634.35 451.305 635.939 453.766C637.372 455.937 638.301 458.455 638.726 461.32C638.972 462.998 639.073 465.415 639.028 468.571H613.984C614.119 472.241 615.271 474.815 617.442 476.292C618.762 477.21 620.351 477.669 622.209 477.669C624.179 477.669 625.779 477.109 627.01 475.99C627.681 475.386 628.274 474.547 628.789 473.472H638.558ZM629.091 462.26C628.934 459.731 628.162 457.817 626.775 456.519C625.409 455.199 623.709 454.538 621.672 454.538C619.456 454.538 617.733 455.232 616.502 456.62C615.294 458.007 614.533 459.887 614.219 462.26H629.091Z" fill="#C2C2C2"/>
<rect x="262" y="691" width="476" height="122" rx="10.4297" fill="white"/>
<path d="M324.59 771H315.047L300.938 746.227V771H291.34V731.188H300.938L315.02 755.961V731.188H324.59V771ZM355.352 754.129H340.258V763.617H358.086V771H330.66V731.188H358.141V738.598H340.258V746.992H355.352V754.129ZM392.84 756.152L397.406 731.188H406.922L398.473 771H388.52L383.188 748.305L377.965 771H368.039L359.562 731.188H369.105L373.672 756.152L379.141 731.188H387.289L392.84 756.152ZM439.188 748.469L446.516 731.188H456.879L444.055 756.699V771H434.32V756.699L421.523 731.188H431.832L439.188 748.469ZM484.469 754.129H469.375V763.617H487.203V771H459.777V731.188H487.258V738.598H469.375V746.992H484.469V754.129ZM513.727 763.562H500.574L498.277 771H488.023L502.625 731.188H511.648L526.359 771H516.051L513.727 763.562ZM502.871 756.152H511.43L507.137 742.344L502.871 756.152ZM544.078 756.945H538.883V771H529.285V731.188H544.953C549.674 731.188 553.366 732.236 556.027 734.332C558.689 736.428 560.02 739.391 560.02 743.219C560.02 745.99 559.454 748.286 558.324 750.109C557.212 751.932 555.462 753.409 553.074 754.539L561.387 770.59V771H551.105L544.078 756.945ZM538.883 749.535H544.953C546.776 749.535 548.143 749.061 549.055 748.113C549.984 747.147 550.449 745.807 550.449 744.094C550.449 742.38 549.984 741.04 549.055 740.074C548.125 739.09 546.758 738.598 544.953 738.598H538.883V749.535ZM600.297 760.418C600.297 759.014 599.796 757.921 598.793 757.137C597.809 756.353 596.068 755.542 593.57 754.703C591.073 753.865 589.031 753.053 587.445 752.27C582.286 749.736 579.707 746.254 579.707 741.824C579.707 739.618 580.345 737.677 581.621 736C582.915 734.305 584.738 732.992 587.09 732.062C589.441 731.115 592.085 730.641 595.02 730.641C597.882 730.641 600.443 731.151 602.703 732.172C604.982 733.193 606.75 734.651 608.008 736.547C609.266 738.424 609.895 740.576 609.895 743H600.324C600.324 741.378 599.823 740.12 598.82 739.227C597.836 738.333 596.496 737.887 594.801 737.887C593.087 737.887 591.729 738.27 590.727 739.035C589.742 739.783 589.25 740.74 589.25 741.906C589.25 742.927 589.797 743.857 590.891 744.695C591.984 745.516 593.908 746.372 596.66 747.266C599.413 748.141 601.673 749.089 603.441 750.109C607.743 752.589 609.895 756.007 609.895 760.363C609.895 763.845 608.582 766.579 605.957 768.566C603.332 770.553 599.732 771.547 595.156 771.547C591.93 771.547 589.004 770.973 586.379 769.824C583.772 768.658 581.803 767.072 580.473 765.066C579.16 763.043 578.504 760.719 578.504 758.094H588.129C588.129 760.227 588.676 761.803 589.77 762.824C590.882 763.827 592.677 764.328 595.156 764.328C596.742 764.328 597.991 763.991 598.902 763.316C599.832 762.624 600.297 761.658 600.297 760.418ZM637.43 763.562H624.277L621.98 771H611.727L626.328 731.188H635.352L650.062 771H639.754L637.43 763.562ZM626.574 756.152H635.133L630.84 742.344L626.574 756.152ZM662.586 763.617H679.293V771H652.988V731.188H662.586V763.617ZM708.031 754.129H692.938V763.617H710.766V771H683.34V731.188H710.82V738.598H692.938V746.992H708.031V754.129Z" fill="#333333"/>
</svg>
