<svg width="1000" height="1000" viewBox="0 0 1000 1000" fill="none" xmlns="http://www.w3.org/2000/svg">
<g clip-path="url(#clip0_270:184)">
<path d="M738 613.5H751.5V600V116C751.5 94.737 734.263 77.5 713 77.5H286C264.737 77.5 247.5 94.737 247.5 116V600V613.5H261H738Z" stroke="#333333" stroke-width="27"/>
<rect x="271" y="117" width="457" height="457" rx="6.07021" fill="white"/>
<path d="M599.285 159.057H686.022V245.794" stroke="#C2C2C2" stroke-width="17.3474"/>
<path d="M399.789 159.057H313.052V245.794" stroke="#C2C2C2" stroke-width="17.3474"/>
<path d="M599.285 532.023H686.022V445.287" stroke="#C2C2C2" stroke-width="17.3474"/>
<path d="M399.789 532.023H313.052V445.287" stroke="#C2C2C2" stroke-width="17.3474"/>
<path d="M396.427 310.566L389.249 289.677L381.62 310.566H396.427ZM385.901 282.66H393.144L410.3 329.943H403.283L398.487 315.781H379.786L374.668 329.943H368.102L385.901 282.66ZM419.022 313.109C419.022 316.8 419.806 319.89 421.372 322.379C422.938 324.868 425.449 326.113 428.904 326.113C431.586 326.113 433.786 324.965 435.502 322.669C437.24 320.351 438.11 317.036 438.11 312.723C438.11 308.367 437.219 305.148 435.438 303.067C433.657 300.964 431.457 299.912 428.84 299.912C425.921 299.912 423.55 301.028 421.726 303.26C419.924 305.492 419.022 308.775 419.022 313.109ZM427.745 294.859C430.385 294.859 432.595 295.417 434.376 296.533C435.406 297.176 436.575 298.303 437.884 299.912V282.499H443.453V329.943H438.238V325.147C436.886 327.272 435.288 328.806 433.442 329.75C431.597 330.694 429.483 331.166 427.101 331.166C423.26 331.166 419.934 329.557 417.123 326.338C414.312 323.098 412.907 318.796 412.907 313.431C412.907 308.41 414.183 304.065 416.737 300.395C419.312 296.704 422.981 294.859 427.745 294.859ZM455.716 313.109C455.716 316.8 456.499 319.89 458.066 322.379C459.632 324.868 462.143 326.113 465.598 326.113C468.28 326.113 470.479 324.965 472.196 322.669C473.934 320.351 474.803 317.036 474.803 312.723C474.803 308.367 473.913 305.148 472.132 303.067C470.351 300.964 468.151 299.912 465.533 299.912C462.615 299.912 460.244 301.028 458.42 303.26C456.617 305.492 455.716 308.775 455.716 313.109ZM464.439 294.859C467.078 294.859 469.288 295.417 471.07 296.533C472.1 297.176 473.269 298.303 474.578 299.912V282.499H480.146V329.943H474.932V325.147C473.58 327.272 471.982 328.806 470.136 329.75C468.291 330.694 466.177 331.166 463.795 331.166C459.954 331.166 456.628 329.557 453.817 326.338C451.006 323.098 449.6 318.796 449.6 313.431C449.6 308.41 450.877 304.065 453.431 300.395C456.006 296.704 459.675 294.859 464.439 294.859ZM528.621 295.471H535.026C534.211 297.681 532.397 302.723 529.586 310.599C527.484 316.521 525.724 321.349 524.308 325.083C520.96 333.881 518.6 339.246 517.226 341.177C515.853 343.108 513.493 344.074 510.145 344.074C509.33 344.074 508.697 344.041 508.246 343.977C507.817 343.913 507.28 343.795 506.637 343.623V338.344C507.645 338.623 508.375 338.795 508.825 338.859C509.276 338.924 509.673 338.956 510.016 338.956C511.089 338.956 511.873 338.773 512.366 338.409C512.881 338.065 513.31 337.636 513.654 337.121C513.761 336.95 514.147 336.07 514.812 334.482C515.478 332.894 515.96 331.714 516.261 330.941L503.515 295.471H510.081L519.319 323.538L528.621 295.471ZM553.727 326.21C557.568 326.21 560.197 324.761 561.613 321.864C563.051 318.946 563.77 315.706 563.77 312.144C563.77 308.925 563.255 306.307 562.225 304.29C560.594 301.114 557.783 299.526 553.791 299.526C550.251 299.526 547.676 300.878 546.066 303.582C544.457 306.286 543.652 309.547 543.652 313.367C543.652 317.036 544.457 320.094 546.066 322.54C547.676 324.986 550.229 326.21 553.727 326.21ZM553.952 294.473C558.394 294.473 562.149 295.953 565.218 298.915C568.287 301.876 569.821 306.232 569.821 311.983C569.821 317.54 568.469 322.133 565.765 325.759C563.061 329.385 558.866 331.199 553.18 331.199C548.438 331.199 544.672 329.6 541.882 326.403C539.092 323.184 537.698 318.871 537.698 313.463C537.698 307.67 539.168 303.056 542.107 299.623C545.047 296.189 548.996 294.473 553.952 294.473ZM582.535 295.471V318.356C582.535 320.115 582.814 321.553 583.372 322.669C584.402 324.729 586.322 325.759 589.133 325.759C593.167 325.759 595.914 323.956 597.373 320.351C598.167 318.42 598.564 315.77 598.564 312.401V295.471H604.358V329.943H598.886L598.951 324.858C598.199 326.167 597.266 327.272 596.15 328.173C593.94 329.976 591.258 330.877 588.103 330.877C583.189 330.877 579.842 329.235 578.061 325.952C577.095 324.193 576.612 321.843 576.612 318.903V295.471H582.535ZM613.596 295.471H619.1V301.425C619.551 300.266 620.656 298.861 622.415 297.209C624.175 295.535 626.203 294.698 628.499 294.698C628.606 294.698 628.788 294.709 629.046 294.73C629.303 294.752 629.743 294.795 630.366 294.859V300.975C630.022 300.91 629.7 300.867 629.4 300.846C629.121 300.824 628.81 300.814 628.466 300.814C625.548 300.814 623.306 301.758 621.739 303.646C620.173 305.513 619.39 307.67 619.39 310.116V329.943H613.596V295.471Z" fill="#C2C2C2"/>
<path d="M397.008 408.07C394.883 408.778 392.341 409.132 389.379 409.132C383.199 409.132 378.092 407.287 374.058 403.596C369.166 399.154 366.719 392.631 366.719 384.026C366.719 375.357 369.23 368.801 374.251 364.359C378.35 360.733 383.446 358.92 389.54 358.92C395.677 358.92 400.827 360.84 404.99 364.681C409.797 369.123 412.2 375.335 412.2 383.318C412.2 387.545 411.685 391.086 410.655 393.94C409.818 396.665 408.585 398.929 406.954 400.731L412.426 405.849L407.243 411.257L401.514 405.849C399.776 406.901 398.274 407.641 397.008 408.07ZM394.883 399.508L390.087 394.937L395.205 389.594L400.001 394.165C400.752 392.62 401.278 391.268 401.578 390.109C402.05 388.371 402.286 386.343 402.286 384.026C402.286 378.704 401.192 374.595 399.003 371.698C396.836 368.78 393.66 367.321 389.476 367.321C385.549 367.321 382.416 368.715 380.077 371.505C377.738 374.295 376.569 378.468 376.569 384.026C376.569 390.528 378.242 395.184 381.59 397.995C383.757 399.819 386.354 400.731 389.379 400.731C390.517 400.731 391.611 400.592 392.662 400.313C393.242 400.163 393.982 399.894 394.883 399.508ZM439.946 389.208H429.71V407.812H420.022V360.368H443.293C446.619 360.432 449.173 360.84 450.954 361.591C452.757 362.342 454.28 363.447 455.525 364.907C456.555 366.108 457.37 367.439 457.971 368.898C458.572 370.357 458.872 372.02 458.872 373.887C458.872 376.14 458.303 378.361 457.166 380.55C456.029 382.717 454.151 384.251 451.533 385.152C453.722 386.032 455.267 387.288 456.168 388.918C457.091 390.528 457.552 392.996 457.552 396.322V399.508C457.552 401.675 457.638 403.145 457.81 403.918C458.067 405.141 458.668 406.042 459.612 406.622V407.812H448.701C448.4 406.761 448.186 405.913 448.057 405.27C447.8 403.939 447.66 402.577 447.639 401.182L447.574 396.772C447.531 393.747 446.973 391.729 445.901 390.721C444.849 389.712 442.864 389.208 439.946 389.208ZM445.965 380.582C447.939 379.681 448.926 377.9 448.926 375.239C448.926 372.363 447.971 370.432 446.061 369.445C444.989 368.887 443.379 368.608 441.233 368.608H429.71V381.354H440.944C443.175 381.354 444.849 381.097 445.965 380.582ZM515.393 385.313H505.995C505.823 384.004 505.383 382.824 504.675 381.773C503.645 380.357 502.046 379.648 499.879 379.648C496.789 379.648 494.675 381.183 493.538 384.251C492.937 385.882 492.637 388.049 492.637 390.753C492.637 393.328 492.937 395.399 493.538 396.965C494.632 399.884 496.692 401.343 499.718 401.343C501.864 401.343 503.387 400.763 504.289 399.605C505.19 398.446 505.737 396.944 505.93 395.098H515.297C515.082 397.888 514.074 400.527 512.271 403.017C509.396 407.029 505.136 409.036 499.493 409.036C493.849 409.036 489.697 407.362 487.036 404.014C484.375 400.667 483.045 396.322 483.045 390.978C483.045 384.949 484.515 380.26 487.455 376.912C490.394 373.565 494.45 371.891 499.622 371.891C504.02 371.891 507.615 372.878 510.404 374.852C513.215 376.827 514.878 380.314 515.393 385.313ZM550.993 377.17C553.954 380.882 555.435 385.271 555.435 390.335C555.435 395.485 553.954 399.894 550.993 403.564C548.032 407.212 543.536 409.036 537.506 409.036C531.476 409.036 526.981 407.212 524.02 403.564C521.058 399.894 519.578 395.485 519.578 390.335C519.578 385.271 521.058 380.882 524.02 377.17C526.981 373.458 531.476 371.602 537.506 371.602C543.536 371.602 548.032 373.458 550.993 377.17ZM537.474 379.359C534.792 379.359 532.721 380.314 531.262 382.223C529.824 384.112 529.105 386.816 529.105 390.335C529.105 393.854 529.824 396.568 531.262 398.478C532.721 400.388 534.792 401.343 537.474 401.343C540.156 401.343 542.216 400.388 543.654 398.478C545.092 396.568 545.811 393.854 545.811 390.335C545.811 386.816 545.092 384.112 543.654 382.223C542.216 380.314 540.156 379.359 537.474 379.359ZM593.963 360.432V407.812H585.047V402.952C583.738 405.034 582.247 406.546 580.573 407.491C578.899 408.435 576.818 408.907 574.329 408.907C570.23 408.907 566.775 407.255 563.964 403.95C561.175 400.624 559.78 396.364 559.78 391.172C559.78 385.185 561.153 380.475 563.9 377.041C566.668 373.608 570.359 371.891 574.972 371.891C577.097 371.891 578.985 372.363 580.637 373.307C582.29 374.23 583.631 375.518 584.661 377.17V360.432H593.963ZM569.243 390.496C569.243 393.736 569.887 396.322 571.174 398.253C572.44 400.206 574.372 401.182 576.968 401.182C579.565 401.182 581.539 400.216 582.891 398.285C584.242 396.354 584.918 393.854 584.918 390.785C584.918 386.494 583.835 383.425 581.667 381.58C580.337 380.464 578.792 379.906 577.032 379.906C574.35 379.906 572.376 380.925 571.11 382.964C569.865 384.981 569.243 387.491 569.243 390.496ZM632.363 397.512C632.127 399.594 631.043 401.708 629.112 403.853C626.108 407.265 621.902 408.971 616.494 408.971C612.031 408.971 608.093 407.534 604.682 404.658C601.27 401.783 599.564 397.105 599.564 390.624C599.564 384.552 601.098 379.895 604.167 376.655C607.257 373.415 611.259 371.795 616.173 371.795C619.091 371.795 621.719 372.342 624.058 373.436C626.397 374.531 628.329 376.258 629.852 378.618C631.226 380.7 632.116 383.114 632.524 385.861C632.76 387.47 632.856 389.787 632.813 392.813H608.802C608.93 396.332 610.035 398.8 612.117 400.216C613.383 401.096 614.906 401.536 616.688 401.536C618.576 401.536 620.11 400.999 621.29 399.927C621.934 399.347 622.503 398.542 622.996 397.512H632.363ZM623.286 386.762C623.136 384.337 622.395 382.502 621.065 381.258C619.756 379.992 618.125 379.359 616.173 379.359C614.048 379.359 612.396 380.024 611.216 381.354C610.057 382.685 609.327 384.487 609.027 386.762H623.286Z" fill="#C2C2C2"/>
<path d="M999 1000H499V847.779V715.637C672.6 537.08 904 444.814 998 421L999 1000Z" fill="#333333"/>
<path d="M0 1000H500V847.779V715.637C326.4 537.08 95 444.814 1 421L0 1000Z" fill="#333333"/>
<path d="M0 1000H500V847.779V715.637C326.4 537.08 95 444.814 1 421L0 1000Z" fill="#333333"/>
<path d="M379.911 878.431C379.911 876.206 380.345 874.204 381.212 872.426C382.094 870.649 383.312 869.277 384.866 868.311C386.433 867.345 388.218 866.862 390.22 866.862C393.313 866.862 395.812 867.933 397.715 870.075C399.633 872.216 400.592 875.065 400.592 878.62V878.893C400.592 881.105 400.165 883.092 399.311 884.856C398.471 886.606 397.26 887.97 395.679 888.95C394.111 889.93 392.305 890.42 390.262 890.42C387.182 890.42 384.684 889.349 382.766 887.208C380.862 885.066 379.911 882.231 379.911 878.704V878.431ZM383.816 878.893C383.816 881.413 384.397 883.435 385.559 884.961C386.734 886.487 388.302 887.25 390.262 887.25C392.235 887.25 393.803 886.48 394.965 884.94C396.127 883.386 396.708 881.217 396.708 878.431C396.708 875.94 396.113 873.924 394.923 872.384C393.747 870.831 392.179 870.054 390.22 870.054C388.302 870.054 386.755 870.817 385.58 872.342C384.404 873.868 383.816 876.052 383.816 878.893ZM407.374 890V870.285H403.783V867.282H407.374V864.952C407.374 862.516 408.024 860.633 409.326 859.304C410.628 857.974 412.469 857.309 414.848 857.309C415.744 857.309 416.633 857.428 417.515 857.666L417.305 860.815C416.647 860.689 415.947 860.626 415.205 860.626C413.945 860.626 412.972 860.997 412.287 861.739C411.601 862.467 411.258 863.517 411.258 864.889V867.282H416.108V870.285H411.258V890H407.374ZM445.104 887.753C443.592 889.531 441.373 890.42 438.448 890.42C436.026 890.42 434.179 889.72 432.905 888.32C431.645 886.907 431.008 884.821 430.994 882.063V867.282H434.878V881.958C434.878 885.402 436.278 887.124 439.078 887.124C442.045 887.124 444.019 886.018 444.999 883.806V867.282H448.883V890H445.188L445.104 887.753ZM473.994 878.893C473.994 882.35 473.203 885.136 471.622 887.25C470.04 889.363 467.898 890.42 465.197 890.42C462.439 890.42 460.27 889.545 458.688 887.795V898.734H454.804V867.282H458.352L458.541 869.802C460.123 867.842 462.32 866.862 465.134 866.862C467.863 866.862 470.019 867.891 471.601 869.949C473.196 872.006 473.994 874.869 473.994 878.536V878.893ZM470.11 878.452C470.11 875.891 469.564 873.868 468.472 872.384C467.38 870.901 465.883 870.159 463.979 870.159C461.627 870.159 459.864 871.201 458.688 873.287V884.142C459.85 886.214 461.627 887.25 464.021 887.25C465.883 887.25 467.359 886.515 468.451 885.045C469.557 883.561 470.11 881.364 470.11 878.452ZM488.062 887.25C489.447 887.25 490.658 886.83 491.694 885.99C492.73 885.15 493.304 884.1 493.416 882.84H497.09C497.02 884.142 496.572 885.381 495.746 886.557C494.92 887.732 493.814 888.67 492.429 889.37C491.057 890.07 489.601 890.42 488.062 890.42C484.968 890.42 482.505 889.391 480.671 887.333C478.851 885.262 477.941 882.434 477.941 878.851V878.2C477.941 875.989 478.347 874.022 479.159 872.3C479.971 870.579 481.133 869.242 482.645 868.29C484.17 867.338 485.969 866.862 488.041 866.862C490.588 866.862 492.702 867.625 494.381 869.151C496.075 870.677 496.978 872.657 497.09 875.093H493.416C493.304 873.623 492.744 872.419 491.736 871.481C490.742 870.53 489.51 870.054 488.041 870.054C486.067 870.054 484.534 870.768 483.442 872.195C482.365 873.609 481.826 875.66 481.826 878.347V879.082C481.826 881.7 482.365 883.715 483.442 885.129C484.52 886.543 486.06 887.25 488.062 887.25ZM500.428 878.431C500.428 876.206 500.862 874.204 501.73 872.426C502.612 870.649 503.83 869.277 505.383 868.311C506.951 867.345 508.736 866.862 510.737 866.862C513.831 866.862 516.329 867.933 518.233 870.075C520.151 872.216 521.109 875.065 521.109 878.62V878.893C521.109 881.105 520.682 883.092 519.829 884.856C518.989 886.606 517.778 887.97 516.196 888.95C514.629 889.93 512.823 890.42 510.779 890.42C507.7 890.42 505.201 889.349 503.284 887.208C501.38 885.066 500.428 882.231 500.428 878.704V878.431ZM504.333 878.893C504.333 881.413 504.914 883.435 506.076 884.961C507.252 886.487 508.82 887.25 510.779 887.25C512.753 887.25 514.321 886.48 515.482 884.94C516.644 883.386 517.225 881.217 517.225 878.431C517.225 875.94 516.63 873.924 515.44 872.384C514.265 870.831 512.697 870.054 510.737 870.054C508.82 870.054 507.273 870.817 506.097 872.342C504.921 873.868 504.333 876.052 504.333 878.893ZM529.634 867.282L529.739 869.802C531.404 867.842 533.651 866.862 536.479 866.862C539.656 866.862 541.819 868.08 542.966 870.516C543.722 869.424 544.702 868.542 545.906 867.87C547.124 867.198 548.558 866.862 550.21 866.862C555.193 866.862 557.727 869.501 557.811 874.778V890H553.926V875.009C553.926 873.385 553.555 872.174 552.813 871.376C552.072 870.565 550.826 870.159 549.076 870.159C547.634 870.159 546.438 870.593 545.486 871.46C544.534 872.314 543.981 873.469 543.827 874.925V890H539.922V875.114C539.922 871.81 538.305 870.159 535.072 870.159C532.524 870.159 530.782 871.243 529.844 873.413V890H525.959V867.282H529.634ZM567.91 890H564.025V867.282H567.91V890ZM563.71 861.256C563.71 860.626 563.899 860.095 564.277 859.661C564.669 859.227 565.243 859.01 565.999 859.01C566.755 859.01 567.329 859.227 567.721 859.661C568.113 860.095 568.309 860.626 568.309 861.256C568.309 861.886 568.113 862.411 567.721 862.831C567.329 863.251 566.755 863.461 565.999 863.461C565.243 863.461 564.669 863.251 564.277 862.831C563.899 862.411 563.71 861.886 563.71 861.256ZM577.82 867.282L577.946 870.138C579.681 867.954 581.949 866.862 584.749 866.862C589.55 866.862 591.971 869.571 592.013 874.988V890H588.129V874.967C588.115 873.329 587.737 872.118 586.995 871.334C586.267 870.551 585.126 870.159 583.573 870.159C582.313 870.159 581.207 870.495 580.255 871.167C579.304 871.838 578.562 872.72 578.03 873.812V890H574.146V867.282H577.82ZM596.947 878.452C596.947 874.911 597.766 872.097 599.404 870.012C601.042 867.912 603.211 866.862 605.913 866.862C608.684 866.862 610.847 867.842 612.4 869.802L612.589 867.282H616.138V889.454C616.138 892.394 615.263 894.71 613.513 896.404C611.778 898.097 609.44 898.944 606.5 898.944C604.863 898.944 603.26 898.594 601.692 897.895C600.125 897.195 598.928 896.236 598.102 895.018L600.118 892.688C601.783 894.745 603.82 895.774 606.228 895.774C608.117 895.774 609.587 895.242 610.637 894.178C611.701 893.114 612.232 891.617 612.232 889.685V887.732C610.679 889.524 608.558 890.42 605.871 890.42C603.211 890.42 601.056 889.349 599.404 887.208C597.766 885.066 596.947 882.147 596.947 878.452ZM600.853 878.893C600.853 881.455 601.377 883.47 602.427 884.94C603.477 886.396 604.947 887.124 606.836 887.124C609.286 887.124 611.085 886.011 612.232 883.785V873.413C611.043 871.243 609.258 870.159 606.878 870.159C604.989 870.159 603.512 870.894 602.448 872.363C601.384 873.833 600.853 876.01 600.853 878.893Z" fill="white"/>
<path d="M383 116.5C383 85.6023 395.274 55.97 417.122 34.1221C438.97 12.2741 468.602 4.70558e-06 499.5 5.07403e-06C530.398 5.44249e-06 560.03 12.2741 581.878 34.1221C603.726 55.97 616 85.6023 616 116.5L592.247 116.5C592.247 91.9019 582.476 68.3114 565.082 50.9179C547.689 33.5245 524.098 23.753 499.5 23.753C474.902 23.753 451.311 33.5245 433.918 50.9179C416.524 68.3114 406.753 91.9019 406.753 116.5L383 116.5Z" fill="#333333"/>
<path d="M142.196 734.268H116.85V803H96.4911V734.268H71.6084V718.55H142.196V734.268ZM220.73 762.515C220.73 770.751 219.203 778.04 216.148 784.381C213.094 790.723 208.743 795.614 203.098 799.056C197.491 802.459 191.092 804.16 183.899 804.16C176.707 804.16 170.327 802.517 164.759 799.23C159.191 795.904 154.841 791.168 151.709 785.02C148.615 778.871 146.991 771.814 146.836 763.849V759.093C146.836 750.818 148.345 743.529 151.361 737.226C154.415 730.885 158.765 725.993 164.411 722.552C170.095 719.11 176.553 717.39 183.783 717.39C190.937 717.39 197.317 719.091 202.924 722.494C208.531 725.897 212.881 730.749 215.974 737.052C219.106 743.316 220.692 750.509 220.73 758.629V762.515ZM200.024 758.977C200.024 750.586 198.613 744.225 195.79 739.894C193.006 735.525 189.004 733.34 183.783 733.34C173.575 733.34 168.181 740.996 167.601 756.309L167.543 762.515C167.543 770.79 168.916 777.151 171.661 781.597C174.407 786.044 178.486 788.268 183.899 788.268C189.042 788.268 193.006 786.083 195.79 781.713C198.574 777.344 199.985 771.06 200.024 762.863V758.977ZM251.587 774.347V803H231.229V718.55H264.928C271.385 718.55 277.089 719.748 282.038 722.146C287.026 724.505 290.874 727.888 293.58 732.296C296.326 736.666 297.699 741.634 297.699 747.202C297.699 755.439 294.74 762.032 288.824 766.981C282.947 771.892 274.865 774.347 264.58 774.347H251.587ZM251.587 758.629H264.928C268.872 758.629 271.869 757.643 273.918 755.671C276.006 753.699 277.05 750.915 277.05 747.318C277.05 743.374 275.987 740.223 273.86 737.864C271.733 735.506 268.833 734.307 265.16 734.268H251.587V758.629Z" fill="white"/>
<path d="M72.3526 884.48V831.163H89.5269C94.2386 831.163 98.4742 832.237 102.234 834.386C105.993 836.51 108.923 839.525 111.022 843.431C113.146 847.312 114.22 851.67 114.245 856.504V858.957C114.245 863.84 113.207 868.222 111.132 872.103C109.081 875.96 106.176 878.988 102.417 881.185C98.6817 883.357 94.5071 884.456 89.8931 884.48H72.3526ZM85.2059 841.087V874.593H89.6734C93.3597 874.593 96.1916 873.287 98.169 870.675C100.146 868.039 101.135 864.133 101.135 858.957V856.65C101.135 851.499 100.146 847.617 98.169 845.005C96.1916 842.393 93.3109 841.087 89.5269 841.087H85.2059ZM153.903 861.887H133.689V874.593H157.565V884.48H120.836V831.163H157.638V841.087H133.689V852.329H153.903V861.887ZM193.085 874.52H175.472L172.396 884.48H158.664L178.218 831.163H190.302L210.003 884.48H196.198L193.085 874.52ZM178.548 864.596H190.009L184.26 846.104L178.548 864.596ZM226.775 874.593H249.149V884.48H213.922V831.163H226.775V874.593ZM282.07 870.309C282.07 868.429 281.398 866.964 280.056 865.915C278.737 864.865 276.406 863.779 273.061 862.656C269.717 861.533 266.983 860.446 264.859 859.396C257.95 856.003 254.495 851.34 254.495 845.408C254.495 842.454 255.35 839.854 257.059 837.608C258.792 835.338 261.233 833.58 264.383 832.335C267.532 831.066 271.072 830.431 275.002 830.431C278.835 830.431 282.265 831.114 285.292 832.482C288.344 833.849 290.712 835.802 292.396 838.341C294.081 840.855 294.923 843.736 294.923 846.983H282.106C282.106 844.81 281.435 843.125 280.092 841.929C278.774 840.733 276.98 840.135 274.709 840.135C272.414 840.135 270.596 840.648 269.253 841.673C267.935 842.674 267.275 843.955 267.275 845.518C267.275 846.885 268.008 848.13 269.473 849.253C270.937 850.352 273.513 851.499 277.199 852.695C280.886 853.867 283.913 855.136 286.281 856.504C292.042 859.824 294.923 864.401 294.923 870.236C294.923 874.899 293.165 878.56 289.65 881.221C286.134 883.882 281.313 885.213 275.185 885.213C270.864 885.213 266.946 884.444 263.431 882.906C259.939 881.343 257.303 879.22 255.521 876.534C253.763 873.824 252.884 870.712 252.884 867.196H265.774C265.774 870.053 266.506 872.164 267.971 873.531C269.46 874.874 271.865 875.545 275.185 875.545C277.309 875.545 278.981 875.094 280.202 874.191C281.447 873.263 282.07 871.969 282.07 870.309Z" fill="white"/>
<path d="M756.338 758.327C754.148 762.399 751.48 766.162 747.97 769.223C747.183 769.897 745.302 771.806 744.263 772.059C740.107 773.098 741.174 768.605 741.427 766.386C742.409 757.737 745.583 749.397 748.896 741.365C752.098 733.671 755.608 726.117 758.248 718.169C759.624 713.985 763.415 706.122 759.034 702.808C758.501 702.387 757.405 701.966 756.787 702.443C743.757 712.3 735.164 726.51 727.526 740.663C723.566 747.993 719.831 755.406 716.265 762.876C718.287 756.951 720.281 750.997 722.19 745.016C724.577 737.602 727.105 730.16 728.902 722.578C730.166 717.327 732.862 707.414 728.846 702.668C721.881 694.44 708.177 709.829 703.712 714.434C693.996 724.404 686.189 736.619 681.808 749.874C679.927 755.547 678.86 762.455 683.886 766.836C687.088 769.616 691.89 770.823 695.288 767.79C696.271 766.892 693.771 765.488 692.901 766.077C689.615 768.296 684.813 765.628 683.886 762.062C683.353 759.984 683.549 757.625 683.971 755.519C684.616 752.036 686.049 748.638 687.425 745.381C689.896 739.624 692.929 734.12 696.467 728.953C700.118 723.617 704.302 718.675 708.964 714.238C711.323 711.963 713.794 709.829 716.377 707.835C717.444 706.993 718.54 706.178 719.663 705.392C721.994 703.763 723.033 702.471 725.392 704.69C730.25 709.183 725.336 722.269 723.735 727.717C721.657 734.794 719.382 741.814 717.107 748.807C712.418 763.129 707.953 777.507 703.347 791.857C703.01 792.924 705.538 794.188 705.959 793.177C712.783 776.271 720.674 759.787 729.351 743.752C736.962 729.627 745.274 715.782 757.967 705.701C758.248 709.436 754.681 717.72 753.923 719.798C752.238 724.404 750.329 728.897 748.391 733.39C744.544 742.376 740.64 751.447 738.787 761.107C737.944 765.488 736.344 774.839 743.28 775.316C746.313 775.513 749.29 772.592 751.368 770.711C754.709 767.622 757.349 763.971 759.287 759.843C759.82 758.664 756.956 757.203 756.338 758.327ZM778.298 750.211C775.434 752.935 768.835 762.09 763.274 761.5C761.646 761.332 760.972 759.197 761.084 758.074C761.393 754.76 762.769 751.503 764.538 748.807C765.072 754.227 777.147 749.2 777.484 744.567C777.596 742.713 776.473 739.54 773.749 738.894C770.239 738.08 766.869 740.523 764.51 742.825C760.185 747.066 752.884 759.057 760.691 763.887C766.307 767.341 776.585 755.125 779.703 751.025C780.461 749.986 779.141 749.425 778.298 750.211ZM770.07 742.994C772.879 741.197 775.799 740.832 773.833 744.37C773.384 745.184 769.368 749.34 767.206 749.172C766.307 749.088 765.381 748.358 764.903 748.273C766.504 745.943 768.385 744.061 770.07 742.994ZM804.387 736.704C800.146 743.471 795.709 751.25 792.171 758.411C791.581 759.534 789.812 763.353 788.576 763.016C787.959 762.82 787.902 761.247 787.987 759.703C788.211 755.715 789.25 752.261 789.7 748.273C789.812 747.234 787.481 745.606 786.863 746.588C785.459 748.919 784.027 751.25 782.595 753.581C781.781 754.901 780.938 756.895 779.787 758.383C779.955 755.968 780.91 753.384 781.556 751.447C782.061 750.014 783.943 743.724 785.656 743.556C787.2 743.415 785.403 741.983 784.757 741.843C779.478 740.607 776.782 756.67 777.653 760.152C777.877 760.938 778.86 762.483 779.646 762.146C781.893 761.247 782.483 759.703 783.774 757.597C784.505 756.445 785.207 755.35 785.909 754.255C785.544 758.13 785.291 762.258 785.909 763.887C786.302 764.982 788.324 767.313 789.784 766.723C793.098 765.375 797.085 753.3 806.774 737.911C807.307 737.041 804.948 735.833 804.387 736.704ZM871.419 703.398C862.432 720.865 853.559 739.259 841.764 755.041C838.675 759.169 835.277 763.157 831.402 766.555C830.643 767.257 829.829 767.931 828.959 768.521C827.274 768.436 826.712 767.706 827.246 766.302C826.796 764.393 828.144 760.798 828.537 758.888C830.475 749.677 833.508 740.691 834.715 731.34C835.361 726.145 836.934 716.906 831.935 713.143C826.88 709.323 821.152 713.957 817.894 717.889C813.541 723.084 810.312 730.919 811.772 737.799C812.952 743.331 817.613 747.515 823.37 747.206C825.055 747.122 823.23 745.212 822.247 745.24C812.502 745.24 814.468 732.969 816.434 727.801C817.529 724.881 819.13 722.185 821.124 719.798C822.5 718.169 824.55 715.867 826.712 715.193C831.037 713.845 831.626 717.383 831.739 720.697C831.879 724.404 831.542 728.11 830.98 731.789C829.717 739.849 827.161 747.656 825.308 755.603C824.325 759.871 821.18 767.875 825.757 771.076C830.054 774.109 834.154 769.532 837.018 766.667C842.101 761.612 846.341 755.799 850.161 749.79C856.648 739.596 862.489 728.953 868.245 718.31C865.521 730.02 862.124 741.59 858.024 752.879C855.243 760.489 852.154 767.987 848.756 775.345C845.246 782.927 840.5 790.172 837.58 797.979C837.046 799.411 839.967 801.18 840.95 799.973C846.341 793.373 849.852 784.724 853.39 777.001C856.9 769.363 860.074 761.556 862.91 753.637C868.498 737.911 872.542 721.764 875.21 705.28C875.434 703.96 872.149 701.994 871.419 703.398ZM885.46 750.211C882.595 752.935 875.996 762.09 870.436 761.5C868.807 761.332 868.133 759.197 868.245 758.074C868.554 754.76 869.93 751.503 871.7 748.807C872.233 754.227 884.308 749.2 884.645 744.567C884.758 742.713 883.634 739.54 880.91 738.894C877.4 738.08 874.03 740.523 871.671 742.825C867.347 747.066 860.045 759.057 867.852 763.887C873.469 767.341 883.747 755.125 886.864 751.025C887.622 749.986 886.302 749.425 885.46 750.211ZM877.232 742.994C880.04 741.197 882.96 740.832 880.995 744.37C880.545 745.184 876.53 749.34 874.367 749.172C873.469 749.088 872.542 748.358 872.065 748.273C873.665 745.943 875.547 744.061 877.232 742.994ZM899.754 756.221C899.557 758.13 899.81 760.012 901.298 761.303C906.943 766.246 913.008 754.985 915.199 751.222C915.62 750.464 914.132 749.818 913.654 750.604C912.054 753.216 907.841 759.956 904.584 759.057C903.067 758.664 903.741 756.193 904.219 754.395C905.679 749.032 908.403 744.033 910.678 739.006C911.352 737.658 907.56 736.872 906.802 738.22C905.96 739.736 905.173 741.225 904.415 742.741C904.528 739.512 902.843 736.704 898.406 737.771C890.739 739.624 883.775 751.447 882.932 758.692C882.23 764.758 887.706 767.004 892.284 763.494C895.008 761.388 897.479 758.916 899.754 756.221ZM887.369 762.006C884.421 759.675 890.262 750.492 892.368 747.684C897.704 740.579 900.063 740.41 900.989 741.365C901.832 742.208 900.512 744.96 900.091 745.746C899.641 746.504 900.54 748.554 901.579 748.638C901.13 749.312 900.68 749.958 900.175 750.66C898.293 753.272 890.711 764.589 887.369 762.006ZM933.593 737.967C923.539 735.889 919.692 744.426 916.013 752.458C917.333 747.15 919.383 742.067 920.928 737.967C921.265 737.012 918.26 737.714 917.726 738.557C917.726 738.557 910.509 753.862 910.846 762.09C910.902 763.353 913.795 764.393 914.581 763.382C920.562 755.968 922.023 739.568 934.098 739.568C935.755 739.568 934.491 738.136 933.593 737.967Z" fill="white"/>
<path d="M725.31 856.842C725.31 854.128 724.341 852.014 722.402 850.499C720.499 848.983 717.134 847.415 712.306 845.794C707.478 844.173 703.531 842.605 700.465 841.089C690.492 836.191 685.506 829.46 685.506 820.897C685.506 816.633 686.739 812.88 689.206 809.637C691.708 806.36 695.232 803.823 699.778 802.026C704.324 800.193 709.434 799.277 715.108 799.277C720.64 799.277 725.592 800.263 729.961 802.237C734.367 804.21 737.785 807.03 740.216 810.695C742.648 814.324 743.864 818.483 743.864 823.17H725.363C725.363 820.033 724.393 817.602 722.455 815.875C720.552 814.148 717.962 813.285 714.685 813.285C711.372 813.285 708.747 814.025 706.809 815.505C704.906 816.95 703.954 818.8 703.954 821.055C703.954 823.029 705.011 824.826 707.126 826.447C709.24 828.033 712.958 829.689 718.279 831.416C723.601 833.107 727.97 834.94 731.389 836.913C739.705 841.706 743.864 848.314 743.864 856.736C743.864 863.467 741.326 868.753 736.252 872.594C731.177 876.435 724.217 878.356 715.372 878.356C709.134 878.356 703.478 877.246 698.404 875.026C693.364 872.77 689.558 869.705 686.986 865.828C684.449 861.916 683.18 857.423 683.18 852.349H701.787C701.787 856.472 702.844 859.52 704.958 861.494C707.108 863.432 710.579 864.401 715.372 864.401C718.438 864.401 720.852 863.749 722.614 862.445C724.411 861.106 725.31 859.238 725.31 856.842ZM797.094 862.921H771.668L767.228 877.299H747.405L775.633 800.334H793.077L821.516 877.299H801.587L797.094 862.921ZM776.109 848.596H792.654L784.355 821.901L776.109 848.596ZM845.726 863.026H878.024V877.299H827.172V800.334H845.726V863.026ZM933.58 844.684H904.401V863.026H938.866V877.299H885.847V800.334H938.972V814.659H904.401V830.887H933.58V844.684Z" fill="white"/>
<path d="M498.098 745.854C498.697 744.011 501.303 744.011 501.902 745.854L510.777 773.167C511.044 773.991 511.812 774.549 512.679 774.549H541.397C543.335 774.549 544.14 777.028 542.573 778.167L519.339 795.048C518.638 795.557 518.345 796.46 518.613 797.284L527.487 824.597C528.086 826.439 525.977 827.972 524.409 826.833L501.176 809.952C500.475 809.443 499.525 809.443 498.824 809.952L475.591 826.833C474.023 827.972 471.914 826.439 472.513 824.597L481.387 797.284C481.655 796.46 481.362 795.557 480.661 795.048L457.427 778.167C455.86 777.028 456.665 774.549 458.603 774.549H487.321C488.188 774.549 488.956 773.991 489.223 773.167L498.098 745.854Z" fill="white"/>
</g>
<defs>
<clipPath id="clip0_270:184">
<rect width="1000" height="1000" fill="white"/>
</clipPath>
</defs>
</svg>
