<svg width="1000" height="1000" viewBox="0 0 1000 1000" fill="none" xmlns="http://www.w3.org/2000/svg">
<rect x="202" width="599" height="1000" fill="#333333"/>
<rect x="227" y="24" width="549" height="234" stroke="white" stroke-width="4"/>
<rect x="238" y="437" width="527" height="527" rx="7" fill="white"/>
<path d="M616.57 485.498H716.593V585.521" stroke="#C2C2C2" stroke-width="20.0045"/>
<path d="M386.516 485.498H286.493V585.521" stroke="#C2C2C2" stroke-width="20.0045"/>
<path d="M616.57 915.594H716.593V815.571" stroke="#C2C2C2" stroke-width="20.0045"/>
<path d="M386.516 915.594H286.493V815.571" stroke="#C2C2C2" stroke-width="20.0045"/>
<path d="M382.639 660.179L374.361 636.089L365.564 660.179H382.639ZM370.501 627.997H378.853L398.636 682.523H390.545L385.014 666.192H363.449L357.547 682.523H349.975L370.501 627.997ZM408.695 663.111C408.695 667.367 409.598 670.93 411.405 673.801C413.211 676.671 416.106 678.106 420.09 678.106C423.184 678.106 425.72 676.783 427.7 674.135C429.704 671.462 430.706 667.639 430.706 662.665C430.706 657.642 429.679 653.93 427.625 651.53C425.571 649.105 423.035 647.893 420.016 647.893C416.651 647.893 413.916 649.179 411.813 651.753C409.735 654.326 408.695 658.112 408.695 663.111ZM418.754 642.065C421.798 642.065 424.347 642.708 426.4 643.995C427.588 644.738 428.937 646.037 430.446 647.893V627.812H436.868V682.523H430.855V676.993C429.296 679.443 427.452 681.212 425.324 682.301C423.196 683.39 420.759 683.934 418.012 683.934C413.582 683.934 409.747 682.078 406.505 678.366C403.264 674.63 401.643 669.668 401.643 663.482C401.643 657.692 403.115 652.681 406.06 648.449C409.029 644.193 413.261 642.065 418.754 642.065ZM451.01 663.111C451.01 667.367 451.913 670.93 453.719 673.801C455.526 676.671 458.421 678.106 462.405 678.106C465.498 678.106 468.034 676.783 470.014 674.135C472.018 671.462 473.02 667.639 473.02 662.665C473.02 657.642 471.993 653.93 469.94 651.53C467.886 649.105 465.349 647.893 462.33 647.893C458.965 647.893 456.231 649.179 454.127 651.753C452.049 654.326 451.01 658.112 451.01 663.111ZM461.068 642.065C464.112 642.065 466.661 642.708 468.715 643.995C469.902 644.738 471.251 646.037 472.761 647.893V627.812H479.182V682.523H473.169V676.993C471.61 679.443 469.766 681.212 467.638 682.301C465.51 683.39 463.073 683.934 460.326 683.934C455.897 683.934 452.061 682.078 448.82 678.366C445.578 674.63 443.957 669.668 443.957 663.482C443.957 657.692 445.429 652.681 448.374 648.449C451.344 644.193 455.575 642.065 461.068 642.065ZM535.081 642.77H542.468C541.527 645.319 539.436 651.134 536.195 660.216C533.77 667.045 531.741 672.613 530.107 676.919C526.247 687.064 523.525 693.25 521.942 695.478C520.358 697.705 517.636 698.818 513.776 698.818C512.835 698.818 512.105 698.781 511.586 698.707C511.091 698.633 510.472 698.496 509.73 698.298V692.211C510.893 692.533 511.734 692.731 512.254 692.805C512.773 692.879 513.231 692.916 513.627 692.916C514.864 692.916 515.768 692.706 516.337 692.285C516.931 691.889 517.426 691.395 517.821 690.801C517.945 690.603 518.391 689.588 519.158 687.757C519.925 685.926 520.482 684.565 520.828 683.674L506.129 642.77H513.701L524.354 675.137L535.081 642.77ZM564.033 678.218C568.463 678.218 571.494 676.547 573.127 673.207C574.785 669.842 575.614 666.105 575.614 661.997C575.614 658.286 575.02 655.267 573.832 652.941C571.952 649.278 568.71 647.447 564.107 647.447C560.024 647.447 557.055 649.006 555.199 652.124C553.343 655.242 552.415 659.003 552.415 663.408C552.415 667.639 553.343 671.165 555.199 673.986C557.055 676.807 560 678.218 564.033 678.218ZM564.293 641.62C569.415 641.62 573.746 643.327 577.284 646.742C580.823 650.157 582.592 655.18 582.592 661.812C582.592 668.221 581.033 673.516 577.915 677.698C574.797 681.88 569.96 683.971 563.402 683.971C557.933 683.971 553.591 682.128 550.374 678.44C547.157 674.729 545.548 669.755 545.548 663.519C545.548 656.838 547.244 651.518 550.634 647.558C554.024 643.599 558.577 641.62 564.293 641.62ZM597.254 642.77V669.161C597.254 671.19 597.575 672.848 598.219 674.135C599.406 676.51 601.621 677.698 604.863 677.698C609.515 677.698 612.682 675.62 614.365 671.462C615.28 669.235 615.738 666.179 615.738 662.294V642.77H622.419V682.523H616.109L616.184 676.659C615.317 678.168 614.241 679.443 612.954 680.482C610.406 682.561 607.312 683.6 603.675 683.6C598.008 683.6 594.148 681.707 592.094 677.921C590.981 675.892 590.424 673.182 590.424 669.792V642.77H597.254ZM633.072 642.77H639.419V649.637C639.939 648.301 641.213 646.68 643.242 644.775C645.272 642.845 647.61 641.879 650.258 641.879C650.381 641.879 650.592 641.892 650.889 641.917C651.186 641.941 651.693 641.991 652.411 642.065V649.117C652.015 649.043 651.643 648.994 651.297 648.969C650.975 648.944 650.616 648.932 650.221 648.932C646.855 648.932 644.269 650.021 642.463 652.198C640.657 654.351 639.753 656.838 639.753 659.659V682.523H633.072V642.77Z" fill="#C2C2C2"/>
<path d="M383.31 772.617C380.86 773.434 377.927 773.842 374.513 773.842C367.386 773.842 361.497 771.714 356.845 767.458C351.203 762.336 348.382 754.813 348.382 744.89C348.382 734.893 351.277 727.334 357.067 722.211C361.794 718.029 367.671 715.938 374.698 715.938C381.775 715.938 387.714 718.153 392.515 722.583C398.058 727.705 400.829 734.868 400.829 744.074C400.829 748.948 400.235 753.031 399.048 756.323C398.082 759.465 396.66 762.076 394.779 764.154L401.089 770.056L395.113 776.292L388.506 770.056C386.502 771.269 384.77 772.122 383.31 772.617ZM380.86 762.744L375.329 757.473L381.231 751.312L386.762 756.582C387.628 754.801 388.234 753.242 388.58 751.906C389.125 749.901 389.397 747.563 389.397 744.89C389.397 738.753 388.135 734.015 385.611 730.674C383.112 727.309 379.449 725.626 374.624 725.626C370.096 725.626 366.483 727.235 363.786 730.451C361.088 733.668 359.74 738.481 359.74 744.89C359.74 752.388 361.67 757.758 365.53 760.999C368.029 763.103 371.024 764.154 374.513 764.154C375.824 764.154 377.086 763.994 378.299 763.672C378.967 763.499 379.821 763.189 380.86 762.744ZM432.825 750.866H421.021V772.32H409.849V717.609H436.685C440.52 717.683 443.465 718.153 445.519 719.019C447.598 719.885 449.354 721.16 450.79 722.842C451.977 724.228 452.918 725.762 453.611 727.445C454.303 729.128 454.65 731.045 454.65 733.198C454.65 735.796 453.994 738.358 452.683 740.882C451.371 743.381 449.206 745.15 446.187 746.189C448.711 747.204 450.493 748.652 451.532 750.532C452.596 752.388 453.128 755.234 453.128 759.069V762.744C453.128 765.243 453.227 766.938 453.425 767.829C453.722 769.24 454.415 770.279 455.504 770.947V772.32H442.921C442.574 771.108 442.327 770.13 442.178 769.388C441.881 767.854 441.721 766.282 441.696 764.674L441.622 759.589C441.572 756.1 440.929 753.774 439.691 752.611C438.479 751.448 436.19 750.866 432.825 750.866ZM439.766 740.919C442.042 739.879 443.181 737.826 443.181 734.757C443.181 731.441 442.079 729.214 439.877 728.076C438.64 727.433 436.784 727.111 434.309 727.111H421.021V741.81H433.975C436.549 741.81 438.479 741.513 439.766 740.919ZM519.829 746.375H508.99C508.792 744.866 508.285 743.505 507.469 742.292C506.281 740.659 504.437 739.842 501.938 739.842C498.375 739.842 495.937 741.612 494.626 745.15C493.933 747.031 493.586 749.53 493.586 752.648C493.586 755.617 493.933 758.005 494.626 759.812C495.888 763.177 498.263 764.86 501.752 764.86C504.227 764.86 505.984 764.192 507.023 762.855C508.062 761.519 508.693 759.787 508.916 757.659H519.717C519.47 760.876 518.307 763.919 516.228 766.79C512.912 771.417 508.001 773.731 501.493 773.731C494.985 773.731 490.196 771.801 487.128 767.94C484.06 764.08 482.525 759.069 482.525 752.908C482.525 745.954 484.22 740.548 487.61 736.687C491.001 732.827 495.677 730.897 501.641 730.897C506.714 730.897 510.859 732.035 514.075 734.312C517.317 736.588 519.235 740.609 519.829 746.375ZM560.881 736.984C564.296 741.265 566.003 746.326 566.003 752.165C566.003 758.104 564.296 763.189 560.881 767.421C557.466 771.627 552.282 773.731 545.329 773.731C538.375 773.731 533.191 771.627 529.776 767.421C526.361 763.189 524.654 758.104 524.654 752.165C524.654 746.326 526.361 741.265 529.776 736.984C533.191 732.703 538.375 730.563 545.329 730.563C552.282 730.563 557.466 732.703 560.881 736.984ZM545.292 739.508C542.198 739.508 539.81 740.609 538.128 742.812C536.47 744.989 535.641 748.107 535.641 752.165C535.641 756.224 536.47 759.354 538.128 761.556C539.81 763.758 542.198 764.86 545.292 764.86C548.385 764.86 550.76 763.758 552.418 761.556C554.076 759.354 554.905 756.224 554.905 752.165C554.905 748.107 554.076 744.989 552.418 742.812C550.76 740.609 548.385 739.508 545.292 739.508ZM610.433 717.683V772.32H600.152V766.716C598.642 769.116 596.922 770.86 594.992 771.949C593.062 773.038 590.662 773.582 587.791 773.582C583.065 773.582 579.081 771.677 575.839 767.866C572.623 764.031 571.014 759.119 571.014 753.13C571.014 746.227 572.598 740.795 575.765 736.836C578.957 732.876 583.213 730.897 588.534 730.897C590.983 730.897 593.161 731.441 595.066 732.53C596.972 733.594 598.518 735.079 599.706 736.984V717.683H610.433ZM581.927 752.351C581.927 756.087 582.669 759.069 584.154 761.296C585.614 763.548 587.841 764.674 590.835 764.674C593.829 764.674 596.106 763.561 597.665 761.333C599.224 759.106 600.003 756.224 600.003 752.685C600.003 747.736 598.753 744.197 596.254 742.069C594.72 740.783 592.938 740.139 590.909 740.139C587.816 740.139 585.54 741.315 584.08 743.665C582.644 745.991 581.927 748.887 581.927 752.351ZM654.715 760.443C654.442 762.843 653.193 765.28 650.966 767.755C647.501 771.689 642.651 773.657 636.416 773.657C631.269 773.657 626.728 771.999 622.793 768.683C618.859 765.367 616.892 759.972 616.892 752.499C616.892 745.497 618.661 740.127 622.2 736.39C625.763 732.654 630.378 730.786 636.044 730.786C639.41 730.786 642.441 731.417 645.138 732.679C647.836 733.941 650.063 735.933 651.82 738.654C653.403 741.055 654.43 743.839 654.9 747.006C655.172 748.862 655.284 751.534 655.234 755.023H627.544C627.693 759.082 628.967 761.927 631.368 763.561C632.828 764.575 634.584 765.082 636.638 765.082C638.816 765.082 640.585 764.464 641.946 763.226C642.689 762.558 643.344 761.63 643.913 760.443H654.715ZM644.247 748.045C644.074 745.249 643.221 743.133 641.686 741.698C640.177 740.238 638.296 739.508 636.044 739.508C633.595 739.508 631.689 740.275 630.328 741.81C628.992 743.344 628.151 745.422 627.804 748.045H644.247Z" fill="#C2C2C2"/>
<rect x="157.875" y="257.727" width="684.248" height="120.959" fill="#333333" stroke="white" stroke-width="4"/>
<path d="M77.0859 257.727H73.3481L75.422 260.836L113.684 318.206L75.422 375.575L73.3481 378.685H77.0859H159.875H161.875V376.685V259.727V257.727H159.875H77.0859Z" fill="#333333" stroke="white" stroke-width="4"/>
<path d="M927.309 257.727H931.046L928.972 260.836L890.711 318.206L928.972 375.575L931.046 378.685H927.309H844.52H842.52V376.685V259.727V257.727H844.52H927.309Z" fill="#333333" stroke="white" stroke-width="4"/>
<path d="M301.39 319.58H279.193V336.209H305.139V343.707H269.803V289.664H304.879V297.236H279.193V312.157H301.39V319.58ZM349.117 331.124H328.183L323.803 343.707H314.041L334.456 289.664H342.882L363.334 343.707H353.534L349.117 331.124ZM330.818 323.552H346.482L338.65 301.133L330.818 323.552ZM395.434 322.884H384.967V343.707H375.576V289.664H394.581C400.817 289.664 405.629 291.062 409.02 293.858C412.41 296.654 414.105 300.7 414.105 305.995C414.105 309.608 413.226 312.639 411.469 315.089C409.737 317.514 407.312 319.383 404.194 320.694L416.332 343.225V343.707H406.273L395.434 322.884ZM384.967 315.349H394.618C397.785 315.349 400.26 314.557 402.041 312.974C403.823 311.365 404.714 309.175 404.714 306.404C404.714 303.508 403.885 301.269 402.227 299.685C400.594 298.102 398.144 297.285 394.878 297.236H384.967V315.349ZM438.485 336.209H463.02V343.707H429.094V289.664H438.485V336.209ZM483.54 315.275L495.975 289.664H506.368L488.254 323.812V343.707H478.826V323.812L460.676 289.664H471.106L483.54 315.275ZM571.572 329.788C571.572 327.412 570.73 325.581 569.048 324.294C567.39 323.008 564.383 321.709 560.028 320.397C555.673 319.086 552.208 317.626 549.635 316.017C544.711 312.924 542.249 308.891 542.249 303.917C542.249 299.562 544.018 295.974 547.556 293.153C551.12 290.332 555.735 288.921 561.401 288.921C565.163 288.921 568.516 289.614 571.46 291C574.405 292.386 576.719 294.365 578.401 296.939C580.084 299.487 580.925 302.321 580.925 305.439H571.572C571.572 302.618 570.681 300.415 568.899 298.832C567.142 297.223 564.618 296.419 561.327 296.419C558.259 296.419 555.871 297.075 554.163 298.386C552.481 299.698 551.639 301.529 551.639 303.88C551.639 305.859 552.555 307.517 554.386 308.853C556.217 310.165 559.236 311.452 563.443 312.714C567.649 313.951 571.027 315.374 573.576 316.982C576.125 318.566 577.993 320.397 579.181 322.476C580.369 324.53 580.962 326.942 580.962 329.714C580.962 334.217 579.23 337.805 575.766 340.478C572.326 343.126 567.649 344.449 561.735 344.449C557.826 344.449 554.225 343.732 550.934 342.297C547.668 340.837 545.119 338.832 543.288 336.283C541.481 333.735 540.578 330.765 540.578 327.375H549.969C549.969 330.444 550.984 332.819 553.013 334.502C555.042 336.184 557.949 337.026 561.735 337.026C565.002 337.026 567.452 336.37 569.085 335.059C570.743 333.722 571.572 331.965 571.572 329.788ZM625.535 331.124H604.601L600.221 343.707H590.459L610.873 289.664H619.299L639.751 343.707H629.952L625.535 331.124ZM607.236 323.552H622.9L615.068 301.133L607.236 323.552ZM661.385 336.209H685.92V343.707H651.994V289.664H661.385V336.209ZM730.789 319.58H708.593V336.209H734.538V343.707H699.202V289.664H734.278V297.236H708.593V312.157H730.789V319.58Z" fill="white"/>
<path d="M397.2 169.737C393.937 175.803 389.963 181.408 384.734 185.967C383.563 186.971 380.76 189.816 379.213 190.192C373.022 191.74 374.611 185.047 374.988 181.743C376.452 168.859 381.179 156.435 386.115 144.472C390.883 133.011 396.112 121.758 400.044 109.921C402.094 103.688 407.741 91.9756 401.215 87.0396C400.42 86.4122 398.789 85.7847 397.869 86.4958C378.46 101.178 365.66 122.344 354.282 143.426C348.384 154.344 342.821 165.387 337.508 176.514C340.52 167.688 343.49 158.82 346.334 149.91C349.89 138.867 353.655 127.782 356.332 116.488C358.214 108.666 362.23 93.8997 356.248 86.8305C345.874 74.5743 325.461 97.4971 318.81 104.357C304.337 119.207 292.708 137.403 286.183 157.147C283.38 165.596 281.791 175.886 289.278 182.412C294.047 186.553 301.2 188.352 306.261 183.834C307.725 182.496 304.003 180.404 302.706 181.282C297.812 184.587 290.659 180.613 289.278 175.301C288.484 172.205 288.776 168.692 289.404 165.554C290.366 160.367 292.499 155.306 294.549 150.454C298.23 141.879 302.748 133.68 308.018 125.983C313.456 118.036 319.689 110.674 326.633 104.064C330.146 100.676 333.827 97.4971 337.676 94.5272C339.265 93.2723 340.897 92.0592 342.57 90.888C346.042 88.4618 347.589 86.5377 351.103 89.8422C358.34 96.535 351.019 116.028 348.635 124.143C345.54 134.684 342.151 145.141 338.763 155.557C331.778 176.89 325.127 198.307 318.267 219.682C317.765 221.272 321.529 223.154 322.157 221.648C332.321 196.467 344.076 171.913 357.001 148.028C368.337 126.987 380.719 106.365 399.626 91.3481C400.044 96.9115 394.732 109.251 393.602 112.347C391.092 119.207 388.248 125.9 385.362 132.592C379.631 145.978 373.817 159.489 371.056 173.879C369.801 180.404 367.417 194.333 377.749 195.044C382.266 195.337 386.7 190.987 389.796 188.184C394.773 183.583 398.705 178.145 401.592 171.996C402.387 170.239 398.12 168.064 397.2 169.737ZM429.911 157.649C425.644 161.706 415.814 175.343 407.532 174.464C405.105 174.213 404.102 171.034 404.269 169.361C404.729 164.425 406.779 159.573 409.414 155.557C410.209 163.63 428.196 156.143 428.698 149.241C428.865 146.48 427.192 141.753 423.134 140.791C417.905 139.578 412.886 143.217 409.372 146.647C402.93 152.964 392.055 170.825 403.683 178.02C412.049 183.165 427.359 164.969 432.002 158.862C433.131 157.314 431.165 156.477 429.911 157.649ZM417.654 146.898C421.837 144.221 426.188 143.677 423.26 148.948C422.59 150.161 416.609 156.352 413.388 156.101C412.049 155.975 410.669 154.888 409.958 154.762C412.342 151.29 415.145 148.488 417.654 146.898ZM468.771 137.528C462.454 147.609 455.845 159.196 450.575 169.863C449.696 171.536 447.061 177.225 445.22 176.723C444.3 176.43 444.216 174.088 444.342 171.787C444.677 165.847 446.224 160.702 446.894 154.762C447.061 153.215 443.589 150.788 442.669 152.252C440.577 155.724 438.444 159.196 436.311 162.668C435.097 164.634 433.843 167.604 432.128 169.821C432.379 166.224 433.801 162.375 434.763 159.489C435.516 157.356 438.318 147.986 440.87 147.735C443.171 147.526 440.494 145.392 439.531 145.183C431.667 143.343 427.652 167.269 428.948 172.456C429.283 173.628 430.747 175.928 431.918 175.426C435.265 174.088 436.143 171.787 438.067 168.65C439.155 166.935 440.201 165.303 441.246 163.672C440.703 169.445 440.326 175.594 441.246 178.02C441.832 179.651 444.844 183.123 447.019 182.245C451.955 180.237 457.895 162.25 472.326 139.327C473.121 138.03 469.607 136.232 468.771 137.528ZM568.619 87.9181C555.233 113.936 542.015 141.335 524.446 164.843C519.845 170.992 514.783 176.932 509.011 181.994C507.882 183.039 506.668 184.043 505.372 184.922C502.862 184.796 502.025 183.709 502.82 181.617C502.151 178.773 504.159 173.418 504.744 170.574C507.631 156.854 512.148 143.468 513.947 129.539C514.909 121.8 517.251 108.038 509.806 102.433C502.276 96.7442 493.743 103.646 488.891 109.502C482.407 117.241 477.597 128.911 479.772 139.16C481.529 147.4 488.472 153.633 497.048 153.173C499.557 153.047 496.838 150.203 495.374 150.245C480.859 150.245 483.788 131.965 486.716 124.268C488.347 119.918 490.731 115.902 493.701 112.347C495.751 109.921 498.804 106.491 502.025 105.487C508.467 103.479 509.346 108.749 509.513 113.685C509.722 119.207 509.22 124.728 508.384 130.208C506.501 142.213 502.695 153.842 499.934 165.68C498.47 172.038 493.785 183.96 500.603 188.728C507.003 193.246 513.11 186.428 517.377 182.161C524.948 174.631 531.264 165.973 536.953 157.021C546.616 141.837 555.317 125.983 563.892 110.13C559.834 127.573 554.773 144.807 548.666 161.622C544.525 172.958 539.923 184.127 534.862 195.086C529.633 206.38 522.564 217.173 518.214 228.801C517.419 230.935 521.769 233.57 523.233 231.771C531.264 221.941 536.493 209.058 541.764 197.554C546.993 186.177 551.719 174.548 555.944 162.752C564.268 139.327 570.292 115.275 574.266 90.7207C574.6 88.7547 569.706 85.8266 568.619 87.9181ZM589.534 157.649C585.267 161.706 575.437 175.343 567.155 174.464C564.728 174.213 563.724 171.034 563.892 169.361C564.352 164.425 566.402 159.573 569.037 155.557C569.832 163.63 587.819 156.143 588.32 149.241C588.488 146.48 586.815 141.753 582.757 140.791C577.528 139.578 572.509 143.217 568.995 146.647C562.553 152.964 551.677 170.825 563.306 178.02C571.672 183.165 586.982 164.969 591.625 158.862C592.754 157.314 590.788 156.477 589.534 157.649ZM577.277 146.898C581.46 144.221 585.811 143.677 582.883 148.948C582.213 150.161 576.232 156.352 573.011 156.101C571.672 155.975 570.292 154.888 569.581 154.762C571.965 151.29 574.768 148.488 577.277 146.898ZM610.825 166.6C610.532 169.445 610.909 172.247 613.126 174.171C621.533 181.533 630.569 164.76 633.831 159.154C634.459 158.025 632.242 157.063 631.531 158.234C629.146 162.124 622.872 172.164 618.02 170.825C615.761 170.239 616.765 166.558 617.476 163.881C619.651 155.892 623.709 148.446 627.097 140.958C628.101 138.951 622.454 137.779 621.324 139.787C620.069 142.046 618.898 144.263 617.769 146.522C617.936 141.711 615.426 137.528 608.817 139.118C597.398 141.879 587.024 159.489 585.769 170.281C584.723 179.316 592.88 182.663 599.698 177.434C603.756 174.297 607.437 170.616 610.825 166.6ZM592.378 175.217C587.986 171.745 596.686 158.067 599.824 153.884C607.771 143.301 611.285 143.05 612.666 144.472C613.92 145.727 611.954 149.826 611.327 150.998C610.658 152.127 611.996 155.181 613.544 155.306C612.875 156.31 612.205 157.272 611.452 158.318C608.65 162.208 597.356 179.065 592.378 175.217ZM661.23 139.411C646.255 136.315 640.524 149.032 635.045 160.995C637.011 153.089 640.064 145.518 642.365 139.411C642.867 137.988 638.391 139.034 637.596 140.289C637.596 140.289 626.846 163.086 627.348 175.343C627.431 177.225 631.74 178.773 632.911 177.267C641.821 166.224 643.996 141.795 661.983 141.795C664.451 141.795 662.569 139.662 661.23 139.411ZM675.696 144.776C674.953 147.745 673.868 151.086 672.44 154.799C671.07 158.454 669.699 161.795 668.328 164.822H662.76C663.331 162.652 663.874 160.339 664.388 157.883C664.959 155.37 665.473 152.914 665.93 150.515C666.387 148.06 666.758 145.832 667.043 143.833H675.096L675.696 144.776ZM716.78 157.607C710.129 154.804 698.124 158.778 691.306 163.379C687.541 159.656 682.396 155.892 682.438 150.035C682.48 145.309 685.91 141 689.716 138.616C692.226 137.068 700.09 133.053 703.395 134.851C707.285 136.943 703.646 144.179 700.843 147.191C699.63 148.488 701.68 152.001 702.767 151.039C708.456 145.852 713.643 134.809 703.478 131.63C693.732 128.535 679.217 135.353 677.084 145.685C675.578 153.089 682.856 159.573 688.127 165.764C683.735 169.152 680.012 172.916 677.711 176.974C672.942 185.465 681.267 191.489 689.256 187.724C699.714 182.83 699.714 174.171 694.108 166.642C700.174 161.455 710.338 157.272 716.696 159.698C718.119 158.862 717.868 157.147 716.78 157.607ZM687.206 183.416C685.826 184.294 681.852 186.26 680.806 183.541C680.304 182.119 682.689 178.103 683.567 176.848C685.617 174.004 688.168 171.62 690.846 169.319C694.025 174.088 694.568 178.689 687.206 183.416Z" fill="white"/>
</svg>
