<svg width="1000" height="1000" viewBox="0 0 1000 1000" fill="none" xmlns="http://www.w3.org/2000/svg">
<mask id="path-1-inside-1_271:446" fill="white">
<rect x="136" y="30" width="727" height="729" rx="25"/>
</mask>
<rect x="136" y="30" width="727" height="729" rx="25" stroke="#333333" stroke-width="68" mask="url(#path-1-inside-1_271:446)"/>
<rect x="149" y="808" width="701" height="169" rx="1" stroke="#333333" stroke-width="19" stroke-linecap="round" stroke-dasharray="0.1 23"/>
<path d="M269.456 918H256.844L238.198 885.261V918H225.514V865.386H238.198L256.808 898.125V865.386H269.456V918ZM310.109 895.704H290.162V908.243H313.723V918H277.478V865.386H313.795V875.179H290.162V886.272H310.109V895.704ZM359.652 898.378L365.686 865.386H378.262L367.096 918H353.942L346.896 888.007L339.994 918H326.876L315.674 865.386H328.285L334.32 898.378L341.547 865.386H352.316L359.652 898.378ZM420.903 888.224L430.587 865.386H444.283L427.335 899.101V918H414.47V899.101L397.559 865.386H411.182L420.903 888.224ZM480.744 895.704H460.797V908.243H484.358V918H448.113V865.386H484.43V875.179H460.797V886.272H480.744V895.704ZM519.41 908.171H502.028L498.993 918H485.442L504.739 865.386H516.664L536.105 918H522.482L519.41 908.171ZM505.064 898.378H516.374L510.701 880.129L505.064 898.378ZM559.521 899.426H552.655V918H539.971V865.386H560.677C566.917 865.386 571.795 866.771 575.313 869.541C578.83 872.312 580.589 876.227 580.589 881.286C580.589 884.947 579.842 887.983 578.348 890.392C576.879 892.801 574.566 894.752 571.41 896.246L582.395 917.458V918H568.808L559.521 899.426ZM552.655 889.633H560.677C563.087 889.633 564.893 889.007 566.098 887.754C567.327 886.477 567.941 884.707 567.941 882.442C567.941 880.177 567.327 878.407 566.098 877.13C564.869 875.829 563.062 875.179 560.677 875.179H552.655V889.633ZM633.817 904.015C633.817 902.16 633.155 900.715 631.83 899.679C630.529 898.643 628.228 897.571 624.928 896.463C621.627 895.355 618.929 894.283 616.833 893.247C610.015 889.898 606.607 885.297 606.607 879.443C606.607 876.528 607.45 873.962 609.136 871.746C610.847 869.505 613.256 867.771 616.363 866.542C619.471 865.289 622.964 864.663 626.843 864.663C630.625 864.663 634.01 865.337 636.997 866.687C640.009 868.036 642.345 869.963 644.008 872.468C645.67 874.95 646.501 877.792 646.501 880.997H633.853C633.853 878.852 633.191 877.19 631.866 876.01C630.565 874.829 628.794 874.239 626.554 874.239C624.289 874.239 622.495 874.745 621.17 875.757C619.869 876.744 619.218 878.009 619.218 879.551C619.218 880.9 619.941 882.129 621.386 883.237C622.832 884.321 625.373 885.453 629.011 886.634C632.649 887.79 635.636 889.043 637.973 890.392C643.658 893.668 646.501 898.185 646.501 903.943C646.501 908.544 644.766 912.158 641.297 914.784C637.828 917.41 633.07 918.723 627.024 918.723C622.76 918.723 618.893 917.964 615.424 916.446C611.979 914.904 609.377 912.808 607.618 910.158C605.884 907.484 605.017 904.413 605.017 900.944H617.737C617.737 903.762 618.459 905.846 619.905 907.195C621.374 908.52 623.747 909.183 627.024 909.183C629.119 909.183 630.77 908.737 631.974 907.846C633.203 906.93 633.817 905.653 633.817 904.015ZM682.89 908.171H665.509L662.473 918H648.922L668.219 865.386H680.144L699.585 918H685.962L682.89 908.171ZM668.544 898.378H679.855L674.181 880.129L668.544 898.378ZM716.135 908.243H738.215V918H703.452V865.386H716.135V908.243ZM776.194 895.704H756.247V908.243H779.807V918H743.563V865.386H779.88V875.179H756.247V886.272H776.194V895.704Z" fill="black"/>
<rect x="250" y="144" width="500" height="500" rx="10.9555" fill="white"/>
<path d="M609.648 190.076H704.673V285.101" stroke="#C2C2C2" stroke-width="19.005"/>
<path d="M391.09 190.076H296.065V285.101" stroke="#C2C2C2" stroke-width="19.005"/>
<path d="M609.648 598.684H704.673V503.659" stroke="#C2C2C2" stroke-width="19.005"/>
<path d="M391.09 598.684H296.065V503.659" stroke="#C2C2C2" stroke-width="19.005"/>
<path d="M387.064 354.838L379.2 331.952L370.843 354.838H387.064ZM375.533 324.265H383.467L402.263 376.066H394.575L389.321 360.551H368.833L363.226 376.066H356.033L375.533 324.265ZM411.819 357.624C411.819 361.667 412.677 365.053 414.393 367.78C416.109 370.507 418.86 371.87 422.645 371.87C425.583 371.87 427.993 370.612 429.874 368.097C431.778 365.558 432.73 361.926 432.73 357.201C432.73 352.428 431.754 348.902 429.803 346.622C427.852 344.318 425.442 343.166 422.574 343.166C419.377 343.166 416.779 344.388 414.781 346.833C412.806 349.278 411.819 352.875 411.819 357.624ZM421.375 337.63C424.267 337.63 426.688 338.241 428.639 339.463C429.768 340.168 431.049 341.403 432.483 343.166V324.088H438.584V376.066H432.871V370.812C431.39 373.14 429.639 374.82 427.617 375.855C425.595 376.889 423.279 377.406 420.67 377.406C416.462 377.406 412.818 375.643 409.738 372.117C406.659 368.567 405.119 363.854 405.119 357.976C405.119 352.475 406.518 347.715 409.315 343.695C412.136 339.651 416.156 337.63 421.375 337.63ZM452.019 357.624C452.019 361.667 452.877 365.053 454.593 367.78C456.309 370.507 459.06 371.87 462.845 371.87C465.783 371.87 468.193 370.612 470.074 368.097C471.978 365.558 472.93 361.926 472.93 357.201C472.93 352.428 471.954 348.902 470.003 346.622C468.052 344.318 465.642 343.166 462.774 343.166C459.577 343.166 456.979 344.388 454.981 346.833C453.006 349.278 452.019 352.875 452.019 357.624ZM461.575 337.63C464.467 337.63 466.888 338.241 468.839 339.463C469.968 340.168 471.249 341.403 472.683 343.166V324.088H478.784V376.066H473.071V370.812C471.59 373.14 469.839 374.82 467.817 375.855C465.795 376.889 463.479 377.406 460.87 377.406C456.662 377.406 453.018 375.643 449.938 372.117C446.859 368.567 445.319 363.854 445.319 357.976C445.319 352.475 446.718 347.715 449.515 343.695C452.336 339.651 456.356 337.63 461.575 337.63ZM531.89 338.3H538.907C538.014 340.721 536.028 346.246 532.948 354.873C530.644 361.362 528.716 366.651 527.165 370.742C523.497 380.38 520.911 386.257 519.407 388.373C517.902 390.489 515.316 391.547 511.649 391.547C510.756 391.547 510.062 391.512 509.568 391.441C509.098 391.371 508.51 391.241 507.805 391.053V385.27C508.91 385.576 509.709 385.764 510.203 385.834C510.697 385.905 511.132 385.94 511.508 385.94C512.683 385.94 513.541 385.74 514.082 385.341C514.646 384.964 515.116 384.494 515.493 383.93C515.61 383.742 516.033 382.778 516.762 381.039C517.491 379.299 518.02 378.006 518.349 377.16L504.385 338.3H511.578L521.699 369.049L531.89 338.3ZM559.395 371.976C563.603 371.976 566.483 370.389 568.035 367.215C569.61 364.018 570.397 360.468 570.397 356.566C570.397 353.04 569.833 350.171 568.705 347.962C566.918 344.482 563.838 342.743 559.466 342.743C555.587 342.743 552.766 344.224 551.003 347.186C549.239 350.148 548.358 353.721 548.358 357.906C548.358 361.926 549.239 365.276 551.003 367.956C552.766 370.636 555.563 371.976 559.395 371.976ZM559.642 337.206C564.508 337.206 568.622 338.828 571.984 342.073C575.346 345.317 577.027 350.089 577.027 356.39C577.027 362.478 575.546 367.509 572.584 371.482C569.622 375.455 565.026 377.442 558.796 377.442C553.6 377.442 549.475 375.69 546.418 372.187C543.362 368.661 541.834 363.936 541.834 358.012C541.834 351.664 543.445 346.61 546.665 342.848C549.886 339.087 554.212 337.206 559.642 337.206ZM590.956 338.3V363.372C590.956 365.299 591.261 366.874 591.873 368.097C593.001 370.354 595.105 371.482 598.185 371.482C602.604 371.482 605.614 369.507 607.212 365.558C608.082 363.442 608.517 360.539 608.517 356.848V338.3H614.864V376.066H608.869L608.94 370.495C608.117 371.929 607.095 373.14 605.872 374.127C603.451 376.102 600.512 377.089 597.056 377.089C591.673 377.089 588.005 375.291 586.054 371.694C584.996 369.766 584.467 367.192 584.467 363.971V338.3H590.956ZM624.985 338.3H631.015V344.823C631.508 343.554 632.719 342.014 634.647 340.204C636.575 338.37 638.796 337.453 641.312 337.453C641.429 337.453 641.629 337.465 641.911 337.488C642.193 337.512 642.675 337.559 643.357 337.63V344.33C642.981 344.259 642.628 344.212 642.299 344.188C641.993 344.165 641.653 344.153 641.276 344.153C638.079 344.153 635.622 345.188 633.906 347.256C632.19 349.302 631.332 351.664 631.332 354.344V376.066H624.985V338.3Z" fill="#C2C2C2"/>
<path d="M387.699 461.659C385.372 462.435 382.586 462.823 379.342 462.823C372.571 462.823 366.976 460.801 362.557 456.757C357.197 451.891 354.517 444.744 354.517 435.317C354.517 425.82 357.267 418.638 362.768 413.772C367.258 409.799 372.842 407.812 379.518 407.812C386.242 407.812 391.884 409.916 396.444 414.124C401.71 418.991 404.343 425.796 404.343 434.542C404.343 439.173 403.779 443.052 402.651 446.179C401.734 449.164 400.382 451.644 398.595 453.619L404.59 459.226L398.913 465.15L392.636 459.226C390.732 460.378 389.086 461.189 387.699 461.659ZM385.372 452.279L380.118 447.272L385.724 441.418L390.979 446.425C391.801 444.733 392.377 443.252 392.707 441.982C393.224 440.078 393.482 437.856 393.482 435.317C393.482 429.487 392.283 424.985 389.885 421.812C387.511 418.614 384.032 417.016 379.448 417.016C375.145 417.016 371.713 418.544 369.151 421.6C366.588 424.656 365.307 429.229 365.307 435.317C365.307 442.441 367.141 447.542 370.808 450.622C373.182 452.62 376.027 453.619 379.342 453.619C380.588 453.619 381.787 453.466 382.939 453.161C383.573 452.996 384.384 452.702 385.372 452.279ZM434.74 440.995H423.527V461.377H412.912V409.399H438.408C442.051 409.47 444.849 409.916 446.8 410.739C448.775 411.562 450.444 412.773 451.808 414.371C452.936 415.688 453.829 417.145 454.488 418.744C455.146 420.342 455.475 422.164 455.475 424.21C455.475 426.678 454.852 429.111 453.606 431.509C452.36 433.883 450.303 435.564 447.435 436.552C449.833 437.516 451.526 438.891 452.513 440.677C453.524 442.441 454.029 445.144 454.029 448.788V452.279C454.029 454.653 454.123 456.264 454.311 457.11C454.593 458.45 455.252 459.437 456.286 460.072V461.377H444.332C444.003 460.225 443.768 459.296 443.627 458.591C443.344 457.134 443.192 455.641 443.168 454.113L443.098 449.282C443.051 445.967 442.439 443.757 441.264 442.652C440.112 441.547 437.937 440.995 434.74 440.995ZM441.334 431.544C443.497 430.557 444.579 428.606 444.579 425.691C444.579 422.54 443.533 420.425 441.44 419.343C440.265 418.732 438.502 418.426 436.151 418.426H423.527V432.391H435.833C438.278 432.391 440.112 432.109 441.334 431.544ZM517.397 436.728H507.1C506.912 435.294 506.43 434.001 505.655 432.849C504.526 431.297 502.775 430.522 500.4 430.522C497.015 430.522 494.699 432.203 493.453 435.564C492.795 437.351 492.466 439.725 492.466 442.687C492.466 445.509 492.795 447.777 493.453 449.493C494.652 452.69 496.909 454.289 500.224 454.289C502.575 454.289 504.244 453.654 505.231 452.385C506.219 451.115 506.818 449.47 507.03 447.448H517.291C517.056 450.504 515.951 453.396 513.977 456.123C510.826 460.519 506.16 462.717 499.977 462.717C493.794 462.717 489.245 460.883 486.33 457.216C483.415 453.549 481.958 448.788 481.958 442.934C481.958 436.328 483.568 431.192 486.789 427.524C490.009 423.857 494.453 422.023 500.118 422.023C504.937 422.023 508.875 423.105 511.931 425.267C515.011 427.43 516.833 431.25 517.397 436.728ZM556.398 427.806C559.642 431.873 561.265 436.681 561.265 442.229C561.265 447.871 559.642 452.702 556.398 456.722C553.154 460.719 548.229 462.717 541.623 462.717C535.017 462.717 530.092 460.719 526.848 456.722C523.603 452.702 521.981 447.871 521.981 442.229C521.981 436.681 523.603 431.873 526.848 427.806C530.092 423.739 535.017 421.706 541.623 421.706C548.229 421.706 553.154 423.739 556.398 427.806ZM541.588 430.204C538.649 430.204 536.38 431.25 534.782 433.343C533.207 435.412 532.419 438.374 532.419 442.229C532.419 446.084 533.207 449.058 534.782 451.151C536.38 453.243 538.649 454.289 541.588 454.289C544.526 454.289 546.783 453.243 548.358 451.151C549.933 449.058 550.721 446.084 550.721 442.229C550.721 438.374 549.933 435.412 548.358 433.343C546.783 431.25 544.526 430.204 541.588 430.204ZM603.475 409.47V461.377H593.707V456.052C592.273 458.333 590.639 459.99 588.805 461.024C586.971 462.059 584.691 462.576 581.964 462.576C577.474 462.576 573.689 460.766 570.609 457.145C567.553 453.502 566.025 448.835 566.025 443.146C566.025 436.587 567.53 431.427 570.539 427.665C573.571 423.904 577.615 422.023 582.669 422.023C584.997 422.023 587.065 422.54 588.876 423.575C590.686 424.586 592.155 425.996 593.283 427.806V409.47H603.475ZM576.392 442.405C576.392 445.955 577.098 448.788 578.508 450.904C579.895 453.043 582.011 454.113 584.856 454.113C587.7 454.113 589.863 453.055 591.344 450.939C592.825 448.823 593.566 446.084 593.566 442.723C593.566 438.021 592.378 434.659 590.004 432.637C588.546 431.415 586.854 430.804 584.926 430.804C581.988 430.804 579.825 431.92 578.438 434.154C577.074 436.364 576.392 439.114 576.392 442.405ZM645.544 450.093C645.285 452.373 644.098 454.689 641.982 457.04C638.691 460.777 634.083 462.646 628.159 462.646C623.269 462.646 618.955 461.071 615.217 457.921C611.479 454.771 609.61 449.646 609.61 442.546C609.61 435.893 611.291 430.792 614.653 427.242C618.038 423.692 622.423 421.917 627.806 421.917C631.003 421.917 633.883 422.517 636.446 423.716C639.008 424.915 641.124 426.807 642.793 429.393C644.298 431.674 645.273 434.318 645.72 437.327C645.978 439.091 646.084 441.63 646.037 444.944H619.731C619.872 448.8 621.083 451.503 623.363 453.055C624.75 454.019 626.419 454.501 628.37 454.501C630.439 454.501 632.12 453.913 633.413 452.737C634.118 452.103 634.741 451.221 635.282 450.093H645.544ZM635.599 438.315C635.435 435.658 634.624 433.648 633.166 432.285C631.732 430.898 629.945 430.204 627.806 430.204C625.479 430.204 623.669 430.933 622.376 432.391C621.106 433.848 620.307 435.823 619.978 438.315H635.599Z" fill="#C2C2C2"/>
</svg>
