<svg width="1000" height="1191" viewBox="0 0 1000 1191" fill="none" xmlns="http://www.w3.org/2000/svg">
<rect x="76" width="847" height="1191" fill="#333333"/>
<rect x="242" y="626" width="515" height="515" rx="6.84061" fill="white"/>
<path d="M611.949 673.395H709.694V771.14" stroke="#C2C2C2" stroke-width="19.549"/>
<path d="M387.137 673.395H289.392V771.14" stroke="#C2C2C2" stroke-width="19.549"/>
<path d="M611.949 1093.7H709.694V995.95" stroke="#C2C2C2" stroke-width="19.549"/>
<path d="M387.137 1093.7H289.392V995.95" stroke="#C2C2C2" stroke-width="19.549"/>
<path d="M383.347 843.644L375.258 820.103L366.661 843.644H383.347ZM371.486 812.196H379.647L398.98 865.48H391.073L385.668 849.521H364.594L358.826 865.48H351.427L371.486 812.196ZM408.81 846.51C408.81 850.669 409.693 854.151 411.458 856.956C413.223 859.761 416.052 861.164 419.946 861.164C422.968 861.164 425.447 859.87 427.382 857.283C429.34 854.671 430.32 850.935 430.32 846.075C430.32 841.166 429.316 837.538 427.309 835.193C425.302 832.823 422.823 831.638 419.873 831.638C416.584 831.638 413.912 832.896 411.857 835.41C409.826 837.925 408.81 841.625 408.81 846.51ZM418.64 825.943C421.614 825.943 424.105 826.572 426.112 827.83C427.273 828.555 428.591 829.825 430.066 831.638V812.015H436.341V865.48H430.465V860.076C428.941 862.47 427.14 864.199 425.06 865.263C422.981 866.327 420.599 866.859 417.914 866.859C413.586 866.859 409.838 865.045 406.67 861.418C403.502 857.766 401.918 852.918 401.918 846.873C401.918 841.214 403.357 836.317 406.235 832.182C409.136 828.023 413.272 825.943 418.64 825.943ZM450.161 846.51C450.161 850.669 451.043 854.151 452.809 856.956C454.574 859.761 457.403 861.164 461.296 861.164C464.319 861.164 466.798 859.87 468.732 857.283C470.691 854.671 471.67 850.935 471.67 846.075C471.67 841.166 470.667 837.538 468.66 835.193C466.653 832.823 464.174 831.638 461.224 831.638C457.935 831.638 455.263 832.896 453.208 835.41C451.176 837.925 450.161 841.625 450.161 846.51ZM459.991 825.943C462.965 825.943 465.456 826.572 467.463 827.83C468.624 828.555 469.941 829.825 471.417 831.638V812.015H477.692V865.48H471.816V860.076C470.292 862.47 468.491 864.199 466.411 865.263C464.331 866.327 461.949 866.859 459.265 866.859C454.937 866.859 451.188 865.045 448.021 861.418C444.853 857.766 443.269 852.918 443.269 846.873C443.269 841.214 444.708 836.317 447.585 832.182C450.487 828.023 454.622 825.943 459.991 825.943ZM532.318 826.633H539.536C538.618 829.123 536.574 834.806 533.406 843.681C531.037 850.355 529.054 855.796 527.458 860.003C523.685 869.918 521.025 875.963 519.478 878.14C517.93 880.316 515.27 881.404 511.498 881.404C510.579 881.404 509.865 881.368 509.358 881.295C508.874 881.223 508.269 881.09 507.544 880.896V874.948C508.681 875.262 509.503 875.455 510.011 875.528C510.518 875.601 510.966 875.637 511.353 875.637C512.562 875.637 513.444 875.431 514.001 875.02C514.581 874.633 515.065 874.15 515.451 873.569C515.572 873.376 516.008 872.384 516.757 870.595C517.507 868.805 518.051 867.475 518.389 866.605L504.026 826.633H511.425L521.835 858.262L532.318 826.633ZM560.611 861.273C564.939 861.273 567.902 859.641 569.498 856.376C571.118 853.087 571.928 849.436 571.928 845.422C571.928 841.794 571.347 838.844 570.187 836.571C568.349 832.992 565.181 831.203 560.683 831.203C556.693 831.203 553.792 832.726 551.978 835.773C550.164 838.82 549.257 842.496 549.257 846.8C549.257 850.935 550.164 854.381 551.978 857.138C553.792 859.894 556.669 861.273 560.611 861.273ZM560.865 825.508C565.87 825.508 570.102 827.177 573.56 830.514C577.018 833.851 578.747 838.76 578.747 845.24C578.747 851.503 577.224 856.678 574.177 860.765C571.13 864.852 566.402 866.895 559.994 866.895C554.65 866.895 550.406 865.094 547.262 861.49C544.119 857.863 542.547 853.003 542.547 846.909C542.547 840.38 544.203 835.181 547.516 831.312C550.829 827.443 555.279 825.508 560.865 825.508ZM593.075 826.633V852.422C593.075 854.405 593.389 856.025 594.018 857.283C595.179 859.604 597.343 860.765 600.511 860.765C605.057 860.765 608.152 858.734 609.796 854.671C610.691 852.495 611.138 849.508 611.138 845.712V826.633H617.668V865.48H611.501L611.574 859.749C610.727 861.224 609.675 862.47 608.418 863.485C605.927 865.517 602.905 866.532 599.35 866.532C593.812 866.532 590.04 864.682 588.033 860.983C586.945 859 586.401 856.352 586.401 853.039V826.633H593.075ZM628.078 826.633H634.28V833.343C634.788 832.037 636.034 830.453 638.016 828.591C639.999 826.705 642.285 825.762 644.872 825.762C644.993 825.762 645.198 825.774 645.489 825.798C645.779 825.822 646.275 825.871 646.976 825.943V832.835C646.589 832.763 646.226 832.714 645.888 832.69C645.573 832.666 645.223 832.654 644.836 832.654C641.547 832.654 639.02 833.718 637.255 835.846C635.489 837.95 634.607 840.38 634.607 843.137V865.48H628.078V826.633Z" fill="#C2C2C2"/>
<path d="M384 953.523C381.606 954.321 378.741 954.72 375.404 954.72C368.439 954.72 362.684 952.64 358.138 948.481C352.625 943.475 349.868 936.124 349.868 926.427C349.868 916.658 352.697 909.27 358.356 904.264C362.974 900.178 368.718 898.134 375.585 898.134C382.501 898.134 388.305 900.299 392.996 904.627C398.413 909.633 401.121 916.633 401.121 925.629C401.121 930.393 400.541 934.383 399.38 937.599C398.437 940.67 397.046 943.221 395.209 945.252L401.375 951.02L395.535 957.114L389.079 951.02C387.12 952.205 385.427 953.039 384 953.523ZM381.606 943.874L376.202 938.723L381.969 932.702L387.374 937.853C388.22 936.112 388.813 934.588 389.151 933.283C389.683 931.324 389.949 929.039 389.949 926.427C389.949 920.43 388.716 915.799 386.249 912.535C383.807 909.246 380.228 907.602 375.513 907.602C371.087 907.602 367.557 909.173 364.921 912.317C362.285 915.461 360.967 920.164 360.967 926.427C360.967 933.754 362.853 939.001 366.626 942.169C369.068 944.225 371.994 945.252 375.404 945.252C376.685 945.252 377.919 945.095 379.104 944.781C379.756 944.612 380.591 944.309 381.606 943.874ZM432.388 932.267H420.853V953.232H409.935V899.767H436.16C439.909 899.839 442.786 900.299 444.793 901.145C446.824 901.991 448.541 903.237 449.944 904.881C451.105 906.235 452.024 907.735 452.701 909.379C453.378 911.023 453.716 912.897 453.716 915.001C453.716 917.54 453.075 920.043 451.794 922.51C450.512 924.952 448.396 926.681 445.446 927.697C447.913 928.688 449.654 930.103 450.669 931.94C451.709 933.754 452.229 936.535 452.229 940.283V943.874C452.229 946.316 452.326 947.973 452.519 948.843C452.809 950.222 453.487 951.237 454.551 951.89V953.232H442.254C441.916 952.048 441.674 951.092 441.529 950.367C441.238 948.868 441.081 947.332 441.057 945.76L440.985 940.791C440.936 937.381 440.307 935.108 439.098 933.972C437.914 932.835 435.677 932.267 432.388 932.267ZM439.171 922.546C441.396 921.53 442.508 919.523 442.508 916.525C442.508 913.284 441.432 911.108 439.28 909.996C438.071 909.367 436.257 909.052 433.839 909.052H420.853V923.416H433.512C436.027 923.416 437.914 923.126 439.171 922.546ZM517.411 927.878H506.819C506.626 926.403 506.13 925.073 505.332 923.888C504.171 922.292 502.37 921.494 499.928 921.494C496.445 921.494 494.063 923.223 492.782 926.681C492.105 928.519 491.766 930.961 491.766 934.008C491.766 936.91 492.105 939.243 492.782 941.009C494.015 944.297 496.337 945.942 499.746 945.942C502.164 945.942 503.881 945.289 504.897 943.983C505.913 942.677 506.529 940.984 506.747 938.905H517.302C517.06 942.048 515.924 945.023 513.892 947.828C510.652 952.35 505.852 954.611 499.492 954.611C493.132 954.611 488.453 952.725 485.455 948.952C482.456 945.18 480.957 940.283 480.957 934.262C480.957 927.467 482.613 922.183 485.926 918.411C489.239 914.638 493.81 912.752 499.637 912.752C504.595 912.752 508.645 913.865 511.789 916.089C514.956 918.314 516.831 922.244 517.411 927.878ZM557.528 918.701C560.865 922.884 562.534 927.83 562.534 933.536C562.534 939.34 560.865 944.309 557.528 948.444C554.191 952.555 549.125 954.611 542.33 954.611C535.535 954.611 530.469 952.555 527.132 948.444C523.795 944.309 522.126 939.34 522.126 933.536C522.126 927.83 523.795 922.884 527.132 918.701C530.469 914.517 535.535 912.426 542.33 912.426C549.125 912.426 554.191 914.517 557.528 918.701ZM542.294 921.167C539.271 921.167 536.938 922.244 535.293 924.396C533.673 926.524 532.863 929.571 532.863 933.536C532.863 937.502 533.673 940.561 535.293 942.713C536.938 944.866 539.271 945.942 542.294 945.942C545.317 945.942 547.638 944.866 549.258 942.713C550.878 940.561 551.689 937.502 551.689 933.536C551.689 929.571 550.878 926.524 549.258 924.396C547.638 922.244 545.317 921.167 542.294 921.167ZM605.952 899.839V953.232H595.905V947.755C594.43 950.101 592.749 951.806 590.863 952.87C588.977 953.934 586.631 954.466 583.826 954.466C579.207 954.466 575.314 952.604 572.146 948.88C569.003 945.132 567.431 940.331 567.431 934.479C567.431 927.733 568.978 922.425 572.074 918.556C575.193 914.687 579.352 912.752 584.551 912.752C586.945 912.752 589.073 913.284 590.935 914.348C592.797 915.388 594.309 916.839 595.47 918.701V899.839H605.952ZM578.095 933.718C578.095 937.369 578.82 940.283 580.271 942.459C581.698 944.66 583.874 945.76 586.8 945.76C589.726 945.76 591.951 944.672 593.475 942.496C594.998 940.319 595.76 937.502 595.76 934.044C595.76 929.208 594.539 925.75 592.096 923.67C590.597 922.413 588.856 921.784 586.873 921.784C583.85 921.784 581.625 922.933 580.199 925.23C578.796 927.503 578.095 930.332 578.095 933.718ZM649.225 941.625C648.959 943.971 647.738 946.353 645.562 948.771C642.176 952.616 637.437 954.538 631.343 954.538C626.313 954.538 621.876 952.918 618.031 949.678C614.186 946.437 612.264 941.166 612.264 933.863C612.264 927.019 613.993 921.772 617.451 918.121C620.933 914.469 625.443 912.643 630.98 912.643C634.269 912.643 637.231 913.26 639.867 914.493C642.503 915.727 644.679 917.673 646.396 920.333C647.944 922.679 648.947 925.399 649.407 928.495C649.673 930.308 649.782 932.92 649.733 936.329H622.674C622.819 940.295 624.064 943.076 626.41 944.672C627.837 945.664 629.554 946.159 631.561 946.159C633.689 946.159 635.418 945.555 636.748 944.346C637.473 943.693 638.114 942.786 638.67 941.625H649.225ZM638.997 929.51C638.827 926.778 637.993 924.71 636.494 923.308C635.019 921.881 633.181 921.167 630.98 921.167C628.586 921.167 626.724 921.917 625.394 923.416C624.089 924.916 623.266 926.947 622.928 929.51H638.997Z" fill="#C2C2C2"/>
<path d="M380.911 237.431C380.911 235.206 381.345 233.204 382.212 231.426C383.094 229.649 384.312 228.277 385.866 227.311C387.433 226.345 389.218 225.862 391.22 225.862C394.313 225.862 396.812 226.933 398.715 229.075C400.633 231.216 401.592 234.065 401.592 237.62V237.893C401.592 240.105 401.165 242.092 400.311 243.856C399.471 245.606 398.26 246.97 396.679 247.95C395.111 248.93 393.305 249.42 391.262 249.42C388.182 249.42 385.684 248.349 383.766 246.208C381.862 244.066 380.911 241.231 380.911 237.704V237.431ZM384.816 237.893C384.816 240.413 385.397 242.435 386.559 243.961C387.734 245.487 389.302 246.25 391.262 246.25C393.235 246.25 394.803 245.48 395.965 243.94C397.127 242.386 397.708 240.217 397.708 237.431C397.708 234.94 397.113 232.924 395.923 231.384C394.747 229.831 393.179 229.054 391.22 229.054C389.302 229.054 387.755 229.817 386.58 231.342C385.404 232.868 384.816 235.052 384.816 237.893ZM408.374 249V229.285H404.783V226.282H408.374V223.952C408.374 221.516 409.024 219.633 410.326 218.304C411.628 216.974 413.469 216.309 415.848 216.309C416.744 216.309 417.633 216.428 418.515 216.666L418.305 219.815C417.647 219.689 416.947 219.626 416.205 219.626C414.945 219.626 413.972 219.997 413.287 220.739C412.601 221.467 412.258 222.517 412.258 223.889V226.282H417.108V229.285H412.258V249H408.374ZM446.104 246.753C444.592 248.531 442.373 249.42 439.448 249.42C437.026 249.42 435.179 248.72 433.905 247.32C432.645 245.907 432.008 243.821 431.994 241.063V226.282H435.878V240.958C435.878 244.402 437.278 246.124 440.078 246.124C443.045 246.124 445.019 245.018 445.999 242.806V226.282H449.883V249H446.188L446.104 246.753ZM474.994 237.893C474.994 241.35 474.203 244.136 472.622 246.25C471.04 248.363 468.898 249.42 466.197 249.42C463.439 249.42 461.27 248.545 459.688 246.795V257.734H455.804V226.282H459.352L459.541 228.802C461.123 226.842 463.32 225.862 466.134 225.862C468.863 225.862 471.019 226.891 472.601 228.949C474.196 231.006 474.994 233.869 474.994 237.536V237.893ZM471.11 237.452C471.11 234.891 470.564 232.868 469.472 231.384C468.38 229.901 466.883 229.159 464.979 229.159C462.627 229.159 460.864 230.201 459.688 232.287V243.142C460.85 245.214 462.627 246.25 465.021 246.25C466.883 246.25 468.359 245.515 469.451 244.045C470.557 242.561 471.11 240.364 471.11 237.452ZM489.062 246.25C490.447 246.25 491.658 245.83 492.694 244.99C493.73 244.15 494.304 243.1 494.416 241.84H498.09C498.02 243.142 497.572 244.381 496.746 245.557C495.92 246.732 494.814 247.67 493.429 248.37C492.057 249.07 490.601 249.42 489.062 249.42C485.968 249.42 483.505 248.391 481.671 246.333C479.851 244.262 478.941 241.434 478.941 237.851V237.2C478.941 234.989 479.347 233.022 480.159 231.3C480.971 229.579 482.133 228.242 483.645 227.29C485.17 226.338 486.969 225.862 489.041 225.862C491.588 225.862 493.702 226.625 495.381 228.151C497.075 229.677 497.978 231.657 498.09 234.093H494.416C494.304 232.623 493.744 231.419 492.736 230.481C491.742 229.53 490.51 229.054 489.041 229.054C487.067 229.054 485.534 229.768 484.442 231.195C483.365 232.609 482.826 234.66 482.826 237.347V238.082C482.826 240.7 483.365 242.715 484.442 244.129C485.52 245.543 487.06 246.25 489.062 246.25ZM501.428 237.431C501.428 235.206 501.862 233.204 502.73 231.426C503.612 229.649 504.83 228.277 506.383 227.311C507.951 226.345 509.736 225.862 511.737 225.862C514.831 225.862 517.329 226.933 519.233 229.075C521.151 231.216 522.109 234.065 522.109 237.62V237.893C522.109 240.105 521.682 242.092 520.829 243.856C519.989 245.606 518.778 246.97 517.196 247.95C515.629 248.93 513.823 249.42 511.779 249.42C508.7 249.42 506.201 248.349 504.284 246.208C502.38 244.066 501.428 241.231 501.428 237.704V237.431ZM505.333 237.893C505.333 240.413 505.914 242.435 507.076 243.961C508.252 245.487 509.82 246.25 511.779 246.25C513.753 246.25 515.321 245.48 516.482 243.94C517.644 242.386 518.225 240.217 518.225 237.431C518.225 234.94 517.63 232.924 516.44 231.384C515.265 229.831 513.697 229.054 511.737 229.054C509.82 229.054 508.273 229.817 507.097 231.342C505.921 232.868 505.333 235.052 505.333 237.893ZM530.634 226.282L530.739 228.802C532.404 226.842 534.651 225.862 537.479 225.862C540.656 225.862 542.819 227.08 543.966 229.516C544.722 228.424 545.702 227.542 546.906 226.87C548.124 226.198 549.558 225.862 551.21 225.862C556.193 225.862 558.727 228.501 558.811 233.778V249H554.926V234.009C554.926 232.385 554.555 231.174 553.813 230.376C553.072 229.565 551.826 229.159 550.076 229.159C548.634 229.159 547.438 229.593 546.486 230.46C545.534 231.314 544.981 232.469 544.827 233.925V249H540.922V234.114C540.922 230.81 539.305 229.159 536.072 229.159C533.524 229.159 531.782 230.243 530.844 232.413V249H526.959V226.282H530.634ZM568.91 249H565.025V226.282H568.91V249ZM564.71 220.256C564.71 219.626 564.899 219.095 565.277 218.661C565.669 218.227 566.243 218.01 566.999 218.01C567.755 218.01 568.329 218.227 568.721 218.661C569.113 219.095 569.309 219.626 569.309 220.256C569.309 220.886 569.113 221.411 568.721 221.831C568.329 222.251 567.755 222.461 566.999 222.461C566.243 222.461 565.669 222.251 565.277 221.831C564.899 221.411 564.71 220.886 564.71 220.256ZM578.82 226.282L578.946 229.138C580.681 226.954 582.949 225.862 585.749 225.862C590.55 225.862 592.971 228.571 593.013 233.988V249H589.129V233.967C589.115 232.329 588.737 231.118 587.995 230.334C587.267 229.551 586.126 229.159 584.573 229.159C583.313 229.159 582.207 229.495 581.255 230.167C580.304 230.838 579.562 231.72 579.03 232.812V249H575.146V226.282H578.82ZM597.947 237.452C597.947 233.911 598.766 231.097 600.404 229.012C602.042 226.912 604.211 225.862 606.913 225.862C609.684 225.862 611.847 226.842 613.4 228.802L613.589 226.282H617.138V248.454C617.138 251.394 616.263 253.71 614.513 255.404C612.778 257.097 610.44 257.944 607.5 257.944C605.863 257.944 604.26 257.594 602.692 256.895C601.125 256.195 599.928 255.236 599.102 254.018L601.118 251.688C602.783 253.745 604.82 254.774 607.228 254.774C609.117 254.774 610.587 254.242 611.637 253.178C612.701 252.114 613.232 250.617 613.232 248.685V246.732C611.679 248.524 609.558 249.42 606.871 249.42C604.211 249.42 602.056 248.349 600.404 246.208C598.766 244.066 597.947 241.147 597.947 237.452ZM601.853 237.893C601.853 240.455 602.377 242.47 603.427 243.94C604.477 245.396 605.947 246.124 607.836 246.124C610.286 246.124 612.085 245.011 613.232 242.785V232.413C612.043 230.243 610.258 229.159 607.878 229.159C605.989 229.159 604.512 229.894 603.448 231.363C602.384 232.833 601.853 235.01 601.853 237.893Z" fill="white"/>
<path d="M456.454 67.2681H431.107V136H410.749V67.2681H385.866V51.5497H456.454V67.2681ZM534.988 95.5149C534.988 103.751 533.461 111.04 530.406 117.381C527.351 123.723 523.001 128.614 517.356 132.056C511.749 135.459 505.349 137.16 498.157 137.16C490.965 137.16 484.585 135.517 479.017 132.23C473.449 128.904 469.098 124.168 465.966 118.02C462.873 111.871 461.249 104.814 461.094 96.8489V92.0928C461.094 83.8179 462.602 76.5291 465.618 70.2262C468.673 63.8847 473.023 58.9932 478.669 55.5518C484.353 52.1104 490.81 50.3897 498.041 50.3897C505.195 50.3897 511.575 52.0911 517.182 55.4938C522.789 58.8966 527.139 63.7494 530.232 70.0522C533.364 76.3164 534.95 83.5086 534.988 91.6288V95.5149ZM514.282 91.9768C514.282 83.5859 512.87 77.2251 510.048 72.8943C507.264 68.5248 503.261 66.3401 498.041 66.3401C487.833 66.3401 482.439 73.9963 481.859 89.3087L481.801 95.5149C481.801 103.79 483.174 110.151 485.919 114.597C488.664 119.044 492.744 121.268 498.157 121.268C503.3 121.268 507.264 119.083 510.048 114.713C512.832 110.344 514.243 104.06 514.282 95.8629V91.9768ZM565.845 107.347V136H545.487V51.5497H579.185C585.643 51.5497 591.346 52.7484 596.296 55.1458C601.284 57.5045 605.132 60.888 607.838 65.2961C610.584 69.6655 611.956 74.6343 611.956 80.2025C611.956 88.4387 608.998 95.0316 603.082 99.981C597.205 104.892 589.123 107.347 578.837 107.347H565.845ZM565.845 91.6288H579.185C583.13 91.6288 586.126 90.6428 588.176 88.6707C590.264 86.6987 591.308 83.9146 591.308 80.3185C591.308 76.3744 590.244 73.223 588.118 70.8642C585.991 68.5055 583.091 67.3068 579.417 67.2681H565.845V91.6288Z" fill="white"/>
<path d="M389.353 203V149.683H406.527C411.239 149.683 415.474 150.757 419.234 152.905C422.993 155.029 425.923 158.044 428.022 161.95C430.146 165.832 431.22 170.189 431.245 175.023V177.477C431.245 182.359 430.207 186.741 428.132 190.623C426.081 194.48 423.176 197.507 419.417 199.704C415.682 201.877 411.507 202.976 406.893 203H389.353ZM402.206 159.607V193.113H406.673C410.36 193.113 413.192 191.807 415.169 189.195C417.146 186.558 418.135 182.652 418.135 177.477V175.17C418.135 170.019 417.146 166.137 415.169 163.525C413.192 160.913 410.311 159.607 406.527 159.607H402.206ZM470.903 180.406H450.689V193.113H474.565V203H437.836V149.683H474.638V159.607H450.689V170.849H470.903V180.406ZM510.085 193.04H492.472L489.396 203H475.664L495.218 149.683H507.302L527.003 203H513.198L510.085 193.04ZM495.548 183.116H507.009L501.26 164.623L495.548 183.116ZM543.775 193.113H566.149V203H530.922V149.683H543.775V193.113ZM599.07 188.828C599.07 186.949 598.398 185.484 597.056 184.434C595.737 183.384 593.406 182.298 590.061 181.175C586.717 180.052 583.983 178.966 581.859 177.916C574.95 174.523 571.495 169.86 571.495 163.928C571.495 160.974 572.35 158.374 574.059 156.128C575.792 153.857 578.233 152.1 581.383 150.855C584.532 149.585 588.072 148.95 592.002 148.95C595.835 148.95 599.265 149.634 602.292 151.001C605.344 152.368 607.712 154.321 609.396 156.86C611.081 159.375 611.923 162.255 611.923 165.502H599.106C599.106 163.329 598.435 161.645 597.092 160.449C595.774 159.253 593.98 158.654 591.709 158.654C589.414 158.654 587.596 159.167 586.253 160.192C584.935 161.193 584.275 162.475 584.275 164.037C584.275 165.405 585.008 166.65 586.473 167.773C587.937 168.871 590.513 170.019 594.199 171.215C597.886 172.387 600.913 173.656 603.281 175.023C609.042 178.343 611.923 182.921 611.923 188.755C611.923 193.418 610.165 197.08 606.65 199.741C603.134 202.402 598.313 203.732 592.185 203.732C587.864 203.732 583.946 202.963 580.431 201.425C576.939 199.863 574.303 197.739 572.521 195.054C570.763 192.344 569.884 189.231 569.884 185.716H582.774C582.774 188.572 583.506 190.684 584.971 192.051C586.46 193.394 588.865 194.065 592.185 194.065C594.309 194.065 595.981 193.613 597.202 192.71C598.447 191.782 599.07 190.489 599.07 188.828Z" fill="white"/>
<path d="M387.946 397.988C383.041 407.107 377.067 415.533 369.206 422.387C367.446 423.897 363.232 428.173 360.906 428.739C351.599 431.066 353.988 421.004 354.554 416.036C356.755 396.668 363.861 377.991 371.282 360.006C378.45 342.775 386.311 325.86 392.222 308.063C395.304 298.693 403.793 281.086 393.983 273.665C392.788 272.722 390.336 271.779 388.952 272.848C359.774 294.92 340.531 326.74 323.426 358.434C314.56 374.847 306.196 391.448 298.21 408.176C302.737 394.907 307.202 381.575 311.478 368.181C316.823 351.579 322.483 334.915 326.508 317.936C329.337 306.177 335.374 283.978 326.382 273.351C310.787 254.926 280.099 289.386 270.1 299.699C248.342 322.024 230.86 349.378 221.05 379.06C216.837 391.763 214.447 407.232 225.704 417.042C232.872 423.268 243.626 425.972 251.235 419.18C253.436 417.168 247.839 414.024 245.89 415.344C238.532 420.312 227.779 414.338 225.704 406.352C224.509 401.698 224.949 396.416 225.892 391.7C227.339 383.902 230.546 376.293 233.627 368.998C239.161 356.107 245.952 343.782 253.876 332.211C262.051 320.263 271.421 309.195 281.86 299.259C287.142 294.166 292.676 289.386 298.461 284.922C300.851 283.035 303.303 281.211 305.819 279.451C311.038 275.803 313.365 272.911 318.647 277.879C329.526 287.94 318.521 317.244 314.937 329.444C310.283 345.291 305.19 361.012 300.096 376.67C289.594 408.742 279.596 440.938 269.283 473.073C268.528 475.462 274.188 478.292 275.131 476.028C290.412 438.172 308.082 401.258 327.514 365.351C344.556 333.72 363.169 302.718 391.593 280.142C392.222 288.506 384.236 307.057 382.538 311.71C378.765 322.024 374.489 332.085 370.15 342.147C361.534 362.27 352.793 382.581 348.643 404.214C346.757 414.024 343.172 434.964 358.705 436.033C365.496 436.474 372.162 429.934 376.815 425.72C384.299 418.803 390.21 410.628 394.549 401.384C395.744 398.743 389.329 395.473 387.946 397.988ZM437.122 379.815C430.708 385.914 415.93 406.415 403.479 405.094C399.831 404.717 398.322 399.938 398.573 397.422C399.265 390.002 402.347 382.707 406.308 376.67C407.503 388.807 434.544 377.551 435.298 367.175C435.55 363.024 433.034 355.918 426.934 354.472C419.074 352.648 411.528 358.119 406.245 363.276C396.561 372.771 380.211 399.623 397.693 410.439C410.27 418.174 433.286 390.819 440.266 381.638C441.964 379.311 439.008 378.054 437.122 379.815ZM418.697 363.653C424.985 359.629 431.525 358.811 427.123 366.735C426.117 368.558 417.124 377.865 412.282 377.488C410.27 377.299 408.195 375.664 407.126 375.476C410.71 370.256 414.924 366.043 418.697 363.653ZM495.542 349.567C486.046 364.722 476.11 382.141 468.187 398.177C466.866 400.692 462.905 409.245 460.138 408.49C458.754 408.05 458.628 404.528 458.817 401.07C459.32 392.14 461.647 384.405 462.653 375.476C462.905 373.149 457.685 369.501 456.302 371.702C453.157 376.922 449.95 382.141 446.743 387.361C444.92 390.316 443.033 394.781 440.455 398.114C440.832 392.706 442.97 386.921 444.416 382.581C445.548 379.374 449.762 365.288 453.598 364.911C457.056 364.596 453.032 361.389 451.585 361.075C439.763 358.308 433.726 394.278 435.675 402.076C436.179 403.837 438.379 407.295 440.14 406.541C445.171 404.528 446.492 401.07 449.384 396.353C451.019 393.775 452.591 391.322 454.164 388.87C453.346 397.548 452.78 406.792 454.164 410.439C455.044 412.892 459.572 418.111 462.842 416.791C470.262 413.772 479.192 386.732 500.887 352.271C502.082 350.322 496.799 347.618 495.542 349.567ZM645.647 274.986C625.524 314.1 605.653 355.29 579.241 390.631C572.324 399.875 564.715 408.804 556.037 416.413C554.339 417.986 552.515 419.495 550.566 420.815C546.793 420.627 545.535 418.992 546.73 415.847C545.724 411.571 548.742 403.522 549.622 399.246C553.961 378.62 560.753 358.497 563.457 337.556C564.903 325.922 568.425 305.233 557.231 296.807C545.912 288.254 533.084 298.63 525.789 307.434C516.042 319.068 508.81 336.613 512.08 352.02C514.721 364.408 525.16 373.778 538.052 373.086C541.825 372.897 537.737 368.621 535.536 368.684C513.715 368.684 518.117 341.203 522.519 329.633C524.972 323.093 528.556 317.056 533.021 311.71C536.102 308.063 540.693 302.907 545.535 301.397C555.219 298.379 556.54 306.302 556.791 313.723C557.106 322.024 556.351 330.324 555.093 338.562C552.264 356.61 546.541 374.092 542.391 391.888C540.19 401.447 533.147 419.369 543.397 426.538C553.018 433.329 562.199 423.079 568.614 416.665C579.996 405.346 589.491 392.329 598.044 378.871C612.57 356.044 625.65 332.211 638.541 308.378C632.442 334.6 624.833 360.509 615.651 385.789C609.426 402.83 602.508 419.621 594.899 436.096C587.039 453.075 576.411 469.299 569.871 486.781C568.677 489.988 575.217 493.95 577.417 491.246C589.491 476.468 597.352 457.1 605.275 439.807C613.136 422.702 620.242 405.22 626.593 387.486C639.107 352.271 648.163 316.112 654.137 279.199C654.64 276.244 647.282 271.842 645.647 274.986ZM677.09 379.815C670.675 385.914 655.898 406.415 643.446 405.094C639.799 404.717 638.29 399.938 638.541 397.422C639.233 390.002 642.314 382.707 646.276 376.67C647.471 388.807 674.511 377.551 675.266 367.175C675.518 363.024 673.002 355.918 666.902 354.472C659.042 352.648 651.496 358.119 646.213 363.276C636.529 372.771 620.179 399.623 637.661 410.439C650.238 418.174 673.254 390.819 680.234 381.638C681.932 379.311 678.976 378.054 677.09 379.815ZM658.664 363.653C664.953 359.629 671.493 358.811 667.091 366.735C666.085 368.558 657.092 377.865 652.25 377.488C650.238 377.299 648.163 375.664 647.094 375.476C650.678 370.256 654.891 366.043 658.664 363.653ZM709.098 393.272C708.658 397.548 709.224 401.761 712.557 404.654C725.196 415.722 738.78 390.505 743.685 382.078C744.628 380.381 741.295 378.934 740.226 380.695C736.641 386.543 727.209 401.636 719.914 399.623C716.518 398.743 718.028 393.209 719.097 389.184C722.367 377.173 728.466 365.98 733.56 354.724C735.069 351.705 726.58 349.944 724.882 352.963C722.995 356.359 721.235 359.691 719.537 363.087C719.788 355.856 716.015 349.567 706.08 351.957C688.912 356.107 673.317 382.581 671.43 398.806C669.858 412.389 682.12 417.42 692.371 409.559C698.47 404.843 704.004 399.309 709.098 393.272ZM681.366 406.226C674.763 401.007 687.843 380.443 692.559 374.155C704.507 358.245 709.79 357.868 711.865 360.006C713.751 361.892 710.796 368.055 709.853 369.816C708.846 371.514 710.859 376.104 713.185 376.293C712.179 377.802 711.173 379.249 710.041 380.821C705.828 386.669 688.849 412.012 681.366 406.226ZM784.874 352.397C762.361 347.743 753.746 366.86 745.508 384.845C748.464 372.96 753.054 361.578 756.513 352.397C757.268 350.259 750.539 351.831 749.344 353.717C749.344 353.717 733.183 387.99 733.937 406.415C734.063 409.245 740.54 411.571 742.301 409.307C755.696 392.706 758.966 355.981 786.006 355.981C789.716 355.981 786.886 352.774 784.874 352.397Z" fill="white"/>
<path d="M414.513 554.543C414.513 551.829 413.544 549.715 411.606 548.2C409.703 546.684 406.337 545.116 401.509 543.495C396.681 541.874 392.734 540.306 389.668 538.791C379.695 533.892 374.709 527.161 374.709 518.598C374.709 514.334 375.942 510.581 378.409 507.339C380.911 504.061 384.435 501.524 388.981 499.727C393.527 497.894 398.637 496.978 404.311 496.978C409.844 496.978 414.795 497.965 419.165 499.938C423.57 501.912 426.988 504.731 429.42 508.396C431.851 512.026 433.067 516.184 433.067 520.871H414.566C414.566 517.734 413.597 515.303 411.658 513.576C409.755 511.849 407.165 510.986 403.888 510.986C400.575 510.986 397.95 511.726 396.012 513.206C394.109 514.651 393.157 516.501 393.157 518.756C393.157 520.73 394.214 522.527 396.329 524.148C398.443 525.734 402.161 527.39 407.482 529.117C412.804 530.809 417.174 532.641 420.592 534.615C428.909 539.407 433.067 546.015 433.067 554.437C433.067 561.168 430.53 566.454 425.455 570.295C420.38 574.137 413.42 576.057 404.575 576.057C398.338 576.057 392.681 574.947 387.607 572.727C382.568 570.472 378.762 567.406 376.189 563.529C373.652 559.618 372.383 555.124 372.383 550.05H390.99C390.99 554.173 392.047 557.221 394.162 559.195C396.311 561.133 399.782 562.102 404.575 562.102C407.641 562.102 410.055 561.45 411.817 560.146C413.614 558.807 414.513 556.939 414.513 554.543ZM486.297 560.622H460.872L456.431 575H436.609L464.836 498.035H482.28L510.719 575H490.791L486.297 560.622ZM465.312 546.297H481.857L473.558 519.602L465.312 546.297ZM534.929 560.728H567.227V575H516.375V498.035H534.929V560.728ZM622.783 542.385H593.604V560.728H628.069V575H575.05V498.035H628.175V512.36H593.604V528.589H622.783V542.385Z" fill="white"/>
<path d="M264 86L275.226 120.549H311.553L282.164 141.902L293.389 176.451L264 155.098L234.611 176.451L245.836 141.902L216.447 120.549H252.774L264 86Z" fill="white"/>
<path d="M736 86L747.226 120.549H783.553L754.164 141.902L765.389 176.451L736 155.098L706.611 176.451L717.836 141.902L688.447 120.549H724.774L736 86Z" fill="white"/>
</svg>
