<svg width="1000" height="1000" viewBox="0 0 1000 1000" fill="none" xmlns="http://www.w3.org/2000/svg">
<g clip-path="url(#clip0_271:349)">
<rect x="58" y="204" width="884" height="796" rx="45" fill="#333333"/>
<mask id="path-2-inside-1_271:349" fill="white">
<path d="M354.435 104.71C354.435 104.71 257.717 286.493 69.5094 327.228L184.204 393.446L102.704 534.608C102.704 534.608 320.491 434.489 471.776 172.457L354.435 104.71"/>
</mask>
<path d="M354.435 104.71C354.435 104.71 257.717 286.493 69.5094 327.228L184.204 393.446L102.704 534.608C102.704 534.608 320.491 434.489 471.776 172.457L354.435 104.71" fill="#333333"/>
<path d="M69.5094 327.228L68.2401 321.363L53.0476 324.652L66.5094 332.424L69.5094 327.228ZM184.204 393.446L189.4 396.446L192.4 391.25L187.204 388.25L184.204 393.446ZM102.704 534.608L97.5075 531.608L88.082 547.934L105.21 540.06L102.704 534.608ZM471.776 172.457L476.972 175.457L479.972 170.261L474.776 167.261L471.776 172.457ZM354.435 104.71C349.138 101.892 349.138 101.89 349.139 101.89C349.138 101.891 349.138 101.891 349.137 101.892C349.136 101.895 349.133 101.901 349.128 101.91C349.119 101.927 349.104 101.955 349.083 101.994C349.041 102.071 348.976 102.192 348.887 102.354C348.71 102.679 348.438 103.171 348.073 103.82C347.342 105.119 346.237 107.048 344.758 109.527C341.801 114.486 337.35 121.646 331.419 130.379C319.551 147.85 301.777 171.584 278.187 196.574C230.961 246.604 160.742 301.343 68.2401 321.363L70.7786 333.092C166.484 312.378 238.728 255.857 286.913 204.812C311.029 179.264 329.197 155.007 341.345 137.121C347.422 128.175 351.998 120.815 355.064 115.674C356.598 113.103 357.754 111.086 358.532 109.702C358.922 109.01 359.216 108.477 359.416 108.111C359.516 107.928 359.592 107.787 359.645 107.69C359.671 107.641 359.692 107.603 359.706 107.576C359.713 107.562 359.719 107.552 359.723 107.544C359.725 107.54 359.728 107.536 359.729 107.534C359.73 107.531 359.732 107.528 354.435 104.71ZM66.5094 332.424L181.204 398.642L187.204 388.25L72.5094 322.031L66.5094 332.424ZM179.007 390.446L97.5075 531.608L107.9 537.608L189.4 396.446L179.007 390.446ZM102.704 534.608C105.21 540.06 105.213 540.059 105.216 540.057C105.218 540.056 105.223 540.054 105.227 540.052C105.237 540.048 105.249 540.042 105.265 540.034C105.297 540.02 105.342 539.999 105.399 539.972C105.515 539.918 105.683 539.839 105.902 539.735C106.34 539.528 106.982 539.22 107.82 538.811C109.496 537.993 111.954 536.767 115.125 535.118C121.467 531.821 130.661 526.834 142.152 520.034C165.133 506.436 197.308 485.585 234.221 456.508C308.041 398.359 400.871 307.268 476.972 175.457L466.58 169.457C391.397 299.678 299.69 389.662 226.795 447.081C190.351 475.789 158.624 496.344 136.041 509.707C124.751 516.388 115.749 521.269 109.59 524.471C106.51 526.072 104.141 527.253 102.553 528.029C101.759 528.417 101.159 528.704 100.764 528.891C100.566 528.985 100.419 529.054 100.325 529.098C100.277 529.12 100.243 529.136 100.222 529.146C100.211 529.151 100.204 529.154 100.2 529.156C100.198 529.157 100.197 529.157 100.196 529.158C100.196 529.157 100.197 529.157 102.704 534.608ZM474.776 167.261L357.435 99.5136L351.435 109.906L468.776 177.653L474.776 167.261Z" fill="white" mask="url(#path-2-inside-1_271:349)"/>
<path d="M527.102 173.553L639.198 108.834C639.948 110.158 640.979 111.942 642.288 114.137C645.327 119.233 649.872 126.543 655.912 135.436C667.991 153.218 686.06 177.345 710.044 202.753C756.72 252.199 825.945 306.653 917.142 328.454L809.072 390.849L806.474 392.349L807.974 394.947L884.501 527.496C884.272 527.377 884.04 527.257 883.802 527.133C877.597 523.908 868.547 519 857.207 512.289C834.525 498.867 802.686 478.238 766.124 449.438C693.483 392.219 602.231 302.772 527.102 173.553Z" fill="#333333" stroke="white" stroke-width="6"/>
<path d="M486.757 121.581C486.757 173.537 428.689 223.456 358.395 233.644L302.364 241.794C232.07 251.981 184.189 228.55 196.414 190.856C208.639 153.162 208.639 91.0187 196.414 53.325C184.189 15.6313 231.051 -7.8 302.364 2.3875L358.395 9.51875C428.689 18.6875 486.757 69.625 486.757 121.581" fill="#333333"/>
<path d="M213.725 195.959C208.631 201.053 214.743 207.165 216.781 209.203C222.893 216.334 240.212 224.484 270.775 224.484C279.943 224.484 289.112 223.465 299.3 222.446L355.331 214.296C395.062 209.203 430.718 188.828 450.075 163.359C450.075 164.378 278.925 132.796 213.725 195.959" fill="white"/>
<path d="M513.242 121.581C513.242 173.537 571.311 223.456 641.605 233.644L697.636 241.794C767.93 251.981 815.811 228.55 803.586 190.856C791.361 153.162 791.361 91.0187 803.586 53.325C815.811 15.6313 768.948 -7.8 697.636 2.3875L641.605 9.51875C571.311 18.6875 513.242 69.625 513.242 121.581Z" fill="#333333"/>
<path d="M786.268 195.959C791.362 201.053 785.249 207.165 783.212 209.203C777.099 216.334 759.78 224.484 729.218 224.484C720.049 224.484 710.88 223.465 700.693 222.446L644.662 214.296C604.93 209.203 569.274 188.828 549.918 163.359C549.918 164.378 721.068 132.796 786.268 195.959" fill="white"/>
<path d="M491.859 106.308C491.859 106.308 474.54 120.57 432.771 85.9325C384.89 46.2013 315.615 99.1763 408.321 122.608C458.24 135.851 491.859 106.308 491.859 106.308Z" fill="white"/>
<path d="M508.148 106.308C508.148 106.308 525.467 120.57 567.236 85.9325C615.117 46.2013 684.392 99.1763 591.686 122.608C541.767 135.851 508.148 106.308 508.148 106.308Z" fill="white"/>
<path d="M500 197.755C462.213 197.755 452 228.757 452 122.463C452 16.1684 461.191 47.171 500 47.171C538.809 47.171 548 16.1684 548 122.463C548 228.757 537.787 197.755 500 197.755Z" fill="#333333"/>
<path d="M500.002 193.927C469.439 193.927 461.289 222.452 461.289 122.614C461.289 21.7578 468.42 51.3015 500.002 51.3015C531.583 51.3015 538.714 22.7765 538.714 122.614C538.714 222.452 530.564 193.927 500.002 193.927" fill="white"/>
<rect x="250" y="250" width="500" height="500" rx="10.9555" fill="white"/>
<path d="M609.648 296.076H704.673V391.101" stroke="#C2C2C2" stroke-width="19.005"/>
<path d="M391.09 296.076H296.065V391.101" stroke="#C2C2C2" stroke-width="19.005"/>
<path d="M609.648 704.684H704.673V609.659" stroke="#C2C2C2" stroke-width="19.005"/>
<path d="M391.09 704.684H296.065V609.659" stroke="#C2C2C2" stroke-width="19.005"/>
<path d="M387.064 460.838L379.2 437.952L370.843 460.838H387.064ZM375.533 430.265H383.467L402.263 482.066H394.575L389.321 466.551H368.833L363.226 482.066H356.033L375.533 430.265ZM411.819 463.624C411.819 467.667 412.677 471.053 414.393 473.78C416.109 476.507 418.86 477.87 422.645 477.87C425.583 477.87 427.993 476.612 429.874 474.097C431.778 471.558 432.73 467.926 432.73 463.201C432.73 458.428 431.754 454.902 429.803 452.622C427.852 450.318 425.442 449.166 422.574 449.166C419.377 449.166 416.779 450.388 414.781 452.833C412.806 455.278 411.819 458.875 411.819 463.624ZM421.375 443.63C424.267 443.63 426.688 444.241 428.639 445.463C429.768 446.168 431.049 447.403 432.483 449.166V430.088H438.584V482.066H432.871V476.812C431.39 479.14 429.639 480.82 427.617 481.855C425.595 482.889 423.279 483.406 420.67 483.406C416.462 483.406 412.818 481.643 409.738 478.117C406.659 474.567 405.119 469.854 405.119 463.976C405.119 458.475 406.518 453.715 409.315 449.695C412.136 445.651 416.156 443.63 421.375 443.63ZM452.019 463.624C452.019 467.667 452.877 471.053 454.593 473.78C456.309 476.507 459.06 477.87 462.845 477.87C465.783 477.87 468.193 476.612 470.074 474.097C471.978 471.558 472.93 467.926 472.93 463.201C472.93 458.428 471.954 454.902 470.003 452.622C468.052 450.318 465.642 449.166 462.774 449.166C459.577 449.166 456.979 450.388 454.981 452.833C453.006 455.278 452.019 458.875 452.019 463.624ZM461.575 443.63C464.467 443.63 466.888 444.241 468.839 445.463C469.968 446.168 471.249 447.403 472.683 449.166V430.088H478.784V482.066H473.071V476.812C471.59 479.14 469.839 480.82 467.817 481.855C465.795 482.889 463.479 483.406 460.87 483.406C456.662 483.406 453.018 481.643 449.938 478.117C446.859 474.567 445.319 469.854 445.319 463.976C445.319 458.475 446.718 453.715 449.515 449.695C452.336 445.651 456.356 443.63 461.575 443.63ZM531.89 444.3H538.907C538.014 446.721 536.028 452.246 532.948 460.873C530.644 467.362 528.716 472.651 527.165 476.742C523.497 486.38 520.911 492.257 519.407 494.373C517.902 496.489 515.316 497.547 511.649 497.547C510.756 497.547 510.062 497.512 509.568 497.441C509.098 497.371 508.51 497.241 507.805 497.053V491.27C508.91 491.576 509.709 491.764 510.203 491.834C510.697 491.905 511.132 491.94 511.508 491.94C512.683 491.94 513.541 491.74 514.082 491.341C514.646 490.964 515.116 490.494 515.493 489.93C515.61 489.742 516.033 488.778 516.762 487.039C517.491 485.299 518.02 484.006 518.349 483.16L504.385 444.3H511.578L521.699 475.049L531.89 444.3ZM559.395 477.976C563.603 477.976 566.483 476.389 568.035 473.215C569.61 470.018 570.397 466.468 570.397 462.566C570.397 459.04 569.833 456.171 568.705 453.962C566.918 450.482 563.838 448.743 559.466 448.743C555.587 448.743 552.766 450.224 551.003 453.186C549.239 456.148 548.358 459.721 548.358 463.906C548.358 467.926 549.239 471.276 551.003 473.956C552.766 476.636 555.563 477.976 559.395 477.976ZM559.642 443.206C564.508 443.206 568.622 444.828 571.984 448.073C575.346 451.317 577.027 456.089 577.027 462.39C577.027 468.478 575.546 473.509 572.584 477.482C569.622 481.455 565.026 483.442 558.796 483.442C553.6 483.442 549.475 481.69 546.418 478.187C543.362 474.661 541.834 469.936 541.834 464.012C541.834 457.664 543.445 452.61 546.665 448.848C549.886 445.087 554.212 443.206 559.642 443.206ZM590.956 444.3V469.372C590.956 471.299 591.261 472.874 591.873 474.097C593.001 476.354 595.105 477.482 598.185 477.482C602.604 477.482 605.614 475.507 607.212 471.558C608.082 469.442 608.517 466.539 608.517 462.848V444.3H614.864V482.066H608.869L608.94 476.495C608.117 477.929 607.095 479.14 605.872 480.127C603.451 482.102 600.512 483.089 597.056 483.089C591.673 483.089 588.005 481.291 586.054 477.694C584.996 475.766 584.467 473.192 584.467 469.971V444.3H590.956ZM624.985 444.3H631.015V450.823C631.508 449.554 632.719 448.014 634.647 446.204C636.575 444.37 638.796 443.453 641.312 443.453C641.429 443.453 641.629 443.465 641.911 443.488C642.193 443.512 642.675 443.559 643.357 443.63V450.33C642.981 450.259 642.628 450.212 642.299 450.188C641.993 450.165 641.653 450.153 641.276 450.153C638.079 450.153 635.622 451.188 633.906 453.256C632.19 455.302 631.332 457.664 631.332 460.344V482.066H624.985V444.3Z" fill="#C2C2C2"/>
<path d="M387.699 567.659C385.372 568.435 382.586 568.823 379.342 568.823C372.571 568.823 366.976 566.801 362.557 562.757C357.197 557.891 354.517 550.744 354.517 541.317C354.517 531.82 357.267 524.638 362.768 519.772C367.258 515.799 372.842 513.812 379.518 513.812C386.242 513.812 391.884 515.916 396.444 520.124C401.71 524.991 404.343 531.796 404.343 540.542C404.343 545.173 403.779 549.052 402.651 552.179C401.734 555.164 400.382 557.644 398.595 559.619L404.59 565.226L398.913 571.15L392.636 565.226C390.732 566.378 389.086 567.189 387.699 567.659ZM385.372 558.279L380.118 553.272L385.724 547.418L390.979 552.425C391.801 550.733 392.377 549.252 392.707 547.982C393.224 546.078 393.482 543.856 393.482 541.317C393.482 535.487 392.283 530.985 389.885 527.812C387.511 524.614 384.032 523.016 379.448 523.016C375.145 523.016 371.713 524.544 369.151 527.6C366.588 530.656 365.307 535.229 365.307 541.317C365.307 548.441 367.141 553.542 370.808 556.622C373.182 558.62 376.027 559.619 379.342 559.619C380.588 559.619 381.787 559.466 382.939 559.161C383.573 558.996 384.384 558.702 385.372 558.279ZM434.74 546.995H423.527V567.377H412.912V515.399H438.408C442.051 515.47 444.849 515.916 446.8 516.739C448.775 517.562 450.444 518.773 451.808 520.371C452.936 521.688 453.829 523.145 454.488 524.744C455.146 526.342 455.475 528.164 455.475 530.21C455.475 532.678 454.852 535.111 453.606 537.509C452.36 539.883 450.303 541.564 447.435 542.552C449.833 543.516 451.526 544.891 452.513 546.677C453.524 548.441 454.029 551.144 454.029 554.788V558.279C454.029 560.653 454.123 562.264 454.311 563.11C454.593 564.45 455.252 565.437 456.286 566.072V567.377H444.332C444.003 566.225 443.768 565.296 443.627 564.591C443.344 563.134 443.192 561.641 443.168 560.113L443.098 555.282C443.051 551.967 442.439 549.757 441.264 548.652C440.112 547.547 437.937 546.995 434.74 546.995ZM441.334 537.544C443.497 536.557 444.579 534.606 444.579 531.691C444.579 528.54 443.533 526.425 441.44 525.343C440.265 524.732 438.502 524.426 436.151 524.426H423.527V538.391H435.833C438.278 538.391 440.112 538.109 441.334 537.544ZM517.397 542.728H507.1C506.912 541.294 506.43 540.001 505.655 538.849C504.526 537.297 502.775 536.522 500.4 536.522C497.015 536.522 494.699 538.203 493.453 541.564C492.795 543.351 492.466 545.725 492.466 548.687C492.466 551.509 492.795 553.777 493.453 555.493C494.652 558.69 496.909 560.289 500.224 560.289C502.575 560.289 504.244 559.654 505.231 558.385C506.219 557.115 506.818 555.47 507.03 553.448H517.291C517.056 556.504 515.951 559.396 513.977 562.123C510.826 566.519 506.16 568.717 499.977 568.717C493.794 568.717 489.245 566.883 486.33 563.216C483.415 559.549 481.958 554.788 481.958 548.934C481.958 542.328 483.568 537.192 486.789 533.524C490.009 529.857 494.453 528.023 500.118 528.023C504.937 528.023 508.875 529.105 511.931 531.267C515.011 533.43 516.833 537.25 517.397 542.728ZM556.398 533.806C559.642 537.873 561.265 542.681 561.265 548.229C561.265 553.871 559.642 558.702 556.398 562.722C553.154 566.719 548.229 568.717 541.623 568.717C535.017 568.717 530.092 566.719 526.848 562.722C523.603 558.702 521.981 553.871 521.981 548.229C521.981 542.681 523.603 537.873 526.848 533.806C530.092 529.739 535.017 527.706 541.623 527.706C548.229 527.706 553.154 529.739 556.398 533.806ZM541.588 536.204C538.649 536.204 536.38 537.25 534.782 539.343C533.207 541.412 532.419 544.374 532.419 548.229C532.419 552.084 533.207 555.058 534.782 557.151C536.38 559.243 538.649 560.289 541.588 560.289C544.526 560.289 546.783 559.243 548.358 557.151C549.933 555.058 550.721 552.084 550.721 548.229C550.721 544.374 549.933 541.412 548.358 539.343C546.783 537.25 544.526 536.204 541.588 536.204ZM603.475 515.47V567.377H593.707V562.052C592.273 564.333 590.639 565.99 588.805 567.024C586.971 568.059 584.691 568.576 581.964 568.576C577.474 568.576 573.689 566.766 570.609 563.145C567.553 559.502 566.025 554.835 566.025 549.146C566.025 542.587 567.53 537.427 570.539 533.665C573.571 529.904 577.615 528.023 582.669 528.023C584.997 528.023 587.065 528.54 588.876 529.575C590.686 530.586 592.155 531.996 593.283 533.806V515.47H603.475ZM576.392 548.405C576.392 551.955 577.098 554.788 578.508 556.904C579.895 559.043 582.011 560.113 584.856 560.113C587.7 560.113 589.863 559.055 591.344 556.939C592.825 554.823 593.566 552.084 593.566 548.723C593.566 544.021 592.378 540.659 590.004 538.637C588.546 537.415 586.854 536.804 584.926 536.804C581.988 536.804 579.825 537.92 578.438 540.154C577.074 542.364 576.392 545.114 576.392 548.405ZM645.544 556.093C645.285 558.373 644.098 560.689 641.982 563.04C638.691 566.777 634.083 568.646 628.159 568.646C623.269 568.646 618.955 567.071 615.217 563.921C611.479 560.771 609.61 555.646 609.61 548.546C609.61 541.893 611.291 536.792 614.653 533.242C618.038 529.692 622.423 527.917 627.806 527.917C631.003 527.917 633.883 528.517 636.446 529.716C639.008 530.915 641.124 532.807 642.793 535.393C644.298 537.674 645.273 540.318 645.72 543.327C645.978 545.091 646.084 547.63 646.037 550.944H619.731C619.872 554.8 621.083 557.503 623.363 559.055C624.75 560.019 626.419 560.501 628.37 560.501C630.439 560.501 632.12 559.913 633.413 558.737C634.118 558.103 634.741 557.221 635.282 556.093H645.544ZM635.599 544.315C635.435 541.658 634.624 539.648 633.166 538.285C631.732 536.898 629.945 536.204 627.806 536.204C625.479 536.204 623.669 536.933 622.376 538.391C621.106 539.848 620.307 541.823 619.978 544.315H635.599Z" fill="#C2C2C2"/>
<path d="M376.024 853H364.308L346.985 822.585V853H335.202V804.121H346.985L364.274 834.536V804.121H376.024V853ZM413.791 832.287H395.26V843.936H417.148V853H383.477V804.121H417.215V813.219H395.26V823.525H413.791V832.287ZM459.816 834.771L465.422 804.121H477.105L466.732 853H454.512L447.966 825.136L441.554 853H429.368L418.961 804.121H430.677L436.283 834.771L442.997 804.121H453.001L459.816 834.771ZM516.718 825.338L525.715 804.121H538.438L522.694 835.443V853H510.743V835.443L495.032 804.121H507.688L516.718 825.338ZM572.311 832.287H553.78V843.936H575.668V853H541.997V804.121H575.735V813.219H553.78V823.525H572.311V832.287ZM608.231 843.869H592.084L589.264 853H576.675L594.602 804.121H605.68L623.741 853H611.085L608.231 843.869ZM594.904 834.771H605.411L600.141 817.818L594.904 834.771ZM645.495 835.745H639.116V853H627.333V804.121H646.569C652.366 804.121 656.898 805.408 660.165 807.982C663.433 810.556 665.066 814.192 665.066 818.892C665.066 822.294 664.373 825.114 662.985 827.352C661.62 829.59 659.471 831.403 656.539 832.791L666.745 852.496V853H654.122L645.495 835.745ZM639.116 826.647H646.569C648.807 826.647 650.486 826.065 651.605 824.901C652.746 823.715 653.317 822.07 653.317 819.967C653.317 817.863 652.746 816.218 651.605 815.032C650.463 813.823 648.785 813.219 646.569 813.219H639.116V826.647ZM286.088 925.411C286.581 921.83 284.723 919.212 280.516 917.556L274.708 915.441L272.761 914.601C266.226 911.625 263.171 907.44 263.596 902.046C263.82 899.338 264.749 896.943 266.383 894.862C268.016 892.78 270.176 891.18 272.862 890.061C275.57 888.92 278.446 888.383 281.489 888.45C284.444 888.517 287.073 889.177 289.378 890.431C291.706 891.684 293.474 893.441 294.683 895.701C295.891 897.939 296.428 900.468 296.294 903.288L289.949 903.254C290.173 900.256 289.501 897.939 287.935 896.305C286.368 894.649 284.13 893.799 281.221 893.754C278.155 893.709 275.592 894.425 273.533 895.903C271.474 897.38 270.288 899.394 269.975 901.945C269.527 905.28 271.575 907.809 276.118 909.532L281.12 911.311L283.638 912.386C289.949 915.295 292.87 919.615 292.4 925.344C292.154 928.097 291.225 930.48 289.613 932.494C288.002 934.486 285.809 936.031 283.034 937.127C280.281 938.224 277.315 938.739 274.137 938.671C271.071 938.649 268.263 938 265.711 936.724C263.182 935.426 261.257 933.658 259.937 931.42C258.617 929.182 258.035 926.642 258.191 923.8L264.503 923.833C264.301 926.743 265.085 929.059 266.853 930.782C268.643 932.483 271.161 933.356 274.406 933.401C277.651 933.446 280.326 932.741 282.429 931.286C284.533 929.831 285.753 927.873 286.088 925.411ZM308.211 918.865L304.888 938H298.577L307.07 889.121L323.385 889.155C328.421 889.155 332.304 890.498 335.034 893.183C337.765 895.847 338.94 899.394 338.559 903.825C338.156 908.503 336.288 912.184 332.953 914.87C329.641 917.556 325.265 918.898 319.827 918.898L308.211 918.865ZM309.118 913.594L319.995 913.628C323.419 913.628 326.228 912.766 328.421 911.043C330.614 909.32 331.901 906.925 332.282 903.859C332.64 901.106 332.069 898.879 330.569 897.178C329.07 895.455 326.888 894.549 324.023 894.459L312.441 894.425L309.118 913.594ZM371.794 915.407H351.249L348.228 932.729H372.13L371.19 938H341.01L349.503 889.121H379.347L378.407 894.425H354.875L352.155 910.136H372.7L371.794 915.407ZM416.544 922.423C415.604 927.481 413.31 931.487 409.662 934.442C406.036 937.396 401.683 938.806 396.603 938.671C393.581 938.604 390.94 937.866 388.68 936.456C386.42 935.023 384.663 932.976 383.409 930.312C382.156 927.627 381.462 924.661 381.328 921.416C381.239 919.581 381.317 917.791 381.563 916.045L382.134 912.016C383.186 904.676 385.759 898.89 389.855 894.66C393.973 890.408 398.975 888.338 404.861 888.45C409.449 888.539 413.086 890.028 415.771 892.915C418.457 895.779 419.878 899.763 420.035 904.866H413.757C413.466 898.017 410.781 894.325 405.7 893.788L404.593 893.72C400.363 893.609 396.827 895.186 393.984 898.454C391.164 901.699 389.34 906.142 388.512 911.781L387.774 916.851L387.572 919.805C387.438 923.923 388.165 927.201 389.754 929.641C391.366 932.058 393.749 933.311 396.905 933.401C400.307 933.513 403.115 932.696 405.331 930.95C407.569 929.205 409.27 926.396 410.434 922.524L416.544 922.423ZM429.804 938H423.526L432.02 889.121H438.297L429.804 938ZM470.659 925.243H450.853L444.172 938H437.425L463.979 889.121H469.518L479.186 938H472.976L470.659 925.243ZM453.639 919.939H469.719L465.657 897.145L453.639 919.939ZM493.219 932.729H515.711L514.771 938H485.968L494.461 889.121H500.806L493.219 932.729ZM582.449 914.568C582.449 919.335 581.565 923.553 579.797 927.224C578.029 930.894 575.511 933.725 572.244 935.717C568.999 937.687 565.295 938.671 561.132 938.671C556.969 938.671 553.276 937.72 550.054 935.818C546.831 933.893 544.313 931.152 542.5 927.593C540.71 924.035 539.77 919.95 539.68 915.34V912.587C539.68 907.798 540.553 903.579 542.299 899.931C544.067 896.261 546.585 893.43 549.852 891.438C553.142 889.446 556.88 888.45 561.065 888.45C565.205 888.45 568.898 889.435 572.143 891.404C575.388 893.374 577.906 896.182 579.696 899.83C581.509 903.456 582.427 907.619 582.449 912.319V914.568ZM570.465 912.52C570.465 907.663 569.648 903.982 568.014 901.475C566.403 898.946 564.086 897.682 561.065 897.682C555.156 897.682 552.034 902.113 551.699 910.976L551.665 914.568C551.665 919.357 552.46 923.039 554.049 925.612C555.638 928.186 557.999 929.473 561.132 929.473C564.109 929.473 566.403 928.209 568.014 925.68C569.625 923.151 570.442 919.514 570.465 914.769V912.52ZM619.31 918.529H600.309V938H588.526V889.121H621.223V898.219H600.309V909.465H619.31V918.529ZM656.909 918.529H637.908V938H626.125V889.121H658.822V898.219H637.908V909.465H656.909V918.529ZM694.038 917.287H675.507V928.936H697.395V938H663.724V889.121H697.462V898.219H675.507V908.525H694.038V917.287ZM720.357 920.745H713.979V938H702.195V889.121H721.431C727.228 889.121 731.76 890.408 735.027 892.982C738.295 895.556 739.929 899.192 739.929 903.892C739.929 907.294 739.235 910.114 737.847 912.352C736.482 914.59 734.334 916.403 731.402 917.791L741.607 937.496V938H728.985L720.357 920.745ZM713.979 911.647H721.431C723.669 911.647 725.348 911.065 726.467 909.901C727.608 908.715 728.179 907.07 728.179 904.967C728.179 902.863 727.608 901.218 726.467 900.032C725.325 898.823 723.647 898.219 721.431 898.219H713.979V911.647Z" fill="white"/>
</g>
<defs>
<clipPath id="clip0_271:349">
<rect width="1000" height="1000" fill="white"/>
</clipPath>
</defs>
</svg>
