<svg width="1000" height="1000" viewBox="0 0 1000 1000" fill="none" xmlns="http://www.w3.org/2000/svg">
<g clip-path="url(#clip0_271:370)">
<mask id="path-1-inside-1_271:370" fill="white">
<rect x="121.137" width="756.728" height="1000" rx="19.3757"/>
</mask>
<rect x="121.137" width="756.728" height="1000" rx="19.3757" stroke="#333333" stroke-width="40" mask="url(#path-1-inside-1_271:370)"/>
<rect x="188" y="366" width="624" height="634" rx="15.07" fill="#333333"/>
<rect x="216" y="394" width="567.92" height="567.92" rx="12.4437" fill="white"/>
<path d="M624.504 446.334H732.437V554.267" stroke="#C2C2C2" stroke-width="21.5866"/>
<path d="M376.258 446.334H268.325V554.267" stroke="#C2C2C2" stroke-width="21.5866"/>
<path d="M624.504 910.447H732.437V802.514" stroke="#C2C2C2" stroke-width="21.5866"/>
<path d="M376.258 910.447H268.325V802.514" stroke="#C2C2C2" stroke-width="21.5866"/>
<path d="M371.682 633.782L362.751 607.788L353.258 633.782H371.682ZM358.585 599.056H367.597L388.945 657.895H380.214L374.246 640.271H350.975L344.606 657.895H336.436L358.585 599.056ZM399.8 636.947C399.8 641.539 400.775 645.385 402.724 648.482C404.673 651.579 407.797 653.128 412.096 653.128C415.434 653.128 418.171 651.7 420.307 648.842C422.47 645.959 423.551 641.833 423.551 636.466C423.551 631.045 422.443 627.04 420.227 624.45C418.011 621.833 415.274 620.525 412.016 620.525C408.385 620.525 405.434 621.913 403.164 624.69C400.921 627.467 399.8 631.553 399.8 636.947ZM410.654 614.236C413.939 614.236 416.689 614.931 418.905 616.319C420.187 617.12 421.642 618.522 423.271 620.525V598.856H430.2V657.895H423.712V651.927C422.029 654.57 420.04 656.479 417.744 657.654C415.447 658.829 412.817 659.417 409.853 659.417C405.074 659.417 400.935 657.414 397.437 653.409C393.939 649.377 392.19 644.023 392.19 637.347C392.19 631.099 393.779 625.692 396.956 621.126C400.16 616.533 404.726 614.236 410.654 614.236ZM445.461 636.947C445.461 641.539 446.435 645.385 448.385 648.482C450.334 651.579 453.458 653.128 457.757 653.128C461.095 653.128 463.832 651.7 465.968 648.842C468.131 645.959 469.212 641.833 469.212 636.466C469.212 631.045 468.104 627.04 465.888 624.45C463.672 621.833 460.935 620.525 457.677 620.525C454.045 620.525 451.095 621.913 448.825 624.69C446.582 627.467 445.461 631.553 445.461 636.947ZM456.315 614.236C459.599 614.236 462.35 614.931 464.566 616.319C465.848 617.12 467.303 618.522 468.932 620.525V598.856H475.861V657.895H469.372V651.927C467.69 654.57 465.701 656.479 463.405 657.654C461.108 658.829 458.478 659.417 455.514 659.417C450.734 659.417 446.595 657.414 443.097 653.409C439.6 649.377 437.851 644.023 437.851 637.347C437.851 631.099 439.439 625.692 442.617 621.126C445.821 616.533 450.387 614.236 456.315 614.236ZM536.181 614.997H544.152C543.137 617.748 540.881 624.023 537.383 633.822C534.766 641.192 532.577 647.2 530.814 651.846C526.649 662.794 523.711 669.47 522.003 671.873C520.294 674.276 517.356 675.478 513.191 675.478C512.176 675.478 511.388 675.438 510.828 675.358C510.294 675.278 509.626 675.131 508.825 674.917V668.348C510.08 668.696 510.988 668.909 511.549 668.989C512.109 669.069 512.603 669.109 513.031 669.109C514.366 669.109 515.34 668.882 515.954 668.429C516.595 668.001 517.129 667.467 517.557 666.826C517.69 666.613 518.171 665.518 518.999 663.542C519.826 661.566 520.427 660.097 520.801 659.136L504.94 614.997H513.111L524.606 649.924L536.181 614.997ZM567.423 653.248C572.203 653.248 575.474 651.446 577.236 647.841C579.025 644.21 579.92 640.178 579.92 635.745C579.92 631.74 579.279 628.482 577.997 625.972C575.968 622.02 572.47 620.044 567.503 620.044C563.097 620.044 559.893 621.726 557.89 625.091C555.888 628.455 554.886 632.514 554.886 637.267C554.886 641.833 555.888 645.638 557.89 648.682C559.893 651.726 563.07 653.248 567.423 653.248ZM567.703 613.756C573.231 613.756 577.904 615.598 581.722 619.283C585.54 622.968 587.45 628.389 587.45 635.545C587.45 642.461 585.767 648.175 582.403 652.688C579.038 657.2 573.818 659.457 566.742 659.457C560.841 659.457 556.155 657.467 552.683 653.489C549.212 649.483 547.476 644.116 547.476 637.387C547.476 630.178 549.305 624.437 552.964 620.164C556.622 615.892 561.535 613.756 567.703 613.756ZM603.271 614.997V643.475C603.271 645.665 603.618 647.454 604.312 648.842C605.594 651.406 607.984 652.688 611.482 652.688C616.502 652.688 619.919 650.445 621.735 645.959C622.723 643.555 623.217 640.258 623.217 636.065V614.997H630.427V657.895H623.618L623.698 651.566C622.763 653.195 621.602 654.57 620.213 655.692C617.463 657.935 614.125 659.056 610.2 659.056C604.085 659.056 599.92 657.013 597.703 652.928C596.502 650.738 595.901 647.814 595.901 644.156V614.997H603.271ZM641.922 614.997H648.771V622.407C649.332 620.965 650.707 619.216 652.897 617.16C655.086 615.078 657.61 614.036 660.467 614.036C660.6 614.036 660.827 614.05 661.148 614.076C661.468 614.103 662.015 614.156 662.79 614.236V621.847C662.363 621.766 661.962 621.713 661.588 621.686C661.241 621.66 660.854 621.646 660.427 621.646C656.795 621.646 654.005 622.821 652.056 625.171C650.106 627.494 649.132 630.178 649.132 633.222V657.895H641.922V614.997Z" fill="#C2C2C2"/>
<path d="M372.405 755.117C369.762 755.998 366.598 756.439 362.913 756.439C355.222 756.439 348.867 754.143 343.847 749.55C337.759 744.023 334.715 735.905 334.715 725.197C334.715 714.41 337.839 706.252 344.088 700.725C349.188 696.212 355.53 693.956 363.113 693.956C370.75 693.956 377.158 696.346 382.339 701.125C388.32 706.653 391.311 714.383 391.311 724.316C391.311 729.577 390.67 733.983 389.388 737.534C388.347 740.925 386.811 743.742 384.782 745.985L391.591 752.354L385.142 759.083L378.013 752.354C375.85 753.662 373.981 754.583 372.405 755.117ZM369.762 744.463L363.794 738.776L370.162 732.127L376.13 737.814C377.065 735.892 377.719 734.209 378.093 732.768C378.68 730.605 378.974 728.081 378.974 725.197C378.974 718.575 377.612 713.462 374.889 709.857C372.192 706.226 368.24 704.41 363.033 704.41C358.146 704.41 354.248 706.145 351.337 709.617C348.427 713.088 346.972 718.282 346.972 725.197C346.972 733.288 349.054 739.083 353.22 742.581C355.917 744.85 359.148 745.985 362.913 745.985C364.328 745.985 365.69 745.812 366.998 745.464C367.719 745.278 368.64 744.944 369.762 744.463ZM425.836 731.646H413.1V754.797H401.043V695.758H430.002C434.141 695.838 437.318 696.346 439.535 697.28C441.778 698.215 443.674 699.59 445.222 701.406C446.504 702.901 447.519 704.557 448.266 706.372C449.014 708.188 449.388 710.258 449.388 712.581C449.388 715.384 448.68 718.148 447.265 720.872C445.85 723.569 443.513 725.478 440.256 726.599C442.979 727.694 444.902 729.256 446.023 731.286C447.172 733.288 447.746 736.359 447.746 740.498V744.463C447.746 747.16 447.852 748.989 448.066 749.95C448.386 751.472 449.134 752.594 450.309 753.315V754.797H436.731C436.357 753.488 436.09 752.434 435.93 751.633C435.609 749.977 435.436 748.282 435.409 746.546L435.329 741.059C435.276 737.294 434.581 734.784 433.246 733.529C431.938 732.274 429.468 731.646 425.836 731.646ZM433.326 720.912C435.783 719.79 437.011 717.574 437.011 714.263C437.011 710.685 435.823 708.282 433.447 707.053C432.111 706.359 430.109 706.012 427.439 706.012H413.1V721.873H427.078C429.855 721.873 431.938 721.553 433.326 720.912ZM519.721 726.8H508.026C507.812 725.171 507.265 723.702 506.384 722.394C505.102 720.631 503.113 719.75 500.416 719.75C496.571 719.75 493.94 721.659 492.525 725.478C491.778 727.507 491.404 730.204 491.404 733.569C491.404 736.773 491.778 739.35 492.525 741.299C493.887 744.93 496.45 746.746 500.215 746.746C502.886 746.746 504.782 746.025 505.903 744.583C507.024 743.141 507.705 741.272 507.946 738.976H519.601C519.334 742.447 518.079 745.731 515.836 748.829C512.258 753.822 506.958 756.319 499.935 756.319C492.912 756.319 487.746 754.236 484.434 750.071C481.123 745.905 479.468 740.498 479.468 733.849C479.468 726.346 481.297 720.511 484.955 716.346C488.613 712.18 493.66 710.097 500.095 710.097C505.569 710.097 510.042 711.326 513.513 713.782C517.011 716.239 519.081 720.578 519.721 726.8ZM564.02 716.666C567.705 721.286 569.548 726.746 569.548 733.048C569.548 739.456 567.705 744.944 564.02 749.51C560.335 754.049 554.741 756.319 547.238 756.319C539.735 756.319 534.141 754.049 530.456 749.51C526.771 744.944 524.928 739.456 524.928 733.048C524.928 726.746 526.771 721.286 530.456 716.666C534.141 712.047 539.735 709.737 547.238 709.737C554.741 709.737 560.335 712.047 564.02 716.666ZM547.198 719.39C543.86 719.39 541.283 720.578 539.468 722.955C537.679 725.304 536.784 728.669 536.784 733.048C536.784 737.427 537.679 740.805 539.468 743.181C541.283 745.558 543.86 746.746 547.198 746.746C550.536 746.746 553.099 745.558 554.888 743.181C556.677 740.805 557.572 737.427 557.572 733.048C557.572 728.669 556.677 725.304 554.888 722.955C553.099 720.578 550.536 719.39 547.198 719.39ZM617.491 695.838V754.797H606.397V748.749C604.768 751.339 602.912 753.221 600.829 754.396C598.747 755.571 596.156 756.159 593.059 756.159C587.959 756.159 583.66 754.103 580.162 749.99C576.691 745.852 574.955 740.551 574.955 734.089C574.955 726.639 576.664 720.778 580.082 716.506C583.526 712.234 588.119 710.097 593.86 710.097C596.504 710.097 598.853 710.685 600.909 711.86C602.965 713.008 604.634 714.61 605.916 716.666V695.838H617.491ZM586.731 733.248C586.731 737.28 587.532 740.498 589.134 742.901C590.709 745.331 593.112 746.546 596.343 746.546C599.574 746.546 602.031 745.344 603.713 742.941C605.395 740.538 606.237 737.427 606.237 733.609C606.237 728.268 604.888 724.45 602.191 722.153C600.536 720.765 598.613 720.071 596.423 720.071C593.086 720.071 590.629 721.339 589.054 723.876C587.505 726.386 586.731 729.51 586.731 733.248ZM665.275 741.98C664.981 744.57 663.633 747.2 661.23 749.87C657.491 754.116 652.258 756.239 645.529 756.239C639.975 756.239 635.075 754.45 630.829 750.872C626.584 747.294 624.461 741.472 624.461 733.408C624.461 725.852 626.37 720.057 630.188 716.025C634.033 711.993 639.013 709.977 645.128 709.977C648.76 709.977 652.031 710.658 654.941 712.02C657.852 713.382 660.255 715.531 662.151 718.469C663.86 721.059 664.968 724.063 665.475 727.481C665.769 729.483 665.889 732.367 665.836 736.132H635.956C636.116 740.511 637.491 743.582 640.082 745.344C641.657 746.439 643.553 746.986 645.769 746.986C648.119 746.986 650.028 746.319 651.497 744.984C652.298 744.263 653.005 743.262 653.62 741.98H665.275ZM653.98 728.602C653.793 725.585 652.872 723.302 651.216 721.753C649.588 720.177 647.558 719.39 645.128 719.39C642.485 719.39 640.429 720.218 638.96 721.873C637.518 723.529 636.61 725.772 636.236 728.602H653.98Z" fill="#C2C2C2"/>
<path d="M367.136 177.564L354.525 177.564L335.878 144.825L335.878 177.564L323.195 177.564L323.195 124.95L335.878 124.95L354.488 157.69L354.488 124.95L367.136 124.95L367.136 177.564ZM407.789 155.268L387.842 155.268L387.842 167.808L411.403 167.808L411.403 177.564L375.158 177.564L375.158 124.95L411.475 124.95L411.475 134.743L387.842 134.743L387.842 145.837L407.789 145.837L407.789 155.268ZM457.332 157.942L463.367 124.95L475.942 124.95L464.776 177.564L451.623 177.564L444.576 147.571L437.674 177.564L424.557 177.564L413.354 124.95L425.966 124.95L432.001 157.942L439.228 124.95L449.997 124.95L457.332 157.942ZM518.583 147.788L528.268 124.95L541.963 124.95L525.015 158.665L525.015 177.564L512.151 177.564L512.151 158.665L495.239 124.95L508.862 124.95L518.583 147.788ZM578.425 155.268L558.477 155.268L558.477 167.808L582.038 167.808L582.038 177.564L545.794 177.564L545.794 124.95L582.11 124.95L582.11 134.743L558.477 134.743L558.477 145.837L578.425 145.837L578.425 155.268ZM617.09 167.735L599.709 167.735L596.673 177.564L583.122 177.564L602.419 124.95L614.344 124.95L633.785 177.564L620.162 177.564L617.09 167.735ZM602.744 157.942L614.055 157.942L608.382 139.694L602.744 157.942ZM657.202 158.99L650.336 158.99L650.336 177.564L637.652 177.564L637.652 124.95L658.358 124.95C664.597 124.95 669.476 126.335 672.993 129.106C676.51 131.876 678.269 135.791 678.269 140.85C678.269 144.512 677.522 147.547 676.029 149.956C674.559 152.365 672.246 154.317 669.09 155.81L680.076 177.022L680.076 177.564L666.489 177.564L657.202 158.99ZM650.336 149.198L658.358 149.198C660.767 149.198 662.574 148.571 663.778 147.318C665.007 146.042 665.621 144.271 665.621 142.006C665.621 139.742 665.007 137.971 663.778 136.694C662.55 135.393 660.743 134.743 658.358 134.743L650.336 134.743L650.336 149.198Z" fill="#333333"/>
<path d="M609.781 94.392L608.757 91.2412L607.734 94.392L602.9 109.268L587.259 109.268L583.946 109.268L586.626 111.215L599.28 120.409L594.447 135.285L593.423 138.435L596.103 136.488L608.757 127.294L621.411 136.488L624.092 138.435L623.068 135.285L618.234 120.409L630.889 111.215L633.569 109.268L630.256 109.268L614.614 109.268L609.781 94.392Z" fill="white" stroke="#333333" stroke-width="2.15285"/>
<path d="M262.043 255.078C262.043 253.223 261.381 251.777 260.056 250.741C258.755 249.706 256.454 248.633 253.154 247.525C249.853 246.417 247.155 245.345 245.059 244.309C238.242 240.961 234.833 236.359 234.833 230.505C234.833 227.59 235.676 225.025 237.362 222.808C239.073 220.568 241.482 218.833 244.59 217.605C247.697 216.352 251.19 215.725 255.069 215.725C258.851 215.725 262.236 216.4 265.223 217.749C268.235 219.098 270.571 221.025 272.234 223.531C273.896 226.012 274.727 228.855 274.727 232.059L262.079 232.059C262.079 229.915 261.417 228.253 260.092 227.072C258.791 225.892 257.02 225.302 254.78 225.302C252.515 225.302 250.721 225.807 249.396 226.819C248.095 227.807 247.444 229.072 247.444 230.614C247.444 231.963 248.167 233.191 249.612 234.299C251.058 235.384 253.6 236.516 257.237 237.696C260.875 238.853 263.862 240.105 266.199 241.454C271.884 244.731 274.727 249.248 274.727 255.006C274.727 259.607 272.993 263.22 269.524 265.846C266.054 268.472 261.297 269.785 255.25 269.785C250.986 269.785 247.119 269.026 243.65 267.509C240.205 265.967 237.603 263.871 235.845 261.221C234.11 258.547 233.243 255.475 233.243 252.006L245.963 252.006C245.963 254.825 246.685 256.909 248.131 258.258C249.6 259.583 251.973 260.245 255.25 260.245C257.346 260.245 258.996 259.8 260.2 258.908C261.429 257.993 262.043 256.716 262.043 255.078ZM293.915 251.211L293.915 269.063L281.232 269.063L281.232 216.448L302.227 216.448C306.25 216.448 309.803 217.195 312.887 218.689C315.995 220.158 318.392 222.266 320.078 225.012C321.789 227.735 322.644 230.83 322.644 234.299C322.644 239.431 320.801 243.538 317.115 246.622C313.453 249.681 308.418 251.211 302.01 251.211L293.915 251.211ZM293.915 241.418L302.227 241.418C304.684 241.418 306.551 240.804 307.828 239.575C309.129 238.347 309.779 236.612 309.779 234.372C309.779 231.914 309.117 229.951 307.792 228.482C306.467 227.012 304.66 226.265 302.371 226.241L293.915 226.241L293.915 241.418ZM362.068 246.766L342.121 246.766L342.121 259.306L365.682 259.306L365.682 269.063L329.437 269.063L329.437 216.448L365.754 216.448L365.754 226.241L342.121 226.241L342.121 237.335L362.068 237.335L362.068 246.766ZM413.418 251.247C413.249 254.909 412.262 258.149 410.455 260.968C408.648 263.763 406.106 265.931 402.83 267.473C399.578 269.014 395.856 269.785 391.664 269.785C384.75 269.785 379.305 267.533 375.33 263.028C371.355 258.523 369.368 252.163 369.368 243.948L369.368 241.346C369.368 236.191 370.259 231.686 372.042 227.831C373.849 223.952 376.439 220.965 379.811 218.869C383.184 216.749 387.087 215.689 391.519 215.689C397.903 215.689 403.035 217.376 406.913 220.748C410.792 224.097 412.996 228.722 413.526 234.625L400.879 234.625C400.782 231.421 399.975 229.12 398.458 227.723C396.94 226.325 394.627 225.627 391.519 225.627C388.363 225.627 386.051 226.807 384.581 229.168C383.112 231.529 382.341 235.299 382.269 240.479L382.269 244.201C382.269 249.814 382.967 253.825 384.364 256.234C385.786 258.643 388.219 259.848 391.664 259.848C394.579 259.848 396.807 259.161 398.349 257.788C399.891 256.415 400.71 254.235 400.806 251.247L413.418 251.247ZM432.931 269.063L420.284 269.063L420.284 216.448L432.931 216.448L432.931 269.063ZM472.284 259.233L454.902 259.233L451.867 269.063L438.316 269.063L457.613 216.448L469.537 216.448L488.979 269.063L475.355 269.063L472.284 259.233ZM457.938 249.441L469.248 249.441L463.575 231.192L457.938 249.441ZM505.529 259.306L527.608 259.306L527.608 269.063L492.845 269.063L492.845 216.448L505.529 216.448L505.529 259.306ZM595.942 243.839C595.942 248.971 594.99 253.512 593.087 257.463C591.184 261.414 588.474 264.461 584.957 266.605C581.463 268.725 577.476 269.785 572.995 269.785C568.515 269.785 564.54 268.761 561.07 266.714C557.601 264.642 554.891 261.691 552.94 257.86C551.013 254.03 550.001 249.633 549.904 244.671L549.904 241.707C549.904 236.552 550.844 232.011 552.723 228.084C554.626 224.133 557.336 221.086 560.854 218.942C564.395 216.797 568.418 215.725 572.923 215.725C577.38 215.725 581.355 216.785 584.848 218.905C588.341 221.025 591.052 224.049 592.979 227.976C594.93 231.878 595.918 236.359 595.942 241.418L595.942 243.839ZM583.041 241.635C583.041 236.407 582.162 232.444 580.403 229.746C578.669 227.024 576.175 225.663 572.923 225.663C566.563 225.663 563.203 230.433 562.841 239.973L562.805 243.839C562.805 248.995 563.66 252.958 565.371 255.728C567.081 258.499 569.623 259.884 572.995 259.884C576.2 259.884 578.669 258.523 580.403 255.801C582.138 253.078 583.017 249.163 583.041 244.056L583.041 241.635ZM635.62 248.103L615.166 248.103L615.166 269.063L602.483 269.063L602.483 216.448L637.679 216.448L637.679 226.241L615.166 226.241L615.166 238.347L635.62 238.347L635.62 248.103ZM676.092 248.103L655.639 248.103L655.639 269.063L642.955 269.063L642.955 216.448L678.152 216.448L678.152 226.241L655.639 226.241L655.639 238.347L676.092 238.347L676.092 248.103ZM716.059 246.766L696.112 246.766L696.112 259.306L719.672 259.306L719.672 269.063L683.428 269.063L683.428 216.448L719.745 216.448L719.745 226.241L696.112 226.241L696.112 237.335L716.059 237.335L716.059 246.766ZM744.39 250.488L737.524 250.488L737.524 269.063L724.84 269.063L724.84 216.448L745.546 216.448C751.785 216.448 756.664 217.833 760.181 220.604C763.698 223.374 765.457 227.289 765.457 232.348C765.457 236.01 764.71 239.045 763.216 241.454C761.747 243.864 759.434 245.815 756.278 247.309L767.264 268.52L767.264 269.063L753.677 269.063L744.39 250.488ZM737.524 240.696L745.546 240.696C747.955 240.696 749.762 240.069 750.966 238.816C752.195 237.54 752.809 235.769 752.809 233.504C752.809 231.24 752.195 229.469 750.966 228.192C749.738 226.892 747.931 226.241 745.546 226.241L737.524 226.241L737.524 240.696Z" fill="#333333"/>
</g>
<defs>
<clipPath id="clip0_271:370">
<rect width="1000" height="1000" fill="white"/>
</clipPath>
</defs>
</svg>
