<svg width="1000" height="1000" viewBox="0 0 1000 1000" fill="none" xmlns="http://www.w3.org/2000/svg">
<rect x="124" width="753" height="770" rx="31" fill="#333333"/>
<rect x="680" y="805" width="197" height="195" rx="28" fill="#333333"/>
<rect x="124" y="805" width="536" height="195" rx="28" fill="#333333"/>
<path fill-rule="evenodd" clip-rule="evenodd" d="M779 848C793.587 848 807.576 853.795 817.891 864.109C828.205 874.424 834 888.413 834 903C834 917.587 828.205 931.576 817.891 941.891C807.576 952.205 793.587 958 779 958C764.413 958 750.424 952.205 740.109 941.891C729.795 931.576 724 917.587 724 903C724 888.413 729.795 874.424 740.109 864.109C750.424 853.795 764.413 848 779 848V848ZM820.411 881.846C814.984 871.295 805.749 863.2 794.578 859.203C798.335 866.311 801.051 873.926 802.642 881.846H820.411ZM825.335 907.188C825.471 905.796 825.539 904.399 825.538 903C825.53 898.706 824.923 894.434 823.736 890.308H803.919C804.19 893.108 804.385 895.926 804.385 898.769C804.367 904.454 803.783 910.123 802.642 915.692H823.736C824.54 912.908 825.073 910.065 825.344 907.188H825.335ZM795.424 907.188L795.475 906.757C795.763 904.104 795.913 901.438 795.923 898.769C795.866 895.939 795.652 893.114 795.28 890.308H762.72C762.345 893.114 762.131 895.939 762.077 898.769C762.098 904.466 762.759 910.143 764.048 915.692H793.952C794.603 912.883 795.094 910.048 795.424 907.188V907.188ZM793.799 881.846C791.806 872.897 788.208 864.382 783.18 856.715C781.792 856.597 780.405 856.462 779 856.462C778.119 856.466 777.238 856.508 776.36 856.588L774.82 856.715L774.769 856.8C769.768 864.445 766.188 872.929 764.201 881.846H793.799ZM755.358 881.846C756.982 873.932 759.734 866.292 763.532 859.161C752.312 863.144 743.034 871.258 737.589 881.846H755.358V881.846ZM734.264 890.308C733.078 894.435 732.472 898.706 732.462 903C732.472 907.294 733.078 911.565 734.264 915.692H755.358C754.211 910.124 753.627 904.454 753.615 898.769C753.615 895.926 753.81 893.108 754.081 890.308H734.264ZM757.567 924.154H737.598C740.796 930.402 745.363 935.848 750.958 940.086C756.553 944.324 763.032 947.246 769.912 948.633C764.497 941.197 760.327 932.929 757.567 924.154ZM779 946.526C784.411 939.834 788.64 932.268 791.506 924.154H766.494C769.36 932.268 773.589 939.834 779 946.526ZM800.433 924.154C797.673 932.929 793.503 941.197 788.088 948.633C794.968 947.245 801.446 944.323 807.041 940.084C812.636 935.846 817.203 930.401 820.402 924.154H800.433V924.154Z" fill="white"/>
<rect x="170" y="54" width="661" height="661" rx="9.6319" fill="white"/>
<path d="M644.734 118.879H770.168V244.313" stroke="#C2C2C2" stroke-width="23.8343"/>
<path d="M356.238 118.879H230.805V244.313" stroke="#C2C2C2" stroke-width="23.8343"/>
<path d="M644.734 658.24H770.168V532.806" stroke="#C2C2C2" stroke-width="23.8343"/>
<path d="M356.238 658.24H230.805V532.806" stroke="#C2C2C2" stroke-width="23.8343"/>
<path d="M358.797 334.057L348.935 305.356L338.454 334.057H358.797ZM344.336 295.715H354.286L377.858 360.68H368.217L361.627 341.221H335.933L328.902 360.68H319.88L344.336 295.715ZM389.842 337.551C389.842 342.622 390.918 346.867 393.071 350.287C395.223 353.707 398.672 355.417 403.419 355.417C407.104 355.417 410.126 353.84 412.485 350.685C414.873 347.501 416.067 342.946 416.067 337.02C416.067 331.035 414.843 326.613 412.396 323.753C409.949 320.864 406.927 319.419 403.331 319.419C399.321 319.419 396.063 320.952 393.557 324.018C391.081 327.084 389.842 331.595 389.842 337.551ZM401.827 312.476C405.453 312.476 408.49 313.242 410.937 314.775C412.352 315.66 413.959 317.208 415.757 319.419V295.494H423.408V360.68H416.244V354.09C414.386 357.009 412.19 359.117 409.655 360.414C407.119 361.712 404.215 362.36 400.942 362.36C395.665 362.36 391.095 360.149 387.233 355.727C383.371 351.275 381.44 345.364 381.44 337.993C381.44 331.094 383.194 325.124 386.702 320.082C390.24 315.011 395.282 312.476 401.827 312.476ZM440.257 337.551C440.257 342.622 441.334 346.867 443.486 350.287C445.638 353.707 449.087 355.417 453.834 355.417C457.519 355.417 460.541 353.84 462.9 350.685C465.288 347.501 466.482 342.946 466.482 337.02C466.482 331.035 465.259 326.613 462.812 323.753C460.365 320.864 457.343 319.419 453.746 319.419C449.736 319.419 446.478 320.952 443.972 324.018C441.496 327.084 440.257 331.595 440.257 337.551ZM452.242 312.476C455.868 312.476 458.905 313.242 461.352 314.775C462.767 315.66 464.374 317.208 466.173 319.419V295.494H473.823V360.68H466.659V354.09C464.802 357.009 462.605 359.117 460.07 360.414C457.534 361.712 454.63 362.36 451.358 362.36C446.08 362.36 441.51 360.149 437.648 355.727C433.786 351.275 431.855 345.364 431.855 337.993C431.855 331.094 433.609 325.124 437.118 320.082C440.655 315.011 445.697 312.476 452.242 312.476ZM540.424 313.316H549.225C548.105 316.353 545.613 323.281 541.751 334.101C538.862 342.238 536.444 348.872 534.498 354.002C529.899 366.09 526.656 373.46 524.769 376.114C522.882 378.767 519.639 380.094 515.04 380.094C513.92 380.094 513.05 380.05 512.431 379.961C511.841 379.873 511.104 379.711 510.219 379.475V372.222C511.605 372.605 512.608 372.841 513.227 372.93C513.846 373.018 514.391 373.062 514.863 373.062C516.337 373.062 517.413 372.812 518.091 372.311C518.799 371.839 519.389 371.249 519.86 370.542C520.008 370.306 520.538 369.097 521.452 366.915C522.366 364.734 523.03 363.112 523.442 362.051L505.93 313.316H514.951L527.644 351.879L540.424 313.316ZM574.919 355.55C580.196 355.55 583.808 353.56 585.754 349.58C587.729 345.57 588.717 341.118 588.717 336.224C588.717 331.802 588.009 328.205 586.594 325.433C584.353 321.07 580.491 318.888 575.007 318.888C570.143 318.888 566.605 320.746 564.394 324.46C562.182 328.175 561.077 332.657 561.077 337.904C561.077 342.946 562.182 347.147 564.394 350.508C566.605 353.869 570.113 355.55 574.919 355.55ZM575.228 311.945C581.331 311.945 586.491 313.979 590.707 318.048C594.923 322.117 597.031 328.101 597.031 336.003C597.031 343.639 595.173 349.948 591.459 354.931C587.744 359.913 581.98 362.404 574.167 362.404C567.651 362.404 562.477 360.208 558.645 355.815C554.812 351.393 552.895 345.467 552.895 338.037C552.895 330.077 554.915 323.738 558.954 319.021C562.993 314.304 568.418 311.945 575.228 311.945ZM614.499 313.316V344.759C614.499 347.177 614.883 349.152 615.649 350.685C617.064 353.515 619.703 354.931 623.565 354.931C629.108 354.931 632.882 352.454 634.886 347.501C635.977 344.848 636.523 341.206 636.523 336.578V313.316H644.483V360.68H636.965L637.053 353.692C636.021 355.491 634.739 357.009 633.206 358.247C630.169 360.724 626.484 361.962 622.15 361.962C615.398 361.962 610.799 359.707 608.352 355.196C607.025 352.778 606.362 349.55 606.362 345.511V313.316H614.499ZM657.175 313.316H664.737V321.497C665.357 319.905 666.875 317.974 669.292 315.704C671.71 313.404 674.496 312.255 677.651 312.255C677.798 312.255 678.049 312.269 678.403 312.299C678.756 312.328 679.361 312.387 680.216 312.476V320.878C679.744 320.79 679.302 320.731 678.889 320.701C678.506 320.672 678.078 320.657 677.607 320.657C673.597 320.657 670.516 321.954 668.364 324.549C666.212 327.114 665.135 330.077 665.135 333.438V360.68H657.175V313.316Z" fill="#C2C2C2"/>
<path d="M359.596 473.645C356.677 474.618 353.184 475.104 349.115 475.104C340.624 475.104 333.607 472.569 328.065 467.498C321.343 461.395 317.982 452.432 317.982 440.61C317.982 428.699 321.431 419.692 328.33 413.589C333.961 408.606 340.963 406.115 349.336 406.115C357.768 406.115 364.844 408.754 370.564 414.031C377.168 420.134 380.47 428.669 380.47 439.637C380.47 445.445 379.762 450.309 378.347 454.231C377.197 457.975 375.502 461.085 373.261 463.562L380.779 470.593L373.659 478.023L365.788 470.593C363.399 472.038 361.336 473.055 359.596 473.645ZM356.677 461.881L350.088 455.601L357.12 448.26L363.709 454.54C364.741 452.417 365.463 450.56 365.876 448.968C366.525 446.58 366.849 443.794 366.849 440.61C366.849 433.298 365.345 427.652 362.338 423.672C359.36 419.662 354.997 417.657 349.248 417.657C343.853 417.657 339.548 419.574 336.334 423.407C333.121 427.239 331.514 432.974 331.514 440.61C331.514 449.543 333.814 455.941 338.413 459.803C341.391 462.309 344.958 463.562 349.115 463.562C350.678 463.562 352.181 463.37 353.626 462.987C354.422 462.78 355.439 462.412 356.677 461.881ZM418.591 447.73H404.528V473.291H391.216V408.105H423.19C427.76 408.194 431.268 408.754 433.715 409.786C436.192 410.818 438.285 412.336 439.995 414.341C441.41 415.992 442.531 417.82 443.356 419.824C444.182 421.829 444.594 424.114 444.594 426.679C444.594 429.775 443.813 432.826 442.25 435.833C440.688 438.811 438.108 440.919 434.511 442.157C437.519 443.366 439.641 445.091 440.88 447.332C442.147 449.543 442.781 452.933 442.781 457.503V461.881C442.781 464.859 442.899 466.879 443.135 467.94C443.489 469.62 444.314 470.859 445.611 471.655V473.291H430.62C430.207 471.846 429.912 470.682 429.735 469.797C429.381 467.969 429.19 466.097 429.16 464.181L429.072 458.122C429.013 453.965 428.246 451.194 426.772 449.808C425.328 448.422 422.6 447.73 418.591 447.73ZM426.861 435.878C429.573 434.639 430.929 432.192 430.929 428.537C430.929 424.586 429.617 421.932 426.993 420.576C425.519 419.81 423.308 419.426 420.36 419.426H404.528V436.939H419.962C423.028 436.939 425.328 436.585 426.861 435.878ZM522.251 442.379H509.338C509.102 440.58 508.498 438.959 507.525 437.514C506.11 435.568 503.913 434.595 500.935 434.595C496.69 434.595 493.786 436.703 492.223 440.919C491.398 443.16 490.985 446.138 490.985 449.852C490.985 453.39 491.398 456.235 492.223 458.388C493.727 462.397 496.557 464.402 500.714 464.402C503.663 464.402 505.756 463.606 506.994 462.014C508.232 460.422 508.984 458.358 509.25 455.823H522.119C521.824 459.655 520.438 463.282 517.962 466.702C514.011 472.215 508.159 474.972 500.405 474.972C492.651 474.972 486.946 472.672 483.29 468.073C479.634 463.473 477.806 457.503 477.806 450.162C477.806 441.877 479.826 435.435 483.865 430.836C487.904 426.237 493.476 423.937 500.582 423.937C506.626 423.937 511.564 425.293 515.397 428.006C519.259 430.718 521.544 435.509 522.251 442.379ZM571.163 431.19C575.231 436.29 577.266 442.32 577.266 449.277C577.266 456.353 575.231 462.412 571.163 467.453C567.094 472.466 560.918 474.972 552.633 474.972C544.349 474.972 538.172 472.466 534.103 467.453C530.035 462.412 528 456.353 528 449.277C528 442.32 530.035 436.29 534.103 431.19C538.172 426.089 544.349 423.539 552.633 423.539C560.918 423.539 567.094 426.089 571.163 431.19ZM552.589 434.197C548.904 434.197 546.058 435.509 544.054 438.133C542.078 440.728 541.091 444.442 541.091 449.277C541.091 454.113 542.078 457.842 544.054 460.466C546.058 463.09 548.904 464.402 552.589 464.402C556.274 464.402 559.105 463.09 561.08 460.466C563.055 457.842 564.043 454.113 564.043 449.277C564.043 444.442 563.055 440.728 561.08 438.133C559.105 435.509 556.274 434.197 552.589 434.197ZM630.202 408.194V473.291H617.952V466.613C616.153 469.473 614.104 471.552 611.805 472.849C609.505 474.146 606.645 474.795 603.225 474.795C597.594 474.795 592.847 472.524 588.985 467.984C585.152 463.414 583.236 457.562 583.236 450.427C583.236 442.202 585.123 435.73 588.897 431.013C592.7 426.296 597.771 423.937 604.11 423.937C607.028 423.937 609.623 424.586 611.893 425.883C614.163 427.151 616.006 428.92 617.421 431.19V408.194H630.202ZM596.238 449.499C596.238 453.95 597.122 457.503 598.891 460.157C600.631 462.839 603.284 464.181 606.851 464.181C610.419 464.181 613.131 462.854 614.989 460.201C616.846 457.547 617.775 454.113 617.775 449.897C617.775 444 616.286 439.784 613.308 437.249C611.48 435.716 609.357 434.949 606.94 434.949C603.255 434.949 600.542 436.349 598.803 439.15C597.093 441.922 596.238 445.371 596.238 449.499ZM682.961 459.139C682.636 461.999 681.147 464.903 678.494 467.851C674.367 472.539 668.588 474.883 661.158 474.883C655.026 474.883 649.616 472.908 644.928 468.957C640.24 465.006 637.897 458.579 637.897 449.676C637.897 441.332 640.005 434.934 644.221 430.482C648.466 426.031 653.965 423.805 660.716 423.805C664.726 423.805 668.337 424.556 671.551 426.06C674.765 427.564 677.418 429.937 679.511 433.18C681.398 436.04 682.622 439.357 683.182 443.13C683.506 445.342 683.639 448.526 683.58 452.683H650.589C650.766 457.518 652.284 460.908 655.144 462.854C656.883 464.063 658.977 464.667 661.424 464.667C664.018 464.667 666.126 463.93 667.748 462.456C668.632 461.66 669.413 460.555 670.092 459.139H682.961ZM670.49 444.369C670.283 441.037 669.266 438.516 667.438 436.806C665.64 435.067 663.399 434.197 660.716 434.197C657.797 434.197 655.527 435.111 653.906 436.939C652.314 438.767 651.311 441.243 650.898 444.369H670.49Z" fill="#C2C2C2"/>
<path d="M259.948 915.426L268.616 869.61H281.838L267.554 934H254.199L243.718 890.926L233.237 934H219.881L205.597 869.61H218.82L227.532 915.338L238.145 869.61H249.378L259.948 915.426ZM327.787 906.095H302.314V923.342H332.209V934H289.047V869.61H332.121V880.357H302.314V895.702H327.787V906.095ZM339.993 934V869.61H362.547C370.36 869.61 376.286 871.114 380.325 874.121C384.364 877.099 386.384 881.477 386.384 887.255C386.384 890.41 385.573 893.196 383.951 895.614C382.33 898.002 380.074 899.756 377.185 900.876C380.487 901.702 383.082 903.368 384.968 905.874C386.885 908.38 387.843 911.446 387.843 915.072C387.843 921.264 385.868 925.951 381.917 929.135C377.966 932.319 372.335 933.941 365.023 934H339.993ZM353.26 905.962V923.342H364.625C367.751 923.342 370.183 922.605 371.922 921.131C373.691 919.627 374.576 917.563 374.576 914.94C374.576 909.043 371.524 906.051 365.421 905.962H353.26ZM353.26 896.587H363.078C369.77 896.469 373.116 893.801 373.116 888.582C373.116 885.663 372.261 883.57 370.551 882.302C368.871 881.005 366.203 880.357 362.547 880.357H353.26V896.587ZM431.227 917.107C431.227 914.6 430.342 912.684 428.573 911.357C426.804 910.001 423.62 908.586 419.021 907.112C414.421 905.608 410.78 904.134 408.097 902.69C400.786 898.739 397.13 893.417 397.13 886.725C397.13 883.246 398.103 880.15 400.049 877.438C402.024 874.696 404.84 872.558 408.495 871.025C412.181 869.492 416.308 868.726 420.878 868.726C425.477 868.726 429.575 869.566 433.172 871.246C436.769 872.897 439.555 875.241 441.531 878.278C443.535 881.315 444.538 884.764 444.538 888.626H431.271C431.271 885.678 430.342 883.393 428.485 881.772C426.627 880.121 424.018 879.295 420.657 879.295C417.414 879.295 414.893 879.988 413.095 881.374C411.296 882.73 410.397 884.528 410.397 886.769C410.397 888.862 411.444 890.616 413.537 892.032C415.66 893.447 418.77 894.773 422.868 896.012C430.416 898.282 435.914 901.097 439.364 904.458C442.813 907.82 444.538 912.006 444.538 917.018C444.538 922.59 442.43 926.968 438.214 930.153C433.998 933.307 428.322 934.884 421.188 934.884C416.235 934.884 411.724 933.985 407.655 932.187C403.587 930.359 400.476 927.868 398.324 924.713C396.201 921.558 395.14 917.903 395.14 913.745H408.451C408.451 920.851 412.697 924.403 421.188 924.403C424.342 924.403 426.804 923.77 428.573 922.502C430.342 921.205 431.227 919.406 431.227 917.107ZM467.667 934H454.4V869.61H467.667V934ZM527.148 880.357H507.424V934H494.157V880.357H474.699V869.61H527.148V880.357ZM573.494 906.095H548.022V923.342H577.917V934H534.754V869.61H577.828V880.357H548.022V895.702H573.494V906.095Z" fill="white"/>
</svg>
