<svg width="1000" height="1000" viewBox="0 0 1000 1000" fill="none" xmlns="http://www.w3.org/2000/svg">
<rect x="97" width="806" height="806" rx="40" fill="#333333"/>
<circle cx="500" cy="403" r="344" fill="white"/>
<rect x="276.738" y="179.738" width="445.718" height="445.718" rx="6.49488" fill="white"/>
<path d="M596.855 223.486H681.437V308.067" stroke="#C2C2C2" stroke-width="16.0717"/>
<path d="M402.32 223.486H317.739V308.067" stroke="#C2C2C2" stroke-width="16.0717"/>
<path d="M596.855 587.184H681.437V502.603" stroke="#C2C2C2" stroke-width="16.0717"/>
<path d="M402.32 587.184H317.739V502.603" stroke="#C2C2C2" stroke-width="16.0717"/>
<path d="M404.048 368.638L397.398 349.284L390.33 368.638H404.048ZM394.296 342.784H401.006L416.9 386.59H410.399L405.956 373.469H388.63L383.889 386.59H377.806L394.296 342.784ZM424.982 370.994C424.982 374.413 425.707 377.276 427.159 379.582C428.61 381.888 430.936 383.041 434.137 383.041C436.622 383.041 438.659 381.978 440.25 379.85C441.86 377.703 442.665 374.632 442.665 370.636C442.665 366.6 441.84 363.618 440.19 361.69C438.54 359.741 436.502 358.767 434.077 358.767C431.373 358.767 429.176 359.801 427.487 361.869C425.817 363.936 424.982 366.978 424.982 370.994ZM433.063 354.086C435.508 354.086 437.556 354.602 439.206 355.636C440.16 356.233 441.244 357.276 442.456 358.767V342.634H447.615V386.59H442.784V382.147C441.532 384.115 440.051 385.536 438.341 386.411C436.632 387.286 434.673 387.723 432.467 387.723C428.908 387.723 425.827 386.232 423.222 383.25C420.618 380.248 419.316 376.262 419.316 371.292C419.316 366.64 420.499 362.614 422.864 359.215C425.25 355.795 428.65 354.086 433.063 354.086ZM458.977 370.994C458.977 374.413 459.703 377.276 461.154 379.582C462.605 381.888 464.931 383.041 468.132 383.041C470.617 383.041 472.655 381.978 474.245 379.85C475.855 377.703 476.661 374.632 476.661 370.636C476.661 366.6 475.836 363.618 474.185 361.69C472.535 359.741 470.498 358.767 468.072 358.767C465.369 358.767 463.172 359.801 461.482 361.869C459.812 363.936 458.977 366.978 458.977 370.994ZM467.058 354.086C469.504 354.086 471.551 354.602 473.201 355.636C474.156 356.233 475.239 357.276 476.452 358.767V342.634H481.611V386.59H476.78V382.147C475.527 384.115 474.046 385.536 472.337 386.411C470.627 387.286 468.669 387.723 466.462 387.723C462.903 387.723 459.822 386.232 457.218 383.25C454.613 380.248 453.311 376.262 453.311 371.292C453.311 366.64 454.494 362.614 456.86 359.215C459.245 355.795 462.645 354.086 467.058 354.086ZM526.52 354.652H532.455C531.699 356.7 530.019 361.372 527.415 368.668C525.467 374.155 523.837 378.628 522.524 382.087C519.423 390.238 517.236 395.208 515.964 396.997C514.692 398.786 512.505 399.681 509.403 399.681C508.648 399.681 508.062 399.651 507.644 399.592C507.246 399.532 506.749 399.423 506.153 399.264V394.373C507.087 394.631 507.763 394.79 508.181 394.85C508.598 394.91 508.966 394.94 509.284 394.94C510.278 394.94 511.004 394.771 511.461 394.433C511.938 394.115 512.336 393.717 512.654 393.24C512.753 393.081 513.111 392.266 513.727 390.795C514.344 389.323 514.791 388.23 515.069 387.514L503.26 354.652H509.344L517.902 380.656L526.52 354.652ZM549.78 383.131C553.339 383.131 555.774 381.789 557.086 379.105C558.418 376.401 559.084 373.399 559.084 370.099C559.084 367.117 558.607 364.692 557.653 362.823C556.142 359.881 553.538 358.409 549.84 358.409C546.56 358.409 544.174 359.662 542.683 362.167C541.192 364.672 540.447 367.694 540.447 371.232C540.447 374.632 541.192 377.465 542.683 379.731C544.174 381.997 546.54 383.131 549.78 383.131ZM549.989 353.728C554.104 353.728 557.583 355.099 560.426 357.843C563.269 360.586 564.691 364.622 564.691 369.95C564.691 375.099 563.438 379.353 560.933 382.713C558.428 386.073 554.542 387.753 549.273 387.753C544.88 387.753 541.391 386.272 538.806 383.31C536.222 380.328 534.93 376.332 534.93 371.322C534.93 365.954 536.292 361.68 539.015 358.499C541.739 355.318 545.397 353.728 549.989 353.728ZM576.47 354.652V375.854C576.47 377.485 576.728 378.817 577.245 379.85C578.199 381.759 579.979 382.713 582.583 382.713C586.32 382.713 588.865 381.043 590.217 377.703C590.953 375.914 591.32 373.459 591.32 370.338V354.652H596.688V386.59H591.619L591.678 381.878C590.982 383.091 590.118 384.115 589.084 384.95C587.036 386.62 584.551 387.455 581.629 387.455C577.076 387.455 573.975 385.934 572.325 382.892C571.43 381.262 570.983 379.085 570.983 376.361V354.652H576.47ZM605.247 354.652H610.346V360.169C610.763 359.095 611.787 357.793 613.417 356.262C615.048 354.712 616.926 353.936 619.053 353.936C619.153 353.936 619.322 353.946 619.56 353.966C619.799 353.986 620.206 354.026 620.783 354.086V359.751C620.465 359.692 620.167 359.652 619.888 359.632C619.63 359.612 619.342 359.602 619.024 359.602C616.32 359.602 614.242 360.477 612.791 362.227C611.34 363.956 610.614 365.954 610.614 368.22V386.59H605.247V354.652Z" fill="#C2C2C2"/>
<path d="M404.587 462.762C402.619 463.418 400.263 463.746 397.52 463.746C391.794 463.746 387.063 462.036 383.325 458.617C378.793 454.502 376.526 448.458 376.526 440.486C376.526 432.454 378.852 426.381 383.504 422.266C387.301 418.906 392.023 417.226 397.669 417.226C403.355 417.226 408.126 419.005 411.983 422.564C416.436 426.679 418.663 432.435 418.663 439.83C418.663 443.746 418.185 447.027 417.231 449.671C416.456 452.196 415.313 454.293 413.802 455.963L418.871 460.704L414.07 465.714L408.762 460.704C407.152 461.679 405.76 462.364 404.587 462.762ZM402.619 454.83L398.176 450.595L402.917 445.645L407.361 449.88C408.056 448.448 408.543 447.196 408.822 446.122C409.259 444.512 409.478 442.633 409.478 440.486C409.478 435.556 408.464 431.749 406.436 429.065C404.428 426.361 401.486 425.009 397.609 425.009C393.971 425.009 391.069 426.301 388.902 428.886C386.735 431.47 385.651 435.337 385.651 440.486C385.651 446.51 387.202 450.824 390.303 453.428C392.311 455.118 394.717 455.963 397.52 455.963C398.574 455.963 399.587 455.834 400.562 455.575C401.098 455.436 401.784 455.188 402.619 454.83ZM444.368 445.287H434.885V462.523H425.909V418.568H447.469C450.551 418.628 452.916 419.005 454.566 419.701C456.236 420.397 457.648 421.421 458.801 422.773C459.755 423.886 460.511 425.119 461.067 426.47C461.624 427.822 461.902 429.363 461.902 431.093C461.902 433.18 461.375 435.238 460.322 437.265C459.268 439.273 457.529 440.695 455.103 441.53C457.131 442.345 458.562 443.508 459.397 445.019C460.252 446.51 460.68 448.796 460.68 451.878V454.83C460.68 456.838 460.759 458.199 460.918 458.915C461.157 460.048 461.713 460.883 462.588 461.42V462.523H452.479C452.201 461.549 452.002 460.764 451.883 460.168C451.644 458.935 451.515 457.673 451.495 456.38L451.435 452.295C451.396 449.492 450.879 447.623 449.885 446.689C448.911 445.754 447.072 445.287 444.368 445.287ZM449.944 437.295C451.773 436.46 452.688 434.81 452.688 432.345C452.688 429.681 451.803 427.892 450.034 426.977C449.04 426.461 447.549 426.202 445.561 426.202H434.885V438.011H445.292C447.36 438.011 448.911 437.772 449.944 437.295ZM514.267 441.679H505.56C505.4 440.466 504.993 439.373 504.337 438.399C503.383 437.087 501.902 436.431 499.894 436.431C497.031 436.431 495.073 437.852 494.019 440.695C493.462 442.206 493.184 444.214 493.184 446.719C493.184 449.104 493.462 451.023 494.019 452.474C495.033 455.178 496.941 456.53 499.745 456.53C501.733 456.53 503.144 455.993 503.979 454.919C504.814 453.846 505.321 452.454 505.5 450.744H514.178C513.979 453.329 513.044 455.774 511.374 458.08C508.711 461.798 504.764 463.657 499.536 463.657C494.307 463.657 490.46 462.106 487.995 459.005C485.53 455.903 484.297 451.878 484.297 446.927C484.297 441.341 485.659 436.997 488.383 433.896C491.107 430.794 494.864 429.244 499.655 429.244C503.731 429.244 507.06 430.158 509.645 431.987C512.249 433.816 513.79 437.047 514.267 441.679ZM547.249 434.134C549.992 437.574 551.364 441.639 551.364 446.331C551.364 451.102 549.992 455.188 547.249 458.587C544.505 461.967 540.34 463.657 534.754 463.657C529.167 463.657 525.002 461.967 522.259 458.587C519.515 455.188 518.144 451.102 518.144 446.331C518.144 441.639 519.515 437.574 522.259 434.134C525.002 430.695 529.167 428.975 534.754 428.975C540.34 428.975 544.505 430.695 547.249 434.134ZM534.724 436.162C532.239 436.162 530.32 437.047 528.969 438.816C527.637 440.566 526.971 443.071 526.971 446.331C526.971 449.591 527.637 452.106 528.969 453.875C530.32 455.645 532.239 456.53 534.724 456.53C537.209 456.53 539.117 455.645 540.449 453.875C541.781 452.106 542.447 449.591 542.447 446.331C542.447 443.071 541.781 440.566 540.449 438.816C539.117 437.047 537.209 436.162 534.724 436.162ZM587.059 418.628V462.523H578.799V458.021C577.586 459.949 576.204 461.35 574.654 462.225C573.103 463.1 571.175 463.537 568.868 463.537C565.071 463.537 561.871 462.007 559.266 458.945C556.682 455.864 555.39 451.917 555.39 447.106C555.39 441.56 556.662 437.196 559.207 434.015C561.771 430.834 565.191 429.244 569.465 429.244C571.433 429.244 573.182 429.681 574.713 430.556C576.244 431.411 577.487 432.604 578.441 434.134V418.628H587.059ZM564.157 446.48C564.157 449.482 564.753 451.878 565.946 453.667C567.119 455.476 568.908 456.38 571.314 456.38C573.719 456.38 575.548 455.486 576.801 453.697C578.053 451.907 578.679 449.591 578.679 446.748C578.679 442.772 577.675 439.929 575.667 438.22C574.435 437.186 573.004 436.669 571.373 436.669C568.888 436.669 567.059 437.613 565.886 439.502C564.733 441.371 564.157 443.697 564.157 446.48ZM622.635 452.981C622.416 454.909 621.412 456.867 619.623 458.856C616.84 462.016 612.943 463.597 607.933 463.597C603.798 463.597 600.15 462.265 596.989 459.601C593.828 456.937 592.248 452.603 592.248 446.599C592.248 440.973 593.669 436.659 596.512 433.657C599.375 430.655 603.082 429.154 607.635 429.154C610.339 429.154 612.774 429.661 614.941 430.675C617.108 431.689 618.897 433.289 620.309 435.476C621.581 437.405 622.406 439.641 622.784 442.186C623.003 443.677 623.092 445.824 623.052 448.627H600.806C600.925 451.887 601.949 454.174 603.878 455.486C605.051 456.301 606.462 456.708 608.112 456.708C609.862 456.708 611.283 456.211 612.377 455.217C612.973 454.681 613.5 453.935 613.957 452.981H622.635ZM614.225 443.021C614.086 440.774 613.4 439.075 612.168 437.922C610.955 436.749 609.444 436.162 607.635 436.162C605.667 436.162 604.136 436.778 603.043 438.011C601.969 439.244 601.293 440.914 601.015 443.021H614.225Z" fill="#C2C2C2"/>
<rect x="657.172" y="136.807" width="157.976" height="28.21" rx="12.896" transform="rotate(-45 657.172 136.807)" fill="#333333" stroke="white" stroke-width="6"/>
<rect x="333.266" y="662.855" width="157.976" height="28.21" rx="12.896" transform="rotate(135 333.266 662.855)" fill="#333333" stroke="white" stroke-width="6"/>
<rect x="699.344" y="178.98" width="233.74" height="28.21" rx="12.896" transform="rotate(-45 699.344 178.98)" fill="#333333" stroke="white" stroke-width="6"/>
<rect x="291.09" y="620.68" width="233.74" height="28.21" rx="12.896" transform="rotate(135 291.09 620.68)" fill="#333333" stroke="white" stroke-width="6"/>
<rect x="741.52" y="221.156" width="157.976" height="28.21" rx="12.896" transform="rotate(-45 741.52 221.156)" fill="#333333" stroke="white" stroke-width="6"/>
<rect x="248.914" y="578.506" width="157.976" height="28.21" rx="12.896" transform="rotate(135 248.914 578.506)" fill="#333333" stroke="white" stroke-width="6"/>
<rect x="97" y="829" width="806" height="171" rx="30" fill="#333333"/>
<path d="M176.134 927.427L188.541 886.258H201.099L182.037 941H170.269L151.282 886.258H163.802L176.134 927.427ZM218.281 941H207.001V886.258H218.281V941ZM257.157 926.638C257.157 924.507 256.405 922.878 254.901 921.75C253.397 920.597 250.69 919.394 246.78 918.141C242.87 916.862 239.774 915.609 237.493 914.381C231.277 911.022 228.169 906.498 228.169 900.808C228.169 897.85 228.996 895.219 230.65 892.913C232.33 890.582 234.723 888.764 237.832 887.461C240.965 886.158 244.474 885.506 248.359 885.506C252.269 885.506 255.753 886.22 258.811 887.649C261.869 889.053 264.238 891.045 265.917 893.627C267.621 896.209 268.474 899.141 268.474 902.425H257.194C257.194 899.918 256.405 897.976 254.826 896.597C253.247 895.194 251.028 894.492 248.171 894.492C245.414 894.492 243.271 895.081 241.742 896.259C240.213 897.412 239.448 898.941 239.448 900.846C239.448 902.625 240.338 904.117 242.118 905.32C243.922 906.523 246.567 907.651 250.051 908.704C256.467 910.634 261.142 913.027 264.075 915.885C267.007 918.742 268.474 922.301 268.474 926.562C268.474 931.3 266.681 935.022 263.097 937.729C259.513 940.411 254.688 941.752 248.622 941.752C244.411 941.752 240.576 940.987 237.117 939.458C233.658 937.904 231.014 935.786 229.184 933.104C227.379 930.423 226.477 927.314 226.477 923.78H237.794C237.794 929.821 241.403 932.841 248.622 932.841C251.304 932.841 253.397 932.302 254.901 931.225C256.405 930.122 257.157 928.593 257.157 926.638ZM288.137 941H276.858V886.258H288.137V941ZM338.706 895.394H321.938V941H310.658V895.394H294.115V886.258H338.706V895.394ZM407.059 914.87C407.059 920.259 406.106 924.983 404.201 929.044C402.296 933.104 399.564 936.238 396.005 938.443C392.471 940.649 388.41 941.752 383.823 941.752C379.286 941.752 375.238 940.662 371.679 938.481C368.12 936.3 365.363 933.192 363.408 929.157C361.453 925.096 360.463 920.434 360.438 915.17V912.463C360.438 907.074 361.403 902.337 363.333 898.251C365.288 894.141 368.032 890.995 371.566 888.814C375.126 886.609 379.186 885.506 383.748 885.506C388.31 885.506 392.358 886.609 395.892 888.814C399.451 890.995 402.196 894.141 404.126 898.251C406.081 902.337 407.059 907.062 407.059 912.426V914.87ZM395.629 912.388C395.629 906.648 394.601 902.287 392.546 899.304C390.491 896.321 387.558 894.83 383.748 894.83C379.963 894.83 377.043 896.309 374.988 899.267C372.932 902.199 371.892 906.51 371.867 912.2V914.87C371.867 920.459 372.895 924.795 374.95 927.878C377.006 930.961 379.963 932.503 383.823 932.503C387.608 932.503 390.516 931.024 392.546 928.066C394.576 925.084 395.604 920.747 395.629 915.058V912.388ZM456.688 886.258V922.314C456.688 928.305 454.808 933.042 451.048 936.526C447.313 940.01 442.2 941.752 435.708 941.752C429.316 941.752 424.241 940.06 420.481 936.676C416.721 933.292 414.804 928.643 414.729 922.728V886.258H426.008V922.389C426.008 925.973 426.86 928.593 428.564 930.247C430.294 931.876 432.675 932.691 435.708 932.691C442.049 932.691 445.27 929.357 445.371 922.69V886.258H456.688ZM486.202 920.96H477.216V941H465.937V886.258H486.277C492.744 886.258 497.732 887.699 501.241 890.582C504.75 893.464 506.504 897.537 506.504 902.801C506.504 906.535 505.69 909.656 504.061 912.163C502.456 914.644 500.013 916.624 496.729 918.103L508.572 940.474V941H496.466L486.202 920.96ZM477.216 911.824H486.314C489.147 911.824 491.34 911.11 492.894 909.681C494.448 908.227 495.225 906.235 495.225 903.703C495.225 901.121 494.486 899.091 493.007 897.612C491.553 896.133 489.31 895.394 486.277 895.394H477.216V911.824ZM576.925 925.209L584.294 886.258H595.536L583.392 941H572.037L563.126 904.38L554.216 941H542.861L530.717 886.258H541.959L549.366 925.134L558.389 886.258H567.939L576.925 925.209ZM634.6 917.276H612.943V931.939H638.359V941H601.664V886.258H638.284V895.394H612.943V908.44H634.6V917.276ZM644.977 941V886.258H664.151C670.794 886.258 675.832 887.536 679.266 890.093C682.7 892.624 684.417 896.347 684.417 901.259C684.417 903.941 683.727 906.31 682.349 908.365C680.97 910.396 679.053 911.887 676.596 912.839C679.403 913.541 681.609 914.957 683.213 917.088C684.843 919.218 685.657 921.825 685.657 924.908C685.657 930.172 683.978 934.157 680.619 936.864C677.26 939.571 672.473 940.95 666.257 941H644.977ZM656.256 917.163V931.939H665.918C668.575 931.939 670.643 931.312 672.122 930.059C673.626 928.781 674.378 927.026 674.378 924.795C674.378 919.782 671.784 917.238 666.595 917.163H656.256ZM656.256 909.192H664.603C670.292 909.092 673.137 906.824 673.137 902.387C673.137 899.906 672.41 898.126 670.957 897.048C669.528 895.945 667.259 895.394 664.151 895.394H656.256V909.192ZM722.541 926.638C722.541 924.507 721.789 922.878 720.285 921.75C718.781 920.597 716.074 919.394 712.164 918.141C708.253 916.862 705.158 915.609 702.877 914.381C696.661 911.022 693.553 906.498 693.553 900.808C693.553 897.85 694.38 895.219 696.034 892.913C697.714 890.582 700.107 888.764 703.215 887.461C706.348 886.158 709.858 885.506 713.743 885.506C717.653 885.506 721.137 886.22 724.195 887.649C727.253 889.053 729.621 891.045 731.301 893.627C733.005 896.209 733.857 899.141 733.857 902.425H722.578C722.578 899.918 721.789 897.976 720.209 896.597C718.63 895.194 716.412 894.492 713.555 894.492C710.798 894.492 708.654 895.081 707.125 896.259C705.597 897.412 704.832 898.941 704.832 900.846C704.832 902.625 705.722 904.117 707.501 905.32C709.306 906.523 711.951 907.651 715.435 908.704C721.851 910.634 726.526 913.027 729.458 915.885C732.391 918.742 733.857 922.301 733.857 926.562C733.857 931.3 732.065 935.022 728.481 937.729C724.897 940.411 720.072 941.752 714.006 941.752C709.795 941.752 705.96 940.987 702.501 939.458C699.042 937.904 696.398 935.786 694.568 933.104C692.763 930.423 691.861 927.314 691.861 923.78H703.178C703.178 929.821 706.787 932.841 714.006 932.841C716.688 932.841 718.781 932.302 720.285 931.225C721.789 930.122 722.541 928.593 722.541 926.638ZM753.521 941H742.242V886.258H753.521V941ZM804.09 895.394H787.321V941H776.042V895.394H759.499V886.258H804.09V895.394ZM843.492 917.276H821.836V931.939H847.252V941H810.557V886.258H847.177V895.394H821.836V908.44H843.492V917.276Z" fill="white"/>
</svg>
