<svg width="1000" height="1001" viewBox="0 0 1000 1001" fill="none" xmlns="http://www.w3.org/2000/svg">
<rect width="1000" height="1001" rx="20" fill="#333333"/>
<path d="M60.7562 697.544C57.6824 699.18 63.8301 703.841 66.309 702.899C90.4535 694.123 117.374 674.193 130.909 652.031C136.065 643.653 137.057 632.993 129.075 626.003C121.242 619.161 109.492 619.954 99.9725 621.938C75.2826 626.995 50.0474 645.438 39.8343 668.789C29.4724 692.586 40.8754 714.153 58.4261 730.662C64.5737 736.463 74.1919 742.115 77.1666 750.295C80.8354 760.707 71.1676 767.896 62.6898 771.564C59.7647 772.853 52.5263 776.423 51.0389 773.498C49.7995 770.87 54.7573 767.201 56.3438 765.565C60.3596 761.351 64.6233 758.079 69.2837 754.658C71.6138 753.022 66.8543 749.601 64.9704 750.444C57.2362 753.766 47.8163 759.368 43.6518 767.053C40.2309 773.3 43.8501 779.497 50.5927 781.133C60.0126 783.413 73.4482 776.522 79.9925 770.325C88.2721 762.442 86.5864 752.031 79.8934 743.701C71.4651 733.24 59.5168 726.547 51.6339 715.392C42.0653 701.907 41.0241 686.092 48.1634 671.268C54.3607 658.477 65.2183 648.065 76.9683 640.331C88.1234 632.993 103.74 625.408 117.573 627.044C145.138 630.366 108.599 665.368 100.865 672.011C88.6191 682.522 74.9356 689.959 60.7562 697.544ZM141.37 731.406C136.363 736.612 131.008 741.421 125.109 745.635C119.011 749.998 101.708 761.649 102.947 745.685C103.344 740.033 105.674 732.745 109.442 726.052C115.044 716.186 118.961 713.409 120.349 712.368C126.299 707.807 130.761 714.302 128.331 719.061C127.736 721.143 131.703 723.424 132.248 721.54C134.479 714.153 131.554 706.171 122.481 707.162C109.144 708.551 99.2784 727.241 97.1466 737.256C94.5685 749.105 98.0886 758.327 110.136 758.327C119.358 758.327 137.007 740.925 143.552 732.695C145.039 730.811 142.758 729.968 141.37 731.406ZM166.358 739.487C166.011 742.859 166.457 746.18 169.084 748.461C179.05 757.187 189.759 737.306 193.626 730.662C194.369 729.324 191.742 728.183 190.899 729.572C188.073 734.182 180.636 746.081 174.885 744.495C172.208 743.801 173.398 739.438 174.241 736.265C176.819 726.795 181.628 717.97 185.644 709.096C186.833 706.716 180.14 705.328 178.802 707.708C177.314 710.385 175.926 713.013 174.588 715.69C174.786 709.988 171.811 705.03 163.978 706.914C150.443 710.187 138.148 731.059 136.66 743.85C135.421 754.559 145.089 758.525 153.17 752.328C157.979 748.61 162.342 744.247 166.358 739.487ZM144.494 749.7C139.288 745.585 149.6 729.373 153.319 724.416C162.738 711.872 166.903 711.575 168.539 713.26C170.026 714.748 167.696 719.606 166.953 720.995C166.159 722.333 167.746 725.952 169.58 726.101C168.787 727.291 167.994 728.431 167.101 729.671C163.78 734.282 150.393 754.262 144.494 749.7ZM236.164 729.522C236.759 728.63 229.471 739.041 223.67 743.354C218.216 747.42 215.787 742.859 217.175 737.603C219.456 728.927 227.041 716.334 226.298 710.137C226.05 708.203 223.62 706.964 222.877 706.716C216.729 704.634 200.319 727.589 197.641 731.406C200.467 724.961 203.888 718.714 206.714 712.071C207.656 709.79 203.045 705.526 201.756 707.609C194.369 719.458 188.073 733.637 186.635 747.668C186.437 749.8 191.097 751.336 192.237 749.651C197.294 742.313 202.103 734.827 207.359 727.638C208.449 726.151 213.903 718.615 218.018 713.955C214.399 725.506 202.798 741.867 213.506 748.411C224.86 755.352 237.552 731.753 237.701 730.266C238.444 728.927 237.056 728.233 236.164 729.522Z" fill="white"/>
<path d="M148.687 822.094C135.351 819.218 120.725 819.417 107.091 819.02C105.108 818.97 103.076 818.97 101.092 818.921C106.249 810.393 107.637 809.253 111.454 800.279C112.297 798.346 107.785 795.718 106.447 797.206C99.1093 805.485 97.5724 808.608 92.3171 818.822C82.5006 818.822 72.6841 819.02 62.8677 819.466C34.8065 820.805 24.0976 820.606 8.82751 825.911C6.69565 826.506 10.1165 829.035 11.3064 828.886C27.7168 827.597 37.5828 825.763 66.0903 824.374C73.9732 824.027 81.9057 823.829 89.7886 823.73C88.6979 825.862 87.6567 827.944 86.566 829.977C78.6831 845.098 71.4943 860.566 65.1483 876.382C59.4468 890.561 54.3898 905.236 53.0512 920.506C52.3075 929.53 52.4563 938.999 62.2232 942.321C65.644 943.511 64.9995 939.693 62.2727 938.999C53.7453 936.818 63.1651 903.898 64.4542 899.584C68.2221 887.041 73.3782 874.944 78.6831 862.996C84.0375 850.948 89.8878 839.049 96.1346 827.448C96.8287 826.209 97.5228 824.969 98.2169 823.73C101.687 823.779 105.158 823.829 108.579 823.879C122.56 824.226 136.789 826.605 150.671 826.01C154.191 825.862 150.125 822.391 148.687 822.094ZM106.447 881.736C105.505 881.835 104.662 881.885 103.819 881.835C101.043 881.736 98.9605 881.191 97.6219 880.15C97.027 879.704 96.3825 879.059 95.738 878.117C95.0439 877.175 94.6473 876.332 94.5977 875.489L96.8783 870.482C98.0186 868.301 99.3076 866.317 100.745 864.533C102.976 863.194 105.257 862.649 107.488 862.897C109.719 863.144 111.058 864.681 111.454 867.458C111.603 870.779 110.81 874.151 108.975 877.572C108.133 879.059 107.29 880.447 106.447 881.736ZM103.323 885.702C103.175 885.851 103.026 886.05 102.877 886.198C101.985 887.19 100.993 888.181 99.9521 889.173C98.8614 890.214 97.7211 891.007 96.5312 891.652C94.1019 892.792 92.565 892.99 91.8213 892.197C91.0776 891.454 90.8297 890.214 91.0776 888.528C91.3255 886.843 91.623 885.207 92.0692 883.67C92.1188 883.372 92.2179 883.075 92.2675 882.827C92.3171 882.678 92.4162 882.629 92.565 882.678C92.7137 882.728 92.9616 882.877 93.2095 883.124C93.854 883.769 94.8951 884.413 96.4321 885.008C98.6631 885.653 100.993 885.901 103.323 885.702ZM113.09 881.637C115.173 878.117 116.362 875.489 116.759 873.754C117.503 870.135 117.255 867.111 116.065 864.632C114.826 862.153 112.991 860.368 110.562 859.228C108.133 858.137 105.406 857.84 102.431 858.286C101.638 857.74 100.845 857.443 100.002 857.344C99.1589 857.245 98.5143 857.493 98.0681 858.137C97.6715 858.782 97.2253 859.525 96.68 860.269L96.3825 860.467C96.1842 860.517 95.9859 860.616 95.7875 860.765C93.8044 861.955 92.1188 863.491 90.7802 865.375C89.4415 867.309 89.0945 869.243 89.7886 871.275C87.9542 874.498 86.5164 877.72 85.4753 880.993C84.3846 884.265 84.0871 887.289 84.6325 890.115C85.1778 892.941 86.9131 895.221 89.9373 897.056C92.9616 898.692 95.9363 898.89 98.911 897.651C101.836 896.411 104.563 894.329 107.091 891.404C109.372 888.776 110.859 886.644 111.504 885.058C115.817 884.711 120.279 883.174 124.89 880.447C125.534 879.951 125.832 879.555 125.782 879.257C125.733 879.009 125.485 878.811 125.088 878.712C124.692 878.613 124.245 878.613 123.799 878.662C123.353 878.712 123.006 878.861 122.808 879.009C120.18 880.15 116.957 880.993 113.09 881.637ZM203.917 849.61C195.34 855.361 188.796 863.491 182.748 871.771C179.773 875.886 176.997 880.1 174.27 884.364C173.129 886.149 169.609 893.189 166.585 897.353C167.13 889.669 171.493 880.993 173.576 874.498C174.964 870.284 177.79 863.987 176.947 859.525C175.162 850.304 167.329 855.609 163.115 859.525C161.479 860.963 165.594 863.293 167.031 862.351C167.478 862.004 172.336 858.286 172.435 858.335C172.485 858.385 170.105 866.367 169.857 867.259C168.568 871.92 166.833 876.431 165.346 880.993C163.313 887.239 160.983 894.329 161.33 899.188C161.429 900.774 164.305 904.393 165.693 904.443C169.014 904.542 169.659 902.509 171.444 899.931C175.261 894.527 178.434 888.727 182.103 883.273C189.589 871.969 198.414 862.252 207.437 852.138C208.727 850.651 205.206 848.767 203.917 849.61ZM204.116 896.114C204.661 899.237 205.702 900.873 209.222 901.27C219.634 902.757 230.045 887.041 235.499 877.175C237.184 876.679 236.689 873.457 234.805 874.002C226.624 885.802 217.651 897.651 211.156 896.808C210.66 897.006 209.173 895.866 209.569 892.445C210.561 883.868 214.031 870.978 220.576 864.632C223.154 862.153 214.527 856.551 213.783 860.269C212.693 865.524 202.281 885.802 204.116 896.114ZM217.353 852.237C220.328 850.75 222.361 847.825 225.236 846.139C226.971 845.098 223.005 842.817 221.815 843.214C218.345 844.404 213.833 845.445 211.701 848.767C211.007 849.907 212.693 851.295 213.436 851.791C214.626 852.485 216.064 852.882 217.353 852.237ZM281.904 876.828C274.021 873.506 259.792 878.216 251.711 883.67C247.249 879.257 241.151 874.795 241.2 867.854C241.25 862.252 245.315 857.145 249.827 854.32C252.801 852.485 262.122 847.726 266.039 849.857C270.65 852.336 266.336 860.913 263.015 864.483C261.577 866.02 264.006 870.185 265.295 869.044C272.038 862.897 278.185 849.808 266.138 846.04C254.586 842.371 237.383 850.452 234.854 862.698C233.069 871.474 241.696 879.158 247.943 886.496C242.737 890.512 238.325 894.974 235.598 899.783C229.946 909.847 239.812 916.986 249.281 912.524C261.676 906.724 261.676 896.461 255.032 887.537C262.221 881.389 274.269 876.431 281.805 879.307C283.49 878.315 283.193 876.283 281.904 876.828ZM246.852 907.418C245.216 908.459 240.506 910.789 239.267 907.566C238.672 905.881 241.498 901.121 242.539 899.634C244.968 896.263 247.992 893.437 251.165 890.71C254.933 896.362 255.578 901.815 246.852 907.418ZM276.004 896.114C276.549 899.237 277.591 900.873 281.111 901.27C291.522 902.757 301.933 887.041 307.387 877.175C309.073 876.679 308.577 873.457 306.693 874.002C298.513 885.802 289.539 897.651 283.044 896.808C282.548 897.006 281.061 895.866 281.458 892.445C282.449 883.868 285.92 870.978 292.464 864.632C295.042 862.153 286.415 856.551 285.672 860.269C284.581 865.524 274.17 885.802 276.004 896.114ZM289.241 852.237C292.216 850.75 294.249 847.825 297.124 846.139C298.86 845.098 294.893 842.817 293.703 843.214C290.233 844.404 285.721 845.445 283.589 848.767C282.895 849.907 284.581 851.295 285.325 851.791C286.515 852.485 287.952 852.882 289.241 852.237ZM390.728 822.094C377.391 819.218 362.766 819.417 349.132 819.02C347.149 818.97 345.116 818.97 343.133 818.921C348.289 810.393 349.677 809.253 353.495 800.279C354.337 798.346 349.826 795.718 348.487 797.206C341.15 805.485 339.613 808.608 334.357 818.822C324.541 818.822 314.725 819.02 304.908 819.466C276.847 820.805 266.138 820.606 250.868 825.911C248.736 826.506 252.157 829.035 253.347 828.886C269.757 827.597 279.623 825.763 308.131 824.374C316.014 824.027 323.946 823.829 331.829 823.73C330.738 825.862 329.697 827.944 328.606 829.977C320.723 845.098 313.535 860.566 307.189 876.382C301.487 890.561 296.43 905.236 295.092 920.506C294.348 929.53 294.497 938.999 304.264 942.321C307.684 943.511 307.04 939.693 304.313 938.999C295.786 936.818 305.206 903.898 306.495 899.584C310.263 887.041 315.419 874.944 320.723 862.996C326.078 850.948 331.928 839.049 338.175 827.448C338.869 826.209 339.563 824.969 340.257 823.73C343.728 823.779 347.198 823.829 350.619 823.879C364.6 824.226 378.829 826.605 392.711 826.01C396.231 825.862 392.166 822.391 390.728 822.094ZM382.994 881.736C382.052 881.835 381.209 881.885 380.366 881.835C377.59 881.736 375.507 881.191 374.169 880.15C373.574 879.704 372.929 879.059 372.285 878.117C371.591 877.175 371.194 876.332 371.144 875.489L373.425 870.482C374.565 868.301 375.854 866.317 377.292 864.533C379.523 863.194 381.804 862.649 384.035 862.897C386.266 863.144 387.604 864.681 388.001 867.458C388.15 870.779 387.356 874.151 385.522 877.572C384.679 879.059 383.836 880.447 382.994 881.736ZM379.87 885.702C379.721 885.851 379.573 886.05 379.424 886.198C378.532 887.19 377.54 888.181 376.499 889.173C375.408 890.214 374.268 891.007 373.078 891.652C370.649 892.792 369.112 892.99 368.368 892.197C367.624 891.454 367.377 890.214 367.624 888.528C367.872 886.843 368.17 885.207 368.616 883.67C368.666 883.372 368.765 883.075 368.814 882.827C368.864 882.678 368.963 882.629 369.112 882.678C369.26 882.728 369.508 882.877 369.756 883.124C370.401 883.769 371.442 884.413 372.979 885.008C375.21 885.653 377.54 885.901 379.87 885.702ZM389.637 881.637C391.719 878.117 392.909 875.489 393.306 873.754C394.05 870.135 393.802 867.111 392.612 864.632C391.372 862.153 389.538 860.368 387.109 859.228C384.679 858.137 381.952 857.84 378.978 858.286C378.185 857.74 377.391 857.443 376.548 857.344C375.706 857.245 375.061 857.493 374.615 858.137C374.218 858.782 373.772 859.525 373.227 860.269L372.929 860.467C372.731 860.517 372.533 860.616 372.334 860.765C370.351 861.955 368.666 863.491 367.327 865.375C365.988 867.309 365.641 869.243 366.335 871.275C364.501 874.498 363.063 877.72 362.022 880.993C360.931 884.265 360.634 887.289 361.179 890.115C361.725 892.941 363.46 895.221 366.484 897.056C369.508 898.692 372.483 898.89 375.458 897.651C378.383 896.411 381.11 894.329 383.638 891.404C385.919 888.776 387.406 886.644 388.051 885.058C392.364 884.711 396.826 883.174 401.437 880.447C402.081 879.951 402.379 879.555 402.329 879.257C402.28 879.009 402.032 878.811 401.635 878.712C401.238 878.613 400.792 878.613 400.346 878.662C399.9 878.712 399.553 878.861 399.354 879.009C396.727 880.15 393.504 880.993 389.637 881.637ZM446.107 877.72C443.876 881.935 433.315 896.114 429.696 894.379C426.325 892.792 428.605 886.694 429.895 882.678C433.167 873.11 434.307 869.937 437.728 860.418C438.62 857.988 432.82 855.212 431.977 857.493C430.142 860.715 427.465 865.871 425.284 871.523C418.095 884.513 408.031 898.196 403.866 894.577C401.982 892.941 405.502 883.571 405.998 882.182C408.526 874.597 411.699 867.309 414.922 859.971C415.765 858.087 411.055 855.658 410.063 857.542C406.692 863.789 387.505 897.899 403.321 900.08C410.41 901.072 416.905 890.115 420.772 885.355C421.169 884.909 421.516 884.413 421.912 883.967C421.268 889.173 421.912 893.833 424.937 896.907C434.109 906.129 445.264 884.81 448.338 878.811C448.982 877.472 446.801 876.382 446.107 877.72ZM482.1 855.261C464.351 851.593 457.559 866.664 451.064 880.844C453.395 871.474 457.014 862.5 459.741 855.261C460.336 853.576 455.031 854.815 454.089 856.303C454.089 856.303 441.347 883.323 441.942 897.849C442.041 900.08 447.148 901.915 448.536 900.13C459.096 887.041 461.674 858.087 482.993 858.087C485.918 858.087 483.687 855.559 482.1 855.261ZM562.466 853.03C554.98 864.979 547.147 878.712 540.9 891.354C539.859 893.337 536.735 900.08 534.554 899.485C533.463 899.138 533.364 896.362 533.513 893.635C533.909 886.595 535.744 880.497 536.537 873.457C536.735 871.622 532.62 868.747 531.53 870.482C529.051 874.597 526.522 878.712 523.994 882.827C522.556 885.157 521.069 888.677 519.036 891.305C519.333 887.041 521.019 882.48 522.159 879.059C523.052 876.531 526.374 865.425 529.398 865.128C532.125 864.88 528.952 862.351 527.811 862.103C518.491 859.922 513.731 888.281 515.268 894.428C515.665 895.816 517.4 898.543 518.788 897.948C522.754 896.362 523.796 893.635 526.076 889.917C527.365 887.884 528.605 885.95 529.844 884.017C529.2 890.859 528.753 898.147 529.844 901.022C530.538 902.956 534.108 907.071 536.686 906.029C542.536 903.65 549.576 882.331 566.681 855.162C567.623 853.625 563.458 851.494 562.466 853.03ZM593.354 876.878C588.297 881.687 576.646 897.849 566.829 896.808C563.954 896.51 562.764 892.743 562.962 890.759C563.508 884.909 565.937 879.158 569.06 874.399C570.002 883.967 591.321 875.093 591.916 866.912C592.114 863.64 590.131 858.038 585.322 856.898C579.125 855.46 573.175 859.773 569.011 863.839C561.376 871.325 548.485 892.495 562.268 901.022C572.184 907.12 590.329 885.554 595.833 878.315C597.171 876.481 594.841 875.489 593.354 876.878ZM578.827 864.136C583.785 860.963 588.941 860.318 585.471 866.565C584.677 868.003 577.588 875.341 573.77 875.043C572.184 874.894 570.548 873.605 569.705 873.457C572.531 869.342 575.853 866.02 578.827 864.136ZM633.71 865.425C641.296 861.607 648.98 860.517 655.921 862.5C658.648 863.244 657.26 860.566 655.525 860.12C648.385 858.286 640.75 859.129 633.462 861.955C632.57 855.906 629.248 851.692 622.307 852.237C613.631 852.931 607.583 863.194 603.567 869.937C601.286 873.804 599.303 877.869 597.419 881.935C606.641 848.122 622.853 816.888 632.967 795.768C633.71 794.181 629.843 792.198 628.951 793.685C621.266 806.13 612.342 824.176 604.013 845.346C596.13 865.276 589.685 885.901 586.661 907.17C586.363 908.905 590.825 911.136 591.718 909.302C597.469 897.105 601.683 884.116 608.574 872.515C612.193 866.417 616.655 858.633 624.34 857.691C627.563 857.294 629.843 858.98 629.446 862.996C629.446 863.144 629.397 863.392 629.347 863.789C619.035 868.895 609.913 877.82 604.905 888.231C602.426 893.387 602.823 898.494 607.533 899.882C613.482 901.617 620.324 899.535 626.621 889.52C630.686 883.124 633.76 873.358 633.71 865.425ZM615.416 893.09C612.59 895.122 607.136 898.047 609.07 891.999C610.161 888.429 613.681 882.579 616.011 879.852C619.977 875.192 624.241 871.424 628.554 868.499C627.116 875.489 623.497 887.339 615.416 893.09ZM689.932 876.828C682.049 873.506 667.82 878.216 659.739 883.67C655.277 879.257 649.179 874.795 649.228 867.854C649.278 862.252 653.343 857.145 657.855 854.32C660.829 852.485 670.15 847.726 674.067 849.857C678.678 852.336 674.364 860.913 671.043 864.483C669.605 866.02 672.034 870.185 673.323 869.044C680.066 862.897 686.213 849.808 674.166 846.04C662.614 842.371 645.411 850.452 642.882 862.698C641.097 871.474 649.724 879.158 655.971 886.496C650.765 890.512 646.353 894.974 643.626 899.783C637.974 909.847 647.84 916.986 657.309 912.524C669.704 906.724 669.704 896.461 663.06 887.537C670.249 881.389 682.297 876.431 689.833 879.307C691.518 878.315 691.221 876.283 689.932 876.828ZM654.88 907.418C653.244 908.459 648.534 910.789 647.295 907.566C646.7 905.881 649.526 901.121 650.567 899.634C652.996 896.263 656.02 893.437 659.193 890.71C662.961 896.362 663.606 901.815 654.88 907.418ZM684.032 896.114C684.577 899.237 685.619 900.873 689.139 901.27C699.55 902.757 709.961 887.041 715.415 877.175C717.101 876.679 716.605 873.457 714.721 874.002C706.54 885.802 697.567 897.651 691.072 896.808C690.576 897.006 689.089 895.866 689.486 892.445C690.477 883.868 693.948 870.978 700.492 864.632C703.07 862.153 694.443 856.551 693.7 860.269C692.609 865.524 682.198 885.802 684.032 896.114ZM697.269 852.237C700.244 850.75 702.277 847.825 705.152 846.139C706.888 845.098 702.921 842.817 701.731 843.214C698.261 844.404 693.749 845.445 691.617 848.767C690.923 849.907 692.609 851.295 693.353 851.791C694.543 852.485 695.98 852.882 697.269 852.237ZM798.756 822.094C785.419 819.218 770.794 819.417 757.16 819.02C755.177 818.97 753.144 818.97 751.161 818.921C756.317 810.393 757.705 809.253 761.523 800.279C762.365 798.346 757.854 795.718 756.515 797.206C749.178 805.485 747.641 808.608 742.385 818.822C732.569 818.822 722.753 819.02 712.936 819.466C684.875 820.805 674.166 820.606 658.896 825.911C656.764 826.506 660.185 829.035 661.375 828.886C677.785 827.597 687.651 825.763 716.159 824.374C724.042 824.027 731.974 823.829 739.857 823.73C738.766 825.862 737.725 827.944 736.634 829.977C728.751 845.098 721.563 860.566 715.217 876.382C709.515 890.561 704.458 905.236 703.12 920.506C702.376 929.53 702.525 938.999 712.292 942.321C715.712 943.511 715.068 939.693 712.341 938.999C703.814 936.818 713.233 903.898 714.523 899.584C718.29 887.041 723.447 874.944 728.751 862.996C734.106 850.948 739.956 839.049 746.203 827.448C746.897 826.209 747.591 824.969 748.285 823.73C751.756 823.779 755.226 823.829 758.647 823.879C772.628 824.226 786.857 826.605 800.739 826.01C804.259 825.862 800.194 822.391 798.756 822.094ZM769.951 876.878C764.894 881.687 753.243 897.849 743.427 896.808C740.551 896.51 739.361 892.743 739.56 890.759C740.105 884.909 742.534 879.158 745.658 874.399C746.6 883.967 767.918 875.093 768.513 866.912C768.711 863.64 766.728 858.038 761.919 856.898C755.722 855.46 749.773 859.773 745.608 863.839C737.973 871.325 725.083 892.495 738.865 901.022C748.781 907.12 766.927 885.554 772.43 878.315C773.768 876.481 771.438 875.489 769.951 876.878ZM755.425 864.136C760.382 860.963 765.538 860.318 762.068 866.565C761.275 868.003 754.185 875.341 750.368 875.043C748.781 874.894 747.145 873.605 746.302 873.457C749.128 869.342 752.45 866.02 755.425 864.136Z" fill="white"/>
<rect x="266" y="70" width="686" height="686" rx="13" fill="white"/>
<path d="M766.783 118.02H903.983V255.22" stroke="#C2C2C2" stroke-width="27.44"/>
<path d="M451.219 118.02H314.019V255.22" stroke="#C2C2C2" stroke-width="27.44"/>
<path d="M766.783 707.98H903.983V570.78" stroke="#C2C2C2" stroke-width="27.44"/>
<path d="M451.219 707.98H314.019V570.78" stroke="#C2C2C2" stroke-width="27.44"/>
<path d="M445.896 356.356L434.542 323.312L422.476 356.356H445.896ZM429.247 312.213H440.703L467.84 387.006H456.741L449.155 364.604H419.573L411.478 387.006H401.092L429.247 312.213ZM481.638 360.378C481.638 366.216 482.877 371.104 485.354 375.041C487.832 378.978 491.804 380.947 497.268 380.947C501.511 380.947 504.99 379.131 507.706 375.499C510.455 371.833 511.83 366.589 511.83 359.767C511.83 352.876 510.421 347.785 507.604 344.493C504.787 341.166 501.308 339.503 497.167 339.503C492.55 339.503 488.8 341.268 485.915 344.798C483.063 348.328 481.638 353.521 481.638 360.378ZM495.435 331.51C499.61 331.51 503.106 332.392 505.924 334.157C507.553 335.175 509.403 336.957 511.473 339.503V311.959H520.281V387.006H512.033V379.42C509.895 382.78 507.366 385.207 504.447 386.7C501.528 388.194 498.185 388.941 494.417 388.941C488.341 388.941 483.08 386.395 478.634 381.303C474.187 376.178 471.964 369.373 471.964 360.887C471.964 352.944 473.984 346.071 478.023 340.267C482.096 334.429 487.9 331.51 495.435 331.51ZM539.68 360.378C539.68 366.216 540.919 371.104 543.396 375.041C545.874 378.978 549.846 380.947 555.31 380.947C559.553 380.947 563.032 379.131 565.748 375.499C568.497 371.833 569.872 366.589 569.872 359.767C569.872 352.876 568.463 347.785 565.646 344.493C562.829 341.166 559.35 339.503 555.209 339.503C550.592 339.503 546.842 341.268 543.957 344.798C541.105 348.328 539.68 353.521 539.68 360.378ZM553.477 331.51C557.652 331.51 561.149 332.392 563.966 334.157C565.595 335.175 567.445 336.957 569.515 339.503V311.959H578.324V387.006H570.075V379.42C567.937 382.78 565.408 385.207 562.489 386.7C559.57 388.194 556.227 388.941 552.459 388.941C546.383 388.941 541.122 386.395 536.676 381.303C532.229 376.178 530.006 369.373 530.006 360.887C530.006 352.944 532.026 346.071 536.065 340.267C540.138 334.429 545.942 331.51 553.477 331.51ZM655 332.477H665.132C663.842 335.973 660.974 343.95 656.528 356.407C653.201 365.775 650.418 373.412 648.178 379.318C642.883 393.234 639.149 401.72 636.977 404.775C634.804 407.83 631.07 409.357 625.775 409.357C624.486 409.357 623.484 409.306 622.772 409.204C622.093 409.103 621.244 408.916 620.226 408.644V400.294C621.821 400.736 622.975 401.007 623.688 401.109C624.401 401.211 625.029 401.262 625.572 401.262C627.269 401.262 628.508 400.973 629.289 400.396C630.103 399.853 630.782 399.174 631.325 398.36C631.495 398.088 632.106 396.697 633.158 394.185C634.21 391.673 634.974 389.806 635.449 388.584L615.287 332.477H625.674L640.286 376.874L655 332.477ZM694.713 381.1C700.789 381.1 704.947 378.809 707.187 374.226C709.461 369.61 710.598 364.485 710.598 358.85C710.598 353.759 709.784 349.618 708.154 346.427C705.575 341.404 701.128 338.892 694.815 338.892C689.214 338.892 685.141 341.03 682.596 345.307C680.05 349.584 678.777 354.743 678.777 360.785C678.777 366.589 680.05 371.426 682.596 375.296C685.141 379.165 689.18 381.1 694.713 381.1ZM695.069 330.899C702.096 330.899 708.036 333.241 712.889 337.925C717.743 342.609 720.17 349.499 720.17 358.596C720.17 367.387 718.032 374.651 713.755 380.387C709.478 386.123 702.842 388.992 693.848 388.992C686.346 388.992 680.389 386.463 675.977 381.405C671.564 376.314 669.358 369.491 669.358 360.938C669.358 351.773 671.683 344.476 676.333 339.045C680.983 333.614 687.229 330.899 695.069 330.899ZM740.281 332.477V368.677C740.281 371.46 740.722 373.734 741.605 375.499C743.234 378.758 746.272 380.387 750.719 380.387C757.1 380.387 761.444 377.536 763.753 371.833C765.008 368.779 765.636 364.587 765.636 359.258V332.477H774.801V387.006H766.146L766.247 378.961C765.059 381.032 763.583 382.78 761.818 384.206C758.322 387.057 754.079 388.482 749.089 388.482C741.316 388.482 736.021 385.886 733.204 380.693C731.677 377.909 730.913 374.192 730.913 369.542V332.477H740.281ZM789.413 332.477H798.12V341.896C798.832 340.063 800.58 337.84 803.364 335.226C806.147 332.579 809.355 331.255 812.986 331.255C813.156 331.255 813.445 331.272 813.852 331.306C814.259 331.34 814.955 331.408 815.939 331.51V341.183C815.396 341.081 814.887 341.013 814.412 340.98C813.971 340.946 813.479 340.929 812.936 340.929C808.319 340.929 804.772 342.422 802.294 345.409C799.817 348.362 798.578 351.773 798.578 355.643V387.006H789.413V332.477Z" fill="#C2C2C2"/>
<path d="M446.814 510.585C443.454 511.705 439.432 512.265 434.748 512.265C424.972 512.265 416.894 509.346 410.513 503.508C402.774 496.482 398.904 486.163 398.904 472.552C398.904 458.839 402.875 448.47 410.818 441.444C417.301 435.707 425.363 432.839 435.002 432.839C444.71 432.839 452.856 435.877 459.441 441.953C467.044 448.979 470.846 458.805 470.846 471.432C470.846 478.119 470.031 483.719 468.402 488.234C467.078 492.544 465.126 496.125 462.547 498.977L471.202 507.072L463.005 515.626L453.942 507.072C451.193 508.735 448.817 509.906 446.814 510.585ZM443.454 497.042L435.868 489.812L443.963 481.36L451.549 488.59C452.737 486.146 453.569 484.008 454.044 482.175C454.791 479.426 455.164 476.218 455.164 472.552C455.164 464.134 453.433 457.634 449.971 453.052C446.543 448.436 441.519 446.128 434.9 446.128C428.689 446.128 423.733 448.334 420.034 452.747C416.334 457.159 414.484 463.761 414.484 472.552C414.484 482.837 417.131 490.202 422.426 494.649C425.855 497.534 429.962 498.977 434.748 498.977C436.547 498.977 438.278 498.756 439.941 498.315C440.857 498.077 442.028 497.653 443.454 497.042ZM514.734 480.749H498.543V510.178H483.218V435.13H520.029C525.29 435.232 529.329 435.877 532.146 437.065C534.997 438.253 537.407 440.001 539.376 442.309C541.005 444.21 542.295 446.315 543.246 448.623C544.196 450.931 544.671 453.561 544.671 456.514C544.671 460.078 543.772 463.591 541.973 467.054C540.174 470.482 537.204 472.909 533.063 474.334C536.525 475.726 538.969 477.712 540.394 480.291C541.854 482.837 542.584 486.74 542.584 492.001V497.042C542.584 500.47 542.719 502.795 542.991 504.017C543.398 505.952 544.349 507.377 545.842 508.294V510.178H528.582C528.107 508.515 527.768 507.174 527.564 506.156C527.157 504.051 526.936 501.896 526.902 499.689L526.8 492.714C526.732 487.928 525.85 484.738 524.153 483.142C522.49 481.547 519.35 480.749 514.734 480.749ZM524.255 467.104C527.377 465.679 528.939 462.862 528.939 458.653C528.939 454.104 527.428 451.05 524.407 449.488C522.71 448.606 520.164 448.164 516.77 448.164H498.543V468.326H516.312C519.842 468.326 522.49 467.919 524.255 467.104ZM634.076 474.589H619.209C618.938 472.518 618.242 470.651 617.122 468.988C615.493 466.748 612.964 465.628 609.536 465.628C604.648 465.628 601.305 468.055 599.506 472.909C598.555 475.488 598.08 478.917 598.08 483.193C598.08 487.266 598.555 490.542 599.506 493.02C601.237 497.636 604.495 499.944 609.281 499.944C612.675 499.944 615.085 499.028 616.511 497.195C617.936 495.362 618.802 492.986 619.107 490.067H633.923C633.584 494.479 631.989 498.654 629.138 502.592C624.589 508.939 617.852 512.112 608.925 512.112C599.998 512.112 593.43 509.465 589.221 504.17C585.012 498.875 582.908 492.001 582.908 483.55C582.908 474.012 585.233 466.595 589.883 461.3C594.533 456.005 600.948 453.358 609.128 453.358C616.087 453.358 621.772 454.919 626.185 458.042C630.631 461.164 633.262 466.68 634.076 474.589ZM690.387 461.708C695.071 467.58 697.413 474.521 697.413 482.531C697.413 490.678 695.071 497.653 690.387 503.457C685.703 509.227 678.592 512.112 669.054 512.112C659.516 512.112 652.405 509.227 647.721 503.457C643.037 497.653 640.695 490.678 640.695 482.531C640.695 474.521 643.037 467.58 647.721 461.708C652.405 455.835 659.516 452.899 669.054 452.899C678.592 452.899 685.703 455.835 690.387 461.708ZM669.003 465.17C664.76 465.17 661.485 466.68 659.177 469.701C656.903 472.688 655.766 476.965 655.766 482.531C655.766 488.098 656.903 492.392 659.177 495.413C661.485 498.434 664.76 499.944 669.003 499.944C673.246 499.944 676.505 498.434 678.779 495.413C681.053 492.392 682.19 488.098 682.19 482.531C682.19 476.965 681.053 472.688 678.779 469.701C676.505 466.68 673.246 465.17 669.003 465.17ZM758.357 435.232V510.178H744.254V502.49C742.184 505.782 739.825 508.175 737.177 509.669C734.53 511.162 731.237 511.909 727.3 511.909C720.817 511.909 715.352 509.295 710.906 504.068C706.493 498.807 704.287 492.069 704.287 483.855C704.287 474.385 706.459 466.935 710.804 461.504C715.182 456.073 721.02 453.358 728.318 453.358C731.678 453.358 734.665 454.104 737.279 455.598C739.893 457.057 742.014 459.094 743.643 461.708V435.232H758.357ZM719.255 482.786C719.255 487.911 720.274 492.001 722.31 495.056C724.313 498.145 727.368 499.689 731.475 499.689C735.582 499.689 738.705 498.162 740.843 495.107C742.981 492.052 744.051 488.098 744.051 483.244C744.051 476.456 742.336 471.602 738.908 468.683C736.804 466.918 734.36 466.035 731.577 466.035C727.334 466.035 724.211 467.648 722.208 470.872C720.24 474.063 719.255 478.034 719.255 482.786ZM819.098 493.885C818.725 497.178 817.01 500.521 813.956 503.915C809.204 509.312 802.551 512.011 793.997 512.011C786.937 512.011 780.709 509.736 775.312 505.188C769.915 500.64 767.217 493.24 767.217 482.99C767.217 473.384 769.643 466.018 774.497 460.893C779.385 455.768 785.715 453.205 793.488 453.205C798.104 453.205 802.262 454.07 805.962 455.802C809.662 457.533 812.717 460.265 815.127 463.999C817.299 467.291 818.708 471.11 819.353 475.454C819.726 478 819.879 481.666 819.811 486.452H781.829C782.032 492.018 783.781 495.922 787.073 498.162C789.076 499.554 791.486 500.249 794.303 500.249C797.29 500.249 799.717 499.401 801.583 497.704C802.602 496.787 803.501 495.514 804.282 493.885H819.098ZM804.74 476.88C804.503 473.044 803.332 470.142 801.227 468.174C799.157 466.171 796.577 465.17 793.488 465.17C790.128 465.17 787.514 466.222 785.647 468.326C783.814 470.431 782.66 473.282 782.185 476.88H804.74Z" fill="#C2C2C2"/>
</svg>
