<svg width="2000" height="1000" viewBox="0 0 2000 1000" fill="none" xmlns="http://www.w3.org/2000/svg">
<rect x="960" width="1040" height="1000" rx="15" fill="#333333"/>
<rect x="1087" y="107" width="786" height="786" rx="14.895" fill="white"/>
<path d="M1660.78 162.02H1817.98V319.22" stroke="#C2C2C2" stroke-width="31.44"/>
<path d="M1299.22 162.02H1142.02V319.22" stroke="#C2C2C2" stroke-width="31.44"/>
<path d="M1660.78 837.98H1817.98V680.78" stroke="#C2C2C2" stroke-width="31.44"/>
<path d="M1299.22 837.98H1142.02V680.78" stroke="#C2C2C2" stroke-width="31.44"/>
<path d="M1293.12 435.686L1280.11 397.826L1266.28 435.686H1293.12ZM1274.04 385.109H1287.17L1318.26 470.805H1305.54L1296.85 445.137H1262.96L1253.68 470.805H1241.78L1274.04 385.109ZM1334.07 440.295C1334.07 446.984 1335.49 452.584 1338.33 457.096C1341.17 461.607 1345.72 463.863 1351.98 463.863C1356.84 463.863 1360.83 461.782 1363.94 457.621C1367.09 453.421 1368.66 447.412 1368.66 439.595C1368.66 431.7 1367.05 425.867 1363.82 422.094C1360.59 418.283 1356.61 416.377 1351.86 416.377C1346.57 416.377 1342.28 418.4 1338.97 422.444C1335.7 426.489 1334.07 432.439 1334.07 440.295ZM1349.88 407.219C1354.66 407.219 1358.67 408.23 1361.9 410.252C1363.76 411.419 1365.88 413.46 1368.26 416.377V384.818H1378.35V470.805H1368.9V462.113C1366.45 465.963 1363.55 468.743 1360.21 470.455C1356.86 472.166 1353.03 473.021 1348.71 473.021C1341.75 473.021 1335.72 470.105 1330.63 464.271C1325.53 458.399 1322.99 450.601 1322.99 440.878C1322.99 431.778 1325.3 423.903 1329.93 417.252C1334.6 410.563 1341.25 407.219 1349.88 407.219ZM1400.57 440.295C1400.57 446.984 1401.99 452.584 1404.83 457.096C1407.67 461.607 1412.22 463.863 1418.48 463.863C1423.34 463.863 1427.33 461.782 1430.44 457.621C1433.59 453.421 1435.17 447.412 1435.17 439.595C1435.17 431.7 1433.55 425.867 1430.33 422.094C1427.1 418.283 1423.11 416.377 1418.37 416.377C1413.08 416.377 1408.78 418.4 1405.47 422.444C1402.21 426.489 1400.57 432.439 1400.57 440.295ZM1416.38 407.219C1421.17 407.219 1425.17 408.23 1428.4 410.252C1430.27 411.419 1432.39 413.46 1434.76 416.377V384.818H1444.85V470.805H1435.4V462.113C1432.95 465.963 1430.05 468.743 1426.71 470.455C1423.36 472.166 1419.53 473.021 1415.22 473.021C1408.25 473.021 1402.23 470.105 1397.13 464.271C1392.04 458.399 1389.49 450.601 1389.49 440.878C1389.49 431.778 1391.8 423.903 1396.43 417.252C1401.1 410.563 1407.75 407.219 1416.38 407.219ZM1532.7 408.327H1544.31C1542.84 412.333 1539.55 421.472 1534.45 435.745C1530.64 446.479 1527.45 455.229 1524.89 461.996C1518.82 477.941 1514.54 487.664 1512.05 491.164C1509.56 494.664 1505.29 496.414 1499.22 496.414C1497.74 496.414 1496.59 496.356 1495.78 496.239C1495 496.122 1494.03 495.909 1492.86 495.597V486.03C1494.69 486.536 1496.01 486.847 1496.83 486.964C1497.64 487.08 1498.36 487.139 1498.99 487.139C1500.93 487.139 1502.35 486.808 1503.25 486.147C1504.18 485.525 1504.96 484.747 1505.58 483.814C1505.77 483.502 1506.47 481.908 1507.68 479.03C1508.88 476.152 1509.76 474.013 1510.3 472.613L1487.2 408.327H1499.1L1515.85 459.196L1532.7 408.327ZM1578.21 464.038C1585.17 464.038 1589.93 461.413 1592.5 456.162C1595.1 450.873 1596.41 445.001 1596.41 438.545C1596.41 432.711 1595.47 427.967 1593.61 424.311C1590.65 418.555 1585.56 415.677 1578.32 415.677C1571.91 415.677 1567.24 418.127 1564.32 423.028C1561.41 427.928 1559.95 433.839 1559.95 440.762C1559.95 447.412 1561.41 452.954 1564.32 457.387C1567.24 461.821 1571.87 464.038 1578.21 464.038ZM1578.62 406.518C1586.67 406.518 1593.47 409.202 1599.03 414.569C1604.59 419.936 1607.37 427.831 1607.37 438.253C1607.37 448.326 1604.92 456.649 1600.02 463.221C1595.12 469.794 1587.52 473.08 1577.22 473.08C1568.62 473.08 1561.79 470.182 1556.74 464.388C1551.68 458.554 1549.16 450.737 1549.16 440.937C1549.16 430.436 1551.82 422.075 1557.15 415.852C1562.48 409.63 1569.63 406.518 1578.62 406.518ZM1630.42 408.327V449.804C1630.42 452.993 1630.92 455.598 1631.93 457.621C1633.8 461.354 1637.28 463.221 1642.38 463.221C1649.69 463.221 1654.67 459.954 1657.31 453.421C1658.75 449.92 1659.47 445.117 1659.47 439.012V408.327H1669.97V470.805H1660.05L1660.17 461.588C1658.81 463.96 1657.12 465.963 1655.09 467.596C1651.09 470.863 1646.23 472.496 1640.51 472.496C1631.6 472.496 1625.54 469.521 1622.31 463.571C1620.56 460.382 1619.68 456.123 1619.68 450.795V408.327H1630.42ZM1686.71 408.327H1696.69V419.119C1697.5 417.019 1699.51 414.472 1702.7 411.477C1705.88 408.444 1709.56 406.927 1713.72 406.927C1713.92 406.927 1714.25 406.946 1714.71 406.985C1715.18 407.024 1715.98 407.102 1717.1 407.219V418.302C1716.48 418.186 1715.9 418.108 1715.35 418.069C1714.85 418.03 1714.29 418.011 1713.66 418.011C1708.37 418.011 1704.31 419.722 1701.47 423.144C1698.63 426.528 1697.21 430.436 1697.21 434.87V470.805H1686.71V408.327Z" fill="#C2C2C2"/>
<path d="M1294.17 612.398C1290.32 613.682 1285.71 614.323 1280.35 614.323C1269.15 614.323 1259.89 610.979 1252.58 604.29C1243.71 596.239 1239.28 584.417 1239.28 568.821C1239.28 553.11 1243.83 541.228 1252.93 533.178C1260.36 526.606 1269.59 523.319 1280.64 523.319C1291.76 523.319 1301.09 526.8 1308.64 533.761C1317.35 541.812 1321.71 553.071 1321.71 567.538C1321.71 575.199 1320.77 581.616 1318.91 586.789C1317.39 591.728 1315.15 595.831 1312.2 599.098L1322.11 608.373L1312.72 618.174L1302.34 608.373C1299.19 610.279 1296.47 611.621 1294.17 612.398ZM1290.32 596.881L1281.63 588.597L1290.9 578.914L1299.6 587.197C1300.96 584.397 1301.91 581.947 1302.46 579.847C1303.31 576.697 1303.74 573.022 1303.74 568.821C1303.74 559.177 1301.76 551.729 1297.79 546.479C1293.86 541.19 1288.1 538.545 1280.52 538.545C1273.4 538.545 1267.73 541.073 1263.49 546.129C1259.25 551.184 1257.13 558.749 1257.13 568.821C1257.13 580.605 1260.16 589.045 1266.23 594.139C1270.16 597.445 1274.86 599.098 1280.35 599.098C1282.41 599.098 1284.39 598.845 1286.3 598.339C1287.35 598.067 1288.69 597.581 1290.32 596.881ZM1371.99 578.213H1353.44V611.932H1335.88V525.944H1378.06C1384.09 526.061 1388.71 526.8 1391.94 528.161C1395.21 529.522 1397.97 531.525 1400.23 534.17C1402.09 536.348 1403.57 538.759 1404.66 541.403C1405.75 544.048 1406.29 547.062 1406.29 550.446C1406.29 554.529 1405.26 558.554 1403.2 562.521C1401.14 566.449 1397.74 569.23 1392.99 570.863C1396.96 572.458 1399.76 574.733 1401.39 577.688C1403.07 580.605 1403.9 585.078 1403.9 591.106V596.881C1403.9 600.809 1404.06 603.473 1404.37 604.873C1404.83 607.09 1405.92 608.723 1407.64 609.773V611.932H1387.86C1387.31 610.026 1386.93 608.49 1386.69 607.323C1386.23 604.912 1385.97 602.442 1385.93 599.914L1385.82 591.922C1385.74 586.439 1384.73 582.783 1382.78 580.955C1380.88 579.127 1377.28 578.213 1371.99 578.213ZM1382.9 562.579C1386.48 560.946 1388.27 557.718 1388.27 552.896C1388.27 547.684 1386.54 544.184 1383.08 542.395C1381.13 541.384 1378.21 540.878 1374.33 540.878H1353.44V563.98H1373.8C1377.84 563.98 1380.88 563.513 1382.9 562.579ZM1508.73 571.155H1491.7C1491.39 568.782 1490.59 566.644 1489.31 564.738C1487.44 562.171 1484.54 560.888 1480.61 560.888C1475.01 560.888 1471.18 563.668 1469.12 569.23C1468.03 572.185 1467.49 576.113 1467.49 581.014C1467.49 585.68 1468.03 589.433 1469.12 592.272C1471.1 597.562 1474.84 600.206 1480.32 600.206C1484.21 600.206 1486.97 599.156 1488.61 597.056C1490.24 594.956 1491.23 592.234 1491.58 588.889H1508.56C1508.17 593.945 1506.34 598.728 1503.07 603.24C1497.86 610.512 1490.14 614.148 1479.91 614.148C1469.69 614.148 1462.16 611.115 1457.34 605.048C1452.51 598.981 1450.1 591.106 1450.1 581.422C1450.1 570.494 1452.77 561.996 1458.1 555.929C1463.42 549.862 1470.77 546.829 1480.15 546.829C1488.12 546.829 1494.63 548.618 1499.69 552.196C1504.78 555.774 1507.8 562.093 1508.73 571.155ZM1573.25 556.396C1578.62 563.124 1581.3 571.077 1581.3 580.255C1581.3 589.589 1578.62 597.581 1573.25 604.231C1567.88 610.843 1559.74 614.148 1548.81 614.148C1537.88 614.148 1529.73 610.843 1524.37 604.231C1519 597.581 1516.31 589.589 1516.31 580.255C1516.31 571.077 1519 563.124 1524.37 556.396C1529.73 549.668 1537.88 546.304 1548.81 546.304C1559.74 546.304 1567.88 549.668 1573.25 556.396ZM1548.75 560.363C1543.89 560.363 1540.14 562.093 1537.49 565.555C1534.89 568.977 1533.58 573.877 1533.58 580.255C1533.58 586.633 1534.89 591.553 1537.49 595.014C1540.14 598.475 1543.89 600.206 1548.75 600.206C1553.61 600.206 1557.34 598.475 1559.95 595.014C1562.56 591.553 1563.86 586.633 1563.86 580.255C1563.86 573.877 1562.56 568.977 1559.95 565.555C1557.34 562.093 1553.61 560.363 1548.75 560.363ZM1651.13 526.061V611.932H1634.97V603.123C1632.6 606.895 1629.9 609.637 1626.86 611.348C1623.83 613.059 1620.06 613.915 1615.54 613.915C1608.12 613.915 1601.85 610.92 1596.76 604.931C1591.7 598.903 1589.18 591.183 1589.18 581.772C1589.18 570.921 1591.67 562.385 1596.64 556.162C1601.66 549.94 1608.35 546.829 1616.71 546.829C1620.56 546.829 1623.98 547.684 1626.98 549.396C1629.97 551.068 1632.4 553.401 1634.27 556.396V526.061H1651.13ZM1606.33 580.547C1606.33 586.419 1607.49 591.106 1609.83 594.606C1612.12 598.145 1615.62 599.914 1620.33 599.914C1625.03 599.914 1628.61 598.164 1631.06 594.664C1633.51 591.164 1634.74 586.633 1634.74 581.072C1634.74 573.294 1632.77 567.732 1628.84 564.388C1626.43 562.366 1623.63 561.354 1620.44 561.354C1615.58 561.354 1612.01 563.202 1609.71 566.896C1607.46 570.552 1606.33 575.102 1606.33 580.547ZM1720.72 593.264C1720.3 597.037 1718.33 600.867 1714.83 604.756C1709.39 610.94 1701.76 614.032 1691.96 614.032C1683.88 614.032 1676.74 611.426 1670.56 606.215C1664.37 601.003 1661.28 592.525 1661.28 580.78C1661.28 569.774 1664.06 561.335 1669.62 555.462C1675.22 549.59 1682.48 546.654 1691.38 546.654C1696.67 546.654 1701.43 547.645 1705.67 549.629C1709.91 551.612 1713.41 554.743 1716.17 559.021C1718.66 562.793 1720.28 567.169 1721.02 572.147C1721.44 575.063 1721.62 579.264 1721.54 584.747H1678.02C1678.26 591.125 1680.26 595.598 1684.03 598.164C1686.33 599.759 1689.09 600.556 1692.31 600.556C1695.74 600.556 1698.52 599.584 1700.66 597.639C1701.82 596.589 1702.85 595.131 1703.75 593.264H1720.72ZM1704.27 573.78C1704 569.385 1702.66 566.06 1700.25 563.804C1697.88 561.51 1694.92 560.363 1691.38 560.363C1687.53 560.363 1684.54 561.568 1682.4 563.98C1680.3 566.391 1678.97 569.658 1678.43 573.78H1704.27Z" fill="#C2C2C2"/>
<rect x="8.5" y="283.5" width="1031" height="444" rx="22.5" fill="#333333" stroke="white" stroke-width="15"/>
<path fill-rule="evenodd" clip-rule="evenodd" d="M843 395C870.848 395 897.555 406.062 917.246 425.754C936.938 445.445 948 472.152 948 500C948 527.848 936.938 554.555 917.246 574.246C897.555 593.938 870.848 605 843 605C815.152 605 788.445 593.938 768.754 574.246C749.062 554.555 738 527.848 738 500C738 472.152 749.062 445.445 768.754 425.754C788.445 406.062 815.152 395 843 395ZM922.057 459.615C911.697 439.472 894.067 424.019 872.739 416.388C879.912 429.957 885.097 444.495 888.134 459.615H922.057ZM931.458 507.996C931.717 505.339 931.846 502.67 931.846 500C931.83 491.802 930.672 483.647 928.405 475.769H890.573C891.09 481.116 891.462 486.495 891.462 491.923C891.428 502.776 890.313 513.599 888.134 524.231H928.405C929.94 518.916 930.958 513.488 931.475 507.996H931.458ZM874.355 507.996L874.452 507.172C875.003 502.108 875.289 497.018 875.308 491.923C875.199 486.52 874.789 481.127 874.08 475.769H811.92C811.205 481.126 810.795 486.52 810.692 491.923C810.732 502.799 811.994 513.637 814.456 524.231H871.544C872.788 518.868 873.725 513.456 874.355 507.996ZM871.253 459.615C867.447 442.53 860.579 426.276 850.98 411.638C848.331 411.412 845.682 411.154 843 411.154C841.317 411.162 839.636 411.243 837.96 411.396L835.02 411.638L834.923 411.8C825.375 426.394 818.54 442.593 814.747 459.615H871.253ZM797.866 459.615C800.965 444.506 806.22 429.92 813.471 416.307C792.051 423.912 774.337 439.401 763.943 459.615H797.866ZM757.595 475.769C755.331 483.648 754.173 491.803 754.154 500C754.173 508.197 755.331 516.352 757.595 524.231H797.866C795.676 513.6 794.561 502.777 794.538 491.923C794.538 486.495 794.91 481.116 795.427 475.769H757.595ZM802.082 540.385H763.959C770.066 552.312 778.784 562.709 789.465 570.8C800.146 578.892 812.515 584.469 825.651 587.118C815.312 572.921 807.352 557.137 802.082 540.385ZM843 583.095C853.329 570.32 861.404 555.876 866.875 540.385H819.125C824.597 555.876 832.671 570.32 843 583.095ZM883.918 540.385C878.648 557.137 870.688 572.921 860.349 587.118C873.484 584.467 885.852 578.888 896.533 570.797C907.214 562.706 915.933 552.311 922.041 540.385H883.918Z" fill="white"/>
<path d="M190.93 451.359L202.559 412.055H215.305L196.262 467H185.547L166.352 412.055H179.148L190.93 451.359ZM236.176 467H223.836V412.055H236.176V467ZM223.074 397.785C223.074 395.889 223.667 394.315 224.852 393.062C226.07 391.81 227.797 391.184 230.031 391.184C232.266 391.184 233.992 391.81 235.211 393.062C236.43 394.315 237.039 395.889 237.039 397.785C237.039 399.647 236.43 401.204 235.211 402.457C233.992 403.676 232.266 404.285 230.031 404.285C227.797 404.285 226.07 403.676 224.852 402.457C223.667 401.204 223.074 399.647 223.074 397.785ZM280.457 452.07C280.457 449.87 279.543 448.194 277.715 447.043C275.921 445.892 272.924 444.876 268.727 443.996C264.529 443.116 261.025 441.999 258.215 440.645C252.053 437.665 248.973 433.349 248.973 427.695C248.973 422.956 250.97 418.995 254.965 415.812C258.96 412.63 264.038 411.039 270.199 411.039C276.767 411.039 282.065 412.664 286.094 415.914C290.156 419.164 292.188 423.379 292.188 428.559H279.848C279.848 426.189 278.967 424.225 277.207 422.668C275.447 421.077 273.111 420.281 270.199 420.281C267.491 420.281 265.273 420.908 263.547 422.16C261.854 423.413 261.008 425.089 261.008 427.188C261.008 429.083 261.803 430.556 263.395 431.605C264.986 432.655 268.202 433.721 273.043 434.805C277.884 435.854 281.676 437.124 284.418 438.613C287.194 440.069 289.242 441.829 290.562 443.895C291.917 445.96 292.594 448.465 292.594 451.41C292.594 456.353 290.546 460.365 286.449 463.445C282.353 466.492 276.987 468.016 270.352 468.016C265.849 468.016 261.837 467.203 258.316 465.578C254.796 463.953 252.053 461.719 250.09 458.875C248.126 456.031 247.145 452.967 247.145 449.684H259.129C259.298 452.595 260.398 454.846 262.43 456.438C264.461 457.995 267.152 458.773 270.504 458.773C273.754 458.773 276.225 458.164 277.918 456.945C279.611 455.693 280.457 454.068 280.457 452.07ZM316.512 467H304.172V412.055H316.512V467ZM303.41 397.785C303.41 395.889 304.003 394.315 305.188 393.062C306.406 391.81 308.133 391.184 310.367 391.184C312.602 391.184 314.328 391.81 315.547 393.062C316.766 394.315 317.375 395.889 317.375 397.785C317.375 399.647 316.766 401.204 315.547 402.457C314.328 403.676 312.602 404.285 310.367 404.285C308.133 404.285 306.406 403.676 305.188 402.457C304.003 401.204 303.41 399.647 303.41 397.785ZM345.457 398.699V412.055H355.156V421.195H345.457V451.867C345.457 453.966 345.863 455.49 346.676 456.438C347.522 457.352 349.012 457.809 351.145 457.809C352.566 457.809 354.005 457.639 355.461 457.301V466.848C352.651 467.626 349.943 468.016 347.336 468.016C337.857 468.016 333.117 462.785 333.117 452.324V421.195H324.078V412.055H333.117V398.699H345.457ZM388.215 439.02C388.215 433.637 389.281 428.796 391.414 424.496C393.547 420.163 396.543 416.845 400.402 414.543C404.262 412.207 408.697 411.039 413.707 411.039C421.121 411.039 427.13 413.426 431.734 418.199C436.372 422.973 438.878 429.303 439.25 437.191L439.301 440.086C439.301 445.503 438.251 450.344 436.152 454.609C434.087 458.875 431.108 462.176 427.215 464.512C423.355 466.848 418.887 468.016 413.809 468.016C406.056 468.016 399.844 465.443 395.172 460.297C390.534 455.117 388.215 448.228 388.215 439.629V439.02ZM400.555 440.086C400.555 445.74 401.723 450.174 404.059 453.391C406.395 456.573 409.645 458.164 413.809 458.164C417.973 458.164 421.206 456.539 423.508 453.289C425.844 450.039 427.012 445.283 427.012 439.02C427.012 433.467 425.81 429.066 423.406 425.816C421.036 422.566 417.803 420.941 413.707 420.941C409.678 420.941 406.479 422.549 404.109 425.766C401.74 428.948 400.555 433.721 400.555 440.086ZM483.023 461.617C479.401 465.883 474.255 468.016 467.586 468.016C461.628 468.016 457.108 466.272 454.027 462.785C450.98 459.298 449.457 454.254 449.457 447.652V412.055H461.797V447.5C461.797 454.474 464.691 457.961 470.48 457.961C476.473 457.961 480.518 455.811 482.617 451.512V412.055H494.957V467H483.328L483.023 461.617ZM536.293 423.328C534.668 423.057 532.992 422.922 531.266 422.922C525.612 422.922 521.803 425.089 519.84 429.422V467H507.5V412.055H519.281L519.586 418.199C522.565 413.426 526.695 411.039 531.977 411.039C533.737 411.039 535.193 411.276 536.344 411.75L536.293 423.328Z" fill="white"/>
<path d="M179.879 569.855L193.004 505.637H207.711L188.023 590.949H173.844L157.613 528.664L141.031 590.949H126.793L107.105 505.637H121.812L135.055 569.738L151.344 505.637H163.766L179.879 569.855ZM268.414 552.863H233.375V579.113H274.332V590.949H218.551V505.637H273.922V517.59H233.375V541.145H268.414V552.863ZM286.402 590.949V505.637H315.641C325.289 505.637 332.633 507.57 337.672 511.438C342.711 515.305 345.23 521.066 345.23 528.723C345.23 532.629 344.176 536.145 342.066 539.27C339.957 542.395 336.871 544.816 332.809 546.535C337.418 547.785 340.973 550.148 343.473 553.625C346.012 557.062 347.281 561.203 347.281 566.047C347.281 574.055 344.703 580.207 339.547 584.504C334.43 588.801 327.086 590.949 317.516 590.949H286.402ZM301.227 552.453V579.113H317.691C322.34 579.113 325.973 577.961 328.59 575.656C331.207 573.352 332.516 570.148 332.516 566.047C332.516 557.18 327.984 552.648 318.922 552.453H301.227ZM301.227 541.555H315.758C320.367 541.555 323.961 540.52 326.539 538.449C329.156 536.34 330.465 533.371 330.465 529.543C330.465 525.324 329.254 522.277 326.832 520.402C324.449 518.527 320.719 517.59 315.641 517.59H301.227V541.555ZM406.695 568.977C406.695 565.227 405.367 562.336 402.711 560.305C400.094 558.273 395.348 556.223 388.473 554.152C381.598 552.082 376.129 549.777 372.066 547.238C364.293 542.355 360.406 535.988 360.406 528.137C360.406 521.262 363.199 515.598 368.785 511.145C374.41 506.691 381.695 504.465 390.641 504.465C396.578 504.465 401.871 505.559 406.52 507.746C411.168 509.934 414.82 513.059 417.477 517.121C420.133 521.145 421.461 525.617 421.461 530.539H406.695C406.695 526.086 405.289 522.609 402.477 520.109C399.703 517.57 395.719 516.301 390.523 516.301C385.68 516.301 381.91 517.336 379.215 519.406C376.559 521.477 375.23 524.367 375.23 528.078C375.23 531.203 376.676 533.82 379.566 535.93C382.457 538 387.223 540.031 393.863 542.023C400.504 543.977 405.836 546.223 409.859 548.762C413.883 551.262 416.832 554.152 418.707 557.434C420.582 560.676 421.52 564.484 421.52 568.859C421.52 575.969 418.785 581.633 413.316 585.852C407.887 590.031 400.504 592.121 391.168 592.121C384.996 592.121 379.312 590.988 374.117 588.723C368.961 586.418 364.938 583.254 362.047 579.23C359.195 575.207 357.77 570.52 357.77 565.168H372.594C372.594 570.012 374.195 573.762 377.398 576.418C380.602 579.074 385.191 580.402 391.168 580.402C396.324 580.402 400.191 579.367 402.77 577.297C405.387 575.188 406.695 572.414 406.695 568.977ZM450.172 590.949H435.406V505.637H450.172V590.949ZM528.277 517.59H501.676V590.949H486.969V517.59H460.602V505.637H528.277V517.59ZM589.391 552.863H554.352V579.113H595.309V590.949H539.527V505.637H594.898V517.59H554.352V541.145H589.391V552.863Z" fill="white"/>
</svg>
