<svg width="1000" height="1000" viewBox="0 0 1000 1000" fill="none" xmlns="http://www.w3.org/2000/svg">
<g clip-path="url(#clip0_280_330)">
<rect x="1" y="-1" width="998" height="1002" fill="#333333"/>
<circle cx="517" cy="458" r="367" fill="white"/>
<circle cx="499.5" cy="438.5" r="394" stroke="white" stroke-width="15"/>
<rect x="257" y="198" width="519" height="519" rx="12" fill="white"/>
<path d="M629.75 248.941H728.237V347.429" stroke="#C2C2C2" stroke-width="18.7141"/>
<path d="M403.23 248.941H304.743V347.429" stroke="#C2C2C2" stroke-width="18.7141"/>
<path d="M629.75 672.434H728.237V573.946" stroke="#C2C2C2" stroke-width="18.7141"/>
<path d="M403.23 672.434H304.743V573.946" stroke="#C2C2C2" stroke-width="18.7141"/>
<path d="M405.238 418.079L397.495 395.543L389.266 418.079H405.238ZM393.884 387.974H401.697L420.204 438.982H412.635L407.461 423.704H387.287L381.765 438.982H374.682L393.884 387.974ZM429.614 420.822C429.614 424.804 430.459 428.137 432.149 430.822C433.839 433.508 436.547 434.85 440.274 434.85C443.168 434.85 445.541 433.612 447.393 431.135C449.268 428.635 450.205 425.058 450.205 420.405C450.205 415.706 449.245 412.234 447.323 409.988C445.402 407.72 443.029 406.586 440.205 406.586C437.057 406.586 434.499 407.789 432.531 410.197C430.587 412.604 429.614 416.146 429.614 420.822ZM439.024 401.134C441.872 401.134 444.256 401.736 446.177 402.94C447.289 403.634 448.55 404.849 449.962 406.586V387.8H455.969V438.982H450.344V433.809C448.886 436.1 447.161 437.756 445.17 438.774C443.18 439.793 440.899 440.302 438.33 440.302C434.186 440.302 430.598 438.566 427.566 435.093C424.533 431.598 423.017 426.957 423.017 421.169C423.017 415.752 424.394 411.065 427.149 407.106C429.927 403.125 433.885 401.134 439.024 401.134ZM469.199 420.822C469.199 424.804 470.044 428.137 471.734 430.822C473.424 433.508 476.132 434.85 479.859 434.85C482.753 434.85 485.125 433.612 486.977 431.135C488.852 428.635 489.79 425.058 489.79 420.405C489.79 415.706 488.829 412.234 486.908 409.988C484.987 407.72 482.614 406.586 479.79 406.586C476.641 406.586 474.083 407.789 472.116 410.197C470.171 412.604 469.199 416.146 469.199 420.822ZM478.609 401.134C481.456 401.134 483.841 401.736 485.762 402.94C486.873 403.634 488.135 404.849 489.547 406.586V387.8H495.554V438.982H489.929V433.809C488.47 436.1 486.746 437.756 484.755 438.774C482.764 439.793 480.484 440.302 477.915 440.302C473.771 440.302 470.183 438.566 467.15 435.093C464.118 431.598 462.602 426.957 462.602 421.169C462.602 415.752 463.979 411.065 466.734 407.106C469.511 403.125 473.47 401.134 478.609 401.134ZM547.847 401.794H554.757C553.878 404.178 551.922 409.618 548.889 418.114C546.621 424.503 544.722 429.711 543.194 433.739C539.583 443.23 537.037 449.017 535.555 451.101C534.074 453.184 531.527 454.226 527.916 454.226C527.037 454.226 526.354 454.191 525.868 454.122C525.405 454.052 524.826 453.925 524.131 453.74V448.045C525.219 448.346 526.006 448.531 526.493 448.601C526.979 448.67 527.407 448.705 527.777 448.705C528.935 448.705 529.78 448.508 530.312 448.115C530.868 447.744 531.331 447.281 531.701 446.726C531.817 446.541 532.233 445.591 532.951 443.878C533.669 442.165 534.19 440.892 534.514 440.059L520.763 401.794H527.847L537.812 432.072L547.847 401.794ZM574.932 434.955C579.075 434.955 581.911 433.392 583.439 430.267C584.99 427.119 585.765 423.623 585.765 419.78C585.765 416.308 585.21 413.484 584.099 411.308C582.339 407.882 579.307 406.169 575.001 406.169C571.182 406.169 568.404 407.627 566.667 410.544C564.931 413.461 564.063 416.979 564.063 421.1C564.063 425.058 564.931 428.357 566.667 430.996C568.404 433.635 571.158 434.955 574.932 434.955ZM575.175 400.717C579.967 400.717 584.018 402.315 587.328 405.509C590.638 408.704 592.293 413.403 592.293 419.607C592.293 425.602 590.835 430.556 587.918 434.468C585.001 438.381 580.476 440.337 574.341 440.337C569.225 440.337 565.163 438.612 562.153 435.163C559.144 431.691 557.639 427.038 557.639 421.204C557.639 414.954 559.225 409.977 562.396 406.273C565.568 402.569 569.827 400.717 575.175 400.717ZM606.009 401.794V426.482C606.009 428.38 606.31 429.931 606.912 431.135C608.023 433.357 610.095 434.468 613.127 434.468C617.479 434.468 620.442 432.524 622.017 428.635C622.873 426.551 623.301 423.693 623.301 420.058V401.794H629.552V438.982H623.649L623.718 433.496C622.908 434.908 621.901 436.1 620.697 437.073C618.313 439.017 615.419 439.989 612.016 439.989C606.715 439.989 603.104 438.219 601.183 434.677C600.141 432.779 599.62 430.244 599.62 427.072V401.794H606.009ZM639.517 401.794H645.455V408.218C645.941 406.967 647.133 405.451 649.031 403.669C650.93 401.863 653.117 400.96 655.594 400.96C655.71 400.96 655.907 400.972 656.184 400.995C656.462 401.018 656.937 401.064 657.608 401.134V407.731C657.238 407.662 656.89 407.616 656.566 407.592C656.265 407.569 655.93 407.558 655.559 407.558C652.411 407.558 649.992 408.576 648.302 410.613C646.612 412.627 645.767 414.954 645.767 417.593V438.982H639.517V401.794Z" fill="#C2C2C2"/>
<path d="M405.865 527.68C403.573 528.444 400.83 528.826 397.636 528.826C390.969 528.826 385.459 526.835 381.107 522.854C375.829 518.062 373.19 511.024 373.19 501.742C373.19 492.39 375.899 485.318 381.316 480.526C385.737 476.614 391.235 474.658 397.809 474.658C404.43 474.658 409.986 476.729 414.476 480.873C419.662 485.665 422.254 492.366 422.254 500.978C422.254 505.538 421.699 509.358 420.588 512.437C419.685 515.376 418.354 517.819 416.595 519.763L422.498 525.284L416.907 531.118L410.726 525.284C408.851 526.419 407.231 527.217 405.865 527.68ZM403.573 518.444L398.4 513.513L403.921 507.749L409.094 512.68C409.905 511.013 410.472 509.555 410.796 508.304C411.305 506.429 411.56 504.242 411.56 501.742C411.56 496.001 410.379 491.568 408.018 488.443C405.68 485.294 402.254 483.72 397.74 483.72C393.504 483.72 390.124 485.225 387.601 488.234C385.077 491.244 383.816 495.746 383.816 501.742C383.816 508.756 385.621 513.779 389.233 516.812C391.571 518.779 394.372 519.763 397.636 519.763C398.863 519.763 400.043 519.613 401.177 519.312C401.802 519.15 402.601 518.86 403.573 518.444ZM452.186 507.332H441.144V527.402H430.692V476.22H455.797C459.385 476.29 462.14 476.729 464.061 477.54C466.006 478.35 467.65 479.542 468.992 481.116C470.103 482.412 470.983 483.848 471.631 485.422C472.279 486.996 472.603 488.79 472.603 490.804C472.603 493.235 471.99 495.63 470.763 497.992C469.536 500.33 467.511 501.985 464.686 502.957C467.048 503.906 468.714 505.26 469.687 507.02C470.682 508.756 471.18 511.418 471.18 515.006V518.444C471.18 520.782 471.272 522.367 471.458 523.201C471.735 524.52 472.383 525.493 473.402 526.118V527.402H461.631C461.307 526.268 461.075 525.354 460.936 524.659C460.659 523.224 460.508 521.754 460.485 520.249L460.415 515.492C460.369 512.228 459.767 510.052 458.61 508.964C457.476 507.876 455.334 507.332 452.186 507.332ZM458.679 498.026C460.809 497.054 461.874 495.133 461.874 492.262C461.874 489.16 460.844 487.077 458.783 486.012C457.626 485.41 455.89 485.109 453.575 485.109H441.144V498.86H453.262C455.67 498.86 457.476 498.582 458.679 498.026ZM533.578 503.131H523.438C523.253 501.719 522.779 500.445 522.015 499.311C520.904 497.783 519.179 497.019 516.841 497.019C513.508 497.019 511.227 498.675 510 501.985C509.352 503.744 509.028 506.082 509.028 508.999C509.028 511.777 509.352 514.011 510 515.701C511.181 518.849 513.403 520.423 516.667 520.423C518.982 520.423 520.626 519.798 521.598 518.548C522.57 517.298 523.161 515.677 523.369 513.687H533.473C533.242 516.696 532.154 519.543 530.209 522.229C527.108 526.557 522.512 528.722 516.424 528.722C510.336 528.722 505.857 526.916 502.986 523.305C500.116 519.694 498.681 515.006 498.681 509.242C498.681 502.737 500.266 497.679 503.438 494.068C506.609 490.457 510.984 488.651 516.563 488.651C521.309 488.651 525.186 489.716 528.196 491.846C531.228 493.975 533.022 497.737 533.578 503.131ZM571.982 494.346C575.176 498.35 576.774 503.084 576.774 508.548C576.774 514.103 575.176 518.86 571.982 522.819C568.787 526.754 563.937 528.722 557.433 528.722C550.928 528.722 546.078 526.754 542.884 522.819C539.689 518.86 538.092 514.103 538.092 508.548C538.092 503.084 539.689 498.35 542.884 494.346C546.078 490.341 550.928 488.339 557.433 488.339C563.937 488.339 568.787 490.341 571.982 494.346ZM557.398 496.707C554.504 496.707 552.27 497.737 550.696 499.797C549.145 501.834 548.37 504.751 548.37 508.548C548.37 512.344 549.145 515.272 550.696 517.333C552.27 519.393 554.504 520.423 557.398 520.423C560.291 520.423 562.514 519.393 564.065 517.333C565.616 515.272 566.391 512.344 566.391 508.548C566.391 504.751 565.616 501.834 564.065 499.797C562.514 497.737 560.291 496.707 557.398 496.707ZM618.337 476.29V527.402H608.719V522.159C607.307 524.405 605.698 526.037 603.892 527.055C602.087 528.074 599.841 528.583 597.156 528.583C592.735 528.583 589.008 526.8 585.975 523.236C582.966 519.647 581.461 515.052 581.461 509.45C581.461 502.992 582.943 497.911 585.906 494.207C588.892 490.503 592.874 488.651 597.851 488.651C600.142 488.651 602.179 489.16 603.962 490.179C605.744 491.174 607.191 492.563 608.302 494.346V476.29H618.337ZM591.67 508.721C591.67 512.217 592.364 515.006 593.753 517.09C595.119 519.196 597.202 520.249 600.003 520.249C602.804 520.249 604.934 519.208 606.393 517.124C607.851 515.041 608.58 512.344 608.58 509.034C608.58 504.404 607.411 501.094 605.073 499.103C603.638 497.899 601.971 497.297 600.073 497.297C597.179 497.297 595.05 498.397 593.684 500.596C592.341 502.772 591.67 505.48 591.67 508.721ZM659.762 516.291C659.508 518.536 658.339 520.816 656.255 523.131C653.014 526.812 648.477 528.652 642.644 528.652C637.829 528.652 633.581 527.101 629.9 523.999C626.22 520.897 624.379 515.851 624.379 508.86C624.379 502.309 626.034 497.286 629.345 493.79C632.678 490.295 636.995 488.547 642.297 488.547C645.445 488.547 648.281 489.137 650.804 490.318C653.327 491.498 655.41 493.362 657.054 495.908C658.536 498.154 659.496 500.758 659.936 503.721C660.191 505.457 660.295 507.957 660.249 511.221H634.345C634.484 515.018 635.676 517.68 637.921 519.208C639.287 520.157 640.931 520.631 642.852 520.631C644.889 520.631 646.544 520.053 647.818 518.895C648.512 518.27 649.125 517.402 649.658 516.291H659.762ZM649.97 504.693C649.808 502.077 649.01 500.098 647.574 498.756C646.162 497.39 644.403 496.707 642.297 496.707C640.005 496.707 638.222 497.424 636.949 498.86C635.699 500.295 634.912 502.239 634.588 504.693H649.97Z" fill="#C2C2C2"/>
<path d="M176.134 933.427L188.541 892.258H201.099L182.037 947H170.269L151.282 892.258H163.802L176.134 933.427ZM218.281 947H207.001V892.258H218.281V947ZM257.157 932.638C257.157 930.507 256.405 928.878 254.901 927.75C253.397 926.597 250.69 925.394 246.78 924.141C242.87 922.862 239.774 921.609 237.493 920.381C231.277 917.022 228.169 912.498 228.169 906.808C228.169 903.85 228.996 901.219 230.65 898.913C232.33 896.582 234.723 894.764 237.832 893.461C240.965 892.158 244.474 891.506 248.359 891.506C252.269 891.506 255.753 892.22 258.811 893.649C261.869 895.053 264.238 897.045 265.917 899.627C267.621 902.209 268.474 905.141 268.474 908.425H257.194C257.194 905.918 256.405 903.976 254.826 902.597C253.247 901.194 251.028 900.492 248.171 900.492C245.414 900.492 243.271 901.081 241.742 902.259C240.213 903.412 239.448 904.941 239.448 906.846C239.448 908.625 240.338 910.117 242.118 911.32C243.922 912.523 246.567 913.651 250.051 914.704C256.467 916.634 261.142 919.027 264.075 921.885C267.007 924.742 268.474 928.301 268.474 932.562C268.474 937.3 266.681 941.022 263.097 943.729C259.513 946.411 254.688 947.752 248.622 947.752C244.411 947.752 240.576 946.987 237.117 945.458C233.658 943.904 231.014 941.786 229.184 939.104C227.379 936.423 226.477 933.314 226.477 929.78H237.794C237.794 935.821 241.403 938.841 248.622 938.841C251.304 938.841 253.397 938.302 254.901 937.225C256.405 936.122 257.157 934.593 257.157 932.638ZM288.137 947H276.858V892.258H288.137V947ZM338.706 901.394H321.938V947H310.658V901.394H294.115V892.258H338.706V901.394ZM407.059 920.87C407.059 926.259 406.106 930.983 404.201 935.044C402.296 939.104 399.564 942.238 396.005 944.443C392.471 946.649 388.41 947.752 383.823 947.752C379.286 947.752 375.238 946.662 371.679 944.481C368.12 942.3 365.363 939.192 363.408 935.157C361.453 931.096 360.463 926.434 360.438 921.17V918.463C360.438 913.074 361.403 908.337 363.333 904.251C365.288 900.141 368.032 896.995 371.566 894.814C375.126 892.609 379.186 891.506 383.748 891.506C388.31 891.506 392.358 892.609 395.892 894.814C399.451 896.995 402.196 900.141 404.126 904.251C406.081 908.337 407.059 913.062 407.059 918.426V920.87ZM395.629 918.388C395.629 912.648 394.601 908.287 392.546 905.304C390.491 902.321 387.558 900.83 383.748 900.83C379.963 900.83 377.043 902.309 374.988 905.267C372.932 908.199 371.892 912.51 371.867 918.2V920.87C371.867 926.459 372.895 930.795 374.95 933.878C377.006 936.961 379.963 938.503 383.823 938.503C387.608 938.503 390.516 937.024 392.546 934.066C394.576 931.084 395.604 926.747 395.629 921.058V918.388ZM456.688 892.258V928.314C456.688 934.305 454.808 939.042 451.048 942.526C447.313 946.01 442.2 947.752 435.708 947.752C429.316 947.752 424.241 946.06 420.481 942.676C416.721 939.292 414.804 934.643 414.729 928.728V892.258H426.008V928.389C426.008 931.973 426.86 934.593 428.564 936.247C430.294 937.876 432.675 938.691 435.708 938.691C442.049 938.691 445.27 935.357 445.371 928.69V892.258H456.688ZM486.202 926.96H477.216V947H465.937V892.258H486.277C492.744 892.258 497.732 893.699 501.241 896.582C504.75 899.464 506.504 903.537 506.504 908.801C506.504 912.535 505.69 915.656 504.061 918.163C502.456 920.644 500.013 922.624 496.729 924.103L508.572 946.474V947H496.466L486.202 926.96ZM477.216 917.824H486.314C489.147 917.824 491.34 917.11 492.894 915.681C494.448 914.227 495.225 912.235 495.225 909.703C495.225 907.121 494.486 905.091 493.007 903.612C491.553 902.133 489.31 901.394 486.277 901.394H477.216V917.824ZM576.925 931.209L584.294 892.258H595.536L583.392 947H572.037L563.126 910.38L554.216 947H542.861L530.717 892.258H541.959L549.366 931.134L558.389 892.258H567.939L576.925 931.209ZM634.6 923.276H612.943V937.939H638.359V947H601.664V892.258H638.284V901.394H612.943V914.44H634.6V923.276ZM644.977 947V892.258H664.151C670.794 892.258 675.832 893.536 679.266 896.093C682.7 898.624 684.417 902.347 684.417 907.259C684.417 909.941 683.727 912.31 682.349 914.365C680.97 916.396 679.053 917.887 676.596 918.839C679.403 919.541 681.609 920.957 683.213 923.088C684.843 925.218 685.657 927.825 685.657 930.908C685.657 936.172 683.978 940.157 680.619 942.864C677.26 945.571 672.473 946.95 666.257 947H644.977ZM656.256 923.163V937.939H665.918C668.575 937.939 670.643 937.312 672.122 936.059C673.626 934.781 674.378 933.026 674.378 930.795C674.378 925.782 671.784 923.238 666.595 923.163H656.256ZM656.256 915.192H664.603C670.292 915.092 673.137 912.824 673.137 908.387C673.137 905.906 672.41 904.126 670.957 903.048C669.528 901.945 667.259 901.394 664.151 901.394H656.256V915.192ZM722.541 932.638C722.541 930.507 721.789 928.878 720.285 927.75C718.781 926.597 716.074 925.394 712.164 924.141C708.253 922.862 705.158 921.609 702.877 920.381C696.661 917.022 693.553 912.498 693.553 906.808C693.553 903.85 694.38 901.219 696.034 898.913C697.714 896.582 700.107 894.764 703.215 893.461C706.348 892.158 709.858 891.506 713.743 891.506C717.653 891.506 721.137 892.22 724.195 893.649C727.253 895.053 729.621 897.045 731.301 899.627C733.005 902.209 733.857 905.141 733.857 908.425H722.578C722.578 905.918 721.789 903.976 720.209 902.597C718.63 901.194 716.412 900.492 713.555 900.492C710.798 900.492 708.654 901.081 707.125 902.259C705.597 903.412 704.832 904.941 704.832 906.846C704.832 908.625 705.722 910.117 707.501 911.32C709.306 912.523 711.951 913.651 715.435 914.704C721.851 916.634 726.526 919.027 729.458 921.885C732.391 924.742 733.857 928.301 733.857 932.562C733.857 937.3 732.065 941.022 728.481 943.729C724.897 946.411 720.072 947.752 714.006 947.752C709.795 947.752 705.96 946.987 702.501 945.458C699.042 943.904 696.398 941.786 694.568 939.104C692.763 936.423 691.861 933.314 691.861 929.78H703.178C703.178 935.821 706.787 938.841 714.006 938.841C716.688 938.841 718.781 938.302 720.285 937.225C721.789 936.122 722.541 934.593 722.541 932.638ZM753.521 947H742.242V892.258H753.521V947ZM804.09 901.394H787.321V947H776.042V901.394H759.499V892.258H804.09V901.394ZM843.492 923.276H821.836V937.939H847.252V947H810.557V892.258H847.177V901.394H821.836V914.44H843.492V923.276Z" fill="white"/>
</g>
<defs>
<clipPath id="clip0_280_330">
<rect width="1000" height="1000" fill="white"/>
</clipPath>
</defs>
</svg>
