<svg width="1000" height="1000" viewBox="0 0 1000 1000" fill="none" xmlns="http://www.w3.org/2000/svg">
<rect x="166" y="34" width="668" height="668" rx="12" fill="white"/>
<path d="M653.641 80.7598H787.241V214.36" stroke="#C2C2C2" stroke-width="26.72"/>
<path d="M346.359 80.7598H212.759V214.36" stroke="#C2C2C2" stroke-width="26.72"/>
<path d="M653.641 655.24H787.241V521.64" stroke="#C2C2C2" stroke-width="26.72"/>
<path d="M346.359 655.24H212.759V521.64" stroke="#C2C2C2" stroke-width="26.72"/>
<path d="M341.175 313.257L330.119 281.081L318.369 313.257H341.175ZM324.963 270.273H336.118L362.543 343.104H351.735L344.348 321.289H315.543L307.66 343.104H297.546L324.963 270.273ZM375.979 317.174C375.979 322.859 377.185 327.619 379.598 331.453C382.011 335.287 385.878 337.204 391.199 337.204C395.331 337.204 398.719 335.435 401.363 331.899C404.04 328.329 405.379 323.223 405.379 316.579C405.379 309.87 404.007 304.912 401.264 301.706C398.52 298.467 395.132 296.847 391.1 296.847C386.605 296.847 382.953 298.566 380.143 302.003C377.367 305.441 375.979 310.498 375.979 317.174ZM389.414 289.063C393.48 289.063 396.884 289.923 399.627 291.641C401.214 292.633 403.015 294.368 405.032 296.847V270.025H413.609V343.104H405.577V335.716C403.495 338.989 401.032 341.352 398.19 342.806C395.347 344.26 392.092 344.987 388.423 344.987C382.507 344.987 377.383 342.509 373.054 337.551C368.724 332.56 366.559 325.933 366.559 317.67C366.559 309.936 368.525 303.243 372.459 297.591C376.425 291.906 382.077 289.063 389.414 289.063ZM432.498 317.174C432.498 322.859 433.704 327.619 436.117 331.453C438.53 335.287 442.397 337.204 447.718 337.204C451.85 337.204 455.238 335.435 457.882 331.899C460.559 328.329 461.898 323.223 461.898 316.579C461.898 309.87 460.526 304.912 457.783 301.706C455.039 298.467 451.651 296.847 447.619 296.847C443.124 296.847 439.472 298.566 436.662 302.003C433.886 305.441 432.498 310.498 432.498 317.174ZM445.933 289.063C449.999 289.063 453.403 289.923 456.147 291.641C457.733 292.633 459.534 294.368 461.551 296.847V270.025H470.128V343.104H462.096V335.716C460.014 338.989 457.551 341.352 454.709 342.806C451.866 344.26 448.611 344.987 444.942 344.987C439.026 344.987 433.902 342.509 429.573 337.551C425.243 332.56 423.078 325.933 423.078 317.67C423.078 309.936 425.045 303.243 428.978 297.591C432.944 291.906 438.596 289.063 445.933 289.063ZM544.792 290.005H554.658C553.402 293.41 550.609 301.177 546.28 313.307C543.04 322.429 540.33 329.866 538.149 335.617C532.993 349.169 529.357 357.432 527.242 360.406C525.126 363.381 521.491 364.868 516.334 364.868C515.078 364.868 514.103 364.819 513.409 364.72C512.748 364.62 511.922 364.439 510.93 364.174V356.043C512.484 356.473 513.608 356.738 514.302 356.837C514.996 356.936 515.607 356.985 516.136 356.985C517.789 356.985 518.995 356.704 519.755 356.143C520.549 355.614 521.21 354.953 521.738 354.159C521.904 353.895 522.499 352.54 523.523 350.094C524.548 347.648 525.292 345.83 525.754 344.64L506.121 290.005H516.235L530.464 333.237L544.792 290.005ZM583.463 337.352C589.38 337.352 593.428 335.121 595.61 330.659C597.824 326.164 598.932 321.173 598.932 315.687C598.932 310.729 598.138 306.697 596.552 303.59C594.04 298.698 589.71 296.252 583.562 296.252C578.109 296.252 574.143 298.334 571.664 302.499C569.185 306.664 567.945 311.688 567.945 317.571C567.945 323.223 569.185 327.933 571.664 331.701C574.143 335.468 578.076 337.352 583.463 337.352ZM583.81 288.468C590.652 288.468 596.436 290.749 601.163 295.31C605.889 299.871 608.252 306.581 608.252 315.439C608.252 323.999 606.17 331.073 602.005 336.658C597.841 342.244 591.379 345.037 582.62 345.037C575.316 345.037 569.515 342.575 565.218 337.65C560.922 332.692 558.773 326.049 558.773 317.72C558.773 308.795 561.037 301.689 565.565 296.401C570.094 291.113 576.175 288.468 583.81 288.468ZM627.836 290.005V325.255C627.836 327.966 628.265 330.18 629.125 331.899C630.711 335.072 633.669 336.658 637.999 336.658C644.213 336.658 648.444 333.882 650.691 328.329C651.914 325.355 652.526 321.273 652.526 316.083V290.005H661.45V343.104H653.021L653.12 335.27C651.964 337.286 650.526 338.989 648.807 340.377C645.403 343.153 641.271 344.541 636.413 344.541C628.844 344.541 623.688 342.013 620.944 336.956C619.457 334.246 618.713 330.626 618.713 326.098V290.005H627.836ZM675.678 290.005H684.156V299.177C684.85 297.392 686.553 295.228 689.263 292.683C691.973 290.104 695.097 288.815 698.633 288.815C698.798 288.815 699.079 288.832 699.476 288.865C699.873 288.898 700.55 288.964 701.509 289.063V298.483C700.98 298.384 700.484 298.318 700.021 298.285C699.592 298.252 699.112 298.235 698.584 298.235C694.089 298.235 690.635 299.69 688.222 302.598C685.809 305.474 684.603 308.795 684.603 312.563V343.104H675.678V290.005Z" fill="#C2C2C2"/>
<path d="M342.07 463.44C338.798 464.53 334.881 465.076 330.32 465.076C320.801 465.076 312.935 462.233 306.721 456.548C299.185 449.706 295.417 439.659 295.417 426.405C295.417 413.052 299.284 402.954 307.018 396.112C313.331 390.527 321.181 387.734 330.568 387.734C340.021 387.734 347.953 390.692 354.366 396.608C361.769 403.45 365.471 413.019 365.471 425.314C365.471 431.825 364.678 437.279 363.091 441.675C361.802 445.872 359.902 449.359 357.39 452.136L365.818 460.019L357.836 468.348L349.011 460.019C346.334 461.638 344.02 462.779 342.07 463.44ZM338.798 450.252L331.411 443.212L339.294 434.982L346.681 442.022C347.838 439.642 348.648 437.56 349.11 435.775C349.837 433.098 350.201 429.974 350.201 426.405C350.201 418.208 348.515 411.878 345.144 407.416C341.806 402.921 336.914 400.674 330.469 400.674C324.42 400.674 319.595 402.822 315.992 407.119C312.389 411.416 310.588 417.844 310.588 426.405C310.588 436.42 313.166 443.592 318.322 447.922C321.661 450.731 325.66 452.136 330.32 452.136C332.072 452.136 333.758 451.921 335.377 451.491C336.27 451.26 337.41 450.847 338.798 450.252ZM408.207 434.387H392.442V463.043H377.519V389.965H413.364C418.487 390.064 422.42 390.692 425.163 391.849C427.94 393.006 430.286 394.708 432.203 396.955C433.79 398.806 435.046 400.855 435.971 403.103C436.897 405.351 437.359 407.912 437.359 410.788C437.359 414.258 436.484 417.679 434.732 421.05C432.98 424.389 430.088 426.752 426.056 428.14C429.427 429.495 431.807 431.429 433.195 433.941C434.616 436.42 435.327 440.221 435.327 445.344V450.252C435.327 453.59 435.459 455.854 435.723 457.044C436.12 458.928 437.045 460.316 438.5 461.209V463.043H421.693C421.23 461.423 420.899 460.118 420.701 459.126C420.305 457.077 420.09 454.978 420.057 452.83L419.957 446.038C419.891 441.377 419.032 438.27 417.379 436.717C415.76 435.164 412.703 434.387 408.207 434.387ZM417.479 421.1C420.519 419.712 422.04 416.968 422.04 412.87C422.04 408.441 420.569 405.466 417.627 403.946C415.975 403.086 413.496 402.657 410.191 402.657H392.442V422.29H409.744C413.182 422.29 415.76 421.893 417.479 421.1ZM524.419 428.388H509.942C509.677 426.372 509 424.554 507.909 422.934C506.323 420.753 503.86 419.662 500.522 419.662C495.762 419.662 492.507 422.025 490.755 426.752C489.83 429.264 489.367 432.602 489.367 436.767C489.367 440.733 489.83 443.922 490.755 446.335C492.441 450.83 495.614 453.078 500.274 453.078C503.579 453.078 505.926 452.185 507.314 450.401C508.702 448.616 509.545 446.302 509.843 443.46H524.27C523.939 447.756 522.386 451.822 519.609 455.656C515.181 461.837 508.62 464.927 499.927 464.927C491.234 464.927 484.839 462.349 480.74 457.193C476.642 452.037 474.593 445.344 474.593 437.114C474.593 427.826 476.857 420.604 481.385 415.448C485.913 410.292 492.16 407.714 500.125 407.714C506.901 407.714 512.437 409.234 516.734 412.275C521.064 415.316 523.625 420.687 524.419 428.388ZM579.252 415.845C583.813 421.563 586.094 428.322 586.094 436.122C586.094 444.055 583.813 450.847 579.252 456.499C574.691 462.118 567.766 464.927 558.479 464.927C549.191 464.927 542.267 462.118 537.706 456.499C533.144 450.847 530.864 444.055 530.864 436.122C530.864 428.322 533.144 421.563 537.706 415.845C542.267 410.127 549.191 407.268 558.479 407.268C567.766 407.268 574.691 410.127 579.252 415.845ZM558.429 419.216C554.298 419.216 551.108 420.687 548.861 423.628C546.646 426.537 545.539 430.702 545.539 436.122C545.539 441.543 546.646 445.724 548.861 448.665C551.108 451.607 554.298 453.078 558.429 453.078C562.561 453.078 565.734 451.607 567.948 448.665C570.163 445.724 571.27 441.543 571.27 436.122C571.27 430.702 570.163 426.537 567.948 423.628C565.734 420.687 562.561 419.216 558.429 419.216ZM645.439 390.064V463.043H631.706V455.557C629.689 458.763 627.392 461.093 624.814 462.547C622.236 464.001 619.03 464.729 615.196 464.729C608.883 464.729 603.562 462.184 599.232 457.094C594.935 451.971 592.787 445.41 592.787 437.411C592.787 428.19 594.902 420.935 599.133 415.646C603.397 410.358 609.081 407.714 616.188 407.714C619.46 407.714 622.368 408.441 624.913 409.895C627.458 411.316 629.524 413.3 631.111 415.845V390.064H645.439ZM607.363 436.37C607.363 441.361 608.354 445.344 610.337 448.318C612.288 451.326 615.262 452.83 619.262 452.83C623.261 452.83 626.302 451.343 628.384 448.368C630.466 445.393 631.507 441.543 631.507 436.816C631.507 430.206 629.838 425.479 626.5 422.637C624.451 420.918 622.071 420.059 619.361 420.059C615.229 420.059 612.188 421.629 610.238 424.769C608.321 427.876 607.363 431.743 607.363 436.37ZM704.585 447.178C704.222 450.384 702.553 453.64 699.578 456.945C694.951 462.2 688.473 464.828 680.143 464.828C673.269 464.828 667.204 462.613 661.948 458.184C656.693 453.755 654.065 446.55 654.065 436.568C654.065 427.215 656.429 420.042 661.155 415.051C665.915 410.06 672.079 407.565 679.648 407.565C684.143 407.565 688.192 408.408 691.794 410.094C695.397 411.779 698.372 414.44 700.718 418.076C702.834 421.282 704.205 425 704.833 429.231C705.197 431.71 705.346 435.279 705.28 439.94H668.294C668.493 445.36 670.195 449.161 673.401 451.343C675.351 452.698 677.698 453.375 680.441 453.375C683.35 453.375 685.713 452.549 687.531 450.896C688.522 450.004 689.398 448.764 690.158 447.178H704.585ZM690.604 430.619C690.373 426.884 689.233 424.058 687.184 422.141C685.167 420.191 682.655 419.216 679.648 419.216C676.376 419.216 673.831 420.241 672.013 422.29C670.228 424.339 669.104 427.115 668.641 430.619H690.604Z" fill="#C2C2C2"/>
<path d="M849 96.5V28C849 22.4772 844.523 18 839 18H159C153.477 18 149 22.4771 149 28V708C149 713.523 153.477 718 159 718H839C844.523 718 849 713.523 849 708V309" stroke="#333333" stroke-width="34" stroke-linecap="round"/>
<path d="M227.5 768L159 768C153.477 768 149 772.477 149 778L149 972C149 977.523 153.477 982 159 982L839 982C844.523 982 849 977.523 849 972L849 778C849 772.477 844.523 768 839 768L440 768" stroke="#333333" stroke-width="34" stroke-linecap="round"/>
<path d="M217.968 883.112C217.968 881.425 217.37 880.124 216.175 879.21C214.997 878.296 212.861 877.373 209.768 876.441C206.674 875.51 204.213 874.473 202.385 873.33C198.887 871.133 197.138 868.268 197.138 864.734C197.138 861.641 198.395 859.092 200.908 857.088C203.439 855.084 206.718 854.082 210.743 854.082C213.415 854.082 215.797 854.574 217.889 855.559C219.98 856.543 221.624 857.949 222.819 859.777C224.015 861.588 224.612 863.601 224.612 865.815H217.968C217.968 863.812 217.335 862.247 216.069 861.122C214.821 859.979 213.028 859.408 210.69 859.408C208.511 859.408 206.814 859.874 205.602 860.806C204.406 861.737 203.809 863.038 203.809 864.708C203.809 866.114 204.459 867.292 205.76 868.241C207.061 869.173 209.205 870.087 212.193 870.983C215.182 871.862 217.581 872.873 219.392 874.016C221.202 875.141 222.529 876.441 223.373 877.918C224.217 879.377 224.639 881.091 224.639 883.06C224.639 886.259 223.408 888.808 220.947 890.706C218.504 892.587 215.182 893.527 210.98 893.527C208.203 893.527 205.646 893.018 203.308 891.998C200.987 890.961 199.177 889.537 197.876 887.727C196.593 885.916 195.951 883.807 195.951 881.398H202.622C202.622 883.578 203.343 885.266 204.784 886.461C206.226 887.656 208.291 888.254 210.98 888.254C213.301 888.254 215.041 887.788 216.201 886.856C217.379 885.907 217.968 884.659 217.968 883.112ZM259.786 880.502C259.399 884.598 257.888 887.797 255.251 890.1C252.614 892.385 249.107 893.527 244.73 893.527C241.672 893.527 238.974 892.807 236.636 891.365C234.315 889.906 232.522 887.841 231.257 885.169C229.991 882.497 229.332 879.395 229.279 875.861V872.275C229.279 868.654 229.921 865.464 231.204 862.704C232.487 859.944 234.324 857.817 236.715 856.323C239.123 854.829 241.9 854.082 245.047 854.082C249.283 854.082 252.693 855.233 255.277 857.536C257.861 859.839 259.364 863.091 259.786 867.292H253.142C252.825 864.532 252.017 862.546 250.716 861.333C249.433 860.103 247.543 859.487 245.047 859.487C242.146 859.487 239.914 860.551 238.35 862.678C236.803 864.787 236.012 867.89 235.977 871.985V875.387C235.977 879.535 236.715 882.699 238.191 884.879C239.686 887.059 241.865 888.148 244.73 888.148C247.35 888.148 249.318 887.56 250.637 886.382C251.955 885.204 252.79 883.244 253.142 880.502H259.786ZM287.261 884.062H272.39L269.278 893H262.344L276.846 854.609H282.831L297.359 893H290.398L287.261 884.062ZM274.262 878.683H285.389L279.825 862.757L274.262 878.683ZM332.19 893H325.52L308.407 865.763V893H301.736V854.609H308.407L325.572 881.952V854.609H332.19V893ZM379.678 859.988H367.707V893H361.089V859.988H349.224V854.609H379.678V859.988ZM414.641 874.807C414.641 878.568 413.99 881.873 412.689 884.721C411.389 887.551 409.525 889.73 407.1 891.26C404.691 892.771 401.914 893.527 398.768 893.527C395.656 893.527 392.879 892.771 390.436 891.26C388.01 889.73 386.129 887.56 384.793 884.747C383.475 881.935 382.807 878.691 382.789 875.018V872.855C382.789 869.111 383.448 865.807 384.767 862.941C386.103 860.076 387.975 857.888 390.383 856.376C392.809 854.847 395.586 854.082 398.715 854.082C401.844 854.082 404.612 854.838 407.021 856.35C409.446 857.844 411.318 860.006 412.637 862.836C413.955 865.648 414.623 868.927 414.641 872.671V874.807ZM407.97 872.803C407.97 868.549 407.161 865.288 405.544 863.021C403.944 860.753 401.668 859.619 398.715 859.619C395.832 859.619 393.573 860.753 391.938 863.021C390.321 865.271 389.495 868.461 389.46 872.592V874.807C389.46 879.025 390.277 882.286 391.912 884.589C393.564 886.892 395.85 888.043 398.768 888.043C401.721 888.043 403.988 886.918 405.57 884.668C407.17 882.418 407.97 879.131 407.97 874.807V872.803ZM448.259 884.642L458.015 854.609H465.345L451.528 893H445.068L431.305 854.609H438.608L448.259 884.642ZM476.735 893H470.091V854.609H476.735V893ZM505.001 883.112C505.001 881.425 504.403 880.124 503.208 879.21C502.03 878.296 499.895 877.373 496.801 876.441C493.707 875.51 491.246 874.473 489.418 873.33C485.92 871.133 484.171 868.268 484.171 864.734C484.171 861.641 485.428 859.092 487.941 857.088C490.473 855.084 493.751 854.082 497.776 854.082C500.448 854.082 502.83 854.574 504.922 855.559C507.014 856.543 508.657 857.949 509.853 859.777C511.048 861.588 511.646 863.601 511.646 865.815H505.001C505.001 863.812 504.368 862.247 503.103 861.122C501.854 859.979 500.062 859.408 497.724 859.408C495.544 859.408 493.848 859.874 492.635 860.806C491.439 861.737 490.842 863.038 490.842 864.708C490.842 866.114 491.492 867.292 492.793 868.241C494.094 869.173 496.238 870.087 499.227 870.983C502.215 871.862 504.614 872.873 506.425 874.016C508.235 875.141 509.562 876.441 510.406 877.918C511.25 879.377 511.672 881.091 511.672 883.06C511.672 886.259 510.441 888.808 507.98 890.706C505.537 892.587 502.215 893.527 498.014 893.527C495.236 893.527 492.679 893.018 490.341 891.998C488.021 890.961 486.21 889.537 484.909 887.727C483.626 885.916 482.984 883.807 482.984 881.398H489.655C489.655 883.578 490.376 885.266 491.817 886.461C493.259 887.656 495.324 888.254 498.014 888.254C500.334 888.254 502.074 887.788 503.234 886.856C504.412 885.907 505.001 884.659 505.001 883.112ZM524.565 893H517.921V854.609H524.565V893ZM559.713 859.988H547.742V893H541.124V859.988H529.259V854.609H559.713V859.988ZM607.279 874.807C607.279 878.568 606.629 881.873 605.328 884.721C604.027 887.551 602.164 889.73 599.738 891.26C597.33 892.771 594.553 893.527 591.406 893.527C588.295 893.527 585.518 892.771 583.074 891.26C580.648 889.73 578.768 887.56 577.432 884.747C576.113 881.935 575.445 878.691 575.428 875.018V872.855C575.428 869.111 576.087 865.807 577.405 862.941C578.741 860.076 580.613 857.888 583.021 856.376C585.447 854.847 588.225 854.082 591.354 854.082C594.482 854.082 597.251 854.838 599.659 856.35C602.085 857.844 603.957 860.006 605.275 862.836C606.594 865.648 607.262 868.927 607.279 872.671V874.807ZM600.608 872.803C600.608 868.549 599.8 865.288 598.183 863.021C596.583 860.753 594.307 859.619 591.354 859.619C588.471 859.619 586.212 860.753 584.577 863.021C582.96 865.271 582.134 868.461 582.099 872.592V874.807C582.099 879.025 582.916 882.286 584.551 884.589C586.203 886.892 588.488 888.043 591.406 888.043C594.359 888.043 596.627 886.918 598.209 884.668C599.809 882.418 600.608 879.131 600.608 874.807V872.803ZM642.005 854.609V880.265C642.005 884.343 640.695 887.577 638.076 889.968C635.475 892.341 632.003 893.527 627.661 893.527C623.267 893.527 619.777 892.358 617.193 890.021C614.609 887.665 613.317 884.404 613.317 880.238V854.609H619.962V880.291C619.962 882.857 620.612 884.817 621.913 886.171C623.214 887.524 625.13 888.201 627.661 888.201C632.794 888.201 635.36 885.494 635.36 880.08V854.609H642.005ZM663.257 878.208H655.821V893H649.15V854.609H662.65C667.08 854.609 670.499 855.603 672.907 857.589C675.315 859.575 676.52 862.449 676.52 866.211C676.52 868.777 675.896 870.931 674.647 872.671C673.417 874.394 671.694 875.721 669.479 876.652L678.102 892.657V893H670.956L663.257 878.208ZM655.821 872.855H662.677C664.927 872.855 666.685 872.293 667.95 871.168C669.216 870.025 669.849 868.47 669.849 866.501C669.849 864.444 669.26 862.854 668.082 861.729C666.922 860.604 665.182 860.023 662.861 859.988H655.821V872.855ZM716.36 883.112C716.36 881.425 715.763 880.124 714.567 879.21C713.39 878.296 711.254 877.373 708.16 876.441C705.066 875.51 702.605 874.473 700.777 873.33C697.279 871.133 695.53 868.268 695.53 864.734C695.53 861.641 696.787 859.092 699.301 857.088C701.832 855.084 705.11 854.082 709.136 854.082C711.808 854.082 714.189 854.574 716.281 855.559C718.373 856.543 720.017 857.949 721.212 859.777C722.407 861.588 723.005 863.601 723.005 865.815H716.36C716.36 863.812 715.728 862.247 714.462 861.122C713.214 859.979 711.421 859.408 709.083 859.408C706.903 859.408 705.207 859.874 703.994 860.806C702.799 861.737 702.201 863.038 702.201 864.708C702.201 866.114 702.852 867.292 704.152 868.241C705.453 869.173 707.598 870.087 710.586 870.983C713.574 871.862 715.974 872.873 717.784 874.016C719.595 875.141 720.922 876.441 721.766 877.918C722.609 879.377 723.031 881.091 723.031 883.06C723.031 886.259 721.801 888.808 719.34 890.706C716.896 892.587 713.574 893.527 709.373 893.527C706.596 893.527 704.038 893.018 701.7 891.998C699.38 890.961 697.569 889.537 696.269 887.727C694.985 885.916 694.344 883.807 694.344 881.398H701.015C701.015 883.578 701.735 885.266 703.177 886.461C704.618 887.656 706.684 888.254 709.373 888.254C711.693 888.254 713.434 887.788 714.594 886.856C715.771 885.907 716.36 884.659 716.36 883.112ZM735.925 893H729.28V854.609H735.925V893ZM771.072 859.988H759.102V893H752.483V859.988H740.618V854.609H771.072V859.988ZM798.573 875.861H782.806V887.674H801.236V893H776.135V854.609H801.052V859.988H782.806V870.588H798.573V875.861Z" fill="black"/>
</svg>
