<svg width="1000" height="1000" viewBox="0 0 1000 1000" fill="none" xmlns="http://www.w3.org/2000/svg">
<g clip-path="url(#clip0_255:82)">
<rect x="-146.047" y="447.062" width="852.926" height="193" transform="rotate(-45 -146.047 447.062)" fill="#333333"/>
<rect x="-96" y="960.242" width="1493.75" height="193" transform="rotate(-45 -96 960.242)" fill="#333333"/>
<rect x="373.975" y="1060.27" width="899.852" height="193" transform="rotate(-45 373.975 1060.27)" fill="#333333"/>
<rect x="85.5" y="214.5" width="701" height="701" rx="17.5" fill="white" stroke="#4A4268" stroke-width="15"/>
<path d="M154.968 845.112C154.968 843.425 154.37 842.124 153.175 841.21C151.997 840.296 149.861 839.373 146.768 838.441C143.674 837.51 141.213 836.473 139.385 835.33C135.887 833.133 134.138 830.268 134.138 826.734C134.138 823.641 135.395 821.092 137.908 819.088C140.439 817.084 143.718 816.082 147.743 816.082C150.415 816.082 152.797 816.574 154.889 817.559C156.98 818.543 158.624 819.949 159.819 821.777C161.015 823.588 161.612 825.601 161.612 827.815H154.968C154.968 825.812 154.335 824.247 153.069 823.122C151.821 821.979 150.028 821.408 147.69 821.408C145.511 821.408 143.814 821.874 142.602 822.806C141.406 823.737 140.809 825.038 140.809 826.708C140.809 828.114 141.459 829.292 142.76 830.241C144.061 831.173 146.205 832.087 149.193 832.983C152.182 833.862 154.581 834.873 156.392 836.016C158.202 837.141 159.529 838.441 160.373 839.918C161.217 841.377 161.639 843.091 161.639 845.06C161.639 848.259 160.408 850.808 157.947 852.706C155.504 854.587 152.182 855.527 147.98 855.527C145.203 855.527 142.646 855.018 140.308 853.998C137.987 852.961 136.177 851.537 134.876 849.727C133.593 847.916 132.951 845.807 132.951 843.398H139.622C139.622 845.578 140.343 847.266 141.784 848.461C143.226 849.656 145.291 850.254 147.98 850.254C150.301 850.254 152.041 849.788 153.201 848.856C154.379 847.907 154.968 846.659 154.968 845.112ZM196.786 842.502C196.399 846.598 194.888 849.797 192.251 852.1C189.614 854.385 186.107 855.527 181.73 855.527C178.672 855.527 175.974 854.807 173.636 853.365C171.315 851.906 169.522 849.841 168.257 847.169C166.991 844.497 166.332 841.395 166.279 837.861V834.275C166.279 830.654 166.921 827.464 168.204 824.704C169.487 821.944 171.324 819.817 173.715 818.323C176.123 816.829 178.9 816.082 182.047 816.082C186.283 816.082 189.693 817.233 192.277 819.536C194.861 821.839 196.364 825.091 196.786 829.292H190.142C189.825 826.532 189.017 824.546 187.716 823.333C186.433 822.103 184.543 821.487 182.047 821.487C179.146 821.487 176.914 822.551 175.35 824.678C173.803 826.787 173.012 829.89 172.977 833.985V837.387C172.977 841.535 173.715 844.699 175.191 846.879C176.686 849.059 178.865 850.148 181.73 850.148C184.35 850.148 186.318 849.56 187.637 848.382C188.955 847.204 189.79 845.244 190.142 842.502H196.786ZM224.261 846.062H209.39L206.278 855H199.344L213.846 816.609H219.831L234.359 855H227.398L224.261 846.062ZM211.262 840.683H222.389L216.825 824.757L211.262 840.683ZM269.19 855H262.52L245.407 827.763V855H238.736V816.609H245.407L262.572 843.952V816.609H269.19V855ZM316.678 821.988H304.707V855H298.089V821.988H286.224V816.609H316.678V821.988ZM351.641 836.807C351.641 840.568 350.99 843.873 349.689 846.721C348.389 849.551 346.525 851.73 344.1 853.26C341.691 854.771 338.914 855.527 335.768 855.527C332.656 855.527 329.879 854.771 327.436 853.26C325.01 851.73 323.129 849.56 321.793 846.747C320.475 843.935 319.807 840.691 319.789 837.018V834.855C319.789 831.111 320.448 827.807 321.767 824.941C323.103 822.076 324.975 819.888 327.383 818.376C329.809 816.847 332.586 816.082 335.715 816.082C338.844 816.082 341.612 816.838 344.021 818.35C346.446 819.844 348.318 822.006 349.637 824.836C350.955 827.648 351.623 830.927 351.641 834.671V836.807ZM344.97 834.803C344.97 830.549 344.161 827.288 342.544 825.021C340.944 822.753 338.668 821.619 335.715 821.619C332.832 821.619 330.573 822.753 328.938 825.021C327.321 827.271 326.495 830.461 326.46 834.592V836.807C326.46 841.025 327.277 844.286 328.912 846.589C330.564 848.892 332.85 850.043 335.768 850.043C338.721 850.043 340.988 848.918 342.57 846.668C344.17 844.418 344.97 841.131 344.97 836.807V834.803ZM385.259 846.642L395.015 816.609H402.345L388.528 855H382.068L368.305 816.609H375.608L385.259 846.642ZM413.735 855H407.091V816.609H413.735V855ZM442.001 845.112C442.001 843.425 441.403 842.124 440.208 841.21C439.03 840.296 436.895 839.373 433.801 838.441C430.707 837.51 428.246 836.473 426.418 835.33C422.92 833.133 421.171 830.268 421.171 826.734C421.171 823.641 422.428 821.092 424.941 819.088C427.473 817.084 430.751 816.082 434.776 816.082C437.448 816.082 439.83 816.574 441.922 817.559C444.014 818.543 445.657 819.949 446.853 821.777C448.048 823.588 448.646 825.601 448.646 827.815H442.001C442.001 825.812 441.368 824.247 440.103 823.122C438.854 821.979 437.062 821.408 434.724 821.408C432.544 821.408 430.848 821.874 429.635 822.806C428.439 823.737 427.842 825.038 427.842 826.708C427.842 828.114 428.492 829.292 429.793 830.241C431.094 831.173 433.238 832.087 436.227 832.983C439.215 833.862 441.614 834.873 443.425 836.016C445.235 837.141 446.562 838.441 447.406 839.918C448.25 841.377 448.672 843.091 448.672 845.06C448.672 848.259 447.441 850.808 444.98 852.706C442.537 854.587 439.215 855.527 435.014 855.527C432.236 855.527 429.679 855.018 427.341 853.998C425.021 852.961 423.21 851.537 421.909 849.727C420.626 847.916 419.984 845.807 419.984 843.398H426.655C426.655 845.578 427.376 847.266 428.817 848.461C430.259 849.656 432.324 850.254 435.014 850.254C437.334 850.254 439.074 849.788 440.234 848.856C441.412 847.907 442.001 846.659 442.001 845.112ZM461.565 855H454.921V816.609H461.565V855ZM496.713 821.988H484.742V855H478.124V821.988H466.259V816.609H496.713V821.988ZM544.279 836.807C544.279 840.568 543.629 843.873 542.328 846.721C541.027 849.551 539.164 851.73 536.738 853.26C534.33 854.771 531.553 855.527 528.406 855.527C525.295 855.527 522.518 854.771 520.074 853.26C517.648 851.73 515.768 849.56 514.432 846.747C513.113 843.935 512.445 840.691 512.428 837.018V834.855C512.428 831.111 513.087 827.807 514.405 824.941C515.741 822.076 517.613 819.888 520.021 818.376C522.447 816.847 525.225 816.082 528.354 816.082C531.482 816.082 534.251 816.838 536.659 818.35C539.085 819.844 540.957 822.006 542.275 824.836C543.594 827.648 544.262 830.927 544.279 834.671V836.807ZM537.608 834.803C537.608 830.549 536.8 827.288 535.183 825.021C533.583 822.753 531.307 821.619 528.354 821.619C525.471 821.619 523.212 822.753 521.577 825.021C519.96 827.271 519.134 830.461 519.099 834.592V836.807C519.099 841.025 519.916 844.286 521.551 846.589C523.203 848.892 525.488 850.043 528.406 850.043C531.359 850.043 533.627 848.918 535.209 846.668C536.809 844.418 537.608 841.131 537.608 836.807V834.803ZM579.005 816.609V842.265C579.005 846.343 577.695 849.577 575.076 851.968C572.475 854.341 569.003 855.527 564.661 855.527C560.267 855.527 556.777 854.358 554.193 852.021C551.609 849.665 550.317 846.404 550.317 842.238V816.609H556.962V842.291C556.962 844.857 557.612 846.817 558.913 848.171C560.214 849.524 562.13 850.201 564.661 850.201C569.794 850.201 572.36 847.494 572.36 842.08V816.609H579.005ZM600.257 840.208H592.821V855H586.15V816.609H599.65C604.08 816.609 607.499 817.603 609.907 819.589C612.315 821.575 613.52 824.449 613.52 828.211C613.52 830.777 612.896 832.931 611.647 834.671C610.417 836.394 608.694 837.721 606.479 838.652L615.102 854.657V855H607.956L600.257 840.208ZM592.821 834.855H599.677C601.927 834.855 603.685 834.293 604.95 833.168C606.216 832.025 606.849 830.47 606.849 828.501C606.849 826.444 606.26 824.854 605.082 823.729C603.922 822.604 602.182 822.023 599.861 821.988H592.821V834.855ZM653.36 845.112C653.36 843.425 652.763 842.124 651.567 841.21C650.39 840.296 648.254 839.373 645.16 838.441C642.066 837.51 639.605 836.473 637.777 835.33C634.279 833.133 632.53 830.268 632.53 826.734C632.53 823.641 633.787 821.092 636.301 819.088C638.832 817.084 642.11 816.082 646.136 816.082C648.808 816.082 651.189 816.574 653.281 817.559C655.373 818.543 657.017 819.949 658.212 821.777C659.407 823.588 660.005 825.601 660.005 827.815H653.36C653.36 825.812 652.728 824.247 651.462 823.122C650.214 821.979 648.421 821.408 646.083 821.408C643.903 821.408 642.207 821.874 640.994 822.806C639.799 823.737 639.201 825.038 639.201 826.708C639.201 828.114 639.852 829.292 641.152 830.241C642.453 831.173 644.598 832.087 647.586 832.983C650.574 833.862 652.974 834.873 654.784 836.016C656.595 837.141 657.922 838.441 658.766 839.918C659.609 841.377 660.031 843.091 660.031 845.06C660.031 848.259 658.801 850.808 656.34 852.706C653.896 854.587 650.574 855.527 646.373 855.527C643.596 855.527 641.038 855.018 638.7 853.998C636.38 852.961 634.569 851.537 633.269 849.727C631.985 847.916 631.344 845.807 631.344 843.398H638.015C638.015 845.578 638.735 847.266 640.177 848.461C641.618 849.656 643.684 850.254 646.373 850.254C648.693 850.254 650.434 849.788 651.594 848.856C652.771 847.907 653.36 846.659 653.36 845.112ZM672.925 855H666.28V816.609H672.925V855ZM708.072 821.988H696.102V855H689.483V821.988H677.618V816.609H708.072V821.988ZM735.573 837.861H719.806V849.674H738.236V855H713.135V816.609H738.052V821.988H719.806V832.588H735.573V837.861Z" fill="#333333"/>
<rect x="243.5" y="56.5" width="701" height="701" rx="17.5" fill="white" stroke="#4A4268" stroke-width="15"/>
<path d="M751.783 112.02H888.983V249.22" stroke="#C2C2C2" stroke-width="27.44"/>
<path d="M436.219 112.02H299.019V249.22" stroke="#C2C2C2" stroke-width="27.44"/>
<path d="M751.783 701.98H888.983V564.78" stroke="#C2C2C2" stroke-width="27.44"/>
<path d="M436.219 701.98H299.019V564.78" stroke="#C2C2C2" stroke-width="27.44"/>
<path d="M430.896 350.356L419.542 317.312L407.476 350.356H430.896ZM414.247 306.213H425.703L452.84 381.006H441.741L434.155 358.604H404.573L396.478 381.006H386.092L414.247 306.213ZM466.638 354.378C466.638 360.216 467.877 365.104 470.354 369.041C472.832 372.978 476.804 374.947 482.268 374.947C486.511 374.947 489.99 373.131 492.706 369.499C495.455 365.833 496.83 360.589 496.83 353.767C496.83 346.876 495.421 341.785 492.604 338.493C489.787 335.166 486.308 333.503 482.167 333.503C477.55 333.503 473.8 335.268 470.915 338.798C468.063 342.328 466.638 347.521 466.638 354.378ZM480.435 325.51C484.61 325.51 488.106 326.392 490.924 328.157C492.553 329.175 494.403 330.957 496.473 333.503V305.959H505.281V381.006H497.033V373.42C494.895 376.78 492.366 379.207 489.447 380.7C486.528 382.194 483.185 382.941 479.417 382.941C473.341 382.941 468.08 380.395 463.634 375.303C459.187 370.178 456.964 363.373 456.964 354.887C456.964 346.944 458.984 340.071 463.023 334.267C467.096 328.429 472.9 325.51 480.435 325.51ZM524.68 354.378C524.68 360.216 525.919 365.104 528.396 369.041C530.874 372.978 534.846 374.947 540.31 374.947C544.553 374.947 548.032 373.131 550.748 369.499C553.497 365.833 554.872 360.589 554.872 353.767C554.872 346.876 553.463 341.785 550.646 338.493C547.829 335.166 544.35 333.503 540.209 333.503C535.592 333.503 531.842 335.268 528.957 338.798C526.105 342.328 524.68 347.521 524.68 354.378ZM538.477 325.51C542.652 325.51 546.149 326.392 548.966 328.157C550.595 329.175 552.445 330.957 554.515 333.503V305.959H563.324V381.006H555.075V373.42C552.937 376.78 550.408 379.207 547.489 380.7C544.57 382.194 541.227 382.941 537.459 382.941C531.383 382.941 526.122 380.395 521.676 375.303C517.229 370.178 515.006 363.373 515.006 354.887C515.006 346.944 517.026 340.071 521.065 334.267C525.138 328.429 530.942 325.51 538.477 325.51ZM640 326.477H650.132C648.842 329.973 645.974 337.95 641.528 350.407C638.201 359.775 635.418 367.412 633.178 373.318C627.883 387.234 624.149 395.72 621.977 398.775C619.804 401.83 616.07 403.357 610.775 403.357C609.486 403.357 608.484 403.306 607.772 403.204C607.093 403.103 606.244 402.916 605.226 402.644V394.294C606.821 394.736 607.975 395.007 608.688 395.109C609.401 395.211 610.029 395.262 610.572 395.262C612.269 395.262 613.508 394.973 614.289 394.396C615.103 393.853 615.782 393.174 616.325 392.36C616.495 392.088 617.106 390.697 618.158 388.185C619.21 385.673 619.974 383.806 620.449 382.584L600.287 326.477H610.674L625.286 370.874L640 326.477ZM679.713 375.1C685.789 375.1 689.947 372.809 692.187 368.226C694.461 363.61 695.598 358.485 695.598 352.85C695.598 347.759 694.784 343.618 693.154 340.427C690.575 335.404 686.128 332.892 679.815 332.892C674.214 332.892 670.141 335.03 667.596 339.307C665.05 343.584 663.777 348.743 663.777 354.785C663.777 360.589 665.05 365.426 667.596 369.296C670.141 373.165 674.18 375.1 679.713 375.1ZM680.069 324.899C687.096 324.899 693.036 327.241 697.889 331.925C702.743 336.609 705.17 343.499 705.17 352.596C705.17 361.387 703.032 368.651 698.755 374.387C694.478 380.123 687.842 382.992 678.848 382.992C671.346 382.992 665.389 380.463 660.977 375.405C656.564 370.314 654.358 363.491 654.358 354.938C654.358 345.773 656.683 338.476 661.333 333.045C665.983 327.614 672.229 324.899 680.069 324.899ZM725.281 326.477V362.677C725.281 365.46 725.722 367.734 726.605 369.499C728.234 372.758 731.272 374.387 735.719 374.387C742.1 374.387 746.444 371.536 748.753 365.833C750.008 362.779 750.636 358.587 750.636 353.258V326.477H759.801V381.006H751.146L751.247 372.961C750.059 375.032 748.583 376.78 746.818 378.206C743.322 381.057 739.079 382.482 734.089 382.482C726.316 382.482 721.021 379.886 718.204 374.693C716.677 371.909 715.913 368.192 715.913 363.542V326.477H725.281ZM774.413 326.477H783.12V335.896C783.832 334.063 785.58 331.84 788.364 329.226C791.147 326.579 794.355 325.255 797.986 325.255C798.156 325.255 798.445 325.272 798.852 325.306C799.259 325.34 799.955 325.408 800.939 325.51V335.183C800.396 335.081 799.887 335.013 799.412 334.98C798.971 334.946 798.479 334.929 797.936 334.929C793.319 334.929 789.772 336.422 787.294 339.409C784.817 342.362 783.578 345.773 783.578 349.643V381.006H774.413V326.477Z" fill="#C2C2C2"/>
<path d="M431.814 504.585C428.454 505.705 424.432 506.265 419.748 506.265C409.972 506.265 401.894 503.346 395.513 497.508C387.774 490.482 383.904 480.163 383.904 466.552C383.904 452.839 387.875 442.47 395.818 435.444C402.301 429.707 410.363 426.839 420.002 426.839C429.71 426.839 437.856 429.877 444.441 435.953C452.044 442.979 455.846 452.805 455.846 465.432C455.846 472.119 455.031 477.719 453.402 482.234C452.078 486.544 450.126 490.125 447.547 492.977L456.202 501.072L448.005 509.626L438.942 501.072C436.193 502.735 433.817 503.906 431.814 504.585ZM428.454 491.042L420.868 483.812L428.963 475.36L436.549 482.59C437.737 480.146 438.569 478.008 439.044 476.175C439.791 473.426 440.164 470.218 440.164 466.552C440.164 458.134 438.433 451.634 434.971 447.052C431.543 442.436 426.519 440.128 419.9 440.128C413.689 440.128 408.733 442.334 405.034 446.747C401.334 451.159 399.484 457.761 399.484 466.552C399.484 476.837 402.131 484.202 407.426 488.649C410.855 491.534 414.962 492.977 419.748 492.977C421.547 492.977 423.278 492.756 424.941 492.315C425.857 492.077 427.028 491.653 428.454 491.042ZM499.734 474.749H483.543V504.178H468.218V429.13H505.029C510.29 429.232 514.329 429.877 517.146 431.065C519.997 432.253 522.407 434.001 524.376 436.309C526.005 438.21 527.295 440.315 528.246 442.623C529.196 444.931 529.671 447.561 529.671 450.514C529.671 454.078 528.772 457.591 526.973 461.054C525.174 464.482 522.204 466.909 518.063 468.334C521.525 469.726 523.969 471.712 525.394 474.291C526.854 476.837 527.584 480.74 527.584 486.001V491.042C527.584 494.47 527.719 496.795 527.991 498.017C528.398 499.952 529.349 501.377 530.842 502.294V504.178H513.582C513.107 502.515 512.768 501.174 512.564 500.156C512.157 498.051 511.936 495.896 511.902 493.689L511.8 486.714C511.732 481.928 510.85 478.738 509.153 477.142C507.49 475.547 504.35 474.749 499.734 474.749ZM509.255 461.104C512.377 459.679 513.939 456.862 513.939 452.653C513.939 448.104 512.428 445.05 509.407 443.488C507.71 442.606 505.164 442.164 501.77 442.164H483.543V462.326H501.312C504.842 462.326 507.49 461.919 509.255 461.104ZM619.076 468.589H604.209C603.938 466.518 603.242 464.651 602.122 462.988C600.493 460.748 597.964 459.628 594.536 459.628C589.648 459.628 586.305 462.055 584.506 466.909C583.555 469.488 583.08 472.917 583.08 477.193C583.08 481.266 583.555 484.542 584.506 487.02C586.237 491.636 589.495 493.944 594.281 493.944C597.675 493.944 600.085 493.028 601.511 491.195C602.936 489.362 603.802 486.986 604.107 484.067H618.923C618.584 488.479 616.989 492.654 614.138 496.592C609.589 502.939 602.852 506.112 593.925 506.112C584.998 506.112 578.43 503.465 574.221 498.17C570.012 492.875 567.908 486.001 567.908 477.55C567.908 468.012 570.233 460.595 574.883 455.3C579.533 450.005 585.948 447.358 594.128 447.358C601.087 447.358 606.772 448.919 611.185 452.042C615.631 455.164 618.262 460.68 619.076 468.589ZM675.387 455.708C680.071 461.58 682.413 468.521 682.413 476.531C682.413 484.678 680.071 491.653 675.387 497.457C670.703 503.227 663.592 506.112 654.054 506.112C644.516 506.112 637.405 503.227 632.721 497.457C628.037 491.653 625.695 484.678 625.695 476.531C625.695 468.521 628.037 461.58 632.721 455.708C637.405 449.835 644.516 446.899 654.054 446.899C663.592 446.899 670.703 449.835 675.387 455.708ZM654.003 459.17C649.76 459.17 646.485 460.68 644.177 463.701C641.903 466.688 640.766 470.965 640.766 476.531C640.766 482.098 641.903 486.392 644.177 489.413C646.485 492.434 649.76 493.944 654.003 493.944C658.246 493.944 661.505 492.434 663.779 489.413C666.053 486.392 667.19 482.098 667.19 476.531C667.19 470.965 666.053 466.688 663.779 463.701C661.505 460.68 658.246 459.17 654.003 459.17ZM743.357 429.232V504.178H729.254V496.49C727.184 499.782 724.825 502.175 722.177 503.669C719.53 505.162 716.237 505.909 712.3 505.909C705.817 505.909 700.352 503.295 695.906 498.068C691.493 492.807 689.287 486.069 689.287 477.855C689.287 468.385 691.459 460.935 695.804 455.504C700.182 450.073 706.02 447.358 713.318 447.358C716.678 447.358 719.665 448.104 722.279 449.598C724.893 451.057 727.014 453.094 728.643 455.708V429.232H743.357ZM704.255 476.786C704.255 481.911 705.274 486.001 707.31 489.056C709.313 492.145 712.368 493.689 716.475 493.689C720.582 493.689 723.705 492.162 725.843 489.107C727.981 486.052 729.051 482.098 729.051 477.244C729.051 470.456 727.336 465.602 723.908 462.683C721.804 460.918 719.36 460.035 716.577 460.035C712.334 460.035 709.211 461.648 707.208 464.872C705.24 468.063 704.255 472.034 704.255 476.786ZM804.098 487.885C803.725 491.178 802.01 494.521 798.956 497.915C794.204 503.312 787.551 506.011 778.997 506.011C771.937 506.011 765.709 503.736 760.312 499.188C754.915 494.64 752.217 487.24 752.217 476.99C752.217 467.384 754.643 460.018 759.497 454.893C764.385 449.768 770.715 447.205 778.488 447.205C783.104 447.205 787.262 448.07 790.962 449.802C794.662 451.533 797.717 454.265 800.127 457.999C802.299 461.291 803.708 465.11 804.353 469.454C804.726 472 804.879 475.666 804.811 480.452H766.829C767.032 486.018 768.781 489.922 772.073 492.162C774.076 493.554 776.486 494.249 779.303 494.249C782.29 494.249 784.717 493.401 786.583 491.704C787.602 490.787 788.501 489.514 789.282 487.885H804.098ZM789.74 470.88C789.503 467.044 788.332 464.142 786.227 462.174C784.157 460.171 781.577 459.17 778.488 459.17C775.128 459.17 772.514 460.222 770.647 462.326C768.814 464.431 767.66 467.282 767.185 470.88H789.74Z" fill="#C2C2C2"/>
</g>
<defs>
<clipPath id="clip0_255:82">
<rect width="1000" height="1000" fill="white"/>
</clipPath>
</defs>
</svg>
