<svg width="1000" height="1000" viewBox="0 0 1000 1000" fill="none" xmlns="http://www.w3.org/2000/svg">
<rect x="141" y="89" width="731" height="893" rx="16" fill="#333333"/>
<rect x="201" y="149" width="611" height="611" rx="4.43557" fill="white"/>
<path d="M639.82 208.971H755.766V324.916" stroke="#C2C2C2" stroke-width="22.0314"/>
<path d="M373.145 208.971H257.199V324.916" stroke="#C2C2C2" stroke-width="22.0314"/>
<path d="M639.82 707.533H755.766V591.588" stroke="#C2C2C2" stroke-width="22.0314"/>
<path d="M373.145 707.533H257.199V591.588" stroke="#C2C2C2" stroke-width="22.0314"/>
<path d="M375.514 407.924L366.398 381.394L356.71 407.924H375.514ZM362.147 372.483H371.344L393.133 432.533H384.221L378.13 414.547H354.38L347.88 432.533H339.541L362.147 372.483ZM404.211 411.154C404.211 415.841 405.206 419.765 407.195 422.927C409.184 426.088 412.373 427.669 416.761 427.669C420.167 427.669 422.96 426.211 425.141 423.295C427.348 420.351 428.452 416.141 428.452 410.663C428.452 405.131 427.321 401.043 425.059 398.4C422.797 395.729 420.004 394.393 416.679 394.393C412.972 394.393 409.961 395.811 407.645 398.645C405.355 401.479 404.211 405.649 404.211 411.154ZM415.289 387.976C418.641 387.976 421.448 388.684 423.71 390.101C425.018 390.919 426.503 392.35 428.166 394.393V372.278H435.238V432.533H428.615V426.442C426.898 429.14 424.868 431.089 422.524 432.288C420.181 433.487 417.496 434.087 414.471 434.087C409.593 434.087 405.369 432.043 401.799 427.955C398.229 423.84 396.444 418.376 396.444 411.562C396.444 405.185 398.065 399.667 401.308 395.007C404.579 390.319 409.239 387.976 415.289 387.976ZM450.812 411.154C450.812 415.841 451.807 419.765 453.797 422.927C455.786 426.088 458.974 427.669 463.362 427.669C466.769 427.669 469.562 426.211 471.742 423.295C473.95 420.351 475.053 416.141 475.053 410.663C475.053 405.131 473.922 401.043 471.66 398.4C469.399 395.729 466.605 394.393 463.28 394.393C459.574 394.393 456.563 395.811 454.246 398.645C451.957 401.479 450.812 405.649 450.812 411.154ZM461.89 387.976C465.243 387.976 468.05 388.684 470.311 390.101C471.62 390.919 473.105 392.35 474.767 394.393V372.278H481.839V432.533H475.217V426.442C473.5 429.14 471.47 431.089 469.126 432.288C466.782 433.487 464.098 434.087 461.073 434.087C456.195 434.087 451.971 432.043 448.401 427.955C444.83 423.84 443.045 418.376 443.045 411.562C443.045 405.185 444.667 399.667 447.91 395.007C451.18 390.319 455.84 387.976 461.89 387.976ZM543.402 388.752H551.537C550.502 391.559 548.199 397.964 544.629 407.965C541.958 415.487 539.723 421.619 537.925 426.361C533.673 437.534 530.676 444.347 528.931 446.8C527.187 449.253 524.189 450.479 519.938 450.479C518.902 450.479 518.099 450.438 517.526 450.356C516.981 450.275 516.3 450.125 515.482 449.907V443.203C516.763 443.557 517.69 443.775 518.262 443.857C518.834 443.938 519.339 443.979 519.775 443.979C521.137 443.979 522.132 443.748 522.759 443.284C523.413 442.848 523.958 442.303 524.394 441.649C524.53 441.431 525.021 440.314 525.865 438.297C526.71 436.28 527.323 434.782 527.705 433.8L511.517 388.752H519.856L531.588 424.398L543.402 388.752ZM575.288 427.791C580.166 427.791 583.504 425.952 585.303 422.273C587.129 418.566 588.042 414.451 588.042 409.927C588.042 405.839 587.388 402.515 586.08 399.953C584.008 395.92 580.438 393.903 575.369 393.903C570.873 393.903 567.603 395.62 565.559 399.054C563.515 402.487 562.493 406.63 562.493 411.481C562.493 416.141 563.515 420.024 565.559 423.131C567.603 426.238 570.846 427.791 575.288 427.791ZM575.574 387.485C581.215 387.485 585.984 389.365 589.881 393.126C593.778 396.887 595.727 402.419 595.727 409.723C595.727 416.781 594.01 422.613 590.576 427.219C587.142 431.825 581.815 434.127 574.593 434.127C568.57 434.127 563.787 432.097 560.244 428.037C556.702 423.949 554.93 418.471 554.93 411.603C554.93 404.245 556.797 398.386 560.531 394.026C564.264 389.665 569.279 387.485 575.574 387.485ZM611.874 388.752V417.817C611.874 420.052 612.228 421.878 612.937 423.295C614.245 425.911 616.684 427.219 620.254 427.219C625.378 427.219 628.866 424.93 630.719 420.351C631.727 417.899 632.232 414.533 632.232 410.254V388.752H639.59V432.533H632.64L632.722 426.074C631.768 427.737 630.583 429.14 629.166 430.285C626.359 432.574 622.952 433.719 618.946 433.719C612.705 433.719 608.454 431.634 606.192 427.464C604.966 425.23 604.352 422.245 604.352 418.512V388.752H611.874ZM651.322 388.752H658.312V396.315C658.884 394.843 660.288 393.058 662.523 390.96C664.757 388.834 667.333 387.771 670.249 387.771C670.385 387.771 670.617 387.785 670.944 387.812C671.271 387.839 671.829 387.894 672.62 387.976V395.742C672.184 395.661 671.775 395.606 671.393 395.579C671.039 395.552 670.644 395.538 670.208 395.538C666.501 395.538 663.654 396.737 661.664 399.135C659.675 401.506 658.68 404.245 658.68 407.352V432.533H651.322V388.752Z" fill="#C2C2C2"/>
<path d="M376.257 536.954C373.559 537.853 370.329 538.303 366.568 538.303C358.72 538.303 352.234 535.959 347.11 531.272C340.897 525.631 337.79 517.346 337.79 506.418C337.79 495.408 340.978 487.082 347.356 481.441C352.561 476.835 359.033 474.532 366.773 474.532C374.567 474.532 381.108 476.971 386.395 481.85C392.499 487.491 395.551 495.38 395.551 505.518C395.551 510.887 394.897 515.384 393.589 519.008C392.526 522.469 390.959 525.344 388.888 527.634L395.838 534.133L389.256 541.001L381.98 534.133C379.772 535.469 377.865 536.409 376.257 536.954ZM373.559 526.08L367.468 520.276L373.967 513.49L380.058 519.294C381.012 517.332 381.68 515.615 382.061 514.144C382.661 511.936 382.961 509.361 382.961 506.418C382.961 499.659 381.571 494.44 378.791 490.761C376.039 487.055 372.005 485.202 366.691 485.202C361.704 485.202 357.725 486.973 354.755 490.516C351.784 494.059 350.299 499.359 350.299 506.418C350.299 514.675 352.424 520.589 356.676 524.159C359.428 526.475 362.726 527.634 366.568 527.634C368.013 527.634 369.403 527.457 370.738 527.102C371.474 526.911 372.414 526.571 373.559 526.08ZM430.789 512.999H417.789V536.627H405.485V476.372H435.04C439.264 476.454 442.507 476.971 444.769 477.925C447.058 478.879 448.993 480.283 450.574 482.136C451.882 483.662 452.918 485.352 453.681 487.205C454.444 489.058 454.825 491.17 454.825 493.541C454.825 496.402 454.103 499.223 452.659 502.003C451.214 504.755 448.83 506.704 445.505 507.848C448.285 508.966 450.247 510.56 451.392 512.631C452.563 514.675 453.149 517.809 453.149 522.033V526.08C453.149 528.833 453.258 530.7 453.476 531.681C453.803 533.234 454.566 534.379 455.766 535.114V536.627H441.908C441.526 535.292 441.254 534.215 441.09 533.398C440.763 531.708 440.586 529.977 440.559 528.206L440.477 522.606C440.422 518.763 439.714 516.201 438.351 514.92C437.016 513.64 434.495 512.999 430.789 512.999ZM438.433 502.044C440.94 500.899 442.194 498.637 442.194 495.258C442.194 491.606 440.981 489.153 438.556 487.9C437.193 487.191 435.149 486.837 432.424 486.837H417.789V503.025H432.056C434.89 503.025 437.016 502.698 438.433 502.044ZM526.608 508.053H514.672C514.454 506.39 513.895 504.892 512.996 503.556C511.687 501.758 509.657 500.858 506.905 500.858C502.98 500.858 500.296 502.807 498.852 506.704C498.088 508.775 497.707 511.528 497.707 514.961C497.707 518.232 498.088 520.861 498.852 522.851C500.241 526.557 502.858 528.41 506.7 528.41C509.425 528.41 511.36 527.675 512.505 526.203C513.65 524.731 514.345 522.824 514.59 520.48H526.485C526.213 524.023 524.932 527.375 522.643 530.536C518.991 535.632 513.581 538.18 506.414 538.18C499.247 538.18 493.973 536.055 490.594 531.803C487.215 527.552 485.525 522.033 485.525 515.247C485.525 507.59 487.392 501.635 491.126 497.384C494.859 493.132 500.01 491.006 506.578 491.006C512.164 491.006 516.729 492.26 520.272 494.767C523.842 497.275 525.954 501.703 526.608 508.053ZM571.82 497.711C575.581 502.425 577.461 507.998 577.461 514.43C577.461 520.97 575.581 526.571 571.82 531.231C568.059 535.864 562.35 538.18 554.692 538.18C547.034 538.18 541.324 535.864 537.564 531.231C533.803 526.571 531.922 520.97 531.922 514.43C531.922 507.998 533.803 502.425 537.564 497.711C541.324 492.996 547.034 490.639 554.692 490.639C562.35 490.639 568.059 492.996 571.82 497.711ZM554.651 500.49C551.244 500.49 548.614 501.703 546.761 504.128C544.935 506.527 544.022 509.96 544.022 514.43C544.022 518.899 544.935 522.347 546.761 524.772C548.614 527.198 551.244 528.41 554.651 528.41C558.057 528.41 560.674 527.198 562.5 524.772C564.325 522.347 565.238 518.899 565.238 514.43C565.238 509.96 564.325 506.527 562.5 504.128C560.674 501.703 558.057 500.49 554.651 500.49ZM626.393 476.454V536.627H615.069V530.454C613.407 533.098 611.513 535.019 609.387 536.218C607.262 537.417 604.618 538.017 601.457 538.017C596.252 538.017 591.864 535.918 588.294 531.722C584.751 527.497 582.98 522.088 582.98 515.493C582.98 507.889 584.724 501.907 588.212 497.547C591.728 493.187 596.415 491.006 602.274 491.006C604.972 491.006 607.371 491.606 609.469 492.805C611.567 493.977 613.271 495.612 614.579 497.711V476.454H626.393ZM594.998 514.634C594.998 518.749 595.816 522.033 597.451 524.486C599.059 526.966 601.511 528.206 604.809 528.206C608.106 528.206 610.614 526.98 612.331 524.527C614.047 522.074 614.906 518.899 614.906 515.002C614.906 509.552 613.53 505.655 610.777 503.311C609.087 501.894 607.125 501.185 604.891 501.185C601.484 501.185 598.977 502.48 597.369 505.069C595.788 507.63 594.998 510.819 594.998 514.634ZM675.161 523.546C674.861 526.189 673.485 528.874 671.032 531.599C667.217 535.932 661.875 538.099 655.008 538.099C649.339 538.099 644.338 536.273 640.005 532.621C635.672 528.969 633.506 523.028 633.506 514.798C633.506 507.085 635.454 501.172 639.351 497.056C643.276 492.941 648.358 490.884 654.599 490.884C658.305 490.884 661.644 491.579 664.614 492.969C667.585 494.358 670.037 496.552 671.972 499.55C673.716 502.194 674.847 505.259 675.365 508.748C675.665 510.792 675.788 513.735 675.733 517.578H645.238C645.401 522.047 646.805 525.181 649.448 526.98C651.056 528.097 652.991 528.656 655.253 528.656C657.651 528.656 659.6 527.974 661.099 526.612C661.916 525.876 662.638 524.854 663.265 523.546H675.161ZM663.633 509.892C663.442 506.813 662.502 504.483 660.812 502.902C659.15 501.294 657.079 500.49 654.599 500.49C651.901 500.49 649.803 501.335 648.304 503.025C646.832 504.714 645.905 507.004 645.524 509.892H663.633Z" fill="#C2C2C2"/>
<path d="M59.9287 382V385H62.9287H127.614H130.614V382V214.201H191.111H193.974L194.108 211.341L196.997 149.845L197.144 146.705H194H130.614V104.801C130.614 96.3314 131.549 90.494 134.504 86.7008C137.304 83.1057 142.542 80.6301 153.199 80.6301C163.379 80.6301 173.134 80.6758 180.345 80.7214C183.95 80.7442 186.919 80.7671 188.986 80.7842C190.02 80.7927 190.828 80.7999 191.378 80.8049L192.004 80.8107L192.164 80.8122L192.204 80.8126L192.214 80.8127L192.217 80.8127L192.217 80.8127C192.218 80.8127 192.218 80.8127 192.247 77.8128L192.218 80.8127L195.172 80.8416L195.246 77.8882L196.689 20.4614L196.757 17.7603L194.077 17.4112L193.69 20.386C194.077 17.4112 194.077 17.4111 194.077 17.4111L194.076 17.4109L194.072 17.4105L194.06 17.4089L194.016 17.4033L193.849 17.3823C193.703 17.3641 193.489 17.3378 193.209 17.3045C192.648 17.2378 191.824 17.1432 190.759 17.03C188.631 16.8036 185.54 16.5027 181.673 16.202C173.941 15.6009 163.095 15 150.621 15C119.403 15 96.6458 24.6927 81.6953 40.0164C66.7716 55.3126 59.9287 75.9113 59.9287 97.1791V146.705H18H15V149.705V211.201V214.201H18H59.9287V382Z" fill="white" stroke="#333333" stroke-width="6"/>
<path d="M350.414 831.255H325.95V857H318.263V798.703H354.378V805.029H325.95V824.969H350.414V831.255ZM370.474 857H363.066V813.678H370.474V857ZM362.466 802.187C362.466 800.985 362.826 799.971 363.547 799.144C364.294 798.316 365.389 797.902 366.83 797.902C368.271 797.902 369.366 798.316 370.113 799.144C370.861 799.971 371.234 800.985 371.234 802.187C371.234 803.388 370.861 804.389 370.113 805.189C369.366 805.99 368.271 806.391 366.83 806.391C365.389 806.391 364.294 805.99 363.547 805.189C362.826 804.389 362.466 803.388 362.466 802.187ZM389.372 813.678L389.612 819.123C392.922 814.959 397.246 812.877 402.585 812.877C411.741 812.877 416.358 818.042 416.438 828.372V857H409.031V828.332C409.005 825.209 408.284 822.9 406.869 821.405C405.481 819.91 403.306 819.163 400.343 819.163C397.94 819.163 395.832 819.804 394.017 821.085C392.201 822.366 390.787 824.048 389.772 826.13V857H382.365V813.678H389.372ZM425.808 834.979C425.808 828.332 427.382 822.993 430.532 818.963C433.682 814.906 437.806 812.877 442.904 812.877C447.976 812.877 451.993 814.612 454.956 818.082V795.5H462.363V857H455.557L455.196 852.355C452.233 855.986 448.109 857.801 442.824 857.801C437.806 857.801 433.709 855.745 430.532 851.635C427.382 847.524 425.808 842.159 425.808 835.539V834.979ZM433.215 835.819C433.215 840.731 434.229 844.575 436.258 847.351C438.286 850.127 441.089 851.515 444.666 851.515C449.364 851.515 452.794 849.406 454.956 845.188V825.289C452.741 821.205 449.337 819.163 444.746 819.163C441.116 819.163 438.286 820.564 436.258 823.367C434.229 826.17 433.215 830.321 433.215 835.819ZM520.98 852.716C518.098 856.106 513.867 857.801 508.288 857.801C503.67 857.801 500.147 856.466 497.718 853.797C495.315 851.101 494.101 847.124 494.074 841.865V813.678H501.481V841.665C501.481 848.231 504.151 851.515 509.489 851.515C515.148 851.515 518.912 849.406 520.78 845.188V813.678H528.188V857H521.141L520.98 852.716ZM564.703 845.509C564.703 843.507 563.942 841.959 562.421 840.864C560.926 839.743 558.297 838.782 554.533 837.981C550.796 837.181 547.82 836.22 545.604 835.099C543.416 833.978 541.787 832.643 540.72 831.095C539.679 829.547 539.158 827.705 539.158 825.569C539.158 822.019 540.653 819.016 543.643 816.561C546.659 814.105 550.503 812.877 555.174 812.877C560.085 812.877 564.062 814.145 567.105 816.681C570.175 819.216 571.71 822.46 571.71 826.41H564.263C564.263 824.382 563.395 822.633 561.66 821.165C559.952 819.697 557.79 818.963 555.174 818.963C552.478 818.963 550.369 819.55 548.848 820.725C547.326 821.899 546.565 823.434 546.565 825.329C546.565 827.118 547.273 828.465 548.688 829.373C550.102 830.281 552.651 831.148 556.335 831.976C560.045 832.803 563.048 833.791 565.344 834.938C567.639 836.086 569.334 837.474 570.429 839.103C571.55 840.704 572.11 842.666 572.11 844.988C572.11 848.859 570.562 851.968 567.466 854.317C564.369 856.64 560.352 857.801 555.414 857.801C551.944 857.801 548.874 857.187 546.205 855.959C543.536 854.731 541.44 853.023 539.919 850.834C538.424 848.618 537.677 846.229 537.677 843.667H545.084C545.217 846.149 546.205 848.125 548.047 849.593C549.915 851.034 552.371 851.755 555.414 851.755C558.217 851.755 560.459 851.194 562.141 850.073C563.849 848.925 564.703 847.404 564.703 845.509ZM600.138 834.938C600.138 830.694 600.965 826.877 602.62 823.487C604.302 820.097 606.624 817.481 609.587 815.64C612.576 813.798 615.98 812.877 619.797 812.877C625.696 812.877 630.461 814.919 634.091 819.003C637.748 823.087 639.576 828.519 639.576 835.299V835.819C639.576 840.037 638.762 843.827 637.134 847.19C635.532 850.527 633.223 853.13 630.207 854.998C627.217 856.867 623.774 857.801 619.877 857.801C614.005 857.801 609.24 855.759 605.583 851.675C601.953 847.591 600.138 842.186 600.138 835.459V834.938ZM607.585 835.819C607.585 840.624 608.693 844.481 610.908 847.391C613.15 850.3 616.14 851.755 619.877 851.755C623.641 851.755 626.63 850.287 628.846 847.351C631.061 844.388 632.169 840.25 632.169 834.938C632.169 830.187 631.035 826.343 628.766 823.407C626.523 820.444 623.534 818.963 619.797 818.963C616.14 818.963 613.19 820.418 610.948 823.327C608.706 826.237 607.585 830.401 607.585 835.819ZM655.872 813.678L656.112 819.123C659.422 814.959 663.746 812.877 669.085 812.877C678.241 812.877 682.858 818.042 682.938 828.372V857H675.531V828.332C675.505 825.209 674.784 822.9 673.369 821.405C671.981 819.91 669.806 819.163 666.843 819.163C664.44 819.163 662.332 819.804 660.517 821.085C658.701 822.366 657.287 824.048 656.272 826.13V857H648.865V813.678H655.872ZM360.864 917.255H336.4V943H328.713V884.703H364.828V891.029H336.4V910.969H360.864V917.255ZM398.261 943C397.834 942.146 397.487 940.624 397.22 938.436C393.776 942.012 389.666 943.801 384.888 943.801C380.617 943.801 377.107 942.6 374.357 940.197C371.635 937.768 370.273 934.699 370.273 930.988C370.273 926.477 371.982 922.98 375.398 920.498C378.842 917.989 383.673 916.734 389.893 916.734H397.1V913.331C397.1 910.742 396.326 908.687 394.777 907.165C393.229 905.617 390.947 904.843 387.931 904.843C385.288 904.843 383.073 905.51 381.284 906.845C379.496 908.179 378.602 909.794 378.602 911.689H371.154C371.154 909.527 371.915 907.445 373.437 905.443C374.985 903.415 377.067 901.813 379.683 900.639C382.325 899.464 385.221 898.877 388.371 898.877C393.363 898.877 397.273 900.132 400.103 902.641C402.932 905.123 404.4 908.553 404.507 912.931V932.87C404.507 936.847 405.014 940.01 406.028 942.359V943H398.261ZM385.969 937.354C388.291 937.354 390.493 936.754 392.575 935.553C394.657 934.352 396.165 932.79 397.1 930.868V921.979H391.294C382.218 921.979 377.681 924.635 377.681 929.947C377.681 932.27 378.455 934.085 380.003 935.393C381.551 936.701 383.54 937.354 385.969 937.354ZM433.495 937.755C436.138 937.755 438.447 936.954 440.422 935.353C442.397 933.751 443.492 931.749 443.705 929.347H450.712C450.578 931.829 449.724 934.191 448.149 936.434C446.575 938.676 444.466 940.464 441.823 941.799C439.207 943.133 436.431 943.801 433.495 943.801C427.596 943.801 422.898 941.839 419.401 937.915C415.931 933.965 414.196 928.573 414.196 921.739V920.498C414.196 916.281 414.97 912.53 416.519 909.247C418.067 905.964 420.282 903.415 423.165 901.6C426.075 899.785 429.505 898.877 433.455 898.877C438.313 898.877 442.344 900.332 445.547 903.241C448.777 906.151 450.498 909.928 450.712 914.572H443.705C443.492 911.77 442.424 909.474 440.502 907.686C438.607 905.87 436.258 904.963 433.455 904.963C429.691 904.963 426.769 906.324 424.687 909.047C422.631 911.743 421.604 915.653 421.604 920.778V922.18C421.604 927.171 422.631 931.015 424.687 933.711C426.742 936.407 429.678 937.755 433.495 937.755ZM477.018 943.801C471.145 943.801 466.367 941.879 462.684 938.035C459 934.165 457.158 929 457.158 922.54V921.179C457.158 916.881 457.972 913.051 459.601 909.688C461.256 906.298 463.551 903.655 466.487 901.76C469.45 899.838 472.653 898.877 476.097 898.877C481.729 898.877 486.106 900.732 489.229 904.442C492.353 908.153 493.914 913.465 493.914 920.378V923.461H464.565C464.672 927.732 465.913 931.188 468.289 933.831C470.691 936.447 473.734 937.755 477.418 937.755C480.034 937.755 482.249 937.221 484.064 936.153C485.88 935.086 487.468 933.671 488.829 931.909L493.354 935.433C489.723 941.011 484.278 943.801 477.018 943.801ZM476.097 904.963C473.107 904.963 470.598 906.057 468.569 908.246C466.541 910.408 465.286 913.451 464.806 917.375H486.507V916.814C486.293 913.051 485.279 910.141 483.464 908.086C481.649 906.004 479.193 904.963 476.097 904.963ZM539.198 921.819C539.198 928.439 537.677 933.764 534.634 937.795C531.591 941.799 527.507 943.801 522.382 943.801C516.91 943.801 512.679 941.866 509.689 937.995L509.329 943H502.522V881.5H509.93V904.442C512.919 900.732 517.043 898.877 522.302 898.877C527.56 898.877 531.684 900.866 534.674 904.843C537.69 908.82 539.198 914.265 539.198 921.179V921.819ZM531.791 920.979C531.791 915.934 530.817 912.036 528.868 909.287C526.92 906.538 524.117 905.163 520.46 905.163C515.575 905.163 512.065 907.432 509.93 911.97V930.708C512.199 935.246 515.735 937.515 520.54 937.515C524.09 937.515 526.853 936.14 528.828 933.391C530.803 930.641 531.791 926.504 531.791 920.979ZM546.605 920.938C546.605 916.694 547.433 912.877 549.088 909.487C550.77 906.097 553.092 903.481 556.055 901.64C559.044 899.798 562.448 898.877 566.265 898.877C572.164 898.877 576.928 900.919 580.559 905.003C584.215 909.087 586.044 914.519 586.044 921.299V921.819C586.044 926.037 585.23 929.827 583.602 933.19C582 936.527 579.691 939.13 576.675 940.998C573.685 942.867 570.242 943.801 566.345 943.801C560.472 943.801 555.708 941.759 552.051 937.675C548.421 933.591 546.605 928.186 546.605 921.459V920.938ZM554.053 921.819C554.053 926.624 555.16 930.481 557.376 933.391C559.618 936.3 562.608 937.755 566.345 937.755C570.108 937.755 573.098 936.287 575.313 933.351C577.529 930.388 578.637 926.25 578.637 920.938C578.637 916.187 577.502 912.343 575.233 909.407C572.991 906.444 570.002 904.963 566.265 904.963C562.608 904.963 559.658 906.418 557.416 909.327C555.174 912.237 554.053 916.401 554.053 921.819ZM593.371 920.938C593.371 916.694 594.199 912.877 595.854 909.487C597.535 906.097 599.857 903.481 602.82 901.64C605.81 899.798 609.213 898.877 613.03 898.877C618.929 898.877 623.694 900.919 627.324 905.003C630.981 909.087 632.81 914.519 632.81 921.299V921.819C632.81 926.037 631.995 929.827 630.367 933.19C628.766 936.527 626.457 939.13 623.44 940.998C620.451 942.867 617.007 943.801 613.11 943.801C607.238 943.801 602.473 941.759 598.816 937.675C595.186 933.591 593.371 928.186 593.371 921.459V920.938ZM600.818 921.819C600.818 926.624 601.926 930.481 604.142 933.391C606.384 936.3 609.373 937.755 613.11 937.755C616.874 937.755 619.864 936.287 622.079 933.351C624.295 930.388 625.402 926.25 625.402 920.938C625.402 916.187 624.268 912.343 621.999 909.407C619.757 906.444 616.767 904.963 613.03 904.963C609.373 904.963 606.424 906.418 604.182 909.327C601.939 912.237 600.818 916.401 600.818 921.819ZM654.19 922.94L649.546 927.785V943H642.139V881.5H649.546V918.696L653.51 913.932L667.003 899.678H676.012L659.155 917.775L677.974 943H669.285L654.19 922.94Z" fill="white"/>
</svg>
