<svg width="1000" height="1000" viewBox="0 0 1000 1000" fill="none" xmlns="http://www.w3.org/2000/svg">
<g clip-path="url(#clip0_288_1297)">
<rect x="328" y="164" width="672" height="672" rx="17" fill="#333333"/>
<mask id="path-2-inside-1_288_1297" fill="white">
<rect y="300.748" width="400" height="140" rx="5.34642" transform="rotate(-7 0 300.748)"/>
</mask>
<rect y="300.748" width="400" height="140" rx="5.34642" transform="rotate(-7 0 300.748)" fill="#333333" stroke="white" stroke-width="14.7027" mask="url(#path-2-inside-1_288_1297)"/>
<mask id="path-3-inside-2_288_1297" fill="white">
<rect x="36.2344" y="449" width="400" height="140" rx="8" transform="rotate(15 36.2344 449)"/>
</mask>
<rect x="36.2344" y="449" width="400" height="140" rx="8" transform="rotate(15 36.2344 449)" fill="#333333" stroke="white" stroke-width="22" mask="url(#path-3-inside-2_288_1297)"/>
<path d="M240.921 462.512C240.921 459.148 241.577 456.122 242.889 453.435C244.222 450.748 246.062 448.674 248.411 447.214C250.781 445.754 253.479 445.024 256.504 445.024C261.181 445.024 264.957 446.643 267.835 449.88C270.734 453.118 272.183 457.424 272.183 462.798V463.21C272.183 466.554 271.538 469.558 270.247 472.224C268.978 474.869 267.147 476.932 264.756 478.413C262.387 479.894 259.657 480.635 256.568 480.635C251.913 480.635 248.136 479.016 245.237 475.779C242.36 472.542 240.921 468.257 240.921 462.925V462.512ZM246.824 463.21C246.824 467.019 247.702 470.076 249.458 472.383C251.236 474.689 253.606 475.842 256.568 475.842C259.551 475.842 261.921 474.679 263.677 472.351C265.433 470.002 266.312 466.723 266.312 462.512C266.312 458.746 265.412 455.699 263.614 453.372C261.836 451.023 259.467 449.849 256.504 449.849C253.606 449.849 251.268 451.002 249.49 453.308C247.713 455.614 246.824 458.915 246.824 463.21ZM285.101 445.659L285.291 449.976C287.915 446.675 291.342 445.024 295.574 445.024C302.832 445.024 306.492 449.119 306.556 457.307V480H300.684V457.275C300.663 454.8 300.092 452.97 298.97 451.785C297.87 450.6 296.146 450.007 293.797 450.007C291.893 450.007 290.221 450.515 288.782 451.531C287.343 452.546 286.222 453.879 285.418 455.53V480H279.546V445.659H285.101Z" fill="#333333"/>
<path d="M93.0793 361.843L72.3512 364.388L75.0296 386.202L68.516 387.001L62.4511 337.607L93.0514 333.849L93.7095 339.21L69.6228 342.167L71.6972 359.062L92.4254 356.517L93.0793 361.843ZM101.231 364.01C100.79 360.414 101.094 357.094 102.143 354.049C103.216 351.002 104.911 348.544 107.23 346.675C109.571 344.804 112.359 343.669 115.593 343.272C120.592 342.658 124.841 343.893 128.342 346.976C131.865 350.055 133.98 354.468 134.685 360.212L134.739 360.653C135.178 364.227 134.882 367.523 133.853 370.542C132.843 373.536 131.157 375.981 128.796 377.878C126.457 379.772 123.637 380.922 120.335 381.328C115.359 381.938 111.11 380.704 107.586 377.624C104.086 374.541 101.985 370.15 101.286 364.451L101.231 364.01ZM107.633 363.982C108.133 368.053 109.473 371.205 111.653 373.44C113.855 375.672 116.54 376.594 119.706 376.205C122.895 375.813 125.275 374.258 126.847 371.54C128.416 368.799 128.924 365.178 128.371 360.678C127.877 356.652 126.516 353.513 124.288 351.261C122.08 348.984 119.393 348.04 116.226 348.429C113.128 348.809 110.78 350.349 109.183 353.047C107.586 355.746 107.069 359.39 107.633 363.982ZM151.632 376.796L145.356 377.567L138.958 325.458L145.234 324.687L151.632 376.796ZM168.527 374.722L162.251 375.492L155.852 323.384L162.129 322.613L168.527 374.722ZM174.645 354.996C174.203 351.4 174.507 348.08 175.557 345.035C176.629 341.988 178.325 339.53 180.643 337.661C182.985 335.79 185.773 334.655 189.007 334.258C194.005 333.644 198.255 334.879 201.755 337.962C205.279 341.041 207.393 345.454 208.098 351.198L208.153 351.639C208.591 355.213 208.296 358.509 207.266 361.528C206.256 364.522 204.571 366.967 202.209 368.864C199.871 370.758 197.05 371.908 193.748 372.313C188.773 372.924 184.523 371.69 181 368.61C177.499 365.527 175.399 361.136 174.699 355.437L174.645 354.996ZM181.047 354.968C181.546 359.038 182.886 362.191 185.066 364.426C187.269 366.658 189.953 367.58 193.119 367.191C196.308 366.799 198.689 365.244 200.26 362.526C201.829 359.785 202.337 356.164 201.785 351.664C201.291 347.638 199.929 344.499 197.702 342.247C195.494 339.97 192.806 339.026 189.64 339.415C186.542 339.795 184.194 341.335 182.597 344.033C181 346.732 180.483 350.376 181.047 354.968ZM249.665 355.978L253.276 327.056L259.552 326.285L253.373 364.304L248.284 364.929L235.946 338.206L230.677 367.09L225.588 367.715L210.429 332.316L216.671 331.55L227.271 358.142L232.446 329.613L237.501 328.992L249.665 355.978ZM309.921 353.676C307.831 356.848 304.423 358.724 299.696 359.305C295.783 359.785 292.659 359.021 290.323 357.012C288.007 354.978 286.564 351.734 285.995 347.281L283.062 323.398L289.338 322.628L292.25 346.341C292.933 351.905 295.536 354.409 300.06 353.854C304.854 353.265 307.824 351.087 308.968 347.319L305.69 320.62L311.966 319.849L316.473 356.556L310.502 357.289L309.921 353.676ZM346.217 343.021C346.009 341.324 345.203 340.092 343.8 339.323C342.417 338.528 340.089 337.988 336.817 337.701C333.568 337.411 330.946 336.907 328.952 336.187C326.981 335.465 325.462 334.504 324.397 333.303C323.354 332.099 322.721 330.593 322.499 328.784C322.129 325.776 323.084 323.076 325.361 320.684C327.661 318.289 330.79 316.849 334.748 316.363C338.91 315.852 342.412 316.513 345.254 318.345C348.118 320.174 349.756 322.762 350.167 326.11L343.857 326.884C343.646 325.165 342.729 323.774 341.106 322.711C339.506 321.645 337.598 321.248 335.381 321.52C333.097 321.8 331.372 322.517 330.205 323.671C329.038 324.824 328.553 326.204 328.75 327.809C328.936 329.325 329.676 330.393 330.969 331.015C332.262 331.637 334.512 332.107 337.719 332.425C340.949 332.74 343.596 333.264 345.66 333.998C347.725 334.732 349.305 335.731 350.402 336.997C351.519 338.237 352.198 339.841 352.439 341.809C352.842 345.088 351.854 347.884 349.474 350.197C347.093 352.487 343.81 353.888 339.625 354.402C336.685 354.763 334.021 354.562 331.631 353.8C329.242 353.037 327.289 351.807 325.772 350.111C324.275 348.389 323.393 346.443 323.126 344.272L329.402 343.501C329.774 345.591 330.816 347.162 332.529 348.214C334.263 349.241 336.418 349.596 338.997 349.279C341.371 348.988 343.213 348.28 344.521 347.155C345.849 346.004 346.414 344.626 346.217 343.021Z" fill="white"/>
<rect x="430" y="252" width="495" height="495" rx="3.59347" fill="white"/>
<path d="M785.508 300.584H879.441V394.517" stroke="#C2C2C2" stroke-width="17.8487"/>
<path d="M569.461 300.584H475.528V394.517" stroke="#C2C2C2" stroke-width="17.8487"/>
<path d="M785.508 704.492H879.441V610.559" stroke="#C2C2C2" stroke-width="17.8487"/>
<path d="M569.461 704.492H475.528V610.559" stroke="#C2C2C2" stroke-width="17.8487"/>
<path d="M571.382 461.815L563.997 440.322L556.148 461.815H571.382ZM560.552 433.102H568.004L585.656 481.752H578.436L573.501 467.18H554.26L548.994 481.752H542.238L560.552 433.102ZM594.63 464.431C594.63 468.229 595.436 471.408 597.048 473.969C598.66 476.53 601.243 477.811 604.798 477.811C607.557 477.811 609.82 476.63 611.587 474.267C613.375 471.883 614.269 468.472 614.269 464.034C614.269 459.552 613.353 456.24 611.52 454.099C609.688 451.935 607.425 450.853 604.731 450.853C601.729 450.853 599.289 452.001 597.412 454.297C595.558 456.594 594.63 459.972 594.63 464.431ZM603.605 445.654C606.321 445.654 608.595 446.228 610.428 447.376C611.487 448.038 612.691 449.197 614.037 450.853V432.937H619.767V481.752H614.402V476.817C613.011 479.003 611.366 480.582 609.467 481.553C607.568 482.525 605.394 483.01 602.943 483.01C598.991 483.01 595.569 481.355 592.676 478.043C589.784 474.709 588.338 470.282 588.338 464.763C588.338 459.596 589.652 455.125 592.279 451.35C594.928 447.552 598.704 445.654 603.605 445.654ZM632.385 464.431C632.385 468.229 633.19 471.408 634.802 473.969C636.414 476.53 638.997 477.811 642.552 477.811C645.311 477.811 647.575 476.63 649.341 474.267C651.129 471.883 652.023 468.472 652.023 464.034C652.023 459.552 651.107 456.24 649.275 454.099C647.442 451.935 645.179 450.853 642.485 450.853C639.483 450.853 637.043 452.001 635.166 454.297C633.312 456.594 632.385 459.972 632.385 464.431ZM641.359 445.654C644.075 445.654 646.349 446.228 648.182 447.376C649.241 448.038 650.445 449.197 651.791 450.853V432.937H657.521V481.752H652.156V476.817C650.765 479.003 649.12 480.582 647.221 481.553C645.323 482.525 643.148 483.01 640.697 483.01C636.745 483.01 633.323 481.355 630.431 478.043C627.538 474.709 626.092 470.282 626.092 464.763C626.092 459.596 627.406 455.125 630.033 451.35C632.683 447.552 636.458 445.654 641.359 445.654ZM707.396 446.283H713.986C713.148 448.557 711.282 453.745 708.39 461.848C706.226 467.942 704.415 472.91 702.958 476.751C699.514 485.803 697.085 491.323 695.672 493.31C694.259 495.297 691.831 496.291 688.387 496.291C687.548 496.291 686.896 496.257 686.433 496.191C685.991 496.125 685.439 496.004 684.777 495.827V490.396C685.814 490.683 686.565 490.859 687.029 490.926C687.492 490.992 687.901 491.025 688.254 491.025C689.358 491.025 690.164 490.837 690.672 490.462C691.202 490.109 691.643 489.667 691.996 489.137C692.107 488.961 692.504 488.055 693.189 486.422C693.873 484.788 694.37 483.573 694.679 482.779L681.564 446.283H688.32L697.825 475.162L707.396 446.283ZM733.228 477.91C737.18 477.91 739.885 476.42 741.342 473.439C742.821 470.437 743.561 467.103 743.561 463.438C743.561 460.126 743.031 457.433 741.971 455.357C740.293 452.09 737.401 450.456 733.294 450.456C729.651 450.456 727.002 451.847 725.346 454.629C723.69 457.41 722.862 460.766 722.862 464.696C722.862 468.472 723.69 471.618 725.346 474.135C727.002 476.652 729.629 477.91 733.228 477.91ZM733.46 445.256C738.03 445.256 741.894 446.78 745.051 449.827C748.208 452.873 749.787 457.355 749.787 463.272C749.787 468.991 748.396 473.715 745.614 477.447C742.832 481.178 738.516 483.044 732.665 483.044C727.786 483.044 723.911 481.399 721.041 478.109C718.17 474.797 716.735 470.359 716.735 464.796C716.735 458.835 718.248 454.088 721.272 450.555C724.297 447.023 728.36 445.256 733.46 445.256ZM762.868 446.283V469.83C762.868 471.64 763.155 473.119 763.729 474.267C764.789 476.387 766.765 477.447 769.657 477.447C773.808 477.447 776.634 475.592 778.135 471.883C778.952 469.896 779.361 467.169 779.361 463.703V446.283H785.322V481.752H779.692L779.758 476.519C778.985 477.866 778.025 479.003 776.877 479.93C774.603 481.785 771.843 482.712 768.598 482.712C763.542 482.712 760.097 481.023 758.265 477.645C757.271 475.835 756.775 473.417 756.775 470.393V446.283H762.868ZM794.827 446.283H800.49V452.41C800.954 451.217 802.091 449.771 803.901 448.071C805.711 446.349 807.798 445.488 810.16 445.488C810.271 445.488 810.458 445.499 810.723 445.521C810.988 445.543 811.441 445.587 812.081 445.654V451.946C811.728 451.88 811.397 451.836 811.088 451.814C810.8 451.791 810.48 451.78 810.127 451.78C807.124 451.78 804.817 452.752 803.206 454.695C801.594 456.616 800.788 458.835 800.788 461.351V481.752H794.827V446.283Z" fill="#C2C2C2"/>
<path d="M571.983 566.349C569.797 567.078 567.181 567.442 564.134 567.442C557.776 567.442 552.521 565.543 548.37 561.746C543.336 557.175 540.819 550.463 540.819 541.61C540.819 532.69 543.403 525.945 548.569 521.375C552.786 517.644 558.03 515.778 564.3 515.778C570.614 515.778 575.913 517.754 580.196 521.706C585.142 526.277 587.615 532.668 587.615 540.881C587.615 545.231 587.085 548.874 586.025 551.81C585.164 554.614 583.895 556.944 582.217 558.798L587.847 564.064L582.515 569.628L576.62 564.064C574.831 565.146 573.286 565.907 571.983 566.349ZM569.797 557.54L564.863 552.837L570.129 547.339L575.063 552.042C575.836 550.452 576.377 549.061 576.686 547.869C577.172 546.081 577.414 543.994 577.414 541.61C577.414 536.135 576.288 531.907 574.036 528.926C571.807 525.923 568.539 524.422 564.234 524.422C560.193 524.422 556.97 525.857 554.563 528.727C552.157 531.597 550.953 535.892 550.953 541.61C550.953 548.3 552.676 553.091 556.12 555.983C558.35 557.86 561.021 558.798 564.134 558.798C565.304 558.798 566.43 558.655 567.512 558.368C568.108 558.213 568.87 557.937 569.797 557.54ZM616.162 546.942H605.631V566.084H595.662V517.269H619.606C623.029 517.335 625.656 517.754 627.488 518.527C629.343 519.3 630.911 520.437 632.191 521.938C633.251 523.175 634.09 524.543 634.708 526.045C635.326 527.546 635.635 529.257 635.635 531.178C635.635 533.496 635.05 535.781 633.88 538.033C632.71 540.263 630.778 541.842 628.085 542.769C630.337 543.674 631.926 544.966 632.853 546.644C633.803 548.3 634.278 550.839 634.278 554.261V557.54C634.278 559.77 634.366 561.282 634.542 562.077C634.807 563.335 635.426 564.263 636.397 564.859V566.084H625.17C624.861 565.002 624.64 564.13 624.508 563.468C624.243 562.099 624.099 560.697 624.077 559.262L624.011 554.725C623.967 551.612 623.393 549.536 622.289 548.498C621.207 547.461 619.165 546.942 616.162 546.942ZM622.355 538.066C624.386 537.139 625.402 535.307 625.402 532.569C625.402 529.61 624.42 527.623 622.455 526.608C621.351 526.034 619.695 525.747 617.487 525.747H605.631V538.861H617.189C619.485 538.861 621.207 538.596 622.355 538.066ZM693.79 542.935H684.12C683.943 541.588 683.49 540.374 682.762 539.292C681.702 537.835 680.057 537.106 677.827 537.106C674.648 537.106 672.473 538.685 671.303 541.842C670.685 543.52 670.376 545.75 670.376 548.532C670.376 551.181 670.685 553.312 671.303 554.923C672.429 557.926 674.549 559.427 677.662 559.427C679.87 559.427 681.437 558.831 682.364 557.639C683.292 556.447 683.855 554.901 684.053 553.003H693.691C693.47 555.873 692.432 558.588 690.578 561.149C687.619 565.278 683.236 567.342 677.43 567.342C671.623 567.342 667.351 565.62 664.613 562.176C661.876 558.732 660.507 554.261 660.507 548.763C660.507 542.559 662.019 537.735 665.044 534.291C668.069 530.847 672.241 529.125 677.562 529.125C682.088 529.125 685.787 530.14 688.657 532.171C691.549 534.203 693.26 537.79 693.79 542.935ZM730.418 534.556C733.465 538.376 734.988 542.891 734.988 548.101C734.988 553.4 733.465 557.937 730.418 561.712C727.371 565.466 722.746 567.342 716.542 567.342C710.338 567.342 705.712 565.466 702.666 561.712C699.619 557.937 698.095 553.4 698.095 548.101C698.095 542.891 699.619 538.376 702.666 534.556C705.712 530.736 710.338 528.827 716.542 528.827C722.746 528.827 727.371 530.736 730.418 534.556ZM716.509 536.808C713.749 536.808 711.618 537.79 710.117 539.755C708.638 541.698 707.898 544.48 707.898 548.101C707.898 551.722 708.638 554.515 710.117 556.48C711.618 558.445 713.749 559.427 716.509 559.427C719.269 559.427 721.388 558.445 722.867 556.48C724.347 554.515 725.086 551.722 725.086 548.101C725.086 544.48 724.347 541.698 722.867 539.755C721.388 537.79 719.269 536.808 716.509 536.808ZM774.63 517.335V566.084H765.457V561.083C764.11 563.225 762.575 564.781 760.853 565.753C759.131 566.724 756.99 567.21 754.428 567.21C750.211 567.21 746.657 565.51 743.765 562.11C740.894 558.688 739.459 554.305 739.459 548.962C739.459 542.802 740.872 537.956 743.698 534.423C746.546 530.891 750.344 529.125 755.091 529.125C757.277 529.125 759.219 529.61 760.92 530.582C762.62 531.531 763.999 532.856 765.059 534.556V517.335H774.63ZM749.196 548.267C749.196 551.601 749.858 554.261 751.183 556.248C752.486 558.257 754.473 559.262 757.144 559.262C759.816 559.262 761.847 558.268 763.238 556.281C764.629 554.294 765.324 551.722 765.324 548.565C765.324 544.149 764.209 540.992 761.979 539.093C760.61 537.945 759.021 537.371 757.21 537.371C754.451 537.371 752.419 538.42 751.117 540.517C749.836 542.593 749.196 545.176 749.196 548.267ZM814.14 555.486C813.897 557.628 812.782 559.803 810.795 562.011C807.704 565.521 803.376 567.276 797.813 567.276C793.22 567.276 789.169 565.797 785.658 562.838C782.148 559.88 780.393 555.067 780.393 548.399C780.393 542.151 781.971 537.36 785.129 534.026C788.308 530.692 792.425 529.025 797.481 529.025C800.484 529.025 803.189 529.588 805.595 530.714C808.002 531.84 809.989 533.618 811.556 536.046C812.969 538.188 813.886 540.672 814.305 543.498C814.548 545.154 814.647 547.538 814.603 550.651H789.898C790.03 554.272 791.167 556.811 793.309 558.268C794.611 559.173 796.179 559.626 798.011 559.626C799.954 559.626 801.533 559.074 802.747 557.97C803.41 557.374 803.995 556.546 804.502 555.486H814.14ZM804.8 544.425C804.646 541.93 803.884 540.042 802.515 538.762C801.169 537.459 799.491 536.808 797.481 536.808C795.296 536.808 793.596 537.492 792.381 538.861C791.189 540.23 790.438 542.085 790.129 544.425H804.8Z" fill="#C2C2C2"/>
<path d="M83.7257 537.057L65.7608 532.243L60.6925 551.159L52.9363 549.08L64.8966 504.444L93.2541 512.042L91.5784 518.296L70.977 512.776L67.4201 526.051L85.385 530.864L83.7257 537.057ZM109.34 553.055L92.0493 548.422L85.6471 557.845L77.5844 555.685L106.406 515.566L113.365 517.431L118.297 566.594L110.203 564.425L109.34 553.055ZM95.9017 542.751L108.839 546.217L107.332 525.968L95.9017 542.751ZM160.665 562.371C158.939 567.013 156.185 570.262 152.402 572.118C148.624 573.953 144.191 574.189 139.102 572.825C135.545 571.872 132.633 570.194 130.364 567.79C128.12 565.37 126.679 562.41 126.04 558.91C125.401 555.409 125.601 551.596 126.64 547.472L127.758 543.302C128.886 539.092 130.626 535.582 132.977 532.774C135.329 529.965 138.128 528.064 141.373 527.071C144.638 526.084 148.1 526.081 151.758 527.061C156.684 528.381 160.29 530.782 162.577 534.265C164.864 537.747 165.598 541.996 164.78 547.012L157.055 544.942C157.546 541.635 157.225 539.074 156.091 537.258C154.982 535.428 152.977 534.124 150.074 533.346C146.702 532.442 143.775 532.983 141.294 534.969C138.838 536.94 136.952 540.3 135.635 545.052L134.575 549.006C133.283 553.83 133.155 557.738 134.193 560.733C135.251 563.733 137.446 565.679 140.777 566.571C143.823 567.387 146.295 567.316 148.195 566.357C150.095 565.399 151.676 563.38 152.939 560.301L160.665 562.371ZM195.158 565.831L176.826 560.919L173.146 574.653L194.575 580.395L192.915 586.588L163.73 578.767L175.69 534.131L204.661 541.894L202.985 548.148L181.771 542.463L178.469 554.787L196.801 559.7L195.158 565.831ZM199.231 588.28L211.191 543.643L226.489 547.742C231.537 549.095 235.108 551.136 237.202 553.866C239.297 556.596 239.807 559.964 238.734 563.97C238.186 566.013 237.142 567.705 235.6 569.044C234.058 570.383 232.104 571.218 229.737 571.548C231.974 572.848 233.502 574.583 234.323 576.752C235.17 578.907 235.253 581.251 234.574 583.785C233.452 587.975 231.24 590.833 227.94 592.358C224.66 593.889 220.517 593.983 215.509 592.642L199.231 588.28ZM212.384 570.216L208.646 584.165L217.261 586.474C219.693 587.125 221.755 587.032 223.448 586.193C225.14 585.354 226.274 583.861 226.849 581.715C228.092 577.076 226.356 574.07 221.642 572.697L212.384 570.216ZM213.912 564.514L221.515 566.551C223.926 567.198 225.952 567.16 227.591 566.438C229.256 565.701 230.357 564.332 230.893 562.329C231.485 560.121 231.278 558.357 230.274 557.037C229.29 555.722 227.47 554.708 224.813 553.996L217.271 551.976L213.912 564.514ZM280.13 587.285C278.959 591.659 277.173 595.298 274.773 598.204C272.379 601.089 269.534 603.043 266.237 604.065C262.966 605.073 259.501 605.086 255.843 604.106C252.225 603.137 249.232 601.393 246.862 598.874C244.518 596.34 243.007 593.23 242.33 589.544C241.673 585.863 241.907 581.884 243.031 577.607L243.705 575.093C244.871 570.74 246.667 567.103 249.093 564.182C251.539 561.267 254.397 559.306 257.668 558.298C260.965 557.276 264.432 557.252 268.07 558.227C271.708 559.202 274.692 560.943 277.021 563.451C279.376 565.944 280.879 569.041 281.53 572.742C282.187 576.423 281.942 580.443 280.796 584.802L280.13 587.285ZM272.999 582.877C274.324 577.931 274.4 573.888 273.226 570.747C272.072 567.612 269.779 565.585 266.345 564.665C262.993 563.767 260.014 564.381 257.407 566.509C254.826 568.621 252.871 572.073 251.543 576.865L250.853 579.44C249.539 584.345 249.473 588.391 250.657 591.578C251.861 594.77 254.159 596.82 257.551 597.729C260.985 598.649 263.972 598.048 266.512 595.925C269.073 593.807 271.027 590.234 272.374 585.207L272.999 582.877ZM323.479 598.9C322.307 603.274 320.522 606.913 318.122 609.819C315.728 612.704 312.882 614.658 309.586 615.681C306.315 616.688 302.85 616.702 299.192 615.721C295.574 614.752 292.58 613.008 290.21 610.489C287.866 607.955 286.356 604.845 285.679 601.159C285.022 597.478 285.256 593.499 286.38 589.222L287.054 586.708C288.22 582.355 290.016 578.718 292.442 575.798C294.887 572.882 297.746 570.921 301.017 569.914C304.314 568.891 307.781 568.868 311.419 569.842C315.057 570.817 318.041 572.558 320.37 575.066C322.724 577.559 324.228 580.656 324.879 584.358C325.535 588.038 325.291 592.058 324.145 596.417L323.479 598.9ZM316.347 594.492C317.673 589.546 317.748 585.503 316.575 582.363C315.421 579.228 313.128 577.2 309.694 576.28C306.342 575.382 303.363 575.997 300.756 578.124C298.174 580.236 296.22 583.688 294.892 588.48L294.202 591.055C292.888 595.96 292.822 600.006 294.005 603.193C295.209 606.385 297.507 608.436 300.9 609.345C304.334 610.265 307.321 609.663 309.861 607.54C312.422 605.422 314.376 601.85 315.723 596.822L316.347 594.492ZM343.518 606.274L337.022 610.283L333.293 624.202L325.537 622.123L337.497 577.487L345.253 579.565L339.643 600.504L345.356 596.35L362.605 584.215L371.986 586.728L350.102 602.058L360.976 631.619L351.779 629.155L343.518 606.274Z" fill="white"/>
</g>
<defs>
<clipPath id="clip0_288_1297">
<rect width="1000" height="1000" fill="white"/>
</clipPath>
</defs>
</svg>
