<svg width="1000" height="1000" viewBox="0 0 1000 1000" fill="none" xmlns="http://www.w3.org/2000/svg">
<g clip-path="url(#clip0_279_235)">
<rect x="105" y="1" width="780" height="1000" rx="71" fill="#333333"/>
<path fill-rule="evenodd" clip-rule="evenodd" d="M207 32C167.788 32 136 63.7878 136 103V677C136 716.212 167.788 748 207 748H438.579L499.808 809.229C504.884 814.306 513.116 814.306 518.192 809.229L579.421 748H783C822.212 748 854 716.212 854 677V103C854 63.7878 822.212 32 783 32H207Z" fill="white"/>
<rect x="169" y="55" width="661" height="661" rx="9.6319" fill="white"/>
<path d="M643.734 119.879H769.168V245.313" stroke="#C2C2C2" stroke-width="23.8343"/>
<path d="M355.238 119.879H229.805V245.313" stroke="#C2C2C2" stroke-width="23.8343"/>
<path d="M643.734 659.24H769.168V533.806" stroke="#C2C2C2" stroke-width="23.8343"/>
<path d="M355.238 659.24H229.805V533.806" stroke="#C2C2C2" stroke-width="23.8343"/>
<path d="M357.797 335.057L347.935 306.356L337.454 335.057H357.797ZM343.336 296.715H353.286L376.858 361.68H367.217L360.627 342.221H334.933L327.902 361.68H318.88L343.336 296.715ZM388.842 338.551C388.842 343.622 389.918 347.867 392.071 351.287C394.223 354.707 397.672 356.417 402.419 356.417C406.104 356.417 409.126 354.84 411.485 351.685C413.873 348.501 415.067 343.946 415.067 338.02C415.067 332.035 413.843 327.613 411.396 324.753C408.949 321.864 405.927 320.419 402.331 320.419C398.321 320.419 395.063 321.952 392.557 325.018C390.081 328.084 388.842 332.595 388.842 338.551ZM400.827 313.476C404.453 313.476 407.49 314.242 409.937 315.775C411.352 316.66 412.959 318.208 414.757 320.419V296.494H422.408V361.68H415.244V355.09C413.386 358.009 411.19 360.117 408.655 361.414C406.119 362.712 403.215 363.36 399.942 363.36C394.665 363.36 390.095 361.149 386.233 356.727C382.371 352.275 380.44 346.364 380.44 338.993C380.44 332.094 382.194 326.124 385.702 321.082C389.24 316.011 394.282 313.476 400.827 313.476ZM439.257 338.551C439.257 343.622 440.334 347.867 442.486 351.287C444.638 354.707 448.087 356.417 452.834 356.417C456.519 356.417 459.541 354.84 461.9 351.685C464.288 348.501 465.482 343.946 465.482 338.02C465.482 332.035 464.259 327.613 461.812 324.753C459.365 321.864 456.343 320.419 452.746 320.419C448.736 320.419 445.478 321.952 442.972 325.018C440.496 328.084 439.257 332.595 439.257 338.551ZM451.242 313.476C454.868 313.476 457.905 314.242 460.352 315.775C461.767 316.66 463.374 318.208 465.173 320.419V296.494H472.823V361.68H465.659V355.09C463.802 358.009 461.605 360.117 459.07 361.414C456.534 362.712 453.63 363.36 450.358 363.36C445.08 363.36 440.51 361.149 436.648 356.727C432.786 352.275 430.855 346.364 430.855 338.993C430.855 332.094 432.609 326.124 436.118 321.082C439.655 316.011 444.697 313.476 451.242 313.476ZM539.424 314.316H548.225C547.105 317.353 544.613 324.281 540.751 335.101C537.862 343.238 535.444 349.872 533.498 355.002C528.899 367.09 525.656 374.46 523.769 377.114C521.882 379.767 518.639 381.094 514.04 381.094C512.92 381.094 512.05 381.05 511.431 380.961C510.841 380.873 510.104 380.711 509.219 380.475V373.222C510.605 373.605 511.608 373.841 512.227 373.93C512.846 374.018 513.391 374.062 513.863 374.062C515.337 374.062 516.413 373.812 517.091 373.311C517.799 372.839 518.389 372.249 518.86 371.542C519.008 371.306 519.538 370.097 520.452 367.915C521.366 365.734 522.03 364.112 522.442 363.051L504.93 314.316H513.951L526.644 352.879L539.424 314.316ZM573.919 356.55C579.196 356.55 582.808 354.56 584.754 350.58C586.729 346.57 587.717 342.118 587.717 337.224C587.717 332.802 587.009 329.205 585.594 326.433C583.353 322.07 579.491 319.888 574.007 319.888C569.143 319.888 565.605 321.746 563.394 325.46C561.182 329.175 560.077 333.657 560.077 338.904C560.077 343.946 561.182 348.147 563.394 351.508C565.605 354.869 569.113 356.55 573.919 356.55ZM574.228 312.945C580.331 312.945 585.491 314.979 589.707 319.048C593.923 323.117 596.031 329.101 596.031 337.003C596.031 344.639 594.173 350.948 590.459 355.931C586.744 360.913 580.98 363.404 573.167 363.404C566.651 363.404 561.477 361.208 557.645 356.815C553.812 352.393 551.895 346.467 551.895 339.037C551.895 331.077 553.915 324.738 557.954 320.021C561.993 315.304 567.418 312.945 574.228 312.945ZM613.499 314.316V345.759C613.499 348.177 613.883 350.152 614.649 351.685C616.064 354.515 618.703 355.931 622.565 355.931C628.108 355.931 631.882 353.454 633.886 348.501C634.977 345.848 635.523 342.206 635.523 337.578V314.316H643.483V361.68H635.965L636.053 354.692C635.021 356.491 633.739 358.009 632.206 359.247C629.169 361.724 625.484 362.962 621.15 362.962C614.398 362.962 609.799 360.707 607.352 356.196C606.025 353.778 605.362 350.55 605.362 346.511V314.316H613.499ZM656.175 314.316H663.737V322.497C664.357 320.905 665.875 318.974 668.292 316.704C670.71 314.404 673.496 313.255 676.651 313.255C676.798 313.255 677.049 313.269 677.403 313.299C677.756 313.328 678.361 313.387 679.216 313.476V321.878C678.744 321.79 678.302 321.731 677.889 321.701C677.506 321.672 677.078 321.657 676.607 321.657C672.597 321.657 669.516 322.954 667.364 325.549C665.212 328.114 664.135 331.077 664.135 334.438V361.68H656.175V314.316Z" fill="#C2C2C2"/>
<path d="M358.596 474.645C355.677 475.618 352.184 476.104 348.115 476.104C339.624 476.104 332.607 473.569 327.065 468.498C320.343 462.395 316.982 453.432 316.982 441.61C316.982 429.699 320.431 420.692 327.33 414.589C332.961 409.606 339.963 407.115 348.336 407.115C356.768 407.115 363.844 409.754 369.564 415.031C376.168 421.134 379.47 429.669 379.47 440.637C379.47 446.445 378.762 451.309 377.347 455.231C376.197 458.975 374.502 462.085 372.261 464.562L379.779 471.593L372.659 479.023L364.788 471.593C362.399 473.038 360.336 474.055 358.596 474.645ZM355.677 462.881L349.088 456.601L356.12 449.26L362.709 455.54C363.741 453.417 364.463 451.56 364.876 449.968C365.525 447.58 365.849 444.794 365.849 441.61C365.849 434.298 364.345 428.652 361.338 424.672C358.36 420.662 353.997 418.657 348.248 418.657C342.853 418.657 338.548 420.574 335.334 424.407C332.121 428.239 330.514 433.974 330.514 441.61C330.514 450.543 332.814 456.941 337.413 460.803C340.391 463.309 343.958 464.562 348.115 464.562C349.678 464.562 351.181 464.37 352.626 463.987C353.422 463.78 354.439 463.412 355.677 462.881ZM417.591 448.73H403.528V474.291H390.216V409.105H422.19C426.76 409.194 430.268 409.754 432.715 410.786C435.192 411.818 437.285 413.336 438.995 415.341C440.41 416.992 441.531 418.82 442.356 420.824C443.182 422.829 443.594 425.114 443.594 427.679C443.594 430.775 442.813 433.826 441.25 436.833C439.688 439.811 437.108 441.919 433.511 443.157C436.519 444.366 438.641 446.091 439.88 448.332C441.147 450.543 441.781 453.933 441.781 458.503V462.881C441.781 465.859 441.899 467.879 442.135 468.94C442.489 470.62 443.314 471.859 444.611 472.655V474.291H429.62C429.207 472.846 428.912 471.682 428.735 470.797C428.381 468.969 428.19 467.097 428.16 465.181L428.072 459.122C428.013 454.965 427.246 452.194 425.772 450.808C424.328 449.422 421.6 448.73 417.591 448.73ZM425.861 436.878C428.573 435.639 429.929 433.192 429.929 429.537C429.929 425.586 428.617 422.932 425.993 421.576C424.519 420.81 422.308 420.426 419.36 420.426H403.528V437.939H418.962C422.028 437.939 424.328 437.585 425.861 436.878ZM521.251 443.379H508.338C508.102 441.58 507.498 439.959 506.525 438.514C505.11 436.568 502.913 435.595 499.935 435.595C495.69 435.595 492.786 437.703 491.223 441.919C490.398 444.16 489.985 447.138 489.985 450.852C489.985 454.39 490.398 457.235 491.223 459.388C492.727 463.397 495.557 465.402 499.714 465.402C502.663 465.402 504.756 464.606 505.994 463.014C507.232 461.422 507.984 459.358 508.25 456.823H521.119C520.824 460.655 519.438 464.282 516.962 467.702C513.011 473.215 507.159 475.972 499.405 475.972C491.651 475.972 485.946 473.672 482.29 469.073C478.634 464.473 476.806 458.503 476.806 451.162C476.806 442.877 478.826 436.435 482.865 431.836C486.904 427.237 492.476 424.937 499.582 424.937C505.626 424.937 510.564 426.293 514.397 429.006C518.259 431.718 520.544 436.509 521.251 443.379ZM570.163 432.19C574.231 437.29 576.266 443.32 576.266 450.277C576.266 457.353 574.231 463.412 570.163 468.453C566.094 473.466 559.918 475.972 551.633 475.972C543.349 475.972 537.172 473.466 533.103 468.453C529.035 463.412 527 457.353 527 450.277C527 443.32 529.035 437.29 533.103 432.19C537.172 427.089 543.349 424.539 551.633 424.539C559.918 424.539 566.094 427.089 570.163 432.19ZM551.589 435.197C547.904 435.197 545.058 436.509 543.054 439.133C541.078 441.728 540.091 445.442 540.091 450.277C540.091 455.113 541.078 458.842 543.054 461.466C545.058 464.09 547.904 465.402 551.589 465.402C555.274 465.402 558.105 464.09 560.08 461.466C562.055 458.842 563.043 455.113 563.043 450.277C563.043 445.442 562.055 441.728 560.08 439.133C558.105 436.509 555.274 435.197 551.589 435.197ZM629.202 409.194V474.291H616.952V467.613C615.153 470.473 613.104 472.552 610.805 473.849C608.505 475.146 605.645 475.795 602.225 475.795C596.594 475.795 591.847 473.524 587.985 468.984C584.152 464.414 582.236 458.562 582.236 451.427C582.236 443.202 584.123 436.73 587.897 432.013C591.7 427.296 596.771 424.937 603.11 424.937C606.028 424.937 608.623 425.586 610.893 426.883C613.163 428.151 615.006 429.92 616.421 432.19V409.194H629.202ZM595.238 450.499C595.238 454.95 596.122 458.503 597.891 461.157C599.631 463.839 602.284 465.181 605.851 465.181C609.419 465.181 612.131 463.854 613.989 461.201C615.846 458.547 616.775 455.113 616.775 450.897C616.775 445 615.286 440.784 612.308 438.249C610.48 436.716 608.357 435.949 605.94 435.949C602.255 435.949 599.542 437.349 597.803 440.15C596.093 442.922 595.238 446.371 595.238 450.499ZM681.961 460.139C681.636 462.999 680.147 465.903 677.494 468.851C673.367 473.539 667.588 475.883 660.158 475.883C654.026 475.883 648.616 473.908 643.928 469.957C639.24 466.006 636.897 459.579 636.897 450.676C636.897 442.332 639.005 435.934 643.221 431.482C647.466 427.031 652.965 424.805 659.716 424.805C663.726 424.805 667.337 425.556 670.551 427.06C673.765 428.564 676.418 430.937 678.511 434.18C680.398 437.04 681.622 440.357 682.182 444.13C682.506 446.342 682.639 449.526 682.58 453.683H649.589C649.766 458.518 651.284 461.908 654.144 463.854C655.883 465.063 657.977 465.667 660.424 465.667C663.018 465.667 665.126 464.93 666.748 463.456C667.632 462.66 668.413 461.555 669.092 460.139H681.961ZM669.49 445.369C669.283 442.037 668.266 439.516 666.438 437.806C664.64 436.067 662.399 435.197 659.716 435.197C656.797 435.197 654.527 436.111 652.906 437.939C651.314 439.767 650.311 442.243 649.898 445.369H669.49Z" fill="#C2C2C2"/>
<path d="M329.391 860.61H309.076V882H300.305V831.523H332.373V838.596H309.076V853.607H329.391V860.61ZM336.186 862.898C336.186 859.223 336.914 855.918 338.37 852.983C339.826 850.025 341.872 847.76 344.506 846.188C347.141 844.593 350.169 843.796 353.589 843.796C358.651 843.796 362.753 845.425 365.896 848.684C369.063 851.943 370.773 856.265 371.027 861.65L371.062 863.626C371.062 867.324 370.346 870.629 368.913 873.541C367.503 876.453 365.469 878.707 362.811 880.301C360.176 881.896 357.125 882.693 353.659 882.693C348.366 882.693 344.125 880.937 340.936 877.424C337.769 873.888 336.186 869.184 336.186 863.314V862.898ZM344.61 863.626C344.61 867.486 345.408 870.513 347.002 872.709C348.597 874.882 350.816 875.968 353.659 875.968C356.501 875.968 358.709 874.858 360.28 872.64C361.875 870.421 362.672 867.174 362.672 862.898C362.672 859.108 361.852 856.103 360.211 853.884C358.593 851.666 356.386 850.556 353.589 850.556C350.839 850.556 348.655 851.654 347.037 853.85C345.419 856.022 344.61 859.281 344.61 863.626ZM387.148 882H378.724V828.75H387.148V882ZM405.314 882H396.89V828.75H405.314V882ZM412.941 862.898C412.941 859.223 413.669 855.918 415.125 852.983C416.581 850.025 418.626 847.76 421.261 846.188C423.896 844.593 426.924 843.796 430.344 843.796C435.406 843.796 439.508 845.425 442.651 848.684C445.818 851.943 447.528 856.265 447.782 861.65L447.817 863.626C447.817 867.324 447.1 870.629 445.667 873.541C444.258 876.453 442.224 878.707 439.566 880.301C436.931 881.896 433.88 882.693 430.414 882.693C425.121 882.693 420.88 880.937 417.69 877.424C414.524 873.888 412.941 869.184 412.941 863.314V862.898ZM421.365 863.626C421.365 867.486 422.163 870.513 423.757 872.709C425.352 874.882 427.571 875.968 430.414 875.968C433.256 875.968 435.464 874.858 437.035 872.64C438.63 870.421 439.427 867.174 439.427 862.898C439.427 859.108 438.607 856.103 436.966 853.884C435.348 851.666 433.141 850.556 430.344 850.556C427.594 850.556 425.41 851.654 423.792 853.85C422.174 856.022 421.365 859.281 421.365 863.626ZM487.893 870.386L493.856 844.489H502.072L491.845 882H484.912L476.869 856.242L468.964 882H462.031L451.769 844.489H459.985L466.052 870.109L473.749 844.489H480.093L487.893 870.386ZM548.111 878.325C545.638 881.237 542.125 882.693 537.572 882.693C533.505 882.693 530.419 881.503 528.316 879.123C526.236 876.742 525.196 873.298 525.196 868.792V844.489H533.62V868.688C533.62 873.449 535.596 875.829 539.548 875.829C543.639 875.829 546.401 874.361 547.834 871.426V844.489H556.258V882H548.319L548.111 878.325ZM585.865 871.808C585.865 870.305 585.241 869.161 583.993 868.375C582.768 867.59 580.722 866.896 577.856 866.295C574.991 865.694 572.598 864.932 570.68 864.007C566.474 861.973 564.371 859.027 564.371 855.167C564.371 851.931 565.734 849.227 568.461 847.055C571.189 844.882 574.655 843.796 578.862 843.796C583.346 843.796 586.963 844.905 589.713 847.124C592.486 849.343 593.873 852.22 593.873 855.756H585.449C585.449 854.139 584.848 852.798 583.646 851.735C582.444 850.649 580.849 850.105 578.862 850.105C577.013 850.105 575.499 850.533 574.32 851.388C573.165 852.243 572.587 853.387 572.587 854.82C572.587 856.115 573.13 857.12 574.216 857.836C575.303 858.553 577.498 859.281 580.803 860.021C584.108 860.737 586.697 861.604 588.569 862.621C590.464 863.614 591.862 864.816 592.764 866.226C593.688 867.636 594.15 869.346 594.15 871.357C594.15 874.731 592.752 877.47 589.956 879.573C587.159 881.653 583.496 882.693 578.966 882.693C575.892 882.693 573.153 882.139 570.75 881.029C568.346 879.92 566.474 878.395 565.133 876.453C563.793 874.512 563.123 872.42 563.123 870.178H571.304C571.42 872.166 572.171 873.703 573.558 874.789C574.944 875.852 576.782 876.384 579.07 876.384C581.289 876.384 582.976 875.968 584.131 875.136C585.287 874.281 585.865 873.171 585.865 871.808ZM617.621 862.898C617.621 859.223 618.349 855.918 619.805 852.983C621.261 850.025 623.306 847.76 625.941 846.188C628.576 844.593 631.603 843.796 635.024 843.796C640.085 843.796 644.188 845.425 647.331 848.684C650.497 851.943 652.208 856.265 652.462 861.65L652.497 863.626C652.497 867.324 651.78 870.629 650.347 873.541C648.937 876.453 646.903 878.707 644.246 880.301C641.611 881.896 638.56 882.693 635.093 882.693C629.801 882.693 625.56 880.937 622.37 877.424C619.204 873.888 617.621 869.184 617.621 863.314V862.898ZM626.045 863.626C626.045 867.486 626.842 870.513 628.437 872.709C630.032 874.882 632.25 875.968 635.093 875.968C637.936 875.968 640.143 874.858 641.715 872.64C643.31 870.421 644.107 867.174 644.107 862.898C644.107 859.108 643.286 856.103 641.646 853.884C640.028 851.666 637.82 850.556 635.024 850.556C632.274 850.556 630.09 851.654 628.472 853.85C626.854 856.022 626.045 859.281 626.045 863.626ZM667.438 844.489L667.681 848.823C670.455 845.472 674.095 843.796 678.602 843.796C686.413 843.796 690.389 848.268 690.527 857.212V882H682.103V857.698C682.103 855.317 681.583 853.561 680.543 852.428C679.526 851.273 677.85 850.695 675.516 850.695C672.119 850.695 669.588 852.232 667.924 855.306V882H659.5V844.489H667.438ZM374.459 937.61H354.144V959H345.373V908.523H377.441V915.596H354.144V930.607H374.459V937.61ZM404.829 959C404.459 958.284 404.135 957.116 403.858 955.499C401.177 958.295 397.895 959.693 394.012 959.693C390.245 959.693 387.171 958.619 384.791 956.469C382.41 954.32 381.22 951.662 381.22 948.496C381.22 944.497 382.699 941.435 385.657 939.309C388.639 937.159 392.891 936.084 398.415 936.084H403.581V933.623C403.581 931.682 403.037 930.133 401.951 928.978C400.865 927.799 399.212 927.209 396.994 927.209C395.075 927.209 393.504 927.695 392.279 928.666C391.054 929.613 390.441 930.826 390.441 932.306H382.017C382.017 930.249 382.699 928.33 384.062 926.551C385.426 924.748 387.275 923.338 389.609 922.321C391.967 921.304 394.59 920.796 397.479 920.796C401.87 920.796 405.372 921.905 407.983 924.124C410.595 926.32 411.936 929.417 412.005 933.415V950.333C412.005 953.707 412.479 956.4 413.426 958.411V959H404.829ZM395.572 952.933C397.236 952.933 398.796 952.529 400.252 951.72C401.732 950.911 402.841 949.825 403.581 948.461V941.389H399.039C395.919 941.389 393.573 941.932 392.001 943.018C390.43 944.104 389.644 945.641 389.644 947.629C389.644 949.247 390.176 950.541 391.239 951.512C392.325 952.459 393.77 952.933 395.572 952.933ZM436.238 952.968C438.341 952.968 440.086 952.355 441.473 951.13C442.859 949.905 443.599 948.392 443.691 946.589H451.63C451.538 948.923 450.81 951.107 449.446 953.141C448.083 955.152 446.234 956.747 443.899 957.925C441.565 959.104 439.046 959.693 436.342 959.693C431.095 959.693 426.935 957.995 423.861 954.597C420.787 951.2 419.25 946.508 419.25 940.522V939.655C419.25 933.947 420.776 929.382 423.827 925.961C426.877 922.518 431.038 920.796 436.307 920.796C440.768 920.796 444.396 922.102 447.193 924.713C450.013 927.302 451.492 930.711 451.63 934.94H443.691C443.599 932.791 442.859 931.023 441.473 929.636C440.109 928.25 438.364 927.556 436.238 927.556C433.511 927.556 431.407 928.55 429.928 930.538C428.449 932.502 427.698 935.495 427.675 939.517V940.869C427.675 944.936 428.403 947.976 429.859 949.986C431.338 951.974 433.464 952.968 436.238 952.968ZM474.511 959.693C469.172 959.693 464.839 958.018 461.511 954.667C458.206 951.292 456.553 946.808 456.553 941.215V940.175C456.553 936.431 457.27 933.091 458.703 930.156C460.159 927.198 462.193 924.898 464.804 923.257C467.416 921.616 470.328 920.796 473.541 920.796C478.648 920.796 482.589 922.425 485.362 925.684C488.159 928.943 489.557 933.554 489.557 939.517V942.914H465.047C465.301 946.011 466.33 948.461 468.132 950.264C469.958 952.066 472.246 952.968 474.997 952.968C478.856 952.968 482 951.408 484.426 948.288L488.968 952.621C487.465 954.863 485.455 956.608 482.936 957.856C480.439 959.081 477.631 959.693 474.511 959.693ZM473.506 927.556C471.195 927.556 469.323 928.365 467.89 929.983C466.48 931.601 465.578 933.854 465.186 936.743H481.237V936.119C481.052 933.299 480.301 931.173 478.983 929.74C477.666 928.284 475.84 927.556 473.506 927.556ZM529.044 940.626C529.044 946.45 527.738 951.084 525.126 954.528C522.538 957.972 518.967 959.693 514.414 959.693C510.023 959.693 506.602 958.11 504.152 954.944L503.736 959H496.109V905.75H504.534V925.095C506.96 922.229 510.231 920.796 514.345 920.796C518.921 920.796 522.515 922.495 525.126 925.892C527.738 929.29 529.044 934.039 529.044 940.141V940.626ZM520.62 939.898C520.62 935.83 519.903 932.779 518.47 930.746C517.037 928.712 514.957 927.695 512.23 927.695C508.578 927.695 506.013 929.29 504.534 932.479V947.941C506.036 951.2 508.625 952.829 512.299 952.829C514.934 952.829 516.968 951.847 518.401 949.882C519.834 947.918 520.573 944.948 520.62 940.973V939.898ZM534.556 939.898C534.556 936.223 535.284 932.918 536.74 929.983C538.196 927.025 540.242 924.76 542.876 923.188C545.511 921.593 548.539 920.796 551.959 920.796C557.021 920.796 561.123 922.425 564.267 925.684C567.433 928.943 569.143 933.265 569.397 938.65L569.432 940.626C569.432 944.324 568.716 947.629 567.283 950.541C565.873 953.453 563.839 955.707 561.181 957.301C558.546 958.896 555.496 959.693 552.029 959.693C546.736 959.693 542.495 957.937 539.306 954.424C536.139 950.888 534.556 946.184 534.556 940.314V939.898ZM542.98 940.626C542.98 944.486 543.778 947.513 545.373 949.709C546.967 951.882 549.186 952.968 552.029 952.968C554.872 952.968 557.079 951.858 558.65 949.64C560.245 947.421 561.042 944.174 561.042 939.898C561.042 936.108 560.222 933.103 558.581 930.884C556.963 928.666 554.756 927.556 551.959 927.556C549.209 927.556 547.025 928.654 545.407 930.85C543.789 933.022 542.98 936.281 542.98 940.626ZM574.979 939.898C574.979 936.223 575.707 932.918 577.163 929.983C578.619 927.025 580.665 924.76 583.299 923.188C585.934 921.593 588.962 920.796 592.382 920.796C597.444 920.796 601.546 922.425 604.689 925.684C607.856 928.943 609.566 933.265 609.82 938.65L609.855 940.626C609.855 944.324 609.139 947.629 607.706 950.541C606.296 953.453 604.262 955.707 601.604 957.301C598.969 958.896 595.918 959.693 592.452 959.693C587.159 959.693 582.918 957.937 579.729 954.424C576.562 950.888 574.979 946.184 574.979 940.314V939.898ZM583.403 940.626C583.403 944.486 584.201 947.513 585.795 949.709C587.39 951.882 589.609 952.968 592.452 952.968C595.294 952.968 597.502 951.858 599.073 949.64C600.668 947.421 601.465 944.174 601.465 939.898C601.465 936.108 600.645 933.103 599.004 930.884C597.386 928.666 595.179 927.556 592.382 927.556C589.632 927.556 587.448 928.654 585.83 930.85C584.212 933.022 583.403 936.281 583.403 940.626ZM629.165 942.914L625.421 946.762V959H616.997V905.75H625.421V936.466L628.056 933.172L638.421 921.489H648.544L634.608 937.125L650.035 959H640.293L629.165 942.914Z" fill="white"/>
</g>
<defs>
<clipPath id="clip0_279_235">
<rect width="1000" height="1000" fill="white"/>
</clipPath>
</defs>
</svg>
