<svg width="1000" height="1000" viewBox="0 0 1000 1000" fill="none" xmlns="http://www.w3.org/2000/svg">
<rect width="1000" height="1000" fill="#333333"/>
<path d="M107.591 112.501H85.2725V136H75.6367V80.5469H110.866V88.3164H85.2725V104.808H107.591V112.501ZM115.056 115.015C115.056 110.978 115.855 107.347 117.455 104.122C119.055 100.872 121.302 98.3838 124.196 96.6572C127.091 94.9053 130.417 94.0293 134.175 94.0293C139.735 94.0293 144.242 95.8193 147.695 99.3994C151.174 102.979 153.053 107.728 153.332 113.644L153.37 115.814C153.37 119.877 152.583 123.508 151.009 126.707C149.46 129.906 147.226 132.382 144.306 134.134C141.411 135.886 138.06 136.762 134.251 136.762C128.437 136.762 123.777 134.832 120.273 130.973C116.795 127.088 115.056 121.921 115.056 115.472V115.015ZM124.311 115.814C124.311 120.055 125.187 123.381 126.938 125.793C128.69 128.18 131.128 129.373 134.251 129.373C137.374 129.373 139.799 128.154 141.525 125.717C143.277 123.279 144.153 119.712 144.153 115.015C144.153 110.851 143.252 107.55 141.449 105.112C139.672 102.675 137.247 101.456 134.175 101.456C131.153 101.456 128.754 102.662 126.977 105.074C125.199 107.461 124.311 111.041 124.311 115.814ZM171.042 136H161.787V77.5H171.042V136ZM190.999 136H181.744V77.5H190.999V136ZM199.378 115.015C199.378 110.978 200.178 107.347 201.777 104.122C203.377 100.872 205.624 98.3838 208.519 96.6572C211.413 94.9053 214.739 94.0293 218.497 94.0293C224.058 94.0293 228.564 95.8193 232.018 99.3994C235.496 102.979 237.375 107.728 237.654 113.644L237.692 115.814C237.692 119.877 236.905 123.508 235.331 126.707C233.782 129.906 231.548 132.382 228.628 134.134C225.733 135.886 222.382 136.762 218.573 136.762C212.759 136.762 208.1 134.832 204.596 130.973C201.117 127.088 199.378 121.921 199.378 115.472V115.015ZM208.633 115.814C208.633 120.055 209.509 123.381 211.261 125.793C213.013 128.18 215.45 129.373 218.573 129.373C221.696 129.373 224.121 128.154 225.848 125.717C227.6 123.279 228.476 119.712 228.476 115.015C228.476 110.851 227.574 107.55 225.771 105.112C223.994 102.675 221.569 101.456 218.497 101.456C215.476 101.456 213.076 102.662 211.299 105.074C209.521 107.461 208.633 111.041 208.633 115.814ZM281.72 123.241L288.271 94.791H297.297L286.062 136H278.444L269.608 107.702L260.925 136H253.308L242.034 94.791H251.061L257.726 122.937L266.181 94.791H273.15L281.72 123.241ZM347.875 131.963C345.158 135.162 341.299 136.762 336.297 136.762C331.828 136.762 328.438 135.454 326.128 132.839C323.843 130.224 322.7 126.44 322.7 121.489V94.791H331.955V121.375C331.955 126.605 334.126 129.221 338.468 129.221C342.962 129.221 345.996 127.608 347.57 124.384V94.791H356.825V136H348.104L347.875 131.963ZM389.351 124.803C389.351 123.152 388.665 121.896 387.294 121.032C385.948 120.169 383.701 119.407 380.553 118.747C377.404 118.087 374.776 117.249 372.669 116.233C368.048 113.999 365.737 110.762 365.737 106.521C365.737 102.967 367.235 99.9961 370.231 97.6094C373.228 95.2227 377.036 94.0293 381.657 94.0293C386.583 94.0293 390.557 95.248 393.578 97.6855C396.625 100.123 398.148 103.284 398.148 107.169H388.894C388.894 105.392 388.233 103.919 386.913 102.751C385.593 101.558 383.841 100.961 381.657 100.961C379.626 100.961 377.963 101.431 376.668 102.37C375.398 103.31 374.764 104.566 374.764 106.141C374.764 107.562 375.36 108.667 376.554 109.454C377.747 110.241 380.159 111.041 383.79 111.854C387.421 112.641 390.265 113.593 392.321 114.71C394.403 115.802 395.939 117.122 396.93 118.671C397.945 120.22 398.453 122.099 398.453 124.308C398.453 128.015 396.917 131.023 393.845 133.334C390.772 135.619 386.748 136.762 381.771 136.762C378.395 136.762 375.386 136.152 372.745 134.934C370.104 133.715 368.048 132.039 366.575 129.906C365.103 127.773 364.366 125.476 364.366 123.013H373.354C373.481 125.196 374.307 126.885 375.83 128.078C377.354 129.246 379.372 129.83 381.886 129.83C384.323 129.83 386.177 129.373 387.446 128.459C388.716 127.52 389.351 126.301 389.351 124.803Z" fill="white"/>
<path d="M409.755 920.319C409.755 917.11 410.381 914.224 411.632 911.661C412.903 909.098 414.659 907.12 416.899 905.728C419.16 904.335 421.733 903.639 424.619 903.639C429.079 903.639 432.682 905.183 435.427 908.271C438.192 911.358 439.574 915.465 439.574 920.592V920.985C439.574 924.174 438.959 927.04 437.728 929.583C436.517 932.106 434.771 934.074 432.49 935.486C430.23 936.899 427.626 937.605 424.68 937.605C420.24 937.605 416.637 936.062 413.872 932.974C411.127 929.886 409.755 925.799 409.755 920.713V920.319ZM415.386 920.985C415.386 924.618 416.223 927.535 417.898 929.734C419.594 931.934 421.854 933.034 424.68 933.034C427.525 933.034 429.786 931.924 431.461 929.704C433.136 927.464 433.974 924.336 433.974 920.319C433.974 916.727 433.116 913.821 431.4 911.601C429.705 909.36 427.445 908.24 424.619 908.24C421.854 908.24 419.624 909.34 417.929 911.54C416.233 913.74 415.386 916.888 415.386 920.985ZM451.896 904.244L452.077 908.361C454.58 905.213 457.849 903.639 461.886 903.639C468.808 903.639 472.3 907.544 472.36 915.354V937H466.76V915.324C466.74 912.963 466.195 911.217 465.125 910.087C464.076 908.957 462.431 908.392 460.19 908.392C458.374 908.392 456.78 908.876 455.407 909.845C454.035 910.813 452.965 912.085 452.198 913.659V937H446.598V904.244H451.896Z" fill="white"/>
<path d="M500.171 972.667C506.65 969.897 511.979 965.3 518.771 963.001C525.615 960.754 532.512 960.702 539.617 960.545C543.222 960.441 539.565 956.836 538.102 956.313C532.303 954.224 524.257 953.858 516.733 955.425C520.182 946.961 522.428 937.714 525.458 929.407C530.422 915.666 535.594 901.978 540.923 888.394C545.887 875.75 551.059 863.159 556.44 850.672C558.844 845.029 561.352 839.387 563.859 833.744C566.785 827.213 569.763 815.98 575.301 811.435C575.51 811.278 575.667 811.122 575.771 810.913C579.794 809.711 583.87 808.562 587.893 807.255C591.08 806.263 586.43 802.188 584.288 802.605C577.13 804.068 570.077 806.524 563.232 809.084C556.806 811.435 548.917 813.682 543.901 818.436C542.595 819.638 546.148 821.571 547.088 821.362C553.462 820.108 559.366 816.66 565.427 814.361C565.583 814.309 565.74 814.256 565.897 814.204C563.807 819.429 560.672 824.758 558.269 829.982C555.657 835.521 553.149 841.163 550.641 846.753C544.842 859.71 539.251 872.72 533.87 885.833C528.854 897.85 524.152 910.023 519.555 922.249C515.271 933.795 509.158 946.334 507.12 958.665C502.209 961.172 498.186 964.725 496.253 969.584C495.521 971.413 498.604 973.293 500.171 972.667ZM604.664 897.537C605.291 896.596 597.61 907.568 591.498 912.113C585.75 916.397 583.19 911.591 584.653 906.053C587.057 896.91 595.05 883.639 594.267 877.108C594.005 875.071 591.445 873.765 590.662 873.503C584.183 871.309 566.89 895.499 564.068 899.522C567.046 892.73 570.651 886.147 573.629 879.146C574.622 876.743 569.763 872.25 568.405 874.444C560.62 886.931 553.985 901.873 552.47 916.659C552.261 918.905 557.172 920.525 558.374 918.749C563.703 911.016 568.771 903.127 574.309 895.551C575.458 893.984 581.205 886.042 585.542 881.131C581.728 893.305 569.502 910.546 580.787 917.442C592.751 924.757 606.126 899.888 606.283 898.32C607.067 896.91 605.604 896.178 604.664 897.537ZM654.141 896.805C645.833 893.305 630.839 898.268 622.323 904.015C617.621 899.365 611.194 894.663 611.247 887.349C611.299 881.445 615.583 876.063 620.337 873.085C623.472 871.152 633.294 866.137 637.422 868.383C642.281 870.996 637.735 880.034 634.235 883.796C632.72 885.416 635.28 889.804 636.638 888.603C643.744 882.124 650.222 868.331 637.526 864.36C625.353 860.494 607.224 869.01 604.559 881.915C602.678 891.163 611.769 899.261 618.352 906.993C612.866 911.225 608.216 915.927 605.343 920.995C599.387 931.601 609.784 939.125 619.763 934.422C632.824 928.31 632.824 917.495 625.823 908.09C633.399 901.612 646.095 896.387 654.036 899.417C655.812 898.373 655.499 896.23 654.141 896.805ZM617.203 929.041C615.479 930.138 610.515 932.594 609.209 929.198C608.582 927.421 611.56 922.406 612.657 920.838C615.217 917.286 618.404 914.308 621.748 911.434C625.719 917.39 626.398 923.137 617.203 929.041ZM742.28 839.125C728.226 836.095 712.813 836.304 698.445 835.886C696.355 835.834 694.213 835.834 692.124 835.782C697.557 826.795 699.02 825.594 703.043 816.137C703.931 814.1 699.177 811.331 697.766 812.898C690.034 821.623 688.414 824.915 682.876 835.677C672.531 835.677 662.187 835.886 651.842 836.356C622.271 837.767 610.985 837.558 594.894 843.148C592.647 843.775 596.252 846.44 597.506 846.283C614.799 844.925 625.196 842.992 655.238 841.529C663.545 841.163 671.904 840.954 680.211 840.85C679.062 843.096 677.965 845.291 676.815 847.433C668.508 863.368 660.933 879.668 654.245 896.335C648.237 911.277 642.908 926.742 641.497 942.834C640.713 952.343 640.87 962.322 651.163 965.822C654.768 967.076 654.088 963.053 651.215 962.322C642.229 960.023 652.155 925.332 653.514 920.786C657.484 907.568 662.918 894.82 668.508 882.229C674.151 869.533 680.316 856.994 686.899 844.768C687.63 843.462 688.362 842.156 689.093 840.85C692.75 840.902 696.408 840.954 700.013 841.006C714.746 841.372 729.741 843.88 744.37 843.253C748.079 843.096 743.795 839.439 742.28 839.125ZM703.722 908.038C703.356 911.591 703.827 915.091 706.596 917.495C717.097 926.69 728.382 905.739 732.458 898.738C733.241 897.328 730.472 896.126 729.584 897.589C726.606 902.448 718.769 914.987 712.708 913.315C709.887 912.583 711.141 907.986 712.029 904.642C714.746 894.663 719.814 885.363 724.046 876.011C725.3 873.503 718.247 872.041 716.836 874.548C715.269 877.37 713.806 880.139 712.395 882.96C712.604 876.952 709.469 871.727 701.214 873.712C686.951 877.161 673.994 899.156 672.427 912.636C671.121 923.921 681.309 928.101 689.825 921.57C694.893 917.651 699.49 913.054 703.722 908.038ZM680.682 918.801C675.196 914.464 686.063 897.38 689.981 892.155C699.908 878.937 704.297 878.624 706.021 880.4C707.588 881.967 705.133 887.087 704.349 888.55C703.513 889.961 705.185 893.775 707.118 893.932C706.282 895.186 705.446 896.387 704.506 897.693C701.005 902.552 686.899 923.607 680.682 918.801ZM785.331 897.693C779.113 899.208 772.321 901.455 764.119 905.321C764.746 902.604 765.425 899.94 768.298 891.267C769.03 888.237 770.858 882.281 770.806 880.4C770.754 878.31 769.657 876.429 767.253 874.705C766.313 874.078 765.216 874.444 764.432 875.593C762.917 877.84 761.402 880.034 759.887 882.176C760.775 877.526 758.11 873.712 751.214 874.496C739.458 875.75 727.755 894.297 725.822 907.098C724.725 914.255 728.226 920.577 735.958 916.868C746.355 911.748 752.207 902.239 762.499 886.774C758.424 899.626 755.916 909.135 755.812 909.658C744.37 916.136 735.174 924.078 726.24 935.049C717.567 945.655 698.132 978.466 717.254 988.915C736.115 999.26 750.273 951.089 753.931 940.274C757.327 930.295 760.252 920.264 762.865 910.128C772.112 905.008 774.62 902.761 785.383 899.94C787.891 899.313 787.055 897.223 785.331 897.693ZM732.144 911.957C729.166 910.18 735.018 895.238 741.862 887.819C744.108 885.363 745.989 883.012 748.863 881.236C756.856 876.168 755.028 880.086 752.52 885.781C751.998 887.035 753.617 888.289 755.08 888.603C753.878 890.118 749.751 897.223 747.034 900.515C744.37 903.754 736.898 914.83 732.144 911.957ZM729.009 978.675C725.77 982.123 723.994 984.526 720.232 984.108C716.888 983.743 715.112 981.705 714.955 976.324C714.38 957.097 728.539 938.341 741.601 925.802C745.989 921.57 749.385 918.749 754.14 915.562C751.841 923.712 737.943 969.114 729.009 978.675ZM817.775 874.078C799.071 870.212 791.914 886.095 785.069 901.037C787.525 891.163 791.339 881.706 794.212 874.078C794.839 872.302 789.249 873.608 788.256 875.175C788.256 875.175 774.829 903.649 775.456 918.958C775.561 921.309 780.942 923.242 782.405 921.361C793.533 907.568 796.25 877.056 818.716 877.056C821.798 877.056 819.447 874.392 817.775 874.078ZM841.547 908.038C841.182 911.591 841.652 915.091 844.421 917.495C854.922 926.69 866.208 905.739 870.283 898.738C871.066 897.328 868.297 896.126 867.409 897.589C864.431 902.448 856.594 914.987 850.534 913.315C847.712 912.583 848.966 907.986 849.854 904.642C852.571 894.663 857.639 885.363 861.871 876.011C863.125 873.503 856.072 872.041 854.661 874.548C853.094 877.37 851.631 880.139 850.22 882.96C850.429 876.952 847.294 871.727 839.04 873.712C824.776 877.161 811.819 899.156 810.252 912.636C808.946 923.921 819.134 928.101 827.65 921.57C832.718 917.651 837.315 913.054 841.547 908.038ZM818.507 918.801C813.021 914.464 823.888 897.38 827.807 892.155C837.733 878.937 842.122 878.624 843.846 880.4C845.414 881.967 842.958 887.087 842.174 888.55C841.338 889.961 843.01 893.775 844.943 893.932C844.107 895.186 843.271 896.387 842.331 897.693C838.831 902.552 824.724 923.607 818.507 918.801ZM929.373 898.529C927.179 902.918 924.775 906.471 921.693 910.285C918.715 913.942 913.386 917.808 913.49 909.658C913.595 901.351 917.252 894.297 917.2 887.662C917.2 886.199 913.177 883.326 911.923 884.527C906.907 889.282 903.407 894.977 900.167 901.037C898.443 904.224 896.771 907.411 894.838 910.494C893.846 912.113 892.696 913.576 891.599 915.039C891.756 914.569 891.965 914.099 892.174 913.472C895.361 904.329 902.989 880.295 903.511 870.63C903.616 868.436 899.227 865.196 897.816 866.868C884.65 882.699 881.986 888.968 871.85 905.896C874.306 895.604 877.388 885.781 881.62 875.228C882.352 873.294 878.433 869.324 877.44 871.205C869.238 887.087 864.901 902.5 863.073 920.316C862.864 922.406 866.782 927.474 867.932 925.332C877.649 906.732 888.203 887.087 894.682 880.243C891.181 890.274 892.017 889.961 888.83 899.731C887.158 904.851 882.77 915.3 885.539 918.278C887.315 920.264 890.554 922.301 892.487 921.413C893.95 920.734 896.301 918.435 897.66 916.45C902.414 909.605 905.235 901.821 909.885 895.186C907.325 904.224 903.72 914.987 911.557 918.905C921.85 923.973 929.478 906.314 932.874 898.947C933.657 897.223 930.209 896.857 929.373 898.529Z" fill="white"/>
<rect x="206.543" y="187" width="586" height="586" rx="27.956" fill="white"/>
<path d="M627.418 244.516H738.619V355.717" stroke="#C2C2C2" stroke-width="21.13"/>
<path d="M371.664 244.516H260.463V355.717" stroke="#C2C2C2" stroke-width="21.13"/>
<path d="M627.418 722.676H738.619V611.474" stroke="#C2C2C2" stroke-width="21.13"/>
<path d="M371.664 722.676H260.463V611.474" stroke="#C2C2C2" stroke-width="21.13"/>
<path d="M373.921 435.355L365.178 409.91L355.887 435.355H373.921ZM361.101 401.363H369.922L390.819 458.957H382.272L376.43 441.706H353.652L347.418 458.957H339.42L361.101 401.363ZM401.444 438.452C401.444 442.948 402.398 446.712 404.306 449.744C406.214 452.776 409.272 454.292 413.48 454.292C416.747 454.292 419.426 452.893 421.517 450.096C423.634 447.274 424.693 443.235 424.693 437.982C424.693 432.676 423.608 428.755 421.439 426.22C419.27 423.659 416.59 422.378 413.402 422.378C409.847 422.378 406.959 423.737 404.737 426.455C402.542 429.174 401.444 433.173 401.444 438.452ZM412.069 416.223C415.284 416.223 417.976 416.902 420.145 418.261C421.4 419.045 422.824 420.418 424.419 422.378V401.167H431.201V458.957H424.85V453.115C423.203 455.703 421.256 457.572 419.008 458.722C416.76 459.872 414.186 460.447 411.285 460.447C406.606 460.447 402.555 458.487 399.131 454.566C395.707 450.619 393.995 445.379 393.995 438.844C393.995 432.728 395.55 427.435 398.66 422.966C401.797 418.47 406.266 416.223 412.069 416.223ZM446.139 438.452C446.139 442.948 447.093 446.712 449.001 449.744C450.909 452.776 453.967 454.292 458.175 454.292C461.442 454.292 464.121 452.893 466.212 450.096C468.329 447.274 469.388 443.235 469.388 437.982C469.388 432.676 468.303 428.755 466.134 426.22C463.964 423.659 461.285 422.378 458.097 422.378C454.542 422.378 451.654 423.737 449.432 426.455C447.236 429.174 446.139 433.173 446.139 438.452ZM456.764 416.223C459.978 416.223 462.671 416.902 464.84 418.261C466.095 419.045 467.519 420.418 469.113 422.378V401.167H475.896V458.957H469.545V453.115C467.898 455.703 465.951 457.572 463.703 458.722C461.455 459.872 458.881 460.447 455.979 460.447C451.301 460.447 447.25 458.487 443.826 454.566C440.402 450.619 438.69 445.379 438.69 438.844C438.69 432.728 440.245 427.435 443.355 422.966C446.492 418.47 450.961 416.223 456.764 416.223ZM534.94 416.967H542.742C541.749 419.66 539.54 425.802 536.116 435.394C533.555 442.608 531.412 448.489 529.687 453.037C525.609 463.753 522.734 470.288 521.061 472.64C519.389 474.992 516.513 476.168 512.436 476.168C511.443 476.168 510.672 476.129 510.123 476.051C509.6 475.972 508.947 475.829 508.163 475.62V469.19C509.391 469.53 510.28 469.739 510.829 469.817C511.377 469.895 511.861 469.935 512.279 469.935C513.586 469.935 514.54 469.713 515.141 469.268C515.769 468.85 516.291 468.327 516.709 467.7C516.84 467.491 517.311 466.419 518.121 464.485C518.931 462.551 519.519 461.113 519.885 460.172L504.36 416.967H512.358L523.61 451.155L534.94 416.967ZM565.521 454.409C570.199 454.409 573.401 452.645 575.126 449.116C576.878 445.562 577.753 441.615 577.753 437.276C577.753 433.356 577.126 430.167 575.871 427.71C573.885 423.842 570.461 421.907 565.599 421.907C561.287 421.907 558.15 423.554 556.19 426.847C554.23 430.141 553.249 434.114 553.249 438.766C553.249 443.235 554.23 446.96 556.19 449.94C558.15 452.919 561.26 454.409 565.521 454.409ZM565.795 415.752C571.206 415.752 575.78 417.556 579.517 421.162C583.255 424.769 585.124 430.075 585.124 437.08C585.124 443.85 583.477 449.443 580.184 453.86C576.891 458.277 571.781 460.486 564.854 460.486C559.078 460.486 554.491 458.539 551.093 454.644C547.695 450.724 545.996 445.47 545.996 438.884C545.996 431.826 547.787 426.207 551.368 422.025C554.948 417.843 559.758 415.752 565.795 415.752ZM600.61 416.967V444.843C600.61 446.986 600.95 448.737 601.63 450.096C602.884 452.606 605.223 453.86 608.647 453.86C613.561 453.86 616.907 451.665 618.684 447.274C619.651 444.921 620.135 441.693 620.135 437.59V416.967H627.192V458.957H620.527L620.605 452.762C619.69 454.357 618.553 455.703 617.194 456.801C614.502 458.996 611.235 460.094 607.393 460.094C601.407 460.094 597.33 458.094 595.161 454.095C593.984 451.952 593.396 449.09 593.396 445.509V416.967H600.61ZM638.444 416.967H645.148V424.221C645.697 422.809 647.043 421.097 649.186 419.085C651.33 417.046 653.8 416.026 656.596 416.026C656.727 416.026 656.949 416.04 657.263 416.066C657.576 416.092 658.112 416.144 658.87 416.223V423.672C658.452 423.593 658.06 423.541 657.694 423.515C657.354 423.489 656.975 423.476 656.557 423.476C653.002 423.476 650.271 424.626 648.363 426.926C646.455 429.2 645.501 431.826 645.501 434.806V458.957H638.444V416.967Z" fill="#C2C2C2"/>
<path d="M374.63 559.107C372.042 559.969 368.945 560.4 365.338 560.4C357.811 560.4 351.59 558.153 346.676 553.657C340.717 548.247 337.737 540.301 337.737 529.82C337.737 519.26 340.795 511.275 346.911 505.865C351.903 501.448 358.111 499.239 365.534 499.239C373.009 499.239 379.282 501.578 384.353 506.257C390.208 511.667 393.135 519.234 393.135 528.957C393.135 534.106 392.508 538.419 391.253 541.895C390.234 545.215 388.731 547.972 386.745 550.168L393.41 556.401L387.097 562.988L380.119 556.401C378.002 557.682 376.172 558.584 374.63 559.107ZM372.042 548.678L366.201 543.111L372.434 536.602L378.276 542.17C379.191 540.288 379.831 538.641 380.197 537.23C380.772 535.113 381.06 532.643 381.06 529.82C381.06 523.338 379.727 518.332 377.061 514.804C374.421 511.249 370.552 509.472 365.456 509.472C360.673 509.472 356.857 511.171 354.008 514.569C351.159 517.966 349.734 523.05 349.734 529.82C349.734 537.739 351.773 543.411 355.85 546.835C358.49 549.057 361.653 550.168 365.338 550.168C366.723 550.168 368.056 549.998 369.337 549.658C370.043 549.475 370.945 549.148 372.042 548.678ZM426.931 536.132H414.463V558.793H402.662V501.003H431.008C435.059 501.082 438.17 501.578 440.339 502.493C442.535 503.408 444.39 504.754 445.906 506.531C447.161 507.995 448.154 509.616 448.886 511.393C449.618 513.17 449.984 515.196 449.984 517.47C449.984 520.214 449.291 522.92 447.906 525.586C446.521 528.225 444.234 530.094 441.045 531.192C443.711 532.264 445.593 533.793 446.69 535.779C447.814 537.739 448.376 540.745 448.376 544.796V548.678C448.376 551.318 448.481 553.108 448.69 554.049C449.004 555.539 449.735 556.637 450.886 557.342V558.793H437.595C437.229 557.512 436.967 556.48 436.811 555.696C436.497 554.075 436.327 552.415 436.301 550.717L436.222 545.345C436.17 541.66 435.491 539.203 434.184 537.975C432.903 536.746 430.485 536.132 426.931 536.132ZM434.262 525.625C436.667 524.527 437.869 522.358 437.869 519.117C437.869 515.614 436.706 513.262 434.38 512.059C433.073 511.38 431.113 511.04 428.499 511.04H414.463V526.566H428.146C430.864 526.566 432.903 526.252 434.262 525.625ZM518.829 531.388H507.381C507.172 529.794 506.636 528.356 505.774 527.075C504.519 525.35 502.572 524.488 499.932 524.488C496.168 524.488 493.594 526.357 492.209 530.094C491.477 532.081 491.111 534.721 491.111 538.014C491.111 541.15 491.477 543.673 492.209 545.581C493.542 549.135 496.051 550.913 499.736 550.913C502.35 550.913 504.206 550.207 505.303 548.795C506.401 547.384 507.068 545.554 507.303 543.307H518.712C518.45 546.704 517.222 549.919 515.026 552.951C511.524 557.839 506.336 560.283 499.462 560.283C492.588 560.283 487.53 558.244 484.289 554.167C481.048 550.089 479.427 544.796 479.427 538.288C479.427 530.944 481.218 525.233 484.799 521.155C488.379 517.078 493.319 515.039 499.619 515.039C504.977 515.039 509.355 516.241 512.753 518.646C516.177 521.051 518.202 525.298 518.829 531.388ZM562.191 521.469C565.798 525.991 567.602 531.336 567.602 537.504C567.602 543.777 565.798 549.148 562.191 553.618C558.584 558.061 553.109 560.283 545.764 560.283C538.419 560.283 532.944 558.061 529.337 553.618C525.73 549.148 523.926 543.777 523.926 537.504C523.926 531.336 525.73 525.991 529.337 521.469C532.944 516.947 538.419 514.686 545.764 514.686C553.109 514.686 558.584 516.947 562.191 521.469ZM545.725 524.135C542.458 524.135 539.935 525.298 538.158 527.624C536.407 529.924 535.531 533.218 535.531 537.504C535.531 541.791 536.407 545.097 538.158 547.423C539.935 549.749 542.458 550.913 545.725 550.913C548.992 550.913 551.501 549.749 553.252 547.423C555.003 545.097 555.879 541.791 555.879 537.504C555.879 533.218 555.003 529.924 553.252 527.624C551.501 525.298 548.992 524.135 545.725 524.135ZM614.531 501.082V558.793H603.671V552.873C602.077 555.408 600.26 557.251 598.222 558.401C596.183 559.551 593.648 560.126 590.616 560.126C585.623 560.126 581.415 558.113 577.991 554.088C574.593 550.037 572.894 544.849 572.894 538.523C572.894 531.231 574.567 525.494 577.913 521.312C581.285 517.13 585.78 515.039 591.4 515.039C593.987 515.039 596.287 515.614 598.3 516.764C600.313 517.888 601.946 519.456 603.201 521.469V501.082H614.531ZM584.421 537.7C584.421 541.647 585.205 544.796 586.773 547.149C588.316 549.527 590.668 550.717 593.83 550.717C596.993 550.717 599.398 549.54 601.044 547.188C602.691 544.836 603.514 541.791 603.514 538.053C603.514 532.826 602.194 529.088 599.555 526.84C597.934 525.481 596.052 524.801 593.909 524.801C590.642 524.801 588.237 526.043 586.695 528.526C585.179 530.983 584.421 534.041 584.421 537.7ZM661.304 546.247C661.016 548.782 659.696 551.357 657.344 553.971C653.685 558.126 648.562 560.204 641.975 560.204C636.539 560.204 631.743 558.453 627.587 554.951C623.431 551.448 621.353 545.75 621.353 537.857C621.353 530.46 623.222 524.788 626.96 520.842C630.723 516.895 635.598 514.921 641.583 514.921C645.138 514.921 648.34 515.588 651.189 516.921C654.038 518.254 656.39 520.358 658.246 523.233C659.919 525.768 661.003 528.709 661.5 532.054C661.787 534.015 661.905 536.838 661.853 540.523H632.605C632.762 544.81 634.108 547.815 636.643 549.54C638.185 550.612 640.041 551.148 642.211 551.148C644.511 551.148 646.38 550.494 647.817 549.188C648.601 548.482 649.294 547.502 649.895 546.247H661.304ZM650.248 533.152C650.065 530.199 649.163 527.964 647.543 526.448C645.948 524.906 643.962 524.135 641.583 524.135C638.996 524.135 636.983 524.945 635.546 526.566C634.134 528.186 633.246 530.382 632.88 533.152H650.248Z" fill="#C2C2C2"/>
<path d="M879.017 107.304C879.219 106.214 880.781 106.214 880.983 107.304L885.566 132.026C885.711 132.806 886.662 133.115 887.238 132.569L905.476 115.262C906.281 114.499 907.544 115.417 907.067 116.418L896.244 139.112C895.902 139.828 896.49 140.637 897.277 140.534L922.205 137.253C923.304 137.108 923.787 138.594 922.812 139.123L900.717 151.121C900.02 151.5 900.02 152.5 900.717 152.879L922.812 164.877C923.787 165.406 923.304 166.892 922.204 166.747L897.277 163.466C896.49 163.363 895.902 164.172 896.244 164.888L907.067 187.582C907.544 188.583 906.281 189.501 905.476 188.738L887.238 171.431C886.662 170.885 885.711 171.194 885.566 171.974L880.983 196.696C880.781 197.786 879.219 197.786 879.017 196.696L874.434 171.974C874.289 171.194 873.338 170.885 872.762 171.431L854.524 188.738C853.719 189.501 852.456 188.583 852.933 187.582L863.756 164.888C864.098 164.172 863.51 163.363 862.723 163.466L837.795 166.747C836.696 166.892 836.213 165.406 837.188 164.877L859.283 152.879C859.98 152.5 859.98 151.5 859.283 151.121L837.188 139.123C836.213 138.594 836.696 137.108 837.796 137.253L862.723 140.534C863.51 140.637 864.098 139.828 863.756 139.112L852.933 116.418C852.456 115.417 853.719 114.499 854.524 115.262L872.762 132.569C873.338 133.115 874.289 132.806 874.434 132.026L879.017 107.304Z" fill="white"/>
<path d="M144.01 793.811C144.176 792.669 145.824 792.669 145.99 793.811L151.502 831.749C151.631 832.638 152.774 832.919 153.301 832.193L175.813 801.162C176.49 800.228 177.949 800.994 177.565 802.082L164.815 838.236C164.517 839.082 165.398 839.863 166.202 839.465L200.556 822.45C201.59 821.938 202.526 823.294 201.681 824.079L173.589 850.167C172.932 850.777 173.349 851.878 174.246 851.899L212.573 852.798C213.726 852.825 213.924 854.461 212.811 854.763L175.814 864.808C174.948 865.043 174.806 866.212 175.59 866.648L209.109 885.255C210.117 885.815 209.533 887.355 208.407 887.105L170.979 878.806C170.103 878.612 169.434 879.581 169.927 880.331L190.958 912.384C191.591 913.348 190.358 914.441 189.477 913.696L160.193 888.954C159.508 888.375 158.465 888.922 158.552 889.815L162.28 927.971C162.392 929.119 160.792 929.513 160.358 928.444L145.926 892.928C145.589 892.096 144.411 892.096 144.074 892.928L129.642 928.444C129.208 929.513 127.608 929.119 127.72 927.971L131.448 889.815C131.535 888.922 130.492 888.375 129.807 888.954L100.523 913.696C99.6419 914.441 98.4087 913.348 99.0416 912.384L120.073 880.331C120.566 879.581 119.897 878.612 119.021 878.806L81.5931 887.105C80.4668 887.355 79.8826 885.815 80.8912 885.255L114.41 866.648C115.194 866.212 115.052 865.043 114.186 864.808L77.1889 854.763C76.0756 854.461 76.2742 852.825 77.4275 852.798L115.754 851.899C116.651 851.878 117.068 850.777 116.411 850.167L88.3194 824.079C87.4741 823.294 88.4099 821.938 89.4437 822.45L123.798 839.465C124.602 839.863 125.483 839.082 125.185 838.236L112.435 802.082C112.051 800.994 113.51 800.228 114.187 801.162L136.699 832.193C137.226 832.919 138.369 832.638 138.498 831.749L144.01 793.811Z" fill="white"/>
</svg>
