<svg width="1000" height="1000" viewBox="0 0 1000 1000" fill="none" xmlns="http://www.w3.org/2000/svg">
<rect width="1000" height="1000" rx="172" fill="#333333"/>
<circle cx="839" cy="96" r="44" fill="white"/>
<circle cx="500" cy="472" r="354.194" stroke="white" stroke-width="23.6129"/>
<rect x="264.09" y="236.09" width="470.912" height="470.912" rx="22.4655" fill="white"/>
<path d="M602.305 282.309H691.667V371.671" stroke="#C2C2C2" stroke-width="16.9801"/>
<path d="M396.777 282.309H307.415V371.671" stroke="#C2C2C2" stroke-width="16.9801"/>
<path d="M602.305 666.561H691.667V577.199" stroke="#C2C2C2" stroke-width="16.9801"/>
<path d="M396.777 666.561H307.415V577.199" stroke="#C2C2C2" stroke-width="16.9801"/>
<path d="M398.597 435.613L391.571 415.166L384.104 435.613H398.597ZM388.294 408.298H395.383L412.176 454.58H405.307L400.613 440.717H382.308L377.298 454.58H370.871L388.294 408.298ZM420.714 438.102C420.714 441.715 421.48 444.74 423.014 447.176C424.547 449.613 427.005 450.831 430.386 450.831C433.012 450.831 435.165 449.707 436.845 447.46C438.546 445.191 439.397 441.946 439.397 437.724C439.397 433.46 438.525 430.31 436.782 428.272C435.039 426.214 432.886 425.185 430.323 425.185C427.467 425.185 425.146 426.277 423.36 428.462C421.596 430.646 420.714 433.86 420.714 438.102ZM429.252 420.238C431.835 420.238 433.999 420.785 435.742 421.877C436.75 422.507 437.895 423.61 439.176 425.185V408.14H444.627V454.58H439.523V449.886C438.2 451.965 436.635 453.467 434.829 454.391C433.022 455.315 430.953 455.777 428.622 455.777C424.862 455.777 421.606 454.202 418.855 451.051C416.103 447.88 414.728 443.668 414.728 438.417C414.728 433.502 415.977 429.249 418.477 425.657C420.997 422.045 424.589 420.238 429.252 420.238ZM456.631 438.102C456.631 441.715 457.397 444.74 458.931 447.176C460.464 449.613 462.921 450.831 466.303 450.831C468.929 450.831 471.082 449.707 472.762 447.46C474.463 445.191 475.314 441.946 475.314 437.724C475.314 433.46 474.442 430.31 472.699 428.272C470.956 426.214 468.803 425.185 466.24 425.185C463.384 425.185 461.063 426.277 459.277 428.462C457.513 430.646 456.631 433.86 456.631 438.102ZM465.169 420.238C467.752 420.238 469.916 420.785 471.659 421.877C472.667 422.507 473.812 423.61 475.093 425.185V408.14H480.544V454.58H475.44V449.886C474.117 451.965 472.552 453.467 470.746 454.391C468.939 455.315 466.87 455.777 464.539 455.777C460.779 455.777 457.523 454.202 454.772 451.051C452.02 447.88 450.645 443.668 450.645 438.417C450.645 433.502 451.894 429.249 454.394 425.657C456.914 422.045 460.506 420.238 465.169 420.238ZM527.992 420.837H534.262C533.464 423 531.689 427.936 528.937 435.645C526.879 441.442 525.157 446.168 523.77 449.823C520.494 458.434 518.183 463.685 516.839 465.576C515.495 467.466 513.184 468.411 509.908 468.411C509.109 468.411 508.49 468.38 508.049 468.317C507.629 468.254 507.104 468.138 506.473 467.97V462.803C507.461 463.076 508.175 463.244 508.616 463.307C509.057 463.37 509.446 463.402 509.782 463.402C510.832 463.402 511.598 463.223 512.082 462.866C512.586 462.53 513.006 462.11 513.342 461.606C513.447 461.438 513.825 460.577 514.476 459.022C515.127 457.468 515.6 456.313 515.894 455.557L503.417 420.837H509.845L518.887 448.31L527.992 420.837ZM552.567 450.925C556.327 450.925 558.9 449.508 560.286 446.672C561.693 443.815 562.397 440.644 562.397 437.157C562.397 434.007 561.893 431.444 560.884 429.47C559.288 426.361 556.537 424.807 552.63 424.807C549.164 424.807 546.644 426.13 545.068 428.777C543.493 431.423 542.705 434.616 542.705 438.354C542.705 441.946 543.493 444.939 545.068 447.334C546.644 449.728 549.143 450.925 552.567 450.925ZM552.787 419.86C557.135 419.86 560.811 421.31 563.815 424.208C566.818 427.107 568.32 431.371 568.32 437C568.32 442.44 566.997 446.935 564.35 450.484C561.704 454.034 557.597 455.809 552.031 455.809C547.389 455.809 543.703 454.244 540.973 451.114C538.242 447.964 536.877 443.742 536.877 438.449C536.877 432.778 538.316 428.262 541.193 424.901C544.071 421.541 547.935 419.86 552.787 419.86ZM580.765 420.837V443.238C580.765 444.96 581.038 446.367 581.584 447.46C582.592 449.476 584.472 450.484 587.224 450.484C591.172 450.484 593.861 448.72 595.289 445.191C596.066 443.301 596.455 440.707 596.455 437.409V420.837H602.126V454.58H596.77L596.833 449.602C596.098 450.883 595.184 451.965 594.092 452.847C591.928 454.612 589.303 455.494 586.215 455.494C581.405 455.494 578.129 453.887 576.385 450.673C575.44 448.951 574.968 446.651 574.968 443.773V420.837H580.765ZM611.168 420.837H616.556V426.666C616.997 425.531 618.079 424.156 619.801 422.538C621.523 420.9 623.508 420.081 625.756 420.081C625.861 420.081 626.039 420.091 626.291 420.112C626.543 420.133 626.974 420.175 627.583 420.238V426.225C627.247 426.162 626.932 426.12 626.638 426.099C626.365 426.078 626.06 426.067 625.724 426.067C622.867 426.067 620.673 426.991 619.139 428.84C617.606 430.667 616.839 432.778 616.839 435.172V454.58H611.168V420.837Z" fill="#C2C2C2"/>
<path d="M399.164 535.061C397.085 535.754 394.596 536.1 391.697 536.1C385.648 536.1 380.649 534.294 376.7 530.681C371.911 526.333 369.517 519.948 369.517 511.526C369.517 503.04 371.974 496.623 376.889 492.275C380.901 488.726 385.89 486.951 391.855 486.951C397.862 486.951 402.903 488.831 406.978 492.59C411.683 496.938 414.035 503.019 414.035 510.832C414.035 514.97 413.531 518.436 412.523 521.229C411.704 523.897 410.496 526.113 408.9 527.877L414.256 532.887L409.183 538.18L403.575 532.887C401.874 533.916 400.403 534.641 399.164 535.061ZM397.085 526.68L392.39 522.206L397.4 516.976L402.094 521.45C402.829 519.938 403.344 518.614 403.638 517.48C404.1 515.779 404.331 513.794 404.331 511.526C404.331 506.317 403.26 502.294 401.118 499.459C398.996 496.602 395.888 495.174 391.792 495.174C387.948 495.174 384.881 496.539 382.592 499.27C380.303 502 379.158 506.086 379.158 511.526C379.158 517.89 380.796 522.448 384.073 525.199C386.194 526.985 388.736 527.877 391.697 527.877C392.81 527.877 393.882 527.741 394.911 527.468C395.478 527.321 396.203 527.058 397.085 526.68ZM441.193 516.598H431.174V534.809H421.691V488.369H444.47C447.726 488.432 450.225 488.831 451.968 489.566C453.733 490.301 455.224 491.383 456.442 492.811C457.45 493.987 458.249 495.289 458.837 496.718C459.425 498.146 459.719 499.774 459.719 501.601C459.719 503.807 459.162 505.981 458.049 508.123C456.936 510.244 455.098 511.746 452.535 512.628C454.678 513.489 456.19 514.718 457.072 516.315C457.976 517.89 458.427 520.305 458.427 523.561V526.68C458.427 528.801 458.511 530.24 458.679 530.996C458.931 532.194 459.519 533.076 460.444 533.643V534.809H449.763C449.469 533.779 449.259 532.95 449.133 532.32C448.881 531.017 448.744 529.684 448.723 528.318L448.66 524.002C448.618 521.04 448.072 519.066 447.022 518.079C445.993 517.092 444.05 516.598 441.193 516.598ZM447.085 508.154C449.017 507.272 449.984 505.529 449.984 502.924C449.984 500.11 449.049 498.22 447.179 497.253C446.129 496.707 444.554 496.434 442.454 496.434H431.174V508.911H442.17C444.354 508.911 445.993 508.659 447.085 508.154ZM515.044 512.786H505.844C505.676 511.505 505.245 510.349 504.552 509.32C503.544 507.934 501.979 507.241 499.858 507.241C496.833 507.241 494.764 508.743 493.651 511.746C493.063 513.342 492.769 515.464 492.769 518.11C492.769 520.631 493.063 522.658 493.651 524.191C494.722 527.048 496.739 528.476 499.7 528.476C501.801 528.476 503.292 527.909 504.174 526.775C505.056 525.64 505.592 524.17 505.781 522.364H514.949C514.739 525.094 513.752 527.678 511.988 530.114C509.173 534.042 505.004 536.006 499.48 536.006C493.956 536.006 489.891 534.368 487.287 531.091C484.682 527.814 483.38 523.561 483.38 518.331C483.38 512.429 484.819 507.839 487.696 504.563C490.574 501.286 494.544 499.648 499.606 499.648C503.911 499.648 507.43 500.614 510.16 502.546C512.912 504.479 514.54 507.892 515.044 512.786ZM549.889 504.815C552.788 508.448 554.237 512.744 554.237 517.701C554.237 522.742 552.788 527.058 549.889 530.65C546.991 534.22 542.59 536.006 536.688 536.006C530.786 536.006 526.386 534.22 523.487 530.65C520.589 527.058 519.139 522.742 519.139 517.701C519.139 512.744 520.589 508.448 523.487 504.815C526.386 501.181 530.786 499.364 536.688 499.364C542.59 499.364 546.991 501.181 549.889 504.815ZM536.657 506.957C534.031 506.957 532.004 507.892 530.576 509.761C529.169 511.61 528.465 514.256 528.465 517.701C528.465 521.145 529.169 523.802 530.576 525.672C532.004 527.541 534.031 528.476 536.657 528.476C539.282 528.476 541.299 527.541 542.706 525.672C544.113 523.802 544.817 521.145 544.817 517.701C544.817 514.256 544.113 511.61 542.706 509.761C541.299 507.892 539.282 506.957 536.657 506.957ZM591.95 488.432V534.809H583.223V530.051C581.942 532.089 580.482 533.569 578.843 534.494C577.205 535.418 575.168 535.88 572.731 535.88C568.719 535.88 565.338 534.262 562.586 531.028C559.856 527.772 558.49 523.603 558.49 518.52C558.49 512.66 559.835 508.049 562.523 504.689C565.233 501.328 568.846 499.648 573.361 499.648C575.441 499.648 577.289 500.11 578.906 501.034C580.524 501.937 581.837 503.197 582.845 504.815V488.432H591.95ZM567.753 517.858C567.753 521.03 568.383 523.561 569.644 525.451C570.883 527.363 572.773 528.318 575.315 528.318C577.856 528.318 579.789 527.373 581.112 525.483C582.435 523.592 583.097 521.145 583.097 518.142C583.097 513.941 582.036 510.937 579.915 509.131C578.612 508.039 577.1 507.493 575.378 507.493C572.752 507.493 570.82 508.49 569.581 510.486C568.362 512.46 567.753 514.918 567.753 517.858ZM629.537 524.727C629.306 526.764 628.245 528.833 626.355 530.933C623.414 534.273 619.297 535.943 614.004 535.943C609.635 535.943 605.781 534.536 602.442 531.721C599.102 528.906 597.432 524.328 597.432 517.984C597.432 512.04 598.934 507.482 601.937 504.311C604.962 501.139 608.879 499.553 613.689 499.553C616.546 499.553 619.119 500.089 621.408 501.16C623.698 502.231 625.588 503.922 627.079 506.233C628.424 508.27 629.295 510.633 629.694 513.321C629.925 514.897 630.02 517.165 629.978 520.127H606.474C606.6 523.571 607.682 525.987 609.719 527.373C610.959 528.234 612.45 528.665 614.193 528.665C616.042 528.665 617.543 528.14 618.699 527.09C619.329 526.522 619.885 525.735 620.368 524.727H629.537ZM620.652 514.204C620.505 511.83 619.78 510.034 618.478 508.816C617.197 507.577 615.601 506.957 613.689 506.957C611.61 506.957 609.992 507.608 608.837 508.911C607.703 510.213 606.989 511.977 606.695 514.204H620.652Z" fill="#C2C2C2"/>
<path d="M287.617 916.261C287.617 920.756 286.84 924.704 285.286 928.107C283.732 931.489 281.505 934.093 278.607 935.921C275.729 937.727 272.41 938.63 268.651 938.63C264.933 938.63 261.614 937.727 258.695 935.921C255.796 934.093 253.549 931.499 251.952 928.139C250.377 924.778 249.579 920.903 249.558 916.513V913.929C249.558 909.455 250.346 905.507 251.921 902.083C253.517 898.659 255.754 896.044 258.632 894.238C261.53 892.411 264.849 891.497 268.588 891.497C272.326 891.497 275.635 892.4 278.512 894.207C281.411 895.992 283.648 898.575 285.223 901.957C286.798 905.318 287.596 909.235 287.617 913.709V916.261ZM279.646 913.866C279.646 908.783 278.68 904.887 276.748 902.178C274.836 899.468 272.116 898.113 268.588 898.113C265.143 898.113 262.444 899.468 260.491 902.178C258.558 904.866 257.571 908.678 257.529 913.614V916.261C257.529 921.302 258.506 925.198 260.459 927.95C262.434 930.701 265.164 932.077 268.651 932.077C272.179 932.077 274.889 930.733 276.779 928.044C278.691 925.356 279.646 921.428 279.646 916.261V913.866ZM329.111 892.127V922.783C329.111 927.655 327.546 931.52 324.417 934.377C321.308 937.212 317.16 938.63 311.972 938.63C306.721 938.63 302.551 937.233 299.464 934.44C296.376 931.625 294.832 927.729 294.832 922.751V892.127H302.772V922.814C302.772 925.881 303.549 928.223 305.103 929.84C306.658 931.457 308.947 932.266 311.972 932.266C318.105 932.266 321.171 929.031 321.171 922.562V892.127H329.111ZM354.505 920.325H345.62V938H337.649V892.127H353.78C359.073 892.127 363.159 893.314 366.036 895.687C368.914 898.061 370.352 901.495 370.352 905.99C370.352 909.056 369.607 911.629 368.115 913.709C366.645 915.767 364.587 917.353 361.94 918.466L372.243 937.59V938H363.705L354.505 920.325ZM345.62 913.929H353.812C356.5 913.929 358.601 913.257 360.113 911.913C361.625 910.548 362.381 908.689 362.381 906.336C362.381 903.879 361.678 901.978 360.27 900.634C358.884 899.29 356.805 898.596 354.032 898.554H345.62V913.929ZM402.394 938H394.455V892.127H402.394V938ZM448.582 938H440.611L420.164 905.454V938H412.192V892.127H420.164L440.674 924.799V892.127H448.582V938ZM481.979 926.185C481.979 924.169 481.264 922.615 479.836 921.522C478.429 920.43 475.877 919.327 472.18 918.214C468.483 917.101 465.543 915.862 463.358 914.496C459.179 911.871 457.089 908.447 457.089 904.225C457.089 900.529 458.59 897.483 461.594 895.089C464.619 892.694 468.536 891.497 473.346 891.497C476.538 891.497 479.385 892.085 481.884 893.261C484.383 894.438 486.347 896.118 487.776 898.302C489.204 900.466 489.918 902.871 489.918 905.517H481.979C481.979 903.123 481.222 901.253 479.71 899.909C478.219 898.544 476.076 897.861 473.283 897.861C470.678 897.861 468.651 898.418 467.202 899.531C465.774 900.644 465.06 902.199 465.06 904.194C465.06 905.874 465.837 907.282 467.391 908.416C468.945 909.529 471.508 910.621 475.079 911.692C478.649 912.743 481.516 913.95 483.68 915.316C485.843 916.66 487.429 918.214 488.437 919.979C489.445 921.722 489.95 923.77 489.95 926.122C489.95 929.945 488.479 932.991 485.539 935.259C482.619 937.506 478.649 938.63 473.629 938.63C470.311 938.63 467.255 938.021 464.461 936.803C461.689 935.564 459.525 933.862 457.971 931.699C456.438 929.535 455.671 927.015 455.671 924.137H463.642C463.642 926.742 464.503 928.758 466.225 930.186C467.948 931.615 470.416 932.329 473.629 932.329C476.402 932.329 478.481 931.772 479.868 930.659C481.275 929.525 481.979 928.034 481.979 926.185ZM530.088 898.554H515.785V938H507.877V898.554H493.699V892.127H530.088V898.554ZM558.034 927.319H540.265L536.547 938H528.261L545.589 892.127H552.741L570.101 938H561.783L558.034 927.319ZM542.502 920.892H555.797L549.15 901.863L542.502 920.892ZM609.799 932.045C608.139 934.209 605.839 935.847 602.899 936.96C599.958 938.074 596.619 938.63 592.88 938.63C589.036 938.63 585.634 937.758 582.672 936.015C579.71 934.272 577.421 931.783 575.804 928.548C574.207 925.293 573.378 921.501 573.315 917.174V913.583C573.315 906.651 574.974 901.243 578.293 897.357C581.611 893.45 586.243 891.497 592.187 891.497C597.291 891.497 601.345 892.757 604.348 895.278C607.352 897.798 609.158 901.432 609.767 906.179H601.954C601.072 900.655 597.868 897.893 592.344 897.893C588.774 897.893 586.054 899.184 584.184 901.768C582.336 904.33 581.38 908.101 581.317 913.079V916.607C581.317 921.564 582.357 925.419 584.436 928.17C586.537 930.901 589.446 932.266 593.164 932.266C597.238 932.266 600.137 931.342 601.859 929.493V920.514H592.407V914.465H609.799V932.045ZM635.413 920.325H626.528V938H618.557V892.127H634.689C639.982 892.127 644.067 893.314 646.944 895.687C649.822 898.061 651.261 901.495 651.261 905.99C651.261 909.056 650.515 911.629 649.024 913.709C647.554 915.767 645.495 917.353 642.849 918.466L653.151 937.59V938H644.613L635.413 920.325ZM626.528 913.929H634.72C637.409 913.929 639.509 913.257 641.021 911.913C642.534 910.548 643.29 908.689 643.29 906.336C643.29 903.879 642.586 901.978 641.179 900.634C639.793 899.29 637.713 898.596 634.941 898.554H626.528V913.929ZM684.5 927.319H666.73L663.013 938H654.726L672.055 892.127H679.207L696.567 938H688.249L684.5 927.319ZM668.967 920.892H682.263L675.615 901.863L668.967 920.892ZM712.131 892.127L725.363 927.288L738.564 892.127H748.867V938H740.927V922.877L741.715 902.65L728.167 938H722.465L708.948 902.682L709.736 922.877V938H701.797V892.127H712.131Z" fill="white"/>
</svg>
