<svg width="2000" height="1000" viewBox="0 0 2000 1000" fill="none" xmlns="http://www.w3.org/2000/svg">
<rect x="845" width="1000" height="1000" rx="18" fill="#333333"/>
<rect x="914" y="69" width="861" height="861" rx="12.5462" fill="white"/>
<path d="M1532.38 153.51H1695.76V316.896" stroke="#C2C2C2" stroke-width="31.0459"/>
<path d="M1156.59 153.51H993.203V316.896" stroke="#C2C2C2" stroke-width="31.0459"/>
<path d="M1532.38 856.066H1695.76V692.68" stroke="#C2C2C2" stroke-width="31.0459"/>
<path d="M1156.59 856.066H993.203V692.68" stroke="#C2C2C2" stroke-width="31.0459"/>
<path d="M1159.92 434.588L1147.08 397.202L1133.42 434.588H1159.92ZM1141.09 384.644H1154.05L1184.75 469.266H1172.19L1163.61 443.92H1130.14L1120.98 469.266H1109.23L1141.09 384.644ZM1200.36 439.138C1200.36 445.744 1201.76 451.274 1204.57 455.729C1207.37 460.183 1211.86 462.411 1218.05 462.411C1222.85 462.411 1226.78 460.356 1229.85 456.247C1232.96 452.099 1234.52 446.166 1234.52 438.447C1234.52 430.651 1232.93 424.891 1229.74 421.166C1226.55 417.402 1222.62 415.52 1217.93 415.52C1212.71 415.52 1208.46 417.517 1205.2 421.511C1201.97 425.505 1200.36 431.381 1200.36 439.138ZM1215.97 406.477C1220.69 406.477 1224.65 407.475 1227.84 409.472C1229.68 410.624 1231.77 412.64 1234.12 415.52V384.356H1244.08V469.266H1234.75V460.683C1232.33 464.484 1229.47 467.23 1226.17 468.92C1222.86 470.61 1219.08 471.455 1214.82 471.455C1207.95 471.455 1201.99 468.574 1196.96 462.814C1191.93 457.015 1189.42 449.315 1189.42 439.714C1189.42 430.728 1191.7 422.951 1196.27 416.385C1200.88 409.779 1207.45 406.477 1215.97 406.477ZM1266.03 439.138C1266.03 445.744 1267.43 451.274 1270.23 455.729C1273.04 460.183 1277.53 462.411 1283.71 462.411C1288.51 462.411 1292.45 460.356 1295.52 456.247C1298.63 452.099 1300.19 446.166 1300.19 438.447C1300.19 430.651 1298.6 424.891 1295.41 421.166C1292.22 417.402 1288.28 415.52 1283.6 415.52C1278.38 415.52 1274.13 417.517 1270.87 421.511C1267.64 425.505 1266.03 431.381 1266.03 439.138ZM1281.64 406.477C1286.36 406.477 1290.32 407.475 1293.51 409.472C1295.35 410.624 1297.44 412.64 1299.79 415.52V384.356H1309.75V469.266H1300.42V460.683C1298 464.484 1295.14 467.23 1291.84 468.92C1288.53 470.61 1284.75 471.455 1280.49 471.455C1273.61 471.455 1267.66 468.574 1262.63 462.814C1257.6 457.015 1255.08 449.315 1255.08 439.714C1255.08 430.728 1257.37 422.951 1261.94 416.385C1266.55 409.779 1273.12 406.477 1281.64 406.477ZM1396.5 407.571H1407.97C1406.51 411.527 1403.26 420.551 1398.23 434.645C1394.47 445.244 1391.32 453.885 1388.79 460.567C1382.79 476.313 1378.57 485.913 1376.11 489.37C1373.65 492.826 1369.43 494.554 1363.44 494.554C1361.98 494.554 1360.85 494.496 1360.04 494.381C1359.27 494.266 1358.31 494.055 1357.16 493.748V484.3C1358.97 484.8 1360.27 485.107 1361.08 485.222C1361.88 485.337 1362.59 485.395 1363.21 485.395C1365.13 485.395 1366.53 485.069 1367.41 484.416C1368.34 483.801 1369.1 483.033 1369.72 482.111C1369.91 481.804 1370.6 480.23 1371.79 477.388C1372.98 474.546 1373.85 472.434 1374.38 471.051L1351.57 407.571H1363.32L1379.86 457.802L1396.5 407.571ZM1441.44 462.583C1448.31 462.583 1453.01 459.991 1455.55 454.807C1458.12 449.584 1459.41 443.785 1459.41 437.41C1459.41 431.65 1458.49 426.965 1456.64 423.355C1453.73 417.671 1448.69 414.829 1441.55 414.829C1435.21 414.829 1430.61 417.249 1427.73 422.087C1424.85 426.926 1423.41 432.763 1423.41 439.599C1423.41 446.166 1424.85 451.639 1427.73 456.017C1430.61 460.395 1435.18 462.583 1441.44 462.583ZM1441.84 405.785C1449.79 405.785 1456.51 408.435 1462 413.735C1467.49 419.034 1470.24 426.83 1470.24 437.122C1470.24 447.069 1467.82 455.287 1462.98 461.777C1458.14 468.267 1450.63 471.512 1440.46 471.512C1431.97 471.512 1425.23 468.651 1420.24 462.929C1415.25 457.169 1412.75 449.45 1412.75 439.772C1412.75 429.403 1415.38 421.147 1420.64 415.002C1425.9 408.858 1432.97 405.785 1441.84 405.785ZM1492.99 407.571V448.528C1492.99 451.677 1493.49 454.25 1494.49 456.247C1496.33 459.934 1499.77 461.777 1504.8 461.777C1512.02 461.777 1516.94 458.551 1519.55 452.099C1520.97 448.643 1521.68 443.9 1521.68 437.871V407.571H1532.05V469.266H1522.26L1522.37 460.164C1521.03 462.507 1519.36 464.484 1517.36 466.097C1513.4 469.323 1508.6 470.936 1502.96 470.936C1494.16 470.936 1488.17 467.998 1484.99 462.123C1483.26 458.974 1482.39 454.768 1482.39 449.507V407.571H1492.99ZM1548.58 407.571H1558.43V418.228C1559.24 416.154 1561.22 413.639 1564.36 410.682C1567.51 407.686 1571.14 406.188 1575.25 406.188C1575.44 406.188 1575.77 406.208 1576.23 406.246C1576.69 406.285 1577.48 406.361 1578.59 406.477V417.421C1577.98 417.306 1577.4 417.229 1576.86 417.191C1576.37 417.153 1575.81 417.133 1575.19 417.133C1569.97 417.133 1565.96 418.823 1563.15 422.203C1560.35 425.544 1558.95 429.403 1558.95 433.781V469.266H1548.58V407.571Z" fill="#C2C2C2"/>
<path d="M1160.96 616.412C1157.16 617.679 1152.61 618.313 1147.31 618.313C1136.25 618.313 1127.11 615.01 1119.89 608.405C1111.13 600.456 1106.76 588.781 1106.76 573.381C1106.76 557.866 1111.25 546.134 1120.24 538.185C1127.57 531.695 1136.69 528.45 1147.6 528.45C1158.58 528.45 1167.8 531.887 1175.25 538.761C1183.85 546.71 1188.15 557.828 1188.15 572.114C1188.15 579.679 1187.23 586.016 1185.39 591.124C1183.89 596.001 1181.68 600.052 1178.76 603.278L1188.55 612.437L1179.28 622.115L1169.03 612.437C1165.92 614.319 1163.23 615.644 1160.96 616.412ZM1157.16 601.089L1148.58 592.909L1157.74 583.347L1166.32 591.527C1167.66 588.762 1168.6 586.342 1169.14 584.269C1169.99 581.158 1170.41 577.529 1170.41 573.381C1170.41 563.857 1168.45 556.503 1164.53 551.319C1160.65 546.096 1154.97 543.484 1147.48 543.484C1140.45 543.484 1134.85 545.981 1130.66 550.973C1126.48 555.965 1124.38 563.435 1124.38 573.381C1124.38 585.017 1127.38 593.351 1133.37 598.382C1137.25 601.646 1141.89 603.278 1147.31 603.278C1149.35 603.278 1151.3 603.029 1153.19 602.529C1154.22 602.26 1155.55 601.78 1157.16 601.089ZM1237.81 582.656H1219.49V615.951H1202.15V531.042H1243.8C1249.75 531.157 1254.32 531.887 1257.51 533.231C1260.73 534.575 1263.46 536.553 1265.69 539.164C1267.53 541.315 1268.99 543.696 1270.07 546.307C1271.14 548.919 1271.68 551.895 1271.68 555.236C1271.68 559.268 1270.66 563.243 1268.63 567.16C1266.59 571.039 1263.23 573.785 1258.54 575.397C1262.46 576.972 1265.23 579.219 1266.84 582.137C1268.49 585.017 1269.32 589.434 1269.32 595.386V601.089C1269.32 604.968 1269.47 607.598 1269.78 608.981C1270.24 611.17 1271.31 612.783 1273 613.82V615.951H1253.48C1252.94 614.069 1252.55 612.552 1252.32 611.4C1251.86 609.019 1251.61 606.581 1251.57 604.085L1251.46 596.193C1251.38 590.778 1250.38 587.168 1248.46 585.363C1246.58 583.558 1243.03 582.656 1237.81 582.656ZM1248.58 567.218C1252.11 565.605 1253.88 562.417 1253.88 557.655C1253.88 552.509 1252.17 549.053 1248.75 547.286C1246.83 546.288 1243.95 545.789 1240.11 545.789H1219.49V568.6H1239.59C1243.59 568.6 1246.58 568.139 1248.58 567.218ZM1372.83 575.685H1356.01C1355.7 573.343 1354.92 571.231 1353.65 569.349C1351.81 566.814 1348.95 565.547 1345.07 565.547C1339.54 565.547 1335.75 568.293 1333.72 573.785C1332.64 576.703 1332.11 580.582 1332.11 585.421C1332.11 590.029 1332.64 593.735 1333.72 596.538C1335.68 601.761 1339.36 604.373 1344.78 604.373C1348.62 604.373 1351.35 603.336 1352.96 601.262C1354.57 599.188 1355.55 596.5 1355.9 593.197H1372.66C1372.28 598.19 1370.47 602.913 1367.24 607.368C1362.1 614.549 1354.48 618.14 1344.38 618.14C1334.28 618.14 1326.84 615.145 1322.08 609.154C1317.32 603.163 1314.94 595.386 1314.94 585.824C1314.94 575.033 1317.57 566.642 1322.83 560.651C1328.09 554.66 1335.35 551.664 1344.61 551.664C1352.48 551.664 1358.91 553.431 1363.9 556.964C1368.93 560.497 1371.91 566.738 1372.83 575.685ZM1436.54 561.112C1441.84 567.755 1444.49 575.609 1444.49 584.672C1444.49 593.889 1441.84 601.78 1436.54 608.347C1431.24 614.876 1423.2 618.14 1412.41 618.14C1401.62 618.14 1393.57 614.876 1388.27 608.347C1382.97 601.78 1380.32 593.889 1380.32 584.672C1380.32 575.609 1382.97 567.755 1388.27 561.112C1393.57 554.468 1401.62 551.146 1412.41 551.146C1423.2 551.146 1431.24 554.468 1436.54 561.112ZM1412.35 565.029C1407.55 565.029 1403.84 566.738 1401.23 570.155C1398.66 573.535 1397.37 578.374 1397.37 584.672C1397.37 590.97 1398.66 595.828 1401.23 599.246C1403.84 602.664 1407.55 604.373 1412.35 604.373C1417.15 604.373 1420.84 602.664 1423.41 599.246C1425.98 595.828 1427.27 590.97 1427.27 584.672C1427.27 578.374 1425.98 573.535 1423.41 570.155C1420.84 566.738 1417.15 565.029 1412.35 565.029ZM1513.45 531.157V615.951H1497.49V607.253C1495.15 610.978 1492.48 613.685 1489.48 615.375C1486.49 617.065 1482.76 617.91 1478.31 617.91C1470.97 617.91 1464.79 614.953 1459.76 609.039C1454.77 603.086 1452.27 595.463 1452.27 586.17C1452.27 575.455 1454.73 567.026 1459.64 560.881C1464.6 554.737 1471.2 551.664 1479.46 551.664C1483.26 551.664 1486.64 552.509 1489.6 554.199C1492.55 555.85 1494.95 558.154 1496.8 561.112V531.157H1513.45ZM1469.2 584.96C1469.2 590.759 1470.36 595.386 1472.66 598.843C1474.93 602.337 1478.38 604.085 1483.03 604.085C1487.68 604.085 1491.21 602.356 1493.63 598.9C1496.05 595.444 1497.26 590.97 1497.26 585.478C1497.26 577.798 1495.32 572.306 1491.44 569.003C1489.06 567.006 1486.29 566.008 1483.15 566.008C1478.34 566.008 1474.81 567.832 1472.55 571.48C1470.32 575.09 1469.2 579.583 1469.2 584.96ZM1582.17 597.518C1581.75 601.243 1579.81 605.025 1576.35 608.866C1570.97 614.972 1563.45 618.025 1553.77 618.025C1545.78 618.025 1538.73 615.452 1532.63 610.306C1526.52 605.16 1523.47 596.788 1523.47 585.19C1523.47 574.322 1526.21 565.989 1531.71 560.19C1537.24 554.391 1544.4 551.492 1553.19 551.492C1558.42 551.492 1563.12 552.471 1567.31 554.429C1571.49 556.388 1574.95 559.479 1577.67 563.704C1580.13 567.429 1581.73 571.749 1582.46 576.665C1582.88 579.545 1583.05 583.693 1582.97 589.107H1540C1540.23 595.406 1542.21 599.822 1545.93 602.356C1548.2 603.931 1550.93 604.718 1554.11 604.718C1557.49 604.718 1560.24 603.758 1562.35 601.838C1563.5 600.801 1564.52 599.361 1565.4 597.518H1582.17ZM1565.92 578.278C1565.65 573.938 1564.33 570.655 1561.95 568.427C1559.61 566.162 1556.69 565.029 1553.19 565.029C1549.39 565.029 1546.43 566.219 1544.32 568.6C1542.25 570.981 1540.94 574.207 1540.4 578.278H1565.92Z" fill="#C2C2C2"/>
<path d="M0 312C0 302.059 8.05887 294 18 294H845V705H18C8.05885 705 0 696.941 0 687V312Z" fill="#333333"/>
<path d="M2000 312C2000 302.059 1991.94 294 1982 294H1845V705H1982C1991.94 705 2000 696.941 2000 687V312Z" fill="#333333"/>
<path d="M128.947 455.695C128.102 464.643 124.799 471.633 119.039 476.663C113.278 481.656 105.617 484.152 96.0543 484.152C89.3721 484.152 83.4772 482.578 78.3696 479.429C73.3004 476.241 69.3833 471.729 66.6183 465.891C63.8532 460.054 62.4131 453.276 62.2979 445.557V437.723C62.2979 429.812 63.6996 422.842 66.5031 416.812C69.3065 410.783 73.3196 406.136 78.5424 402.872C83.8037 399.608 89.8714 397.975 96.7455 397.975C106.001 397.975 113.451 400.491 119.096 405.522C124.741 410.553 128.025 417.657 128.947 426.835H114.43C113.739 420.806 111.972 416.467 109.131 413.817C106.327 411.129 102.199 409.784 96.7455 409.784C90.409 409.784 85.5318 412.108 82.1139 416.755C78.7345 421.363 77.0063 428.141 76.9295 437.089V444.52C76.9295 453.583 78.5424 460.496 81.7683 465.258C85.0326 470.02 89.7946 472.401 96.0543 472.401C101.776 472.401 106.077 471.114 108.958 468.541C111.838 465.968 113.662 461.686 114.43 455.695H128.947ZM138.048 451.26C138.048 445.154 139.258 439.662 141.677 434.785C144.097 429.869 147.495 426.106 151.873 423.494C156.251 420.845 161.282 419.52 166.966 419.52C175.376 419.52 182.192 422.227 187.415 427.642C192.677 433.057 195.518 440.238 195.941 449.186L195.998 452.47C195.998 458.614 194.808 464.106 192.427 468.944C190.084 473.783 186.705 477.528 182.288 480.177C177.911 482.827 172.841 484.152 167.081 484.152C158.287 484.152 151.24 481.233 145.94 475.396C140.679 469.521 138.048 461.705 138.048 451.951V451.26ZM152.046 452.47C152.046 458.883 153.371 463.914 156.021 467.562C158.671 471.172 162.357 472.977 167.081 472.977C171.804 472.977 175.472 471.133 178.083 467.447C180.733 463.76 182.058 458.364 182.058 451.26C182.058 444.962 180.695 439.969 177.968 436.283C175.28 432.596 171.612 430.753 166.966 430.753C162.396 430.753 158.767 432.577 156.078 436.225C153.39 439.835 152.046 445.25 152.046 452.47ZM220.826 420.672L221.229 427.872C225.838 422.304 231.886 419.52 239.375 419.52C252.355 419.52 258.96 426.951 259.191 441.813V483H245.193V442.619C245.193 438.664 244.329 435.745 242.601 433.863C240.911 431.943 238.127 430.983 234.248 430.983C228.603 430.983 224.397 433.537 221.632 438.644V483H207.635V420.672H220.826ZM291.046 405.522V420.672H302.049V431.041H291.046V465.834C291.046 468.215 291.507 469.943 292.429 471.018C293.389 472.055 295.078 472.574 297.498 472.574C299.111 472.574 300.743 472.382 302.394 471.998V482.827C299.207 483.71 296.135 484.152 293.177 484.152C282.425 484.152 277.048 478.219 277.048 466.352V431.041H266.795V420.672H277.048V405.522H291.046ZM350.033 483C349.419 481.81 348.881 479.87 348.42 477.182C343.966 481.829 338.512 484.152 332.061 484.152C325.801 484.152 320.693 482.366 316.738 478.795C312.782 475.223 310.805 470.807 310.805 465.546C310.805 458.902 313.262 453.814 318.178 450.281C323.132 446.709 330.198 444.923 339.376 444.923H347.96V440.833C347.96 437.608 347.057 435.034 345.252 433.114C343.447 431.156 340.701 430.177 337.015 430.177C333.827 430.177 331.216 430.983 329.18 432.596C327.145 434.17 326.127 436.187 326.127 438.644H312.129C312.129 435.227 313.262 432.039 315.528 429.082C317.794 426.087 320.866 423.744 324.745 422.054C328.662 420.365 333.021 419.52 337.821 419.52C345.118 419.52 350.936 421.363 355.275 425.05C359.615 428.698 361.842 433.844 361.957 440.488V468.599C361.957 474.206 362.745 478.68 364.319 482.021V483H350.033ZM334.653 472.919C337.418 472.919 340.01 472.247 342.429 470.903C344.887 469.559 346.731 467.754 347.96 465.488V453.737H340.413C335.229 453.737 331.331 454.639 328.72 456.444C326.108 458.249 324.802 460.803 324.802 464.106C324.802 466.794 325.686 468.944 327.452 470.557C329.257 472.132 331.657 472.919 334.653 472.919ZM402.223 472.977C405.718 472.977 408.617 471.959 410.921 469.924C413.226 467.888 414.455 465.373 414.608 462.378H427.8C427.646 466.256 426.436 469.885 424.171 473.265C421.905 476.606 418.833 479.256 414.954 481.214C411.075 483.173 406.889 484.152 402.396 484.152C393.678 484.152 386.766 481.329 381.658 475.684C376.551 470.039 373.997 462.243 373.997 452.297V450.857C373.997 441.371 376.531 433.786 381.601 428.103C386.67 422.381 393.582 419.52 402.338 419.52C409.75 419.52 415.779 421.689 420.426 426.029C425.111 430.33 427.569 435.995 427.8 443.022H414.608C414.455 439.451 413.226 436.513 410.921 434.209C408.656 431.905 405.756 430.753 402.223 430.753C397.692 430.753 394.197 432.404 391.739 435.707C389.281 438.971 388.033 443.944 387.995 450.626V452.873C387.995 459.632 389.205 464.682 391.624 468.023C394.082 471.325 397.615 472.977 402.223 472.977ZM455.911 405.522V420.672H466.913V431.041H455.911V465.834C455.911 468.215 456.372 469.943 457.293 471.018C458.253 472.055 459.943 472.574 462.362 472.574C463.975 472.574 465.608 472.382 467.259 471.998V482.827C464.071 483.71 460.999 484.152 458.042 484.152C447.289 484.152 441.913 478.219 441.913 466.352V431.041H431.659V420.672H441.913V405.522H455.911ZM544.795 476.894C540.686 481.733 534.848 484.152 527.283 484.152C520.524 484.152 515.397 482.174 511.902 478.219C508.446 474.263 506.718 468.541 506.718 461.053V420.672H520.716V460.88C520.716 468.791 523.999 472.746 530.566 472.746C537.364 472.746 541.953 470.308 544.334 465.431V420.672H558.332V483H545.14L544.795 476.894ZM607.526 466.064C607.526 463.568 606.489 461.667 604.416 460.361C602.38 459.056 598.982 457.904 594.22 456.905C589.458 455.907 585.483 454.639 582.295 453.103C575.306 449.724 571.811 444.827 571.811 438.414C571.811 433.038 574.077 428.544 578.609 424.934C583.14 421.325 588.901 419.52 595.89 419.52C603.34 419.52 609.35 421.363 613.92 425.05C618.529 428.736 620.833 433.518 620.833 439.393H606.835C606.835 436.705 605.837 434.478 603.84 432.711C601.843 430.906 599.193 430.004 595.89 430.004C592.818 430.004 590.302 430.714 588.344 432.135C586.424 433.556 585.464 435.457 585.464 437.838C585.464 439.989 586.366 441.659 588.171 442.85C589.976 444.04 593.624 445.25 599.116 446.479C604.608 447.669 608.909 449.109 612.019 450.799C615.168 452.45 617.492 454.447 618.99 456.79C620.526 459.132 621.294 461.974 621.294 465.315C621.294 470.922 618.97 475.473 614.324 478.968C609.677 482.424 603.59 484.152 596.063 484.152C590.955 484.152 586.405 483.23 582.411 481.387C578.417 479.544 575.306 477.009 573.079 473.783C570.851 470.557 569.738 467.082 569.738 463.357H583.332C583.524 466.659 584.772 469.213 587.077 471.018C589.381 472.785 592.434 473.668 596.236 473.668C599.922 473.668 602.726 472.977 604.646 471.594C606.566 470.173 607.526 468.33 607.526 466.064ZM660.292 451.26C660.292 445.154 661.502 439.662 663.921 434.785C666.341 429.869 669.739 426.106 674.117 423.494C678.495 420.845 683.526 419.52 689.21 419.52C697.62 419.52 704.437 422.227 709.659 427.642C714.921 433.057 717.762 440.238 718.185 449.186L718.242 452.47C718.242 458.614 717.052 464.106 714.671 468.944C712.328 473.783 708.949 477.528 704.533 480.177C700.155 482.827 695.085 484.152 689.325 484.152C680.531 484.152 673.484 481.233 668.184 475.396C662.923 469.521 660.292 461.705 660.292 451.951V451.26ZM674.29 452.47C674.29 458.883 675.615 463.914 678.265 467.562C680.915 471.172 684.601 472.977 689.325 472.977C694.049 472.977 697.716 471.133 700.327 467.447C702.977 463.76 704.302 458.364 704.302 451.26C704.302 444.962 702.939 439.969 700.212 436.283C697.524 432.596 693.856 430.753 689.21 430.753C684.64 430.753 681.011 432.577 678.322 436.225C675.634 439.835 674.29 445.25 674.29 452.47ZM743.07 420.672L743.473 427.872C748.082 422.304 754.13 419.52 761.619 419.52C774.599 419.52 781.204 426.951 781.435 441.813V483H767.437V442.619C767.437 438.664 766.573 435.745 764.845 433.863C763.155 431.943 760.371 430.983 756.492 430.983C750.847 430.983 746.642 433.537 743.877 438.644V483H729.879V420.672H743.07Z" fill="white"/>
<path d="M362.556 608.364H400.633V620H347.982V536.128H362.556V608.364ZM425.346 620H411.348V557.672H425.346V620ZM410.484 541.485C410.484 539.334 411.156 537.548 412.5 536.128C413.882 534.707 415.841 533.996 418.375 533.996C420.91 533.996 422.869 534.707 424.251 536.128C425.634 537.548 426.325 539.334 426.325 541.485C426.325 543.597 425.634 545.364 424.251 546.784C422.869 548.167 420.91 548.858 418.375 548.858C415.841 548.858 413.882 548.167 412.5 546.784C411.156 545.364 410.484 543.597 410.484 541.485ZM453.629 557.672L454.033 564.872C458.641 559.304 464.69 556.52 472.178 556.52C485.158 556.52 491.764 563.951 491.994 578.813V620H477.996V579.619C477.996 575.664 477.132 572.745 475.404 570.863C473.714 568.943 470.93 567.983 467.051 567.983C461.406 567.983 457.201 570.537 454.436 575.644V620H440.438V557.672H453.629ZM526.557 593.271L520.336 599.666V620H506.338V531.519H520.336V582.557L524.714 577.085L541.937 557.672H558.758L535.601 583.651L561.235 620H545.048L526.557 593.271ZM594.242 621.152C585.371 621.152 578.171 618.368 572.641 612.799C567.149 607.193 564.403 599.742 564.403 590.449V588.721C564.403 582.499 565.594 576.95 567.975 572.073C570.394 567.157 573.774 563.336 578.113 560.61C582.453 557.883 587.292 556.52 592.63 556.52C601.117 556.52 607.664 559.227 612.273 564.642C616.92 570.057 619.243 577.718 619.243 587.626V593.271H578.516C578.939 598.417 580.648 602.488 583.643 605.484C586.677 608.479 590.479 609.977 595.049 609.977C601.462 609.977 606.685 607.385 610.717 602.2L618.264 609.401C615.767 613.126 612.426 616.025 608.24 618.099C604.093 620.134 599.427 621.152 594.242 621.152ZM592.572 567.753C588.732 567.753 585.621 569.097 583.24 571.785C580.897 574.473 579.4 578.217 578.747 583.018H605.418V581.981C605.111 577.296 603.862 573.763 601.673 571.382C599.484 568.962 596.451 567.753 592.572 567.753ZM627.538 588.375C627.538 578.774 629.765 571.074 634.22 565.276C638.675 559.438 644.647 556.52 652.135 556.52C658.741 556.52 664.079 558.824 668.149 563.432V531.519H682.147V620H669.474L668.783 613.548C664.597 618.617 659.009 621.152 652.02 621.152C644.723 621.152 638.809 618.214 634.278 612.339C629.785 606.463 627.538 598.475 627.538 588.375ZM641.536 589.585C641.536 595.921 642.746 600.875 645.165 604.447C647.623 607.98 651.098 609.746 655.591 609.746C661.314 609.746 665.499 607.193 668.149 602.085V575.472C665.576 570.479 661.429 567.983 655.707 567.983C651.175 567.983 647.68 569.788 645.223 573.398C642.765 576.969 641.536 582.365 641.536 589.585ZM713.484 620H698.968V536.128H713.484V620ZM743.035 557.672L743.439 564.872C748.047 559.304 754.095 556.52 761.584 556.52C774.564 556.52 781.17 563.951 781.4 578.813V620H767.402V579.619C767.402 575.664 766.538 572.745 764.81 570.863C763.12 568.943 760.336 567.983 756.457 567.983C750.812 567.983 746.607 570.537 743.842 575.644V620H729.844V557.672H743.035Z" fill="white"/>
<path d="M1956.16 445H1863.84C1858.96 445 1855 448.96 1855 453.841V546.159C1855 551.04 1858.96 555 1863.84 555H1956.16C1961.04 555 1965 551.04 1965 546.159V453.841C1965 448.96 1961.04 445 1956.16 445V445ZM1956.16 546.2C1894.59 546.186 1863.8 546.173 1863.8 546.159C1863.81 484.586 1863.83 453.8 1863.84 453.8C1925.41 453.814 1956.2 453.828 1956.2 453.841C1956.19 515.414 1956.17 546.2 1956.16 546.2ZM1871.31 486.236H1887.63V538.734H1871.31V486.236ZM1879.48 479.059C1884.69 479.059 1888.93 474.824 1888.93 469.599C1888.93 468.356 1888.69 467.126 1888.21 465.979C1887.74 464.831 1887.04 463.788 1886.16 462.91C1885.29 462.031 1884.24 461.334 1883.1 460.859C1881.95 460.383 1880.72 460.139 1879.48 460.139C1878.23 460.139 1877 460.383 1875.85 460.859C1874.71 461.334 1873.66 462.031 1872.79 462.91C1871.91 463.788 1871.21 464.831 1870.74 465.979C1870.26 467.126 1870.01 468.356 1870.01 469.599C1870 474.824 1874.24 479.059 1879.48 479.059ZM1914.17 512.76C1914.17 505.912 1915.47 499.285 1923.96 499.285C1932.32 499.285 1932.44 507.109 1932.44 513.2V538.734H1948.75V509.941C1948.75 495.806 1945.7 484.93 1929.18 484.93C1921.25 484.93 1915.93 489.289 1913.74 493.414H1913.52V486.236H1897.86V538.734H1914.17V512.76Z" fill="white"/>
</svg>
