<svg width="550" height="1000" viewBox="0 0 550 1000" fill="none" xmlns="http://www.w3.org/2000/svg">
<g clip-path="url(#clip0_237:507)">
<rect width="550" height="500" fill="#333333"/>
<rect y="500" width="550" height="500" fill="#333333"/>
<circle cx="275" cy="500" r="296" fill="white"/>
<path d="M37.9492 91.9434L35.0488 95.0195V103H30.6016V77.4062H35.0488V89.4121L37.5098 86.3711L44.998 77.4062H50.377L40.8672 88.7441L50.9219 103H45.6484L37.9492 91.9434ZM68.2715 91.5742H57.7598V99.4492H70.0469V103H53.3125V77.4062H69.9238V80.9922H57.7598V88.0586H68.2715V91.5742ZM88.627 91.5742H78.1152V99.4492H90.4023V103H73.668V77.4062H90.2793V80.9922H78.1152V88.0586H88.627V91.5742ZM98.4707 93.4902V103H94.0234V77.4062H103.814C106.674 77.4062 108.941 78.1504 110.617 79.6387C112.305 81.127 113.148 83.0957 113.148 85.5449C113.148 88.0527 112.322 90.0039 110.67 91.3984C109.029 92.793 106.727 93.4902 103.762 93.4902H98.4707ZM98.4707 89.9219H103.814C105.396 89.9219 106.604 89.5527 107.436 88.8145C108.268 88.0645 108.684 86.9863 108.684 85.5801C108.684 84.1973 108.262 83.0957 107.418 82.2754C106.574 81.4434 105.414 81.0156 103.938 80.9922H98.4707V89.9219ZM140.764 92.1543H130.463V103H126.016V77.4062H142.275V80.9922H130.463V88.6035H140.764V92.1543ZM166.234 90.8711C166.234 93.3789 165.801 95.582 164.934 97.4805C164.066 99.3672 162.824 100.82 161.207 101.84C159.602 102.848 157.75 103.352 155.652 103.352C153.578 103.352 151.727 102.848 150.098 101.84C148.48 100.82 147.227 99.373 146.336 97.498C145.457 95.623 145.012 93.4609 145 91.0117V89.5703C145 87.0742 145.439 84.8711 146.318 82.9609C147.209 81.0508 148.457 79.5918 150.062 78.584C151.68 77.5645 153.531 77.0547 155.617 77.0547C157.703 77.0547 159.549 77.5586 161.154 78.5664C162.771 79.5625 164.02 81.0039 164.898 82.8906C165.777 84.7656 166.223 86.9512 166.234 89.4473V90.8711ZM161.787 89.5352C161.787 86.6992 161.248 84.5254 160.17 83.0137C159.104 81.502 157.586 80.7461 155.617 80.7461C153.695 80.7461 152.189 81.502 151.1 83.0137C150.021 84.5137 149.471 86.6406 149.447 89.3945V90.8711C149.447 93.6836 149.992 95.8574 151.082 97.3926C152.184 98.9277 153.707 99.6953 155.652 99.6953C157.621 99.6953 159.133 98.9453 160.188 97.4453C161.254 95.9453 161.787 93.7539 161.787 90.8711V89.5352ZM175.111 99.4492H186.73V103H170.664V77.4062H175.111V99.4492ZM194.588 99.4492H206.207V103H190.141V77.4062H194.588V99.4492ZM228.918 90.8711C228.918 93.3789 228.484 95.582 227.617 97.4805C226.75 99.3672 225.508 100.82 223.891 101.84C222.285 102.848 220.434 103.352 218.336 103.352C216.262 103.352 214.41 102.848 212.781 101.84C211.164 100.82 209.91 99.373 209.02 97.498C208.141 95.623 207.695 93.4609 207.684 91.0117V89.5703C207.684 87.0742 208.123 84.8711 209.002 82.9609C209.893 81.0508 211.141 79.5918 212.746 78.584C214.363 77.5645 216.215 77.0547 218.301 77.0547C220.387 77.0547 222.232 77.5586 223.838 78.5664C225.455 79.5625 226.703 81.0039 227.582 82.8906C228.461 84.7656 228.906 86.9512 228.918 89.4473V90.8711ZM224.471 89.5352C224.471 86.6992 223.932 84.5254 222.854 83.0137C221.787 81.502 220.27 80.7461 218.301 80.7461C216.379 80.7461 214.873 81.502 213.783 83.0137C212.705 84.5137 212.154 86.6406 212.131 89.3945V90.8711C212.131 93.6836 212.676 95.8574 213.766 97.3926C214.867 98.9277 216.391 99.6953 218.336 99.6953C220.305 99.6953 221.816 98.9453 222.871 97.4453C223.938 95.9453 224.471 93.7539 224.471 90.8711V89.5352ZM253.422 96.6719L257.359 77.4062H261.771L255.865 103H251.611L246.742 84.3145L241.768 103H237.496L231.59 77.4062H236.002L239.975 96.6367L244.861 77.4062H248.588L253.422 96.6719ZM269.717 103H265.287V77.4062H269.717V103ZM295.486 103H291.039L279.631 84.8418V103H275.184V77.4062H279.631L291.074 95.6348V77.4062H295.486V103ZM320.359 99.6777C319.434 100.885 318.15 101.799 316.51 102.42C314.869 103.041 313.006 103.352 310.92 103.352C308.775 103.352 306.877 102.865 305.225 101.893C303.572 100.92 302.295 99.5312 301.393 97.7266C300.502 95.9102 300.039 93.7949 300.004 91.3809V89.377C300.004 85.5098 300.93 82.4922 302.781 80.3242C304.633 78.1445 307.217 77.0547 310.533 77.0547C313.381 77.0547 315.643 77.7578 317.318 79.1641C318.994 80.5703 320.002 82.5977 320.342 85.2461H315.982C315.49 82.1641 313.703 80.623 310.621 80.623C308.629 80.623 307.111 81.3438 306.068 82.7852C305.037 84.2148 304.504 86.3184 304.469 89.0957V91.0645C304.469 93.8301 305.049 95.9805 306.209 97.5156C307.381 99.0391 309.004 99.8008 311.078 99.8008C313.352 99.8008 314.969 99.2852 315.93 98.2539V93.2441H310.656V89.8691H320.359V99.6777ZM45.3496 134.154H35.0488V145H30.6016V119.406H46.8613V122.992H35.0488V130.604H45.3496V134.154ZM70.8203 132.871C70.8203 135.379 70.3867 137.582 69.5195 139.48C68.6523 141.367 67.4102 142.82 65.793 143.84C64.1875 144.848 62.3359 145.352 60.2383 145.352C58.1641 145.352 56.3125 144.848 54.6836 143.84C53.0664 142.82 51.8125 141.373 50.9219 139.498C50.043 137.623 49.5977 135.461 49.5859 133.012V131.57C49.5859 129.074 50.0254 126.871 50.9043 124.961C51.7949 123.051 53.043 121.592 54.6484 120.584C56.2656 119.564 58.1172 119.055 60.2031 119.055C62.2891 119.055 64.1348 119.559 65.7402 120.566C67.3574 121.562 68.6055 123.004 69.4844 124.891C70.3633 126.766 70.8086 128.951 70.8203 131.447V132.871ZM66.373 131.535C66.373 128.699 65.834 126.525 64.7559 125.014C63.6895 123.502 62.1719 122.746 60.2031 122.746C58.2812 122.746 56.7754 123.502 55.6855 125.014C54.6074 126.514 54.0566 128.641 54.0332 131.395V132.871C54.0332 135.684 54.5781 137.857 55.668 139.393C56.7695 140.928 58.293 141.695 60.2383 141.695C62.207 141.695 63.7188 140.945 64.7734 139.445C65.8398 137.945 66.373 135.754 66.373 132.871V131.535ZM84.6543 135.139H79.6973V145H75.25V119.406H84.25C87.2031 119.406 89.4824 120.068 91.0879 121.393C92.6934 122.717 93.4961 124.633 93.4961 127.141C93.4961 128.852 93.0801 130.287 92.248 131.447C91.4277 132.596 90.2793 133.48 88.8027 134.102L94.5508 144.771V145H89.7871L84.6543 135.139ZM79.6973 131.57H84.2676C85.7676 131.57 86.9395 131.195 87.7832 130.445C88.627 129.684 89.0488 128.646 89.0488 127.334C89.0488 125.963 88.6562 124.902 87.8711 124.152C87.0977 123.402 85.9375 123.016 84.3906 122.992H79.6973V131.57ZM125.4 119.406V136.51C125.4 139.229 124.527 141.385 122.781 142.979C121.047 144.561 118.732 145.352 115.838 145.352C112.908 145.352 110.582 144.572 108.859 143.014C107.137 141.443 106.275 139.27 106.275 136.492V119.406H110.705V136.527C110.705 138.238 111.139 139.545 112.006 140.447C112.873 141.35 114.15 141.801 115.838 141.801C119.26 141.801 120.971 139.996 120.971 136.387V119.406H125.4ZM134.611 135.49V145H130.164V119.406H139.955C142.814 119.406 145.082 120.15 146.758 121.639C148.445 123.127 149.289 125.096 149.289 127.545C149.289 130.053 148.463 132.004 146.811 133.398C145.17 134.793 142.867 135.49 139.902 135.49H134.611ZM134.611 131.922H139.955C141.537 131.922 142.744 131.553 143.576 130.814C144.408 130.064 144.824 128.986 144.824 127.58C144.824 126.197 144.402 125.096 143.559 124.275C142.715 123.443 141.555 123.016 140.078 122.992H134.611V131.922ZM153.191 145V119.406H160.75C163.012 119.406 165.016 119.91 166.762 120.918C168.52 121.926 169.879 123.355 170.84 125.207C171.801 127.059 172.281 129.18 172.281 131.57V132.854C172.281 135.279 171.795 137.412 170.822 139.252C169.861 141.092 168.484 142.51 166.691 143.506C164.91 144.502 162.865 145 160.557 145H153.191ZM157.639 122.992V141.449H160.539C162.871 141.449 164.658 140.723 165.9 139.27C167.154 137.805 167.793 135.707 167.816 132.977V131.553C167.816 128.775 167.213 126.654 166.006 125.189C164.799 123.725 163.047 122.992 160.75 122.992H157.639ZM190.65 139.041H180.736L178.662 145H174.039L183.707 119.406H187.697L197.383 145H192.742L190.65 139.041ZM181.984 135.455H189.402L185.693 124.838L181.984 135.455ZM216.684 122.992H208.703V145H204.291V122.992H196.381V119.406H216.684V122.992ZM235.018 133.574H224.506V141.449H236.793V145H220.059V119.406H236.67V122.992H224.506V130.059H235.018V133.574ZM253.791 138.408C253.791 137.283 253.393 136.416 252.596 135.807C251.811 135.197 250.387 134.582 248.324 133.961C246.262 133.34 244.621 132.648 243.402 131.887C241.07 130.422 239.904 128.512 239.904 126.156C239.904 124.094 240.742 122.395 242.418 121.059C244.105 119.723 246.291 119.055 248.975 119.055C250.756 119.055 252.344 119.383 253.738 120.039C255.133 120.695 256.229 121.633 257.025 122.852C257.822 124.059 258.221 125.4 258.221 126.877H253.791C253.791 125.541 253.369 124.498 252.525 123.748C251.693 122.986 250.498 122.605 248.939 122.605C247.486 122.605 246.355 122.916 245.547 123.537C244.75 124.158 244.352 125.025 244.352 126.139C244.352 127.076 244.785 127.861 245.652 128.494C246.52 129.115 247.949 129.725 249.941 130.322C251.934 130.908 253.533 131.582 254.74 132.344C255.947 133.094 256.832 133.961 257.395 134.945C257.957 135.918 258.238 137.061 258.238 138.373C258.238 140.506 257.418 142.205 255.777 143.471C254.148 144.725 251.934 145.352 249.133 145.352C247.281 145.352 245.576 145.012 244.018 144.332C242.471 143.641 241.264 142.691 240.396 141.484C239.541 140.277 239.113 138.871 239.113 137.266H243.561C243.561 138.719 244.041 139.844 245.002 140.641C245.963 141.438 247.34 141.836 249.133 141.836C250.68 141.836 251.84 141.525 252.613 140.904C253.398 140.271 253.791 139.439 253.791 138.408Z" fill="white"/>
<path d="M283.697 872.408C283.697 871.283 283.299 870.416 282.502 869.807C281.717 869.197 280.293 868.582 278.23 867.961C276.168 867.34 274.527 866.648 273.309 865.887C270.977 864.422 269.811 862.512 269.811 860.156C269.811 858.094 270.648 856.395 272.324 855.059C274.012 853.723 276.197 853.055 278.881 853.055C280.662 853.055 282.25 853.383 283.645 854.039C285.039 854.695 286.135 855.633 286.932 856.852C287.729 858.059 288.127 859.4 288.127 860.877H283.697C283.697 859.541 283.275 858.498 282.432 857.748C281.6 856.986 280.404 856.605 278.846 856.605C277.393 856.605 276.262 856.916 275.453 857.537C274.656 858.158 274.258 859.025 274.258 860.139C274.258 861.076 274.691 861.861 275.559 862.494C276.426 863.115 277.855 863.725 279.848 864.322C281.84 864.908 283.439 865.582 284.646 866.344C285.854 867.094 286.738 867.961 287.301 868.945C287.863 869.918 288.145 871.061 288.145 872.373C288.145 874.506 287.324 876.205 285.684 877.471C284.055 878.725 281.84 879.352 279.039 879.352C277.188 879.352 275.482 879.012 273.924 878.332C272.377 877.641 271.17 876.691 270.303 875.484C269.447 874.277 269.02 872.871 269.02 871.266H273.467C273.467 872.719 273.947 873.844 274.908 874.641C275.869 875.438 277.246 875.836 279.039 875.836C280.586 875.836 281.746 875.525 282.52 874.904C283.305 874.271 283.697 873.439 283.697 872.408ZM311.576 870.668C311.318 873.398 310.311 875.531 308.553 877.066C306.795 878.59 304.457 879.352 301.539 879.352C299.5 879.352 297.701 878.871 296.143 877.91C294.596 876.938 293.4 875.561 292.557 873.779C291.713 871.998 291.273 869.93 291.238 867.574V865.184C291.238 862.77 291.666 860.643 292.521 858.803C293.377 856.963 294.602 855.545 296.195 854.549C297.801 853.553 299.652 853.055 301.75 853.055C304.574 853.055 306.848 853.822 308.57 855.357C310.293 856.893 311.295 859.061 311.576 861.861H307.146C306.936 860.021 306.396 858.697 305.529 857.889C304.674 857.068 303.414 856.658 301.75 856.658C299.816 856.658 298.328 857.367 297.285 858.785C296.254 860.191 295.727 862.26 295.703 864.99V867.258C295.703 870.023 296.195 872.133 297.18 873.586C298.176 875.039 299.629 875.766 301.539 875.766C303.285 875.766 304.598 875.373 305.477 874.588C306.355 873.803 306.912 872.496 307.146 870.668H311.576ZM329.893 873.041H319.979L317.904 879H313.281L322.949 853.406H326.939L336.625 879H331.984L329.893 873.041ZM321.227 869.455H328.645L324.936 858.838L321.227 869.455ZM359.846 879H355.398L343.99 860.842V879H339.543V853.406H343.99L355.434 871.635V853.406H359.846V879ZM394.404 866.871C394.404 869.297 394.018 871.4 393.244 873.182C392.482 874.951 391.41 876.357 390.027 877.4L394.422 880.828L391.539 883.43L386.09 879.123C385.375 879.275 384.607 879.352 383.787 879.352C381.725 879.352 379.879 878.848 378.25 877.84C376.633 876.82 375.379 875.373 374.488 873.498C373.609 871.623 373.164 869.461 373.152 867.012V865.57C373.152 863.074 373.592 860.871 374.471 858.961C375.361 857.051 376.609 855.592 378.215 854.584C379.832 853.564 381.678 853.055 383.752 853.055C385.861 853.055 387.719 853.559 389.324 854.566C390.941 855.562 392.189 857.004 393.068 858.891C393.947 860.766 394.393 862.951 394.404 865.447V866.871ZM389.939 865.535C389.939 862.652 389.4 860.467 388.322 858.979C387.244 857.49 385.721 856.746 383.752 856.746C381.842 856.746 380.342 857.502 379.252 859.014C378.174 860.514 377.623 862.635 377.6 865.377V866.871C377.6 869.637 378.139 871.799 379.217 873.357C380.307 874.916 381.83 875.695 383.787 875.695C385.768 875.695 387.285 874.945 388.34 873.445C389.406 871.945 389.939 869.754 389.939 866.871V865.535ZM408.326 869.139H403.369V879H398.922V853.406H407.922C410.875 853.406 413.154 854.068 414.76 855.393C416.365 856.717 417.168 858.633 417.168 861.141C417.168 862.852 416.752 864.287 415.92 865.447C415.1 866.596 413.951 867.48 412.475 868.102L418.223 878.771V879H413.459L408.326 869.139ZM403.369 865.57H407.939C409.439 865.57 410.611 865.195 411.455 864.445C412.299 863.684 412.721 862.646 412.721 861.334C412.721 859.963 412.328 858.902 411.543 858.152C410.77 857.402 409.609 857.016 408.062 856.992H403.369V865.57ZM449.881 870.668C449.623 873.398 448.615 875.531 446.857 877.066C445.1 878.59 442.762 879.352 439.844 879.352C437.805 879.352 436.006 878.871 434.447 877.91C432.9 876.938 431.705 875.561 430.861 873.779C430.018 871.998 429.578 869.93 429.543 867.574V865.184C429.543 862.77 429.971 860.643 430.826 858.803C431.682 856.963 432.906 855.545 434.5 854.549C436.105 853.553 437.957 853.055 440.055 853.055C442.879 853.055 445.152 853.822 446.875 855.357C448.598 856.893 449.6 859.061 449.881 861.861H445.451C445.24 860.021 444.701 858.697 443.834 857.889C442.979 857.068 441.719 856.658 440.055 856.658C438.121 856.658 436.633 857.367 435.59 858.785C434.559 860.191 434.031 862.26 434.008 864.99V867.258C434.008 870.023 434.5 872.133 435.484 873.586C436.48 875.039 437.934 875.766 439.844 875.766C441.59 875.766 442.902 875.373 443.781 874.588C444.66 873.803 445.217 872.496 445.451 870.668H449.881ZM474.297 866.871C474.297 869.379 473.863 871.582 472.996 873.48C472.129 875.367 470.887 876.82 469.27 877.84C467.664 878.848 465.812 879.352 463.715 879.352C461.641 879.352 459.789 878.848 458.16 877.84C456.543 876.82 455.289 875.373 454.398 873.498C453.52 871.623 453.074 869.461 453.062 867.012V865.57C453.062 863.074 453.502 860.871 454.381 858.961C455.271 857.051 456.52 855.592 458.125 854.584C459.742 853.564 461.594 853.055 463.68 853.055C465.766 853.055 467.611 853.559 469.217 854.566C470.834 855.562 472.082 857.004 472.961 858.891C473.84 860.766 474.285 862.951 474.297 865.447V866.871ZM469.85 865.535C469.85 862.699 469.311 860.525 468.232 859.014C467.166 857.502 465.648 856.746 463.68 856.746C461.758 856.746 460.252 857.502 459.162 859.014C458.084 860.514 457.533 862.641 457.51 865.395V866.871C457.51 869.684 458.055 871.857 459.145 873.393C460.246 874.928 461.77 875.695 463.715 875.695C465.684 875.695 467.195 874.945 468.25 873.445C469.316 871.945 469.85 869.754 469.85 866.871V865.535ZM478.727 879V853.406H486.285C488.547 853.406 490.551 853.91 492.297 854.918C494.055 855.926 495.414 857.355 496.375 859.207C497.336 861.059 497.816 863.18 497.816 865.57V866.854C497.816 869.279 497.33 871.412 496.357 873.252C495.396 875.092 494.02 876.51 492.227 877.506C490.445 878.502 488.4 879 486.092 879H478.727ZM483.174 856.992V875.449H486.074C488.406 875.449 490.193 874.723 491.436 873.27C492.689 871.805 493.328 869.707 493.352 866.977V865.553C493.352 862.775 492.748 860.654 491.541 859.189C490.334 857.725 488.582 856.992 486.285 856.992H483.174ZM517.205 867.574H506.693V875.449H518.98V879H502.246V853.406H518.857V856.992H506.693V864.059H517.205V867.574ZM272.729 910.154H262.428V921H257.98V895.406H274.24V898.992H262.428V906.604H272.729V910.154ZM298.199 908.871C298.199 911.379 297.766 913.582 296.898 915.48C296.031 917.367 294.789 918.82 293.172 919.84C291.566 920.848 289.715 921.352 287.617 921.352C285.543 921.352 283.691 920.848 282.062 919.84C280.445 918.82 279.191 917.373 278.301 915.498C277.422 913.623 276.977 911.461 276.965 909.012V907.57C276.965 905.074 277.404 902.871 278.283 900.961C279.174 899.051 280.422 897.592 282.027 896.584C283.645 895.564 285.496 895.055 287.582 895.055C289.668 895.055 291.514 895.559 293.119 896.566C294.736 897.562 295.984 899.004 296.863 900.891C297.742 902.766 298.188 904.951 298.199 907.447V908.871ZM293.752 907.535C293.752 904.699 293.213 902.525 292.135 901.014C291.068 899.502 289.551 898.746 287.582 898.746C285.66 898.746 284.154 899.502 283.064 901.014C281.986 902.514 281.436 904.641 281.412 907.395V908.871C281.412 911.684 281.957 913.857 283.047 915.393C284.148 916.928 285.672 917.695 287.617 917.695C289.586 917.695 291.098 916.945 292.152 915.445C293.219 913.945 293.752 911.754 293.752 908.871V907.535ZM312.033 911.139H307.076V921H302.629V895.406H311.629C314.582 895.406 316.861 896.068 318.467 897.393C320.072 898.717 320.875 900.633 320.875 903.141C320.875 904.852 320.459 906.287 319.627 907.447C318.807 908.596 317.658 909.48 316.182 910.102L321.93 920.771V921H317.166L312.033 911.139ZM307.076 907.57H311.646C313.146 907.57 314.318 907.195 315.162 906.445C316.006 905.684 316.428 904.646 316.428 903.334C316.428 901.963 316.035 900.902 315.25 900.152C314.477 899.402 313.316 899.016 311.77 898.992H307.076V907.57ZM339.824 895.406L347.207 915.023L354.572 895.406H360.32V921H355.891V912.562L356.33 901.277L348.771 921H345.59L338.049 901.295L338.488 912.562V921H334.059V895.406H339.824ZM386.02 908.871C386.02 911.379 385.586 913.582 384.719 915.48C383.852 917.367 382.609 918.82 380.992 919.84C379.387 920.848 377.535 921.352 375.438 921.352C373.363 921.352 371.512 920.848 369.883 919.84C368.266 918.82 367.012 917.373 366.121 915.498C365.242 913.623 364.797 911.461 364.785 909.012V907.57C364.785 905.074 365.225 902.871 366.104 900.961C366.994 899.051 368.242 897.592 369.848 896.584C371.465 895.564 373.316 895.055 375.402 895.055C377.488 895.055 379.334 895.559 380.939 896.566C382.557 897.562 383.805 899.004 384.684 900.891C385.562 902.766 386.008 904.951 386.02 907.447V908.871ZM381.572 907.535C381.572 904.699 381.033 902.525 379.955 901.014C378.889 899.502 377.371 898.746 375.402 898.746C373.48 898.746 371.975 899.502 370.885 901.014C369.807 902.514 369.256 904.641 369.232 907.395V908.871C369.232 911.684 369.777 913.857 370.867 915.393C371.969 916.928 373.492 917.695 375.438 917.695C377.406 917.695 378.918 916.945 379.973 915.445C381.039 913.945 381.572 911.754 381.572 908.871V907.535ZM399.854 911.139H394.896V921H390.449V895.406H399.449C402.402 895.406 404.682 896.068 406.287 897.393C407.893 898.717 408.695 900.633 408.695 903.141C408.695 904.852 408.279 906.287 407.447 907.447C406.627 908.596 405.479 909.48 404.002 910.102L409.75 920.771V921H404.986L399.854 911.139ZM394.896 907.57H399.467C400.967 907.57 402.139 907.195 402.982 906.445C403.826 905.684 404.248 904.646 404.248 903.334C404.248 901.963 403.855 900.902 403.07 900.152C402.297 899.402 401.137 899.016 399.59 898.992H394.896V907.57ZM427.873 909.574H417.361V917.449H429.648V921H412.914V895.406H429.525V898.992H417.361V906.059H427.873V909.574ZM446.928 921H442.498V895.406H446.928V921ZM472.697 921H468.25L456.842 902.842V921H452.395V895.406H456.842L468.285 913.635V895.406H472.697V921ZM492.701 910.154H482.4V921H477.953V895.406H494.213V898.992H482.4V906.604H492.701V910.154ZM518.172 908.871C518.172 911.379 517.738 913.582 516.871 915.48C516.004 917.367 514.762 918.82 513.145 919.84C511.539 920.848 509.688 921.352 507.59 921.352C505.516 921.352 503.664 920.848 502.035 919.84C500.418 918.82 499.164 917.373 498.273 915.498C497.395 913.623 496.949 911.461 496.938 909.012V907.57C496.938 905.074 497.377 902.871 498.256 900.961C499.146 899.051 500.395 897.592 502 896.584C503.617 895.564 505.469 895.055 507.555 895.055C509.641 895.055 511.486 895.559 513.092 896.566C514.709 897.562 515.957 899.004 516.836 900.891C517.715 902.766 518.16 904.951 518.172 907.447V908.871ZM513.725 907.535C513.725 904.699 513.186 902.525 512.107 901.014C511.041 899.502 509.523 898.746 507.555 898.746C505.633 898.746 504.127 899.502 503.037 901.014C501.959 902.514 501.408 904.641 501.385 907.395V908.871C501.385 911.684 501.93 913.857 503.02 915.393C504.121 916.928 505.645 917.695 507.59 917.695C509.559 917.695 511.07 916.945 512.125 915.445C513.191 913.945 513.725 911.754 513.725 908.871V907.535Z" fill="white"/>
<path d="M136 881.4L98.2798 930L98.2798 903C33.8698 903 26.4389 850.739 28.2279 822C30.933 836.499 32.1885 859.8 98.2798 859.8L98.2798 832.8L136 881.4Z" stroke="white" stroke-width="4.16667" stroke-linecap="round" stroke-linejoin="round"/>
<path d="M412 118.6L449.72 70V97C514.13 97 521.561 149.261 519.772 178C517.067 163.501 515.811 140.2 449.72 140.2V167.2L412 118.6Z" stroke="white" stroke-width="4.16667" stroke-linecap="round" stroke-linejoin="round"/>
<rect x="67" y="292" width="415" height="415" rx="8.3" fill="white"/>
<path d="M369.951 321.051H452.951V404.051" stroke="#C2C2C2" stroke-width="16.6"/>
<path d="M179.051 321.051H96.0508V404.051" stroke="#C2C2C2" stroke-width="16.6"/>
<path d="M369.951 677.951H452.951V594.951" stroke="#C2C2C2" stroke-width="16.6"/>
<path d="M179.051 677.951H96.0508V594.951" stroke="#C2C2C2" stroke-width="16.6"/>
<path d="M175.829 465.579L168.96 445.589L161.66 465.579H175.829ZM165.757 438.875H172.687L189.104 484.121H182.389L177.8 470.569H159.905L155.007 484.121H148.724L165.757 438.875ZM197.451 468.012C197.451 471.544 198.2 474.501 199.699 476.883C201.198 479.265 203.601 480.456 206.907 480.456C209.473 480.456 211.578 479.357 213.221 477.16C214.884 474.942 215.716 471.77 215.716 467.643C215.716 463.474 214.864 460.394 213.159 458.402C211.455 456.39 209.35 455.384 206.845 455.384C204.053 455.384 201.784 456.452 200.038 458.587C198.313 460.723 197.451 463.864 197.451 468.012ZM205.798 450.548C208.324 450.548 210.439 451.082 212.143 452.15C213.129 452.766 214.248 453.844 215.5 455.384V438.721H220.829V484.121H215.839V479.532C214.545 481.565 213.016 483.033 211.25 483.936C209.484 484.84 207.461 485.292 205.182 485.292C201.506 485.292 198.324 483.751 195.634 480.671C192.944 477.571 191.599 473.454 191.599 468.32C191.599 463.515 192.821 459.357 195.264 455.846C197.728 452.314 201.239 450.548 205.798 450.548ZM232.564 468.012C232.564 471.544 233.313 474.501 234.812 476.883C236.311 479.265 238.714 480.456 242.02 480.456C244.586 480.456 246.691 479.357 248.334 477.16C249.997 474.942 250.829 471.77 250.829 467.643C250.829 463.474 249.977 460.394 248.272 458.402C246.568 456.39 244.463 455.384 241.958 455.384C239.165 455.384 236.896 456.452 235.151 458.587C233.426 460.723 232.564 463.864 232.564 468.012ZM240.911 450.548C243.436 450.548 245.551 451.082 247.256 452.15C248.241 452.766 249.361 453.844 250.613 455.384V438.721H255.942V484.121H250.952V479.532C249.658 481.565 248.128 483.033 246.363 483.936C244.597 484.84 242.574 485.292 240.295 485.292C236.619 485.292 233.436 483.751 230.747 480.671C228.057 477.571 226.712 473.454 226.712 468.32C226.712 463.515 227.933 459.357 230.377 455.846C232.841 452.314 236.352 450.548 240.911 450.548ZM302.328 451.133H308.457C307.677 453.248 305.942 458.074 303.252 465.61C301.239 471.277 299.555 475.897 298.2 479.47C294.997 487.889 292.738 493.023 291.424 494.871C290.11 496.719 287.851 497.643 284.648 497.643C283.868 497.643 283.262 497.612 282.831 497.55C282.42 497.489 281.907 497.376 281.291 497.211V492.16C282.256 492.427 282.954 492.591 283.385 492.653C283.816 492.715 284.196 492.745 284.525 492.745C285.551 492.745 286.301 492.571 286.773 492.222C287.266 491.893 287.677 491.482 288.005 490.99C288.108 490.825 288.477 489.984 289.114 488.464C289.751 486.944 290.213 485.815 290.5 485.076L278.303 451.133H284.586L293.426 477.992L302.328 451.133ZM326.352 480.548C330.028 480.548 332.543 479.162 333.898 476.39C335.274 473.597 335.962 470.497 335.962 467.088C335.962 464.008 335.469 461.503 334.484 459.573C332.923 456.534 330.233 455.014 326.414 455.014C323.026 455.014 320.562 456.308 319.022 458.895C317.482 461.483 316.712 464.604 316.712 468.259C316.712 471.77 317.482 474.696 319.022 477.037C320.562 479.378 323.005 480.548 326.352 480.548ZM326.568 450.179C330.818 450.179 334.412 451.595 337.348 454.429C340.284 457.263 341.753 461.431 341.753 466.934C341.753 472.253 340.459 476.647 337.872 480.117C335.284 483.587 331.27 485.322 325.829 485.322C321.291 485.322 317.687 483.793 315.017 480.733C312.348 477.653 311.013 473.526 311.013 468.351C311.013 462.807 312.42 458.392 315.233 455.107C318.046 451.821 321.824 450.179 326.568 450.179ZM353.919 451.133V473.033C353.919 474.717 354.186 476.092 354.72 477.16C355.705 479.131 357.543 480.117 360.233 480.117C364.093 480.117 366.722 478.392 368.118 474.942C368.878 473.094 369.258 470.558 369.258 467.335V451.133H374.802V484.121H369.566L369.627 479.255C368.909 480.507 368.015 481.565 366.948 482.427C364.833 484.152 362.266 485.014 359.247 485.014C354.545 485.014 351.342 483.443 349.638 480.302C348.714 478.618 348.252 476.37 348.252 473.556V451.133H353.919ZM383.642 451.133H388.909V456.832C389.34 455.723 390.397 454.378 392.081 452.797C393.765 451.195 395.705 450.394 397.902 450.394C398.005 450.394 398.18 450.405 398.426 450.425C398.672 450.446 399.093 450.487 399.689 450.548V456.4C399.36 456.339 399.052 456.298 398.765 456.277C398.498 456.257 398.2 456.246 397.872 456.246C395.079 456.246 392.933 457.15 391.434 458.957C389.935 460.743 389.186 462.807 389.186 465.148V484.121H383.642V451.133Z" fill="#C2C2C2"/>
<path d="M176.384 558.879C174.352 559.557 171.918 559.896 169.085 559.896C163.171 559.896 158.284 558.13 154.423 554.598C149.742 550.347 147.401 544.105 147.401 535.871C147.401 527.575 149.803 521.302 154.608 517.052C158.53 513.582 163.407 511.846 169.239 511.846C175.111 511.846 180.039 513.684 184.023 517.36C188.623 521.61 190.922 527.555 190.922 535.193C190.922 539.239 190.43 542.627 189.444 545.358C188.643 547.965 187.462 550.132 185.902 551.857L191.138 556.754L186.179 561.928L180.697 556.754C179.033 557.76 177.596 558.469 176.384 558.879ZM174.352 550.686L169.762 546.313L174.66 541.2L179.249 545.573C179.968 544.095 180.471 542.801 180.758 541.692C181.21 540.029 181.436 538.089 181.436 535.871C181.436 530.779 180.388 526.846 178.294 524.074C176.22 521.282 173.181 519.885 169.177 519.885C165.419 519.885 162.421 521.22 160.183 523.89C157.945 526.559 156.826 530.553 156.826 535.871C156.826 542.093 158.428 546.549 161.631 549.239C163.705 550.984 166.189 551.857 169.085 551.857C170.173 551.857 171.22 551.723 172.226 551.456C172.781 551.312 173.489 551.056 174.352 550.686ZM217.473 540.83H207.678V558.633H198.407V513.232H220.676C223.859 513.294 226.302 513.684 228.006 514.403C229.731 515.122 231.189 516.179 232.38 517.575C233.366 518.725 234.146 519.998 234.721 521.395C235.296 522.791 235.583 524.382 235.583 526.169C235.583 528.325 235.039 530.45 233.951 532.545C232.863 534.618 231.066 536.087 228.561 536.949C230.655 537.791 232.134 538.992 232.996 540.553C233.879 542.093 234.321 544.454 234.321 547.637V550.686C234.321 552.76 234.403 554.167 234.567 554.906C234.813 556.076 235.388 556.939 236.292 557.493V558.633H225.85C225.563 557.627 225.358 556.816 225.234 556.2C224.988 554.926 224.855 553.623 224.834 552.288L224.772 548.068C224.731 545.173 224.197 543.243 223.171 542.278C222.165 541.313 220.265 540.83 217.473 540.83ZM223.232 532.575C225.121 531.713 226.066 530.009 226.066 527.462C226.066 524.711 225.152 522.863 223.325 521.918C222.298 521.384 220.758 521.117 218.705 521.117H207.678V533.315H218.427C220.563 533.315 222.165 533.068 223.232 532.575ZM289.67 537.103H280.676C280.512 535.851 280.091 534.721 279.413 533.715C278.427 532.36 276.898 531.682 274.824 531.682C271.867 531.682 269.844 533.15 268.756 536.087C268.181 537.647 267.894 539.721 267.894 542.308C267.894 544.772 268.181 546.754 268.756 548.253C269.803 551.046 271.774 552.442 274.67 552.442C276.723 552.442 278.181 551.887 279.043 550.779C279.906 549.67 280.429 548.232 280.614 546.467H289.577C289.372 549.136 288.407 551.662 286.682 554.043C283.93 557.883 279.854 559.803 274.454 559.803C269.054 559.803 265.08 558.202 262.534 554.998C259.988 551.795 258.715 547.637 258.715 542.524C258.715 536.754 260.121 532.267 262.935 529.064C265.748 525.861 269.629 524.259 274.577 524.259C278.787 524.259 282.226 525.204 284.896 527.093C287.585 528.982 289.177 532.319 289.67 537.103ZM323.735 529.31C326.569 532.863 327.986 537.062 327.986 541.908C327.986 546.836 326.569 551.056 323.735 554.567C320.902 558.058 316.6 559.803 310.83 559.803C305.06 559.803 300.758 558.058 297.924 554.567C295.091 551.056 293.674 546.836 293.674 541.908C293.674 537.062 295.091 532.863 297.924 529.31C300.758 525.758 305.06 523.982 310.83 523.982C316.6 523.982 320.902 525.758 323.735 529.31ZM310.799 531.405C308.232 531.405 306.251 532.319 304.854 534.146C303.479 535.953 302.791 538.54 302.791 541.908C302.791 545.276 303.479 547.873 304.854 549.701C306.251 551.528 308.232 552.442 310.799 552.442C313.366 552.442 315.337 551.528 316.713 549.701C318.089 547.873 318.776 545.276 318.776 541.908C318.776 538.54 318.089 535.953 316.713 534.146C315.337 532.319 313.366 531.405 310.799 531.405ZM364.854 513.294V558.633H356.323V553.982C355.07 555.974 353.643 557.421 352.041 558.325C350.44 559.228 348.448 559.68 346.066 559.68C342.144 559.68 338.838 558.099 336.148 554.937C333.479 551.754 332.144 547.678 332.144 542.709C332.144 536.98 333.458 532.473 336.086 529.187C338.735 525.902 342.267 524.259 346.682 524.259C348.715 524.259 350.522 524.711 352.103 525.614C353.684 526.497 354.967 527.729 355.953 529.31V513.294H364.854ZM341.199 542.062C341.199 545.163 341.815 547.637 343.047 549.485C344.259 551.354 346.107 552.288 348.592 552.288C351.076 552.288 352.965 551.364 354.259 549.516C355.553 547.668 356.199 545.276 356.199 542.339C356.199 538.232 355.162 535.296 353.088 533.53C351.815 532.462 350.337 531.929 348.653 531.929C346.086 531.929 344.197 532.904 342.986 534.855C341.795 536.785 341.199 539.187 341.199 542.062ZM401.6 548.777C401.374 550.768 400.337 552.791 398.489 554.844C395.614 558.109 391.589 559.742 386.415 559.742C382.144 559.742 378.376 558.366 375.111 555.614C371.846 552.863 370.214 548.386 370.214 542.185C370.214 536.374 371.682 531.918 374.618 528.818C377.575 525.717 381.405 524.167 386.107 524.167C388.9 524.167 391.415 524.69 393.653 525.738C395.891 526.785 397.739 528.438 399.197 530.697C400.511 532.688 401.364 534.998 401.754 537.627C401.98 539.167 402.072 541.384 402.031 544.28H379.054C379.177 547.647 380.234 550.009 382.226 551.364C383.438 552.206 384.895 552.627 386.6 552.627C388.407 552.627 389.875 552.113 391.004 551.087C391.62 550.532 392.164 549.762 392.637 548.777H401.6ZM392.914 538.489C392.77 536.169 392.062 534.413 390.789 533.222C389.536 532.011 387.975 531.405 386.107 531.405C384.074 531.405 382.493 532.041 381.364 533.315C380.255 534.588 379.557 536.313 379.269 538.489H392.914Z" fill="#C2C2C2"/>
</g>
<defs>
<clipPath id="clip0_237:507">
<rect width="550" height="1000" fill="white"/>
</clipPath>
</defs>
</svg>
