<svg width="550" height="1000" viewBox="0 0 550 1000" fill="none" xmlns="http://www.w3.org/2000/svg">
<g clip-path="url(#clip0_237:478)">
<rect x="84.5" y="108.5" width="381" height="583" rx="30.5" fill="white" stroke="#333333" stroke-width="19"/>
<rect x="84.5" y="727.5" width="381" height="115" rx="30.5" fill="white" stroke="#333333" stroke-width="19"/>
<path d="M122.707 771.383H115.699V776.633H123.891V779H112.734V761.938H123.809V764.328H115.699V769.039H122.707V771.383ZM135.855 775.027H129.246L127.863 779H124.781L131.227 761.938H133.887L140.344 779H137.25L135.855 775.027ZM130.078 772.637H135.023L132.551 765.559L130.078 772.637ZM151.207 774.605C151.207 773.855 150.941 773.277 150.41 772.871C149.887 772.465 148.938 772.055 147.562 771.641C146.188 771.227 145.094 770.766 144.281 770.258C142.727 769.281 141.949 768.008 141.949 766.438C141.949 765.062 142.508 763.93 143.625 763.039C144.75 762.148 146.207 761.703 147.996 761.703C149.184 761.703 150.242 761.922 151.172 762.359C152.102 762.797 152.832 763.422 153.363 764.234C153.895 765.039 154.16 765.934 154.16 766.918H151.207C151.207 766.027 150.926 765.332 150.363 764.832C149.809 764.324 149.012 764.07 147.973 764.07C147.004 764.07 146.25 764.277 145.711 764.691C145.18 765.105 144.914 765.684 144.914 766.426C144.914 767.051 145.203 767.574 145.781 767.996C146.359 768.41 147.312 768.816 148.641 769.215C149.969 769.605 151.035 770.055 151.84 770.562C152.645 771.062 153.234 771.641 153.609 772.297C153.984 772.945 154.172 773.707 154.172 774.582C154.172 776.004 153.625 777.137 152.531 777.98C151.445 778.816 149.969 779.234 148.102 779.234C146.867 779.234 145.73 779.008 144.691 778.555C143.66 778.094 142.855 777.461 142.277 776.656C141.707 775.852 141.422 774.914 141.422 773.844H144.387C144.387 774.812 144.707 775.562 145.348 776.094C145.988 776.625 146.906 776.891 148.102 776.891C149.133 776.891 149.906 776.684 150.422 776.27C150.945 775.848 151.207 775.293 151.207 774.605ZM162.34 770.023L166.266 761.938H169.547L163.828 772.719V779H160.852V772.719L155.121 761.938H158.414L162.34 770.023ZM189 764.328H183.68V779H180.738V764.328H175.465V761.938H189V764.328ZM204.539 770.914C204.539 772.586 204.25 774.055 203.672 775.32C203.094 776.578 202.266 777.547 201.188 778.227C200.117 778.898 198.883 779.234 197.484 779.234C196.102 779.234 194.867 778.898 193.781 778.227C192.703 777.547 191.867 776.582 191.273 775.332C190.688 774.082 190.391 772.641 190.383 771.008V770.047C190.383 768.383 190.676 766.914 191.262 765.641C191.855 764.367 192.688 763.395 193.758 762.723C194.836 762.043 196.07 761.703 197.461 761.703C198.852 761.703 200.082 762.039 201.152 762.711C202.23 763.375 203.062 764.336 203.648 765.594C204.234 766.844 204.531 768.301 204.539 769.965V770.914ZM201.574 770.023C201.574 768.133 201.215 766.684 200.496 765.676C199.785 764.668 198.773 764.164 197.461 764.164C196.18 764.164 195.176 764.668 194.449 765.676C193.73 766.676 193.363 768.094 193.348 769.93V770.914C193.348 772.789 193.711 774.238 194.438 775.262C195.172 776.285 196.188 776.797 197.484 776.797C198.797 776.797 199.805 776.297 200.508 775.297C201.219 774.297 201.574 772.836 201.574 770.914V770.023ZM222.387 774.605C222.387 773.855 222.121 773.277 221.59 772.871C221.066 772.465 220.117 772.055 218.742 771.641C217.367 771.227 216.273 770.766 215.461 770.258C213.906 769.281 213.129 768.008 213.129 766.438C213.129 765.062 213.688 763.93 214.805 763.039C215.93 762.148 217.387 761.703 219.176 761.703C220.363 761.703 221.422 761.922 222.352 762.359C223.281 762.797 224.012 763.422 224.543 764.234C225.074 765.039 225.34 765.934 225.34 766.918H222.387C222.387 766.027 222.105 765.332 221.543 764.832C220.988 764.324 220.191 764.07 219.152 764.07C218.184 764.07 217.43 764.277 216.891 764.691C216.359 765.105 216.094 765.684 216.094 766.426C216.094 767.051 216.383 767.574 216.961 767.996C217.539 768.41 218.492 768.816 219.82 769.215C221.148 769.605 222.215 770.055 223.02 770.562C223.824 771.062 224.414 771.641 224.789 772.297C225.164 772.945 225.352 773.707 225.352 774.582C225.352 776.004 224.805 777.137 223.711 777.98C222.625 778.816 221.148 779.234 219.281 779.234C218.047 779.234 216.91 779.008 215.871 778.555C214.84 778.094 214.035 777.461 213.457 776.656C212.887 775.852 212.602 774.914 212.602 773.844H215.566C215.566 774.812 215.887 775.562 216.527 776.094C217.168 776.625 218.086 776.891 219.281 776.891C220.312 776.891 221.086 776.684 221.602 776.27C222.125 775.848 222.387 775.293 222.387 774.605ZM240.973 773.445C240.801 775.266 240.129 776.688 238.957 777.711C237.785 778.727 236.227 779.234 234.281 779.234C232.922 779.234 231.723 778.914 230.684 778.273C229.652 777.625 228.855 776.707 228.293 775.52C227.73 774.332 227.438 772.953 227.414 771.383V769.789C227.414 768.18 227.699 766.762 228.27 765.535C228.84 764.309 229.656 763.363 230.719 762.699C231.789 762.035 233.023 761.703 234.422 761.703C236.305 761.703 237.82 762.215 238.969 763.238C240.117 764.262 240.785 765.707 240.973 767.574H238.02C237.879 766.348 237.52 765.465 236.941 764.926C236.371 764.379 235.531 764.105 234.422 764.105C233.133 764.105 232.141 764.578 231.445 765.523C230.758 766.461 230.406 767.84 230.391 769.66V771.172C230.391 773.016 230.719 774.422 231.375 775.391C232.039 776.359 233.008 776.844 234.281 776.844C235.445 776.844 236.32 776.582 236.906 776.059C237.492 775.535 237.863 774.664 238.02 773.445H240.973ZM253.184 775.027H246.574L245.191 779H242.109L248.555 761.938H251.215L257.672 779H254.578L253.184 775.027ZM247.406 772.637H252.352L249.879 765.559L247.406 772.637ZM273.152 779H270.188L262.582 766.895V779H259.617V761.938H262.582L270.211 774.09V761.938H273.152V779ZM126.117 802.781L128.742 789.938H131.684L127.746 807H124.91L121.664 794.543L118.348 807H115.5L111.562 789.938H114.504L117.152 802.758L120.41 789.938H122.895L126.117 802.781ZM136.98 807H134.027V789.938H136.98V807ZM152.602 792.328H147.281V807H144.34V792.328H139.066V789.938H152.602V792.328ZM168.398 807H165.445V799.418H157.816V807H154.852V789.938H157.816V797.039H165.445V789.938H168.398V807ZM183.457 798.023L187.383 789.938H190.664L184.945 800.719V807H181.969V800.719L176.238 789.938H179.531L183.457 798.023ZM205.781 798.914C205.781 800.586 205.492 802.055 204.914 803.32C204.336 804.578 203.508 805.547 202.43 806.227C201.359 806.898 200.125 807.234 198.727 807.234C197.344 807.234 196.109 806.898 195.023 806.227C193.945 805.547 193.109 804.582 192.516 803.332C191.93 802.082 191.633 800.641 191.625 799.008V798.047C191.625 796.383 191.918 794.914 192.504 793.641C193.098 792.367 193.93 791.395 195 790.723C196.078 790.043 197.312 789.703 198.703 789.703C200.094 789.703 201.324 790.039 202.395 790.711C203.473 791.375 204.305 792.336 204.891 793.594C205.477 794.844 205.773 796.301 205.781 797.965V798.914ZM202.816 798.023C202.816 796.133 202.457 794.684 201.738 793.676C201.027 792.668 200.016 792.164 198.703 792.164C197.422 792.164 196.418 792.668 195.691 793.676C194.973 794.676 194.605 796.094 194.59 797.93V798.914C194.59 800.789 194.953 802.238 195.68 803.262C196.414 804.285 197.43 804.797 198.727 804.797C200.039 804.797 201.047 804.297 201.75 803.297C202.461 802.297 202.816 800.836 202.816 798.914V798.023ZM221.215 789.938V801.34C221.215 803.152 220.633 804.59 219.469 805.652C218.312 806.707 216.77 807.234 214.84 807.234C212.887 807.234 211.336 806.715 210.188 805.676C209.039 804.629 208.465 803.18 208.465 801.328V789.938H211.418V801.352C211.418 802.492 211.707 803.363 212.285 803.965C212.863 804.566 213.715 804.867 214.84 804.867C217.121 804.867 218.262 803.664 218.262 801.258V789.938H221.215ZM233.332 800.66V807H230.367V789.938H236.895C238.801 789.938 240.312 790.434 241.43 791.426C242.555 792.418 243.117 793.73 243.117 795.363C243.117 797.035 242.566 798.336 241.465 799.266C240.371 800.195 238.836 800.66 236.859 800.66H233.332ZM233.332 798.281H236.895C237.949 798.281 238.754 798.035 239.309 797.543C239.863 797.043 240.141 796.324 240.141 795.387C240.141 794.465 239.859 793.73 239.297 793.184C238.734 792.629 237.961 792.344 236.977 792.328H233.332V798.281ZM259.266 807H256.312V799.418H248.684V807H245.719V789.938H248.684V797.039H256.312V789.938H259.266V807ZM276.398 798.914C276.398 800.586 276.109 802.055 275.531 803.32C274.953 804.578 274.125 805.547 273.047 806.227C271.977 806.898 270.742 807.234 269.344 807.234C267.961 807.234 266.727 806.898 265.641 806.227C264.562 805.547 263.727 804.582 263.133 803.332C262.547 802.082 262.25 800.641 262.242 799.008V798.047C262.242 796.383 262.535 794.914 263.121 793.641C263.715 792.367 264.547 791.395 265.617 790.723C266.695 790.043 267.93 789.703 269.32 789.703C270.711 789.703 271.941 790.039 273.012 790.711C274.09 791.375 274.922 792.336 275.508 793.594C276.094 794.844 276.391 796.301 276.398 797.965V798.914ZM273.434 798.023C273.434 796.133 273.074 794.684 272.355 793.676C271.645 792.668 270.633 792.164 269.32 792.164C268.039 792.164 267.035 792.668 266.309 793.676C265.59 794.676 265.223 796.094 265.207 797.93V798.914C265.207 800.789 265.57 802.238 266.297 803.262C267.031 804.285 268.047 804.797 269.344 804.797C270.656 804.797 271.664 804.297 272.367 803.297C273.078 802.297 273.434 800.836 273.434 798.914V798.023ZM292.887 807H289.922L282.316 794.895V807H279.352V789.938H282.316L289.945 802.09V789.938H292.887V807ZM306.363 799.383H299.355V804.633H307.547V807H296.391V789.938H307.465V792.328H299.355V797.039H306.363V799.383Z" fill="black"/>
<rect x="189" y="132" width="148" height="16" rx="7" fill="#333333"/>
<circle cx="352" cy="140" r="8" fill="#333333"/>
<path d="M558.999 708.202V978C543.724 965.699 509.555 938.317 495.083 927.186C480.611 916.055 468.551 899.561 464.33 892.705C422.523 805.797 338.22 628.911 334.687 616.858C328.659 596.29 342 575.5 342 575.5C342 575.5 349.025 562.563 365.5 553.5C384.193 543.216 404.635 550.92 416.091 556.97C434.784 569.673 449.135 598.105 472.772 644.079C496.409 690.054 540.106 705.984 558.999 708.202C559.516 703.923 560.051 699.309 560.595 694.418C563.09 652.715 547.883 583.914 469 560L467.5 467.5C493.333 464.333 548.6 464.8 563 492C576.385 517.283 567.766 629.895 560.595 694.418C560.294 699.449 559.735 704.086 558.999 708.202Z" fill="white"/>
<path d="M558.999 708.202V978C543.724 965.699 509.555 938.317 495.083 927.186C480.611 916.055 468.551 899.561 464.33 892.705C422.523 805.797 338.22 628.911 334.687 616.858C328.659 596.29 342 575.5 342 575.5C342 575.5 349.025 562.563 365.5 553.5C384.193 543.216 404.635 550.92 416.091 556.97C434.784 569.673 449.135 598.105 472.772 644.079C496.409 690.054 540.106 705.984 558.999 708.202ZM558.999 708.202C565.833 669.968 557.4 586.8 469 560L467.5 467.5C493.333 464.333 548.6 464.8 563 492C577.4 519.2 566.333 647.468 558.999 708.202Z" stroke="#333333" stroke-width="17"/>
<rect x="339.5" y="752.5" width="34" height="59" rx="3.5" stroke="#333333" stroke-width="3"/>
<path d="M350 752H363V754C363 755.105 362.105 756 361 756H352C350.895 756 350 755.105 350 754V752Z" fill="#333333"/>
<circle cx="357" cy="806" r="3" fill="#333333"/>
<line x1="343.5" y1="763" x2="343.5" y2="800" stroke="#333333"/>
<line x1="369.5" y1="763" x2="369.5" y2="800" stroke="#333333"/>
<rect x="115" y="209" width="319" height="319" rx="6.38" fill="white"/>
<path d="M347.871 231.33H411.671V295.13" stroke="#C2C2C2" stroke-width="12.76"/>
<path d="M201.131 231.33H137.331V295.13" stroke="#C2C2C2" stroke-width="12.76"/>
<path d="M347.871 505.67H411.671V441.87" stroke="#C2C2C2" stroke-width="12.76"/>
<path d="M201.131 505.67H137.331V441.87" stroke="#C2C2C2" stroke-width="12.76"/>
<path d="M198.654 342.38L193.374 327.014L187.763 342.38H198.654ZM190.912 321.853H196.239L208.858 356.633H203.697L200.169 346.215H186.413L182.649 356.633H177.819L190.912 321.853ZM215.274 344.25C215.274 346.965 215.85 349.238 217.003 351.069C218.155 352.9 220.001 353.815 222.543 353.815C224.516 353.815 226.133 352.971 227.396 351.282C228.675 349.577 229.314 347.139 229.314 343.966C229.314 340.762 228.659 338.395 227.349 336.864C226.039 335.317 224.421 334.543 222.495 334.543C220.349 334.543 218.605 335.364 217.263 337.006C215.937 338.647 215.274 341.062 215.274 344.25ZM221.69 330.826C223.632 330.826 225.257 331.237 226.568 332.057C227.325 332.531 228.185 333.36 229.148 334.543V321.735H233.244V356.633H229.409V353.105C228.414 354.668 227.238 355.796 225.881 356.491C224.524 357.185 222.969 357.532 221.217 357.532C218.391 357.532 215.945 356.349 213.877 353.981C211.81 351.598 210.776 348.433 210.776 344.487C210.776 340.794 211.715 337.597 213.593 334.898C215.487 332.184 218.186 330.826 221.69 330.826ZM242.265 344.25C242.265 346.965 242.841 349.238 243.993 351.069C245.145 352.9 246.992 353.815 249.533 353.815C251.506 353.815 253.124 352.971 254.387 351.282C255.665 349.577 256.304 347.139 256.304 343.966C256.304 340.762 255.649 338.395 254.339 336.864C253.029 335.317 251.411 334.543 249.486 334.543C247.339 334.543 245.595 335.364 244.253 337.006C242.927 338.647 242.265 341.062 242.265 344.25ZM248.681 330.826C250.622 330.826 252.248 331.237 253.558 332.057C254.316 332.531 255.176 333.36 256.139 334.543V321.735H260.234V356.633H256.399V353.105C255.405 354.668 254.229 355.796 252.871 356.491C251.514 357.185 249.959 357.532 248.207 357.532C245.382 357.532 242.935 356.349 240.868 353.981C238.8 351.598 237.766 348.433 237.766 344.487C237.766 340.794 238.705 337.597 240.584 334.898C242.478 332.184 245.177 330.826 248.681 330.826ZM295.89 331.276H300.602C300.002 332.902 298.668 336.611 296.6 342.404C295.054 346.76 293.759 350.311 292.718 353.058C290.255 359.529 288.519 363.475 287.509 364.896C286.499 366.316 284.763 367.026 282.3 367.026C281.701 367.026 281.235 367.003 280.903 366.955C280.588 366.908 280.193 366.821 279.72 366.695V362.812C280.462 363.017 280.998 363.144 281.33 363.191C281.661 363.238 281.953 363.262 282.206 363.262C282.995 363.262 283.571 363.128 283.934 362.86C284.313 362.607 284.628 362.291 284.881 361.913C284.96 361.786 285.244 361.139 285.733 359.971C286.223 358.803 286.578 357.935 286.799 357.367L277.423 331.276H282.253L289.048 351.921L295.89 331.276ZM314.357 353.886C317.183 353.886 319.116 352.821 320.158 350.69C321.215 348.544 321.744 346.16 321.744 343.54C321.744 341.173 321.365 339.247 320.608 337.763C319.408 335.427 317.34 334.259 314.405 334.259C311.8 334.259 309.906 335.254 308.722 337.242C307.539 339.231 306.947 341.63 306.947 344.44C306.947 347.139 307.539 349.388 308.722 351.187C309.906 352.987 311.785 353.886 314.357 353.886ZM314.523 330.542C317.79 330.542 320.552 331.631 322.81 333.809C325.067 335.988 326.195 339.192 326.195 343.422C326.195 347.51 325.201 350.887 323.212 353.555C321.223 356.222 318.138 357.556 313.955 357.556C310.467 357.556 307.697 356.38 305.645 354.028C303.593 351.661 302.567 348.488 302.567 344.511C302.567 340.249 303.648 336.856 305.81 334.33C307.973 331.805 310.877 330.542 314.523 330.542ZM335.547 331.276V348.11C335.547 349.404 335.752 350.461 336.163 351.282C336.92 352.797 338.333 353.555 340.401 353.555C343.368 353.555 345.388 352.229 346.462 349.577C347.046 348.157 347.338 346.208 347.338 343.73V331.276H351.599V356.633H347.574L347.622 352.892C347.069 353.855 346.383 354.668 345.562 355.331C343.936 356.656 341.963 357.319 339.643 357.319C336.029 357.319 333.566 356.112 332.256 353.697C331.546 352.403 331.191 350.674 331.191 348.512V331.276H335.547ZM358.394 331.276H362.443V335.656C362.774 334.804 363.587 333.77 364.881 332.555C366.176 331.323 367.667 330.708 369.356 330.708C369.435 330.708 369.569 330.716 369.759 330.732C369.948 330.747 370.272 330.779 370.729 330.826V335.325C370.477 335.277 370.24 335.246 370.019 335.23C369.814 335.214 369.585 335.206 369.332 335.206C367.186 335.206 365.536 335.901 364.384 337.29C363.232 338.663 362.656 340.249 362.656 342.049V356.633H358.394V331.276Z" fill="#C2C2C2"/>
<path d="M199.081 414.098C197.519 414.618 195.648 414.879 193.47 414.879C188.924 414.879 185.168 413.521 182.201 410.807C178.602 407.539 176.802 402.741 176.802 396.412C176.802 390.035 178.649 385.213 182.343 381.946C185.357 379.278 189.106 377.945 193.589 377.945C198.103 377.945 201.891 379.357 204.953 382.183C208.489 385.45 210.256 390.019 210.256 395.891C210.256 399 209.878 401.605 209.12 403.704C208.504 405.708 207.597 407.374 206.397 408.7L210.422 412.464L206.61 416.442L202.396 412.464C201.118 413.237 200.013 413.782 199.081 414.098ZM197.519 407.8L193.991 404.438L197.756 400.508L201.283 403.87C201.836 402.733 202.222 401.739 202.443 400.887C202.791 399.608 202.964 398.116 202.964 396.412C202.964 392.497 202.159 389.475 200.549 387.344C198.955 385.197 196.619 384.124 193.541 384.124C190.653 384.124 188.348 385.15 186.628 387.202C184.908 389.254 184.047 392.324 184.047 396.412C184.047 401.194 185.278 404.619 187.741 406.687C189.335 408.029 191.245 408.7 193.47 408.7C194.307 408.7 195.112 408.597 195.885 408.392C196.311 408.281 196.856 408.084 197.519 407.8ZM230.665 400.224H223.136V413.908H216.01V379.01H233.127C235.574 379.057 237.452 379.357 238.762 379.91C240.088 380.462 241.209 381.275 242.124 382.348C242.882 383.232 243.481 384.211 243.923 385.284C244.365 386.357 244.586 387.581 244.586 388.954C244.586 390.611 244.168 392.245 243.331 393.855C242.495 395.449 241.114 396.578 239.188 397.24C240.798 397.888 241.935 398.811 242.597 400.011C243.276 401.194 243.616 403.009 243.616 405.456V407.8C243.616 409.394 243.679 410.475 243.805 411.043C243.994 411.943 244.436 412.606 245.131 413.032V413.908H237.105C236.884 413.135 236.726 412.511 236.631 412.038C236.442 411.059 236.339 410.057 236.323 409.031L236.276 405.787C236.244 403.562 235.834 402.078 235.045 401.336C234.272 400.595 232.811 400.224 230.665 400.224ZM235.092 393.878C236.544 393.216 237.27 391.906 237.27 389.948C237.27 387.833 236.568 386.413 235.163 385.687C234.374 385.276 233.19 385.071 231.612 385.071H223.136V394.447H231.399C233.04 394.447 234.272 394.257 235.092 393.878ZM286.161 397.359H279.248C279.121 396.396 278.798 395.528 278.277 394.754C277.519 393.713 276.343 393.192 274.749 393.192C272.476 393.192 270.922 394.32 270.085 396.578C269.643 397.777 269.422 399.371 269.422 401.36C269.422 403.254 269.643 404.777 270.085 405.929C270.89 408.076 272.405 409.149 274.631 409.149C276.209 409.149 277.33 408.723 277.993 407.871C278.656 407.019 279.058 405.914 279.2 404.556H286.09C285.932 406.608 285.19 408.55 283.864 410.381C281.749 413.332 278.616 414.808 274.465 414.808C270.314 414.808 267.26 413.577 265.303 411.114C263.345 408.652 262.367 405.456 262.367 401.526C262.367 397.091 263.448 393.642 265.61 391.179C267.773 388.717 270.756 387.486 274.56 387.486C277.795 387.486 280.439 388.212 282.491 389.664C284.559 391.116 285.782 393.681 286.161 397.359ZM312.346 391.369C314.525 394.099 315.614 397.327 315.614 401.052C315.614 404.84 314.525 408.084 312.346 410.783C310.168 413.466 306.861 414.808 302.426 414.808C297.991 414.808 294.684 413.466 292.506 410.783C290.328 408.084 289.239 404.84 289.239 401.052C289.239 397.327 290.328 394.099 292.506 391.369C294.684 388.638 297.991 387.273 302.426 387.273C306.861 387.273 310.168 388.638 312.346 391.369ZM302.403 392.979C300.43 392.979 298.906 393.681 297.833 395.086C296.776 396.475 296.247 398.464 296.247 401.052C296.247 403.641 296.776 405.637 297.833 407.042C298.906 408.447 300.43 409.149 302.403 409.149C304.375 409.149 305.891 408.447 306.948 407.042C308.006 405.637 308.535 403.641 308.535 401.052C308.535 398.464 308.006 396.475 306.948 395.086C305.891 393.681 304.375 392.979 302.403 392.979ZM343.954 379.057V413.908H337.395V410.333C336.432 411.864 335.336 412.977 334.104 413.671C332.873 414.366 331.342 414.713 329.511 414.713C326.497 414.713 323.955 413.498 321.888 411.067C319.836 408.621 318.81 405.488 318.81 401.668C318.81 397.264 319.82 393.8 321.84 391.274C323.876 388.749 326.591 387.486 329.985 387.486C331.547 387.486 332.936 387.833 334.152 388.528C335.367 389.206 336.354 390.154 337.111 391.369V379.057H343.954ZM325.771 401.171C325.771 403.554 326.244 405.456 327.191 406.876C328.122 408.313 329.543 409.031 331.453 409.031C333.363 409.031 334.815 408.321 335.809 406.9C336.803 405.48 337.301 403.641 337.301 401.384C337.301 398.227 336.504 395.97 334.909 394.612C333.931 393.792 332.794 393.381 331.5 393.381C329.527 393.381 328.075 394.131 327.144 395.631C326.228 397.114 325.771 398.961 325.771 401.171ZM372.199 406.332C372.025 407.863 371.228 409.418 369.807 410.996C367.598 413.506 364.504 414.761 360.527 414.761C357.244 414.761 354.347 413.703 351.838 411.588C349.328 409.473 348.073 406.032 348.073 401.265C348.073 396.799 349.202 393.373 351.459 390.99C353.732 388.607 356.675 387.415 360.29 387.415C362.436 387.415 364.37 387.817 366.09 388.622C367.811 389.427 369.231 390.698 370.352 392.434C371.362 393.965 372.017 395.741 372.317 397.761C372.491 398.945 372.562 400.65 372.53 402.875H354.868C354.963 405.464 355.776 407.279 357.307 408.321C358.238 408.968 359.359 409.291 360.669 409.291C362.058 409.291 363.186 408.897 364.054 408.108C364.528 407.681 364.946 407.09 365.309 406.332H372.199ZM365.522 398.424C365.412 396.641 364.867 395.291 363.889 394.376C362.926 393.444 361.726 392.979 360.29 392.979C358.727 392.979 357.512 393.468 356.644 394.447C355.791 395.425 355.255 396.751 355.034 398.424H365.522Z" fill="#C2C2C2"/>
</g>
<defs>
<clipPath id="clip0_237:478">
<rect width="550" height="1000" fill="white"/>
</clipPath>
</defs>
</svg>
