<svg width="550" height="1000" viewBox="0 0 550 1000" fill="none" xmlns="http://www.w3.org/2000/svg">
<rect x="20" y="129" width="510" height="743" rx="17" fill="#333333"/>
<path d="M57.3496 179.154H47.0488V190H42.6016V164.406H58.8613V167.992H47.0488V175.604H57.3496V179.154ZM82.8203 177.871C82.8203 180.379 82.3867 182.582 81.5195 184.48C80.6523 186.367 79.4102 187.82 77.793 188.84C76.1875 189.848 74.3359 190.352 72.2383 190.352C70.1641 190.352 68.3125 189.848 66.6836 188.84C65.0664 187.82 63.8125 186.373 62.9219 184.498C62.043 182.623 61.5977 180.461 61.5859 178.012V176.57C61.5859 174.074 62.0254 171.871 62.9043 169.961C63.7949 168.051 65.043 166.592 66.6484 165.584C68.2656 164.564 70.1172 164.055 72.2031 164.055C74.2891 164.055 76.1348 164.559 77.7402 165.566C79.3574 166.562 80.6055 168.004 81.4844 169.891C82.3633 171.766 82.8086 173.951 82.8203 176.447V177.871ZM78.373 176.535C78.373 173.699 77.834 171.525 76.7559 170.014C75.6895 168.502 74.1719 167.746 72.2031 167.746C70.2812 167.746 68.7754 168.502 67.6855 170.014C66.6074 171.514 66.0566 173.641 66.0332 176.395V177.871C66.0332 180.684 66.5781 182.857 67.668 184.393C68.7695 185.928 70.293 186.695 72.2383 186.695C74.207 186.695 75.7188 185.945 76.7734 184.445C77.8398 182.945 78.373 180.754 78.373 177.871V176.535ZM91.6973 186.449H103.316V190H87.25V164.406H91.6973V186.449ZM111.174 186.449H122.793V190H106.727V164.406H111.174V186.449ZM145.504 177.871C145.504 180.379 145.07 182.582 144.203 184.48C143.336 186.367 142.094 187.82 140.477 188.84C138.871 189.848 137.02 190.352 134.922 190.352C132.848 190.352 130.996 189.848 129.367 188.84C127.75 187.82 126.496 186.373 125.605 184.498C124.727 182.623 124.281 180.461 124.27 178.012V176.57C124.27 174.074 124.709 171.871 125.588 169.961C126.479 168.051 127.727 166.592 129.332 165.584C130.949 164.564 132.801 164.055 134.887 164.055C136.973 164.055 138.818 164.559 140.424 165.566C142.041 166.562 143.289 168.004 144.168 169.891C145.047 171.766 145.492 173.951 145.504 176.447V177.871ZM141.057 176.535C141.057 173.699 140.518 171.525 139.439 170.014C138.373 168.502 136.855 167.746 134.887 167.746C132.965 167.746 131.459 168.502 130.369 170.014C129.291 171.514 128.74 173.641 128.717 176.395V177.871C128.717 180.684 129.262 182.857 130.352 184.393C131.453 185.928 132.977 186.695 134.922 186.695C136.891 186.695 138.402 185.945 139.457 184.445C140.523 182.945 141.057 180.754 141.057 177.871V176.535ZM170.008 183.672L173.945 164.406H178.357L172.451 190H168.197L163.328 171.314L158.354 190H154.082L148.176 164.406H152.588L156.561 183.637L161.447 164.406H165.174L170.008 183.672ZM209.295 164.406V181.51C209.295 184.229 208.422 186.385 206.676 187.979C204.941 189.561 202.627 190.352 199.732 190.352C196.803 190.352 194.477 189.572 192.754 188.014C191.031 186.443 190.17 184.27 190.17 181.492V164.406H194.6V181.527C194.6 183.238 195.033 184.545 195.9 185.447C196.768 186.35 198.045 186.801 199.732 186.801C203.154 186.801 204.865 184.996 204.865 181.387V164.406H209.295ZM227.436 183.408C227.436 182.283 227.037 181.416 226.24 180.807C225.455 180.197 224.031 179.582 221.969 178.961C219.906 178.34 218.266 177.648 217.047 176.887C214.715 175.422 213.549 173.512 213.549 171.156C213.549 169.094 214.387 167.395 216.062 166.059C217.75 164.723 219.936 164.055 222.619 164.055C224.4 164.055 225.988 164.383 227.383 165.039C228.777 165.695 229.873 166.633 230.67 167.852C231.467 169.059 231.865 170.4 231.865 171.877H227.436C227.436 170.541 227.014 169.498 226.17 168.748C225.338 167.986 224.143 167.605 222.584 167.605C221.131 167.605 220 167.916 219.191 168.537C218.395 169.158 217.996 170.025 217.996 171.139C217.996 172.076 218.43 172.861 219.297 173.494C220.164 174.115 221.594 174.725 223.586 175.322C225.578 175.908 227.178 176.582 228.385 177.344C229.592 178.094 230.477 178.961 231.039 179.945C231.602 180.918 231.883 182.061 231.883 183.373C231.883 185.506 231.062 187.205 229.422 188.471C227.793 189.725 225.578 190.352 222.777 190.352C220.926 190.352 219.221 190.012 217.662 189.332C216.115 188.641 214.908 187.691 214.041 186.484C213.186 185.277 212.758 183.871 212.758 182.266H217.205C217.205 183.719 217.686 184.844 218.646 185.641C219.607 186.438 220.984 186.836 222.777 186.836C224.324 186.836 225.484 186.525 226.258 185.904C227.043 185.271 227.436 184.439 227.436 183.408Z" fill="white"/>
<path d="M314.021 352H309.592V326.406H314.021V352ZM339.791 352H335.344L323.936 333.842V352H319.488V326.406H323.936L335.379 344.635V326.406H339.791V352ZM358.424 345.408C358.424 344.283 358.025 343.416 357.229 342.807C356.443 342.197 355.02 341.582 352.957 340.961C350.895 340.34 349.254 339.648 348.035 338.887C345.703 337.422 344.537 335.512 344.537 333.156C344.537 331.094 345.375 329.395 347.051 328.059C348.738 326.723 350.924 326.055 353.607 326.055C355.389 326.055 356.977 326.383 358.371 327.039C359.766 327.695 360.861 328.633 361.658 329.852C362.455 331.059 362.854 332.4 362.854 333.877H358.424C358.424 332.541 358.002 331.498 357.158 330.748C356.326 329.986 355.131 329.605 353.572 329.605C352.119 329.605 350.988 329.916 350.18 330.537C349.383 331.158 348.984 332.025 348.984 333.139C348.984 334.076 349.418 334.861 350.285 335.494C351.152 336.115 352.582 336.725 354.574 337.322C356.566 337.908 358.166 338.582 359.373 339.344C360.58 340.094 361.465 340.961 362.027 341.945C362.59 342.918 362.871 344.061 362.871 345.373C362.871 347.506 362.051 349.205 360.41 350.471C358.781 351.725 356.566 352.352 353.766 352.352C351.914 352.352 350.209 352.012 348.65 351.332C347.104 350.641 345.896 349.691 345.029 348.484C344.174 347.277 343.746 345.871 343.746 344.266H348.193C348.193 345.719 348.674 346.844 349.635 347.641C350.596 348.438 351.973 348.836 353.766 348.836C355.312 348.836 356.473 348.525 357.246 347.904C358.031 347.271 358.424 346.439 358.424 345.408ZM385.266 329.992H377.285V352H372.873V329.992H364.963V326.406H385.266V329.992ZM400.857 346.041H390.943L388.869 352H384.246L393.914 326.406H397.904L407.59 352H402.949L400.857 346.041ZM392.191 342.455H399.609L395.9 331.838L392.191 342.455ZM429.738 348.678C428.812 349.885 427.529 350.799 425.889 351.42C424.248 352.041 422.385 352.352 420.299 352.352C418.154 352.352 416.256 351.865 414.604 350.893C412.951 349.92 411.674 348.531 410.771 346.727C409.881 344.91 409.418 342.795 409.383 340.381V338.377C409.383 334.51 410.309 331.492 412.16 329.324C414.012 327.145 416.596 326.055 419.912 326.055C422.76 326.055 425.021 326.758 426.697 328.164C428.373 329.57 429.381 331.598 429.721 334.246H425.361C424.869 331.164 423.082 329.623 420 329.623C418.008 329.623 416.49 330.344 415.447 331.785C414.416 333.215 413.883 335.318 413.848 338.096V340.064C413.848 342.83 414.428 344.98 415.588 346.516C416.76 348.039 418.383 348.801 420.457 348.801C422.73 348.801 424.348 348.285 425.309 347.254V342.244H420.035V338.869H429.738V348.678ZM444.029 342.139H439.072V352H434.625V326.406H443.625C446.578 326.406 448.857 327.068 450.463 328.393C452.068 329.717 452.871 331.633 452.871 334.141C452.871 335.852 452.455 337.287 451.623 338.447C450.803 339.596 449.654 340.48 448.178 341.102L453.926 351.771V352H449.162L444.029 342.139ZM439.072 338.57H443.643C445.143 338.57 446.314 338.195 447.158 337.445C448.002 336.684 448.424 335.646 448.424 334.334C448.424 332.963 448.031 331.902 447.246 331.152C446.473 330.402 445.312 330.016 443.766 329.992H439.072V338.57ZM471.416 346.041H461.502L459.428 352H454.805L464.473 326.406H468.463L478.148 352H473.508L471.416 346.041ZM462.75 342.455H470.168L466.459 331.838L462.75 342.455ZM486.832 326.406L494.215 346.023L501.58 326.406H507.328V352H502.898V343.562L503.338 332.277L495.779 352H492.598L485.057 332.295L485.496 343.562V352H481.066V326.406H486.832Z" fill="white"/>
<path d="M218.094 241.239C214.021 246.068 208.142 255.139 211.543 261.647C211.9 262.319 212.32 262.907 212.761 263.432C212.131 264.965 211.543 266.519 211.018 268.093C208.771 274.791 206.42 283.441 207.827 290.496C208.876 295.724 213.622 299.524 219.018 298.16C225.631 296.48 230.628 289.446 234.177 284.05C238.754 277.038 242.176 269.311 244.318 261.207C246.103 254.383 248.055 245.795 246.375 238.783C242.617 222.931 224.519 233.681 218.094 241.239ZM243.919 245.753C243.457 252.703 242.008 259.59 239.657 266.141C237.452 272.355 234.408 278.318 230.628 283.714C228.046 287.389 214.881 303.22 211.459 292.26C209.485 285.961 212.005 277.017 213.895 271.012C214.44 269.227 215.091 267.484 215.784 265.763C219.71 267.652 224.938 266.959 229.054 265.721C230.188 265.385 228.256 264.104 227.563 264.23C224.225 264.797 219.521 265.469 216.624 263.747C216.813 263.306 217.002 262.865 217.191 262.424C218.01 260.64 220.466 253.585 222.692 253.333C224.456 253.144 222.398 251.212 221.348 251.296C218.787 251.485 217.674 254.173 216.456 256.167C215.637 257.511 214.902 258.876 214.209 260.304C214.083 259.821 214.021 259.275 214 258.708C213.916 255.622 215.301 252.409 216.624 249.659C219.27 244.179 223.469 239.476 228.529 236.095C232.329 233.576 239.342 229.775 242.596 235.402C244.381 238.489 244.129 242.352 243.919 245.753ZM304.262 273.3C302.624 276.345 300.629 279.158 298.005 281.447C297.417 281.951 296.01 283.378 295.233 283.567C292.126 284.344 292.924 280.985 293.113 279.326C293.848 272.859 296.22 266.624 298.698 260.619C301.091 254.866 303.716 249.218 305.689 243.276C306.718 240.147 309.553 234.269 306.277 231.791C305.878 231.476 305.06 231.161 304.598 231.518C294.855 238.888 288.431 249.512 282.72 260.094C279.759 265.574 276.967 271.117 274.3 276.702C275.812 272.271 277.303 267.82 278.73 263.348C280.515 257.805 282.405 252.241 283.749 246.572C284.693 242.646 286.709 235.234 283.707 231.686C278.5 225.534 268.253 237.04 264.915 240.483C257.65 247.937 251.813 257.07 248.538 266.98C247.131 271.222 246.333 276.387 250.092 279.662C252.485 281.741 256.076 282.644 258.616 280.376C259.351 279.704 257.482 278.654 256.832 279.095C254.375 280.754 250.785 278.759 250.092 276.093C249.693 274.539 249.84 272.775 250.155 271.201C250.638 268.597 251.708 266.057 252.737 263.621C254.585 259.317 256.853 255.202 259.498 251.338C262.228 247.349 265.356 243.654 268.841 240.336C270.605 238.636 272.453 237.04 274.384 235.549C275.182 234.919 276.001 234.311 276.841 233.723C278.583 232.505 279.36 231.539 281.124 233.198C284.756 236.557 281.082 246.341 279.885 250.415C278.332 255.706 276.631 260.955 274.93 266.183C271.424 276.891 268.085 287.641 264.642 298.37C264.39 299.167 266.28 300.112 266.595 299.356C271.697 286.717 277.597 274.392 284.084 262.403C289.774 251.842 295.989 241.491 305.479 233.954C305.689 236.746 303.023 242.94 302.456 244.494C301.196 247.937 299.769 251.296 298.32 254.656C295.443 261.375 292.525 268.156 291.139 275.379C290.509 278.654 289.312 285.646 294.499 286.003C296.766 286.15 298.992 283.966 300.545 282.56C303.044 280.25 305.018 277.521 306.466 274.434C306.865 273.552 304.724 272.46 304.262 273.3Z" fill="white"/>
<rect x="40" y="382" width="470" height="470" rx="9.38" fill="white"/>
<path d="M383.102 414.9H477.102V508.9" stroke="#C2C2C2" stroke-width="18.76"/>
<path d="M166.9 414.9H72.9004V508.9" stroke="#C2C2C2" stroke-width="18.76"/>
<path d="M383.102 819.1H477.102V725.1" stroke="#C2C2C2" stroke-width="18.76"/>
<path d="M166.9 819.1H72.9004V725.1" stroke="#C2C2C2" stroke-width="18.76"/>
<path d="M163.489 578.205L155.726 555.615L147.477 578.205H163.489ZM152.106 548.026H159.938L178.491 599.16H170.903L165.716 583.844H145.493L139.958 599.16H132.857L152.106 548.026ZM187.924 580.955C187.924 584.947 188.771 588.288 190.465 590.98C192.159 593.672 194.874 595.018 198.611 595.018C201.511 595.018 203.89 593.776 205.746 591.293C207.626 588.787 208.566 585.202 208.566 580.538C208.566 575.827 207.603 572.346 205.677 570.095C203.751 567.821 201.372 566.684 198.541 566.684C195.385 566.684 192.821 567.89 190.848 570.304C188.899 572.717 187.924 576.268 187.924 580.955ZM197.357 561.219C200.212 561.219 202.602 561.822 204.528 563.029C205.642 563.725 206.907 564.943 208.322 566.684V547.852H214.344V599.16H208.705V593.974C207.243 596.271 205.514 597.93 203.519 598.951C201.523 599.972 199.237 600.483 196.661 600.483C192.507 600.483 188.911 598.742 185.871 595.262C182.831 591.758 181.311 587.105 181.311 581.303C181.311 575.873 182.691 571.174 185.453 567.206C188.238 563.214 192.206 561.219 197.357 561.219ZM227.606 580.955C227.606 584.947 228.453 588.288 230.147 590.98C231.841 593.672 234.556 595.018 238.292 595.018C241.193 595.018 243.572 593.776 245.428 591.293C247.308 588.787 248.248 585.202 248.248 580.538C248.248 575.827 247.285 572.346 245.358 570.095C243.432 567.821 241.054 566.684 238.223 566.684C235.067 566.684 232.503 567.89 230.53 570.304C228.581 572.717 227.606 576.268 227.606 580.955ZM237.039 561.219C239.894 561.219 242.284 561.822 244.21 563.029C245.324 563.725 246.588 564.943 248.004 566.684V547.852H254.026V599.16H248.387V593.974C246.925 596.271 245.196 597.93 243.2 598.951C241.205 599.972 238.919 600.483 236.343 600.483C232.189 600.483 228.592 598.742 225.552 595.262C222.512 591.758 220.992 587.105 220.992 581.303C220.992 575.873 222.373 571.174 225.135 567.206C227.919 563.214 231.888 561.219 237.039 561.219ZM306.448 561.88H313.374C312.493 564.27 310.532 569.724 307.492 578.24C305.218 584.645 303.315 589.866 301.783 593.904C298.163 603.418 295.61 609.22 294.125 611.308C292.64 613.397 290.088 614.441 286.467 614.441C285.586 614.441 284.901 614.406 284.414 614.337C283.95 614.267 283.369 614.139 282.673 613.954V608.245C283.764 608.547 284.553 608.733 285.04 608.802C285.528 608.872 285.957 608.907 286.328 608.907C287.488 608.907 288.335 608.709 288.869 608.315C289.426 607.944 289.89 607.479 290.262 606.922C290.378 606.737 290.795 605.785 291.515 604.068C292.234 602.351 292.756 601.075 293.081 600.239L279.297 561.88H286.398L296.388 592.233L306.448 561.88ZM333.598 595.122C337.752 595.122 340.595 593.556 342.126 590.423C343.681 587.267 344.459 583.763 344.459 579.911C344.459 576.43 343.902 573.599 342.788 571.418C341.024 567.983 337.984 566.266 333.668 566.266C329.839 566.266 327.054 567.728 325.314 570.652C323.573 573.576 322.703 577.103 322.703 581.234C322.703 585.202 323.573 588.509 325.314 591.154C327.054 593.8 329.816 595.122 333.598 595.122ZM333.842 560.801C338.646 560.801 342.707 562.402 346.025 565.605C349.343 568.807 351.003 573.518 351.003 579.737C351.003 585.747 349.541 590.713 346.617 594.635C343.693 598.557 339.156 600.518 333.007 600.518C327.878 600.518 323.805 598.789 320.789 595.331C317.772 591.85 316.264 587.186 316.264 581.338C316.264 575.073 317.853 570.083 321.032 566.37C324.212 562.658 328.481 560.801 333.842 560.801ZM364.752 561.88V586.629C364.752 588.532 365.054 590.087 365.657 591.293C366.771 593.521 368.848 594.635 371.888 594.635C376.25 594.635 379.221 592.686 380.799 588.787C381.657 586.699 382.087 583.833 382.087 580.189V561.88H388.352V599.16H382.435L382.504 593.66C381.692 595.076 380.683 596.271 379.476 597.246C377.086 599.195 374.185 600.17 370.774 600.17C365.46 600.17 361.84 598.394 359.914 594.844C358.869 592.941 358.347 590.4 358.347 587.221V561.88H364.752ZM398.342 561.88H404.294V568.32C404.782 567.067 405.977 565.547 407.88 563.76C409.783 561.95 411.976 561.045 414.459 561.045C414.575 561.045 414.772 561.056 415.05 561.08C415.329 561.103 415.805 561.149 416.477 561.219V567.832C416.106 567.763 415.758 567.716 415.433 567.693C415.132 567.67 414.795 567.658 414.424 567.658C411.268 567.658 408.843 568.679 407.149 570.722C405.455 572.74 404.608 575.073 404.608 577.718V599.16H398.342V561.88Z" fill="#C2C2C2"/>
<path d="M164.117 683.827C161.82 684.593 159.07 684.976 155.867 684.976C149.184 684.976 143.661 682.98 139.299 678.989C134.008 674.185 131.362 667.131 131.362 657.825C131.362 648.45 134.077 641.361 139.507 636.557C143.94 632.635 149.451 630.675 156.041 630.675C162.678 630.675 168.248 632.751 172.75 636.905C177.948 641.709 180.547 648.427 180.547 657.059C180.547 661.631 179.99 665.46 178.876 668.546C177.971 671.493 176.637 673.942 174.873 675.891L180.79 681.426L175.186 687.273L168.99 681.426C167.111 682.563 165.486 683.363 164.117 683.827ZM161.82 674.568L156.633 669.625L162.168 663.847L167.354 668.79C168.166 667.119 168.735 665.657 169.06 664.404C169.57 662.524 169.826 660.331 169.826 657.825C169.826 652.07 168.642 647.626 166.275 644.494C163.931 641.338 160.497 639.76 155.972 639.76C151.725 639.76 148.337 641.268 145.808 644.285C143.278 647.301 142.014 651.815 142.014 657.825C142.014 664.857 143.824 669.892 147.444 672.932C149.788 674.905 152.595 675.891 155.867 675.891C157.097 675.891 158.281 675.74 159.418 675.438C160.044 675.276 160.845 674.986 161.82 674.568ZM210.552 663.429H199.483V683.549H189.005V632.241H214.172C217.769 632.311 220.53 632.751 222.456 633.564C224.406 634.376 226.053 635.571 227.399 637.149C228.513 638.448 229.395 639.887 230.045 641.465C230.694 643.043 231.019 644.842 231.019 646.861C231.019 649.297 230.404 651.699 229.174 654.066C227.944 656.41 225.914 658.069 223.083 659.044C225.45 659.995 227.121 661.353 228.095 663.116C229.093 664.857 229.592 667.525 229.592 671.122V674.568C229.592 676.912 229.685 678.502 229.87 679.337C230.149 680.66 230.799 681.634 231.82 682.261V683.549H220.02C219.695 682.412 219.463 681.495 219.323 680.799C219.045 679.36 218.894 677.887 218.871 676.378L218.801 671.609C218.755 668.337 218.152 666.156 216.991 665.065C215.854 663.975 213.708 663.429 210.552 663.429ZM217.061 654.101C219.196 653.126 220.263 651.2 220.263 648.323C220.263 645.213 219.231 643.124 217.165 642.057C216.005 641.454 214.265 641.152 211.944 641.152H199.483V654.936H211.631C214.044 654.936 215.854 654.658 217.061 654.101ZM292.143 659.218H281.979C281.793 657.802 281.318 656.526 280.552 655.389C279.438 653.857 277.709 653.091 275.365 653.091C272.024 653.091 269.738 654.751 268.508 658.069C267.858 659.833 267.533 662.176 267.533 665.1C267.533 667.885 267.858 670.124 268.508 671.818C269.692 674.974 271.919 676.552 275.191 676.552C277.512 676.552 279.159 675.926 280.134 674.673C281.109 673.42 281.7 671.795 281.909 669.799H292.039C291.807 672.816 290.716 675.67 288.767 678.362C285.657 682.702 281.051 684.872 274.948 684.872C268.845 684.872 264.354 683.062 261.477 679.441C258.599 675.821 257.16 671.122 257.16 665.344C257.16 658.823 258.75 653.753 261.929 650.133C265.108 646.512 269.494 644.702 275.087 644.702C279.844 644.702 283.731 645.77 286.748 647.905C289.788 650.04 291.586 653.811 292.143 659.218ZM330.641 650.411C333.844 654.426 335.445 659.171 335.445 664.648C335.445 670.217 333.844 674.986 330.641 678.954C327.439 682.899 322.577 684.872 316.057 684.872C309.536 684.872 304.674 682.899 301.472 678.954C298.269 674.986 296.668 670.217 296.668 664.648C296.668 659.171 298.269 654.426 301.472 650.411C304.674 646.396 309.536 644.389 316.057 644.389C322.577 644.389 327.439 646.396 330.641 650.411ZM316.022 652.778C313.121 652.778 310.882 653.811 309.304 655.876C307.749 657.918 306.972 660.842 306.972 664.648C306.972 668.454 307.749 671.389 309.304 673.454C310.882 675.52 313.121 676.552 316.022 676.552C318.922 676.552 321.15 675.52 322.705 673.454C324.26 671.389 325.037 668.454 325.037 664.648C325.037 660.842 324.26 657.918 322.705 655.876C321.15 653.811 318.922 652.778 316.022 652.778ZM377.111 632.311V683.549H367.469V678.293C366.053 680.544 364.441 682.18 362.63 683.201C360.82 684.222 358.569 684.732 355.878 684.732C351.445 684.732 347.709 682.945 344.669 679.372C341.652 675.775 340.144 671.169 340.144 665.553C340.144 659.078 341.629 653.985 344.6 650.272C347.593 646.559 351.585 644.702 356.574 644.702C358.871 644.702 360.913 645.213 362.7 646.234C364.487 647.232 365.937 648.624 367.051 650.411V632.311H377.111ZM350.378 664.822C350.378 668.326 351.074 671.122 352.466 673.211C353.835 675.322 355.924 676.378 358.732 676.378C361.54 676.378 363.675 675.334 365.137 673.245C366.599 671.157 367.33 668.454 367.33 665.135C367.33 660.494 366.158 657.176 363.814 655.18C362.375 653.973 360.704 653.37 358.802 653.37C355.901 653.37 353.766 654.472 352.397 656.677C351.051 658.858 350.378 661.573 350.378 664.822ZM418.637 672.41C418.382 674.661 417.21 676.947 415.122 679.267C411.873 682.957 407.325 684.802 401.477 684.802C396.65 684.802 392.392 683.247 388.702 680.138C385.012 677.028 383.168 671.969 383.168 664.961C383.168 658.394 384.827 653.358 388.145 649.854C391.487 646.35 395.815 644.598 401.129 644.598C404.285 644.598 407.127 645.19 409.657 646.373C412.186 647.557 414.275 649.425 415.922 651.977C417.408 654.228 418.371 656.839 418.812 659.809C419.067 661.55 419.171 664.056 419.125 667.328H393.158C393.297 671.134 394.492 673.802 396.743 675.334C398.112 676.285 399.76 676.761 401.686 676.761C403.728 676.761 405.387 676.181 406.663 675.021C407.359 674.394 407.974 673.524 408.508 672.41H418.637ZM408.821 660.784C408.659 658.162 407.858 656.178 406.42 654.832C405.004 653.463 403.24 652.778 401.129 652.778C398.831 652.778 397.045 653.497 395.768 654.936C394.515 656.375 393.726 658.324 393.401 660.784H408.821Z" fill="#C2C2C2"/>
</svg>
