<svg width="1000" height="1000" viewBox="0 0 1000 1000" fill="none" xmlns="http://www.w3.org/2000/svg">
<circle cx="500.5" cy="362.5" r="337.5" fill="white" stroke="#333333" stroke-width="50"/>
<rect x="453" y="717" width="95" height="162" fill="#333333"/>
<rect x="274" y="137" width="451" height="451" rx="20.3459" fill="white"/>
<path d="M597.902 181.266H683.486V266.849" stroke="#C2C2C2" stroke-width="16.2621"/>
<path d="M401.059 181.266H315.475V266.849" stroke="#C2C2C2" stroke-width="16.2621"/>
<path d="M597.902 549.27H683.486V463.686" stroke="#C2C2C2" stroke-width="16.2621"/>
<path d="M401.059 549.27H315.475V463.686" stroke="#C2C2C2" stroke-width="16.2621"/>
<path d="M402.82 328.497L396.091 308.915L388.94 328.497H402.82ZM392.953 302.337H399.742L415.825 346.662H409.247L404.751 333.386H387.22L382.422 346.662H376.267L392.953 302.337ZM424.002 330.881C424.002 334.341 424.736 337.238 426.204 339.571C427.673 341.905 430.026 343.071 433.265 343.071C435.78 343.071 437.841 341.995 439.451 339.843C441.08 337.67 441.895 334.562 441.895 330.519C441.895 326.436 441.06 323.418 439.39 321.467C437.721 319.496 435.659 318.51 433.205 318.51C430.469 318.51 428.246 319.556 426.536 321.648C424.847 323.74 424.002 326.818 424.002 330.881ZM432.179 313.773C434.653 313.773 436.725 314.296 438.395 315.342C439.36 315.945 440.457 317.001 441.684 318.51V302.186H446.904V346.662H442.016V342.166C440.748 344.158 439.25 345.596 437.52 346.481C435.79 347.366 433.808 347.809 431.575 347.809C427.975 347.809 424.857 346.3 422.221 343.283C419.586 340.245 418.269 336.212 418.269 331.183C418.269 326.476 419.466 322.402 421.859 318.962C424.273 315.503 427.713 313.773 432.179 313.773ZM458.4 330.881C458.4 334.341 459.134 337.238 460.603 339.571C462.071 341.905 464.425 343.071 467.663 343.071C470.178 343.071 472.24 341.995 473.849 339.843C475.478 337.67 476.293 334.562 476.293 330.519C476.293 326.436 475.458 323.418 473.789 321.467C472.119 319.496 470.057 318.51 467.603 318.51C464.867 318.51 462.644 319.556 460.935 321.648C459.245 323.74 458.4 326.818 458.4 330.881ZM466.577 313.773C469.051 313.773 471.123 314.296 472.793 315.342C473.758 315.945 474.855 317.001 476.082 318.51V302.186H481.302V346.662H476.414V342.166C475.146 344.158 473.648 345.596 471.918 346.481C470.188 347.366 468.206 347.809 465.974 347.809C462.373 347.809 459.255 346.3 456.62 343.283C453.984 340.245 452.667 336.212 452.667 331.183C452.667 326.476 453.864 322.402 456.258 318.962C458.671 315.503 462.111 313.773 466.577 313.773ZM526.744 314.346H532.748C531.984 316.418 530.284 321.145 527.649 328.528C525.678 334.08 524.028 338.606 522.7 342.106C519.562 350.353 517.35 355.382 516.062 357.193C514.775 359.003 512.562 359.908 509.424 359.908C508.66 359.908 508.066 359.878 507.644 359.818C507.241 359.758 506.738 359.647 506.135 359.486V354.537C507.08 354.799 507.764 354.96 508.187 355.02C508.609 355.081 508.981 355.111 509.303 355.111C510.309 355.111 511.043 354.94 511.506 354.598C511.989 354.276 512.391 353.874 512.713 353.391C512.813 353.23 513.176 352.405 513.799 350.917C514.423 349.428 514.875 348.322 515.157 347.597L503.208 314.346H509.364L518.024 340.658L526.744 314.346ZM550.279 343.162C553.88 343.162 556.344 341.804 557.672 339.088C559.02 336.353 559.694 333.315 559.694 329.976C559.694 326.959 559.211 324.504 558.245 322.614C556.716 319.636 554.081 318.148 550.34 318.148C547.021 318.148 544.607 319.415 543.098 321.95C541.589 324.484 540.835 327.542 540.835 331.123C540.835 334.562 541.589 337.429 543.098 339.722C544.607 342.015 547 343.162 550.279 343.162ZM550.491 313.41C554.655 313.41 558.175 314.798 561.051 317.574C563.928 320.35 565.366 324.434 565.366 329.825C565.366 335.035 564.099 339.34 561.564 342.74C559.03 346.139 555.097 347.839 549.766 347.839C545.321 347.839 541.79 346.34 539.175 343.343C536.56 340.326 535.253 336.282 535.253 331.213C535.253 325.782 536.631 321.457 539.387 318.238C542.142 315.02 545.844 313.41 550.491 313.41ZM577.285 314.346V335.8C577.285 337.449 577.547 338.797 578.07 339.843C579.035 341.774 580.836 342.74 583.471 342.74C587.252 342.74 589.827 341.05 591.195 337.67C591.939 335.86 592.312 333.376 592.312 330.217V314.346H597.743V346.662H592.613L592.674 341.895C591.97 343.122 591.095 344.158 590.049 345.003C587.977 346.692 585.462 347.537 582.505 347.537C577.899 347.537 574.76 345.998 573.091 342.921C572.186 341.271 571.733 339.068 571.733 336.312V314.346H577.285ZM606.403 314.346H611.563V319.928C611.985 318.842 613.021 317.524 614.67 315.975C616.32 314.406 618.221 313.622 620.373 313.622C620.474 313.622 620.645 313.632 620.886 313.652C621.128 313.672 621.54 313.712 622.123 313.773V319.506C621.802 319.445 621.5 319.405 621.218 319.385C620.957 319.365 620.665 319.355 620.343 319.355C617.607 319.355 615.505 320.24 614.037 322.01C612.568 323.76 611.834 325.782 611.834 328.075V346.662H606.403V314.346Z" fill="#C2C2C2"/>
<path d="M403.363 423.739C401.372 424.403 398.988 424.735 396.212 424.735C390.419 424.735 385.631 423.005 381.849 419.545C377.263 415.381 374.97 409.266 374.97 401.2C374.97 393.073 377.323 386.927 382.03 382.763C385.872 379.364 390.65 377.664 396.363 377.664C402.116 377.664 406.944 379.464 410.846 383.065C415.352 387.229 417.605 393.053 417.605 400.536C417.605 404.499 417.122 407.818 416.157 410.493C415.372 413.048 414.216 415.17 412.687 416.86L417.816 421.657L412.958 426.727L407.587 421.657C405.958 422.643 404.55 423.337 403.363 423.739ZM401.372 415.713L396.876 411.428L401.673 406.42L406.169 410.704C406.873 409.256 407.366 407.989 407.648 406.902C408.09 405.273 408.312 403.372 408.312 401.2C408.312 396.211 407.286 392.359 405.234 389.643C403.202 386.907 400.225 385.539 396.302 385.539C392.621 385.539 389.684 386.847 387.492 389.462C385.299 392.077 384.203 395.99 384.203 401.2C384.203 407.295 385.772 411.66 388.91 414.295C390.942 416.005 393.376 416.86 396.212 416.86C397.278 416.86 398.304 416.729 399.29 416.468C399.833 416.327 400.527 416.075 401.372 415.713ZM443.615 406.058H434.02V423.498H424.937V379.022H446.753C449.871 379.082 452.265 379.464 453.935 380.168C455.624 380.872 457.053 381.908 458.219 383.276C459.185 384.403 459.949 385.65 460.512 387.018C461.076 388.386 461.357 389.945 461.357 391.695C461.357 393.807 460.824 395.889 459.758 397.941C458.692 399.972 456.932 401.411 454.478 402.256C456.53 403.08 457.978 404.257 458.823 405.786C459.688 407.295 460.12 409.608 460.12 412.726V415.713C460.12 417.745 460.201 419.123 460.362 419.847C460.603 420.994 461.166 421.838 462.051 422.382V423.498H451.822C451.541 422.512 451.34 421.718 451.219 421.114C450.978 419.867 450.847 418.59 450.827 417.282L450.766 413.148C450.726 410.312 450.203 408.421 449.197 407.476C448.212 406.53 446.351 406.058 443.615 406.058ZM449.258 397.971C451.108 397.126 452.034 395.456 452.034 392.962C452.034 390.267 451.138 388.456 449.348 387.531C448.342 387.008 446.834 386.746 444.822 386.746H434.02V398.695H444.551C446.643 398.695 448.212 398.454 449.258 397.971ZM514.343 402.407H505.532C505.371 401.179 504.959 400.073 504.295 399.087C503.329 397.76 501.831 397.096 499.799 397.096C496.902 397.096 494.921 398.534 493.855 401.411C493.291 402.94 493.01 404.971 493.01 407.506C493.01 409.92 493.291 411.861 493.855 413.329C494.881 416.065 496.812 417.433 499.648 417.433C501.66 417.433 503.088 416.89 503.933 415.804C504.778 414.717 505.291 413.309 505.472 411.579H514.252C514.051 414.194 513.106 416.669 511.416 419.002C508.72 422.764 504.727 424.645 499.437 424.645C494.146 424.645 490.254 423.076 487.76 419.938C485.265 416.799 484.018 412.726 484.018 407.717C484.018 402.065 485.396 397.669 488.152 394.531C490.908 391.393 494.71 389.824 499.557 389.824C503.681 389.824 507.051 390.749 509.666 392.6C512.301 394.451 513.86 397.719 514.343 402.407ZM547.715 394.773C550.491 398.253 551.879 402.366 551.879 407.114C551.879 411.941 550.491 416.075 547.715 419.515C544.939 422.935 540.725 424.645 535.072 424.645C529.42 424.645 525.205 422.935 522.429 419.515C519.653 416.075 518.265 411.941 518.265 407.114C518.265 402.366 519.653 398.253 522.429 394.773C525.205 391.292 529.42 389.552 535.072 389.552C540.725 389.552 544.939 391.292 547.715 394.773ZM535.042 396.824C532.527 396.824 530.586 397.719 529.218 399.51C527.871 401.28 527.197 403.815 527.197 407.114C527.197 410.413 527.871 412.957 529.218 414.748C530.586 416.538 532.527 417.433 535.042 417.433C537.556 417.433 539.488 416.538 540.835 414.748C542.183 412.957 542.857 410.413 542.857 407.114C542.857 403.815 542.183 401.28 540.835 399.51C539.488 397.719 537.556 396.824 535.042 396.824ZM587.997 379.082V423.498H579.639V418.942C578.412 420.893 577.014 422.311 575.445 423.196C573.876 424.081 571.925 424.524 569.591 424.524C565.749 424.524 562.51 422.975 559.875 419.877C557.26 416.759 555.952 412.766 555.952 407.898C555.952 402.286 557.24 397.87 559.815 394.652C562.41 391.433 565.87 389.824 570.195 389.824C572.186 389.824 573.956 390.267 575.505 391.152C577.054 392.017 578.311 393.224 579.277 394.773V379.082H587.997ZM564.824 407.264C564.824 410.302 565.427 412.726 566.634 414.536C567.821 416.367 569.631 417.282 572.065 417.282C574.499 417.282 576.35 416.377 577.617 414.567C578.885 412.756 579.518 410.413 579.518 407.536C579.518 403.513 578.502 400.636 576.471 398.906C575.224 397.86 573.775 397.337 572.126 397.337C569.611 397.337 567.761 398.293 566.574 400.204C565.407 402.095 564.824 404.448 564.824 407.264ZM623.995 413.842C623.773 415.794 622.757 417.775 620.947 419.787C618.131 422.985 614.188 424.584 609.119 424.584C604.935 424.584 601.243 423.237 598.045 420.541C594.847 417.845 593.247 413.46 593.247 407.385C593.247 401.692 594.686 397.327 597.562 394.29C600.459 391.252 604.211 389.733 608.817 389.733C611.553 389.733 614.017 390.246 616.21 391.272C618.402 392.298 620.213 393.918 621.641 396.13C622.928 398.082 623.763 400.345 624.145 402.919C624.367 404.428 624.457 406.601 624.417 409.437H601.907C602.028 412.736 603.064 415.049 605.015 416.377C606.202 417.202 607.63 417.614 609.3 417.614C611.07 417.614 612.508 417.111 613.615 416.105C614.218 415.562 614.751 414.808 615.214 413.842H623.995ZM615.486 403.764C615.345 401.491 614.651 399.771 613.404 398.605C612.176 397.418 610.648 396.824 608.817 396.824C606.826 396.824 605.277 397.448 604.17 398.695C603.084 399.942 602.4 401.632 602.119 403.764H615.486Z" fill="#C2C2C2"/>
<rect x="164" y="879" width="673" height="121" rx="17" fill="#333333"/>
<path d="M236.269 941.147H219.304V959H213.973V918.574H239.018V922.961H219.304V936.788H236.269V941.147ZM250.179 959H245.043V928.958H250.179V959ZM244.626 920.989C244.626 920.156 244.876 919.453 245.376 918.879C245.894 918.305 246.653 918.018 247.653 918.018C248.652 918.018 249.411 918.305 249.929 918.879C250.448 919.453 250.707 920.156 250.707 920.989C250.707 921.822 250.448 922.516 249.929 923.072C249.411 923.627 248.652 923.905 247.653 923.905C246.653 923.905 245.894 923.627 245.376 923.072C244.876 922.516 244.626 921.822 244.626 920.989ZM263.284 928.958L263.451 932.734C265.746 929.846 268.745 928.403 272.447 928.403C278.796 928.403 281.998 931.984 282.054 939.148V959H276.917V939.12C276.899 936.954 276.399 935.353 275.418 934.317C274.455 933.28 272.947 932.762 270.892 932.762C269.226 932.762 267.764 933.206 266.505 934.095C265.246 934.983 264.265 936.149 263.562 937.593V959H258.425V928.958H263.284ZM288.551 943.729C288.551 939.12 289.643 935.418 291.827 932.623C294.011 929.809 296.871 928.403 300.407 928.403C303.924 928.403 306.709 929.606 308.764 932.012V916.352H313.901V959H309.18L308.931 955.779C306.876 958.297 304.016 959.555 300.351 959.555C296.871 959.555 294.03 958.13 291.827 955.279C289.643 952.429 288.551 948.708 288.551 944.118V943.729ZM293.687 944.312C293.687 947.718 294.391 950.383 295.798 952.309C297.204 954.234 299.148 955.196 301.628 955.196C304.886 955.196 307.265 953.734 308.764 950.809V937.01C307.228 934.178 304.868 932.762 301.684 932.762C299.166 932.762 297.204 933.734 295.798 935.677C294.391 937.621 293.687 940.499 293.687 944.312ZM354.549 956.029C352.55 958.38 349.616 959.555 345.747 959.555C342.545 959.555 340.102 958.63 338.417 956.779C336.751 954.909 335.909 952.151 335.891 948.505V928.958H341.027V948.366C341.027 952.919 342.878 955.196 346.58 955.196C350.505 955.196 353.114 953.734 354.41 950.809V928.958H359.547V959H354.66L354.549 956.029ZM384.869 951.031C384.869 949.643 384.341 948.569 383.286 947.811C382.25 947.033 380.426 946.367 377.816 945.811C375.225 945.256 373.161 944.59 371.625 943.812C370.107 943.035 368.978 942.109 368.237 941.036C367.515 939.962 367.154 938.685 367.154 937.204C367.154 934.742 368.191 932.66 370.264 930.957C372.356 929.254 375.021 928.403 378.261 928.403C381.666 928.403 384.425 929.282 386.535 931.04C388.663 932.799 389.728 935.048 389.728 937.787H384.563C384.563 936.381 383.962 935.168 382.759 934.15C381.574 933.132 380.075 932.623 378.261 932.623C376.391 932.623 374.929 933.03 373.874 933.845C372.819 934.659 372.291 935.723 372.291 937.038C372.291 938.278 372.782 939.213 373.763 939.842C374.744 940.471 376.511 941.073 379.066 941.647C381.639 942.22 383.721 942.905 385.313 943.701C386.905 944.497 388.08 945.46 388.839 946.589C389.617 947.7 390.005 949.06 390.005 950.67C390.005 953.354 388.932 955.511 386.785 957.14C384.637 958.75 381.852 959.555 378.427 959.555C376.021 959.555 373.892 959.13 372.041 958.278C370.19 957.427 368.737 956.242 367.682 954.724C366.645 953.188 366.127 951.531 366.127 949.754H371.264C371.356 951.476 372.041 952.845 373.318 953.863C374.614 954.863 376.317 955.363 378.427 955.363C380.371 955.363 381.926 954.974 383.092 954.197C384.276 953.401 384.869 952.346 384.869 951.031ZM409.441 943.701C409.441 940.758 410.015 938.111 411.163 935.76C412.329 933.41 413.939 931.596 415.994 930.318C418.067 929.041 420.427 928.403 423.074 928.403C427.165 928.403 430.469 929.819 432.986 932.651C435.522 935.483 436.79 939.25 436.79 943.951V944.312C436.79 947.237 436.225 949.865 435.096 952.197C433.986 954.511 432.384 956.316 430.293 957.612C428.22 958.907 425.832 959.555 423.129 959.555C419.057 959.555 415.753 958.139 413.217 955.307C410.7 952.475 409.441 948.727 409.441 944.062V943.701ZM414.605 944.312C414.605 947.644 415.374 950.319 416.91 952.336C418.465 954.354 420.538 955.363 423.129 955.363C425.739 955.363 427.812 954.345 429.349 952.309C430.885 950.254 431.653 947.385 431.653 943.701C431.653 940.406 430.867 937.741 429.293 935.705C427.738 933.65 425.665 932.623 423.074 932.623C420.538 932.623 418.493 933.632 416.938 935.649C415.383 937.667 414.605 940.555 414.605 944.312ZM448.09 928.958L448.257 932.734C450.552 929.846 453.551 928.403 457.253 928.403C463.602 928.403 466.804 931.984 466.86 939.148V959H461.723V939.12C461.705 936.954 461.205 935.353 460.224 934.317C459.261 933.28 457.753 932.762 455.698 932.762C454.032 932.762 452.57 933.206 451.311 934.095C450.052 934.983 449.071 936.149 448.368 937.593V959H443.231V928.958H448.09Z" fill="white"/>
<path d="M509.561 943.979V959H502.537V918.574H518.002C522.518 918.574 526.1 919.749 528.747 922.1C531.413 924.451 532.745 927.56 532.745 931.429C532.745 935.39 531.44 938.472 528.83 940.675C526.239 942.878 522.602 943.979 517.919 943.979H509.561ZM509.561 938.343H518.002C520.501 938.343 522.407 937.76 523.722 936.593C525.036 935.409 525.693 933.706 525.693 931.485C525.693 929.3 525.026 927.56 523.694 926.265C522.361 924.95 520.529 924.275 518.196 924.238H509.561V938.343ZM546.322 959H539.326V918.574H546.322V959ZM587.026 959H580.002L561.982 930.318V959H554.958V918.574H561.982L580.057 947.366V918.574H587.026V959ZM623.704 924.238H611.099V959H604.13V924.238H591.635V918.574H623.704V924.238ZM652.664 940.953H636.06V953.391H655.468V959H629.035V918.574H655.274V924.238H636.06V935.399H652.664V940.953ZM676.042 943.424H668.212V959H661.188V918.574H675.403C680.068 918.574 683.668 919.62 686.204 921.711C688.74 923.803 690.008 926.829 690.008 930.79C690.008 933.493 689.351 935.76 688.037 937.593C686.741 939.407 684.927 940.804 682.595 941.786L691.674 958.639V959H684.15L676.042 943.424ZM668.212 937.787H675.431C677.801 937.787 679.652 937.195 680.984 936.01C682.317 934.807 682.983 933.169 682.983 931.096C682.983 928.93 682.363 927.255 681.123 926.07C679.901 924.886 678.069 924.275 675.626 924.238H668.212V937.787ZM720.3 940.953H703.696V953.391H723.104V959H696.672V918.574H722.91V924.238H703.696V935.399H720.3V940.953ZM749.953 948.588C749.953 946.811 749.324 945.441 748.065 944.479C746.825 943.516 744.576 942.544 741.318 941.563C738.061 940.582 735.469 939.49 733.544 938.287C729.861 935.973 728.019 932.956 728.019 929.236C728.019 925.978 729.342 923.294 731.989 921.184C734.655 919.073 738.107 918.018 742.346 918.018C745.159 918.018 747.667 918.537 749.87 919.573C752.073 920.61 753.803 922.091 755.062 924.016C756.321 925.922 756.95 928.042 756.95 930.374H749.953C749.953 928.264 749.287 926.616 747.954 925.432C746.64 924.229 744.752 923.627 742.29 923.627C739.995 923.627 738.209 924.117 736.931 925.099C735.673 926.08 735.043 927.449 735.043 929.208C735.043 930.689 735.728 931.929 737.098 932.928C738.468 933.909 740.726 934.872 743.873 935.816C747.02 936.741 749.546 937.806 751.453 939.009C753.359 940.194 754.757 941.563 755.645 943.118C756.534 944.655 756.978 946.459 756.978 948.532C756.978 951.901 755.682 954.585 753.091 956.584C750.518 958.565 747.02 959.555 742.596 959.555C739.671 959.555 736.978 959.019 734.516 957.945C732.073 956.853 730.166 955.353 728.796 953.447C727.445 951.54 726.769 949.319 726.769 946.783H733.794C733.794 949.079 734.553 950.856 736.071 952.114C737.589 953.373 739.763 954.002 742.596 954.002C745.039 954.002 746.871 953.512 748.093 952.531C749.333 951.531 749.953 950.217 749.953 948.588ZM792.351 924.238H779.746V959H772.776V924.238H760.282V918.574H792.351V924.238Z" fill="white"/>
<path d="M810.968 766C807.558 766 804.181 766.672 801.03 767.977C797.879 769.282 795.016 771.195 792.605 773.607C790.194 776.019 788.281 778.882 786.976 782.033C785.671 785.184 785 788.561 785 791.971C785 798.265 787.286 804.345 791.432 809.08C795.579 813.815 801.304 816.883 807.543 817.713V899.575C807.543 900.483 807.904 901.355 808.547 901.997C809.189 902.639 810.06 903 810.968 903C811.877 903 812.748 902.639 813.39 901.997C814.033 901.355 814.393 900.483 814.393 899.575V817.712C820.632 816.882 826.357 813.814 830.504 809.079C834.651 804.345 836.937 798.265 836.937 791.971C836.937 788.561 836.266 785.184 834.961 782.033C833.656 778.882 831.743 776.019 829.332 773.607C826.92 771.195 824.057 769.282 820.907 767.977C817.756 766.672 814.379 766 810.968 766V766ZM804.349 777.712C805.418 777.712 806.478 777.923 807.466 778.332C808.455 778.742 809.353 779.342 810.11 780.098C810.866 780.855 811.466 781.753 811.876 782.742C812.285 783.73 812.496 784.79 812.496 785.86C812.496 786.929 812.285 787.989 811.876 788.977C811.466 789.966 810.866 790.864 810.11 791.621C809.353 792.377 808.455 792.977 807.466 793.387C806.478 793.796 805.418 794.007 804.349 794.007C802.188 794.007 800.115 793.149 798.587 791.621C797.06 790.093 796.201 788.02 796.201 785.86C796.201 783.699 797.06 781.626 798.587 780.098C800.115 778.571 802.188 777.712 804.349 777.712V777.712Z" fill="#333333"/>
</svg>
