<svg width="1000" height="1000" viewBox="0 0 1000 1000" fill="none" xmlns="http://www.w3.org/2000/svg">
<path d="M755.979 622.285L500 878.396L244.021 622.285C193.396 571.631 158.921 507.096 144.955 436.839C130.988 366.582 138.158 293.759 165.558 227.579C192.957 161.4 239.355 104.835 298.886 65.0382C358.416 25.2414 428.404 4 500 4C571.596 4 641.584 25.2414 701.114 65.0382C760.645 104.835 807.043 161.4 834.442 227.579C861.842 293.759 869.012 366.582 855.045 436.839C841.079 507.096 806.604 571.631 755.979 622.285ZM183.25 909.453H816.75V1000H183.25V909.453Z" fill="#333333"/>
<path d="M309.458 958.909V977H303.364V930.789H320.407C325.464 930.789 329.421 932.08 332.277 934.661C335.155 937.243 336.594 940.66 336.594 944.913C336.594 949.398 335.187 952.858 332.373 955.291C329.58 957.703 325.57 958.909 320.344 958.909H309.458ZM309.458 953.926H320.407C323.666 953.926 326.162 953.165 327.897 951.641C329.632 950.097 330.5 947.875 330.5 944.976C330.5 942.225 329.632 940.025 327.897 938.375C326.162 936.724 323.782 935.867 320.756 935.804H309.458V953.926ZM349.829 977H343.957V942.659H349.829V977ZM343.481 933.55C343.481 932.598 343.767 931.794 344.338 931.138C344.93 930.482 345.798 930.154 346.94 930.154C348.083 930.154 348.951 930.482 349.543 931.138C350.135 931.794 350.432 932.598 350.432 933.55C350.432 934.502 350.135 935.296 349.543 935.931C348.951 936.565 348.083 936.883 346.94 936.883C345.798 936.883 344.93 936.565 344.338 935.931C343.767 935.296 343.481 934.502 343.481 933.55ZM364.809 942.659L365 946.976C367.623 943.675 371.051 942.024 375.283 942.024C382.54 942.024 386.201 946.119 386.264 954.307V977H380.393V954.275C380.371 951.8 379.8 949.97 378.679 948.785C377.578 947.6 375.854 947.007 373.505 947.007C371.601 947.007 369.93 947.515 368.491 948.531C367.052 949.546 365.931 950.879 365.126 952.53V977H359.255V942.659H364.809ZM403.085 934.344V942.659H409.497V947.198H403.085V968.494C403.085 969.869 403.371 970.906 403.942 971.604C404.514 972.282 405.487 972.62 406.862 972.62C407.539 972.62 408.47 972.493 409.655 972.239V977C408.111 977.423 406.608 977.635 405.148 977.635C402.525 977.635 400.546 976.841 399.213 975.254C397.88 973.667 397.214 971.414 397.214 968.494V947.198H390.961V942.659H397.214V934.344H403.085ZM430.634 977.635C425.979 977.635 422.192 976.111 419.272 973.064C416.352 969.996 414.892 965.902 414.892 960.782V959.703C414.892 956.296 415.537 953.26 416.828 950.594C418.14 947.907 419.96 945.812 422.287 944.31C424.636 942.786 427.175 942.024 429.904 942.024C434.369 942.024 437.839 943.495 440.314 946.436C442.79 949.377 444.028 953.588 444.028 959.068V961.512H420.764C420.848 964.897 421.832 967.637 423.715 969.732C425.62 971.806 428.032 972.842 430.952 972.842C433.025 972.842 434.781 972.419 436.22 971.573C437.659 970.726 438.918 969.605 439.997 968.208L443.583 971.001C440.706 975.424 436.389 977.635 430.634 977.635ZM429.904 946.849C427.535 946.849 425.546 947.716 423.938 949.451C422.329 951.165 421.335 953.577 420.954 956.688H438.156V956.243C437.987 953.26 437.183 950.953 435.744 949.324C434.305 947.674 432.359 946.849 429.904 946.849ZM467.451 947.928C466.562 947.78 465.599 947.706 464.562 947.706C460.712 947.706 458.098 949.345 456.723 952.625V977H450.852V942.659H456.564L456.66 946.626C458.585 943.558 461.315 942.024 464.848 942.024C465.991 942.024 466.858 942.173 467.451 942.469V947.928ZM486.494 977.635C481.839 977.635 478.051 976.111 475.131 973.064C472.211 969.996 470.751 965.902 470.751 960.782V959.703C470.751 956.296 471.397 953.26 472.688 950.594C473.999 947.907 475.819 945.812 478.146 944.31C480.495 942.786 483.034 942.024 485.764 942.024C490.228 942.024 493.698 943.495 496.174 946.436C498.649 949.377 499.887 953.588 499.887 959.068V961.512H476.623C476.708 964.897 477.692 967.637 479.575 969.732C481.479 971.806 483.891 972.842 486.811 972.842C488.885 972.842 490.641 972.419 492.08 971.573C493.518 970.726 494.777 969.605 495.856 968.208L499.443 971.001C496.565 975.424 492.249 977.635 486.494 977.635ZM485.764 946.849C483.394 946.849 481.405 947.716 479.797 949.451C478.189 951.165 477.194 953.577 476.813 956.688H494.016V956.243C493.846 953.26 493.042 950.953 491.604 949.324C490.165 947.674 488.218 946.849 485.764 946.849ZM526.706 967.891C526.706 966.304 526.103 965.077 524.897 964.209C523.712 963.321 521.628 962.559 518.645 961.924C515.682 961.29 513.323 960.528 511.567 959.639C509.832 958.75 508.541 957.693 507.695 956.465C506.87 955.238 506.457 953.778 506.457 952.085C506.457 949.271 507.642 946.891 510.012 944.944C512.403 942.998 515.45 942.024 519.152 942.024C523.046 942.024 526.198 943.029 528.61 945.04C531.044 947.05 532.26 949.62 532.26 952.752H526.357C526.357 951.144 525.669 949.758 524.294 948.594C522.94 947.431 521.226 946.849 519.152 946.849C517.015 946.849 515.344 947.314 514.138 948.245C512.932 949.176 512.329 950.393 512.329 951.895C512.329 953.313 512.889 954.381 514.011 955.101C515.132 955.82 517.153 956.508 520.073 957.164C523.014 957.819 525.394 958.602 527.214 959.512C529.034 960.422 530.377 961.522 531.245 962.813C532.133 964.083 532.578 965.638 532.578 967.479C532.578 970.547 531.35 973.012 528.896 974.874C526.442 976.714 523.257 977.635 519.343 977.635C516.592 977.635 514.159 977.148 512.043 976.175C509.927 975.201 508.266 973.847 507.06 972.112C505.875 970.356 505.283 968.462 505.283 966.431H511.154C511.26 968.399 512.043 969.965 513.503 971.128C514.984 972.271 516.931 972.842 519.343 972.842C521.564 972.842 523.342 972.398 524.675 971.509C526.029 970.599 526.706 969.393 526.706 967.891ZM548.193 934.344V942.659H554.604V947.198H548.193V968.494C548.193 969.869 548.479 970.906 549.05 971.604C549.621 972.282 550.594 972.62 551.97 972.62C552.647 972.62 553.578 972.493 554.763 972.239V977C553.218 977.423 551.716 977.635 550.256 977.635C547.632 977.635 545.654 976.841 544.321 975.254C542.988 973.667 542.321 971.414 542.321 968.494V947.198H536.069V942.659H542.321V934.344H548.193ZM580.502 977V947.198H575.075V942.659H580.502V939.136C580.502 935.455 581.486 932.609 583.454 930.599C585.422 928.589 588.204 927.583 591.801 927.583C593.155 927.583 594.499 927.763 595.832 928.123L595.515 932.884C594.52 932.693 593.462 932.598 592.341 932.598C590.437 932.598 588.966 933.159 587.929 934.28C586.892 935.381 586.374 936.967 586.374 939.041V942.659H593.706V947.198H586.374V977H580.502ZM613.701 977.635C609.046 977.635 605.258 976.111 602.338 973.064C599.418 969.996 597.958 965.902 597.958 960.782V959.703C597.958 956.296 598.604 953.26 599.895 950.594C601.206 947.907 603.026 945.812 605.354 944.31C607.702 942.786 610.241 942.024 612.971 942.024C617.435 942.024 620.905 943.495 623.381 946.436C625.856 949.377 627.094 953.588 627.094 959.068V961.512H603.83C603.915 964.897 604.899 967.637 606.782 969.732C608.686 971.806 611.098 972.842 614.018 972.842C616.092 972.842 617.848 972.419 619.287 971.573C620.725 970.726 621.984 969.605 623.063 968.208L626.65 971.001C623.772 975.424 619.456 977.635 613.701 977.635ZM612.971 946.849C610.601 946.849 608.612 947.716 607.004 949.451C605.396 951.165 604.401 953.577 604.021 956.688H621.223V956.243C621.053 953.26 620.249 950.953 618.811 949.324C617.372 947.674 615.425 946.849 612.971 946.849ZM648.168 977.635C643.514 977.635 639.726 976.111 636.806 973.064C633.886 969.996 632.426 965.902 632.426 960.782V959.703C632.426 956.296 633.072 953.26 634.362 950.594C635.674 947.907 637.494 945.812 639.821 944.31C642.17 942.786 644.709 942.024 647.438 942.024C651.903 942.024 655.373 943.495 657.849 946.436C660.324 949.377 661.562 953.588 661.562 959.068V961.512H638.298C638.382 964.897 639.366 967.637 641.25 969.732C643.154 971.806 645.566 972.842 648.486 972.842C650.559 972.842 652.316 972.419 653.754 971.573C655.193 970.726 656.452 969.605 657.531 968.208L661.118 971.001C658.24 975.424 653.924 977.635 648.168 977.635ZM647.438 946.849C645.069 946.849 643.08 947.716 641.472 949.451C639.864 951.165 638.869 953.577 638.488 956.688H655.69V956.243C655.521 953.26 654.717 950.953 653.278 949.324C651.84 947.674 649.893 946.849 647.438 946.849ZM666.958 959.544C666.958 954.275 668.206 950.044 670.703 946.849C673.199 943.632 676.468 942.024 680.51 942.024C684.53 942.024 687.714 943.4 690.063 946.15V928.25H695.935V977H690.539L690.253 973.318C687.905 976.196 684.636 977.635 680.446 977.635C676.468 977.635 673.221 976.006 670.703 972.747C668.206 969.489 666.958 965.236 666.958 959.988V959.544ZM672.829 960.21C672.829 964.104 673.633 967.151 675.241 969.351C676.849 971.552 679.071 972.652 681.906 972.652C685.63 972.652 688.349 970.98 690.063 967.637V951.863C688.307 948.626 685.609 947.007 681.97 947.007C679.092 947.007 676.849 948.118 675.241 950.34C673.633 952.562 672.829 955.852 672.829 960.21Z" fill="white"/>
<rect x="274" y="148" width="451" height="451" rx="40" fill="white"/>
<path d="M597.902 192.266H683.486V277.849" stroke="#C2C2C2" stroke-width="16.2621"/>
<path d="M401.059 192.266H315.475V277.849" stroke="#C2C2C2" stroke-width="16.2621"/>
<path d="M597.902 560.27H683.486V474.686" stroke="#C2C2C2" stroke-width="16.2621"/>
<path d="M401.059 560.27H315.475V474.686" stroke="#C2C2C2" stroke-width="16.2621"/>
<path d="M402.82 339.497L396.091 319.915L388.94 339.497H402.82ZM392.953 313.337H399.742L415.825 357.662H409.247L404.751 344.386H387.22L382.422 357.662H376.267L392.953 313.337ZM424.002 341.881C424.002 345.341 424.736 348.238 426.204 350.571C427.673 352.905 430.026 354.071 433.265 354.071C435.78 354.071 437.841 352.995 439.451 350.843C441.08 348.67 441.895 345.562 441.895 341.519C441.895 337.436 441.06 334.418 439.39 332.467C437.721 330.496 435.659 329.51 433.205 329.51C430.469 329.51 428.246 330.556 426.536 332.648C424.847 334.74 424.002 337.818 424.002 341.881ZM432.179 324.773C434.653 324.773 436.725 325.296 438.395 326.342C439.36 326.945 440.457 328.001 441.684 329.51V313.186H446.904V357.662H442.016V353.166C440.748 355.158 439.25 356.596 437.52 357.481C435.79 358.366 433.808 358.809 431.575 358.809C427.975 358.809 424.857 357.3 422.221 354.283C419.586 351.245 418.269 347.212 418.269 342.183C418.269 337.476 419.466 333.402 421.859 329.962C424.273 326.503 427.713 324.773 432.179 324.773ZM458.4 341.881C458.4 345.341 459.134 348.238 460.603 350.571C462.071 352.905 464.425 354.071 467.663 354.071C470.178 354.071 472.24 352.995 473.849 350.843C475.478 348.67 476.293 345.562 476.293 341.519C476.293 337.436 475.458 334.418 473.789 332.467C472.119 330.496 470.057 329.51 467.603 329.51C464.867 329.51 462.644 330.556 460.935 332.648C459.245 334.74 458.4 337.818 458.4 341.881ZM466.577 324.773C469.051 324.773 471.123 325.296 472.793 326.342C473.758 326.945 474.855 328.001 476.082 329.51V313.186H481.302V357.662H476.414V353.166C475.146 355.158 473.648 356.596 471.918 357.481C470.188 358.366 468.206 358.809 465.974 358.809C462.373 358.809 459.255 357.3 456.62 354.283C453.984 351.245 452.667 347.212 452.667 342.183C452.667 337.476 453.864 333.402 456.258 329.962C458.671 326.503 462.111 324.773 466.577 324.773ZM526.744 325.346H532.748C531.984 327.418 530.284 332.145 527.649 339.528C525.678 345.08 524.028 349.606 522.7 353.106C519.562 361.353 517.35 366.382 516.062 368.193C514.775 370.003 512.562 370.908 509.424 370.908C508.66 370.908 508.066 370.878 507.644 370.818C507.241 370.758 506.738 370.647 506.135 370.486V365.537C507.08 365.799 507.764 365.96 508.187 366.02C508.609 366.081 508.981 366.111 509.303 366.111C510.309 366.111 511.043 365.94 511.506 365.598C511.989 365.276 512.391 364.874 512.713 364.391C512.813 364.23 513.176 363.405 513.799 361.917C514.423 360.428 514.875 359.322 515.157 358.597L503.208 325.346H509.364L518.024 351.658L526.744 325.346ZM550.279 354.162C553.88 354.162 556.344 352.804 557.672 350.088C559.02 347.353 559.694 344.315 559.694 340.976C559.694 337.959 559.211 335.504 558.245 333.614C556.716 330.636 554.081 329.148 550.34 329.148C547.021 329.148 544.607 330.415 543.098 332.95C541.589 335.484 540.835 338.542 540.835 342.123C540.835 345.562 541.589 348.429 543.098 350.722C544.607 353.015 547 354.162 550.279 354.162ZM550.491 324.41C554.655 324.41 558.175 325.798 561.051 328.574C563.928 331.35 565.366 335.434 565.366 340.825C565.366 346.035 564.099 350.34 561.564 353.74C559.03 357.139 555.097 358.839 549.766 358.839C545.321 358.839 541.79 357.34 539.175 354.343C536.56 351.326 535.253 347.282 535.253 342.213C535.253 336.782 536.631 332.457 539.387 329.238C542.142 326.02 545.844 324.41 550.491 324.41ZM577.285 325.346V346.8C577.285 348.449 577.547 349.797 578.07 350.843C579.035 352.774 580.836 353.74 583.471 353.74C587.252 353.74 589.827 352.05 591.195 348.67C591.939 346.86 592.312 344.376 592.312 341.217V325.346H597.743V357.662H592.613L592.674 352.895C591.97 354.122 591.095 355.158 590.049 356.003C587.977 357.692 585.462 358.537 582.505 358.537C577.899 358.537 574.76 356.998 573.091 353.921C572.186 352.271 571.733 350.068 571.733 347.312V325.346H577.285ZM606.403 325.346H611.563V330.928C611.985 329.842 613.021 328.524 614.67 326.975C616.32 325.406 618.221 324.622 620.373 324.622C620.474 324.622 620.645 324.632 620.886 324.652C621.128 324.672 621.54 324.712 622.123 324.773V330.506C621.802 330.445 621.5 330.405 621.218 330.385C620.957 330.365 620.665 330.355 620.343 330.355C617.607 330.355 615.505 331.24 614.037 333.01C612.568 334.76 611.834 336.782 611.834 339.075V357.662H606.403V325.346Z" fill="#C2C2C2"/>
<path d="M403.363 434.739C401.372 435.403 398.988 435.735 396.212 435.735C390.419 435.735 385.631 434.005 381.849 430.545C377.263 426.381 374.97 420.266 374.97 412.2C374.97 404.073 377.323 397.927 382.03 393.763C385.872 390.364 390.65 388.664 396.363 388.664C402.116 388.664 406.944 390.464 410.846 394.065C415.352 398.229 417.605 404.053 417.605 411.536C417.605 415.499 417.122 418.818 416.157 421.493C415.372 424.048 414.216 426.17 412.687 427.86L417.816 432.657L412.958 437.727L407.587 432.657C405.958 433.643 404.55 434.337 403.363 434.739ZM401.372 426.713L396.876 422.428L401.673 417.42L406.169 421.704C406.873 420.256 407.366 418.989 407.648 417.902C408.09 416.273 408.312 414.372 408.312 412.2C408.312 407.211 407.286 403.359 405.234 400.643C403.202 397.907 400.225 396.539 396.302 396.539C392.621 396.539 389.684 397.847 387.492 400.462C385.299 403.077 384.203 406.99 384.203 412.2C384.203 418.295 385.772 422.66 388.91 425.295C390.942 427.005 393.376 427.86 396.212 427.86C397.278 427.86 398.304 427.729 399.29 427.468C399.833 427.327 400.527 427.075 401.372 426.713ZM443.615 417.058H434.02V434.498H424.937V390.022H446.753C449.871 390.082 452.265 390.464 453.935 391.168C455.624 391.872 457.053 392.908 458.219 394.276C459.185 395.403 459.949 396.65 460.512 398.018C461.076 399.386 461.357 400.945 461.357 402.695C461.357 404.807 460.824 406.889 459.758 408.941C458.692 410.972 456.932 412.411 454.478 413.256C456.53 414.08 457.978 415.257 458.823 416.786C459.688 418.295 460.12 420.608 460.12 423.726V426.713C460.12 428.745 460.201 430.123 460.362 430.847C460.603 431.994 461.166 432.838 462.051 433.382V434.498H451.822C451.541 433.512 451.34 432.718 451.219 432.114C450.978 430.867 450.847 429.59 450.827 428.282L450.766 424.148C450.726 421.312 450.203 419.421 449.197 418.476C448.212 417.53 446.351 417.058 443.615 417.058ZM449.258 408.971C451.108 408.126 452.034 406.456 452.034 403.962C452.034 401.267 451.138 399.456 449.348 398.531C448.342 398.008 446.834 397.746 444.822 397.746H434.02V409.695H444.551C446.643 409.695 448.212 409.454 449.258 408.971ZM514.343 413.407H505.532C505.371 412.179 504.959 411.073 504.295 410.087C503.329 408.76 501.831 408.096 499.799 408.096C496.902 408.096 494.921 409.534 493.855 412.411C493.291 413.94 493.01 415.971 493.01 418.506C493.01 420.92 493.291 422.861 493.855 424.329C494.881 427.065 496.812 428.433 499.648 428.433C501.66 428.433 503.088 427.89 503.933 426.804C504.778 425.717 505.291 424.309 505.472 422.579H514.252C514.051 425.194 513.106 427.669 511.416 430.002C508.72 433.764 504.727 435.645 499.437 435.645C494.146 435.645 490.254 434.076 487.76 430.938C485.265 427.799 484.018 423.726 484.018 418.717C484.018 413.065 485.396 408.669 488.152 405.531C490.908 402.393 494.71 400.824 499.557 400.824C503.681 400.824 507.051 401.749 509.666 403.6C512.301 405.451 513.86 408.719 514.343 413.407ZM547.715 405.773C550.491 409.253 551.879 413.366 551.879 418.114C551.879 422.941 550.491 427.075 547.715 430.515C544.939 433.935 540.725 435.645 535.072 435.645C529.42 435.645 525.205 433.935 522.429 430.515C519.653 427.075 518.265 422.941 518.265 418.114C518.265 413.366 519.653 409.253 522.429 405.773C525.205 402.292 529.42 400.552 535.072 400.552C540.725 400.552 544.939 402.292 547.715 405.773ZM535.042 407.824C532.527 407.824 530.586 408.719 529.218 410.51C527.871 412.28 527.197 414.815 527.197 418.114C527.197 421.413 527.871 423.957 529.218 425.748C530.586 427.538 532.527 428.433 535.042 428.433C537.556 428.433 539.488 427.538 540.835 425.748C542.183 423.957 542.857 421.413 542.857 418.114C542.857 414.815 542.183 412.28 540.835 410.51C539.488 408.719 537.556 407.824 535.042 407.824ZM587.997 390.082V434.498H579.639V429.942C578.412 431.893 577.014 433.311 575.445 434.196C573.876 435.081 571.925 435.524 569.591 435.524C565.749 435.524 562.51 433.975 559.875 430.877C557.26 427.759 555.952 423.766 555.952 418.898C555.952 413.286 557.24 408.87 559.815 405.652C562.41 402.433 565.87 400.824 570.195 400.824C572.186 400.824 573.956 401.267 575.505 402.152C577.054 403.017 578.311 404.224 579.277 405.773V390.082H587.997ZM564.824 418.264C564.824 421.302 565.427 423.726 566.634 425.536C567.821 427.367 569.631 428.282 572.065 428.282C574.499 428.282 576.35 427.377 577.617 425.567C578.885 423.756 579.518 421.413 579.518 418.536C579.518 414.513 578.502 411.636 576.471 409.906C575.224 408.86 573.775 408.337 572.126 408.337C569.611 408.337 567.761 409.293 566.574 411.204C565.407 413.095 564.824 415.448 564.824 418.264ZM623.995 424.842C623.773 426.794 622.757 428.775 620.947 430.787C618.131 433.985 614.188 435.584 609.119 435.584C604.935 435.584 601.243 434.237 598.045 431.541C594.847 428.845 593.247 424.46 593.247 418.385C593.247 412.692 594.686 408.327 597.562 405.29C600.459 402.252 604.211 400.733 608.817 400.733C611.553 400.733 614.017 401.246 616.21 402.272C618.402 403.298 620.213 404.918 621.641 407.13C622.928 409.082 623.763 411.345 624.145 413.919C624.367 415.428 624.457 417.601 624.417 420.437H601.907C602.028 423.736 603.064 426.049 605.015 427.377C606.202 428.202 607.63 428.614 609.3 428.614C611.07 428.614 612.508 428.111 613.615 427.105C614.218 426.562 614.751 425.808 615.214 424.842H623.995ZM615.486 414.764C615.345 412.491 614.651 410.771 613.404 409.605C612.176 408.418 610.648 407.824 608.817 407.824C606.826 407.824 605.277 408.448 604.17 409.695C603.084 410.942 602.4 412.632 602.119 414.764H615.486Z" fill="#C2C2C2"/>
<path d="M470 700.972C470 697.6 470.59 694.415 471.751 691.443C472.861 688.555 474.509 685.905 476.609 683.634C478.704 681.392 481.102 679.454 483.733 677.875C486.432 676.242 489.354 675.01 492.408 674.218C495.499 673.406 498.681 672.997 501.876 673C506.812 673 511.405 674.044 515.665 676.124C519.869 678.166 523.447 681.3 526.026 685.198C528.687 689.163 530.008 693.648 530.008 698.649C530.008 701.648 529.714 704.581 529.111 707.45C528.52 710.317 527.58 713.101 526.312 715.74C525.104 718.294 523.523 720.655 521.623 722.747C519.713 724.805 517.401 726.448 514.829 727.574C512.036 728.798 509.016 729.414 505.967 729.381C503.848 729.381 501.733 728.883 499.645 727.882C497.556 726.885 496.057 725.516 495.155 723.761C494.839 724.978 494.406 726.738 493.829 729.039C493.275 731.335 492.902 732.817 492.737 733.489C492.564 734.156 492.243 735.27 491.775 736.813C491.458 737.954 491.051 739.068 490.558 740.145L489.067 743.066C488.422 744.319 487.702 745.532 486.909 746.697C486.125 747.832 485.154 749.189 483.997 750.749L483.351 750.978L482.922 750.51C482.459 745.601 482.22 742.663 482.22 741.692C482.22 738.819 482.563 735.595 483.239 732.016C483.902 728.441 484.95 723.947 486.359 718.543C487.767 713.144 488.573 709.968 488.79 709.027C487.797 707.004 487.295 704.36 487.295 701.11C487.295 698.515 488.105 696.084 489.73 693.796C491.359 691.516 493.418 690.377 495.914 690.377C497.825 690.377 499.307 691.009 500.368 692.279C501.434 693.544 501.954 695.139 501.954 697.085C501.954 699.147 501.27 702.133 499.892 706.037C498.514 709.946 497.829 712.862 497.829 714.799C497.829 716.762 498.531 718.405 499.935 719.692C501.321 720.979 503.153 721.677 505.044 721.637C506.76 721.637 508.35 721.247 509.828 720.463C511.283 719.702 512.542 718.615 513.507 717.287C515.61 714.402 517.108 711.123 517.914 707.645C518.33 705.816 518.651 704.079 518.85 702.445C519.062 700.803 519.153 699.251 519.153 697.778C519.153 692.374 517.437 688.162 514.027 685.146C510.599 682.13 506.136 680.631 500.646 680.631C494.401 680.631 489.18 682.65 484.998 686.702C480.812 690.741 478.706 695.876 478.706 702.103C478.706 703.476 478.914 704.802 479.308 706.085C479.694 707.363 480.114 708.382 480.569 709.136C481.02 709.877 481.445 710.6 481.83 711.268C482.22 711.935 482.424 712.412 482.424 712.698C482.424 713.573 482.194 714.713 481.731 716.121C481.25 717.529 480.682 718.231 479.997 718.231C479.932 718.231 479.664 718.184 479.196 718.084C477.575 717.6 476.111 716.696 474.953 715.462C473.725 714.184 472.755 712.68 472.098 711.034C471.442 709.393 470.932 707.698 470.572 705.968C470.184 704.331 469.992 702.654 470 700.972V700.972Z" fill="white"/>
<circle cx="500" cy="712" r="59.5" stroke="white" stroke-width="3"/>
</svg>
