<svg width="1000" height="1000" viewBox="0 0 1000 1000" fill="none" xmlns="http://www.w3.org/2000/svg">
<path d="M317.502 155H395.072C400.713 182.982 416.228 218.283 443.455 253.31C470.096 287.632 505.433 311.545 552.563 311.545V389.817C483.886 389.817 432.29 357.96 395.855 318.237V585.498C395.855 624.2 384.367 662.032 362.843 694.212C341.319 726.391 310.726 751.472 274.933 766.283C239.139 781.094 199.753 784.969 161.756 777.418C123.758 769.868 88.8543 751.231 61.4593 723.865C34.0644 696.498 15.4082 661.631 7.8499 623.673C0.29164 585.715 4.17081 546.37 18.9969 510.614C33.8229 474.858 58.93 444.297 91.143 422.795C123.356 401.293 161.228 389.817 199.971 389.817V468.089C176.725 468.089 154.002 474.975 134.674 487.876C115.346 500.777 100.282 519.114 91.3864 540.567C82.4908 562.021 80.1633 585.628 84.6982 608.403C89.2332 631.178 100.427 652.098 116.864 668.518C133.301 684.938 154.243 696.12 177.042 700.65C199.84 705.18 223.472 702.855 244.948 693.969C266.424 685.082 284.78 670.034 297.694 650.726C310.609 631.418 317.502 608.719 317.502 585.498V155Z" fill="#333333"/>
<rect x="380.5" y="380.586" width="617" height="617" rx="2.5" fill="#333333" stroke="white" stroke-width="3"/>
<rect x="413" y="414" width="551" height="551" rx="4" fill="white"/>
<path d="M808.73 468.082H913.29V572.642" stroke="#C2C2C2" stroke-width="19.8679"/>
<path d="M568.242 468.082H463.682V572.642" stroke="#C2C2C2" stroke-width="19.8679"/>
<path d="M808.73 917.686H913.29V813.126" stroke="#C2C2C2" stroke-width="19.8679"/>
<path d="M568.242 917.686H463.682V813.126" stroke="#C2C2C2" stroke-width="19.8679"/>
<path d="M570.378 647.765L562.157 623.84L553.421 647.765H570.378ZM558.324 615.803H566.618L586.267 669.957H578.23L572.737 653.737H551.319L545.458 669.957H537.938L558.324 615.803ZM596.257 650.677C596.257 654.904 597.154 658.443 598.948 661.294C600.742 664.145 603.617 665.57 607.574 665.57C610.646 665.57 613.165 664.255 615.131 661.626C617.122 658.971 618.117 655.174 618.117 650.235C618.117 645.246 617.098 641.559 615.058 639.175C613.018 636.767 610.499 635.563 607.501 635.563C604.158 635.563 601.442 636.841 599.353 639.397C597.289 641.952 596.257 645.713 596.257 650.677ZM606.247 629.775C609.27 629.775 611.801 630.414 613.841 631.692C615.021 632.429 616.36 633.719 617.859 635.563V615.619H624.237V669.957H618.265V664.464C616.717 666.897 614.886 668.654 612.772 669.736C610.659 670.817 608.238 671.358 605.51 671.358C601.111 671.358 597.301 669.515 594.082 665.828C590.862 662.117 589.253 657.19 589.253 651.046C589.253 645.295 590.715 640.318 593.64 636.116C596.589 631.888 600.791 629.775 606.247 629.775ZM638.282 650.677C638.282 654.904 639.179 658.443 640.973 661.294C642.767 664.145 645.643 665.57 649.6 665.57C652.672 665.57 655.191 664.255 657.157 661.626C659.147 658.971 660.143 655.174 660.143 650.235C660.143 645.246 659.123 641.559 657.083 639.175C655.043 636.767 652.524 635.563 649.526 635.563C646.183 635.563 643.468 636.841 641.379 639.397C639.314 641.952 638.282 645.713 638.282 650.677ZM648.272 629.775C651.295 629.775 653.827 630.414 655.866 631.692C657.046 632.429 658.386 633.719 659.885 635.563V615.619H666.262V669.957H660.29V664.464C658.742 666.897 656.911 668.654 654.797 669.736C652.684 670.817 650.263 671.358 647.535 671.358C643.136 671.358 639.327 669.515 636.107 665.828C632.888 662.117 631.278 657.19 631.278 651.046C631.278 645.295 632.74 640.318 635.665 636.116C638.614 631.888 642.817 629.775 648.272 629.775ZM721.78 630.475H729.116C728.182 633.007 726.105 638.782 722.886 647.802C720.477 654.585 718.462 660.114 716.84 664.391C713.006 674.467 710.303 680.611 708.73 682.823C707.157 685.035 704.454 686.14 700.62 686.14C699.686 686.14 698.961 686.104 698.445 686.03C697.953 685.956 697.339 685.821 696.602 685.624V679.579C697.757 679.898 698.592 680.095 699.108 680.168C699.624 680.242 700.079 680.279 700.472 680.279C701.701 680.279 702.598 680.07 703.163 679.652C703.753 679.259 704.245 678.768 704.638 678.178C704.761 677.981 705.203 676.974 705.965 675.155C706.727 673.336 707.28 671.985 707.624 671.1L693.026 630.475H700.546L711.126 662.621L721.78 630.475ZM750.534 665.681C754.933 665.681 757.944 664.022 759.566 660.704C761.212 657.362 762.036 653.651 762.036 649.571C762.036 645.885 761.446 642.886 760.266 640.576C758.398 636.939 755.179 635.12 750.608 635.12C746.553 635.12 743.604 636.669 741.76 639.765C739.917 642.862 738.996 646.597 738.996 650.972C738.996 655.174 739.917 658.677 741.76 661.478C743.604 664.28 746.528 665.681 750.534 665.681ZM750.792 629.333C755.879 629.333 760.18 631.028 763.695 634.42C767.209 637.811 768.966 642.8 768.966 649.387C768.966 655.752 767.418 661.011 764.321 665.165C761.225 669.318 756.42 671.395 749.907 671.395C744.476 671.395 740.163 669.564 736.968 665.902C733.773 662.216 732.176 657.276 732.176 651.082C732.176 644.447 733.859 639.163 737.226 635.231C740.593 631.299 745.115 629.333 750.792 629.333ZM783.528 630.475V656.686C783.528 658.701 783.847 660.348 784.486 661.626C785.666 663.985 787.865 665.165 791.085 665.165C795.705 665.165 798.851 663.1 800.522 658.971C801.431 656.76 801.886 653.724 801.886 649.866V630.475H808.522V669.957H802.255L802.328 664.132C801.468 665.632 800.399 666.897 799.121 667.929C796.59 669.994 793.518 671.026 789.905 671.026C784.277 671.026 780.443 669.146 778.403 665.386C777.298 663.371 776.745 660.68 776.745 657.313V630.475H783.528ZM819.102 630.475H825.406V637.295C825.922 635.968 827.187 634.358 829.203 632.466C831.218 630.549 833.54 629.591 836.17 629.591C836.293 629.591 836.502 629.603 836.797 629.627C837.092 629.652 837.595 629.701 838.308 629.775V636.779C837.915 636.705 837.546 636.656 837.202 636.632C836.883 636.607 836.526 636.595 836.133 636.595C832.791 636.595 830.222 637.676 828.428 639.839C826.634 641.977 825.737 644.447 825.737 647.249V669.957H819.102V630.475Z" fill="#C2C2C2"/>
<path d="M571.046 764.123C568.613 764.934 565.701 765.34 562.309 765.34C555.231 765.34 549.382 763.226 544.762 758.999C539.158 753.912 536.357 746.44 536.357 736.585C536.357 726.657 539.232 719.149 544.983 714.061C549.677 709.908 555.514 707.831 562.494 707.831C569.522 707.831 575.421 710.031 580.188 714.43C585.694 719.517 588.446 726.632 588.446 735.774C588.446 740.616 587.856 744.671 586.677 747.94C585.718 751.061 584.305 753.654 582.437 755.718L588.704 761.579L582.769 767.773L576.207 761.579C574.216 762.784 572.496 763.632 571.046 764.123ZM568.613 754.317L563.12 749.082L568.982 742.963L574.474 748.198C575.335 746.428 575.937 744.88 576.281 743.553C576.822 741.562 577.092 739.24 577.092 736.585C577.092 730.49 575.838 725.784 573.332 722.466C570.849 719.124 567.212 717.453 562.42 717.453C557.922 717.453 554.334 719.05 551.655 722.245C548.977 725.44 547.637 730.22 547.637 736.585C547.637 744.032 549.554 749.365 553.388 752.585C555.87 754.673 558.844 755.718 562.309 755.718C563.612 755.718 564.865 755.558 566.069 755.239C566.733 755.067 567.581 754.76 568.613 754.317ZM620.223 742.521H608.5V763.828H597.404V709.49H624.057C627.866 709.564 630.791 710.031 632.831 710.891C634.895 711.751 636.64 713.017 638.065 714.688C639.245 716.064 640.179 717.588 640.867 719.259C641.555 720.93 641.899 722.835 641.899 724.973C641.899 727.554 641.248 730.097 639.946 732.604C638.643 735.086 636.493 736.843 633.494 737.876C636.001 738.883 637.771 740.321 638.803 742.189C639.86 744.032 640.388 746.858 640.388 750.668V754.317C640.388 756.799 640.486 758.483 640.683 759.368C640.978 760.768 641.666 761.801 642.747 762.464V763.828H630.25C629.906 762.624 629.66 761.653 629.513 760.916C629.218 759.392 629.058 757.832 629.034 756.234L628.96 751.184C628.911 747.718 628.272 745.408 627.043 744.253C625.839 743.098 623.565 742.521 620.223 742.521ZM627.117 732.641C629.378 731.609 630.508 729.569 630.508 726.521C630.508 723.228 629.415 721.016 627.227 719.886C625.999 719.247 624.155 718.927 621.698 718.927H608.5V733.526H621.366C623.922 733.526 625.839 733.231 627.117 732.641ZM706.633 738.06H695.869C695.672 736.561 695.168 735.209 694.357 734.005C693.178 732.383 691.347 731.572 688.864 731.572C685.326 731.572 682.905 733.329 681.602 736.843C680.914 738.711 680.57 741.193 680.57 744.29C680.57 747.239 680.914 749.611 681.602 751.405C682.856 754.747 685.215 756.418 688.68 756.418C691.138 756.418 692.883 755.755 693.915 754.428C694.947 753.101 695.574 751.38 695.795 749.267H706.522C706.277 752.462 705.122 755.485 703.057 758.335C699.764 762.931 694.886 765.229 688.422 765.229C681.959 765.229 677.203 763.312 674.156 759.478C671.108 755.644 669.584 750.668 669.584 744.548C669.584 737.642 671.268 732.272 674.635 728.438C678.002 724.604 682.647 722.688 688.57 722.688C693.608 722.688 697.724 723.818 700.919 726.079C704.139 728.34 706.043 732.334 706.633 738.06ZM747.405 728.733C750.797 732.985 752.492 738.011 752.492 743.811C752.492 749.709 750.797 754.76 747.405 758.962C744.014 763.14 738.865 765.229 731.959 765.229C725.053 765.229 719.904 763.14 716.513 758.962C713.121 754.76 711.425 749.709 711.425 743.811C711.425 738.011 713.121 732.985 716.513 728.733C719.904 724.482 725.053 722.356 731.959 722.356C738.865 722.356 744.014 724.482 747.405 728.733ZM731.922 731.24C728.85 731.24 726.478 732.334 724.807 734.521C723.161 736.684 722.337 739.78 722.337 743.811C722.337 747.841 723.161 750.95 724.807 753.137C726.478 755.325 728.85 756.418 731.922 756.418C734.994 756.418 737.353 755.325 739 753.137C740.647 750.95 741.47 747.841 741.47 743.811C741.47 739.78 740.647 736.684 739 734.521C737.353 732.334 734.994 731.24 731.922 731.24ZM796.619 709.564V763.828H786.407V758.262C784.908 760.646 783.2 762.378 781.283 763.459C779.366 764.541 776.982 765.082 774.132 765.082C769.438 765.082 765.481 763.189 762.261 759.404C759.066 755.595 757.469 750.717 757.469 744.769C757.469 737.913 759.042 732.518 762.188 728.586C765.358 724.654 769.585 722.688 774.869 722.688C777.302 722.688 779.465 723.228 781.357 724.31C783.249 725.366 784.785 726.841 785.965 728.733V709.564H796.619ZM768.307 743.995C768.307 747.706 769.044 750.668 770.519 752.879C771.969 755.116 774.181 756.234 777.155 756.234C780.128 756.234 782.389 755.128 783.938 752.916C785.486 750.704 786.26 747.841 786.26 744.327C786.26 739.412 785.019 735.897 782.537 733.784C781.013 732.506 779.244 731.867 777.228 731.867C774.156 731.867 771.895 733.034 770.445 735.369C769.02 737.679 768.307 740.554 768.307 743.995ZM840.598 752.032C840.328 754.415 839.087 756.836 836.875 759.294C833.434 763.201 828.617 765.155 822.424 765.155C817.312 765.155 812.802 763.509 808.895 760.215C804.987 756.922 803.033 751.565 803.033 744.143C803.033 737.188 804.79 731.854 808.305 728.143C811.844 724.432 816.427 722.577 822.055 722.577C825.398 722.577 828.408 723.204 831.087 724.457C833.766 725.71 835.978 727.689 837.723 730.392C839.295 732.776 840.315 735.541 840.782 738.687C841.053 740.53 841.163 743.184 841.114 746.649H813.613C813.761 750.68 815.026 753.506 817.41 755.128C818.86 756.136 820.605 756.64 822.645 756.64C824.808 756.64 826.565 756.025 827.917 754.796C828.654 754.133 829.305 753.211 829.871 752.032H840.598ZM830.202 739.719C830.03 736.942 829.182 734.84 827.659 733.415C826.16 731.965 824.292 731.24 822.055 731.24C819.622 731.24 817.73 732.002 816.378 733.526C815.051 735.049 814.215 737.114 813.871 739.719H830.202Z" fill="#C2C2C2"/>
<path d="M680.198 77.6182C683.118 76.7759 678.008 72.7329 676.829 72.5083C659.703 69.4761 640.049 73.856 623.26 77.4497C605.853 81.1558 588.782 86.4341 572.386 93.3408C564.019 96.8223 555.821 100.697 547.903 105.021C541.39 108.502 532.798 112.096 527.801 117.711C520.052 126.415 528.812 135.68 538.638 132.198C540.997 131.356 536.673 128.155 535.494 128.155C534.708 127.931 533.978 127.65 533.248 127.425C537.796 117.262 557.898 110.074 566.546 105.975C577.159 100.921 588.108 96.5415 599.283 92.8354C581.539 124.225 551.666 201.097 550.43 228.219C550.037 237.54 554.866 246.805 564.917 247.928C568.96 248.377 565.311 243.492 563.57 242.931C541.109 236.192 593.387 121.305 610.682 89.354C621.351 86.3218 632.244 83.9072 643.25 82.1665C655.323 80.2573 668.519 81.0435 680.198 77.6182ZM587.94 197.223C588.558 200.76 589.737 202.613 593.724 203.062C605.516 204.747 617.308 186.947 623.484 175.772C625.394 175.211 624.832 171.561 622.698 172.179C613.433 185.543 603.27 198.963 595.914 198.009C595.352 198.233 593.667 196.942 594.117 193.067C595.24 183.353 599.17 168.753 606.583 161.566C609.502 158.758 599.732 152.413 598.89 156.625C597.654 162.577 585.862 185.543 587.94 197.223ZM602.933 147.528C606.302 145.843 608.604 142.53 611.861 140.621C613.826 139.442 609.334 136.859 607.986 137.308C604.056 138.656 598.946 139.835 596.531 143.597C595.745 144.889 597.654 146.461 598.497 147.022C599.844 147.809 601.473 148.258 602.933 147.528ZM662.229 81.3242C645.047 108.502 641.453 118.834 630.728 148.595C624.664 165.497 606.189 207.892 612.198 223.727C612.647 224.85 616.971 226.871 616.69 224.793C614.332 207.723 625.057 186.891 626.348 183.297C627.527 192.057 639.937 194.864 646.226 197.279C650.269 198.795 650.381 194.696 647.237 193.067C643.025 190.934 640.892 191.046 637.41 187.901C630.784 181.949 641.565 174.649 646.114 170.213C655.098 161.397 663.746 152.188 672.562 143.26C674.471 141.407 669.361 138.263 667.732 139.779C659.871 147.079 651.897 154.154 644.092 161.454C640.274 164.991 633.311 169.933 629.268 175.155C632.637 165.89 636.231 156.681 639.937 147.528C651.111 119.957 656.053 111.366 667.339 83.9072C668.182 81.8296 663.465 79.415 662.229 81.3242ZM820.242 77.6182C823.162 76.7759 818.052 72.7329 816.873 72.5083C799.747 69.4761 780.093 73.856 763.304 77.4497C745.896 81.1558 728.826 86.4341 712.43 93.3408C704.063 96.8223 695.865 100.697 687.947 105.021C681.434 108.502 672.842 112.096 667.845 117.711C660.096 126.415 668.855 135.68 678.682 132.198C681.041 131.356 676.717 128.155 675.538 128.155C674.751 127.931 674.021 127.65 673.292 127.425C677.84 117.262 697.942 110.074 706.59 105.975C717.203 100.921 728.152 96.5415 739.327 92.8354C721.583 124.225 691.709 201.097 690.474 228.219C690.081 237.54 694.91 246.805 704.961 247.928C709.004 248.377 705.354 243.492 703.614 242.931C681.153 236.192 733.431 121.305 750.726 89.354C761.395 86.3218 772.288 83.9072 783.294 82.1665C795.367 80.2573 808.562 81.0435 820.242 77.6182ZM755.611 180.938C754.544 181.051 753.589 181.107 752.635 181.051C749.49 180.938 747.132 180.321 745.616 179.142C744.942 178.636 744.212 177.906 743.482 176.839C742.696 175.772 742.247 174.818 742.19 173.863L744.773 168.192C746.065 165.721 747.525 163.475 749.153 161.454C751.68 159.938 754.263 159.32 756.79 159.601C759.317 159.881 760.833 161.622 761.282 164.767C761.451 168.529 760.552 172.347 758.475 176.222C757.52 177.906 756.565 179.479 755.611 180.938ZM752.073 185.431C751.905 185.599 751.736 185.824 751.568 185.992C750.557 187.115 749.434 188.238 748.255 189.361C747.02 190.541 745.728 191.439 744.38 192.169C741.629 193.46 739.888 193.685 739.046 192.787C738.204 191.944 737.923 190.541 738.204 188.631C738.484 186.722 738.821 184.869 739.327 183.128C739.383 182.792 739.495 182.455 739.551 182.174C739.607 182.005 739.72 181.949 739.888 182.005C740.057 182.062 740.337 182.23 740.618 182.511C741.348 183.241 742.527 183.971 744.268 184.645C746.795 185.375 749.434 185.655 752.073 185.431ZM763.135 180.826C765.494 176.839 766.841 173.863 767.291 171.898C768.133 167.799 767.852 164.374 766.504 161.566C765.101 158.758 763.023 156.737 760.271 155.445C757.52 154.21 754.432 153.873 751.062 154.378C750.164 153.761 749.266 153.424 748.311 153.312C747.356 153.199 746.626 153.48 746.121 154.21C745.672 154.94 745.167 155.782 744.549 156.625L744.212 156.849C743.987 156.905 743.763 157.018 743.538 157.186C741.292 158.534 739.383 160.274 737.867 162.408C736.351 164.598 735.958 166.788 736.744 169.09C734.666 172.74 733.038 176.39 731.858 180.096C730.623 183.802 730.286 187.228 730.904 190.428C731.521 193.629 733.487 196.212 736.912 198.29C740.337 200.143 743.707 200.367 747.076 198.963C750.389 197.56 753.477 195.201 756.341 191.888C758.924 188.912 760.608 186.498 761.338 184.701C766.224 184.308 771.277 182.567 776.5 179.479C777.229 178.917 777.566 178.468 777.51 178.131C777.454 177.85 777.173 177.625 776.724 177.513C776.275 177.401 775.77 177.401 775.264 177.457C774.759 177.513 774.366 177.682 774.141 177.85C771.165 179.142 767.515 180.096 763.135 180.826ZM817.771 81.3242C800.589 108.502 796.995 118.834 786.27 148.595C780.206 165.497 761.731 207.892 767.74 223.727C768.189 224.85 772.513 226.871 772.232 224.793C769.874 207.723 780.599 186.891 781.89 183.297C783.069 192.057 795.479 194.864 801.768 197.279C805.811 198.795 805.923 194.696 802.779 193.067C798.567 190.934 796.434 191.046 792.952 187.901C786.326 181.949 797.107 174.649 801.656 170.213C810.64 161.397 819.288 152.188 828.104 143.26C830.013 141.407 824.903 138.263 823.274 139.779C815.413 147.079 807.439 154.154 799.634 161.454C795.816 164.991 788.853 169.933 784.81 175.155C788.179 165.89 791.773 156.681 795.479 147.528C806.653 119.957 811.595 111.366 822.881 83.9072C823.724 81.8296 819.007 79.415 817.771 81.3242Z" fill="#333333"/>
<path d="M502.934 247.418C500.035 247.418 497.428 246.853 495.113 245.723C492.798 244.574 491.012 242.988 489.754 240.965C488.496 238.923 487.867 236.599 487.867 233.992C487.867 229.964 489.262 226.71 492.051 224.23C494.84 221.733 498.549 220.484 503.18 220.484L503.535 220.484C506.415 220.484 509.004 221.04 511.301 222.152C513.579 223.246 515.357 224.823 516.633 226.883C517.909 228.924 518.547 231.276 518.547 233.937C518.547 237.948 517.152 241.202 514.363 243.699C511.574 246.178 507.883 247.418 503.289 247.418L502.934 247.418ZM503.535 242.332C506.816 242.332 509.451 241.576 511.437 240.062C513.424 238.531 514.418 236.49 514.418 233.937C514.418 231.367 513.415 229.326 511.41 227.812C509.387 226.299 506.561 225.543 502.934 225.543C499.689 225.543 497.064 226.318 495.059 227.867C493.035 229.398 492.023 231.44 492.023 233.992C492.023 236.49 493.017 238.504 495.004 240.035C496.991 241.566 499.835 242.332 503.535 242.332ZM515.074 195.875C517.389 197.844 518.547 200.733 518.547 204.543C518.547 207.697 517.635 210.103 515.812 211.762C513.971 213.402 511.255 214.232 507.664 214.25L488.414 214.25L488.414 209.191L507.527 209.191C512.012 209.191 514.254 207.368 514.254 203.723C514.254 199.858 512.814 197.288 509.934 196.012L488.414 196.012L488.414 190.953L518 190.953L518 195.766L515.074 195.875ZM492.953 168.941C492.826 169.707 492.762 170.536 492.762 171.43C492.762 174.747 494.174 176.999 497 178.184L518 178.184L518 183.242L488.414 183.242L488.414 178.32L491.832 178.238C489.189 176.579 487.867 174.228 487.867 171.184C487.867 170.199 487.995 169.452 488.25 168.941L492.953 168.941Z" fill="#333333"/>
<path d="M924.001 260L923.079 258.817L924.001 260ZM776.003 255L775.783 256.484L776.003 255ZM639.002 304L637.519 304.23L639.002 304ZM801.002 332L800.68 333.465L801.002 332ZM820.474 373.594C821.078 374.161 822.028 374.13 822.594 373.526L831.828 363.677C832.394 363.073 832.363 362.124 831.759 361.557C831.155 360.99 830.205 361.021 829.639 361.625L821.432 370.38L812.677 362.172C812.073 361.606 811.124 361.637 810.557 362.241C809.99 362.845 810.021 363.795 810.625 364.361L820.474 373.594ZM841.938 169.435C853.113 166.041 869.966 162.188 886.753 162.587C903.553 162.986 920.03 167.63 930.837 180.945L933.166 179.055C921.572 164.77 904.05 159.997 886.825 159.588C869.587 159.178 852.39 163.125 841.066 166.565L841.938 169.435ZM930.837 180.945C941.892 194.568 947.321 208.237 946.384 221.296C945.449 234.324 938.154 247.068 923.079 258.817L924.923 261.183C940.459 249.074 948.364 235.618 949.376 221.511C950.387 207.434 944.51 193.033 933.166 179.055L930.837 180.945ZM923.079 258.817C906.573 271.682 886.096 272.874 861.454 269.514C849.143 267.835 835.887 265.035 821.653 262.048C807.438 259.064 792.273 255.899 776.223 253.516L775.783 256.484C791.732 258.851 806.815 261.999 821.037 264.984C835.241 267.965 848.61 270.79 861.048 272.486C885.906 275.876 907.43 274.818 924.923 261.183L923.079 258.817ZM776.223 253.516C752.87 250.05 717.082 253.938 687.8 262.886C673.155 267.361 660.009 273.139 650.818 279.99C641.668 286.813 636.084 294.991 637.519 304.23L640.484 303.77C639.307 296.194 643.774 288.984 652.611 282.396C661.409 275.837 674.187 270.182 688.677 265.755C717.666 256.897 752.991 253.1 775.783 256.484L776.223 253.516ZM637.519 304.23C639.64 317.881 649.711 326.025 663.473 330.7C677.205 335.366 694.922 336.706 713.052 336.622C731.204 336.537 749.935 335.022 765.719 333.899C773.624 333.336 780.779 332.873 786.781 332.731C792.816 332.589 797.553 332.777 800.68 333.465L801.325 330.535C797.814 329.763 792.759 329.589 786.71 329.732C780.629 329.876 773.408 330.344 765.506 330.906C749.675 332.032 731.066 333.538 713.038 333.622C694.987 333.705 677.682 332.359 664.438 327.86C651.223 323.37 642.364 315.869 640.484 303.77L637.519 304.23ZM800.68 333.465C806.739 334.798 810.848 336.95 813.659 339.567C816.461 342.176 818.072 345.34 818.985 348.875C819.905 352.436 820.109 356.344 820.102 360.403C820.094 364.373 819.875 368.658 820.001 372.548L822.999 372.452C822.875 368.592 823.094 364.627 823.102 360.409C823.11 356.281 822.908 352.064 821.89 348.125C820.866 344.16 819.009 340.449 815.703 337.371C812.405 334.3 807.765 331.952 801.325 330.535L800.68 333.465Z" fill="#333333"/>
</svg>
