<svg width="1000" height="1000" viewBox="0 0 1000 1000" fill="none" xmlns="http://www.w3.org/2000/svg">
<rect x="180" y="134" width="640" height="640" rx="35" fill="white" stroke="#333333" stroke-width="8"/>
<rect x="181" y="804" width="640" height="179" rx="21" fill="white" stroke="#333333" stroke-width="8"/>
<rect x="415" y="6" width="170" height="170" rx="20" fill="white" stroke="#333333" stroke-width="8"/>
<path d="M554.588 63.0385C547.051 63.03 539.825 60.0135 534.495 54.6507C529.165 49.2879 526.167 42.0168 526.158 34.4327C526.158 33.5223 525.799 32.6492 525.159 32.0054C524.519 31.3617 523.652 31 522.747 31H500.003C499.098 31 498.23 31.3617 497.59 32.0054C496.951 32.6492 496.591 33.5223 496.591 34.4327V107.664C496.59 109.916 495.989 112.127 494.85 114.066C493.71 116.004 492.075 117.6 490.114 118.686C488.153 119.772 485.938 120.309 483.7 120.24C481.463 120.171 479.285 119.5 477.393 118.295C475.502 117.091 473.966 115.398 472.946 113.393C471.926 111.388 471.46 109.144 471.596 106.896C471.732 104.647 472.465 102.477 473.718 100.611C474.972 98.7449 476.7 97.2514 478.722 96.2864C479.305 96.0078 479.798 95.5686 480.143 95.0198C480.487 94.4709 480.67 93.8349 480.67 93.1855V69.3644C480.671 68.8626 480.561 68.3669 480.35 67.9121C480.139 67.4574 479.832 67.0548 479.45 66.7325C479.067 66.4103 478.62 66.1763 478.138 66.047C477.656 65.9177 477.152 65.8963 476.661 65.9843C468.781 67.4043 461.467 71.0564 455.578 76.5119C449.689 81.9674 445.468 88.9999 443.412 96.7842C441.356 104.568 441.549 112.781 443.969 120.459C446.388 128.137 450.935 134.961 457.074 140.13C463.212 145.299 470.69 148.599 478.627 149.643C486.565 150.687 494.633 149.431 501.886 146.022C509.139 142.613 515.275 137.194 519.575 130.4C523.874 123.605 526.158 115.718 526.158 107.664V85.3109C534.833 90.235 544.629 92.8114 554.588 92.7885C555.493 92.7885 556.361 92.4268 557.001 91.7831C557.641 91.1393 558 90.2662 558 89.3558V66.4712C558 65.5608 557.641 64.6876 557.001 64.0439C556.361 63.4001 555.493 63.0385 554.588 63.0385V63.0385ZM551.177 85.811C541.646 85.1947 532.482 81.8846 524.739 76.2612C524.229 75.8925 523.628 75.6724 523.002 75.6251C522.376 75.5778 521.75 75.7052 521.191 75.9932C520.632 76.2813 520.163 76.7188 519.836 77.2577C519.509 77.7965 519.335 78.4158 519.335 79.0474V107.664C519.333 114.234 517.516 120.675 514.088 126.267C510.661 131.86 505.757 136.385 499.923 139.337C494.089 142.29 487.555 143.554 481.049 142.989C474.543 142.423 468.321 140.051 463.077 136.136C457.832 132.221 453.772 126.917 451.348 120.816C448.924 114.715 448.231 108.056 449.348 101.582C450.465 95.1084 453.347 89.0741 457.673 84.1519C461.999 79.2297 467.598 75.6132 473.847 73.7056V91.1608C470.992 92.9535 468.652 95.4651 467.057 98.4472C465.463 101.429 464.669 104.778 464.756 108.164C464.843 111.549 465.806 114.852 467.551 117.748C469.296 120.644 471.761 123.031 474.704 124.673C477.647 126.316 480.965 127.157 484.331 127.113C487.696 127.07 490.991 126.143 493.891 124.425C496.791 122.707 499.195 120.257 500.866 117.317C502.536 114.377 503.414 111.05 503.414 107.664V37.8654H519.499C520.301 46.0446 523.897 53.6911 529.672 59.5027C535.448 65.3144 543.048 68.9318 551.177 69.7391V85.811Z" fill="#333333"/>
<path fill-rule="evenodd" clip-rule="evenodd" d="M746.385 841.077H740.361V843.666C740.361 844.591 739.611 845.34 738.687 845.34H708.674C707.749 845.34 707 844.591 707 843.666V841.077H698.615C696.661 841.077 695.077 842.661 695.077 844.615V943.861C695.077 945.815 696.661 947.399 698.615 947.399H746.385C748.339 947.399 749.923 945.815 749.923 943.861V844.615C749.923 842.661 748.339 841.077 746.385 841.077ZM698.615 834C692.753 834 688 838.753 688 844.615V943.861C688 949.724 692.753 954.476 698.615 954.476H746.385C752.247 954.476 757 949.724 757 943.861V844.615C757 838.753 752.247 834 746.385 834H698.615ZM723.045 929.539C719.416 929.539 716.474 932.482 716.474 936.111C716.474 939.74 719.416 942.682 723.045 942.682C726.674 942.682 729.616 939.74 729.616 936.111C729.616 932.482 726.674 929.539 723.045 929.539Z" fill="#333333"/>
<rect x="252" y="211" width="495" height="495" rx="3.59347" fill="white"/>
<path d="M607.508 259.584H701.441V353.517" stroke="#C2C2C2" stroke-width="17.8487"/>
<path d="M391.461 259.584H297.528V353.517" stroke="#C2C2C2" stroke-width="17.8487"/>
<path d="M607.508 663.492H701.441V569.559" stroke="#C2C2C2" stroke-width="17.8487"/>
<path d="M391.461 663.492H297.528V569.559" stroke="#C2C2C2" stroke-width="17.8487"/>
<path d="M393.382 420.815L385.997 399.322L378.148 420.815H393.382ZM382.552 392.102H390.004L407.656 440.752H400.436L395.501 426.18H376.26L370.994 440.752H364.238L382.552 392.102ZM416.63 423.431C416.63 427.229 417.436 430.408 419.048 432.969C420.66 435.53 423.243 436.811 426.798 436.811C429.557 436.811 431.82 435.63 433.587 433.267C435.375 430.883 436.269 427.472 436.269 423.034C436.269 418.552 435.353 415.24 433.52 413.099C431.688 410.935 429.425 409.853 426.731 409.853C423.729 409.853 421.289 411.001 419.412 413.297C417.558 415.594 416.63 418.972 416.63 423.431ZM425.605 404.654C428.321 404.654 430.595 405.228 432.428 406.376C433.487 407.038 434.691 408.197 436.037 409.853V391.937H441.767V440.752H436.402V435.817C435.011 438.003 433.366 439.582 431.467 440.553C429.568 441.525 427.394 442.01 424.943 442.01C420.991 442.01 417.569 440.355 414.676 437.043C411.784 433.709 410.338 429.282 410.338 423.763C410.338 418.596 411.652 414.125 414.279 410.35C416.928 406.552 420.704 404.654 425.605 404.654ZM454.385 423.431C454.385 427.229 455.19 430.408 456.802 432.969C458.414 435.53 460.997 436.811 464.552 436.811C467.311 436.811 469.575 435.63 471.341 433.267C473.129 430.883 474.023 427.472 474.023 423.034C474.023 418.552 473.107 415.24 471.275 413.099C469.442 410.935 467.179 409.853 464.485 409.853C461.483 409.853 459.043 411.001 457.166 413.297C455.312 415.594 454.385 418.972 454.385 423.431ZM463.359 404.654C466.075 404.654 468.349 405.228 470.182 406.376C471.241 407.038 472.445 408.197 473.791 409.853V391.937H479.521V440.752H474.156V435.817C472.765 438.003 471.12 439.582 469.221 440.553C467.323 441.525 465.148 442.01 462.697 442.01C458.745 442.01 455.323 440.355 452.431 437.043C449.538 433.709 448.092 429.282 448.092 423.763C448.092 418.596 449.406 414.125 452.033 410.35C454.683 406.552 458.458 404.654 463.359 404.654ZM529.396 405.283H535.986C535.148 407.557 533.282 412.745 530.39 420.848C528.226 426.942 526.415 431.91 524.958 435.751C521.514 444.803 519.085 450.323 517.672 452.31C516.259 454.297 513.831 455.291 510.387 455.291C509.548 455.291 508.896 455.257 508.433 455.191C507.991 455.125 507.439 455.004 506.777 454.827V449.396C507.814 449.683 508.565 449.859 509.029 449.926C509.492 449.992 509.901 450.025 510.254 450.025C511.358 450.025 512.164 449.837 512.672 449.462C513.202 449.109 513.643 448.667 513.996 448.137C514.107 447.961 514.504 447.055 515.189 445.422C515.873 443.788 516.37 442.573 516.679 441.779L503.564 405.283H510.32L519.825 434.162L529.396 405.283ZM555.228 436.91C559.18 436.91 561.885 435.42 563.342 432.439C564.821 429.437 565.561 426.103 565.561 422.438C565.561 419.126 565.031 416.433 563.971 414.357C562.293 411.09 559.401 409.456 555.294 409.456C551.651 409.456 549.002 410.847 547.346 413.629C545.69 416.41 544.862 419.766 544.862 423.696C544.862 427.472 545.69 430.618 547.346 433.135C549.002 435.652 551.629 436.91 555.228 436.91ZM555.46 404.256C560.03 404.256 563.894 405.78 567.051 408.827C570.208 411.873 571.787 416.355 571.787 422.272C571.787 427.991 570.396 432.715 567.614 436.447C564.832 440.178 560.516 442.044 554.665 442.044C549.786 442.044 545.911 440.399 543.041 437.109C540.17 433.797 538.735 429.359 538.735 423.796C538.735 417.835 540.248 413.088 543.272 409.555C546.297 406.023 550.36 404.256 555.46 404.256ZM584.868 405.283V428.83C584.868 430.64 585.155 432.119 585.729 433.267C586.789 435.387 588.765 436.447 591.657 436.447C595.808 436.447 598.634 434.592 600.135 430.883C600.952 428.896 601.361 426.169 601.361 422.703V405.283H607.322V440.752H601.692L601.758 435.519C600.985 436.866 600.025 438.003 598.877 438.93C596.603 440.785 593.843 441.712 590.598 441.712C585.542 441.712 582.097 440.023 580.265 436.645C579.271 434.835 578.775 432.417 578.775 429.393V405.283H584.868ZM616.827 405.283H622.49V411.41C622.954 410.217 624.091 408.771 625.901 407.071C627.711 405.349 629.798 404.488 632.16 404.488C632.271 404.488 632.458 404.499 632.723 404.521C632.988 404.543 633.441 404.587 634.081 404.654V410.946C633.728 410.88 633.397 410.836 633.088 410.814C632.8 410.791 632.48 410.78 632.127 410.78C629.124 410.78 626.817 411.752 625.206 413.695C623.594 415.616 622.788 417.835 622.788 420.351V440.752H616.827V405.283Z" fill="#C2C2C2"/>
<path d="M393.983 525.349C391.797 526.078 389.181 526.442 386.134 526.442C379.776 526.442 374.521 524.543 370.37 520.746C365.336 516.175 362.819 509.463 362.819 500.61C362.819 491.69 365.403 484.945 370.569 480.375C374.786 476.644 380.03 474.778 386.3 474.778C392.614 474.778 397.913 476.754 402.196 480.706C407.142 485.277 409.615 491.668 409.615 499.881C409.615 504.231 409.085 507.874 408.025 510.81C407.164 513.614 405.895 515.944 404.217 517.798L409.847 523.064L404.515 528.628L398.62 523.064C396.831 524.146 395.286 524.907 393.983 525.349ZM391.797 516.54L386.863 511.837L392.129 506.339L397.063 511.042C397.836 509.452 398.377 508.061 398.686 506.869C399.172 505.081 399.414 502.994 399.414 500.61C399.414 495.135 398.288 490.907 396.036 487.926C393.807 484.923 390.539 483.422 386.234 483.422C382.193 483.422 378.97 484.857 376.563 487.727C374.157 490.597 372.953 494.892 372.953 500.61C372.953 507.3 374.676 512.091 378.12 514.983C380.35 516.86 383.021 517.798 386.134 517.798C387.304 517.798 388.43 517.655 389.512 517.368C390.108 517.213 390.87 516.937 391.797 516.54ZM438.162 505.942H427.631V525.084H417.662V476.269H441.606C445.029 476.335 447.656 476.754 449.488 477.527C451.343 478.3 452.911 479.437 454.191 480.938C455.251 482.175 456.09 483.543 456.708 485.045C457.326 486.546 457.635 488.257 457.635 490.178C457.635 492.496 457.05 494.781 455.88 497.033C454.71 499.263 452.778 500.842 450.085 501.769C452.337 502.674 453.926 503.966 454.853 505.644C455.803 507.3 456.278 509.839 456.278 513.261V516.54C456.278 518.77 456.366 520.282 456.542 521.077C456.807 522.335 457.426 523.263 458.397 523.859V525.084H447.17C446.861 524.002 446.64 523.13 446.508 522.468C446.243 521.099 446.099 519.697 446.077 518.262L446.011 513.725C445.967 510.612 445.393 508.536 444.289 507.498C443.207 506.461 441.165 505.942 438.162 505.942ZM444.355 497.066C446.386 496.139 447.402 494.307 447.402 491.569C447.402 488.61 446.42 486.623 444.455 485.608C443.351 485.034 441.695 484.747 439.487 484.747H427.631V497.861H439.189C441.485 497.861 443.207 497.596 444.355 497.066ZM515.79 501.935H506.12C505.943 500.588 505.49 499.374 504.762 498.292C503.702 496.835 502.057 496.106 499.827 496.106C496.648 496.106 494.473 497.685 493.303 500.842C492.685 502.52 492.376 504.75 492.376 507.532C492.376 510.181 492.685 512.312 493.303 513.923C494.429 516.926 496.549 518.427 499.662 518.427C501.87 518.427 503.437 517.831 504.364 516.639C505.292 515.447 505.855 513.901 506.053 512.003H515.691C515.47 514.873 514.432 517.588 512.578 520.149C509.619 524.278 505.236 526.342 499.43 526.342C493.623 526.342 489.351 524.62 486.613 521.176C483.876 517.732 482.507 513.261 482.507 507.763C482.507 501.559 484.019 496.735 487.044 493.291C490.069 489.847 494.241 488.125 499.562 488.125C504.088 488.125 507.787 489.14 510.657 491.171C513.549 493.203 515.26 496.79 515.79 501.935ZM552.418 493.556C555.465 497.376 556.988 501.891 556.988 507.101C556.988 512.4 555.465 516.937 552.418 520.712C549.371 524.466 544.746 526.342 538.542 526.342C532.338 526.342 527.712 524.466 524.666 520.712C521.619 516.937 520.095 512.4 520.095 507.101C520.095 501.891 521.619 497.376 524.666 493.556C527.712 489.736 532.338 487.827 538.542 487.827C544.746 487.827 549.371 489.736 552.418 493.556ZM538.509 495.808C535.749 495.808 533.618 496.79 532.117 498.755C530.638 500.698 529.898 503.48 529.898 507.101C529.898 510.722 530.638 513.515 532.117 515.48C533.618 517.445 535.749 518.427 538.509 518.427C541.269 518.427 543.388 517.445 544.867 515.48C546.347 513.515 547.086 510.722 547.086 507.101C547.086 503.48 546.347 500.698 544.867 498.755C543.388 496.79 541.269 495.808 538.509 495.808ZM596.63 476.335V525.084H587.457V520.083C586.11 522.225 584.575 523.781 582.853 524.753C581.131 525.724 578.99 526.21 576.428 526.21C572.211 526.21 568.657 524.51 565.765 521.11C562.894 517.688 561.459 513.305 561.459 507.962C561.459 501.802 562.872 496.956 565.698 493.423C568.546 489.891 572.344 488.125 577.091 488.125C579.277 488.125 581.219 488.61 582.92 489.582C584.62 490.531 585.999 491.856 587.059 493.556V476.335H596.63ZM571.196 507.267C571.196 510.601 571.858 513.261 573.183 515.248C574.486 517.257 576.473 518.262 579.144 518.262C581.816 518.262 583.847 517.268 585.238 515.281C586.629 513.294 587.324 510.722 587.324 507.565C587.324 503.149 586.209 499.992 583.979 498.093C582.61 496.945 581.021 496.371 579.21 496.371C576.451 496.371 574.419 497.42 573.117 499.517C571.836 501.593 571.196 504.176 571.196 507.267ZM636.14 514.486C635.897 516.628 634.782 518.803 632.795 521.011C629.704 524.521 625.376 526.276 619.813 526.276C615.22 526.276 611.169 524.797 607.658 521.838C604.148 518.88 602.393 514.067 602.393 507.399C602.393 501.151 603.971 496.36 607.129 493.026C610.308 489.692 614.425 488.025 619.481 488.025C622.484 488.025 625.189 488.588 627.595 489.714C630.002 490.84 631.989 492.618 633.556 495.046C634.969 497.188 635.886 499.672 636.305 502.498C636.548 504.154 636.647 506.538 636.603 509.651H611.898C612.03 513.272 613.167 515.811 615.309 517.268C616.611 518.173 618.179 518.626 620.011 518.626C621.954 518.626 623.533 518.074 624.747 516.97C625.41 516.374 625.995 515.546 626.502 514.486H636.14ZM626.8 503.425C626.646 500.93 625.884 499.042 624.515 497.762C623.169 496.459 621.491 495.808 619.481 495.808C617.296 495.808 615.596 496.492 614.381 497.861C613.189 499.23 612.438 501.085 612.129 503.425H626.8Z" fill="#C2C2C2"/>
<path d="M293.398 857.898H270.508V882H260.625V825.125H296.758V833.094H270.508V850.008H293.398V857.898ZM301.055 860.477C301.055 856.336 301.875 852.612 303.516 849.305C305.156 845.971 307.461 843.419 310.43 841.648C313.398 839.852 316.81 838.953 320.664 838.953C326.367 838.953 330.99 840.789 334.531 844.461C338.099 848.133 340.026 853.003 340.312 859.07L340.352 861.297C340.352 865.464 339.544 869.188 337.93 872.469C336.341 875.75 334.049 878.289 331.055 880.086C328.086 881.883 324.648 882.781 320.742 882.781C314.779 882.781 310 880.802 306.406 876.844C302.839 872.859 301.055 867.56 301.055 860.945V860.477ZM310.547 861.297C310.547 865.646 311.445 869.057 313.242 871.531C315.039 873.979 317.539 875.203 320.742 875.203C323.945 875.203 326.432 873.953 328.203 871.453C330 868.953 330.898 865.294 330.898 860.477C330.898 856.206 329.974 852.82 328.125 850.32C326.302 847.82 323.815 846.57 320.664 846.57C317.565 846.57 315.104 847.807 313.281 850.281C311.458 852.729 310.547 856.401 310.547 861.297ZM358.477 882H348.984V822H358.477V882ZM378.945 882H369.453V822H378.945V882ZM387.539 860.477C387.539 856.336 388.359 852.612 390 849.305C391.641 845.971 393.945 843.419 396.914 841.648C399.883 839.852 403.294 838.953 407.148 838.953C412.852 838.953 417.474 840.789 421.016 844.461C424.583 848.133 426.51 853.003 426.797 859.07L426.836 861.297C426.836 865.464 426.029 869.188 424.414 872.469C422.826 875.75 420.534 878.289 417.539 880.086C414.57 881.883 411.133 882.781 407.227 882.781C401.263 882.781 396.484 880.802 392.891 876.844C389.323 872.859 387.539 867.56 387.539 860.945V860.477ZM397.031 861.297C397.031 865.646 397.93 869.057 399.727 871.531C401.523 873.979 404.023 875.203 407.227 875.203C410.43 875.203 412.917 873.953 414.688 871.453C416.484 868.953 417.383 865.294 417.383 860.477C417.383 856.206 416.458 852.82 414.609 850.32C412.786 847.82 410.299 846.57 407.148 846.57C404.049 846.57 401.589 847.807 399.766 850.281C397.943 852.729 397.031 856.401 397.031 861.297ZM471.992 868.914L478.711 839.734H487.969L476.445 882H468.633L459.57 852.977L450.664 882H442.852L431.289 839.734H440.547L447.383 868.602L456.055 839.734H463.203L471.992 868.914ZM539.844 877.859C537.057 881.141 533.099 882.781 527.969 882.781C523.385 882.781 519.909 881.44 517.539 878.758C515.195 876.076 514.023 872.195 514.023 867.117V839.734H523.516V867C523.516 872.365 525.742 875.047 530.195 875.047C534.805 875.047 537.917 873.393 539.531 870.086V839.734H549.023V882H540.078L539.844 877.859ZM582.383 870.516C582.383 868.823 581.68 867.534 580.273 866.648C578.893 865.763 576.589 864.982 573.359 864.305C570.13 863.628 567.435 862.768 565.273 861.727C560.534 859.435 558.164 856.115 558.164 851.766C558.164 848.12 559.701 845.073 562.773 842.625C565.846 840.177 569.753 838.953 574.492 838.953C579.544 838.953 583.62 840.203 586.719 842.703C589.844 845.203 591.406 848.445 591.406 852.43H581.914C581.914 850.607 581.237 849.096 579.883 847.898C578.529 846.674 576.732 846.062 574.492 846.062C572.409 846.062 570.703 846.544 569.375 847.508C568.073 848.471 567.422 849.76 567.422 851.375C567.422 852.833 568.034 853.966 569.258 854.773C570.482 855.581 572.956 856.401 576.68 857.234C580.404 858.042 583.32 859.018 585.43 860.164C587.565 861.284 589.141 862.638 590.156 864.227C591.198 865.815 591.719 867.742 591.719 870.008C591.719 873.81 590.143 876.896 586.992 879.266C583.841 881.609 579.714 882.781 574.609 882.781C571.146 882.781 568.06 882.156 565.352 880.906C562.643 879.656 560.534 877.938 559.023 875.75C557.513 873.562 556.758 871.206 556.758 868.68H565.977C566.107 870.919 566.953 872.651 568.516 873.875C570.078 875.073 572.148 875.672 574.727 875.672C577.227 875.672 579.128 875.203 580.43 874.266C581.732 873.302 582.383 872.052 582.383 870.516ZM254.922 938.477C254.922 934.336 255.742 930.612 257.383 927.305C259.023 923.971 261.328 921.419 264.297 919.648C267.266 917.852 270.677 916.953 274.531 916.953C280.234 916.953 284.857 918.789 288.398 922.461C291.966 926.133 293.893 931.003 294.18 937.07L294.219 939.297C294.219 943.464 293.411 947.188 291.797 950.469C290.208 953.75 287.917 956.289 284.922 958.086C281.953 959.883 278.516 960.781 274.609 960.781C268.646 960.781 263.867 958.802 260.273 954.844C256.706 950.859 254.922 945.56 254.922 938.945V938.477ZM264.414 939.297C264.414 943.646 265.312 947.057 267.109 949.531C268.906 951.979 271.406 953.203 274.609 953.203C277.812 953.203 280.299 951.953 282.07 949.453C283.867 946.953 284.766 943.294 284.766 938.477C284.766 934.206 283.841 930.82 281.992 928.32C280.169 925.82 277.682 924.57 274.531 924.57C271.432 924.57 268.971 925.807 267.148 928.281C265.326 930.729 264.414 934.401 264.414 939.297ZM311.055 917.734L311.328 922.617C314.453 918.841 318.555 916.953 323.633 916.953C332.435 916.953 336.914 921.992 337.07 932.07V960H327.578V932.617C327.578 929.935 326.992 927.956 325.82 926.68C324.674 925.378 322.786 924.727 320.156 924.727C316.328 924.727 313.477 926.458 311.602 929.922V960H302.109V917.734H311.055ZM406.367 911.094H388.633V960H378.828V911.094H361.25V903.125H406.367V911.094ZM423.047 960H413.555V917.734H423.047V960ZM412.969 906.758C412.969 905.299 413.424 904.089 414.336 903.125C415.273 902.161 416.602 901.68 418.32 901.68C420.039 901.68 421.367 902.161 422.305 903.125C423.242 904.089 423.711 905.299 423.711 906.758C423.711 908.19 423.242 909.388 422.305 910.352C421.367 911.289 420.039 911.758 418.32 911.758C416.602 911.758 415.273 911.289 414.336 910.352C413.424 909.388 412.969 908.19 412.969 906.758ZM447.148 941.875L442.93 946.211V960H433.438V900H442.93V934.609L445.898 930.898L457.578 917.734H468.984L453.281 935.352L470.664 960H459.688L447.148 941.875ZM517.227 911.094H499.492V960H489.688V911.094H472.109V903.125H517.227V911.094ZM513.906 938.477C513.906 934.336 514.727 930.612 516.367 927.305C518.008 923.971 520.312 921.419 523.281 919.648C526.25 917.852 529.661 916.953 533.516 916.953C539.219 916.953 543.841 918.789 547.383 922.461C550.951 926.133 552.878 931.003 553.164 937.07L553.203 939.297C553.203 943.464 552.396 947.188 550.781 950.469C549.193 953.75 546.901 956.289 543.906 958.086C540.938 959.883 537.5 960.781 533.594 960.781C527.63 960.781 522.852 958.802 519.258 954.844C515.69 950.859 513.906 945.56 513.906 938.945V938.477ZM523.398 939.297C523.398 943.646 524.297 947.057 526.094 949.531C527.891 951.979 530.391 953.203 533.594 953.203C536.797 953.203 539.284 951.953 541.055 949.453C542.852 946.953 543.75 943.294 543.75 938.477C543.75 934.206 542.826 930.82 540.977 928.32C539.154 925.82 536.667 924.57 533.516 924.57C530.417 924.57 527.956 925.807 526.133 928.281C524.31 930.729 523.398 934.401 523.398 939.297ZM574.961 941.875L570.742 946.211V960H561.25V900H570.742V934.609L573.711 930.898L585.391 917.734H596.797L581.094 935.352L598.477 960H587.5L574.961 941.875Z" fill="#333333"/>
</svg>
