<svg width="1000" height="1000" viewBox="0 0 1000 1000" fill="none" xmlns="http://www.w3.org/2000/svg">
<g clip-path="url(#clip0_288_1147)">
<circle cx="500" cy="500" r="500" fill="#333333"/>
<circle cx="143" cy="126" r="109" fill="white"/>
<path d="M143 27C88.329 27 44 71.329 44 126C44 180.671 88.329 225 143 225C197.671 225 242 180.671 242 126C242 71.329 197.671 27 143 27ZM190.577 101.626C190.644 102.664 190.644 103.747 190.644 104.808C190.644 137.248 165.938 174.616 120.791 174.616C106.869 174.616 93.9641 170.572 83.0917 163.611C85.0806 163.832 86.981 163.921 89.0141 163.921C100.505 163.921 111.068 160.031 119.488 153.446C108.704 153.225 99.6433 146.154 96.5496 136.43C100.328 136.983 103.731 136.983 107.621 135.988C102.068 134.86 97.0772 131.845 93.4959 127.454C89.9147 123.063 87.9641 117.567 87.9754 111.901V111.592C91.2239 113.426 95.0469 114.553 99.0467 114.708C95.6842 112.467 92.9267 109.431 91.0186 105.869C89.1105 102.307 88.1108 98.3298 88.108 94.2891C88.108 89.7147 89.3013 85.5382 91.4449 81.9141C97.6081 89.5012 105.299 95.7065 114.017 100.127C122.736 104.547 132.287 107.083 142.05 107.57C138.58 90.8859 151.044 77.3839 166.026 77.3839C173.098 77.3839 179.462 80.3451 183.948 85.1183C189.495 84.0797 194.798 82.0025 199.527 79.2181C197.693 84.8973 193.848 89.6926 188.743 92.7201C193.693 92.1897 198.467 90.8196 202.886 88.8971C199.549 93.8029 195.373 98.1563 190.577 101.626V101.626Z" fill="#333333"/>
<rect x="244" y="173" width="511.285" height="511.285" rx="20" fill="white"/>
<path d="M611.199 223.186H708.222V320.209" stroke="#C2C2C2" stroke-width="18.4359"/>
<path d="M388.047 223.186H291.024V320.209" stroke="#C2C2C2" stroke-width="18.4359"/>
<path d="M611.199 640.383H708.222V543.36" stroke="#C2C2C2" stroke-width="18.4359"/>
<path d="M388.047 640.383H291.024V543.36" stroke="#C2C2C2" stroke-width="18.4359"/>
<path d="M390.044 389.743L382.415 367.543L374.308 389.743H390.044ZM378.858 360.086H386.554L404.787 410.336H397.33L392.233 395.285H372.358L366.919 410.336H359.941L378.858 360.086ZM414.057 392.446C414.057 396.368 414.889 399.652 416.554 402.297C418.219 404.943 420.887 406.265 424.559 406.265C427.409 406.265 429.747 405.045 431.571 402.605C433.418 400.142 434.342 396.619 434.342 392.035C434.342 387.406 433.395 383.985 431.503 381.773C429.61 379.538 427.272 378.421 424.49 378.421C421.389 378.421 418.869 379.606 416.93 381.978C415.015 384.35 414.057 387.839 414.057 392.446ZM423.327 373.05C426.132 373.05 428.481 373.643 430.374 374.829C431.468 375.513 432.711 376.71 434.102 378.421V359.915H440.02V410.336H434.479V405.239C433.042 407.497 431.343 409.127 429.382 410.131C427.421 411.134 425.174 411.636 422.643 411.636C418.561 411.636 415.026 409.925 412.039 406.505C409.051 403.061 407.558 398.489 407.558 392.788C407.558 387.451 408.915 382.833 411.628 378.934C414.365 375.011 418.265 373.05 423.327 373.05ZM453.053 392.446C453.053 396.368 453.886 399.652 455.55 402.297C457.215 404.943 459.883 406.265 463.555 406.265C466.405 406.265 468.743 405.045 470.567 402.605C472.415 400.142 473.338 396.619 473.338 392.035C473.338 387.406 472.392 383.985 470.499 381.773C468.606 379.538 466.269 378.421 463.486 378.421C460.385 378.421 457.865 379.606 455.927 381.978C454.011 384.35 453.053 387.839 453.053 392.446ZM462.323 373.05C465.128 373.05 467.477 373.643 469.37 374.829C470.465 375.513 471.708 376.71 473.099 378.421V359.915H479.016V410.336H473.475V405.239C472.038 407.497 470.339 409.127 468.378 410.131C466.417 411.134 464.171 411.636 461.639 411.636C457.557 411.636 454.022 409.925 451.035 406.505C448.048 403.061 446.554 398.489 446.554 392.788C446.554 387.451 447.911 382.833 450.625 378.934C453.361 375.011 457.261 373.05 462.323 373.05ZM530.533 373.7H537.34C536.473 376.049 534.546 381.408 531.559 389.777C529.324 396.072 527.454 401.203 525.949 405.171C522.391 414.521 519.883 420.222 518.423 422.274C516.964 424.327 514.455 425.353 510.898 425.353C510.031 425.353 509.358 425.319 508.879 425.25C508.423 425.182 507.853 425.056 507.169 424.874V419.264C508.241 419.56 509.016 419.743 509.495 419.811C509.974 419.88 510.396 419.914 510.761 419.914C511.901 419.914 512.733 419.72 513.258 419.332C513.805 418.968 514.261 418.511 514.626 417.964C514.74 417.782 515.151 416.847 515.858 415.159C516.565 413.472 517.078 412.217 517.397 411.396L503.851 373.7H510.829L520.647 403.529L530.533 373.7ZM557.214 406.368C561.296 406.368 564.09 404.829 565.595 401.75C567.123 398.648 567.887 395.205 567.887 391.419C567.887 387.999 567.339 385.216 566.245 383.073C564.512 379.698 561.524 378.01 557.283 378.01C553.52 378.01 550.783 379.447 549.073 382.32C547.362 385.194 546.507 388.66 546.507 392.719C546.507 396.619 547.362 399.869 549.073 402.468C550.783 405.068 553.497 406.368 557.214 406.368ZM557.454 372.64C562.174 372.64 566.165 374.213 569.426 377.36C572.687 380.507 574.318 385.137 574.318 391.248C574.318 397.155 572.881 402.035 570.008 405.889C567.134 409.743 562.676 411.67 556.633 411.67C551.593 411.67 547.591 409.971 544.626 406.573C541.661 403.152 540.179 398.569 540.179 392.822C540.179 386.665 541.741 381.762 544.865 378.113C547.99 374.464 552.186 372.64 557.454 372.64ZM587.83 373.7V398.021C587.83 399.891 588.126 401.419 588.719 402.605C589.814 404.794 591.855 405.889 594.842 405.889C599.129 405.889 602.048 403.973 603.599 400.142C604.443 398.09 604.865 395.273 604.865 391.693V373.7H611.022V410.336H605.207L605.275 404.931C604.477 406.322 603.485 407.497 602.299 408.455C599.95 410.37 597.1 411.328 593.747 411.328C588.525 411.328 584.968 409.583 583.075 406.094C582.049 404.224 581.535 401.727 581.535 398.603V373.7H587.83ZM620.84 373.7H626.689V380.028C627.168 378.797 628.342 377.303 630.212 375.547C632.082 373.768 634.237 372.879 636.677 372.879C636.792 372.879 636.985 372.89 637.259 372.913C637.533 372.936 638 372.982 638.662 373.05V379.549C638.297 379.481 637.955 379.435 637.635 379.413C637.339 379.39 637.008 379.378 636.643 379.378C633.542 379.378 631.159 380.382 629.494 382.389C627.829 384.373 626.997 386.665 626.997 389.264V410.336H620.84V373.7Z" fill="#C2C2C2"/>
<path d="M390.656 497.715C388.399 498.468 385.696 498.844 382.549 498.844C375.982 498.844 370.554 496.883 366.267 492.96C361.067 488.24 358.467 481.307 358.467 472.162C358.467 462.949 361.136 455.982 366.472 451.262C370.828 447.408 376.244 445.481 382.72 445.481C389.243 445.481 394.716 447.522 399.14 451.604C404.248 456.324 406.802 462.926 406.802 471.41C406.802 475.902 406.255 479.665 405.16 482.698C404.271 485.594 402.96 488 401.226 489.916L407.042 495.355L401.534 501.102L395.445 495.355C393.598 496.472 392.002 497.259 390.656 497.715ZM388.399 488.616L383.302 483.759L388.741 478.08L393.838 482.938C394.636 481.296 395.195 479.859 395.514 478.627C396.016 476.78 396.266 474.625 396.266 472.162C396.266 466.507 395.103 462.14 392.777 459.061C390.474 455.959 387.099 454.409 382.652 454.409C378.479 454.409 375.149 455.891 372.663 458.856C370.178 461.82 368.935 466.256 368.935 472.162C368.935 479.072 370.714 484.021 374.271 487.008C376.574 488.947 379.334 489.916 382.549 489.916C383.758 489.916 384.921 489.768 386.038 489.471C386.654 489.311 387.441 489.026 388.399 488.616ZM436.289 477.67H425.411V497.441H415.115V447.02H439.846C443.381 447.088 446.095 447.522 447.988 448.32C449.903 449.118 451.522 450.292 452.845 451.843C453.94 453.12 454.806 454.534 455.445 456.085C456.083 457.636 456.403 459.403 456.403 461.387C456.403 463.782 455.798 466.142 454.59 468.468C453.381 470.771 451.386 472.402 448.603 473.36C450.93 474.295 452.571 475.629 453.529 477.362C454.51 479.072 455 481.695 455 485.229V488.616C455 490.919 455.091 492.481 455.274 493.302C455.548 494.602 456.186 495.56 457.189 496.176V497.441H445.593C445.274 496.324 445.046 495.423 444.909 494.739C444.635 493.325 444.487 491.877 444.464 490.395L444.396 485.708C444.35 482.493 443.757 480.349 442.617 479.277C441.5 478.206 439.39 477.67 436.289 477.67ZM442.686 468.502C444.784 467.544 445.833 465.652 445.833 462.824C445.833 459.768 444.818 457.715 442.788 456.666C441.648 456.073 439.938 455.777 437.657 455.777H425.411V469.323H437.349C439.721 469.323 441.5 469.049 442.686 468.502ZM516.471 473.531H506.482C506.3 472.139 505.832 470.885 505.08 469.768C503.985 468.263 502.286 467.51 499.983 467.51C496.699 467.51 494.453 469.141 493.244 472.402C492.605 474.135 492.286 476.438 492.286 479.312C492.286 482.048 492.605 484.249 493.244 485.914C494.407 489.015 496.596 490.566 499.812 490.566C502.092 490.566 503.711 489.95 504.669 488.719C505.627 487.487 506.208 485.891 506.414 483.93H516.368C516.14 486.894 515.068 489.699 513.152 492.345C510.097 496.609 505.57 498.741 499.572 498.741C493.575 498.741 489.162 496.963 486.334 493.405C483.506 489.847 482.092 485.229 482.092 479.551C482.092 473.143 483.654 468.16 486.779 464.602C489.903 461.045 494.213 459.266 499.709 459.266C504.384 459.266 508.204 460.315 511.168 462.413C514.156 464.511 515.923 468.217 516.471 473.531ZM554.304 464.876C557.451 468.821 559.024 473.485 559.024 478.867C559.024 484.34 557.451 489.026 554.304 492.926C551.157 496.803 546.379 498.741 539.971 498.741C533.563 498.741 528.785 496.803 525.638 492.926C522.491 489.026 520.917 484.34 520.917 478.867C520.917 473.485 522.491 468.821 525.638 464.876C528.785 460.931 533.563 458.958 539.971 458.958C546.379 458.958 551.157 460.931 554.304 464.876ZM539.937 467.202C537.086 467.202 534.885 468.217 533.335 470.247C531.807 472.254 531.043 475.127 531.043 478.867C531.043 482.607 531.807 485.492 533.335 487.521C534.885 489.551 537.086 490.566 539.937 490.566C542.787 490.566 544.977 489.551 546.504 487.521C548.032 485.492 548.796 482.607 548.796 478.867C548.796 475.127 548.032 472.254 546.504 470.247C544.977 468.217 542.787 467.202 539.937 467.202ZM599.97 447.088V497.441H590.495V492.276C589.104 494.488 587.519 496.096 585.74 497.099C583.961 498.103 581.749 498.604 579.104 498.604C574.748 498.604 571.077 496.848 568.089 493.337C565.125 489.802 563.642 485.275 563.642 479.756C563.642 473.394 565.102 468.388 568.021 464.739C570.963 461.091 574.885 459.266 579.788 459.266C582.046 459.266 584.053 459.768 585.809 460.771C587.565 461.752 588.99 463.12 590.084 464.876V447.088H599.97ZM573.699 479.038C573.699 482.481 574.383 485.229 575.752 487.282C577.097 489.357 579.15 490.395 581.909 490.395C584.668 490.395 586.766 489.369 588.203 487.316C589.64 485.264 590.358 482.607 590.358 479.346C590.358 474.785 589.206 471.524 586.903 469.563C585.489 468.377 583.847 467.784 581.977 467.784C579.127 467.784 577.029 468.867 575.683 471.033C574.361 473.177 573.699 475.845 573.699 479.038ZM640.78 486.495C640.529 488.707 639.377 490.953 637.325 493.234C634.132 496.86 629.662 498.673 623.915 498.673C619.172 498.673 614.987 497.145 611.361 494.089C607.735 491.033 605.922 486.062 605.922 479.175C605.922 472.721 607.553 467.772 610.814 464.329C614.098 460.885 618.351 459.164 623.573 459.164C626.675 459.164 629.468 459.745 631.954 460.908C634.44 462.071 636.492 463.907 638.111 466.415C639.571 468.628 640.517 471.193 640.951 474.112C641.201 475.822 641.304 478.285 641.258 481.501H615.74C615.877 485.241 617.051 487.863 619.263 489.369C620.609 490.304 622.228 490.771 624.121 490.771C626.127 490.771 627.758 490.201 629.012 489.061C629.696 488.445 630.301 487.59 630.825 486.495H640.78ZM631.133 475.07C630.973 472.493 630.187 470.543 628.773 469.22C627.382 467.875 625.649 467.202 623.573 467.202C621.316 467.202 619.56 467.909 618.305 469.323C617.074 470.737 616.299 472.653 615.979 475.07H631.133Z" fill="#C2C2C2"/>
<rect x="242" y="716" width="513" height="148" rx="16" fill="white"/>
<path d="M397.519 804.913H382.928V844.596H373.113V804.913H358.719V796.963H397.519V804.913ZM440.768 830.855L447.18 796.963H456.961L446.395 844.596H436.515L428.761 812.731L421.008 844.596H411.128L400.561 796.963H410.343L416.788 830.79L424.639 796.963H432.949L440.768 830.855ZM472.73 844.596H462.916V796.963H472.73V844.596ZM516.731 804.913H502.141V844.596H492.326V804.913H477.932V796.963H516.731V804.913ZM558.737 804.913H544.146V844.596H534.332V804.913H519.938V796.963H558.737V804.913ZM593.022 823.953H574.179V836.711H596.294V844.596H564.364V796.963H596.229V804.913H574.179V816.265H593.022V823.953ZM619.685 827.159H611.866V844.596H602.052V796.963H619.75C625.377 796.963 629.718 798.217 632.771 800.725C635.824 803.233 637.351 806.777 637.351 811.357C637.351 814.607 636.642 817.322 635.225 819.503C633.829 821.663 631.702 823.386 628.845 824.672L639.15 844.138V844.596H628.616L619.685 827.159ZM611.866 819.209H619.783C622.248 819.209 624.156 818.587 625.508 817.344C626.861 816.079 627.537 814.345 627.537 812.143C627.537 809.896 626.893 808.13 625.606 806.843C624.341 805.556 622.389 804.913 619.75 804.913H611.866V819.209Z" fill="#333333"/>
<path d="M388.836 757.04H370.82V776H365.158V733.067H391.756V737.726H370.82V752.41H388.836V757.04ZM403.609 776H398.154V744.095H403.609V776ZM397.712 735.632C397.712 734.748 397.977 734.001 398.508 733.391C399.059 732.782 399.864 732.477 400.926 732.477C401.988 732.477 402.794 732.782 403.344 733.391C403.894 734.001 404.17 734.748 404.17 735.632C404.17 736.517 403.894 737.254 403.344 737.844C402.794 738.433 401.988 738.728 400.926 738.728C399.864 738.728 399.059 738.433 398.508 737.844C397.977 737.254 397.712 736.517 397.712 735.632ZM417.527 744.095L417.704 748.105C420.142 745.039 423.326 743.505 427.258 743.505C434.001 743.505 437.402 747.309 437.46 754.917V776H432.005V754.887C431.986 752.587 431.455 750.887 430.413 749.786C429.391 748.685 427.789 748.135 425.607 748.135C423.837 748.135 422.284 748.607 420.948 749.55C419.611 750.494 418.569 751.732 417.822 753.265V776H412.367V744.095H417.527ZM444.36 759.782C444.36 754.887 445.52 750.956 447.84 747.987C450.16 744.999 453.197 743.505 456.951 743.505C460.686 743.505 463.645 744.783 465.827 747.339V730.708H471.282V776H466.269L466.004 772.58C463.822 775.253 460.785 776.59 456.892 776.59C453.197 776.59 450.179 775.076 447.84 772.049C445.52 769.021 444.36 765.07 444.36 760.195V759.782ZM449.816 760.401C449.816 764.018 450.563 766.849 452.057 768.894C453.551 770.938 455.615 771.96 458.249 771.96C461.709 771.96 464.235 770.407 465.827 767.301V752.646C464.195 749.639 461.689 748.135 458.308 748.135C455.634 748.135 453.551 749.167 452.057 751.231C450.563 753.295 449.816 756.352 449.816 760.401ZM514.451 772.845C512.328 775.341 509.212 776.59 505.104 776.59C501.703 776.59 499.108 775.607 497.319 773.641C495.55 771.656 494.656 768.727 494.636 764.854V744.095H500.091V764.706C500.091 769.542 502.057 771.96 505.988 771.96C510.156 771.96 512.928 770.407 514.304 767.301V744.095H519.759V776H514.569L514.451 772.845ZM546.651 767.537C546.651 766.063 546.091 764.923 544.97 764.117C543.869 763.291 541.933 762.583 539.161 761.994C536.409 761.404 534.217 760.696 532.586 759.871C530.974 759.045 529.775 758.062 528.988 756.922C528.222 755.782 527.838 754.425 527.838 752.853C527.838 750.238 528.939 748.027 531.141 746.218C533.362 744.41 536.193 743.505 539.633 743.505C543.25 743.505 546.179 744.439 548.42 746.307C550.681 748.174 551.811 750.562 551.811 753.472H546.327C546.327 751.978 545.688 750.69 544.41 749.609C543.152 748.528 541.56 747.987 539.633 747.987C537.648 747.987 536.095 748.42 534.974 749.285C533.854 750.15 533.293 751.28 533.293 752.676C533.293 753.993 533.814 754.986 534.856 755.654C535.898 756.322 537.775 756.961 540.488 757.571C543.221 758.18 545.432 758.907 547.123 759.753C548.813 760.598 550.062 761.62 550.868 762.819C551.693 763.999 552.106 765.444 552.106 767.154C552.106 770.004 550.966 772.294 548.686 774.024C546.405 775.735 543.447 776.59 539.81 776.59C537.255 776.59 534.994 776.138 533.028 775.233C531.062 774.329 529.519 773.071 528.399 771.459C527.298 769.827 526.747 768.068 526.747 766.181H532.202C532.301 768.009 533.028 769.464 534.384 770.545C535.761 771.606 537.569 772.137 539.81 772.137C541.874 772.137 543.525 771.724 544.764 770.899C546.022 770.053 546.651 768.933 546.651 767.537ZM572.747 759.753C572.747 756.627 573.357 753.816 574.575 751.319C575.814 748.823 577.524 746.896 579.706 745.54C581.908 744.183 584.414 743.505 587.225 743.505C591.57 743.505 595.079 745.009 597.752 748.017C600.445 751.024 601.792 755.025 601.792 760.018V760.401C601.792 763.507 601.192 766.299 599.993 768.776C598.814 771.233 597.113 773.15 594.892 774.526C592.69 775.902 590.154 776.59 587.284 776.59C582.96 776.59 579.451 775.086 576.757 772.078C574.084 769.071 572.747 765.09 572.747 760.136V759.753ZM578.232 760.401C578.232 763.94 579.048 766.78 580.679 768.923C582.33 771.066 584.532 772.137 587.284 772.137C590.056 772.137 592.258 771.056 593.889 768.894C595.521 766.712 596.337 763.665 596.337 759.753C596.337 756.253 595.501 753.423 593.83 751.26C592.179 749.078 589.977 747.987 587.225 747.987C584.532 747.987 582.36 749.059 580.709 751.201C579.057 753.344 578.232 756.411 578.232 760.401ZM613.793 744.095L613.97 748.105C616.408 745.039 619.592 743.505 623.524 743.505C630.267 743.505 633.667 747.309 633.726 754.917V776H628.271V754.887C628.252 752.587 627.721 750.887 626.679 749.786C625.657 748.685 624.055 748.135 621.873 748.135C620.103 748.135 618.55 748.607 617.214 749.55C615.877 750.494 614.835 751.732 614.088 753.265V776H608.633V744.095H613.793Z" fill="#333333"/>
</g>
<defs>
<clipPath id="clip0_288_1147">
<rect width="1000" height="1000" fill="white"/>
</clipPath>
</defs>
</svg>
