<svg width="1000" height="1000" viewBox="0 0 1000 1000" fill="none" xmlns="http://www.w3.org/2000/svg">
<rect x="462" y="129" width="234" height="105" rx="24" fill="#333333"/>
<path d="M347.218 84.1753L353.008 52.5234H365.072L354.36 103H341.741L334.98 74.2256L328.359 103H315.774L305.027 52.5234H317.126L322.916 84.1753L329.85 52.5234H340.181L347.218 84.1753ZM389.236 103C388.82 102.237 388.45 101.116 388.126 99.6372C385.977 102.341 382.972 103.693 379.113 103.693C375.577 103.693 372.572 102.63 370.099 100.504C367.626 98.3545 366.39 95.6619 366.39 92.4263C366.39 88.3586 367.892 85.2847 370.896 83.2046C373.901 81.1245 378.269 80.0845 384.001 80.0845H387.606V78.1084C387.606 74.6647 386.116 72.9429 383.134 72.9429C380.361 72.9429 378.974 74.3065 378.974 77.0337H367.291C367.291 73.4051 368.828 70.4583 371.902 68.1934C374.999 65.9284 378.939 64.7959 383.724 64.7959C388.508 64.7959 392.287 65.9631 395.06 68.2974C397.833 70.6317 399.255 73.8327 399.324 77.9004V94.5063C399.37 97.95 399.902 100.585 400.919 102.411V103H389.236ZM381.921 95.373C383.377 95.373 384.579 95.061 385.526 94.437C386.497 93.813 387.19 93.1081 387.606 92.3223V86.3247H384.209C380.141 86.3247 378.107 88.1506 378.107 91.8022C378.107 92.8654 378.466 93.7321 379.182 94.4023C379.899 95.0495 380.812 95.373 381.921 95.373ZM419.432 56.1636V65.4893H425.603V73.6016H419.432V90.7622C419.432 92.172 419.686 93.1543 420.194 93.709C420.703 94.2637 421.708 94.541 423.21 94.541C424.366 94.541 425.337 94.4717 426.123 94.333V102.688C424.019 103.358 421.824 103.693 419.536 103.693C415.514 103.693 412.544 102.746 410.626 100.851C408.708 98.9554 407.749 96.078 407.749 92.2183V73.6016H402.964V65.4893H407.749V56.1636H419.432ZM446.091 94.6797C447.732 94.6797 449.003 94.2406 449.905 93.3623C450.806 92.4609 451.245 91.2129 451.222 89.6182H462.177C462.177 93.7321 460.698 97.1064 457.74 99.7412C454.805 102.376 451.014 103.693 446.369 103.693C440.914 103.693 436.615 101.983 433.472 98.5625C430.329 95.1419 428.757 90.404 428.757 84.3486V83.8633C428.757 80.0729 429.451 76.7332 430.837 73.8442C432.247 70.9321 434.27 68.7018 436.904 67.1533C439.539 65.5817 442.659 64.7959 446.265 64.7959C451.141 64.7959 455.013 66.1479 457.878 68.8521C460.744 71.5562 462.177 75.2194 462.177 79.8418H451.222C451.222 77.9004 450.748 76.4097 449.801 75.3696C448.853 74.3296 447.582 73.8096 445.987 73.8096C442.96 73.8096 441.192 75.7394 440.683 79.5991C440.521 80.8241 440.44 82.5112 440.44 84.6606C440.44 88.4279 440.891 91.0396 441.792 92.4956C442.694 93.9517 444.127 94.6797 446.091 94.6797ZM478.541 69.5107C481.037 66.3675 484.226 64.7959 488.109 64.7959C492.246 64.7959 495.366 66.0208 497.469 68.4707C499.572 70.9206 500.647 74.5376 500.693 79.3218V103H488.976V79.5991C488.976 77.6115 488.571 76.1554 487.762 75.231C486.953 74.2834 485.578 73.8096 483.637 73.8096C481.233 73.8096 479.534 74.5723 478.541 76.0977V103H466.857V49.75H478.541V69.5107ZM547.218 98.9438C544.745 102.11 541.405 103.693 537.199 103.693C533.085 103.693 529.965 102.503 527.838 100.123C525.735 97.7189 524.684 94.2752 524.684 89.7915V65.4893H536.367V89.8608C536.367 93.0734 537.927 94.6797 541.047 94.6797C543.728 94.6797 545.635 93.7205 546.767 91.8022V65.4893H558.52V103H547.564L547.218 98.9438ZM584.59 92.4609C584.59 91.4671 584.07 90.6698 583.03 90.0688C581.99 89.4679 580.014 88.8439 577.102 88.1968C574.189 87.5496 571.786 86.7061 569.891 85.666C567.995 84.6029 566.551 83.3201 565.557 81.8179C564.563 80.3156 564.066 78.5938 564.066 76.6523C564.066 73.2087 565.488 70.3774 568.331 68.1587C571.173 65.9168 574.894 64.7959 579.494 64.7959C584.44 64.7959 588.415 65.9168 591.419 68.1587C594.424 70.4006 595.926 73.3473 595.926 76.999H584.208C584.208 73.9945 582.625 72.4922 579.459 72.4922C578.234 72.4922 577.206 72.8389 576.374 73.5322C575.542 74.2025 575.125 75.0461 575.125 76.063C575.125 77.103 575.634 77.9466 576.651 78.5938C577.668 79.2409 579.286 79.7725 581.504 80.1885C583.746 80.6045 585.711 81.1014 587.398 81.6792C593.037 83.6206 595.857 87.099 595.857 92.1143C595.857 95.5348 594.332 98.3198 591.281 100.469C588.253 102.619 584.324 103.693 579.494 103.693C576.281 103.693 573.415 103.116 570.896 101.96C568.377 100.804 566.412 99.2327 565.002 97.2451C563.593 95.2575 562.888 93.1659 562.888 90.9702H573.808C573.854 92.7036 574.432 93.9748 575.542 94.7837C576.651 95.5695 578.072 95.9624 579.806 95.9624C581.4 95.9624 582.591 95.6388 583.376 94.9917C584.185 94.3446 584.59 93.501 584.59 92.4609ZM617.559 83.8979C617.559 80.1538 618.287 76.8257 619.743 73.9136C621.199 70.9784 623.291 68.7249 626.018 67.1533C628.745 65.5817 631.946 64.7959 635.621 64.7959C641.237 64.7959 645.663 66.5409 648.899 70.0308C652.135 73.4976 653.752 78.224 653.752 84.21V84.626C653.752 90.4733 652.123 95.1188 648.864 98.5625C645.629 101.983 641.237 103.693 635.69 103.693C630.352 103.693 626.064 102.099 622.829 98.9092C619.593 95.6966 617.848 91.3516 617.594 85.874L617.559 83.8979ZM629.242 84.626C629.242 88.0928 629.785 90.6351 630.872 92.2529C631.958 93.8708 633.564 94.6797 635.69 94.6797C639.851 94.6797 641.977 91.4787 642.069 85.0767V83.8979C642.069 77.1724 639.92 73.8096 635.621 73.8096C631.715 73.8096 629.6 76.7101 629.277 82.5112L629.242 84.626ZM669.63 65.4893L670.012 69.8921C672.6 66.4946 676.171 64.7959 680.724 64.7959C684.63 64.7959 687.542 65.9631 689.46 68.2974C691.402 70.6317 692.407 74.1447 692.477 78.8364V103H680.759V79.3218C680.759 77.4266 680.377 76.0399 679.615 75.1616C678.852 74.2603 677.465 73.8096 675.455 73.8096C673.167 73.8096 671.468 74.7109 670.358 76.5137V103H658.675V65.4893H669.63Z" fill="#333333"/>
<path d="M331.875 176.594L343.391 149.438H359.676L339.523 189.527V212H324.227V189.527L304.117 149.438H320.316L331.875 176.594ZM358.902 188.324C358.902 183.684 359.805 179.559 361.609 175.949C363.414 172.311 366.007 169.518 369.387 167.57C372.767 165.622 376.734 164.648 381.289 164.648C388.25 164.648 393.736 166.811 397.746 171.137C401.757 175.434 403.762 181.292 403.762 188.711V189.227C403.762 196.474 401.742 202.232 397.703 206.5C393.693 210.74 388.25 212.859 381.375 212.859C374.758 212.859 369.444 210.883 365.434 206.93C361.423 202.948 359.26 197.562 358.945 190.773L358.902 188.324ZM373.383 189.227C373.383 193.523 374.056 196.674 375.402 198.68C376.749 200.685 378.74 201.688 381.375 201.688C386.531 201.688 389.167 197.72 389.281 189.785V188.324C389.281 179.988 386.617 175.82 381.289 175.82C376.448 175.82 373.827 179.415 373.426 186.605L373.383 189.227ZM437.836 206.973C434.771 210.897 430.632 212.859 425.418 212.859C420.319 212.859 416.452 211.384 413.816 208.434C411.21 205.454 409.906 201.186 409.906 195.629V165.508H424.387V195.715C424.387 199.697 426.32 201.688 430.188 201.688C433.51 201.688 435.874 200.499 437.277 198.121V165.508H451.844V212H438.266L437.836 206.973Z" fill="#333333"/>
<path d="M532.895 161.082H514.117V212H499.035V161.082H480.602V149.438H532.895V161.082ZM563.488 206.973C560.423 210.897 556.284 212.859 551.07 212.859C545.971 212.859 542.104 211.384 539.469 208.434C536.862 205.454 535.559 201.186 535.559 195.629V165.508H550.039V195.715C550.039 199.697 551.973 201.688 555.84 201.688C559.163 201.688 561.526 200.499 562.93 198.121V165.508H577.496V212H563.918L563.488 206.973ZM628.629 189.141C628.629 196.76 627.053 202.618 623.902 206.715C620.751 210.811 616.311 212.859 610.582 212.859C605.855 212.859 602.046 210.983 599.152 207.23L598.551 212H585.574V146H600.055V169.246C602.747 166.181 606.228 164.648 610.496 164.648C616.283 164.648 620.751 166.725 623.902 170.879C627.053 175.033 628.629 180.876 628.629 188.41V189.141ZM614.105 188.238C614.105 183.77 613.504 180.59 612.301 178.699C611.126 176.78 609.307 175.82 606.844 175.82C603.578 175.82 601.315 177.066 600.055 179.559V198.035C601.286 200.499 603.578 201.73 606.93 201.73C610.339 201.73 612.501 200.069 613.418 196.746C613.876 195.113 614.105 192.277 614.105 188.238ZM657.547 212.859C650.414 212.859 644.642 210.74 640.23 206.5C635.819 202.232 633.613 196.689 633.613 189.871V188.668C633.613 183.913 634.487 179.716 636.234 176.078C638.01 172.44 640.589 169.633 643.969 167.656C647.349 165.651 651.359 164.648 656 164.648C662.531 164.648 667.688 166.682 671.469 170.75C675.25 174.789 677.141 180.432 677.141 187.68V193.309H648.352C648.867 195.915 649.999 197.964 651.746 199.453C653.493 200.943 655.757 201.688 658.535 201.688C663.118 201.688 666.699 200.083 669.277 196.875L675.895 204.695C674.09 207.188 671.526 209.178 668.203 210.668C664.909 212.129 661.357 212.859 657.547 212.859ZM655.914 175.82C651.674 175.82 649.154 178.628 648.352 184.242H662.961V183.125C663.018 180.805 662.431 179.014 661.199 177.754C659.967 176.465 658.206 175.82 655.914 175.82Z" fill="white"/>
<rect x="130" y="260" width="740" height="740" rx="16" fill="#333333"/>
<rect x="152" y="282" width="696.715" height="696.715" rx="9.9106" fill="white"/>
<path d="M652.371 350.385H784.582V482.596" stroke="#C2C2C2" stroke-width="25.1221"/>
<path d="M348.285 350.385H216.074V482.596" stroke="#C2C2C2" stroke-width="25.1221"/>
<path d="M652.371 918.889H784.582V786.677" stroke="#C2C2C2" stroke-width="25.1221"/>
<path d="M348.285 918.889H216.074V786.677" stroke="#C2C2C2" stroke-width="25.1221"/>
<path d="M351.008 577.865L340.613 547.613L329.566 577.865H351.008ZM335.765 537.451H346.253L371.098 605.926H360.937L353.991 585.416H326.909L319.497 605.926H309.988L335.765 537.451ZM383.73 581.547C383.73 586.892 384.865 591.367 387.133 594.972C389.402 598.576 393.038 600.379 398.041 600.379C401.925 600.379 405.11 598.716 407.596 595.391C410.114 592.035 411.372 587.234 411.372 580.988C411.372 574.679 410.082 570.018 407.503 567.004C404.924 563.958 401.739 562.436 397.947 562.436C393.721 562.436 390.287 564.051 387.646 567.283C385.036 570.515 383.73 575.27 383.73 581.547ZM396.363 555.117C400.185 555.117 403.386 555.925 405.965 557.541C407.457 558.473 409.15 560.105 411.046 562.436V537.218H419.11V605.926H411.559V598.98C409.601 602.057 407.286 604.279 404.613 605.646C401.941 607.013 398.88 607.697 395.43 607.697C389.868 607.697 385.051 605.366 380.98 600.705C376.909 596.013 374.874 589.782 374.874 582.013C374.874 574.741 376.723 568.449 380.421 563.135C384.15 557.79 389.464 555.117 396.363 555.117ZM436.87 581.547C436.87 586.892 438.004 591.367 440.272 594.972C442.541 598.576 446.177 600.379 451.18 600.379C455.064 600.379 458.25 598.716 460.736 595.391C463.253 592.035 464.511 587.234 464.511 580.988C464.511 574.679 463.222 570.018 460.642 567.004C458.063 563.958 454.878 562.436 451.087 562.436C446.86 562.436 443.427 564.051 440.785 567.283C438.175 570.515 436.87 575.27 436.87 581.547ZM449.502 555.117C453.324 555.117 456.525 555.925 459.104 557.541C460.596 558.473 462.289 560.105 464.185 562.436V537.218H472.249V605.926H464.698V598.98C462.74 602.057 460.425 604.279 457.752 605.646C455.08 607.013 452.019 607.697 448.57 607.697C443.007 607.697 438.19 605.366 434.119 600.705C430.049 596.013 428.013 589.782 428.013 582.013C428.013 574.741 429.862 568.449 433.56 563.135C437.289 557.79 442.603 555.117 449.502 555.117ZM542.449 556.003H551.725C550.544 559.204 547.918 566.506 543.847 577.911C540.802 586.488 538.254 593.48 536.203 598.887C531.355 611.628 527.936 619.397 525.948 622.194C523.959 624.991 520.54 626.389 515.693 626.389C514.512 626.389 513.595 626.342 512.943 626.249C512.321 626.156 511.544 625.985 510.612 625.736V618.092C512.072 618.496 513.129 618.744 513.782 618.838C514.434 618.931 515.009 618.978 515.506 618.978C517.06 618.978 518.194 618.713 518.909 618.185C519.655 617.688 520.276 617.066 520.774 616.321C520.929 616.072 521.488 614.798 522.452 612.498C523.415 610.199 524.114 608.49 524.549 607.371L506.09 556.003H515.599L528.977 596.65L542.449 556.003ZM578.807 600.519C584.37 600.519 588.176 598.421 590.227 594.226C592.309 590 593.35 585.307 593.35 580.149C593.35 575.487 592.605 571.696 591.113 568.775C588.751 564.176 584.68 561.876 578.9 561.876C573.773 561.876 570.044 563.834 567.713 567.749C565.382 571.665 564.217 576.388 564.217 581.92C564.217 587.234 565.382 591.662 567.713 595.205C570.044 598.747 573.742 600.519 578.807 600.519ZM579.133 554.558C585.566 554.558 591.004 556.702 595.448 560.991C599.892 565.279 602.114 571.587 602.114 579.916C602.114 587.964 600.156 594.614 596.24 599.866C592.325 605.118 586.25 607.744 578.015 607.744C571.147 607.744 565.693 605.429 561.653 600.798C557.614 596.137 555.594 589.891 555.594 582.06C555.594 573.669 557.722 566.988 561.98 562.016C566.237 557.044 571.955 554.558 579.133 554.558ZM620.526 556.003V589.145C620.526 591.693 620.93 593.775 621.738 595.391C623.23 598.374 626.011 599.866 630.082 599.866C635.924 599.866 639.902 597.256 642.015 592.035C643.165 589.238 643.739 585.4 643.739 580.522V556.003H652.13V605.926H644.206L644.299 598.561C643.211 600.456 641.859 602.057 640.243 603.362C637.043 605.972 633.158 607.278 628.59 607.278C621.474 607.278 616.626 604.9 614.047 600.146C612.648 597.598 611.949 594.195 611.949 589.937V556.003H620.526ZM665.508 556.003H673.479V564.626C674.131 562.948 675.732 560.913 678.28 558.52C680.828 556.096 683.765 554.884 687.09 554.884C687.245 554.884 687.509 554.9 687.882 554.931C688.255 554.962 688.892 555.024 689.793 555.117V563.974C689.296 563.881 688.83 563.818 688.395 563.787C687.991 563.756 687.54 563.741 687.043 563.741C682.817 563.741 679.57 565.108 677.301 567.843C675.033 570.546 673.898 573.669 673.898 577.212V605.926H665.508V556.003Z" fill="#C2C2C2"/>
<path d="M351.842 724.996C348.766 726.021 345.083 726.534 340.795 726.534C331.845 726.534 324.449 723.862 318.607 718.517C311.522 712.084 307.979 702.637 307.979 690.176C307.979 677.621 311.615 668.128 318.887 661.695C324.822 656.443 332.202 653.817 341.028 653.817C349.915 653.817 357.374 656.599 363.402 662.161C370.363 668.594 373.844 677.59 373.844 689.15C373.844 695.272 373.098 700.4 371.606 704.533C370.394 708.479 368.607 711.758 366.246 714.368L374.17 721.78L366.665 729.611L358.368 721.78C355.851 723.302 353.676 724.374 351.842 724.996ZM348.766 712.597L341.82 705.978L349.232 698.24L356.177 704.859C357.265 702.622 358.026 700.664 358.461 698.986C359.145 696.469 359.487 693.532 359.487 690.176C359.487 682.469 357.902 676.518 354.732 672.323C351.594 668.097 346.994 665.984 340.935 665.984C335.248 665.984 330.711 668.003 327.324 672.043C323.936 676.083 322.243 682.127 322.243 690.176C322.243 699.592 324.667 706.335 329.514 710.406C332.653 713.047 336.413 714.368 340.795 714.368C342.442 714.368 344.027 714.166 345.549 713.762C346.388 713.545 347.46 713.156 348.766 712.597ZM414.024 697.681H399.201V724.623H385.171V655.915H418.872C423.689 656.008 427.387 656.599 429.966 657.686C432.576 658.774 434.783 660.374 436.585 662.488C438.077 664.228 439.258 666.154 440.128 668.268C440.998 670.381 441.433 672.789 441.433 675.493C441.433 678.756 440.609 681.972 438.962 685.142C437.315 688.28 434.596 690.502 430.805 691.807C433.975 693.081 436.212 694.899 437.517 697.261C438.854 699.592 439.522 703.165 439.522 707.982V712.597C439.522 715.735 439.646 717.864 439.895 718.983C440.268 720.754 441.138 722.059 442.505 722.898V724.623H426.703C426.268 723.1 425.957 721.873 425.771 720.941C425.398 719.014 425.196 717.041 425.165 715.021L425.072 708.635C425.009 704.253 424.202 701.332 422.648 699.871C421.125 698.411 418.251 697.681 414.024 697.681ZM422.741 685.188C425.6 683.883 427.029 681.304 427.029 677.45C427.029 673.286 425.647 670.489 422.881 669.06C421.327 668.252 418.996 667.848 415.889 667.848H399.201V686.307H415.469C418.701 686.307 421.125 685.934 422.741 685.188ZM523.286 692.04H509.675C509.426 690.145 508.789 688.436 507.764 686.913C506.272 684.862 503.957 683.836 500.818 683.836C496.343 683.836 493.282 686.058 491.635 690.502C490.765 692.864 490.33 696.002 490.33 699.918C490.33 703.647 490.765 706.646 491.635 708.914C493.22 713.141 496.204 715.254 500.585 715.254C503.693 715.254 505.899 714.415 507.204 712.737C508.509 711.059 509.302 708.883 509.582 706.211H523.146C522.835 710.251 521.375 714.073 518.764 717.678C514.6 723.489 508.432 726.394 500.259 726.394C492.086 726.394 486.073 723.97 482.22 719.123C478.366 714.275 476.44 707.982 476.44 700.244C476.44 691.512 478.568 684.722 482.826 679.874C487.083 675.026 492.956 672.603 500.445 672.603C506.816 672.603 512.021 674.032 516.061 676.891C520.132 679.75 522.54 684.8 523.286 692.04ZM574.84 680.247C579.129 685.623 581.273 691.978 581.273 699.312C581.273 706.77 579.129 713.156 574.84 718.47C570.552 723.753 564.041 726.394 555.309 726.394C546.577 726.394 540.067 723.753 535.778 718.47C531.49 713.156 529.346 706.77 529.346 699.312C529.346 691.978 531.49 685.623 535.778 680.247C540.067 674.871 546.577 672.183 555.309 672.183C564.041 672.183 570.552 674.871 574.84 680.247ZM555.263 683.417C551.378 683.417 548.379 684.8 546.266 687.565C544.184 690.3 543.143 694.216 543.143 699.312C543.143 704.408 544.184 708.339 546.266 711.105C548.379 713.871 551.378 715.254 555.263 715.254C559.147 715.254 562.13 713.871 564.212 711.105C566.294 708.339 567.335 704.408 567.335 699.312C567.335 694.216 566.294 690.3 564.212 687.565C562.13 684.8 559.147 683.417 555.263 683.417ZM637.069 656.008V724.623H624.157V717.584C622.261 720.599 620.102 722.79 617.678 724.157C615.254 725.524 612.24 726.208 608.635 726.208C602.699 726.208 597.696 723.815 593.625 719.029C589.586 714.213 587.566 708.044 587.566 700.524C587.566 691.854 589.554 685.033 593.532 680.061C597.541 675.089 602.886 672.603 609.567 672.603C612.644 672.603 615.378 673.286 617.771 674.654C620.164 675.99 622.106 677.854 623.598 680.247V656.008H637.069ZM601.27 699.545C601.27 704.237 602.202 707.982 604.067 710.779C605.9 713.607 608.697 715.021 612.457 715.021C616.217 715.021 619.076 713.622 621.034 710.826C622.992 708.029 623.971 704.408 623.971 699.965C623.971 693.75 622.401 689.306 619.263 686.633C617.336 685.017 615.099 684.209 612.55 684.209C608.666 684.209 605.807 685.685 603.973 688.638C602.171 691.559 601.27 695.195 601.27 699.545ZM692.679 709.707C692.337 712.721 690.767 715.782 687.971 718.89C683.62 723.831 677.529 726.301 669.698 726.301C663.235 726.301 657.532 724.219 652.591 720.055C647.65 715.891 645.18 709.116 645.18 699.732C645.18 690.937 647.402 684.194 651.845 679.501C656.32 674.809 662.116 672.463 669.232 672.463C673.458 672.463 677.265 673.255 680.652 674.84C684.04 676.425 686.836 678.926 689.043 682.345C691.032 685.359 692.321 688.855 692.912 692.833C693.254 695.163 693.393 698.52 693.331 702.901H658.558C658.744 707.998 660.345 711.571 663.359 713.622C665.192 714.896 667.399 715.533 669.978 715.533C672.713 715.533 674.934 714.757 676.644 713.203C677.576 712.364 678.399 711.198 679.114 709.707H692.679ZM679.534 694.138C679.316 690.626 678.244 687.969 676.317 686.167C674.422 684.334 672.06 683.417 669.232 683.417C666.156 683.417 663.763 684.38 662.054 686.307C660.376 688.234 659.319 690.844 658.884 694.138H679.534Z" fill="#C2C2C2"/>
</svg>
