<svg width="1000" height="1000" viewBox="0 0 1000 1000" fill="none" xmlns="http://www.w3.org/2000/svg">
<rect width="1000" height="1000" rx="167" fill="#333333"/>
<rect x="42.5" y="42.5" width="915" height="915" rx="150.474" stroke="white" stroke-width="7"/>
<rect x="223" y="128" width="579" height="579" rx="51.3525" fill="white"/>
<path d="M638.828 184.83H748.701V294.703" stroke="#C2C2C2" stroke-width="20.8776"/>
<path d="M386.121 184.83H276.248V294.703" stroke="#C2C2C2" stroke-width="20.8776"/>
<path d="M638.828 657.279H748.701V547.406" stroke="#C2C2C2" stroke-width="20.8776"/>
<path d="M386.121 657.279H276.248V547.406" stroke="#C2C2C2" stroke-width="20.8776"/>
<path d="M388.382 373.237L379.744 348.096L370.563 373.237H388.382ZM375.715 339.651H384.431L405.078 396.557H396.633L390.861 379.512H368.355L362.196 396.557H354.293L375.715 339.651ZM415.576 376.297C415.576 380.739 416.519 384.458 418.404 387.453C420.289 390.449 423.311 391.947 427.468 391.947C430.697 391.947 433.344 390.565 435.41 387.802C437.502 385.013 438.547 381.023 438.547 375.832C438.547 370.59 437.476 366.716 435.332 364.211C433.189 361.68 430.542 360.414 427.391 360.414C423.879 360.414 421.025 361.757 418.83 364.443C416.661 367.129 415.576 371.08 415.576 376.297ZM426.074 354.333C429.25 354.333 431.91 355.004 434.054 356.347C435.293 357.122 436.701 358.478 438.276 360.414V339.457H444.978V396.557H438.702V390.785C437.075 393.341 435.151 395.188 432.93 396.324C430.71 397.461 428.166 398.029 425.299 398.029C420.676 398.029 416.674 396.092 413.29 392.218C409.907 388.318 408.216 383.141 408.216 376.684C408.216 370.641 409.752 365.412 412.826 360.995C415.925 356.554 420.341 354.333 426.074 354.333ZM459.737 376.297C459.737 380.739 460.68 384.458 462.565 387.453C464.45 390.449 467.472 391.947 471.629 391.947C474.858 391.947 477.505 390.565 479.571 387.802C481.662 385.013 482.708 381.023 482.708 375.832C482.708 370.59 481.637 366.716 479.493 364.211C477.35 361.68 474.703 360.414 471.552 360.414C468.04 360.414 465.186 361.757 462.991 364.443C460.822 367.129 459.737 371.08 459.737 376.297ZM470.235 354.333C473.411 354.333 476.071 355.004 478.215 356.347C479.454 357.122 480.862 358.478 482.437 360.414V339.457H489.139V396.557H482.863V390.785C481.236 393.341 479.312 395.188 477.091 396.324C474.87 397.461 472.327 398.029 469.46 398.029C464.837 398.029 460.834 396.092 457.451 392.218C454.068 388.318 452.377 383.141 452.377 376.684C452.377 370.641 453.913 365.412 456.987 360.995C460.086 356.554 464.502 354.333 470.235 354.333ZM547.478 355.069H555.186C554.205 357.729 552.023 363.798 548.64 373.275C546.109 380.403 543.991 386.214 542.287 390.707C538.258 401.296 535.417 407.752 533.765 410.076C532.112 412.4 529.271 413.562 525.242 413.562C524.261 413.562 523.499 413.524 522.957 413.446C522.44 413.369 521.795 413.227 521.02 413.02V406.667C522.234 407.003 523.112 407.209 523.654 407.287C524.196 407.364 524.674 407.403 525.087 407.403C526.379 407.403 527.321 407.184 527.915 406.745C528.535 406.331 529.051 405.815 529.465 405.195C529.594 404.989 530.059 403.93 530.859 402.019C531.66 400.108 532.241 398.687 532.602 397.758L517.262 355.069H525.165L536.283 388.848L547.478 355.069ZM577.693 392.063C582.316 392.063 585.479 390.32 587.184 386.833C588.914 383.321 589.779 379.422 589.779 375.135C589.779 371.261 589.159 368.11 587.92 365.683C585.957 361.861 582.574 359.95 577.771 359.95C573.509 359.95 570.41 361.577 568.473 364.831C566.537 368.084 565.568 372.01 565.568 376.607C565.568 381.023 566.537 384.703 568.473 387.647C570.41 390.591 573.484 392.063 577.693 392.063ZM577.964 353.868C583.31 353.868 587.829 355.65 591.522 359.214C595.215 362.777 597.062 368.02 597.062 374.941C597.062 381.63 595.435 387.156 592.181 391.521C588.927 395.885 583.878 398.067 577.035 398.067C571.327 398.067 566.795 396.143 563.438 392.295C560.08 388.422 558.402 383.231 558.402 376.723C558.402 369.75 560.171 364.198 563.709 360.066C567.247 355.934 571.999 353.868 577.964 353.868ZM612.363 355.069V382.611C612.363 384.729 612.699 386.459 613.37 387.802C614.61 390.281 616.921 391.521 620.304 391.521C625.16 391.521 628.465 389.351 630.221 385.013C631.177 382.689 631.655 379.499 631.655 375.445V355.069H638.627V396.557H632.042L632.119 390.436C631.216 392.011 630.092 393.341 628.749 394.426C626.089 396.595 622.861 397.68 619.065 397.68C613.151 397.68 609.122 395.704 606.979 391.753C605.817 389.636 605.236 386.808 605.236 383.27V355.069H612.363ZM649.745 355.069H656.369V362.235C656.912 360.841 658.242 359.149 660.359 357.16C662.477 355.146 664.917 354.139 667.681 354.139C667.81 354.139 668.029 354.152 668.339 354.178C668.649 354.203 669.178 354.255 669.927 354.333V361.693C669.514 361.615 669.127 361.564 668.765 361.538C668.43 361.512 668.055 361.499 667.642 361.499C664.13 361.499 661.431 362.635 659.546 364.908C657.66 367.155 656.718 369.75 656.718 372.694V396.557H649.745V355.069Z" fill="#C2C2C2"/>
<path d="M389.08 495.511C386.523 496.363 383.463 496.789 379.899 496.789C372.461 496.789 366.315 494.568 361.46 490.127C355.571 484.781 352.627 476.93 352.627 466.574C352.627 456.141 355.649 448.251 361.692 442.905C366.625 438.541 372.758 436.359 380.092 436.359C387.478 436.359 393.676 438.67 398.686 443.293C404.471 448.639 407.364 456.115 407.364 465.722C407.364 470.809 406.744 475.071 405.504 478.505C404.497 481.785 403.012 484.51 401.049 486.679L407.635 492.838L401.398 499.346L394.503 492.838C392.411 494.104 390.603 494.995 389.08 495.511ZM386.523 485.207L380.751 479.706L386.91 473.276L392.682 478.776C393.586 476.917 394.219 475.29 394.58 473.895C395.148 471.804 395.433 469.363 395.433 466.574C395.433 460.169 394.115 455.224 391.481 451.738C388.873 448.225 385.051 446.469 380.015 446.469C375.289 446.469 371.518 448.148 368.704 451.505C365.889 454.862 364.481 459.885 364.481 466.574C364.481 474.399 366.495 480.003 370.524 483.386C373.133 485.581 376.257 486.679 379.899 486.679C381.267 486.679 382.585 486.511 383.85 486.175C384.547 485.995 385.438 485.672 386.523 485.207ZM440.756 472.811H428.437V495.201H416.777V438.102H444.784C448.787 438.179 451.86 438.67 454.004 439.574C456.173 440.478 458.007 441.808 459.505 443.564C460.744 445.01 461.726 446.611 462.449 448.367C463.172 450.123 463.533 452.125 463.533 454.372C463.533 457.083 462.849 459.756 461.48 462.39C460.111 464.999 457.852 466.845 454.701 467.93C457.335 468.989 459.195 470.499 460.279 472.462C461.39 474.399 461.945 477.369 461.945 481.372V485.207C461.945 487.815 462.048 489.584 462.255 490.514C462.565 491.986 463.288 493.071 464.424 493.768V495.201H451.292C450.931 493.936 450.672 492.916 450.517 492.141C450.208 490.54 450.04 488.9 450.014 487.221L449.936 481.914C449.885 478.273 449.213 475.845 447.922 474.631C446.657 473.418 444.268 472.811 440.756 472.811ZM447.999 462.429C450.375 461.344 451.563 459.201 451.563 455.999C451.563 452.538 450.414 450.214 448.116 449.026C446.824 448.354 444.888 448.019 442.305 448.019H428.437V463.359H441.956C444.642 463.359 446.657 463.049 447.999 462.429ZM531.557 468.124H520.245C520.039 466.548 519.509 465.128 518.657 463.862C517.417 462.158 515.493 461.306 512.885 461.306C509.166 461.306 506.622 463.152 505.254 466.845C504.531 468.808 504.169 471.416 504.169 474.67C504.169 477.769 504.531 480.261 505.254 482.147C506.571 485.659 509.05 487.415 512.691 487.415C515.274 487.415 517.107 486.718 518.192 485.323C519.277 483.929 519.935 482.121 520.168 479.9H531.44C531.182 483.257 529.968 486.434 527.799 489.429C524.338 494.259 519.212 496.673 512.42 496.673C505.628 496.673 500.631 494.659 497.429 490.63C494.226 486.601 492.625 481.372 492.625 474.941C492.625 467.685 494.394 462.042 497.932 458.013C501.47 453.984 506.351 451.97 512.575 451.97C517.869 451.97 522.195 453.158 525.552 455.534C528.935 457.91 530.937 462.106 531.557 468.124ZM574.4 458.323C577.964 462.791 579.746 468.072 579.746 474.167C579.746 480.365 577.964 485.672 574.4 490.088C570.837 494.478 565.426 496.673 558.169 496.673C550.912 496.673 545.502 494.478 541.938 490.088C538.374 485.672 536.592 480.365 536.592 474.167C536.592 468.072 538.374 462.791 541.938 458.323C545.502 453.855 550.912 451.621 558.169 451.621C565.426 451.621 570.837 453.855 574.4 458.323ZM558.131 460.957C554.902 460.957 552.41 462.106 550.654 464.405C548.924 466.677 548.059 469.931 548.059 474.167C548.059 478.402 548.924 481.669 550.654 483.967C552.41 486.266 554.902 487.415 558.131 487.415C561.359 487.415 563.838 486.266 565.568 483.967C567.299 481.669 568.164 478.402 568.164 474.167C568.164 469.931 567.299 466.677 565.568 464.405C563.838 462.106 561.359 460.957 558.131 460.957ZM626.115 438.179V495.201H615.385V489.352C613.81 491.857 612.015 493.677 610 494.814C607.986 495.95 605.481 496.518 602.485 496.518C597.553 496.518 593.395 494.53 590.012 490.553C586.654 486.55 584.976 481.423 584.976 475.174C584.976 467.969 586.629 462.3 589.934 458.168C593.266 454.036 597.708 451.97 603.26 451.97C605.817 451.97 608.089 452.538 610.078 453.674C612.066 454.785 613.68 456.334 614.92 458.323V438.179H626.115ZM596.365 474.36C596.365 478.26 597.139 481.372 598.689 483.696C600.213 486.046 602.537 487.221 605.662 487.221C608.787 487.221 611.162 486.059 612.789 483.735C614.416 481.411 615.23 478.402 615.23 474.709C615.23 469.544 613.926 465.851 611.317 463.63C609.716 462.287 607.857 461.616 605.739 461.616C602.511 461.616 600.135 462.842 598.611 465.296C597.114 467.723 596.365 470.745 596.365 474.36ZM672.329 482.805C672.045 485.31 670.741 487.854 668.417 490.436C664.801 494.543 659.739 496.596 653.232 496.596C647.86 496.596 643.121 494.865 639.015 491.405C634.909 487.944 632.856 482.314 632.856 474.515C632.856 467.207 634.702 461.603 638.395 457.703C642.114 453.804 646.93 451.854 652.844 451.854C656.356 451.854 659.52 452.512 662.335 453.829C665.15 455.146 667.474 457.225 669.308 460.066C670.96 462.571 672.032 465.476 672.523 468.782C672.807 470.719 672.923 473.508 672.872 477.149H643.973C644.128 481.385 645.458 484.355 647.963 486.059C649.487 487.118 651.32 487.647 653.464 487.647C655.737 487.647 657.583 487.002 659.003 485.71C659.778 485.013 660.463 484.045 661.057 482.805H672.329ZM661.405 469.867C661.224 466.949 660.333 464.74 658.732 463.243C657.157 461.719 655.194 460.957 652.844 460.957C650.287 460.957 648.299 461.758 646.879 463.359C645.484 464.96 644.606 467.129 644.244 469.867H661.405Z" fill="#C2C2C2"/>
<path d="M262.827 828.964H242.838V850H236.557V802.367H266.066V807.536H242.838V823.828H262.827V828.964ZM280.33 850H274.048V802.367H280.33V850ZM328.453 850H322.139L298.159 813.294V850H291.845V802.367H298.159L322.205 839.237V802.367H328.453V850ZM339.609 850V802.367H353.055C357.199 802.367 360.863 803.283 364.047 805.115C367.231 806.947 369.685 809.554 371.408 812.934C373.153 816.315 374.036 820.197 374.058 824.581V827.623C374.058 832.116 373.185 836.053 371.44 839.433C369.717 842.814 367.242 845.409 364.014 847.219C360.808 849.029 357.068 849.956 352.793 850H339.609ZM345.89 807.536V844.864H352.499C357.34 844.864 361.103 843.359 363.785 840.349C366.49 837.339 367.842 833.054 367.842 827.492V824.711C367.842 819.303 366.566 815.104 364.014 812.116C361.484 809.106 357.886 807.58 353.218 807.536H345.89ZM433.729 802.367V834.755C433.708 839.248 432.29 842.923 429.477 845.78C426.685 848.637 422.89 850.24 418.092 850.589L416.423 850.654C411.211 850.654 407.056 849.248 403.959 846.434C400.862 843.621 399.292 839.749 399.248 834.82V802.367H405.464V834.624C405.464 838.07 406.413 840.753 408.31 842.672C410.208 844.569 412.912 845.518 416.423 845.518C419.978 845.518 422.694 844.569 424.569 842.672C426.467 840.774 427.416 838.103 427.416 834.657V802.367H433.729ZM457.677 828.768C452.29 827.22 448.364 825.322 445.899 823.076C443.457 820.807 442.235 818.016 442.235 814.701C442.235 810.949 443.729 807.852 446.717 805.41C449.727 802.945 453.631 801.713 458.429 801.713C461.701 801.713 464.612 802.345 467.164 803.61C469.738 804.875 471.722 806.62 473.118 808.845C474.536 811.069 475.245 813.501 475.245 816.14H468.931C468.931 813.261 468.015 811.004 466.183 809.368C464.351 807.711 461.766 806.882 458.429 806.882C455.332 806.882 452.911 807.569 451.167 808.943C449.444 810.295 448.582 812.182 448.582 814.603C448.582 816.544 449.4 818.19 451.036 819.542C452.693 820.873 455.496 822.094 459.443 823.207C463.413 824.319 466.51 825.551 468.734 826.903C470.981 828.234 472.638 829.793 473.707 831.582C474.798 833.37 475.343 835.475 475.343 837.896C475.343 841.756 473.838 844.853 470.828 847.187C467.818 849.498 463.794 850.654 458.756 850.654C455.485 850.654 452.431 850.033 449.596 848.79C446.761 847.525 444.569 845.802 443.021 843.621C441.494 841.44 440.73 838.964 440.73 836.194H447.044C447.044 839.073 448.102 841.352 450.218 843.032C452.355 844.689 455.201 845.518 458.756 845.518C462.071 845.518 464.612 844.842 466.379 843.49C468.146 842.138 469.029 840.295 469.029 837.961C469.029 835.627 468.211 833.828 466.575 832.563C464.939 831.276 461.973 830.011 457.677 828.768ZM536.683 827.721C536.683 832.389 535.898 836.467 534.328 839.957C532.757 843.424 530.533 846.074 527.654 847.906C524.775 849.738 521.416 850.654 517.578 850.654C513.826 850.654 510.5 849.738 507.6 847.906C504.699 846.052 502.442 843.424 500.828 840.022C499.236 836.598 498.418 832.639 498.374 828.146V824.711C498.374 820.131 499.17 816.086 500.762 812.574C502.354 809.063 504.601 806.38 507.501 804.526C510.424 802.651 513.761 801.713 517.512 801.713C521.329 801.713 524.688 802.64 527.588 804.494C530.511 806.326 532.757 808.997 534.328 812.509C535.898 815.998 536.683 820.066 536.683 824.711V827.721ZM530.435 824.646C530.435 818.997 529.3 814.668 527.032 811.658C524.764 808.627 521.591 807.111 517.512 807.111C513.543 807.111 510.413 808.627 508.123 811.658C505.855 814.668 504.688 818.855 504.623 824.221V827.721C504.623 833.195 505.768 837.503 508.058 840.644C510.369 843.762 513.543 845.322 517.578 845.322C521.634 845.322 524.775 843.85 527 840.905C529.224 837.939 530.369 833.697 530.435 828.179V824.646ZM582.713 850H576.399L552.419 813.294V850H546.105V802.367H552.419L576.464 839.237V802.367H582.713V850ZM625.013 826.282L637.445 802.367H644.577L628.154 832.236V850H621.873V832.236L605.45 802.367H612.647L625.013 826.282ZM686.386 827.721C686.386 832.389 685.601 836.467 684.031 839.957C682.46 843.424 680.236 846.074 677.357 847.906C674.478 849.738 671.119 850.654 667.281 850.654C663.529 850.654 660.203 849.738 657.303 847.906C654.402 846.052 652.145 843.424 650.531 840.022C648.939 836.598 648.121 832.639 648.077 828.146V824.711C648.077 820.131 648.873 816.086 650.465 812.574C652.057 809.063 654.304 806.38 657.205 804.526C660.127 802.651 663.464 801.713 667.215 801.713C671.032 801.713 674.391 802.64 677.292 804.494C680.214 806.326 682.46 808.997 684.031 812.509C685.601 815.998 686.386 820.066 686.386 824.711V827.721ZM680.138 824.646C680.138 818.997 679.004 814.668 676.735 811.658C674.467 808.627 671.294 807.111 667.215 807.111C663.246 807.111 660.116 808.627 657.826 811.658C655.558 814.668 654.391 818.855 654.326 824.221V827.721C654.326 833.195 655.471 837.503 657.761 840.644C660.073 843.762 663.246 845.322 667.281 845.322C671.337 845.322 674.478 843.85 676.703 840.905C678.927 837.939 680.072 833.697 680.138 828.179V824.646ZM729.341 802.367V834.755C729.319 839.248 727.901 842.923 725.088 845.78C722.296 848.637 718.501 850.24 713.703 850.589L712.035 850.654C706.822 850.654 702.667 849.248 699.57 846.434C696.473 843.621 694.903 839.749 694.859 834.82V802.367H701.075V834.624C701.075 838.07 702.024 840.753 703.921 842.672C705.819 844.569 708.523 845.518 712.035 845.518C715.59 845.518 718.305 844.569 720.181 842.672C722.078 840.774 723.027 838.103 723.027 834.657V802.367H729.341ZM772.165 807.536H756.854V850H750.605V807.536H735.328V802.367H772.165V807.536ZM812.764 802.367V834.755C812.742 839.248 811.324 842.923 808.511 845.78C805.719 848.637 801.924 850.24 797.126 850.589L795.458 850.654C790.245 850.654 786.09 849.248 782.993 846.434C779.896 843.621 778.326 839.749 778.282 834.82V802.367H784.498V834.624C784.498 838.07 785.447 840.753 787.344 842.672C789.242 844.569 791.946 845.518 795.458 845.518C799.013 845.518 801.728 844.569 803.604 842.672C805.501 840.774 806.45 838.103 806.45 834.657V802.367H812.764ZM822.676 850V802.367H838.249C843.417 802.367 847.3 803.436 849.895 805.573C852.512 807.711 853.821 810.873 853.821 815.061C853.821 817.285 853.188 819.259 851.923 820.982C850.658 822.683 848.935 824.003 846.754 824.94C849.328 825.66 851.356 827.034 852.839 829.062C854.344 831.069 855.097 833.468 855.097 836.26C855.097 840.535 853.712 843.893 850.942 846.336C848.172 848.779 844.257 850 839.197 850H822.676ZM828.958 827.721V844.864H839.328C842.251 844.864 844.552 844.111 846.231 842.606C847.932 841.08 848.783 838.986 848.783 836.325C848.783 830.589 845.664 827.721 839.426 827.721H828.958ZM828.958 822.683H838.445C841.193 822.683 843.385 821.996 845.021 820.622C846.678 819.248 847.507 817.383 847.507 815.028C847.507 812.411 846.743 810.513 845.217 809.335C843.69 808.136 841.367 807.536 838.249 807.536H828.958V822.683ZM891.345 827.983H870.702V844.864H894.682V850H864.42V802.367H894.354V807.536H870.702V822.847H891.345V827.983Z" fill="white"/>
<path d="M189 818.536C191.667 820.075 191.667 823.925 189 825.464L126 861.837C123.333 863.377 120 861.452 120 858.373L120 785.627C120 782.548 123.333 780.623 126 782.163L189 818.536Z" fill="white"/>
</svg>
