<svg width="1000" height="1000" viewBox="0 0 1000 1000" fill="none" xmlns="http://www.w3.org/2000/svg">
<g clip-path="url(#clip0_288_1122)">
<path d="M244 833H922C938.569 833 952 846.431 952 863V928C952 944.569 938.569 958 922 958H244V833Z" fill="#333333"/>
<rect x="111.5" width="776" height="776" rx="20.8123" fill="#333333"/>
<rect x="151.137" y="39.6426" width="696.715" height="696.715" rx="9.9106" fill="white"/>
<path d="M651.508 108.027H783.719V240.239" stroke="#C2C2C2" stroke-width="25.1221"/>
<path d="M347.422 108.027H215.211V240.239" stroke="#C2C2C2" stroke-width="25.1221"/>
<path d="M651.508 676.531H783.719V544.32" stroke="#C2C2C2" stroke-width="25.1221"/>
<path d="M347.422 676.531H215.211V544.32" stroke="#C2C2C2" stroke-width="25.1221"/>
<path d="M350.145 335.507L339.75 305.255L328.702 335.507H350.145ZM334.902 295.093H345.39L370.235 363.568H360.073L353.128 343.059H326.046L318.634 363.568H309.125L334.902 295.093ZM382.867 339.19C382.867 344.535 384.001 349.009 386.27 352.614C388.538 356.219 392.174 358.021 397.177 358.021C401.062 358.021 404.247 356.359 406.733 353.034C409.25 349.678 410.509 344.876 410.509 338.63C410.509 332.322 409.219 327.661 406.64 324.646C404.061 321.601 400.875 320.078 397.084 320.078C392.858 320.078 389.424 321.694 386.783 324.926C384.172 328.158 382.867 332.912 382.867 339.19ZM395.499 312.76C399.322 312.76 402.522 313.568 405.102 315.184C406.593 316.116 408.287 317.747 410.183 320.078V294.86H418.247V363.568H410.695V356.623C408.738 359.699 406.422 361.921 403.75 363.289C401.077 364.656 398.016 365.34 394.567 365.34C389.005 365.34 384.188 363.009 380.117 358.348C376.046 353.655 374.011 347.425 374.011 339.656C374.011 332.384 375.86 326.091 379.558 320.777C383.287 315.432 388.601 312.76 395.499 312.76ZM436.006 339.19C436.006 344.535 437.141 349.009 439.409 352.614C441.678 356.219 445.313 358.021 450.317 358.021C454.201 358.021 457.386 356.359 459.872 353.034C462.389 349.678 463.648 344.876 463.648 338.63C463.648 332.322 462.358 327.661 459.779 324.646C457.2 321.601 454.015 320.078 450.223 320.078C445.997 320.078 442.563 321.694 439.922 324.926C437.311 328.158 436.006 332.912 436.006 339.19ZM448.639 312.76C452.461 312.76 455.662 313.568 458.241 315.184C459.732 316.116 461.426 317.747 463.322 320.078V294.86H471.386V363.568H463.834V356.623C461.877 359.699 459.562 361.921 456.889 363.289C454.217 364.656 451.156 365.34 447.706 365.34C442.144 365.34 437.327 363.009 433.256 358.348C429.185 353.655 427.15 347.425 427.15 339.656C427.15 332.384 428.999 326.091 432.697 320.777C436.426 315.432 441.74 312.76 448.639 312.76ZM541.585 313.646H550.862C549.681 316.846 547.055 324.149 542.984 335.554C539.938 344.131 537.39 351.123 535.339 356.53C530.491 369.271 527.073 377.04 525.084 379.836C523.096 382.633 519.677 384.032 514.829 384.032C513.649 384.032 512.732 383.985 512.079 383.892C511.458 383.799 510.681 383.628 509.749 383.379V375.734C511.209 376.138 512.266 376.387 512.918 376.48C513.571 376.573 514.146 376.62 514.643 376.62C516.197 376.62 517.331 376.356 518.046 375.828C518.792 375.33 519.413 374.709 519.91 373.963C520.066 373.715 520.625 372.44 521.588 370.141C522.552 367.841 523.251 366.132 523.686 365.013L505.227 313.646H514.736L528.114 354.292L541.585 313.646ZM577.944 358.161C583.506 358.161 587.313 356.064 589.364 351.868C591.446 347.642 592.487 342.95 592.487 337.791C592.487 333.13 591.741 329.339 590.25 326.418C587.888 321.818 583.817 319.519 578.037 319.519C572.91 319.519 569.181 321.477 566.85 325.392C564.519 329.308 563.354 334.031 563.354 339.563C563.354 344.876 564.519 349.305 566.85 352.847C569.181 356.39 572.879 358.161 577.944 358.161ZM578.27 312.2C584.703 312.2 590.141 314.345 594.585 318.633C599.029 322.922 601.25 329.23 601.25 337.558C601.25 345.607 599.293 352.257 595.377 357.509C591.462 362.76 585.386 365.386 577.151 365.386C570.284 365.386 564.83 363.071 560.79 358.441C556.75 353.78 554.73 347.533 554.73 339.702C554.73 331.312 556.859 324.631 561.116 319.659C565.374 314.687 571.092 312.2 578.27 312.2ZM619.663 313.646V346.788C619.663 349.336 620.067 351.418 620.875 353.034C622.366 356.017 625.148 357.509 629.218 357.509C635.061 357.509 639.038 354.898 641.151 349.678C642.301 346.881 642.876 343.043 642.876 338.164V313.646H651.267V363.568H643.342L643.436 356.203C642.348 358.099 640.996 359.699 639.38 361.005C636.179 363.615 632.295 364.92 627.727 364.92C620.611 364.92 615.763 362.543 613.183 357.788C611.785 355.24 611.086 351.837 611.086 347.58V313.646H619.663ZM664.645 313.646H672.615V322.269C673.268 320.591 674.868 318.555 677.417 316.163C679.965 313.739 682.901 312.527 686.227 312.527C686.382 312.527 686.646 312.542 687.019 312.573C687.392 312.604 688.029 312.667 688.93 312.76V321.616C688.433 321.523 687.967 321.461 687.532 321.43C687.128 321.399 686.677 321.383 686.18 321.383C681.954 321.383 678.706 322.751 676.438 325.485C674.169 328.189 673.035 331.312 673.035 334.855V363.568H664.645V313.646Z" fill="#C2C2C2"/>
<path d="M350.979 482.639C347.902 483.664 344.22 484.177 339.932 484.177C330.982 484.177 323.586 481.504 317.744 476.159C310.658 469.727 307.116 460.28 307.116 447.818C307.116 435.264 310.752 425.77 318.023 419.338C323.959 414.086 331.339 411.46 340.165 411.46C349.052 411.46 356.51 414.241 362.539 419.804C369.5 426.236 372.98 435.233 372.98 446.793C372.98 452.915 372.235 458.042 370.743 462.175C369.531 466.122 367.744 469.4 365.382 472.011L373.307 479.422L365.802 487.253L357.505 479.422C354.988 480.945 352.812 482.017 350.979 482.639ZM347.902 470.239L340.957 463.62L348.369 455.882L355.314 462.502C356.402 460.264 357.163 458.306 357.598 456.628C358.282 454.111 358.623 451.175 358.623 447.818C358.623 440.112 357.039 434.161 353.869 429.965C350.73 425.739 346.131 423.626 340.071 423.626C334.385 423.626 329.847 425.646 326.46 429.686C323.073 433.726 321.379 439.77 321.379 447.818C321.379 457.234 323.803 463.978 328.651 468.049C331.79 470.69 335.55 472.011 339.932 472.011C341.579 472.011 343.163 471.809 344.686 471.405C345.525 471.187 346.597 470.799 347.902 470.239ZM413.161 455.323H398.338V482.266H384.307V413.558H418.009C422.826 413.651 426.523 414.241 429.103 415.329C431.713 416.417 433.919 418.017 435.722 420.13C437.213 421.87 438.394 423.797 439.264 425.91C440.135 428.023 440.57 430.432 440.57 433.135C440.57 436.398 439.746 439.614 438.099 442.784C436.452 445.923 433.733 448.145 429.942 449.45C433.112 450.724 435.349 452.542 436.654 454.904C437.99 457.234 438.658 460.808 438.658 465.625V470.239C438.658 473.378 438.783 475.507 439.031 476.625C439.404 478.397 440.274 479.702 441.642 480.541V482.266H425.84C425.405 480.743 425.094 479.515 424.908 478.583C424.535 476.656 424.333 474.683 424.302 472.663L424.208 466.277C424.146 461.896 423.338 458.975 421.784 457.514C420.262 456.053 417.387 455.323 413.161 455.323ZM421.878 442.831C424.737 441.526 426.166 438.946 426.166 435.093C426.166 430.929 424.783 428.132 422.018 426.703C420.464 425.895 418.133 425.491 415.026 425.491H398.338V443.949H414.606C417.838 443.949 420.262 443.577 421.878 442.831ZM522.423 449.683H508.812C508.563 447.787 507.926 446.078 506.9 444.555C505.409 442.504 503.094 441.479 499.955 441.479C495.48 441.479 492.419 443.701 490.772 448.145C489.902 450.506 489.467 453.645 489.467 457.561C489.467 461.29 489.902 464.288 490.772 466.557C492.357 470.783 495.34 472.896 499.722 472.896C502.829 472.896 505.036 472.057 506.341 470.379C507.646 468.701 508.439 466.526 508.718 463.853H522.283C521.972 467.893 520.511 471.715 517.901 475.32C513.737 481.131 507.568 484.037 499.396 484.037C491.223 484.037 485.21 481.613 481.356 476.765C477.503 471.917 475.576 465.625 475.576 457.887C475.576 449.155 477.705 442.365 481.962 437.517C486.22 432.669 492.093 430.245 499.582 430.245C505.953 430.245 511.158 431.675 515.198 434.534C519.268 437.393 521.677 442.442 522.423 449.683ZM573.977 437.89C578.265 443.266 580.41 449.621 580.41 456.955C580.41 464.413 578.265 470.799 573.977 476.113C569.688 481.396 563.178 484.037 554.446 484.037C545.714 484.037 539.203 481.396 534.915 476.113C530.627 470.799 528.482 464.413 528.482 456.955C528.482 449.621 530.627 443.266 534.915 437.89C539.203 432.514 545.714 429.826 554.446 429.826C563.178 429.826 569.688 432.514 573.977 437.89ZM554.399 441.059C550.515 441.059 547.516 442.442 545.403 445.208C543.321 447.943 542.28 451.858 542.28 456.955C542.28 462.051 543.321 465.982 545.403 468.748C547.516 471.513 550.515 472.896 554.399 472.896C558.284 472.896 561.267 471.513 563.349 468.748C565.431 465.982 566.472 462.051 566.472 456.955C566.472 451.858 565.431 447.943 563.349 445.208C561.267 442.442 558.284 441.059 554.399 441.059ZM636.206 413.651V482.266H623.294V475.227C621.398 478.241 619.238 480.432 616.815 481.799C614.391 483.167 611.376 483.85 607.772 483.85C601.836 483.85 596.833 481.458 592.762 476.672C588.722 471.855 586.702 465.687 586.702 458.167C586.702 449.496 588.691 442.675 592.669 437.703C596.678 432.731 602.023 430.245 608.704 430.245C611.78 430.245 614.515 430.929 616.908 432.296C619.301 433.632 621.243 435.497 622.734 437.89V413.651H636.206ZM600.407 457.188C600.407 461.88 601.339 465.625 603.203 468.421C605.037 471.249 607.834 472.663 611.594 472.663C615.354 472.663 618.213 471.265 620.171 468.468C622.128 465.671 623.107 462.051 623.107 457.607C623.107 451.392 621.538 446.948 618.399 444.276C616.473 442.66 614.235 441.852 611.687 441.852C607.803 441.852 604.944 443.328 603.11 446.28C601.308 449.201 600.407 452.837 600.407 457.188ZM691.815 467.349C691.474 470.364 689.904 473.425 687.107 476.532C682.757 481.473 676.666 483.944 668.835 483.944C662.371 483.944 656.669 481.862 651.728 477.698C646.787 473.533 644.316 466.759 644.316 457.374C644.316 448.58 646.538 441.836 650.982 437.144C655.457 432.452 661.253 430.105 668.369 430.105C672.595 430.105 676.402 430.898 679.789 432.483C683.176 434.067 685.973 436.569 688.179 439.987C690.168 443.002 691.458 446.498 692.048 450.475C692.39 452.806 692.53 456.162 692.468 460.544H657.694C657.881 465.64 659.481 469.214 662.496 471.265C664.329 472.539 666.535 473.176 669.115 473.176C671.849 473.176 674.071 472.399 675.78 470.845C676.713 470.006 677.536 468.841 678.251 467.349H691.815ZM678.67 451.781C678.453 448.269 677.381 445.612 675.454 443.81C673.558 441.976 671.197 441.059 668.369 441.059C665.292 441.059 662.9 442.023 661.19 443.949C659.512 445.876 658.456 448.487 658.021 451.781H678.67Z" fill="#C2C2C2"/>
<circle cx="162" cy="896" r="97.6585" fill="white" stroke="#333333" stroke-width="12.6829"/>
<path d="M227.984 863.085C227.198 860.167 225.66 857.506 223.523 855.369C221.386 853.232 218.726 851.694 215.807 850.909C205.06 848 161.876 848 161.876 848C161.876 848 118.691 848 107.944 850.909C105.026 851.694 102.365 853.232 100.228 855.369C98.0914 857.506 96.5532 860.167 95.7677 863.085C93.7611 874.045 92.7873 885.17 92.8592 896.312C92.7873 907.454 93.7611 918.578 95.7677 929.538C96.5532 932.456 98.0914 935.117 100.228 937.254C102.365 939.391 105.026 940.929 107.944 941.715C118.691 944.623 161.876 944.623 161.876 944.623C161.876 944.623 205.06 944.623 215.807 941.715C218.726 940.929 221.386 939.391 223.523 937.254C225.66 935.117 227.198 932.456 227.984 929.538C229.991 918.578 230.964 907.454 230.892 896.312C230.964 885.17 229.991 874.045 227.984 863.085V863.085ZM148.072 917.017V875.607L183.912 896.312L148.072 917.017Z" fill="#333333"/>
<path d="M293.069 902.984L293.985 909.265L295.327 903.605L304.749 870.367H310.048L319.241 903.605L320.55 909.363L321.564 902.951L328.958 870.367H335.271L323.723 918H317.998L308.184 883.29L307.431 879.658L306.679 883.29L296.504 918H290.779L279.264 870.367H285.545L293.069 902.984ZM362.065 918C361.716 917.302 361.432 916.059 361.214 914.271C358.401 917.193 355.042 918.654 351.138 918.654C347.649 918.654 344.781 917.673 342.534 915.71C340.31 913.725 339.197 911.217 339.197 908.186C339.197 904.5 340.593 901.643 343.385 899.614C346.198 897.564 350.146 896.539 355.228 896.539H361.116V893.758C361.116 891.643 360.484 889.963 359.219 888.72C357.954 887.455 356.089 886.823 353.625 886.823C351.465 886.823 349.655 887.368 348.194 888.458C346.733 889.549 346.002 890.868 346.002 892.417H339.917C339.917 890.65 340.539 888.949 341.782 887.313C343.047 885.656 344.748 884.347 346.885 883.388C349.044 882.428 351.411 881.948 353.984 881.948C358.063 881.948 361.258 882.973 363.57 885.023C365.882 887.052 367.081 889.854 367.168 893.431V909.723C367.168 912.973 367.583 915.557 368.412 917.477V918H362.065ZM352.021 913.387C353.919 913.387 355.718 912.896 357.419 911.915C359.121 910.934 360.353 909.658 361.116 908.087V900.825H356.373C348.957 900.825 345.25 902.995 345.25 907.335C345.25 909.232 345.882 910.715 347.147 911.784C348.412 912.853 350.037 913.387 352.021 913.387ZM384.867 874.031V882.603H391.476V887.281H384.867V909.232C384.867 910.65 385.162 911.719 385.75 912.438C386.339 913.136 387.343 913.485 388.76 913.485C389.458 913.485 390.418 913.354 391.639 913.093V918C390.047 918.436 388.499 918.654 386.994 918.654C384.289 918.654 382.25 917.836 380.876 916.201C379.502 914.565 378.815 912.242 378.815 909.232V887.281H372.37V882.603H378.815V874.031H384.867ZM412.773 913.714C414.932 913.714 416.819 913.06 418.433 911.751C420.047 910.443 420.941 908.807 421.115 906.844H426.84C426.731 908.873 426.033 910.803 424.747 912.635C423.46 914.467 421.737 915.928 419.578 917.019C417.44 918.109 415.172 918.654 412.773 918.654C407.953 918.654 404.114 917.051 401.257 913.845C398.422 910.617 397.004 906.212 397.004 900.628V899.614C397.004 896.168 397.637 893.104 398.902 890.421C400.167 887.739 401.977 885.656 404.333 884.173C406.71 882.69 409.512 881.948 412.74 881.948C416.71 881.948 420.003 883.137 422.62 885.514C425.259 887.891 426.666 890.978 426.84 894.772H421.115C420.941 892.482 420.068 890.607 418.498 889.146C416.95 887.662 415.03 886.921 412.74 886.921C409.665 886.921 407.277 888.033 405.576 890.258C403.896 892.461 403.057 895.656 403.057 899.843V900.988C403.057 905.067 403.896 908.207 405.576 910.41C407.255 912.613 409.654 913.714 412.773 913.714ZM439.697 886.888C442.38 883.595 445.869 881.948 450.166 881.948C457.647 881.948 461.42 886.168 461.485 894.609V918H455.433V894.576C455.411 892.024 454.822 890.138 453.667 888.917C452.532 887.695 450.755 887.084 448.334 887.084C446.371 887.084 444.648 887.608 443.165 888.655C441.682 889.702 440.526 891.076 439.697 892.777V918H433.645V867.75H439.697V886.888ZM509.02 914.5C506.665 917.269 503.208 918.654 498.649 918.654C494.876 918.654 491.997 917.564 490.013 915.383C488.05 913.18 487.057 909.93 487.036 905.634V882.603H493.088V905.47C493.088 910.835 495.269 913.518 499.631 913.518C504.255 913.518 507.33 911.795 508.856 908.349V882.603H514.909V918H509.151L509.02 914.5ZM544.745 908.611C544.745 906.975 544.123 905.71 542.88 904.816C541.659 903.9 539.51 903.115 536.435 902.46C533.382 901.806 530.95 901.021 529.14 900.105C527.351 899.189 526.021 898.098 525.148 896.833C524.298 895.569 523.873 894.064 523.873 892.319C523.873 889.418 525.094 886.965 527.537 884.958C530.001 882.951 533.142 881.948 536.958 881.948C540.972 881.948 544.221 882.984 546.708 885.056C549.216 887.128 550.47 889.778 550.47 893.006H544.385C544.385 891.348 543.676 889.92 542.258 888.72C540.862 887.521 539.096 886.921 536.958 886.921C534.756 886.921 533.033 887.401 531.79 888.36C530.546 889.32 529.925 890.574 529.925 892.123C529.925 893.584 530.503 894.685 531.659 895.427C532.815 896.168 534.897 896.877 537.907 897.553C540.939 898.229 543.392 899.036 545.268 899.974C547.144 900.912 548.529 902.046 549.423 903.376C550.339 904.685 550.797 906.288 550.797 908.186C550.797 911.348 549.532 913.889 547.002 915.808C544.472 917.706 541.19 918.654 537.155 918.654C534.319 918.654 531.811 918.153 529.63 917.149C527.449 916.146 525.737 914.75 524.494 912.962C523.273 911.152 522.662 909.2 522.662 907.106H528.714C528.823 909.134 529.63 910.748 531.135 911.948C532.662 913.125 534.668 913.714 537.155 913.714C539.445 913.714 541.277 913.256 542.651 912.34C544.047 911.403 544.745 910.159 544.745 908.611ZM573.697 899.974C573.697 896.506 574.373 893.388 575.726 890.618C577.1 887.848 578.997 885.71 581.418 884.206C583.861 882.701 586.641 881.948 589.76 881.948C594.58 881.948 598.473 883.617 601.439 886.954C604.427 890.291 605.921 894.729 605.921 900.269V900.694C605.921 904.14 605.256 907.237 603.926 909.985C602.617 912.711 600.731 914.838 598.266 916.364C595.823 917.891 593.01 918.654 589.826 918.654C585.028 918.654 581.134 916.986 578.146 913.649C575.18 910.312 573.697 905.896 573.697 900.399V899.974ZM579.782 900.694C579.782 904.62 580.687 907.771 582.498 910.148C584.33 912.526 586.772 913.714 589.826 913.714C592.901 913.714 595.344 912.515 597.154 910.116C598.964 907.695 599.869 904.314 599.869 899.974C599.869 896.092 598.942 892.951 597.088 890.552C595.256 888.131 592.814 886.921 589.76 886.921C586.772 886.921 584.362 888.11 582.53 890.487C580.698 892.864 579.782 896.266 579.782 900.694ZM619.236 882.603L619.433 887.052C622.137 883.649 625.67 881.948 630.032 881.948C637.513 881.948 641.286 886.168 641.352 894.609V918H635.299V894.576C635.278 892.024 634.689 890.138 633.533 888.917C632.399 887.695 630.621 887.084 628.2 887.084C626.237 887.084 624.514 887.608 623.031 888.655C621.548 889.702 620.392 891.076 619.563 892.777V918H613.511V882.603H619.236ZM682.572 894.282L695.004 870.367H702.136L685.713 900.236V918H679.432V900.236L663.009 870.367H670.206L682.572 894.282ZM703.575 899.974C703.575 896.506 704.251 893.388 705.604 890.618C706.978 887.848 708.875 885.71 711.296 884.206C713.739 882.701 716.519 881.948 719.638 881.948C724.458 881.948 728.351 883.617 731.317 886.954C734.305 890.291 735.799 894.729 735.799 900.269V900.694C735.799 904.14 735.134 907.237 733.804 909.985C732.495 912.711 730.609 914.838 728.144 916.364C725.701 917.891 722.888 918.654 719.704 918.654C714.905 918.654 711.012 916.986 708.024 913.649C705.058 910.312 703.575 905.896 703.575 900.399V899.974ZM709.66 900.694C709.66 904.62 710.565 907.771 712.375 910.148C714.208 912.526 716.65 913.714 719.704 913.714C722.779 913.714 725.222 912.515 727.032 910.116C728.842 907.695 729.747 904.314 729.747 899.974C729.747 896.092 728.82 892.951 726.966 890.552C725.134 888.131 722.692 886.921 719.638 886.921C716.65 886.921 714.24 888.11 712.408 890.487C710.576 892.864 709.66 896.266 709.66 900.694ZM765.243 914.5C762.887 917.269 759.43 918.654 754.872 918.654C751.099 918.654 748.22 917.564 746.235 915.383C744.272 913.18 743.28 909.93 743.258 905.634V882.603H749.311V905.47C749.311 910.835 751.492 913.518 755.854 913.518C760.477 913.518 763.552 911.795 765.079 908.349V882.603H771.131V918H765.374L765.243 914.5ZM814.217 875.536H798.906V918H792.658V875.536H777.38V870.367H814.217V875.536ZM839.047 914.5C836.692 917.269 833.235 918.654 828.677 918.654C824.904 918.654 822.025 917.564 820.04 915.383C818.077 913.18 817.085 909.93 817.063 905.634V882.603H823.115V905.47C823.115 910.835 825.296 913.518 829.658 913.518C834.282 913.518 837.357 911.795 838.884 908.349V882.603H844.936V918H839.178L839.047 914.5ZM884.128 900.694C884.128 906.103 882.885 910.454 880.399 913.747C877.913 917.019 874.576 918.654 870.388 918.654C865.917 918.654 862.46 917.073 860.018 913.911L859.723 918H854.162V867.75H860.214V886.496C862.657 883.464 866.026 881.948 870.323 881.948C874.619 881.948 877.989 883.573 880.432 886.823C882.896 890.072 884.128 894.522 884.128 900.17V900.694ZM878.076 900.007C878.076 895.885 877.28 892.701 875.688 890.454C874.096 888.208 871.806 887.084 868.818 887.084C864.827 887.084 861.959 888.938 860.214 892.646V907.957C862.068 911.664 864.958 913.518 868.883 913.518C871.784 913.518 874.041 912.395 875.655 910.148C877.269 907.902 878.076 904.521 878.076 900.007ZM906.473 918.654C901.674 918.654 897.771 917.084 894.761 913.943C891.751 910.781 890.246 906.561 890.246 901.283V900.17C890.246 896.659 890.911 893.529 892.242 890.781C893.594 888.011 895.47 885.852 897.869 884.304C900.29 882.733 902.907 881.948 905.72 881.948C910.322 881.948 913.899 883.464 916.451 886.496C919.002 889.527 920.278 893.867 920.278 899.516V902.035H896.298C896.386 905.525 897.4 908.349 899.341 910.508C901.304 912.646 903.79 913.714 906.8 913.714C908.937 913.714 910.747 913.278 912.23 912.406C913.714 911.533 915.011 910.377 916.124 908.938L919.82 911.817C916.854 916.375 912.405 918.654 906.473 918.654ZM905.72 886.921C903.278 886.921 901.227 887.815 899.57 889.604C897.912 891.37 896.887 893.856 896.495 897.062H914.226V896.604C914.052 893.529 913.223 891.152 911.74 889.473C910.257 887.771 908.25 886.921 905.72 886.921Z" fill="white"/>
</g>
<defs>
<clipPath id="clip0_288_1122">
<rect width="1000" height="1000" fill="white"/>
</clipPath>
</defs>
</svg>
