<svg width="1000" height="1000" viewBox="0 0 1000 1000" fill="none" xmlns="http://www.w3.org/2000/svg">
<circle cx="500" cy="500" r="500" fill="#333333"/>
<rect x="247" y="267" width="579" height="579" rx="21" fill="white"/>
<path d="M662.844 323.828H772.717V433.701" stroke="#C2C2C2" stroke-width="21.9746"/>
<path d="M410.137 323.828H300.264V433.701" stroke="#C2C2C2" stroke-width="21.9746"/>
<path d="M662.844 796.279H772.717V686.406" stroke="#C2C2C2" stroke-width="21.9746"/>
<path d="M410.137 796.279H300.264V686.406" stroke="#C2C2C2" stroke-width="21.9746"/>
<path d="M405.879 515.013L396.786 488.551L387.123 515.013H405.879ZM392.546 479.663H401.72L423.452 539.559H414.564L408.488 521.618H384.799L378.316 539.559H369.998L392.546 479.663ZM434.502 518.234C434.502 522.91 435.494 526.824 437.478 529.977C439.462 533.13 442.643 534.707 447.019 534.707C450.417 534.707 453.203 533.252 455.378 530.344C457.579 527.408 458.68 523.209 458.68 517.745C458.68 512.227 457.552 508.15 455.296 505.513C453.04 502.849 450.254 501.517 446.937 501.517C443.241 501.517 440.237 502.931 437.927 505.758C435.643 508.585 434.502 512.743 434.502 518.234ZM445.551 495.116C448.895 495.116 451.694 495.823 453.95 497.236C455.255 498.051 456.737 499.479 458.395 501.517V479.459H465.449V539.559H458.843V533.483C457.131 536.174 455.106 538.118 452.768 539.314C450.43 540.51 447.753 541.108 444.736 541.108C439.87 541.108 435.657 539.069 432.096 534.992C428.535 530.887 426.755 525.437 426.755 518.642C426.755 512.281 428.372 506.777 431.607 502.129C434.869 497.453 439.517 495.116 445.551 495.116ZM480.983 518.234C480.983 522.91 481.975 526.824 483.96 529.977C485.944 533.13 489.124 534.707 493.5 534.707C496.898 534.707 499.684 533.252 501.859 530.344C504.061 527.408 505.162 523.209 505.162 517.745C505.162 512.227 504.034 508.15 501.777 505.513C499.521 502.849 496.735 501.517 493.419 501.517C489.722 501.517 486.719 502.931 484.408 505.758C482.125 508.585 480.983 512.743 480.983 518.234ZM492.033 495.116C495.376 495.116 498.176 495.823 500.432 497.236C501.737 498.051 503.218 499.479 504.876 501.517V479.459H511.93V539.559H505.325V533.483C503.612 536.174 501.587 538.118 499.25 539.314C496.912 540.51 494.234 541.108 491.217 541.108C486.352 541.108 482.138 539.069 478.577 534.992C475.017 530.887 473.236 525.437 473.236 518.642C473.236 512.281 474.854 506.777 478.088 502.129C481.35 497.453 485.998 495.116 492.033 495.116ZM573.334 495.89H581.448C580.415 498.69 578.119 505.078 574.558 515.054C571.894 522.556 569.665 528.672 567.871 533.402C563.63 544.547 560.64 551.342 558.901 553.788C557.161 556.235 554.171 557.458 549.931 557.458C548.898 557.458 548.096 557.417 547.525 557.336C546.981 557.254 546.302 557.105 545.486 556.887V550.2C546.764 550.554 547.688 550.771 548.259 550.853C548.83 550.934 549.333 550.975 549.768 550.975C551.127 550.975 552.119 550.744 552.744 550.282C553.396 549.847 553.94 549.303 554.375 548.651C554.511 548.434 555 547.319 555.843 545.308C556.685 543.296 557.297 541.801 557.678 540.823L541.531 495.89H549.849L561.551 531.445L573.334 495.89ZM605.138 534.829C610.003 534.829 613.333 532.994 615.127 529.325C616.948 525.628 617.859 521.523 617.859 517.011C617.859 512.934 617.206 509.617 615.902 507.062C613.836 503.039 610.275 501.028 605.219 501.028C600.734 501.028 597.472 502.74 595.434 506.165C593.395 509.59 592.376 513.722 592.376 518.56C592.376 523.209 593.395 527.082 595.434 530.181C597.472 533.28 600.707 534.829 605.138 534.829ZM605.423 494.627C611.05 494.627 615.807 496.502 619.694 500.253C623.581 504.004 625.524 509.522 625.524 516.807C625.524 523.847 623.812 529.664 620.387 534.258C616.962 538.852 611.648 541.149 604.444 541.149C598.437 541.149 593.667 539.124 590.133 535.074C586.599 530.996 584.832 525.533 584.832 518.683C584.832 511.344 586.694 505.499 590.418 501.15C594.142 496.801 599.144 494.627 605.423 494.627ZM641.63 495.89V524.88C641.63 527.109 641.983 528.93 642.69 530.344C643.994 532.953 646.427 534.258 649.988 534.258C655.098 534.258 658.578 531.975 660.426 527.408C661.432 524.962 661.935 521.605 661.935 517.337V495.89H669.274V539.559H662.342L662.424 533.116C661.473 534.775 660.29 536.174 658.877 537.316C656.077 539.599 652.679 540.741 648.683 540.741C642.459 540.741 638.218 538.662 635.962 534.503C634.739 532.274 634.127 529.297 634.127 525.573V495.89H641.63ZM680.976 495.89H687.948V503.434C688.519 501.966 689.919 500.185 692.148 498.092C694.377 495.972 696.945 494.912 699.854 494.912C699.99 494.912 700.221 494.926 700.547 494.953C700.873 494.98 701.43 495.034 702.219 495.116V502.863C701.784 502.781 701.376 502.727 700.995 502.7C700.642 502.672 700.248 502.659 699.813 502.659C696.116 502.659 693.276 503.855 691.291 506.247C689.307 508.612 688.315 511.344 688.315 514.442V539.559H680.976V495.89Z" fill="#C2C2C2"/>
<path d="M406.619 638.525C403.928 639.422 400.707 639.871 396.956 639.871C389.127 639.871 382.658 637.533 377.547 632.858C371.35 627.231 368.251 618.968 368.251 608.068C368.251 597.086 371.431 588.782 377.792 583.155C382.984 578.562 389.44 576.265 397.159 576.265C404.933 576.265 411.457 578.697 416.731 583.563C422.819 589.19 425.864 597.059 425.864 607.171C425.864 612.526 425.211 617.011 423.907 620.626C422.847 624.078 421.284 626.946 419.218 629.229L426.149 635.712L419.585 642.562L412.327 635.712C410.125 637.044 408.223 637.982 406.619 638.525ZM403.928 627.68L397.853 621.89L404.335 615.122L410.411 620.911C411.362 618.954 412.028 617.242 412.409 615.774C413.007 613.572 413.306 611.003 413.306 608.068C413.306 601.327 411.919 596.121 409.147 592.452C406.401 588.755 402.378 586.907 397.078 586.907C392.104 586.907 388.135 588.673 385.172 592.207C382.209 595.741 380.728 601.028 380.728 608.068C380.728 616.304 382.848 622.203 387.088 625.763C389.834 628.074 393.123 629.229 396.956 629.229C398.396 629.229 399.782 629.052 401.114 628.699C401.848 628.509 402.786 628.169 403.928 627.68ZM461.01 614.632H448.044V638.199H435.772V578.099H465.251C469.464 578.181 472.699 578.697 474.955 579.649C477.238 580.6 479.168 582 480.744 583.849C482.049 585.371 483.082 587.056 483.843 588.904C484.604 590.753 484.985 592.859 484.985 595.224C484.985 598.078 484.265 600.892 482.824 603.664C481.383 606.41 479.005 608.353 475.689 609.495C478.461 610.609 480.418 612.199 481.56 614.265C482.729 616.304 483.313 619.43 483.313 623.643V627.68C483.313 630.425 483.422 632.287 483.639 633.266C483.966 634.815 484.727 635.957 485.923 636.691V638.199H472.101C471.72 636.867 471.448 635.794 471.285 634.978C470.959 633.293 470.782 631.567 470.755 629.8L470.673 624.214C470.619 620.381 469.912 617.826 468.553 616.549C467.221 615.271 464.707 614.632 461.01 614.632ZM468.635 603.705C471.136 602.563 472.386 600.307 472.386 596.937C472.386 593.294 471.176 590.848 468.757 589.598C467.398 588.891 465.359 588.537 462.641 588.537H448.044V604.684H462.274C465.101 604.684 467.221 604.357 468.635 603.705ZM556.583 609.699H544.677C544.459 608.041 543.902 606.546 543.005 605.214C541.7 603.42 539.675 602.523 536.93 602.523C533.016 602.523 530.338 604.466 528.898 608.353C528.137 610.419 527.756 613.164 527.756 616.589C527.756 619.851 528.137 622.474 528.898 624.459C530.284 628.155 532.893 630.004 536.726 630.004C539.444 630.004 541.374 629.27 542.516 627.802C543.658 626.334 544.351 624.431 544.595 622.094H556.46C556.189 625.627 554.911 628.971 552.628 632.124C548.985 637.207 543.59 639.749 536.441 639.749C529.292 639.749 524.032 637.628 520.661 633.388C517.291 629.148 515.606 623.643 515.606 616.875C515.606 609.237 517.468 603.297 521.192 599.057C524.915 594.817 530.053 592.696 536.604 592.696C542.176 592.696 546.729 593.947 550.263 596.447C553.824 598.948 555.93 603.365 556.583 609.699ZM601.678 599.383C605.429 604.086 607.305 609.644 607.305 616.059C607.305 622.583 605.429 628.169 601.678 632.817C597.927 637.438 592.232 639.749 584.594 639.749C576.956 639.749 571.261 637.438 567.51 632.817C563.759 628.169 561.883 622.583 561.883 616.059C561.883 609.644 563.759 604.086 567.51 599.383C571.261 594.681 576.956 592.329 584.594 592.329C592.232 592.329 597.927 594.681 601.678 599.383ZM584.553 602.156C581.155 602.156 578.532 603.365 576.684 605.785C574.863 608.177 573.952 611.601 573.952 616.059C573.952 620.517 574.863 623.956 576.684 626.375C578.532 628.794 581.155 630.004 584.553 630.004C587.951 630.004 590.56 628.794 592.382 626.375C594.203 623.956 595.113 620.517 595.113 616.059C595.113 611.601 594.203 608.177 592.382 605.785C590.56 603.365 587.951 602.156 584.553 602.156ZM656.11 578.181V638.199H644.816V632.042C643.158 634.679 641.269 636.595 639.148 637.791C637.028 638.988 634.392 639.586 631.238 639.586C626.047 639.586 621.67 637.492 618.109 633.306C614.576 629.093 612.809 623.698 612.809 617.119C612.809 609.536 614.549 603.569 618.028 599.22C621.534 594.871 626.21 592.696 632.054 592.696C634.745 592.696 637.137 593.294 639.23 594.49C641.323 595.659 643.022 597.29 644.327 599.383V578.181H656.11ZM624.796 616.263C624.796 620.368 625.612 623.643 627.243 626.09C628.846 628.563 631.293 629.8 634.582 629.8C637.871 629.8 640.372 628.577 642.084 626.13C643.797 623.684 644.653 620.517 644.653 616.63C644.653 611.194 643.28 607.307 640.535 604.969C638.849 603.556 636.892 602.849 634.663 602.849C631.266 602.849 628.765 604.14 627.161 606.722C625.585 609.277 624.796 612.458 624.796 616.263ZM704.753 625.152C704.454 627.788 703.081 630.466 700.634 633.184C696.829 637.506 691.501 639.667 684.651 639.667C678.997 639.667 674.01 637.846 669.688 634.203C665.366 630.561 663.205 624.635 663.205 616.426C663.205 608.734 665.148 602.835 669.035 598.731C672.949 594.626 678.019 592.574 684.244 592.574C687.94 592.574 691.27 593.267 694.233 594.653C697.196 596.04 699.642 598.228 701.572 601.218C703.312 603.855 704.44 606.913 704.956 610.392C705.255 612.431 705.378 615.366 705.323 619.199H674.907C675.07 623.657 676.47 626.783 679.106 628.577C680.71 629.691 682.64 630.248 684.896 630.248C687.288 630.248 689.232 629.569 690.727 628.21C691.542 627.476 692.262 626.457 692.888 625.152H704.753ZM693.255 611.534C693.064 608.462 692.126 606.138 690.441 604.561C688.783 602.958 686.717 602.156 684.244 602.156C681.553 602.156 679.46 602.998 677.965 604.684C676.497 606.369 675.573 608.652 675.192 611.534H693.255Z" fill="#C2C2C2"/>
<path d="M159.035 210.869C156.941 212.823 162.817 215.216 164.586 213.941C181.898 201.83 199.041 180.268 205.076 159.782C207.388 152.029 205.907 143.35 198.078 139.496C190.399 135.728 181.234 138.86 174.094 142.461C155.558 151.734 139.437 171.756 136.294 192.48C133.128 213.589 146.777 228.294 164.233 237.673C170.351 240.973 179.195 243.415 183.299 249.28C188.43 256.77 182.28 264.539 176.326 269.258C174.277 270.904 169.287 275.281 167.483 273.273C165.939 271.45 169.096 267.48 170.008 265.843C172.301 261.64 174.992 258.134 177.966 254.424C179.469 252.628 174.96 250.924 173.642 251.995C168.206 256.28 161.915 262.735 160.243 269.726C158.855 275.416 163.049 279.569 168.753 279.434C176.722 279.24 185.928 270.906 189.807 264.59C194.707 256.566 191.152 248.654 184.062 243.462C175.14 236.946 164.224 234.172 155.587 226.989C145.116 218.313 140.922 205.971 143.438 192.676C145.639 181.196 152.048 170.614 159.735 161.969C167.035 153.766 177.826 144.416 189.163 142.771C211.767 139.543 190.192 175.125 185.462 182.049C177.971 193.005 168.684 201.825 159.035 210.869ZM230.281 220.609C227.411 225.81 224.181 230.77 220.392 235.374C216.476 240.137 205.211 253.076 202.797 240.13C201.909 235.556 202.209 229.271 203.778 223.152C206.128 214.122 208.649 211.083 209.53 209.96C213.285 205.071 218.212 209.28 217.295 213.578C217.266 215.359 220.902 216.326 220.934 214.714C221.134 208.37 217.111 202.652 210.115 205.371C199.816 209.313 195.957 226.26 196.396 234.67C196.87 244.631 201.629 251.207 211.199 248.643C218.525 246.68 228.841 229.1 232.288 221.169C233.069 219.356 231.077 219.172 230.281 220.609ZM251.85 221.71C252.292 224.462 253.354 227.006 255.927 228.258C265.7 233.069 269.975 214.996 271.633 208.896C271.939 207.674 269.609 207.327 269.235 208.61C267.971 212.874 264.596 223.909 259.69 223.873C257.416 223.891 257.432 220.172 257.426 217.472C257.459 209.401 259.401 201.367 260.702 193.463C261.14 191.319 255.528 191.641 254.971 193.816C254.36 196.26 253.816 198.642 253.323 201.054C252.267 196.483 248.848 193.177 243.027 196.341C232.971 201.822 227.647 221.019 229.188 231.497C230.483 240.268 239.007 241.361 244.107 234.718C247.136 230.74 249.673 226.346 251.85 221.71ZM236.656 234.477C231.645 232.316 236.386 217.243 238.284 212.513C243.097 200.544 246.342 199.421 248.001 200.412C249.499 201.277 248.682 205.632 248.387 206.893C248.042 208.125 250.072 210.663 251.561 210.391C251.184 211.505 250.797 212.579 250.352 213.754C248.694 218.124 242.314 236.845 236.656 234.477ZM305.182 198.935C305.464 198.1 301.891 207.922 298.201 212.583C294.734 216.973 291.834 213.867 291.818 209.397C291.783 202.019 295.128 190.401 293.218 185.636C292.61 184.153 290.416 183.686 289.773 183.647C284.446 183.301 276.296 205.029 274.981 208.632C275.854 202.91 277.242 197.22 278.073 191.341C278.336 189.329 273.766 186.923 273.185 188.851C269.839 199.837 267.855 212.441 269.7 223.892C269.996 225.628 274.025 225.857 274.572 224.275C277.027 217.37 279.254 210.399 281.899 203.57C282.449 202.156 285.177 195.009 287.454 190.431C287.037 200.378 281.304 215.844 291.204 218.763C301.7 221.861 306.759 200.412 306.561 199.199C306.867 197.977 305.616 197.722 305.182 198.935ZM387.432 129.704C376.226 130.258 364.65 133.529 353.735 136.116C352.149 136.499 350.534 136.931 348.948 137.314C351.229 129.443 352.089 128.241 353.212 120.3C353.47 118.585 349.327 117.458 348.58 118.924C344.513 127.063 343.957 129.872 341.956 139.103C334.158 141.193 326.403 143.44 318.7 145.884C296.693 152.92 288.144 155.042 277.143 162.506C275.576 163.433 278.832 164.713 279.745 164.342C292.507 159.825 299.954 156.267 322.304 149.097C328.492 147.143 334.752 145.297 340.993 143.54C340.58 145.466 340.196 147.342 339.762 149.189C336.719 162.879 334.301 176.697 332.626 190.611C331.115 203.088 330.221 215.822 332.408 228.238C333.738 235.564 335.872 243.054 344.338 243.614C347.308 243.831 345.984 240.936 343.67 240.965C336.432 241.047 336.907 212.891 337.013 209.19C337.337 198.424 338.858 187.717 340.528 177.096C342.218 166.386 344.332 155.689 346.825 145.143C347.113 144.011 347.4 142.879 347.688 141.746C350.455 141.047 353.223 140.348 355.951 139.659C367.131 136.959 378.941 135.821 389.841 132.393C392.606 131.526 388.638 129.634 387.432 129.704ZM366.572 186.074C365.845 186.353 365.186 186.572 364.506 186.712C362.28 187.224 360.509 187.234 359.224 186.692C358.657 186.464 358.008 186.089 357.295 185.478C356.543 184.878 356.049 184.293 355.83 183.634L356.576 179.17C357.017 177.195 357.619 175.345 358.381 173.621C359.869 172.083 361.564 171.164 363.389 170.886C365.214 170.608 366.605 171.544 367.511 173.665C368.336 176.273 368.424 179.119 367.695 182.227C367.342 183.588 366.968 184.87 366.572 186.074ZM364.935 189.889C364.849 190.039 364.773 190.228 364.687 190.378C364.189 191.356 363.612 192.355 362.996 193.364C362.351 194.423 361.614 195.296 360.806 196.061C359.119 197.484 357.94 197.969 357.181 197.497C356.432 197.065 355.971 196.133 355.809 194.741C355.647 193.349 355.535 191.986 355.563 190.67C355.539 190.423 355.554 190.166 355.541 189.958C355.549 189.83 355.617 189.769 355.745 189.777C355.874 189.785 356.103 189.85 356.352 189.994C357.002 190.369 357.966 190.659 359.313 190.805C361.223 190.842 363.127 190.543 364.935 189.889ZM371.829 184.581C372.734 181.342 373.12 179.001 373.065 177.538C372.886 174.505 372.045 172.155 370.572 170.439C369.06 168.734 367.223 167.706 365.05 167.318C362.888 166.968 360.659 167.312 358.391 168.3C357.645 168.036 356.951 167.968 356.261 168.069C355.57 168.17 355.111 168.504 354.893 169.111C354.716 169.707 354.519 170.393 354.244 171.1L354.05 171.32C353.903 171.402 353.767 171.523 353.641 171.683C352.319 173.051 351.307 174.63 350.645 176.412C349.993 178.233 350.129 179.843 351.113 181.31C350.342 184.26 349.885 187.126 349.755 189.947C349.585 192.778 349.992 195.244 351.027 197.373C352.062 199.502 353.926 200.944 356.718 201.758C359.469 202.414 361.874 201.938 363.974 200.32C366.033 198.713 367.756 196.478 369.142 193.617C370.395 191.044 371.122 189.034 371.297 187.636C374.649 186.442 377.867 184.272 380.949 181.124C381.355 180.593 381.507 180.215 381.405 179.989C381.312 179.803 381.073 179.698 380.737 179.704C380.401 179.709 380.046 179.804 379.703 179.939C379.359 180.073 379.115 180.265 378.989 180.425C377.144 181.89 374.764 183.246 371.829 184.581ZM439.803 164.468C436.933 169.669 433.704 174.629 429.914 179.232C425.998 183.996 414.733 196.934 412.32 183.989C411.432 179.415 411.732 173.129 413.3 167.01C415.651 157.981 418.171 154.941 419.052 153.819C422.807 148.929 427.734 153.139 426.818 157.437C426.788 159.217 430.424 160.185 430.456 158.572C430.656 152.229 426.634 146.511 419.638 149.23C409.339 153.171 405.48 170.119 405.918 178.528C406.392 188.49 411.151 195.066 420.721 192.502C428.047 190.539 438.364 172.958 441.81 165.027C442.591 163.214 440.6 163.03 439.803 164.468ZM461.373 165.569C461.815 168.321 462.876 170.864 465.449 172.117C475.222 176.927 479.498 158.855 481.155 152.754C481.461 151.533 479.131 151.186 478.757 152.468C477.494 156.733 474.119 167.768 469.213 167.731C466.938 167.75 466.955 164.031 466.949 161.331C466.981 153.26 468.923 145.226 470.224 137.321C470.663 135.178 465.051 135.5 464.494 137.675C463.882 140.118 463.339 142.501 462.845 144.913C461.789 140.341 458.371 137.036 452.549 140.2C442.494 145.68 437.169 164.878 438.71 175.356C440.005 184.126 448.529 185.219 453.63 178.576C456.659 174.599 459.196 170.204 461.373 165.569ZM446.178 178.336C441.167 176.175 445.908 161.101 447.807 156.371C452.62 144.402 455.865 143.28 457.523 144.27C459.021 145.135 458.204 149.491 457.909 150.752C457.564 151.984 459.595 154.521 461.083 154.249C460.707 155.363 460.319 156.438 459.874 157.612C458.217 161.982 451.836 180.703 446.178 178.336ZM488.329 72.4031C488.329 72.4031 482.969 101.235 481.13 115.953C479.465 129.273 477.36 143.472 478.881 156.867C479.467 161.734 481.511 173.301 489.595 171.177C495.463 169.604 502.11 153.767 503.912 147.416C504.258 146.184 502.111 145.577 501.726 146.82C500.463 151.084 492.744 168.433 487.122 167.618C484.267 167.201 484.05 152.528 483.997 150.6C483.943 145.042 484.276 139.508 484.647 133.963C486.03 113.289 490.895 94.4253 492.389 73.848C492.521 72.293 488.748 70.8136 488.329 72.4031ZM511.487 66.198C511.487 66.198 506.127 95.0295 504.288 109.748C502.623 123.068 500.517 137.267 502.038 150.662C502.625 155.528 504.669 167.095 512.753 164.971C518.621 163.399 525.268 147.562 527.07 141.211C527.415 139.979 525.269 139.372 524.884 140.615C523.621 144.879 515.901 162.228 510.28 161.413C507.424 160.996 507.207 146.323 507.155 144.395C507.101 138.837 507.433 133.303 507.805 127.758C509.188 107.084 514.053 88.2202 515.547 67.6429C515.679 66.0879 511.905 64.6085 511.487 66.198Z" fill="white"/>
<path d="M540.092 118.733C539.525 118.13 538.575 118.101 537.972 118.669C537.369 119.237 537.34 120.186 537.908 120.789L540.092 118.733ZM717.501 155.261L716.022 155.015L717.501 155.261ZM670 112.262L669.823 110.772L670 112.262ZM596.173 251.513C596.865 251.97 597.795 251.78 598.252 251.088L605.691 239.823C606.148 239.132 605.957 238.201 605.266 237.745C604.575 237.288 603.644 237.479 603.188 238.17L596.575 248.183L586.561 241.571C585.87 241.114 584.94 241.304 584.483 241.996C584.027 242.687 584.217 243.618 584.908 244.074L596.173 251.513ZM538.916 121.925C539.448 122.56 540.394 122.645 541.029 122.113C541.664 121.582 541.749 120.636 541.217 120L538.916 121.925ZM546.139 128.775C545.868 127.992 545.014 127.577 544.231 127.848C543.448 128.119 543.033 128.973 543.304 129.756L546.139 128.775ZM544.162 132.685C544.36 133.49 545.173 133.981 545.977 133.783C546.781 133.585 547.273 132.773 547.075 131.968L544.162 132.685ZM548.681 141.575C548.574 140.754 547.822 140.174 547.001 140.281C546.179 140.387 545.599 141.14 545.706 141.961L548.681 141.575ZM546.132 145.146C546.248 145.966 547.007 146.537 547.828 146.421C548.648 146.305 549.219 145.546 549.103 144.726L546.132 145.146ZM550.946 153.902C550.719 153.106 549.889 152.644 549.092 152.872C548.295 153.099 547.834 153.929 548.061 154.726L550.946 153.902ZM549.073 157.867C549.355 158.646 550.214 159.05 550.994 158.768C551.773 158.487 552.176 157.627 551.895 156.848L549.073 157.867ZM555.963 165.137C555.519 164.437 554.593 164.23 553.893 164.673C553.193 165.117 552.986 166.044 553.429 166.743L555.963 165.137ZM555.283 169.459C555.773 170.127 556.712 170.271 557.38 169.782C558.048 169.292 558.193 168.354 557.703 167.685L555.283 169.459ZM563.848 174.673C563.253 174.096 562.303 174.112 561.727 174.707C561.151 175.302 561.166 176.251 561.761 176.828L563.848 174.673ZM564.158 179.045C564.779 179.593 565.727 179.535 566.275 178.914C566.824 178.294 566.766 177.346 566.145 176.797L564.158 179.045ZM573.529 182.606C572.853 182.128 571.916 182.288 571.438 182.965C570.96 183.641 571.121 184.577 571.797 185.056L573.529 182.606ZM574.406 186.833C575.102 187.283 576.03 187.084 576.481 186.389C576.931 185.694 576.733 184.765 576.038 184.315L574.406 186.833ZM583.668 188.558C582.921 188.2 582.025 188.516 581.667 189.263C581.309 190.01 581.625 190.906 582.372 191.264L583.668 188.558ZM585.136 192.528C585.896 192.859 586.78 192.512 587.111 191.753C587.442 190.994 587.095 190.11 586.336 189.778L585.136 192.528ZM594.537 192.906C593.751 192.645 592.902 193.07 592.641 193.857C592.38 194.643 592.806 195.492 593.592 195.753L594.537 192.906ZM596.468 196.665C597.261 196.905 598.099 196.457 598.339 195.664C598.578 194.871 598.13 194.033 597.337 193.793L596.468 196.665ZM605.874 196.036C605.065 195.854 604.263 196.361 604.081 197.17C603.898 197.978 604.406 198.78 605.214 198.962L605.874 196.036ZM608.146 199.589C608.958 199.753 609.75 199.228 609.914 198.416C610.078 197.604 609.553 196.813 608.741 196.649L608.146 199.589ZM617.456 198.124C616.636 198.011 615.879 198.585 615.766 199.406C615.653 200.227 616.227 200.983 617.047 201.096L617.456 198.124ZM620.024 201.476C620.847 201.572 621.592 200.984 621.688 200.161C621.785 199.338 621.196 198.593 620.373 198.496L620.024 201.476ZM629.181 199.268C628.354 199.22 627.644 199.851 627.596 200.678C627.548 201.505 628.18 202.214 629.007 202.263L629.181 199.268ZM632.007 202.408C632.835 202.44 633.532 201.795 633.564 200.967C633.596 200.139 632.951 199.442 632.123 199.41L632.007 202.408ZM640.962 199.494C640.134 199.511 639.476 200.196 639.492 201.024C639.509 201.852 640.194 202.51 641.022 202.494L640.962 199.494ZM644.026 202.404C644.854 202.371 645.498 201.673 645.465 200.845C645.432 200.018 644.734 199.373 643.906 199.406L644.026 202.404ZM652.718 198.782C651.894 198.867 651.295 199.603 651.379 200.427C651.464 201.251 652.2 201.851 653.024 201.766L652.718 198.782ZM656.011 201.427C656.833 201.324 657.416 200.575 657.314 199.753C657.211 198.931 656.462 198.348 655.64 198.45L656.011 201.427ZM664.354 197.057C663.541 197.217 663.012 198.006 663.172 198.818C663.331 199.631 664.12 200.161 664.933 200.001L664.354 197.057ZM667.873 199.384C668.682 199.204 669.191 198.402 669.011 197.594C668.831 196.785 668.029 196.276 667.221 196.456L667.873 199.384ZM675.734 194.193C674.943 194.439 674.502 195.281 674.749 196.071C674.996 196.862 675.837 197.303 676.628 197.056L675.734 194.193ZM679.493 196.114C680.276 195.843 680.691 194.989 680.42 194.206C680.149 193.423 679.295 193.008 678.512 193.279L679.493 196.114ZM686.643 190.001C685.892 190.352 685.568 191.244 685.918 191.995C686.268 192.746 687.161 193.07 687.911 192.72L686.643 190.001ZM690.642 191.381C691.378 191.002 691.668 190.098 691.289 189.361C690.909 188.625 690.005 188.335 689.268 188.714L690.642 191.381ZM696.743 184.233C696.064 184.707 695.897 185.642 696.371 186.322C696.845 187.001 697.78 187.168 698.459 186.694L696.743 184.233ZM700.916 184.888C701.571 184.381 701.69 183.439 701.182 182.784C700.675 182.129 699.732 182.01 699.078 182.517L700.916 184.888ZM705.456 176.661C704.898 177.273 704.941 178.222 705.553 178.781C706.165 179.339 707.113 179.296 707.672 178.684L705.456 176.661ZM709.668 176.354C710.186 175.707 710.083 174.763 709.437 174.245C708.791 173.726 707.847 173.83 707.328 174.476L709.668 176.354ZM712.011 167.262C711.634 168 711.926 168.904 712.664 169.281C713.401 169.658 714.305 169.366 714.682 168.628L712.011 167.262ZM715.988 165.835C716.313 165.073 715.958 164.192 715.196 163.868C714.433 163.543 713.552 163.898 713.228 164.66L715.988 165.835ZM715.758 156.449C715.596 157.262 716.122 158.052 716.934 158.215C717.747 158.378 718.537 157.851 718.7 157.039L715.758 156.449ZM719.216 153.91C719.32 153.088 718.739 152.337 717.917 152.232C717.095 152.128 716.344 152.709 716.24 153.531L719.216 153.91ZM716.244 144.697C716.355 145.518 717.11 146.094 717.931 145.983C718.752 145.872 719.328 145.117 719.217 144.296L716.244 144.697ZM718.631 141.116C718.441 140.309 717.634 139.809 716.827 139.998C716.021 140.188 715.521 140.995 715.71 141.801L718.631 141.116ZM712.474 133.629C712.887 134.347 713.804 134.595 714.522 134.182C715.24 133.769 715.488 132.852 715.075 132.134L712.474 133.629ZM713.341 129.417C712.863 128.739 711.928 128.577 711.25 129.054C710.573 129.531 710.411 130.467 710.888 131.144L713.341 129.417ZM704.9 124.607C705.529 125.146 706.476 125.074 707.015 124.445C707.555 123.817 707.483 122.87 706.854 122.33L704.9 124.607ZM704.353 120.339C703.687 119.847 702.748 119.988 702.256 120.654C701.763 121.321 701.905 122.26 702.571 122.752L704.353 120.339ZM694.873 118.185C695.622 118.537 696.516 118.215 696.868 117.465C697.221 116.716 696.899 115.822 696.149 115.47L694.873 118.185ZM693.233 114.206C692.463 113.899 691.591 114.275 691.285 115.045C690.978 115.814 691.354 116.687 692.123 116.993L693.233 114.206ZM683.515 114.429C684.327 114.593 685.119 114.069 685.283 113.257C685.447 112.445 684.922 111.653 684.11 111.489L683.515 114.429ZM680.977 110.955C680.157 110.841 679.399 111.414 679.286 112.234C679.172 113.055 679.745 113.812 680.566 113.926L680.977 110.955ZM671.646 113.608C672.472 113.545 673.091 112.825 673.028 111.999C672.965 111.172 672.244 110.554 671.418 110.617L671.646 113.608ZM668.315 110.963C667.494 111.073 666.917 111.828 667.027 112.649C667.137 113.47 667.892 114.046 668.713 113.936L668.315 110.963ZM660.165 115.484C660.972 115.298 661.475 114.492 661.289 113.685C661.103 112.878 660.297 112.375 659.49 112.561L660.165 115.484ZM656.616 113.274C655.815 113.487 655.339 114.309 655.552 115.109C655.765 115.91 656.586 116.386 657.387 116.173L656.616 113.274ZM649.132 118.843C649.906 118.546 650.291 117.678 649.994 116.905C649.696 116.131 648.828 115.746 648.055 116.043L649.132 118.843ZM645.287 117.168C644.526 117.495 644.173 118.377 644.499 119.138C644.826 119.899 645.707 120.252 646.469 119.926L645.287 117.168ZM638.737 123.788C639.455 123.374 639.702 122.457 639.288 121.739C638.875 121.021 637.958 120.774 637.24 121.188L638.737 123.788ZM634.674 122.734C633.973 123.176 633.763 124.102 634.205 124.803C634.647 125.504 635.573 125.714 636.274 125.272L634.674 122.734ZM629.261 130.312C629.903 129.788 630 128.844 629.477 128.201C628.953 127.559 628.009 127.463 627.366 127.986L629.261 130.312ZM625.082 129.924C624.462 130.473 624.403 131.42 624.951 132.041C625.5 132.662 626.448 132.721 627.069 132.172L625.082 129.924ZM620.94 138.267C621.492 137.649 621.44 136.701 620.823 136.148C620.206 135.596 619.257 135.648 618.705 136.265L620.94 138.267ZM616.75 138.533C616.22 139.17 616.308 140.116 616.945 140.645C617.583 141.174 618.528 141.086 619.058 140.449L616.75 138.533ZM613.895 147.4C614.353 146.71 614.165 145.779 613.475 145.32C612.785 144.862 611.854 145.05 611.396 145.74L613.895 147.4ZM609.783 148.258C609.348 148.963 609.567 149.887 610.272 150.322C610.977 150.758 611.901 150.539 612.336 149.834L609.783 148.258ZM608.135 157.428C608.503 156.685 608.198 155.785 607.456 155.418C606.713 155.051 605.813 155.355 605.446 156.098L608.135 157.428ZM604.163 158.791C603.817 159.544 604.147 160.435 604.9 160.78C605.653 161.126 606.544 160.795 606.889 160.043L604.163 158.791ZM603.59 168.092C603.874 167.314 603.473 166.453 602.694 166.17C601.916 165.886 601.055 166.288 600.771 167.066L603.59 168.092ZM599.788 169.877C599.525 170.662 599.947 171.512 600.733 171.776C601.518 172.04 602.368 171.617 602.632 170.832L599.788 169.877ZM600.154 179.188C600.362 178.386 599.881 177.568 599.079 177.36C598.277 177.152 597.458 177.633 597.25 178.435L600.154 179.188ZM596.536 181.322C596.345 182.128 596.844 182.936 597.651 183.126C598.457 183.317 599.265 182.817 599.455 182.011L596.536 181.322ZM597.717 190.565C597.857 189.749 597.309 188.973 596.492 188.833C595.676 188.692 594.9 189.241 594.76 190.057L597.717 190.565ZM594.286 192.99C594.161 193.809 594.724 194.574 595.543 194.699C596.362 194.823 597.127 194.26 597.252 193.441L594.286 192.99ZM596.183 202.114C596.262 201.29 595.657 200.557 594.832 200.479C594.007 200.4 593.275 201.005 593.196 201.829L596.183 202.114ZM592.941 204.785C592.877 205.611 593.494 206.332 594.32 206.396C595.146 206.46 595.868 205.843 595.932 205.017L592.941 204.785ZM595.482 213.754C595.504 212.926 594.85 212.238 594.022 212.216C593.193 212.195 592.505 212.849 592.483 213.677L595.482 213.754ZM592.432 216.633C592.425 217.461 593.09 218.139 593.919 218.146C594.747 218.154 595.425 217.488 595.432 216.66L592.432 216.633ZM595.575 225.416C595.54 224.588 594.841 223.945 594.014 223.979C593.186 224.014 592.543 224.712 592.577 225.54L595.575 225.416ZM592.725 228.503C592.774 229.33 593.483 229.961 594.31 229.912C595.137 229.864 595.769 229.154 595.72 228.327L592.725 228.503ZM596.456 237.03C596.365 236.207 595.623 235.614 594.799 235.705C593.976 235.797 593.383 236.539 593.475 237.362L596.456 237.03ZM593.832 240.323C593.939 241.144 594.692 241.723 595.513 241.616C596.335 241.509 596.914 240.757 596.807 239.935L593.832 240.323ZM598.191 248.558C598.034 247.745 597.247 247.213 596.434 247.37C595.62 247.527 595.088 248.313 595.245 249.127L598.191 248.558ZM537.908 120.789C538.262 121.166 538.598 121.544 538.916 121.925L541.217 120C540.861 119.574 540.487 119.152 540.092 118.733L537.908 120.789ZM543.304 129.756C543.635 130.713 543.917 131.689 544.162 132.685L547.075 131.968C546.811 130.896 546.504 129.831 546.139 128.775L543.304 129.756ZM545.706 141.961C545.842 143.005 545.98 144.069 546.132 145.146L549.103 144.726C548.953 143.668 548.817 142.62 548.681 141.575L545.706 141.961ZM548.061 154.726C548.357 155.762 548.692 156.809 549.073 157.867L551.895 156.848C551.538 155.859 551.224 154.877 550.946 153.902L548.061 154.726ZM553.429 166.743C554 167.644 554.617 168.549 555.283 169.459L557.703 167.685C557.076 166.829 556.497 165.98 555.963 165.137L553.429 166.743ZM561.761 176.828C562.521 177.564 563.319 178.303 564.158 179.045L566.145 176.797C565.34 176.085 564.575 175.377 563.848 174.673L561.761 176.828ZM571.797 185.056C572.242 185.37 572.694 185.684 573.154 185.999L574.848 183.523C574.4 183.217 573.961 182.911 573.529 182.606L571.797 185.056ZM573.154 185.999C573.565 186.28 573.983 186.558 574.406 186.833L576.038 184.315C575.635 184.054 575.238 183.79 574.848 183.523L573.154 185.999ZM582.372 191.264C583.276 191.697 584.198 192.118 585.136 192.528L586.336 189.778C585.429 189.382 584.539 188.976 583.668 188.558L582.372 191.264ZM593.592 195.753C594.539 196.067 595.498 196.371 596.468 196.665L597.337 193.793C596.392 193.507 595.459 193.212 594.537 192.906L593.592 195.753ZM605.214 198.962C606.184 199.181 607.162 199.39 608.146 199.589L608.741 196.649C607.778 196.454 606.822 196.249 605.874 196.036L605.214 198.962ZM617.047 201.096C618.035 201.232 619.027 201.359 620.024 201.476L620.373 198.496C619.397 198.382 618.424 198.258 617.456 198.124L617.047 201.096ZM629.007 202.263C630.005 202.321 631.005 202.369 632.007 202.408L632.123 199.41C631.141 199.372 630.16 199.325 629.181 199.268L629.007 202.263ZM641.022 202.494C642.024 202.474 643.025 202.444 644.026 202.404L643.906 199.406C642.926 199.446 641.944 199.475 640.962 199.494L641.022 202.494ZM653.024 201.766C654.023 201.664 655.019 201.551 656.011 201.427L655.64 198.45C654.669 198.571 653.695 198.682 652.718 198.782L653.024 201.766ZM664.933 200.001C665.919 199.807 666.899 199.601 667.873 199.384L667.221 196.456C666.272 196.668 665.316 196.868 664.354 197.057L664.933 200.001ZM676.628 197.056C677.592 196.755 678.548 196.441 679.493 196.114L678.512 193.279C677.596 193.596 676.67 193.901 675.734 194.193L676.628 197.056ZM687.911 192.72C688.835 192.289 689.746 191.843 690.642 191.381L689.268 188.714C688.408 189.157 687.532 189.586 686.643 190.001L687.911 192.72ZM698.459 186.694C699.297 186.11 700.116 185.508 700.916 184.888L699.078 182.517C698.319 183.105 697.541 183.677 696.743 184.233L698.459 186.694ZM707.672 178.684C708.363 177.927 709.028 177.15 709.668 176.354L707.328 174.476C706.729 175.222 706.105 175.95 705.456 176.661L707.672 178.684ZM714.682 168.628C715.148 167.717 715.583 166.786 715.988 165.835L713.228 164.66C712.851 165.546 712.445 166.413 712.011 167.262L714.682 168.628ZM718.7 157.039C718.801 156.533 718.895 156.023 718.981 155.508L716.022 155.015C715.941 155.497 715.853 155.976 715.758 156.449L718.7 157.039ZM718.981 155.508C719.07 154.971 719.148 154.438 719.216 153.91L716.24 153.531C716.177 154.021 716.105 154.516 716.022 155.015L718.981 155.508ZM719.217 144.296C719.07 143.212 718.874 142.152 718.631 141.116L715.71 141.801C715.931 142.744 716.11 143.709 716.244 144.697L719.217 144.296ZM715.075 132.134C714.537 131.199 713.958 130.293 713.341 129.417L710.888 131.144C711.454 131.947 711.983 132.775 712.474 133.629L715.075 132.134ZM706.854 122.33C706.046 121.636 705.211 120.973 704.353 120.339L702.571 122.752C703.371 123.343 704.149 123.962 704.9 124.607L706.854 122.33ZM696.149 115.47C695.188 115.018 694.215 114.597 693.233 114.206L692.123 116.993C693.05 117.362 693.968 117.759 694.873 118.185L696.149 115.47ZM684.11 111.489C683.064 111.277 682.018 111.099 680.977 110.955L680.566 113.926C681.544 114.062 682.529 114.229 683.515 114.429L684.11 111.489ZM671.418 110.617C670.881 110.658 670.349 110.709 669.823 110.772L670.177 113.751C670.661 113.694 671.15 113.646 671.646 113.608L671.418 110.617ZM669.823 110.772C669.317 110.832 668.814 110.896 668.315 110.963L668.713 113.936C669.198 113.871 669.686 113.81 670.177 113.751L669.823 110.772ZM659.49 112.561C658.519 112.785 657.561 113.023 656.616 113.274L657.387 116.173C658.3 115.93 659.226 115.701 660.165 115.484L659.49 112.561ZM648.055 116.043C647.118 116.404 646.196 116.779 645.287 117.168L646.469 119.926C647.343 119.551 648.231 119.19 649.132 118.843L648.055 116.043ZM637.24 121.188C636.369 121.689 635.514 122.205 634.674 122.734L636.274 125.272C637.08 124.764 637.901 124.269 638.737 123.788L637.24 121.188ZM627.366 127.986C626.59 128.619 625.828 129.265 625.082 129.924L627.069 132.172C627.785 131.539 628.516 130.919 629.261 130.312L627.366 127.986ZM618.705 136.265C618.038 137.01 617.386 137.766 616.75 138.533L619.058 140.449C619.671 139.71 620.298 138.983 620.94 138.267L618.705 136.265ZM611.396 145.74C610.844 146.57 610.307 147.41 609.783 148.258L612.336 149.834C612.842 149.013 613.362 148.202 613.895 147.4L611.396 145.74ZM605.446 156.098C605.005 156.989 604.578 157.887 604.163 158.791L606.889 160.043C607.292 159.164 607.708 158.292 608.135 157.428L605.446 156.098ZM600.771 167.066C600.432 167.998 600.104 168.935 599.788 169.877L602.632 170.832C602.94 169.914 603.26 169 603.59 168.092L600.771 167.066ZM597.25 178.435C597.001 179.395 596.763 180.357 596.536 181.322L599.455 182.011C599.678 181.068 599.911 180.127 600.154 179.188L597.25 178.435ZM594.76 190.057C594.592 191.034 594.434 192.012 594.286 192.99L597.252 193.441C597.397 192.482 597.552 191.523 597.717 190.565L594.76 190.057ZM593.196 201.829C593.102 202.816 593.017 203.802 592.941 204.785L595.932 205.017C596.007 204.051 596.09 203.083 596.183 202.114L593.196 201.829ZM592.483 213.677C592.458 214.667 592.441 215.652 592.432 216.633L595.432 216.66C595.441 215.695 595.457 214.727 595.482 213.754L592.483 213.677ZM592.577 225.54C592.619 226.535 592.668 227.523 592.725 228.503L595.72 228.327C595.664 227.364 595.615 226.394 595.575 225.416L592.577 225.54ZM593.475 237.362C593.586 238.361 593.705 239.348 593.832 240.323L596.807 239.935C596.682 238.979 596.565 238.01 596.456 237.03L593.475 237.362ZM595.245 249.127C595.338 249.61 595.433 250.088 595.53 250.562L598.47 249.961C598.375 249.498 598.282 249.031 598.191 248.558L595.245 249.127Z" fill="white"/>
</svg>
