<svg width="1000" height="1000" viewBox="0 0 1000 1000" fill="none" xmlns="http://www.w3.org/2000/svg">
<rect x="120" width="760" height="785" rx="15" fill="#333333"/>
<rect x="120" y="823" width="760" height="177" rx="15" fill="#333333"/>
<path d="M294.069 923.183C294.069 920.995 293.295 919.309 291.745 918.124C290.218 916.939 287.45 915.743 283.439 914.535C279.429 913.327 276.239 911.983 273.869 910.502C269.335 907.654 267.067 903.939 267.067 899.359C267.067 895.349 268.697 892.045 271.955 889.447C275.236 886.85 279.486 885.551 284.704 885.551C288.168 885.551 291.255 886.189 293.967 887.465C296.678 888.741 298.809 890.564 300.358 892.934C301.908 895.281 302.683 897.89 302.683 900.761H294.069C294.069 898.163 293.249 896.135 291.608 894.677C289.991 893.196 287.666 892.455 284.636 892.455C281.81 892.455 279.611 893.059 278.039 894.267C276.49 895.474 275.715 897.16 275.715 899.325C275.715 901.148 276.558 902.675 278.244 903.905C279.93 905.113 282.71 906.298 286.584 907.46C290.458 908.599 293.568 909.91 295.915 911.391C298.262 912.849 299.982 914.535 301.076 916.449C302.17 918.34 302.717 920.562 302.717 923.114C302.717 927.261 301.122 930.565 297.932 933.026C294.764 935.465 290.458 936.684 285.012 936.684C281.411 936.684 278.096 936.023 275.065 934.701C272.058 933.357 269.711 931.511 268.024 929.164C266.361 926.817 265.529 924.083 265.529 920.961H274.177C274.177 923.786 275.111 925.974 276.979 927.523C278.848 929.073 281.525 929.848 285.012 929.848C288.02 929.848 290.275 929.244 291.779 928.036C293.306 926.806 294.069 925.188 294.069 923.183ZM348.278 919.799C347.777 925.108 345.817 929.255 342.399 932.24C338.981 935.202 334.436 936.684 328.762 936.684C324.797 936.684 321.299 935.749 318.269 933.881C315.261 931.99 312.937 929.312 311.296 925.849C309.655 922.385 308.801 918.363 308.732 913.783V909.135C308.732 904.441 309.564 900.305 311.228 896.728C312.891 893.15 315.272 890.393 318.371 888.456C321.493 886.519 325.093 885.551 329.172 885.551C334.663 885.551 339.084 887.043 342.434 890.028C345.783 893.013 347.731 897.229 348.278 902.675H339.665C339.255 899.097 338.207 896.522 336.521 894.95C334.857 893.355 332.408 892.558 329.172 892.558C325.412 892.558 322.518 893.936 320.49 896.693C318.485 899.428 317.46 903.45 317.414 908.759V913.168C317.414 918.546 318.371 922.647 320.285 925.473C322.222 928.298 325.048 929.711 328.762 929.711C332.157 929.711 334.709 928.948 336.418 927.421C338.127 925.894 339.209 923.354 339.665 919.799H348.278ZM383.894 924.413H364.616L360.583 936H351.594L370.393 886.234H378.151L396.984 936H387.961L383.894 924.413ZM367.043 917.44H381.467L374.255 896.796L367.043 917.44ZM442.136 936H433.488L411.306 900.692V936H402.658V886.234H411.306L433.557 921.679V886.234H442.136V936ZM503.693 893.207H488.176V936H479.597V893.207H464.216V886.234H503.693V893.207ZM549.016 912.416C549.016 917.292 548.173 921.576 546.486 925.268C544.8 928.936 542.385 931.762 539.24 933.744C536.118 935.704 532.518 936.684 528.439 936.684C524.406 936.684 520.806 935.704 517.639 933.744C514.494 931.762 512.056 928.948 510.324 925.302C508.615 921.656 507.749 917.452 507.727 912.689V909.887C507.727 905.033 508.581 900.749 510.29 897.035C512.022 893.321 514.449 890.484 517.57 888.524C520.715 886.542 524.315 885.551 528.371 885.551C532.427 885.551 536.016 886.531 539.138 888.49C542.282 890.427 544.709 893.23 546.418 896.898C548.127 900.544 548.993 904.794 549.016 909.647V912.416ZM540.368 909.818C540.368 904.304 539.32 900.077 537.224 897.138C535.15 894.198 532.199 892.729 528.371 892.729C524.634 892.729 521.706 894.198 519.587 897.138C517.491 900.054 516.42 904.19 516.374 909.545V912.416C516.374 917.885 517.434 922.112 519.553 925.097C521.695 928.082 524.657 929.574 528.439 929.574C532.268 929.574 535.207 928.116 537.258 925.199C539.331 922.283 540.368 918.021 540.368 912.416V909.818ZM613.034 919.799C612.533 925.108 610.573 929.255 607.155 932.24C603.737 935.202 599.191 936.684 593.518 936.684C589.553 936.684 586.055 935.749 583.024 933.881C580.017 931.99 577.692 929.312 576.052 925.849C574.411 922.385 573.557 918.363 573.488 913.783V909.135C573.488 904.441 574.32 900.305 575.983 896.728C577.647 893.15 580.028 890.393 583.127 888.456C586.249 886.519 589.849 885.551 593.928 885.551C599.419 885.551 603.84 887.043 607.189 890.028C610.539 893.013 612.487 897.229 613.034 902.675H604.421C604.011 899.097 602.963 896.522 601.276 894.95C599.613 893.355 597.163 892.558 593.928 892.558C590.168 892.558 587.274 893.936 585.246 896.693C583.241 899.428 582.215 903.45 582.17 908.759V913.168C582.17 918.546 583.127 922.647 585.041 925.473C586.978 928.298 589.803 929.711 593.518 929.711C596.913 929.711 599.465 928.948 601.174 927.421C602.883 925.894 603.965 923.354 604.421 919.799H613.034ZM648.649 924.413H629.372L625.339 936H616.35L635.148 886.234H642.907L661.74 936H652.717L648.649 924.413ZM631.799 917.44H646.223L639.011 896.796L631.799 917.44ZM676.062 929.096H698.654V936H667.414V886.234H676.062V929.096ZM713.933 929.096H736.525V936H705.285V886.234H713.933V929.096Z" fill="white"/>
<rect x="170" y="63" width="659" height="659" rx="10.1074" fill="white"/>
<path d="M643.301 127.68H768.355V252.734" stroke="#C2C2C2" stroke-width="25.0108"/>
<path d="M355.676 127.68H230.622V252.734" stroke="#C2C2C2" stroke-width="25.0108"/>
<path d="M643.301 665.41H768.355V540.356" stroke="#C2C2C2" stroke-width="25.0108"/>
<path d="M355.676 665.41H230.622V540.356" stroke="#C2C2C2" stroke-width="25.0108"/>
<path d="M350.831 345.057L340.482 314.939L329.483 345.057H350.831ZM335.655 304.823H346.097L370.832 372.994H360.715L353.801 352.575H326.838L319.459 372.994H309.993L335.655 304.823ZM383.408 348.723C383.408 354.045 384.537 358.5 386.796 362.089C389.054 365.677 392.674 367.472 397.655 367.472C401.522 367.472 404.693 365.817 407.168 362.506C409.674 359.165 410.927 354.385 410.927 348.166C410.927 341.886 409.643 337.245 407.076 334.244C404.508 331.213 401.337 329.697 397.562 329.697C393.355 329.697 389.936 331.305 387.306 334.523C384.707 337.74 383.408 342.474 383.408 348.723ZM395.984 322.411C399.79 322.411 402.976 323.215 405.544 324.824C407.029 325.752 408.715 327.376 410.603 329.697V304.59H418.631V372.994H411.113V366.08C409.164 369.142 406.859 371.354 404.198 372.716C401.538 374.077 398.49 374.758 395.056 374.758C389.518 374.758 384.723 372.437 380.67 367.797C376.617 363.125 374.591 356.922 374.591 349.187C374.591 341.948 376.432 335.683 380.113 330.393C383.826 325.071 389.116 322.411 395.984 322.411ZM436.312 348.723C436.312 354.045 437.441 358.5 439.7 362.089C441.958 365.677 445.578 367.472 450.559 367.472C454.426 367.472 457.597 365.817 460.072 362.506C462.578 359.165 463.831 354.385 463.831 348.166C463.831 341.886 462.547 337.245 459.979 334.244C457.412 331.213 454.24 329.697 450.466 329.697C446.258 329.697 442.84 331.305 440.21 334.523C437.611 337.74 436.312 342.474 436.312 348.723ZM448.888 322.411C452.693 322.411 455.88 323.215 458.448 324.824C459.933 325.752 461.619 327.376 463.506 329.697V304.59H471.535V372.994H464.017V366.08C462.068 369.142 459.763 371.354 457.102 372.716C454.441 374.077 451.394 374.758 447.96 374.758C442.422 374.758 437.627 372.437 433.574 367.797C429.521 363.125 427.495 356.922 427.495 349.187C427.495 341.948 429.335 335.683 433.017 330.393C436.73 325.071 442.02 322.411 448.888 322.411ZM541.423 323.292H550.658C549.483 326.479 546.868 333.749 542.816 345.104C539.784 353.642 537.247 360.604 535.205 365.987C530.379 378.671 526.975 386.406 524.995 389.19C523.015 391.975 519.612 393.367 514.786 393.367C513.61 393.367 512.698 393.32 512.048 393.228C511.429 393.135 510.656 392.965 509.727 392.717V385.106C511.182 385.509 512.233 385.756 512.883 385.849C513.533 385.942 514.105 385.988 514.6 385.988C516.147 385.988 517.276 385.725 517.988 385.199C518.73 384.704 519.349 384.085 519.844 383.343C519.999 383.095 520.556 381.827 521.515 379.538C522.474 377.248 523.17 375.547 523.603 374.433L505.226 323.292H514.693L528.012 363.759L541.423 323.292ZM577.621 367.611C583.159 367.611 586.948 365.523 588.99 361.346C591.063 357.138 592.1 352.467 592.1 347.331C592.1 342.69 591.357 338.916 589.872 336.008C587.521 331.429 583.468 329.14 577.713 329.14C572.609 329.14 568.896 331.089 566.576 334.987C564.256 338.885 563.095 343.588 563.095 349.095C563.095 354.385 564.256 358.794 566.576 362.321C568.896 365.847 572.578 367.611 577.621 367.611ZM577.946 321.854C584.35 321.854 589.764 323.989 594.188 328.258C598.612 332.527 600.824 338.808 600.824 347.099C600.824 355.112 598.875 361.733 594.977 366.961C591.079 372.19 585.03 374.804 576.832 374.804C569.994 374.804 564.565 372.499 560.543 367.889C556.521 363.249 554.51 357.03 554.51 349.234C554.51 340.881 556.629 334.229 560.868 329.279C565.106 324.329 570.799 321.854 577.946 321.854ZM619.155 323.292V356.288C619.155 358.825 619.557 360.897 620.361 362.506C621.846 365.476 624.615 366.961 628.668 366.961C634.484 366.961 638.445 364.362 640.548 359.165C641.693 356.38 642.265 352.56 642.265 347.702V323.292H650.619V372.994H642.729L642.822 365.662C641.739 367.549 640.394 369.142 638.785 370.442C635.598 373.041 631.731 374.34 627.183 374.34C620.098 374.34 615.272 371.973 612.704 367.24C611.312 364.703 610.616 361.315 610.616 357.077V323.292H619.155ZM663.937 323.292H671.873V331.878C672.523 330.207 674.116 328.181 676.653 325.798C679.19 323.385 682.113 322.179 685.424 322.179C685.578 322.179 685.841 322.194 686.213 322.225C686.584 322.256 687.218 322.318 688.115 322.411V331.228C687.62 331.135 687.156 331.073 686.723 331.042C686.321 331.011 685.872 330.996 685.377 330.996C681.17 330.996 677.937 332.357 675.678 335.08C673.42 337.771 672.291 340.881 672.291 344.408V372.994H663.937V323.292Z" fill="#C2C2C2"/>
<path d="M351.675 485.635C348.613 486.656 344.946 487.166 340.677 487.166C331.767 487.166 324.404 484.506 318.587 479.184C311.533 472.78 308.007 463.375 308.007 450.969C308.007 438.47 311.626 429.019 318.866 422.614C324.775 417.386 332.123 414.772 340.909 414.772C349.757 414.772 357.182 417.541 363.184 423.079C370.114 429.483 373.579 438.439 373.579 449.948C373.579 456.043 372.837 461.148 371.352 465.262C370.145 469.191 368.366 472.455 366.015 475.054L373.904 482.433L366.433 490.229L358.172 482.433C355.666 483.949 353.501 485.016 351.675 485.635ZM348.613 473.291L341.698 466.701L349.077 458.997L355.991 465.587C357.074 463.36 357.832 461.411 358.265 459.74C358.946 457.234 359.286 454.31 359.286 450.969C359.286 443.296 357.708 437.372 354.553 433.195C351.428 428.988 346.849 426.884 340.816 426.884C335.155 426.884 330.638 428.895 327.265 432.917C323.893 436.939 322.207 442.956 322.207 450.969C322.207 460.343 324.62 467.057 329.446 471.11C332.571 473.739 336.315 475.054 340.677 475.054C342.317 475.054 343.894 474.853 345.41 474.451C346.246 474.234 347.313 473.848 348.613 473.291ZM413.582 458.441H398.825V485.264H384.856V416.86H418.408C423.204 416.953 426.885 417.541 429.453 418.623C432.052 419.706 434.249 421.3 436.043 423.403C437.528 425.136 438.704 427.054 439.57 429.158C440.436 431.262 440.869 433.659 440.869 436.351C440.869 439.599 440.049 442.801 438.41 445.957C436.77 449.082 434.063 451.294 430.289 452.593C433.444 453.862 435.672 455.672 436.971 458.023C438.301 460.343 438.967 463.901 438.967 468.696V473.291C438.967 476.415 439.09 478.535 439.338 479.648C439.709 481.412 440.575 482.711 441.937 483.547V485.264H426.205C425.772 483.748 425.462 482.526 425.277 481.598C424.905 479.679 424.704 477.715 424.673 475.704L424.58 469.346C424.519 464.984 423.714 462.076 422.167 460.622C420.651 459.168 417.79 458.441 413.582 458.441ZM422.26 446.003C425.106 444.704 426.53 442.136 426.53 438.3C426.53 434.154 425.153 431.37 422.399 429.947C420.852 429.142 418.532 428.74 415.438 428.74H398.825V447.117H415.021C418.238 447.117 420.651 446.746 422.26 446.003ZM522.36 452.825H508.809C508.561 450.938 507.927 449.237 506.906 447.721C505.421 445.679 503.116 444.658 499.992 444.658C495.537 444.658 492.489 446.87 490.849 451.294C489.983 453.645 489.55 456.77 489.55 460.668C489.55 464.381 489.983 467.366 490.849 469.625C492.427 473.832 495.397 475.936 499.76 475.936C502.853 475.936 505.05 475.101 506.349 473.43C507.649 471.759 508.438 469.594 508.716 466.933H522.22C521.911 470.955 520.457 474.76 517.858 478.349C513.713 484.134 507.571 487.027 499.435 487.027C491.298 487.027 485.312 484.614 481.475 479.788C477.639 474.961 475.721 468.696 475.721 460.993C475.721 452.299 477.84 445.539 482.079 440.713C486.317 435.887 492.164 433.474 499.62 433.474C505.963 433.474 511.145 434.897 515.167 437.743C519.219 440.589 521.617 445.617 522.36 452.825ZM573.686 441.084C577.955 446.437 580.09 452.763 580.09 460.065C580.09 467.49 577.955 473.848 573.686 479.138C569.416 484.397 562.935 487.027 554.241 487.027C545.548 487.027 539.066 484.397 534.797 479.138C530.527 473.848 528.393 467.49 528.393 460.065C528.393 452.763 530.527 446.437 534.797 441.084C539.066 435.732 545.548 433.056 554.241 433.056C562.935 433.056 569.416 435.732 573.686 441.084ZM554.195 444.24C550.328 444.24 547.342 445.617 545.238 448.37C543.165 451.093 542.129 454.991 542.129 460.065C542.129 465.139 543.165 469.052 545.238 471.806C547.342 474.559 550.328 475.936 554.195 475.936C558.062 475.936 561.032 474.559 563.105 471.806C565.178 469.052 566.214 465.139 566.214 460.065C566.214 454.991 565.178 451.093 563.105 448.37C561.032 445.617 558.062 444.24 554.195 444.24ZM635.639 416.953V485.264H622.784V478.256C620.897 481.257 618.747 483.438 616.333 484.8C613.92 486.161 610.919 486.842 607.331 486.842C601.421 486.842 596.44 484.459 592.388 479.695C588.366 474.899 586.355 468.758 586.355 461.271C586.355 452.64 588.335 445.849 592.295 440.899C596.286 435.949 601.607 433.474 608.259 433.474C611.322 433.474 614.044 434.154 616.426 435.516C618.809 436.846 620.742 438.702 622.227 441.084V416.953H635.639ZM599.998 460.297C599.998 464.968 600.926 468.696 602.783 471.481C604.608 474.296 607.392 475.704 611.136 475.704C614.879 475.704 617.726 474.312 619.675 471.527C621.624 468.743 622.598 465.139 622.598 460.714C622.598 454.527 621.036 450.103 617.911 447.442C615.993 445.833 613.766 445.029 611.229 445.029C607.361 445.029 604.515 446.499 602.69 449.438C600.895 452.346 599.998 455.965 599.998 460.297ZM691.002 470.413C690.662 473.414 689.099 476.462 686.315 479.556C681.984 484.475 675.92 486.934 668.124 486.934C661.688 486.934 656.011 484.861 651.092 480.716C646.173 476.57 643.714 469.826 643.714 460.482C643.714 451.727 645.926 445.013 650.35 440.342C654.805 435.67 660.575 433.334 667.659 433.334C671.867 433.334 675.657 434.123 679.029 435.701C682.401 437.279 685.186 439.77 687.382 443.173C689.362 446.174 690.646 449.654 691.234 453.614C691.574 455.935 691.714 459.276 691.652 463.638H657.032C657.218 468.712 658.811 472.27 661.812 474.312C663.638 475.58 665.834 476.214 668.402 476.214C671.124 476.214 673.337 475.441 675.038 473.894C675.966 473.059 676.786 471.899 677.498 470.413H691.002ZM677.915 454.914C677.699 451.418 676.631 448.772 674.713 446.978C672.826 445.153 670.475 444.24 667.659 444.24C664.597 444.24 662.214 445.199 660.513 447.117C658.842 449.035 657.79 451.634 657.357 454.914H677.915Z" fill="#C2C2C2"/>
</svg>
