<svg width="1000" height="1000" viewBox="0 0 1000 1000" fill="none" xmlns="http://www.w3.org/2000/svg">
<rect x="120" width="760" height="1000" rx="10.3842" fill="#333333"/>
<path d="M230.135 882.084C230.135 879.709 229.294 877.878 227.611 876.592C225.954 875.305 222.948 874.007 218.594 872.695C214.24 871.384 210.776 869.924 208.203 868.316C203.28 865.224 200.818 861.191 200.818 856.219C200.818 851.865 202.587 848.277 206.125 845.457C209.688 842.637 214.301 841.227 219.967 841.227C223.727 841.227 227.079 841.919 230.023 843.305C232.967 844.69 235.281 846.669 236.963 849.242C238.645 851.79 239.486 854.623 239.486 857.74H230.135C230.135 854.92 229.244 852.718 227.463 851.135C225.706 849.527 223.183 848.723 219.893 848.723C216.825 848.723 214.438 849.378 212.73 850.689C211.048 852.001 210.207 853.831 210.207 856.182C210.207 858.161 211.122 859.818 212.953 861.154C214.784 862.465 217.802 863.752 222.008 865.014C226.214 866.251 229.59 867.673 232.139 869.281C234.687 870.865 236.555 872.695 237.742 874.773C238.93 876.827 239.523 879.239 239.523 882.01C239.523 886.512 237.792 890.1 234.328 892.771C230.889 895.419 226.214 896.742 220.301 896.742C216.392 896.742 212.792 896.025 209.502 894.59C206.236 893.13 203.688 891.126 201.857 888.578C200.051 886.03 199.148 883.061 199.148 879.672H208.537C208.537 882.74 209.551 885.115 211.58 886.797C213.609 888.479 216.516 889.32 220.301 889.32C223.566 889.32 226.016 888.665 227.648 887.354C229.306 886.018 230.135 884.261 230.135 882.084ZM263.385 889.543C265.636 889.543 267.504 888.887 268.988 887.576C270.473 886.265 271.264 884.645 271.363 882.715H279.861C279.762 885.214 278.983 887.551 277.523 889.729C276.064 891.881 274.085 893.588 271.586 894.85C269.087 896.111 266.391 896.742 263.496 896.742C257.88 896.742 253.427 894.924 250.137 891.287C246.846 887.65 245.201 882.628 245.201 876.221V875.293C245.201 869.182 246.834 864.296 250.1 860.635C253.365 856.949 257.818 855.105 263.459 855.105C268.234 855.105 272.118 856.503 275.111 859.299C278.13 862.07 279.713 865.719 279.861 870.246H271.363C271.264 867.945 270.473 866.053 268.988 864.568C267.529 863.084 265.661 862.342 263.385 862.342C260.465 862.342 258.214 863.406 256.631 865.533C255.048 867.636 254.243 870.84 254.219 875.145V876.592C254.219 880.946 254.998 884.199 256.557 886.352C258.14 888.479 260.416 889.543 263.385 889.543ZM310.662 896C310.266 895.233 309.92 893.984 309.623 892.252C306.753 895.245 303.24 896.742 299.084 896.742C295.051 896.742 291.761 895.592 289.213 893.291C286.665 890.99 285.391 888.145 285.391 884.756C285.391 880.476 286.974 877.198 290.141 874.922C293.332 872.621 297.884 871.471 303.797 871.471H309.326V868.836C309.326 866.758 308.745 865.1 307.582 863.863C306.419 862.602 304.65 861.971 302.275 861.971C300.222 861.971 298.54 862.49 297.229 863.529C295.917 864.544 295.262 865.842 295.262 867.426H286.244C286.244 865.224 286.974 863.171 288.434 861.266C289.893 859.336 291.872 857.827 294.371 856.738C296.895 855.65 299.702 855.105 302.795 855.105C307.495 855.105 311.243 856.293 314.039 858.668C316.835 861.018 318.27 864.333 318.344 868.613V886.723C318.344 890.335 318.851 893.217 319.865 895.369V896H310.662ZM300.754 889.506C302.535 889.506 304.205 889.073 305.764 888.207C307.347 887.341 308.535 886.178 309.326 884.719V877.148H304.465C301.125 877.148 298.614 877.73 296.932 878.893C295.249 880.055 294.408 881.701 294.408 883.828C294.408 885.56 294.977 886.945 296.115 887.984C297.278 888.999 298.824 889.506 300.754 889.506ZM336.156 855.848L336.416 860.486C339.385 856.899 343.281 855.105 348.105 855.105C356.467 855.105 360.723 859.893 360.871 869.467V896H351.854V869.986C351.854 867.438 351.297 865.558 350.184 864.346C349.095 863.109 347.301 862.49 344.803 862.49C341.166 862.49 338.457 864.135 336.676 867.426V896H327.658V855.848H336.156ZM387.59 881.416C387.59 878.917 388.27 876.629 389.631 874.551C390.992 872.448 393.676 869.962 397.684 867.092C395.581 864.445 394.109 862.193 393.268 860.338C392.451 858.482 392.043 856.689 392.043 854.957C392.043 850.727 393.329 847.387 395.902 844.938C398.475 842.464 401.939 841.227 406.293 841.227C410.227 841.227 413.443 842.389 415.941 844.715C418.465 847.016 419.727 849.873 419.727 853.287C419.727 855.538 419.158 857.617 418.02 859.521C416.882 861.402 415.014 863.282 412.416 865.162L408.742 867.834L419.17 880.154C420.679 877.186 421.434 873.883 421.434 870.246H429.264C429.264 876.901 427.705 882.356 424.588 886.611L432.529 896H422.064L419.021 892.4C415.162 895.295 410.561 896.742 405.217 896.742C399.873 896.742 395.593 895.332 392.377 892.512C389.186 889.667 387.59 885.968 387.59 881.416ZM405.477 889.543C408.52 889.543 411.365 888.529 414.012 886.5L402.211 872.584L401.061 873.4C398.092 875.652 396.607 878.225 396.607 881.119C396.607 883.618 397.411 885.646 399.02 887.205C400.628 888.764 402.78 889.543 405.477 889.543ZM400.504 854.734C400.504 856.812 401.778 859.423 404.326 862.564L408.445 859.744L409.596 858.816C411.13 857.456 411.896 855.712 411.896 853.584C411.896 852.174 411.365 850.974 410.301 849.984C409.237 848.97 407.889 848.463 406.256 848.463C404.499 848.463 403.102 849.057 402.062 850.244C401.023 851.432 400.504 852.928 400.504 854.734ZM498.658 878.41C498.114 884.174 495.986 888.677 492.275 891.918C488.564 895.134 483.629 896.742 477.469 896.742C473.164 896.742 469.367 895.728 466.076 893.699C462.811 891.646 460.287 888.739 458.506 884.979C456.725 881.218 455.797 876.852 455.723 871.879V866.832C455.723 861.736 456.626 857.245 458.432 853.361C460.238 849.477 462.823 846.484 466.188 844.381C469.577 842.278 473.486 841.227 477.914 841.227C483.876 841.227 488.676 842.847 492.312 846.088C495.949 849.329 498.064 853.906 498.658 859.818H489.307C488.861 855.934 487.723 853.139 485.893 851.432C484.087 849.7 481.427 848.834 477.914 848.834C473.832 848.834 470.69 850.331 468.488 853.324C466.311 856.293 465.198 860.66 465.148 866.424V871.211C465.148 877.049 466.188 881.503 468.266 884.57C470.368 887.638 473.436 889.172 477.469 889.172C481.155 889.172 483.926 888.343 485.781 886.686C487.637 885.028 488.812 882.27 489.307 878.41H498.658ZM530.201 896C529.805 895.233 529.459 893.984 529.162 892.252C526.292 895.245 522.779 896.742 518.623 896.742C514.59 896.742 511.3 895.592 508.752 893.291C506.204 890.99 504.93 888.145 504.93 884.756C504.93 880.476 506.513 877.198 509.68 874.922C512.871 872.621 517.423 871.471 523.336 871.471H528.865V868.836C528.865 866.758 528.284 865.1 527.121 863.863C525.958 862.602 524.189 861.971 521.814 861.971C519.761 861.971 518.079 862.49 516.768 863.529C515.456 864.544 514.801 865.842 514.801 867.426H505.783C505.783 865.224 506.513 863.171 507.973 861.266C509.432 859.336 511.411 857.827 513.91 856.738C516.434 855.65 519.242 855.105 522.334 855.105C527.035 855.105 530.783 856.293 533.578 858.668C536.374 861.018 537.809 864.333 537.883 868.613V886.723C537.883 890.335 538.39 893.217 539.404 895.369V896H530.201ZM520.293 889.506C522.074 889.506 523.744 889.073 525.303 888.207C526.886 887.341 528.074 886.178 528.865 884.719V877.148H524.004C520.664 877.148 518.153 877.73 516.471 878.893C514.788 880.055 513.947 881.701 513.947 883.828C513.947 885.56 514.516 886.945 515.654 887.984C516.817 888.999 518.363 889.506 520.293 889.506ZM556.92 896H547.902V839H556.92V896ZM576.365 896H567.348V839H576.365V896Z" fill="white"/>
<rect x="161.5" y="34" width="677" height="677" rx="10.3834" fill="white"/>
<path d="M647.73 100.445H776.2V228.915" stroke="#C2C2C2" stroke-width="25.694"/>
<path d="M352.25 100.445H223.78V228.915" stroke="#C2C2C2" stroke-width="25.694"/>
<path d="M647.73 652.863H776.2V524.393" stroke="#C2C2C2" stroke-width="25.694"/>
<path d="M352.25 652.863H223.78V524.393" stroke="#C2C2C2" stroke-width="25.694"/>
<path d="M347.268 324.466L336.637 293.525L325.338 324.466H347.268ZM331.679 283.132H342.405L367.816 353.166H357.423L350.319 332.189H322.621L315.04 353.166H305.315L331.679 283.132ZM380.736 328.232C380.736 333.699 381.896 338.276 384.216 341.963C386.536 345.649 390.255 347.493 395.372 347.493C399.344 347.493 402.602 345.792 405.145 342.392C407.719 338.959 409.007 334.049 409.007 327.66C409.007 321.208 407.688 316.441 405.05 313.358C402.412 310.243 399.154 308.686 395.276 308.686C390.954 308.686 387.442 310.339 384.74 313.644C382.07 316.949 380.736 321.812 380.736 328.232ZM393.655 301.201C397.565 301.201 400.838 302.027 403.476 303.68C405.002 304.633 406.734 306.302 408.673 308.686V282.894H416.92V353.166H409.197V346.063C407.195 349.209 404.827 351.482 402.094 352.88C399.36 354.278 396.23 354.978 392.702 354.978C387.013 354.978 382.086 352.594 377.923 347.826C373.759 343.027 371.677 336.655 371.677 328.709C371.677 321.272 373.569 314.836 377.351 309.401C381.165 303.934 386.6 301.201 393.655 301.201ZM435.084 328.232C435.084 333.699 436.244 338.276 438.565 341.963C440.885 345.649 444.603 347.493 449.72 347.493C453.693 347.493 456.951 345.792 459.494 342.392C462.068 338.959 463.355 334.049 463.355 327.66C463.355 321.208 462.036 316.441 459.398 313.358C456.76 310.243 453.503 308.686 449.625 308.686C445.303 308.686 441.791 310.339 439.089 313.644C436.419 316.949 435.084 321.812 435.084 328.232ZM448.004 301.201C451.913 301.201 455.187 302.027 457.825 303.68C459.351 304.633 461.083 306.302 463.022 308.686V282.894H471.269V353.166H463.546V346.063C461.544 349.209 459.176 351.482 456.443 352.88C453.709 354.278 450.579 354.978 447.051 354.978C441.362 354.978 436.435 352.594 432.272 347.826C428.108 343.027 426.026 336.655 426.026 328.709C426.026 321.272 427.917 314.836 431.7 309.401C435.513 303.934 440.948 301.201 448.004 301.201ZM543.067 302.107H552.554C551.346 305.38 548.661 312.849 544.497 324.514C541.382 333.286 538.776 340.437 536.679 345.967C531.72 358.998 528.224 366.944 526.19 369.804C524.156 372.665 520.66 374.095 515.702 374.095C514.494 374.095 513.556 374.047 512.889 373.952C512.253 373.857 511.459 373.682 510.505 373.428V365.609C511.999 366.022 513.08 366.276 513.747 366.372C514.415 366.467 515.003 366.515 515.511 366.515C517.1 366.515 518.26 366.245 518.991 365.704C519.754 365.196 520.39 364.56 520.898 363.797C521.057 363.543 521.629 362.24 522.615 359.888C523.6 357.536 524.315 355.788 524.76 354.644L505.881 302.107H515.606L529.289 343.679L543.067 302.107ZM580.253 347.636C585.942 347.636 589.835 345.49 591.933 341.2C594.063 336.877 595.127 332.078 595.127 326.802C595.127 322.035 594.365 318.157 592.839 315.17C590.423 310.466 586.26 308.114 580.348 308.114C575.104 308.114 571.29 310.116 568.906 314.121C566.523 318.125 565.331 322.956 565.331 328.614C565.331 334.049 566.523 338.578 568.906 342.201C571.29 345.824 575.072 347.636 580.253 347.636ZM580.587 300.629C587.166 300.629 592.728 302.822 597.273 307.208C601.818 311.594 604.09 318.046 604.09 326.564C604.09 334.795 602.088 341.597 598.083 346.968C594.078 352.34 587.865 355.025 579.442 355.025C572.418 355.025 566.84 352.657 562.709 347.922C558.577 343.154 556.511 336.766 556.511 328.757C556.511 320.175 558.688 313.342 563.042 308.257C567.397 303.171 573.245 300.629 580.587 300.629ZM622.921 302.107V336.003C622.921 338.609 623.335 340.739 624.161 342.392C625.687 345.443 628.531 346.968 632.695 346.968C638.67 346.968 642.738 344.299 644.899 338.959C646.075 336.099 646.663 332.173 646.663 327.183V302.107H655.245V353.166H647.14L647.235 345.633C646.123 347.572 644.74 349.209 643.088 350.544C639.814 353.214 635.841 354.549 631.169 354.549C623.891 354.549 618.933 352.117 616.295 347.254C614.864 344.648 614.149 341.168 614.149 336.814V302.107H622.921ZM668.927 302.107H677.08V310.927C677.747 309.21 679.384 307.128 681.99 304.681C684.596 302.202 687.6 300.963 691.001 300.963C691.159 300.963 691.43 300.978 691.811 301.01C692.192 301.042 692.844 301.106 693.766 301.201V310.259C693.257 310.164 692.78 310.1 692.335 310.068C691.922 310.037 691.461 310.021 690.953 310.021C686.63 310.021 683.309 311.419 680.989 314.216C678.669 316.981 677.509 320.175 677.509 323.799V353.166H668.927V302.107Z" fill="#C2C2C2"/>
<path d="M348.137 468.885C344.99 469.934 341.224 470.459 336.838 470.459C327.685 470.459 320.12 467.725 314.145 462.259C306.899 455.679 303.275 446.017 303.275 433.273C303.275 420.432 306.994 410.723 314.431 404.143C320.502 398.772 328.05 396.087 337.077 396.087C346.166 396.087 353.794 398.931 359.96 404.62C367.08 411.199 370.639 420.4 370.639 432.224C370.639 438.485 369.877 443.729 368.351 447.956C367.111 451.993 365.284 455.346 362.868 458.016L370.973 465.596L363.297 473.605L354.811 465.596C352.237 467.153 350.012 468.25 348.137 468.885ZM344.99 456.204L337.887 449.434L345.467 441.52L352.571 448.29C353.683 446.002 354.462 443.999 354.907 442.283C355.606 439.709 355.956 436.705 355.956 433.273C355.956 425.39 354.335 419.304 351.093 415.013C347.883 410.691 343.179 408.53 336.981 408.53C331.165 408.53 326.525 410.595 323.06 414.727C319.596 418.859 317.864 425.041 317.864 433.273C317.864 442.903 320.343 449.8 325.301 453.963C328.511 456.665 332.357 458.016 336.838 458.016C338.523 458.016 340.144 457.809 341.701 457.396C342.559 457.173 343.656 456.776 344.99 456.204ZM411.735 440.948H396.574V468.504H382.224V398.232H416.693C421.619 398.327 425.401 398.931 428.039 400.043C430.709 401.156 432.966 402.793 434.809 404.954C436.335 406.734 437.542 408.704 438.432 410.866C439.322 413.027 439.767 415.49 439.767 418.255C439.767 421.592 438.925 424.882 437.24 428.124C435.556 431.334 432.775 433.606 428.897 434.941C432.139 436.244 434.428 438.104 435.763 440.519C437.129 442.903 437.813 446.558 437.813 451.484V456.204C437.813 459.414 437.94 461.591 438.194 462.735C438.575 464.547 439.465 465.882 440.864 466.74V468.504H424.702C424.257 466.947 423.939 465.691 423.749 464.738C423.367 462.767 423.161 460.749 423.129 458.683L423.033 452.152C422.97 447.67 422.144 444.683 420.554 443.189C418.997 441.695 416.057 440.948 411.735 440.948ZM420.65 428.171C423.574 426.836 425.036 424.199 425.036 420.257C425.036 415.999 423.621 413.138 420.793 411.676C419.204 410.85 416.82 410.437 413.642 410.437H396.574V429.316H413.213C416.518 429.316 418.997 428.934 420.65 428.171ZM523.483 435.18H509.562C509.308 433.241 508.657 431.493 507.608 429.935C506.082 427.838 503.714 426.789 500.504 426.789C495.928 426.789 492.797 429.061 491.112 433.606C490.223 436.022 489.778 439.232 489.778 443.236C489.778 447.05 490.223 450.117 491.112 452.438C492.733 456.76 495.785 458.921 500.266 458.921C503.444 458.921 505.701 458.063 507.036 456.347C508.371 454.631 509.181 452.406 509.467 449.673H523.34C523.023 453.804 521.529 457.714 518.859 461.4C514.6 467.344 508.291 470.316 499.932 470.316C491.573 470.316 485.423 467.836 481.482 462.878C477.541 457.92 475.571 451.484 475.571 443.57C475.571 434.639 477.748 427.695 482.102 422.736C486.456 417.778 492.463 415.299 500.123 415.299C506.638 415.299 511.962 416.761 516.094 419.685C520.257 422.609 522.721 427.774 523.483 435.18ZM576.211 423.118C580.597 428.616 582.79 435.116 582.79 442.617C582.79 450.245 580.597 456.776 576.211 462.211C571.825 467.614 565.167 470.316 556.236 470.316C547.305 470.316 540.646 467.614 536.26 462.211C531.874 456.776 529.681 450.245 529.681 442.617C529.681 435.116 531.874 428.616 536.26 423.118C540.646 417.619 547.305 414.87 556.236 414.87C565.167 414.87 571.825 417.619 576.211 423.118ZM556.188 426.36C552.215 426.36 549.148 427.774 546.987 430.603C544.857 433.4 543.793 437.404 543.793 442.617C543.793 447.829 544.857 451.85 546.987 454.678C549.148 457.507 552.215 458.921 556.188 458.921C560.161 458.921 563.212 457.507 565.342 454.678C567.471 451.85 568.536 447.829 568.536 442.617C568.536 437.404 567.471 433.4 565.342 430.603C563.212 427.774 560.161 426.36 556.188 426.36ZM639.857 398.327V468.504H626.651V461.305C624.712 464.388 622.503 466.629 620.024 468.027C617.545 469.426 614.462 470.125 610.775 470.125C604.705 470.125 599.588 467.678 595.424 462.783C591.292 457.857 589.226 451.548 589.226 443.856C589.226 434.989 591.26 428.012 595.329 422.927C599.429 417.842 604.895 415.299 611.729 415.299C614.875 415.299 617.672 415.999 620.119 417.397C622.567 418.764 624.553 420.671 626.079 423.118V398.327H639.857ZM603.243 442.855C603.243 447.654 604.196 451.484 606.103 454.345C607.978 457.237 610.839 458.683 614.685 458.683C618.53 458.683 621.454 457.253 623.457 454.392C625.459 451.532 626.46 447.829 626.46 443.284C626.46 436.928 624.855 432.383 621.645 429.649C619.674 427.997 617.386 427.17 614.78 427.17C610.807 427.17 607.883 428.68 606.008 431.699C604.164 434.687 603.243 438.405 603.243 442.855ZM696.732 453.248C696.383 456.331 694.777 459.462 691.917 462.64C687.467 467.693 681.238 470.22 673.229 470.22C666.618 470.22 660.786 468.091 655.732 463.832C650.679 459.573 648.152 452.644 648.152 443.046C648.152 434.051 650.424 427.154 654.969 422.355C659.546 417.556 665.474 415.156 672.752 415.156C677.074 415.156 680.968 415.967 684.432 417.588C687.896 419.209 690.757 421.767 693.014 425.263C695.048 428.346 696.367 431.922 696.97 435.99C697.32 438.374 697.463 441.806 697.4 446.288H661.834C662.025 451.5 663.662 455.155 666.745 457.253C668.62 458.556 670.877 459.207 673.515 459.207C676.312 459.207 678.584 458.413 680.332 456.824C681.286 455.966 682.128 454.774 682.859 453.248H696.732ZM683.288 437.325C683.065 433.733 681.969 431.016 679.998 429.173C678.06 427.297 675.644 426.36 672.752 426.36C669.605 426.36 667.158 427.345 665.41 429.316C663.694 431.286 662.613 433.956 662.168 437.325H683.288Z" fill="#C2C2C2"/>
<circle cx="734" cy="871" r="92" fill="white"/>
<circle cx="734" cy="871" r="85" stroke="#333333" stroke-width="2"/>
<path fill-rule="evenodd" clip-rule="evenodd" d="M757.581 806.387H749.355V808.582C749.355 809.793 748.373 810.775 747.161 810.775H720.839C719.627 810.775 718.645 809.793 718.645 808.582V806.387H710.419C707.088 806.387 704.387 809.088 704.387 812.419V929.774C704.387 933.106 707.088 935.806 710.419 935.806H757.581C760.912 935.806 763.613 933.106 763.613 929.774V812.419C763.613 809.088 760.912 806.387 757.581 806.387ZM710.419 802C704.665 802 700 806.665 700 812.419V929.774C700 935.529 704.665 940.194 710.419 940.194H757.581C763.335 940.194 768 935.529 768 929.774V812.419C768 806.665 763.335 802 757.581 802H710.419ZM734 923.194C730.971 923.194 728.516 925.65 728.516 928.678C728.516 931.707 730.971 934.162 734 934.162C737.029 934.162 739.484 931.707 739.484 928.678C739.484 925.65 737.029 923.194 734 923.194Z" fill="#333333"/>
</svg>
