<svg width="1000" height="1000" viewBox="0 0 1000 1000" fill="none" xmlns="http://www.w3.org/2000/svg">
<rect x="197" width="608" height="999" rx="37" fill="#333333"/>
<rect x="216" y="19" width="568" height="961" rx="37" fill="white"/>
<rect x="226" y="164" width="549" height="549" rx="8.42025" fill="white"/>
<path d="M620.297 217.885H724.477V322.065" stroke="#C2C2C2" stroke-width="20.836"/>
<path d="M380.684 217.885H276.503V322.065" stroke="#C2C2C2" stroke-width="20.836"/>
<path d="M620.297 665.857H724.477V561.677" stroke="#C2C2C2" stroke-width="20.836"/>
<path d="M380.684 665.857H276.503V561.677" stroke="#C2C2C2" stroke-width="20.836"/>
<path d="M376.646 398.998L368.024 373.907L358.862 398.998H376.646ZM364.003 365.479H372.702L393.308 422.271H384.88L379.12 405.261H356.658L350.511 422.271H342.624L364.003 365.479ZM403.785 402.052C403.785 406.485 404.726 410.196 406.607 413.186C408.489 416.176 411.504 417.671 415.654 417.671C418.876 417.671 421.518 416.292 423.579 413.534C425.667 410.751 426.711 406.769 426.711 401.588C426.711 396.356 425.641 392.49 423.502 389.99C421.363 387.464 418.721 386.201 415.577 386.201C412.072 386.201 409.224 387.541 407.033 390.222C404.868 392.902 403.785 396.846 403.785 402.052ZM414.262 380.131C417.432 380.131 420.087 380.802 422.226 382.142C423.464 382.915 424.868 384.268 426.44 386.201V365.286H433.129V422.271H426.866V416.511C425.242 419.063 423.322 420.905 421.105 422.04C418.889 423.174 416.35 423.741 413.489 423.741C408.876 423.741 404.881 421.808 401.504 417.941C398.128 414.05 396.44 408.882 396.44 402.439C396.44 396.408 397.973 391.188 401.04 386.781C404.133 382.348 408.541 380.131 414.262 380.131ZM447.858 402.052C447.858 406.485 448.799 410.196 450.681 413.186C452.562 416.176 455.578 417.671 459.727 417.671C462.949 417.671 465.591 416.292 467.653 413.534C469.74 410.751 470.784 406.769 470.784 401.588C470.784 396.356 469.715 392.49 467.575 389.99C465.436 387.464 462.794 386.201 459.65 386.201C456.145 386.201 453.297 387.541 451.106 390.222C448.941 392.902 447.858 396.846 447.858 402.052ZM458.335 380.131C461.506 380.131 464.16 380.802 466.299 382.142C467.537 382.915 468.941 384.268 470.513 386.201V365.286H477.202V422.271H470.939V416.511C469.315 419.063 467.395 420.905 465.178 422.04C462.962 423.174 460.423 423.741 457.562 423.741C452.949 423.741 448.954 421.808 445.577 417.941C442.201 414.05 440.513 408.882 440.513 402.439C440.513 396.408 442.046 391.188 445.113 386.781C448.206 382.348 452.614 380.131 458.335 380.131ZM535.425 380.866H543.118C542.139 383.521 539.961 389.577 536.584 399.036C534.059 406.15 531.945 411.949 530.244 416.434C526.223 427.001 523.388 433.444 521.739 435.764C520.089 438.084 517.254 439.243 513.233 439.243C512.254 439.243 511.494 439.205 510.952 439.128C510.437 439.05 509.793 438.908 509.019 438.702V432.362C510.231 432.697 511.107 432.903 511.648 432.98C512.19 433.058 512.666 433.096 513.079 433.096C514.368 433.096 515.308 432.877 515.901 432.439C516.52 432.027 517.035 431.511 517.447 430.893C517.576 430.687 518.04 429.63 518.839 427.723C519.638 425.815 520.218 424.398 520.579 423.47L505.269 380.866H513.156L524.252 414.578L535.425 380.866ZM565.58 417.787C570.193 417.787 573.351 416.047 575.052 412.568C576.779 409.062 577.642 405.171 577.642 400.892C577.642 397.026 577.023 393.882 575.786 391.459C573.828 387.644 570.451 385.737 565.657 385.737C561.405 385.737 558.312 387.361 556.379 390.608C554.446 393.856 553.479 397.774 553.479 402.361C553.479 406.769 554.446 410.441 556.379 413.38C558.312 416.318 561.379 417.787 565.58 417.787ZM565.851 379.667C571.186 379.667 575.696 381.446 579.382 385.003C583.067 388.559 584.91 393.791 584.91 400.699C584.91 407.374 583.287 412.89 580.039 417.246C576.792 421.601 571.753 423.779 564.923 423.779C559.227 423.779 554.703 421.859 551.353 418.019C548.002 414.153 546.327 408.972 546.327 402.477C546.327 395.518 548.092 389.977 551.623 385.853C555.154 381.729 559.897 379.667 565.851 379.667ZM600.181 380.866V408.354C600.181 410.467 600.516 412.194 601.186 413.534C602.424 416.008 604.73 417.246 608.107 417.246C612.952 417.246 616.251 415.081 618.004 410.751C618.957 408.431 619.434 405.248 619.434 401.201V380.866H626.393V422.271H619.821L619.898 416.163C618.996 417.735 617.875 419.063 616.535 420.145C613.88 422.31 610.658 423.393 606.869 423.393C600.967 423.393 596.947 421.421 594.807 417.478C593.648 415.364 593.068 412.542 593.068 409.011V380.866H600.181ZM637.489 380.866H644.1V388.018C644.641 386.626 645.968 384.938 648.082 382.954C650.195 380.943 652.631 379.938 655.389 379.938C655.517 379.938 655.737 379.951 656.046 379.977C656.355 380.003 656.883 380.054 657.631 380.131V387.477C657.219 387.4 656.832 387.348 656.471 387.322C656.136 387.297 655.762 387.284 655.35 387.284C651.845 387.284 649.151 388.418 647.27 390.686C645.388 392.928 644.448 395.518 644.448 398.457V422.271H637.489V380.866Z" fill="#C2C2C2"/>
<path d="M377.348 516.11C374.796 516.961 371.742 517.386 368.185 517.386C360.763 517.386 354.628 515.169 349.783 510.736C343.907 505.401 340.968 497.566 340.968 487.231C340.968 476.818 343.984 468.944 350.015 463.609C354.938 459.253 361.059 457.075 368.379 457.075C375.75 457.075 381.936 459.382 386.936 463.996C392.709 469.331 395.596 476.792 395.596 486.38C395.596 491.457 394.977 495.71 393.74 499.138C392.735 502.411 391.253 505.13 389.294 507.295L395.866 513.442L389.642 519.937L382.761 513.442C380.673 514.705 378.869 515.595 377.348 516.11ZM374.796 505.826L369.036 500.337L375.183 493.919L380.943 499.409C381.846 497.553 382.477 495.929 382.838 494.537C383.405 492.45 383.688 490.014 383.688 487.231C383.688 480.839 382.374 475.903 379.745 472.424C377.142 468.918 373.327 467.166 368.301 467.166C363.585 467.166 359.822 468.841 357.013 472.192C354.203 475.542 352.799 480.555 352.799 487.231C352.799 495.04 354.809 500.633 358.83 504.009C361.433 506.2 364.551 507.295 368.185 507.295C369.551 507.295 370.866 507.128 372.129 506.793C372.825 506.612 373.714 506.29 374.796 505.826ZM428.921 493.455H416.627V515.801H404.99V458.815H432.942C436.937 458.892 440.004 459.382 442.143 460.284C444.308 461.186 446.138 462.514 447.633 464.266C448.87 465.71 449.85 467.307 450.571 469.06C451.293 470.813 451.654 472.81 451.654 475.052C451.654 477.759 450.971 480.426 449.605 483.055C448.239 485.658 445.984 487.501 442.839 488.584C445.468 489.64 447.324 491.148 448.406 493.107C449.515 495.04 450.069 498.004 450.069 501.999V505.826C450.069 508.429 450.172 510.195 450.378 511.123C450.687 512.592 451.409 513.674 452.543 514.37V515.801H439.437C439.076 514.538 438.818 513.52 438.664 512.747C438.355 511.149 438.187 509.512 438.161 507.837L438.084 502.54C438.032 498.906 437.362 496.483 436.074 495.272C434.811 494.061 432.427 493.455 428.921 493.455ZM436.151 483.094C438.522 482.011 439.708 479.872 439.708 476.676C439.708 473.223 438.561 470.903 436.267 469.717C434.978 469.047 433.045 468.712 430.468 468.712H416.627V484.022H430.12C432.8 484.022 434.811 483.712 436.151 483.094ZM519.542 488.777H508.253C508.047 487.205 507.518 485.787 506.668 484.524C505.431 482.823 503.511 481.973 500.907 481.973C497.196 481.973 494.657 483.816 493.291 487.501C492.57 489.46 492.209 492.063 492.209 495.311C492.209 498.404 492.57 500.891 493.291 502.772C494.606 506.277 497.08 508.03 500.714 508.03C503.291 508.03 505.121 507.334 506.204 505.942C507.286 504.551 507.944 502.746 508.176 500.53H519.426C519.168 503.88 517.957 507.051 515.792 510.04C512.338 514.86 507.222 517.27 500.443 517.27C493.665 517.27 488.678 515.26 485.482 511.239C482.286 507.218 480.688 501.999 480.688 495.581C480.688 488.339 482.453 482.707 485.984 478.687C489.515 474.666 494.387 472.656 500.598 472.656C505.882 472.656 510.199 473.841 513.549 476.212C516.926 478.583 518.923 482.772 519.542 488.777ZM562.3 478.996C565.857 483.455 567.636 488.725 567.636 494.808C567.636 500.994 565.857 506.29 562.3 510.698C558.744 515.079 553.344 517.27 546.102 517.27C538.859 517.27 533.46 515.079 529.903 510.698C526.346 506.29 524.568 500.994 524.568 494.808C524.568 488.725 526.346 483.455 529.903 478.996C533.46 474.537 538.859 472.308 546.102 472.308C553.344 472.308 558.744 474.537 562.3 478.996ZM546.063 481.625C542.841 481.625 540.354 482.772 538.601 485.066C536.875 487.334 536.011 490.581 536.011 494.808C536.011 499.035 536.875 502.295 538.601 504.589C540.354 506.883 542.841 508.03 546.063 508.03C549.285 508.03 551.759 506.883 553.486 504.589C555.213 502.295 556.076 499.035 556.076 494.808C556.076 490.581 555.213 487.334 553.486 485.066C551.759 482.772 549.285 481.625 546.063 481.625ZM613.912 458.892V515.801H603.203V509.963C601.631 512.463 599.84 514.28 597.83 515.414C595.819 516.548 593.319 517.115 590.329 517.115C585.407 517.115 581.257 515.131 577.881 511.162C574.53 507.167 572.855 502.05 572.855 495.813C572.855 488.622 574.504 482.965 577.803 478.841C581.128 474.717 585.561 472.656 591.103 472.656C593.654 472.656 595.922 473.223 597.907 474.357C599.891 475.465 601.502 477.011 602.739 478.996V458.892H613.912ZM584.221 495.001C584.221 498.893 584.994 501.999 586.541 504.319C588.061 506.664 590.381 507.837 593.5 507.837C596.618 507.837 598.989 506.677 600.613 504.357C602.237 502.038 603.049 499.035 603.049 495.349C603.049 490.195 601.747 486.509 599.144 484.292C597.546 482.952 595.69 482.282 593.577 482.282C590.355 482.282 587.984 483.506 586.463 485.955C584.968 488.378 584.221 491.393 584.221 495.001ZM660.035 503.429C659.751 505.929 658.449 508.468 656.13 511.046C652.521 515.144 647.47 517.193 640.975 517.193C635.614 517.193 630.884 515.466 626.786 512.012C622.688 508.558 620.639 502.94 620.639 495.156C620.639 487.862 622.482 482.269 626.168 478.377C629.879 474.485 634.686 472.54 640.588 472.54C644.093 472.54 647.251 473.197 650.06 474.511C652.869 475.826 655.189 477.9 657.019 480.736C658.669 483.236 659.738 486.135 660.228 489.434C660.511 491.367 660.627 494.151 660.576 497.785H631.735C631.89 502.012 633.217 504.976 635.717 506.677C637.238 507.734 639.068 508.262 641.207 508.262C643.475 508.262 645.318 507.618 646.735 506.329C647.508 505.633 648.191 504.667 648.784 503.429H660.035ZM649.132 490.517C648.952 487.604 648.063 485.401 646.465 483.906C644.892 482.385 642.934 481.625 640.588 481.625C638.037 481.625 636.052 482.424 634.634 484.022C633.243 485.62 632.366 487.785 632.006 490.517H649.132Z" fill="#C2C2C2"/>
<path d="M266.793 904.366C266.793 902.209 266.03 900.547 264.502 899.379C262.998 898.211 260.269 897.032 256.315 895.842C252.362 894.651 249.218 893.326 246.882 891.866C242.412 889.059 240.177 885.397 240.177 880.883C240.177 876.93 241.783 873.673 244.995 871.112C248.229 868.552 252.418 867.271 257.562 867.271C260.976 867.271 264.02 867.9 266.692 869.158C269.365 870.416 271.465 872.213 272.993 874.549C274.52 876.862 275.284 879.434 275.284 882.264H266.793C266.793 879.704 265.985 877.705 264.368 876.267C262.773 874.807 260.482 874.077 257.495 874.077C254.709 874.077 252.542 874.672 250.992 875.863C249.465 877.053 248.701 878.715 248.701 880.849C248.701 882.646 249.532 884.151 251.194 885.364C252.856 886.554 255.597 887.722 259.415 888.868C263.233 889.991 266.299 891.282 268.613 892.742C270.926 894.18 272.622 895.842 273.7 897.729C274.778 899.593 275.317 901.783 275.317 904.298C275.317 908.386 273.745 911.643 270.601 914.069C267.479 916.472 263.233 917.674 257.865 917.674C254.316 917.674 251.048 917.022 248.061 915.72C245.096 914.395 242.783 912.575 241.121 910.262C239.481 907.948 238.661 905.253 238.661 902.176H247.185C247.185 904.961 248.106 907.117 249.948 908.645C251.79 910.172 254.429 910.936 257.865 910.936C260.83 910.936 263.054 910.34 264.536 909.15C266.041 907.937 266.793 906.342 266.793 904.366ZM320.228 901.03C319.734 906.264 317.802 910.352 314.433 913.294C311.064 916.214 306.583 917.674 300.99 917.674C297.082 917.674 293.634 916.753 290.647 914.911C287.682 913.047 285.391 910.408 283.774 906.994C282.157 903.58 281.314 899.615 281.247 895.101V890.519C281.247 885.892 282.067 881.815 283.707 878.289C285.346 874.762 287.693 872.044 290.748 870.135C293.825 868.226 297.374 867.271 301.395 867.271C306.808 867.271 311.165 868.743 314.467 871.685C317.769 874.627 319.689 878.783 320.228 884.151H311.738C311.333 880.625 310.3 878.086 308.638 876.537C306.999 874.964 304.584 874.178 301.395 874.178C297.688 874.178 294.836 875.537 292.837 878.255C290.86 880.95 289.85 884.915 289.805 890.148V894.494C289.805 899.795 290.748 903.838 292.635 906.623C294.544 909.408 297.329 910.801 300.99 910.801C304.337 910.801 306.853 910.048 308.537 908.543C310.222 907.039 311.289 904.534 311.738 901.03H320.228ZM355.334 905.579H336.333L332.357 917H323.496L342.026 867.945H349.674L368.238 917H359.344L355.334 905.579ZM338.725 898.706H352.942L345.833 878.356L338.725 898.706ZM412.745 917H404.221L382.355 882.197V917H373.831V867.945H382.355L404.288 902.883V867.945H412.745V917Z" fill="black"/>
<path d="M626.57 901.03C626.076 906.264 624.145 910.352 620.775 913.294C617.406 916.214 612.925 917.674 607.333 917.674C603.424 917.674 599.977 916.753 596.989 914.911C594.024 913.047 591.733 910.408 590.116 906.994C588.499 903.58 587.657 899.615 587.589 895.101V890.519C587.589 885.892 588.409 881.815 590.049 878.289C591.688 874.762 594.036 872.044 597.09 870.135C600.167 868.226 603.716 867.271 607.737 867.271C613.15 867.271 617.507 868.743 620.809 871.685C624.111 874.627 626.031 878.783 626.57 884.151H618.08C617.676 880.625 616.643 878.086 614.98 876.537C613.341 874.964 610.926 874.178 607.737 874.178C604.031 874.178 601.178 875.537 599.179 878.255C597.203 880.95 596.192 884.915 596.147 890.148V894.494C596.147 899.795 597.09 903.838 598.977 906.623C600.886 909.408 603.671 910.801 607.333 910.801C610.679 910.801 613.195 910.048 614.879 908.543C616.564 907.039 617.631 904.534 618.08 901.03H626.57ZM661.677 905.579H642.675L638.699 917H629.838L648.369 867.945H656.017L674.581 917H665.686L661.677 905.579ZM645.067 898.706H659.285L652.176 878.356L645.067 898.706ZM688.697 910.194H710.967V917H680.173V867.945H688.697V910.194ZM726.027 910.194H748.297V917H717.503V867.945H726.027V910.194Z" fill="black"/>
<path d="M344 0H658V33.5C658 44.8218 648.822 54 637.5 54H364.5C353.178 54 344 44.8218 344 33.5V0Z" fill="#333333"/>
<circle cx="501" cy="894" r="66" fill="#333333"/>
<path d="M482.33 903.759C482.33 901.491 482.947 899.413 484.183 897.526C485.418 895.617 487.855 893.36 491.494 890.754C489.584 888.351 488.248 886.307 487.484 884.623C486.743 882.938 486.373 881.31 486.373 879.737C486.373 875.896 487.541 872.864 489.876 870.641C492.212 868.395 495.357 867.271 499.31 867.271C502.881 867.271 505.801 868.327 508.07 870.438C510.361 872.527 511.506 875.122 511.506 878.221C511.506 880.265 510.99 882.152 509.957 883.881C508.923 885.588 507.228 887.295 504.869 889.002L501.534 891.428L511.001 902.614C512.371 899.918 513.056 896.92 513.056 893.618H520.165C520.165 899.66 518.75 904.613 515.92 908.476L523.13 917H513.629L510.866 913.732C507.362 916.36 503.185 917.674 498.333 917.674C493.481 917.674 489.596 916.394 486.676 913.833C483.778 911.25 482.33 907.892 482.33 903.759ZM498.569 911.138C501.332 911.138 503.915 910.217 506.318 908.375L495.604 895.741L494.56 896.482C491.864 898.526 490.517 900.862 490.517 903.49C490.517 905.758 491.247 907.6 492.707 909.015C494.167 910.43 496.121 911.138 498.569 911.138ZM494.054 879.535C494.054 881.422 495.211 883.792 497.524 886.644L501.264 884.083L502.309 883.241C503.701 882.006 504.397 880.422 504.397 878.491C504.397 877.21 503.915 876.121 502.949 875.223C501.983 874.302 500.759 873.841 499.276 873.841C497.682 873.841 496.413 874.38 495.469 875.458C494.526 876.537 494.054 877.896 494.054 879.535Z" fill="white"/>
</svg>
