<svg width="1000" height="1000" viewBox="0 0 1000 1000" fill="none" xmlns="http://www.w3.org/2000/svg">
<g clip-path="url(#clip0_279_316)">
<rect x="215" y="172" width="570" height="144" fill="#333333"/>
<rect x="215" y="886.227" width="570" height="114" fill="#333333"/>
<rect x="215" y="316" width="570" height="570" rx="8.30588" fill="white"/>
<path d="M624.379 371.943H732.544V480.109" stroke="#C2C2C2" stroke-width="20.553"/>
<path d="M375.598 371.943H267.432V480.109" stroke="#C2C2C2" stroke-width="20.553"/>
<path d="M624.379 837.051H732.544V728.886" stroke="#C2C2C2" stroke-width="20.553"/>
<path d="M375.598 837.051H267.432V728.886" stroke="#C2C2C2" stroke-width="20.553"/>
<path d="M377.805 557.515L369.3 532.765L360.262 557.515H377.805ZM365.334 524.452H373.915L394.241 580.473H385.927L380.245 563.693H358.089L352.025 580.473H344.245L365.334 524.452ZM404.576 560.528C404.576 564.901 405.504 568.562 407.36 571.511C409.216 574.46 412.19 575.935 416.283 575.935C419.461 575.935 422.067 574.574 424.101 571.854C426.16 569.108 427.19 565.18 427.19 560.07C427.19 554.909 426.135 551.096 424.025 548.63C421.915 546.138 419.309 544.892 416.207 544.892C412.749 544.892 409.94 546.214 407.779 548.858C405.643 551.502 404.576 555.392 404.576 560.528ZM414.91 538.905C418.038 538.905 420.656 539.566 422.766 540.888C423.987 541.651 425.372 542.985 426.923 544.892V524.261H433.521V580.473H427.343V574.79C425.741 577.307 423.847 579.125 421.66 580.244C419.474 581.362 416.97 581.922 414.148 581.922C409.597 581.922 405.656 580.015 402.326 576.201C398.995 572.363 397.33 567.265 397.33 560.909C397.33 554.96 398.843 549.812 401.868 545.464C404.919 541.091 409.266 538.905 414.91 538.905ZM448.05 560.528C448.05 564.901 448.978 568.562 450.834 571.511C452.69 574.46 455.665 575.935 459.758 575.935C462.936 575.935 465.542 574.574 467.576 571.854C469.635 569.108 470.665 565.18 470.665 560.07C470.665 554.909 469.609 551.096 467.499 548.63C465.389 546.138 462.783 544.892 459.682 544.892C456.224 544.892 453.415 546.214 451.254 548.858C449.118 551.502 448.05 555.392 448.05 560.528ZM458.385 538.905C461.512 538.905 464.131 539.566 466.241 540.888C467.461 541.651 468.847 542.985 470.398 544.892V524.261H476.995V580.473H470.817V574.79C469.215 577.307 467.321 579.125 465.135 580.244C462.948 581.362 460.444 581.922 457.622 581.922C453.071 581.922 449.131 580.015 445.8 576.201C442.47 572.363 440.804 567.265 440.804 560.909C440.804 554.96 442.317 549.812 445.343 545.464C448.393 541.091 452.741 538.905 458.385 538.905ZM534.427 539.63H542.016C541.05 542.248 538.902 548.223 535.571 557.553C533.08 564.57 530.995 570.29 529.317 574.714C525.351 585.138 522.554 591.494 520.927 593.782C519.3 596.07 516.503 597.214 512.537 597.214C511.571 597.214 510.821 597.176 510.287 597.1C509.779 597.023 509.143 596.884 508.381 596.68V590.426C509.575 590.757 510.44 590.96 510.974 591.036C511.508 591.112 511.978 591.151 512.385 591.151C513.656 591.151 514.584 590.934 515.169 590.502C515.779 590.096 516.287 589.587 516.694 588.977C516.821 588.773 517.279 587.731 518.067 585.85C518.855 583.968 519.427 582.57 519.783 581.655L504.681 539.63H512.461L523.406 572.884L534.427 539.63ZM564.173 576.049C568.724 576.049 571.838 574.333 573.516 570.901C575.219 567.443 576.071 563.604 576.071 559.384C576.071 555.57 575.461 552.468 574.241 550.079C572.308 546.316 568.978 544.435 564.249 544.435C560.054 544.435 557.003 546.036 555.097 549.24C553.19 552.443 552.236 556.307 552.236 560.833C552.236 565.18 553.19 568.803 555.097 571.701C557.003 574.6 560.029 576.049 564.173 576.049ZM564.44 538.447C569.702 538.447 574.152 540.202 577.787 543.71C581.423 547.218 583.241 552.38 583.241 559.193C583.241 565.778 581.639 571.218 578.435 575.515C575.232 579.812 570.262 581.96 563.524 581.96C557.906 581.96 553.444 580.066 550.139 576.278C546.834 572.464 545.181 567.354 545.181 560.947C545.181 554.083 546.923 548.617 550.406 544.549C553.889 540.481 558.567 538.447 564.44 538.447ZM598.304 539.63V566.744C598.304 568.829 598.635 570.532 599.296 571.854C600.516 574.295 602.791 575.515 606.122 575.515C610.901 575.515 614.156 573.379 615.885 569.108C616.825 566.82 617.296 563.68 617.296 559.689V539.63H624.16V580.473H617.677L617.753 574.447C616.863 575.998 615.757 577.307 614.435 578.375C611.817 580.511 608.639 581.579 604.901 581.579C599.079 581.579 595.113 579.634 593.003 575.744C591.859 573.659 591.287 570.875 591.287 567.392V539.63H598.304ZM635.105 539.63H641.626V546.685C642.16 545.312 643.469 543.646 645.554 541.689C647.639 539.706 650.041 538.714 652.762 538.714C652.889 538.714 653.105 538.727 653.41 538.752C653.715 538.778 654.236 538.829 654.973 538.905V546.151C654.567 546.074 654.185 546.024 653.829 545.998C653.499 545.973 653.13 545.96 652.723 545.96C649.266 545.96 646.609 547.079 644.753 549.316C642.897 551.528 641.969 554.083 641.969 556.981V580.473H635.105V539.63Z" fill="#C2C2C2"/>
<path d="M378.492 677.887C375.976 678.726 372.963 679.146 369.454 679.146C362.132 679.146 356.082 676.959 351.302 672.586C345.505 667.324 342.607 659.595 342.607 649.4C342.607 639.129 345.582 631.362 351.531 626.099C356.387 621.803 362.425 619.654 369.645 619.654C376.916 619.654 383.018 621.93 387.95 626.48C393.645 631.743 396.492 639.103 396.492 648.561C396.492 653.569 395.882 657.764 394.662 661.146C393.67 664.374 392.209 667.057 390.276 669.192L396.759 675.256L390.62 681.663L383.831 675.256C381.772 676.502 379.992 677.379 378.492 677.887ZM375.976 667.743L370.293 662.328L376.357 655.997L382.039 661.413C382.929 659.582 383.552 657.98 383.908 656.608C384.467 654.548 384.747 652.146 384.747 649.4C384.747 643.095 383.45 638.226 380.857 634.794C378.289 631.336 374.526 629.608 369.569 629.608C364.916 629.608 361.204 631.26 358.433 634.565C355.662 637.87 354.276 642.815 354.276 649.4C354.276 657.103 356.259 662.62 360.226 665.951C362.793 668.112 365.87 669.192 369.454 669.192C370.802 669.192 372.098 669.027 373.344 668.696C374.031 668.518 374.908 668.201 375.976 667.743ZM429.365 655.54H417.238V677.582H405.759V621.37H433.331C437.272 621.447 440.297 621.93 442.408 622.819C444.543 623.709 446.348 625.019 447.823 626.747C449.043 628.171 450.009 629.747 450.721 631.476C451.433 633.205 451.789 635.175 451.789 637.387C451.789 640.057 451.115 642.688 449.768 645.281C448.42 647.849 446.196 649.667 443.094 650.735C445.687 651.777 447.518 653.264 448.586 655.196C449.679 657.103 450.225 660.027 450.225 663.968V667.743C450.225 670.311 450.327 672.052 450.53 672.968C450.836 674.417 451.547 675.485 452.666 676.171V677.582H439.738C439.382 676.336 439.128 675.332 438.975 674.569C438.67 672.993 438.505 671.379 438.48 669.726L438.403 664.502C438.353 660.917 437.691 658.527 436.42 657.332C435.175 656.137 432.823 655.54 429.365 655.54ZM436.497 645.319C438.836 644.252 440.005 642.141 440.005 638.989C440.005 635.582 438.874 633.294 436.611 632.125C435.34 631.463 433.433 631.133 430.891 631.133H417.238V646.235H430.547C433.191 646.235 435.175 645.93 436.497 645.319ZM518.755 650.925H507.619C507.416 649.374 506.895 647.976 506.056 646.73C504.835 645.052 502.941 644.213 500.374 644.213C496.713 644.213 494.208 646.031 492.861 649.667C492.149 651.599 491.793 654.167 491.793 657.37C491.793 660.421 492.149 662.874 492.861 664.73C494.157 668.188 496.598 669.917 500.183 669.917C502.725 669.917 504.53 669.23 505.598 667.857C506.666 666.485 507.314 664.705 507.543 662.519H518.64C518.386 665.824 517.191 668.951 515.056 671.9C511.649 676.654 506.602 679.031 499.916 679.031C493.229 679.031 488.31 677.048 485.157 673.082C482.005 669.116 480.429 663.968 480.429 657.637C480.429 650.493 482.17 644.938 485.653 640.972C489.136 637.006 493.941 635.023 500.068 635.023C505.28 635.023 509.539 636.192 512.844 638.531C516.174 640.87 518.145 645.002 518.755 650.925ZM560.933 641.277C564.441 645.675 566.195 650.874 566.195 656.874C566.195 662.976 564.441 668.201 560.933 672.548C557.424 676.87 552.098 679.031 544.954 679.031C537.81 679.031 532.484 676.87 528.975 672.548C525.467 668.201 523.712 662.976 523.712 656.874C523.712 650.874 525.467 645.675 528.975 641.277C532.484 636.879 537.81 634.68 544.954 634.68C552.098 634.68 557.424 636.879 560.933 641.277ZM544.916 643.87C541.738 643.87 539.284 645.002 537.556 647.264C535.852 649.502 535.001 652.705 535.001 656.874C535.001 661.044 535.852 664.26 537.556 666.523C539.284 668.785 541.738 669.917 544.916 669.917C548.094 669.917 550.534 668.785 552.238 666.523C553.941 664.26 554.793 661.044 554.793 656.874C554.793 652.705 553.941 649.502 552.238 647.264C550.534 645.002 548.094 643.87 544.916 643.87ZM611.844 621.447V677.582H601.28V671.824C599.729 674.29 597.962 676.082 595.979 677.201C593.996 678.319 591.53 678.879 588.581 678.879C583.725 678.879 579.632 676.921 576.301 673.006C572.996 669.065 571.344 664.019 571.344 657.866C571.344 650.773 572.971 645.192 576.225 641.124C579.505 637.057 583.878 635.023 589.344 635.023C591.861 635.023 594.098 635.582 596.056 636.701C598.013 637.794 599.602 639.319 600.822 641.277V621.447H611.844ZM582.556 657.065C582.556 660.904 583.318 663.968 584.844 666.256C586.344 668.569 588.632 669.726 591.708 669.726C594.784 669.726 597.123 668.582 598.725 666.294C600.327 664.006 601.128 661.044 601.128 657.408C601.128 652.324 599.844 648.688 597.276 646.502C595.7 645.18 593.869 644.519 591.784 644.519C588.606 644.519 586.267 645.726 584.767 648.141C583.293 650.531 582.556 653.506 582.556 657.065ZM657.339 665.379C657.06 667.845 655.776 670.349 653.488 672.891C649.928 676.934 644.945 678.955 638.538 678.955C633.25 678.955 628.585 677.252 624.543 673.845C620.5 670.438 618.479 664.896 618.479 657.218C618.479 650.023 620.297 644.506 623.933 640.667C627.594 636.828 632.335 634.908 638.157 634.908C641.615 634.908 644.729 635.557 647.5 636.853C650.271 638.15 652.56 640.197 654.365 642.993C655.992 645.459 657.047 648.319 657.53 651.574C657.81 653.48 657.924 656.226 657.873 659.811H629.424C629.577 663.98 630.886 666.904 633.352 668.582C634.852 669.624 636.657 670.146 638.767 670.146C641.005 670.146 642.822 669.51 644.221 668.239C644.983 667.552 645.657 666.599 646.242 665.379H657.339ZM646.585 652.641C646.407 649.769 645.53 647.595 643.954 646.12C642.403 644.62 640.471 643.87 638.157 643.87C635.64 643.87 633.683 644.658 632.284 646.235C630.911 647.811 630.047 649.947 629.691 652.641H646.585Z" fill="#C2C2C2"/>
<mask id="path-10-inside-1_279_316" fill="white">
<path d="M387.578 82.8746C387.578 82.8746 266.07 213.106 99.6974 205.006L180.703 286.011L81.0039 385.71C81.0039 385.71 285.386 350.815 470.452 165.749L387.578 82.8746"/>
</mask>
<path d="M387.578 82.8746C387.578 82.8746 266.07 213.106 99.6974 205.006L180.703 286.011L81.0039 385.71C81.0039 385.71 285.386 350.815 470.452 165.749L387.578 82.8746" fill="#333333"/>
<path d="M99.6974 205.006L99.9498 199.822L86.5199 199.168L96.0275 208.676L99.6974 205.006ZM180.703 286.011L184.373 289.681L188.043 286.011L184.373 282.341L180.703 286.011ZM81.0039 385.71L77.334 382.04L65.8039 393.57L81.8774 390.826L81.0039 385.71ZM470.452 165.749L474.122 169.419L477.792 165.749L474.122 162.079L470.452 165.749ZM387.578 82.8746C383.783 79.334 383.784 79.3332 383.784 79.3329C383.784 79.3334 383.783 79.3336 383.782 79.3347C383.78 79.3369 383.776 79.341 383.771 79.3471C383.759 79.3593 383.74 79.3794 383.714 79.4071C383.662 79.4624 383.58 79.5485 383.47 79.6643C383.249 79.8959 382.912 80.2462 382.461 80.7071C381.56 81.6288 380.205 82.9926 378.414 84.733C374.833 88.2142 369.512 93.2002 362.6 99.1688C348.773 111.11 328.609 126.961 303.304 142.56C252.644 173.788 181.72 203.803 99.9498 199.822L99.445 210.19C184.047 214.309 257.063 183.258 308.751 151.396C334.619 135.449 355.23 119.249 369.385 107.025C376.465 100.911 381.936 95.7856 385.649 92.1764C387.506 90.3716 388.924 88.9453 389.884 87.9634C390.364 87.4724 390.729 87.0924 390.978 86.8316C391.103 86.7012 391.198 86.6007 391.264 86.5309C391.297 86.4961 391.322 86.4689 391.34 86.4496C391.349 86.4399 391.357 86.4322 391.362 86.4265C391.365 86.4236 391.367 86.4208 391.369 86.4194C391.371 86.4171 391.373 86.4152 387.578 82.8746ZM96.0275 208.676L177.033 289.681L184.373 282.341L103.367 201.336L96.0275 208.676ZM177.033 282.341L77.334 382.04L84.6738 389.38L184.373 289.681L177.033 282.341ZM81.0039 385.71C81.8774 390.826 81.88 390.825 81.8834 390.825C81.8855 390.824 81.8897 390.824 81.894 390.823C81.9027 390.821 81.9145 390.819 81.9293 390.817C81.9591 390.812 82.0012 390.804 82.0556 390.795C82.1644 390.775 82.3223 390.747 82.5285 390.71C82.9408 390.634 83.5463 390.521 84.3379 390.367C85.9211 390.058 88.2494 389.584 91.2679 388.917C97.3048 387.582 106.104 385.473 117.227 382.364C139.473 376.147 171.024 365.929 208.375 349.899C283.073 317.841 381.028 262.514 474.122 169.419L466.782 162.079C374.811 254.051 278.042 308.704 204.282 340.36C167.404 356.187 136.293 366.258 114.433 372.367C103.504 375.422 94.8901 377.485 89.0269 378.781C86.0954 379.429 83.8519 379.886 82.3509 380.179C81.6004 380.325 81.0356 380.43 80.6632 380.498C80.4771 380.532 80.339 380.557 80.2499 380.573C80.2054 380.581 80.1731 380.586 80.1531 380.59C80.1432 380.592 80.1363 380.593 80.1325 380.593C80.1306 380.594 80.1301 380.594 80.1291 380.594C80.1294 380.594 80.1305 380.594 81.0039 385.71ZM474.122 162.079L391.248 79.2047L383.908 86.5445L466.782 169.419L474.122 162.079Z" fill="white" mask="url(#path-10-inside-1_279_316)"/>
<path d="M532.673 165.747L611.843 86.5769C612.766 87.5147 614.026 88.7752 615.612 90.3163C619.292 93.8935 624.726 98.9838 631.764 105.061C645.837 117.215 666.336 133.328 692.063 149.188C742.132 180.052 812.163 210.052 893.241 207.85L816.915 284.177L815.08 286.012L816.915 287.847L910.53 381.462C910.313 381.415 910.091 381.366 909.865 381.316C903.959 380.01 895.298 377.935 884.32 374.867C862.364 368.731 831.143 358.623 794.147 342.745C720.644 311.2 624.375 256.894 532.673 165.747Z" fill="#333333" stroke="white" stroke-width="5.19001"/>
<mask id="path-13-outside-2_279_316" maskUnits="userSpaceOnUse" x="230.371" y="-3" width="263" height="222" fill="black">
<rect fill="white" x="230.371" y="-3" width="263" height="222"/>
<path d="M488.195 107.168C488.195 152.11 437.965 195.29 377.161 204.102L328.694 211.152C267.89 219.964 226.472 199.696 237.047 167.091C247.621 134.486 247.621 80.7314 237.047 48.1263C226.472 15.5211 267.008 -4.74702 328.694 4.06519L377.161 10.2337C437.965 18.1647 488.195 62.2258 488.195 107.168"/>
</mask>
<path d="M488.195 107.168C488.195 152.11 437.965 195.29 377.161 204.102L328.694 211.152C267.89 219.964 226.472 199.696 237.047 167.091C247.621 134.486 247.621 80.7314 237.047 48.1263C226.472 15.5211 267.008 -4.74702 328.694 4.06519L377.161 10.2337C437.965 18.1647 488.195 62.2258 488.195 107.168" fill="#333333"/>
<path d="M377.161 204.102L376.444 199.154L376.441 199.154L377.161 204.102ZM328.694 211.152L329.411 216.1L329.413 216.1L328.694 211.152ZM328.694 4.06519L327.987 9.01494L328.025 9.02035L328.063 9.02518L328.694 4.06519ZM377.161 10.2337L377.808 5.27574L377.8 5.27474L377.792 5.27375L377.161 10.2337ZM483.195 107.168C483.195 127.741 471.659 148.503 452.2 165.41C432.794 182.271 405.934 194.88 376.444 199.154L377.878 209.051C409.192 204.512 437.849 191.126 458.759 172.958C479.616 154.836 493.195 131.538 493.195 107.168H483.195ZM376.441 199.154L327.974 206.204L329.413 216.1L377.881 209.05L376.441 199.154ZM327.977 206.204C298.123 210.53 273.684 207.599 258.279 200.152C250.615 196.446 245.486 191.777 242.778 186.639C240.128 181.612 239.529 175.646 241.803 168.634L232.291 165.549C229.277 174.839 229.889 183.633 233.932 191.302C237.915 198.858 244.958 204.819 253.927 209.155C271.788 217.79 298.46 220.586 329.411 216.1L327.977 206.204ZM241.803 168.634C247.303 151.674 249.978 129.524 249.978 107.609C249.978 85.6936 247.303 63.5437 241.803 46.5837L232.291 49.6688C237.365 65.314 239.978 86.3439 239.978 107.609C239.978 128.873 237.365 149.903 232.291 165.549L241.803 168.634ZM241.803 46.5837C239.52 39.5448 240.081 33.5637 242.674 28.5409C245.32 23.4147 250.363 18.7576 257.961 15.0601C273.243 7.62277 297.672 4.68431 327.987 9.01494L329.401 -0.884553C298.03 -5.36613 271.348 -2.57666 253.585 6.06835C244.659 10.412 237.696 16.3846 233.788 23.9535C229.827 31.6257 229.286 40.4051 232.291 49.6688L241.803 46.5837ZM328.063 9.02518L376.53 15.1937L377.792 5.27375L329.325 -0.894795L328.063 9.02518ZM376.514 15.1917C405.953 19.0316 432.787 31.6229 452.188 48.5858C471.645 65.5973 483.195 86.5822 483.195 107.168H493.195C493.195 82.8117 479.63 59.2949 458.771 41.0575C437.856 22.7716 409.173 9.36691 377.808 5.27574L376.514 15.1917Z" fill="white" mask="url(#path-13-outside-2_279_316)"/>
<path d="M252.02 171.505C247.614 175.911 252.901 181.198 254.664 182.961C259.951 189.129 274.932 196.179 301.368 196.179C309.299 196.179 317.23 195.298 326.043 194.417L374.51 187.367C408.877 182.961 439.72 165.336 456.463 143.306C456.463 144.187 308.418 116.869 252.02 171.505" fill="white"/>
<path d="M670.243 213.626L670.244 213.626C700.921 218.072 727.034 215.242 744.281 206.904C752.924 202.726 759.489 197.088 763.153 190.136C766.847 183.128 767.456 175.041 764.628 166.32C759.447 150.346 756.819 129.036 756.819 107.609C756.819 86.1813 759.447 64.8714 764.628 48.8975C767.452 40.1901 766.906 32.1102 763.287 25.1003C759.695 18.1421 753.211 12.4984 744.618 8.31627C727.478 -0.0251021 701.367 -2.85237 670.268 1.58761L621.82 7.75374L621.812 7.75474C590.928 11.7831 562.708 24.9844 542.171 42.9396C521.663 60.8705 508.602 83.7543 508.602 107.168C508.602 130.588 521.67 153.253 542.177 171.071C562.711 188.912 590.918 202.104 621.776 206.576C621.776 206.576 621.776 206.577 621.777 206.577L670.243 213.626Z" fill="#333333" stroke="white" stroke-width="5"/>
<path d="M747.271 171.507C751.677 175.913 746.39 181.2 744.628 182.963C739.34 189.131 724.36 196.181 697.923 196.181C689.992 196.181 682.061 195.3 673.249 194.419L624.782 187.369C590.414 182.963 559.571 165.338 542.828 143.308C542.828 144.189 690.873 116.871 747.271 171.507" fill="white"/>
<path d="M492.607 93.9572C492.607 93.9572 477.627 106.294 441.496 76.3328C400.079 41.9651 340.156 87.7886 420.347 108.057C463.527 119.513 492.607 93.9572 492.607 93.9572Z" fill="white"/>
<path d="M506.699 93.9572C506.699 93.9572 521.68 106.294 557.81 76.3328C599.227 41.9651 659.151 87.7886 578.959 108.057C535.78 119.513 506.699 93.9572 506.699 93.9572Z" fill="white"/>
<path d="M499.649 173.059C466.963 173.059 458.129 199.877 458.129 107.932C458.129 15.9868 466.08 42.8041 499.649 42.8041C533.218 42.8041 541.169 15.9868 541.169 107.932C541.169 199.877 532.335 173.059 499.649 173.059Z" fill="#333333"/>
<path d="M499.65 169.747C473.214 169.747 466.164 194.422 466.164 108.062C466.164 20.821 472.333 46.3764 499.65 46.3764C526.968 46.3764 533.137 21.7022 533.137 108.062C533.137 194.422 526.087 169.747 499.65 169.747" fill="white"/>
<path d="M343.547 961.792C341.538 964.411 338.755 966.394 335.195 967.742C331.636 969.089 327.594 969.763 323.068 969.763C318.416 969.763 314.297 968.708 310.712 966.597C307.128 964.487 304.356 961.475 302.399 957.559C300.467 953.619 299.462 949.03 299.386 943.792V939.445C299.386 931.055 301.395 924.509 305.411 919.805C309.428 915.076 315.034 912.712 322.229 912.712C328.407 912.712 333.314 914.237 336.95 917.288C340.585 920.339 342.772 924.737 343.509 930.483H334.051C332.983 923.797 329.106 920.454 322.42 920.454C318.098 920.454 314.805 922.017 312.543 925.144C310.306 928.246 309.149 932.809 309.072 938.835V943.106C309.072 949.106 310.331 953.771 312.848 957.102C315.39 960.407 318.911 962.059 323.411 962.059C328.344 962.059 331.852 960.941 333.937 958.703V947.835H322.496V940.513H343.547V961.792ZM364.331 969H354.721V913.475H364.331V969ZM408.187 945.47H385.839V969H376.191V913.475H411.466V921.254H385.839V937.767H408.187V945.47ZM460.013 921.254H442.699V969H433.127V921.254H415.966V913.475H460.013V921.254ZM526.864 950.924C526.305 956.847 524.119 961.475 520.305 964.805C516.491 968.11 511.419 969.763 505.089 969.763C500.665 969.763 496.763 968.72 493.381 966.636C490.025 964.525 487.432 961.538 485.602 957.674C483.771 953.809 482.818 949.322 482.742 944.212V939.025C482.742 933.788 483.67 929.174 485.525 925.182C487.381 921.191 490.038 918.115 493.496 915.954C496.979 913.793 500.996 912.712 505.547 912.712C511.674 912.712 516.606 914.377 520.343 917.708C524.08 921.038 526.254 925.742 526.864 931.818H517.254C516.797 927.826 515.627 924.953 513.746 923.199C511.89 921.42 509.157 920.53 505.547 920.53C501.352 920.53 498.123 922.068 495.86 925.144C493.623 928.195 492.479 932.682 492.428 938.606V943.525C492.428 949.525 493.496 954.102 495.631 957.254C497.792 960.407 500.945 961.983 505.089 961.983C508.877 961.983 511.725 961.131 513.631 959.428C515.538 957.725 516.746 954.89 517.254 950.924H526.864ZM566.602 956.072H545.093L540.593 969H530.563L551.538 913.475H560.195L581.207 969H571.14L566.602 956.072ZM547.801 948.292H563.894L555.847 925.259L547.801 948.292ZM607.94 947.606H597.186V969H587.538V913.475H607.063C613.47 913.475 618.415 914.911 621.898 917.784C625.381 920.657 627.123 924.814 627.123 930.254C627.123 933.966 626.22 937.081 624.415 939.598C622.635 942.089 620.144 944.009 616.94 945.356L629.411 968.504V969H619.076L607.94 947.606ZM597.186 939.864H607.101C610.356 939.864 612.898 939.051 614.729 937.424C616.559 935.771 617.474 933.521 617.474 930.674C617.474 927.699 616.623 925.398 614.919 923.771C613.241 922.144 610.724 921.305 607.368 921.254H597.186V939.864ZM636.275 969V913.475H652.673C657.58 913.475 661.928 914.568 665.716 916.754C669.529 918.941 672.478 922.042 674.563 926.059C676.648 930.076 677.69 934.678 677.69 939.864V942.648C677.69 947.911 676.635 952.538 674.525 956.53C672.44 960.521 669.453 963.597 665.563 965.758C661.699 967.919 657.262 969 652.254 969H636.275ZM645.923 921.254V961.297H652.216C657.275 961.297 661.152 959.72 663.847 956.568C666.567 953.39 667.953 948.839 668.004 942.915V939.826C668.004 933.801 666.694 929.199 664.076 926.021C661.457 922.843 657.656 921.254 652.673 921.254H645.923Z" fill="white"/>
</g>
<defs>
<clipPath id="clip0_279_316">
<rect width="1000" height="1000" fill="white"/>
</clipPath>
</defs>
</svg>
