<svg width="1000" height="1000" viewBox="0 0 1000 1000" fill="none" xmlns="http://www.w3.org/2000/svg">
<rect x="61" width="877" height="1000" rx="5" fill="#333333"/>
<rect x="96" y="35" width="808" height="570" fill="white"/>
<rect x="228" y="48" width="543" height="543" rx="7.91244" fill="white"/>
<path d="M617.988 101.293H721.03V204.335" stroke="#C2C2C2" stroke-width="19.5795"/>
<path d="M380.992 101.293H277.951V204.335" stroke="#C2C2C2" stroke-width="19.5795"/>
<path d="M617.988 544.367H721.03V441.326" stroke="#C2C2C2" stroke-width="19.5795"/>
<path d="M380.992 544.367H277.951V441.326" stroke="#C2C2C2" stroke-width="19.5795"/>
<path d="M383.091 278.341L374.99 254.763L366.38 278.341H383.091ZM371.212 246.844H379.386L398.749 300.211H390.829L385.416 284.226H364.309L358.533 300.211H351.122L371.212 246.844ZM408.594 281.211C408.594 285.377 409.478 288.864 411.246 291.674C413.014 294.483 415.848 295.888 419.747 295.888C422.775 295.888 425.257 294.592 427.195 292.001C429.157 289.385 430.137 285.643 430.137 280.775C430.137 275.858 429.132 272.225 427.122 269.876C425.112 267.503 422.629 266.316 419.675 266.316C416.381 266.316 413.705 267.575 411.646 270.094C409.612 272.613 408.594 276.319 408.594 281.211ZM418.439 260.612C421.418 260.612 423.913 261.242 425.923 262.501C427.086 263.228 428.406 264.499 429.883 266.316V246.662H436.168V300.211H430.283V294.798C428.757 297.196 426.953 298.927 424.87 299.993C422.787 301.059 420.401 301.591 417.713 301.591C413.378 301.591 409.624 299.775 406.451 296.142C403.278 292.485 401.692 287.629 401.692 281.574C401.692 275.907 403.133 271.002 406.015 266.861C408.921 262.695 413.063 260.612 418.439 260.612ZM450.009 281.211C450.009 285.377 450.893 288.864 452.661 291.674C454.429 294.483 457.263 295.888 461.162 295.888C464.19 295.888 466.672 294.592 468.61 292.001C470.572 289.385 471.553 285.643 471.553 280.775C471.553 275.858 470.547 272.225 468.537 269.876C466.527 267.503 464.045 266.316 461.09 266.316C457.796 266.316 455.12 267.575 453.061 270.094C451.027 272.613 450.009 276.319 450.009 281.211ZM459.855 260.612C462.834 260.612 465.328 261.242 467.338 262.501C468.501 263.228 469.821 264.499 471.298 266.316V246.662H477.583V300.211H471.698V294.798C470.172 297.196 468.368 298.927 466.285 299.993C464.202 301.059 461.816 301.591 459.128 301.591C454.793 301.591 451.039 299.775 447.866 296.142C444.693 292.485 443.107 287.629 443.107 281.574C443.107 275.907 444.548 271.002 447.43 266.861C450.336 262.695 454.478 260.612 459.855 260.612ZM532.295 261.302H539.524C538.604 263.797 536.557 269.489 533.385 278.377C531.011 285.062 529.025 290.511 527.427 294.725C523.648 304.655 520.984 310.71 519.434 312.89C517.884 315.07 515.22 316.159 511.442 316.159C510.522 316.159 509.807 316.123 509.299 316.05C508.814 315.978 508.209 315.845 507.482 315.651V309.693C508.62 310.008 509.444 310.201 509.952 310.274C510.461 310.347 510.909 310.383 511.297 310.383C512.508 310.383 513.392 310.177 513.949 309.765C514.53 309.378 515.014 308.894 515.402 308.312C515.523 308.119 515.959 307.126 516.71 305.333C517.46 303.541 518.005 302.209 518.344 301.337L503.958 261.302H511.369L521.796 292.981L532.295 261.302ZM560.632 295.997C564.967 295.997 567.934 294.362 569.532 291.092C571.155 287.799 571.966 284.141 571.966 280.121C571.966 276.488 571.385 273.533 570.222 271.257C568.382 267.672 565.209 265.88 560.704 265.88C556.708 265.88 553.802 267.406 551.985 270.457C550.169 273.509 549.261 277.19 549.261 281.501C549.261 285.643 550.169 289.094 551.985 291.855C553.802 294.616 556.684 295.997 560.632 295.997ZM560.886 260.176C565.899 260.176 570.138 261.847 573.601 265.19C577.064 268.532 578.796 273.449 578.796 279.939C578.796 286.212 577.27 291.395 574.219 295.488C571.167 299.581 566.432 301.628 560.014 301.628C554.661 301.628 550.411 299.823 547.262 296.215C544.114 292.582 542.54 287.714 542.54 281.61C542.54 275.071 544.199 269.864 547.517 265.989C550.835 262.114 555.291 260.176 560.886 260.176ZM593.146 261.302V287.132C593.146 289.118 593.461 290.741 594.091 292.001C595.253 294.326 597.421 295.488 600.593 295.488C605.147 295.488 608.247 293.454 609.894 289.385C610.79 287.205 611.238 284.214 611.238 280.412V261.302H617.777V300.211H611.601L611.674 294.471C610.826 295.948 609.773 297.196 608.513 298.213C606.019 300.247 602.991 301.264 599.431 301.264C593.885 301.264 590.106 299.412 588.096 295.706C587.006 293.72 586.461 291.068 586.461 287.75V261.302H593.146ZM628.204 261.302H634.416V268.023C634.924 266.716 636.172 265.129 638.158 263.264C640.144 261.375 642.432 260.431 645.024 260.431C645.145 260.431 645.351 260.443 645.642 260.467C645.932 260.491 646.429 260.54 647.131 260.612V267.515C646.744 267.442 646.38 267.394 646.041 267.369C645.726 267.345 645.375 267.333 644.988 267.333C641.694 267.333 639.163 268.399 637.395 270.53C635.627 272.637 634.743 275.071 634.743 277.832V300.211H628.204V261.302Z" fill="#C2C2C2"/>
<path d="M383.747 393.011C381.349 393.811 378.479 394.21 375.137 394.21C368.162 394.21 362.398 392.127 357.844 387.962C352.322 382.948 349.561 375.585 349.561 365.874C349.561 356.089 352.395 348.69 358.062 343.676C362.688 339.583 368.44 337.537 375.319 337.537C382.245 337.537 388.058 339.704 392.757 344.04C398.182 349.053 400.894 356.065 400.894 365.074C400.894 369.845 400.313 373.842 399.15 377.063C398.206 380.139 396.813 382.694 394.973 384.728L401.149 390.505L395.3 396.608L388.833 390.505C386.871 391.691 385.176 392.527 383.747 393.011ZM381.349 383.348L375.936 378.189L381.713 372.158L387.126 377.317C387.973 375.573 388.567 374.048 388.906 372.74C389.438 370.778 389.705 368.489 389.705 365.874C389.705 359.867 388.47 355.229 385.999 351.959C383.553 348.666 379.969 347.019 375.246 347.019C370.814 347.019 367.278 348.593 364.638 351.741C361.998 354.89 360.678 359.601 360.678 365.874C360.678 373.212 362.567 378.468 366.345 381.64C368.791 383.699 371.722 384.728 375.137 384.728C376.421 384.728 377.656 384.571 378.843 384.256C379.496 384.086 380.332 383.784 381.349 383.348ZM432.21 371.722H420.657V392.721H409.722V339.172H435.988C439.742 339.244 442.624 339.704 444.634 340.552C446.669 341.4 448.388 342.647 449.793 344.294C450.956 345.65 451.876 347.152 452.554 348.799C453.232 350.446 453.571 352.323 453.571 354.43C453.571 356.973 452.93 359.48 451.646 361.95C450.362 364.396 448.243 366.128 445.288 367.145C447.759 368.138 449.503 369.555 450.52 371.396C451.561 373.212 452.082 375.997 452.082 379.751V383.348C452.082 385.794 452.179 387.453 452.373 388.325C452.663 389.705 453.341 390.723 454.407 391.377V392.721H442.091C441.752 391.534 441.51 390.577 441.365 389.851C441.074 388.349 440.917 386.811 440.893 385.237L440.82 380.26C440.771 376.845 440.142 374.568 438.931 373.43C437.744 372.292 435.504 371.722 432.21 371.722ZM439.003 361.986C441.232 360.969 442.346 358.959 442.346 355.956C442.346 352.71 441.268 350.531 439.112 349.416C437.901 348.787 436.085 348.472 433.663 348.472H420.657V362.858H433.336C435.855 362.858 437.744 362.568 439.003 361.986ZM517.365 367.327H506.757C506.563 365.849 506.067 364.517 505.268 363.33C504.105 361.732 502.301 360.933 499.855 360.933C496.367 360.933 493.981 362.664 492.698 366.128C492.02 367.968 491.681 370.415 491.681 373.466C491.681 376.373 492.02 378.71 492.698 380.478C493.933 383.772 496.258 385.419 499.673 385.419C502.095 385.419 503.815 384.765 504.832 383.457C505.849 382.149 506.467 380.454 506.685 378.371H517.256C517.014 381.519 515.876 384.498 513.841 387.308C510.596 391.837 505.788 394.101 499.419 394.101C493.049 394.101 488.363 392.212 485.359 388.434C482.356 384.656 480.855 379.751 480.855 373.721C480.855 366.915 482.514 361.623 485.832 357.845C489.15 354.067 493.727 352.177 499.564 352.177C504.529 352.177 508.586 353.292 511.734 355.52C514.907 357.748 516.784 361.684 517.365 367.327ZM557.545 358.135C560.888 362.325 562.559 367.278 562.559 372.994C562.559 378.807 560.888 383.784 557.545 387.925C554.203 392.043 549.129 394.101 542.323 394.101C535.518 394.101 530.444 392.043 527.102 387.925C523.759 383.784 522.088 378.807 522.088 372.994C522.088 367.278 523.759 362.325 527.102 358.135C530.444 353.945 535.518 351.85 542.323 351.85C549.129 351.85 554.203 353.945 557.545 358.135ZM542.287 360.606C539.26 360.606 536.922 361.684 535.276 363.839C533.653 365.97 532.841 369.022 532.841 372.994C532.841 376.966 533.653 380.03 535.276 382.185C536.922 384.341 539.26 385.419 542.287 385.419C545.314 385.419 547.64 384.341 549.262 382.185C550.885 380.03 551.696 376.966 551.696 372.994C551.696 369.022 550.885 365.97 549.262 363.839C547.64 361.684 545.314 360.606 542.287 360.606ZM606.045 339.244V392.721H595.981V387.235C594.504 389.584 592.821 391.292 590.932 392.357C589.043 393.423 586.693 393.956 583.884 393.956C579.258 393.956 575.359 392.091 572.186 388.361C569.037 384.607 567.463 379.8 567.463 373.939C567.463 367.181 569.013 361.865 572.113 357.99C575.238 354.115 579.403 352.177 584.61 352.177C587.008 352.177 589.139 352.71 591.004 353.776C592.869 354.817 594.383 356.271 595.545 358.135V339.244H606.045ZM578.144 373.176C578.144 376.833 578.87 379.751 580.324 381.931C581.753 384.135 583.932 385.237 586.863 385.237C589.793 385.237 592.022 384.147 593.547 381.967C595.073 379.788 595.836 376.966 595.836 373.503C595.836 368.659 594.613 365.195 592.167 363.113C590.665 361.853 588.921 361.223 586.935 361.223C583.908 361.223 581.68 362.374 580.251 364.675C578.846 366.951 578.144 369.785 578.144 373.176ZM649.385 381.095C649.119 383.445 647.896 385.83 645.716 388.252C642.325 392.103 637.578 394.029 631.475 394.029C626.437 394.029 621.993 392.406 618.142 389.16C614.291 385.915 612.366 380.635 612.366 373.321C612.366 366.467 614.098 361.211 617.561 357.554C621.049 353.897 625.565 352.068 631.112 352.068C634.405 352.068 637.372 352.686 640.012 353.921C642.652 355.156 644.832 357.106 646.552 359.77C648.102 362.12 649.107 364.844 649.567 367.944C649.833 369.761 649.942 372.376 649.894 375.791H622.792C622.938 379.763 624.185 382.549 626.534 384.147C627.963 385.14 629.683 385.637 631.693 385.637C633.824 385.637 635.556 385.031 636.888 383.82C637.615 383.166 638.256 382.258 638.813 381.095H649.385ZM639.14 368.961C638.971 366.225 638.135 364.154 636.634 362.749C635.156 361.32 633.316 360.606 631.112 360.606C628.714 360.606 626.849 361.357 625.517 362.858C624.209 364.36 623.386 366.394 623.047 368.961H639.14Z" fill="#C2C2C2"/>
<path d="M156.084 726.994C156.084 724.064 155.055 721.751 152.996 720.055C150.937 718.336 147.171 716.713 141.698 715.187C136.224 713.637 132.228 711.954 129.709 710.137C126.125 707.57 124.332 704.204 124.332 700.038C124.332 695.993 125.991 692.712 129.309 690.193C132.652 687.65 136.914 686.378 142.097 686.378C145.609 686.378 148.745 687.056 151.506 688.413C154.292 689.769 156.447 691.658 157.973 694.08C159.499 696.502 160.262 699.202 160.262 702.181H155.757C155.757 698.573 154.522 695.679 152.051 693.499C149.581 691.295 146.263 690.193 142.097 690.193C138.053 690.193 134.831 691.101 132.434 692.918C130.036 694.71 128.837 697.059 128.837 699.965C128.837 702.654 129.915 704.846 132.07 706.541C134.226 708.236 137.677 709.738 142.424 711.046C147.171 712.329 150.768 713.674 153.214 715.078C155.66 716.459 157.501 718.118 158.736 720.055C159.971 721.993 160.589 724.282 160.589 726.922C160.589 731.087 158.918 734.43 155.575 736.948C152.257 739.467 147.874 740.727 142.424 740.727C138.694 740.727 135.267 740.061 132.143 738.728C129.043 737.396 126.682 735.532 125.059 733.134C123.46 730.736 122.661 727.987 122.661 724.887H127.13C127.13 728.617 128.522 731.56 131.308 733.715C134.093 735.871 137.798 736.948 142.424 736.948C146.542 736.948 149.847 736.04 152.342 734.224C154.837 732.407 156.084 729.997 156.084 726.994ZM183.767 737.057C186.794 737.057 189.325 736.21 191.36 734.514C193.418 732.795 194.532 730.579 194.702 727.866H198.88C198.759 730.264 198.008 732.456 196.627 734.442C195.247 736.403 193.406 737.941 191.105 739.055C188.829 740.17 186.382 740.727 183.767 740.727C178.608 740.727 174.515 738.934 171.487 735.35C168.484 731.765 166.983 726.946 166.983 720.891V719.583C166.983 715.708 167.661 712.281 169.017 709.302C170.373 706.323 172.311 704.022 174.83 702.399C177.373 700.777 180.34 699.965 183.73 699.965C188.041 699.965 191.59 701.249 194.375 703.816C197.184 706.383 198.686 709.762 198.88 713.952H194.702C194.508 710.876 193.394 708.394 191.36 706.505C189.349 704.615 186.806 703.671 183.73 703.671C179.807 703.671 176.755 705.088 174.575 707.921C172.42 710.755 171.342 714.727 171.342 719.837V721.109C171.342 726.122 172.42 730.034 174.575 732.843C176.755 735.653 179.819 737.057 183.767 737.057ZM232.411 740C231.975 738.765 231.697 736.936 231.576 734.514C230.05 736.5 228.1 738.038 225.727 739.128C223.378 740.194 220.883 740.727 218.243 740.727C214.465 740.727 211.401 739.673 209.052 737.566C206.727 735.459 205.564 732.795 205.564 729.574C205.564 725.747 207.151 722.719 210.323 720.491C213.52 718.263 217.965 717.149 223.656 717.149H231.539V712.681C231.539 709.871 230.668 707.667 228.924 706.069C227.204 704.446 224.685 703.635 221.367 703.635C218.34 703.635 215.833 704.41 213.847 705.96C211.861 707.51 210.868 709.375 210.868 711.554L206.509 711.518C206.509 708.394 207.962 705.693 210.868 703.417C213.775 701.116 217.347 699.965 221.585 699.965C225.969 699.965 229.42 701.067 231.939 703.271C234.482 705.451 235.79 708.503 235.863 712.426V731.027C235.863 734.829 236.262 737.675 237.061 739.564V740H232.411ZM218.752 736.876C221.658 736.876 224.249 736.173 226.526 734.769C228.827 733.364 230.498 731.487 231.539 729.138V720.491H223.765C219.43 720.54 216.039 721.339 213.593 722.889C211.147 724.415 209.924 726.522 209.924 729.21C209.924 731.414 210.735 733.243 212.358 734.696C214.005 736.149 216.136 736.876 218.752 736.876ZM251.629 700.692L251.775 707.413C253.252 704.991 255.093 703.15 257.297 701.891C259.501 700.607 261.935 699.965 264.599 699.965C268.813 699.965 271.95 701.152 274.008 703.526C276.067 705.899 277.108 709.459 277.132 714.206V740H272.809V714.17C272.785 710.658 272.034 708.043 270.557 706.323C269.104 704.603 266.767 703.744 263.545 703.744C260.857 703.744 258.471 704.591 256.389 706.287C254.33 707.958 252.804 710.222 251.811 713.08V740H247.488V700.692H251.629ZM346.448 716.422C346.448 721.46 345.552 725.856 343.76 729.61C341.992 733.34 339.461 736.161 336.167 738.075L345.794 746.467L342.706 749.228L331.917 739.891C329.931 740.448 327.908 740.727 325.85 740.727C321.829 740.727 318.245 739.734 315.096 737.748C311.972 735.762 309.55 732.952 307.831 729.319C306.111 725.662 305.239 721.448 305.215 716.677V710.755C305.215 705.935 306.063 701.673 307.758 697.967C309.477 694.237 311.899 691.38 315.024 689.394C318.148 687.383 321.732 686.378 325.777 686.378C329.894 686.378 333.515 687.371 336.64 689.357C339.764 691.343 342.174 694.189 343.869 697.895C345.589 701.6 346.448 705.875 346.448 710.719V716.422ZM341.98 710.682C341.98 704.313 340.539 699.324 337.657 695.715C334.775 692.106 330.815 690.302 325.777 690.302C320.885 690.302 316.973 692.118 314.043 695.751C311.136 699.36 309.683 704.41 309.683 710.9V716.422C309.683 722.695 311.124 727.672 314.006 731.354C316.913 735.011 320.861 736.839 325.85 736.839C330.887 736.839 334.835 735.035 337.693 731.426C340.551 727.818 341.98 722.78 341.98 716.313V710.682ZM377.619 717.985H362.252V740H357.747V687.105H374.93C380.573 687.105 384.981 688.473 388.154 691.21C391.327 693.947 392.913 697.773 392.913 702.69C392.913 706.081 391.92 709.072 389.934 711.663C387.948 714.255 385.284 716.047 381.942 717.04L395.166 739.528V740H390.407L377.619 717.985ZM362.252 714.17H375.948C379.702 714.17 382.717 713.104 384.994 710.973C387.27 708.842 388.408 706.081 388.408 702.69C388.408 698.96 387.222 696.066 384.848 694.007C382.475 691.949 379.145 690.919 374.858 690.919H362.252V714.17ZM417.581 718.493H400.179V714.824H417.581V718.493ZM439.887 737.057C442.914 737.057 445.445 736.21 447.48 734.514C449.538 732.795 450.652 730.579 450.822 727.866H455C454.879 730.264 454.128 732.456 452.747 734.442C451.367 736.403 449.526 737.941 447.225 739.055C444.949 740.17 442.502 740.727 439.887 740.727C434.728 740.727 430.635 738.934 427.608 735.35C424.604 731.765 423.103 726.946 423.103 720.891V719.583C423.103 715.708 423.781 712.281 425.137 709.302C426.493 706.323 428.431 704.022 430.95 702.399C433.493 700.777 436.46 699.965 439.85 699.965C444.161 699.965 447.71 701.249 450.495 703.816C453.304 706.383 454.806 709.762 455 713.952H450.822C450.628 710.876 449.514 708.394 447.48 706.505C445.469 704.615 442.926 703.671 439.85 703.671C435.927 703.671 432.875 705.088 430.696 707.921C428.54 710.755 427.462 714.727 427.462 719.837V721.109C427.462 726.122 428.54 730.034 430.696 732.843C432.875 735.653 435.939 737.057 439.887 737.057ZM461.321 719.765C461.321 715.986 462.047 712.584 463.501 709.556C464.978 706.529 467.049 704.18 469.713 702.508C472.401 700.813 475.441 699.965 478.832 699.965C484.063 699.965 488.301 701.806 491.547 705.487C494.792 709.144 496.415 714 496.415 720.055V720.964C496.415 724.766 495.676 728.193 494.199 731.245C492.746 734.272 490.687 736.609 488.023 738.256C485.359 739.903 482.319 740.727 478.904 740.727C473.697 740.727 469.459 738.898 466.189 735.241C462.944 731.56 461.321 726.691 461.321 720.637V719.765ZM465.68 720.964C465.68 725.662 466.891 729.525 469.313 732.553C471.759 735.556 474.956 737.057 478.904 737.057C482.828 737.057 486 735.556 488.422 732.553C490.869 729.525 492.092 725.541 492.092 720.6V719.765C492.092 716.761 491.535 714.013 490.42 711.518C489.306 709.023 487.744 707.098 485.734 705.742C483.724 704.361 481.423 703.671 478.832 703.671C474.956 703.671 471.796 705.197 469.35 708.248C466.903 711.276 465.68 715.248 465.68 720.164V720.964ZM503.681 719.983C503.681 713.879 505.037 709.023 507.749 705.415C510.486 701.782 514.192 699.965 518.866 699.965C524.17 699.965 528.215 702.06 531 706.25V684.199H535.323V740H531.254L531.073 734.769C528.288 738.741 524.194 740.727 518.794 740.727C514.264 740.727 510.607 738.91 507.822 735.277C505.061 731.62 503.681 726.691 503.681 720.491V719.983ZM508.076 720.746C508.076 725.759 509.082 729.719 511.092 732.625C513.102 735.507 515.936 736.948 519.593 736.948C524.945 736.948 528.748 734.587 531 729.864V711.409C528.748 706.299 524.969 703.744 519.665 703.744C516.008 703.744 513.163 705.185 511.128 708.067C509.094 710.925 508.076 715.151 508.076 720.746ZM561.989 740.727C558.647 740.727 555.619 739.903 552.907 738.256C550.218 736.609 548.123 734.321 546.622 731.39C545.12 728.435 544.369 725.129 544.369 721.472V719.91C544.369 716.132 545.096 712.729 546.549 709.702C548.026 706.674 550.073 704.301 552.689 702.581C555.304 700.837 558.138 699.965 561.19 699.965C565.961 699.965 569.739 701.6 572.524 704.87C575.334 708.115 576.738 712.559 576.738 718.203V720.637H548.692V721.472C548.692 725.929 549.964 729.646 552.507 732.625C555.074 735.58 558.295 737.057 562.17 737.057C564.496 737.057 566.542 736.634 568.31 735.786C570.102 734.938 571.725 733.582 573.178 731.717L575.903 733.788C572.706 738.414 568.068 740.727 561.989 740.727ZM561.19 703.671C557.92 703.671 555.159 704.87 552.907 707.267C550.678 709.665 549.322 712.886 548.838 716.931H572.415V716.459C572.294 712.681 571.216 709.605 569.182 707.231C567.148 704.858 564.483 703.671 561.19 703.671Z" fill="white"/>
<path d="M263.429 924V871.105H279.051C283.725 871.105 287.867 872.146 291.475 874.229C295.108 876.312 297.918 879.267 299.904 883.093C301.89 886.92 302.883 891.304 302.883 896.245V898.897C302.883 903.91 301.878 908.318 299.867 912.12C297.881 915.923 295.036 918.853 291.33 920.912C287.649 922.971 283.422 924 278.651 924H263.429ZM272.621 878.516V916.662H278.615C283.435 916.662 287.128 915.16 289.695 912.157C292.287 909.129 293.607 904.794 293.655 899.151V896.208C293.655 890.468 292.408 886.085 289.913 883.057C287.419 880.03 283.798 878.516 279.051 878.516H272.621ZM321.738 924H312.583V871.105H321.738V924ZM373.579 917.134C371.666 919.628 369.014 921.518 365.623 922.801C362.232 924.085 358.381 924.727 354.07 924.727C349.638 924.727 345.715 923.721 342.3 921.711C338.885 919.701 336.245 916.831 334.38 913.101C332.539 909.347 331.583 904.976 331.51 899.986V895.845C331.51 887.853 333.423 881.616 337.25 877.135C341.077 872.631 346.417 870.378 353.271 870.378C359.157 870.378 363.831 871.831 367.294 874.738C370.758 877.644 372.84 881.834 373.543 887.308H364.533C363.516 880.938 359.823 877.753 353.453 877.753C349.336 877.753 346.199 879.243 344.044 882.222C341.912 885.176 340.81 889.524 340.738 895.264V899.333C340.738 905.048 341.937 909.493 344.334 912.665C346.756 915.814 350.111 917.388 354.397 917.388C359.096 917.388 362.438 916.322 364.424 914.191V903.837H353.526V896.862H373.579V917.134ZM393.379 924H384.224V871.105H393.379V924ZM441.805 878.516H425.312V924H416.193V878.516H399.845V871.105H441.805V878.516ZM474.029 911.684H453.539L449.253 924H439.698L459.679 871.105H467.926L487.943 924H478.352L474.029 911.684ZM456.119 904.273H471.45L463.784 882.331L456.119 904.273ZM503.165 916.662H527.179V924H493.974V871.105H503.165V916.662ZM571.391 912.484L584.833 871.105H594.932L575.896 924H566.995L548.031 871.105H558.095L571.391 912.484ZM642.632 898.933C642.632 904.116 641.736 908.669 639.944 912.593C638.152 916.492 635.585 919.495 632.242 921.602C628.924 923.685 625.098 924.727 620.762 924.727C616.475 924.727 612.649 923.685 609.282 921.602C605.94 919.495 603.349 916.504 601.508 912.629C599.691 908.754 598.771 904.285 598.747 899.224V896.245C598.747 891.086 599.655 886.533 601.472 882.585C603.312 878.637 605.892 875.622 609.21 873.539C612.552 871.432 616.379 870.378 620.69 870.378C625.001 870.378 628.815 871.42 632.133 873.503C635.476 875.561 638.055 878.54 639.871 882.44C641.688 886.315 642.608 890.832 642.632 895.99V898.933ZM633.441 896.172C633.441 890.311 632.327 885.818 630.099 882.694C627.895 879.57 624.758 878.007 620.69 878.007C616.718 878.007 613.605 879.57 611.353 882.694C609.125 885.794 607.987 890.19 607.938 895.881V898.933C607.938 904.746 609.064 909.238 611.317 912.411C613.593 915.584 616.742 917.17 620.762 917.17C624.831 917.17 627.955 915.62 630.135 912.52C632.339 909.42 633.441 904.891 633.441 898.933V896.172ZM690.478 871.105V906.453C690.478 912.072 688.673 916.528 685.065 919.822C681.48 923.092 676.697 924.727 670.715 924.727C664.66 924.727 659.852 923.116 656.292 919.895C652.732 916.649 650.952 912.157 650.952 906.417V871.105H660.107V906.489C660.107 910.025 661.003 912.726 662.795 914.591C664.587 916.456 667.227 917.388 670.715 917.388C677.787 917.388 681.323 913.658 681.323 906.199V871.105H690.478ZM740.685 906.78C740.152 912.423 738.069 916.831 734.436 920.004C730.803 923.152 725.971 924.727 719.941 924.727C715.726 924.727 712.009 923.734 708.788 921.748C705.591 919.737 703.12 916.892 701.376 913.21C699.633 909.529 698.724 905.254 698.652 900.386V895.445C698.652 890.456 699.536 886.06 701.304 882.258C703.072 878.455 705.603 875.525 708.897 873.466C712.215 871.408 716.041 870.378 720.377 870.378C726.213 870.378 730.912 871.965 734.472 875.137C738.033 878.31 740.103 882.791 740.685 888.579H731.53C731.094 884.777 729.98 882.04 728.187 880.369C726.419 878.673 723.816 877.826 720.377 877.826C716.38 877.826 713.305 879.291 711.149 882.222C709.018 885.128 707.928 889.403 707.879 895.046V899.732C707.879 905.448 708.897 909.807 710.931 912.811C712.99 915.814 715.993 917.315 719.941 917.315C723.549 917.315 726.262 916.504 728.078 914.881C729.895 913.259 731.045 910.558 731.53 906.78H740.685ZM790.928 924H781.773V900.495H758.122V924H748.931V871.105H758.122V893.12H781.773V871.105H790.928V924ZM832.742 900.386H811.018V916.662H836.412V924H801.826V871.105H836.157V878.516H811.018V893.12H832.742V900.386ZM863.332 903.619H853.087V924H843.895V871.105H862.496C868.599 871.105 873.31 872.473 876.628 875.21C879.946 877.947 881.605 881.907 881.605 887.09C881.605 890.626 880.745 893.593 879.026 895.99C877.33 898.364 874.957 900.192 871.905 901.476L883.785 923.528V924H873.94L863.332 903.619ZM853.087 896.245H862.532C865.632 896.245 868.054 895.47 869.798 893.92C871.542 892.345 872.414 890.202 872.414 887.489C872.414 884.656 871.602 882.464 869.98 880.914C868.381 879.364 865.984 878.564 862.787 878.516H853.087V896.245Z" fill="white"/>
<path d="M412.307 771.629L410.564 781.692H418.447L417.829 785.252H409.946L405.587 811.482L405.514 813.734C405.514 816.374 406.725 817.73 409.147 817.803C409.898 817.827 411.072 817.742 412.671 817.549L412.489 821.109C411.06 821.521 409.607 821.702 408.13 821.654C405.587 821.605 403.734 820.721 402.571 819.002C401.409 817.258 400.985 814.739 401.3 811.445L405.623 785.252H398.575L399.229 781.692H406.204L407.984 771.629H412.307ZM420.954 800.983C421.39 797.18 422.552 793.705 424.441 790.556C426.33 787.383 428.68 784.974 431.489 783.327C434.323 781.68 437.387 780.893 440.68 780.965C443.926 781.014 446.687 781.91 448.963 783.654C451.264 785.373 452.935 787.735 453.977 790.738C455.043 793.717 455.406 797.023 455.067 800.656L454.994 801.346C454.267 807.546 452.064 812.523 448.382 816.277C444.725 820.031 440.329 821.848 435.195 821.727C430.787 821.654 427.263 820.031 424.623 816.858C421.983 813.686 420.687 809.496 420.736 804.289L420.845 802.218L420.954 800.983ZM425.168 802.218C424.853 805.1 425.059 807.764 425.785 810.21C426.536 812.632 427.723 814.533 429.346 815.914C430.968 817.294 432.991 818.021 435.413 818.094C438.028 818.142 440.414 817.476 442.57 816.096C444.749 814.715 446.542 812.765 447.946 810.247C449.351 807.728 450.259 804.943 450.671 801.891L450.78 800.692C451.216 796.018 450.489 792.203 448.6 789.248C446.735 786.269 444.023 784.744 440.462 784.671C436.587 784.55 433.233 786.051 430.399 789.176C427.59 792.276 425.87 796.405 425.241 801.564L425.168 802.218ZM498.262 780.929C500.611 781.002 502.755 781.559 504.692 782.6C506.63 783.642 508.156 785.228 509.27 787.359L510.614 781.692H514.646L508.035 820.31C507.574 823.604 506.533 826.51 504.91 829.029C503.288 831.548 501.205 833.473 498.662 834.805C496.143 836.161 493.333 836.791 490.233 836.694C487.763 836.646 485.402 836.028 483.149 834.841C480.872 833.63 479.044 831.947 477.663 829.792L480.352 827.249C482.846 831.003 486.104 832.928 490.124 833.025C493.709 833.122 496.7 832.032 499.098 829.755C501.52 827.503 503.045 824.427 503.675 820.528L504.62 815.95C501.132 819.946 496.93 821.872 492.013 821.727C488.332 821.63 485.462 820.225 483.403 817.512C481.369 814.776 480.303 811.058 480.206 806.359C480.061 802.024 480.788 797.737 482.386 793.499C483.985 789.26 486.152 786.088 488.889 783.981C491.65 781.849 494.774 780.832 498.262 780.929ZM484.748 802L484.53 805.378C484.457 809.35 485.147 812.426 486.6 814.606C488.054 816.762 490.197 817.888 493.031 817.985C495.453 818.082 497.717 817.512 499.824 816.277C501.931 815.042 503.748 813.213 505.274 810.792L508.362 792.445C507.708 790.096 506.569 788.243 504.947 786.887C503.348 785.506 501.289 784.78 498.771 784.707C495.065 784.586 491.989 786.015 489.543 788.994C487.121 791.973 485.523 796.308 484.748 802ZM534.664 821.727C531.515 821.678 528.791 820.806 526.49 819.111C524.189 817.391 522.494 815.066 521.404 812.136C520.338 809.181 519.963 805.996 520.277 802.581L520.386 801.346C520.726 797.713 521.803 794.262 523.62 790.992C525.436 787.698 527.737 785.192 530.522 783.472C533.307 781.728 536.286 780.893 539.459 780.965C542.39 781.014 544.86 781.813 546.87 783.363C548.905 784.913 550.382 787.069 551.302 789.83C552.223 792.591 552.513 795.642 552.174 798.985L551.884 801.637H524.673L524.564 802.508C524.201 805.148 524.395 807.679 525.146 810.101C525.896 812.499 527.119 814.412 528.815 815.841C530.534 817.246 532.593 817.973 534.991 818.021C537.316 818.094 539.411 817.646 541.276 816.677C543.141 815.708 544.86 814.412 546.434 812.79L548.977 814.86C547.209 817.137 545.102 818.869 542.656 820.055C540.234 821.218 537.57 821.775 534.664 821.727ZM539.241 784.671C536.093 784.55 533.271 785.664 530.777 788.013C528.282 790.362 526.405 793.668 525.146 797.931L547.96 797.967L548.069 797.422C548.505 793.983 547.9 791.029 546.253 788.558C544.606 786.064 542.269 784.768 539.241 784.671ZM571.937 771.629L570.194 781.692H578.077L577.459 785.252H569.576L565.217 811.482L565.144 813.734C565.144 816.374 566.355 817.73 568.777 817.803C569.528 817.827 570.702 817.742 572.301 817.549L572.119 821.109C570.69 821.521 569.237 821.702 567.76 821.654C565.217 821.605 563.364 820.721 562.201 819.002C561.039 817.258 560.615 814.739 560.93 811.445L565.253 785.252H558.205L558.859 781.692H565.834L567.614 771.629H571.937Z" fill="white"/>
<path d="M796.298 706.221C799.285 704.115 802.089 701.763 804.683 699.188C810.127 693.741 813.766 687.042 814.934 680.323C816.217 672.956 814.34 666.111 809.782 661.562C806.153 657.93 801.231 656 795.547 656C787.465 656 778.935 659.882 772.167 666.654C761.331 677.495 755.022 692.448 751.622 703.132C749.109 692.406 744.093 677.923 734.342 668.167C729.117 662.939 722.433 660.247 716.113 660.247C710.951 660.247 706.049 662.042 702.379 665.704C694.234 673.853 695.339 688.169 704.84 697.675C708.229 701.066 712.192 703.884 716.363 706.221H681V747.959H691.429V821H816.571V747.959H827V706.221H796.288H796.298ZM780.457 674.949C784.973 670.431 790.615 667.728 795.537 667.728C797.279 667.728 799.729 668.094 801.481 669.847C805.726 674.093 803.338 683.923 796.382 690.882C789.217 698.051 779.592 702.976 771.218 706.221H762.958C765.982 696.84 771.437 683.975 780.457 674.949V674.949ZM708.698 680.281C708.584 678.789 708.688 676.003 710.69 674.01C712.162 672.642 714.116 671.913 716.123 671.986C719.586 671.986 723.204 673.624 726.051 676.462C731.568 681.982 736.115 690.768 739.191 701.88L739.431 702.778L738.534 702.538C727.438 699.459 718.658 694.91 713.13 689.39C710.628 686.973 709.055 683.752 708.688 680.291L708.698 680.281ZM743.582 810.566H701.868V742.742H743.582V810.566ZM743.582 737.524H691.439V716.655H743.582V737.524ZM806.153 810.566H764.439V742.742H806.153V810.566ZM816.582 737.524H764.439V716.655H816.582V737.524Z" fill="white"/>
</svg>
