<svg width="1000" height="1000" viewBox="0 0 1000 1000" fill="none" xmlns="http://www.w3.org/2000/svg">
<circle cx="500" cy="500" r="486.5" fill="white" stroke="#333333" stroke-width="27"/>
<rect x="229" y="229" width="543" height="543" rx="7.91244" fill="white"/>
<path d="M618.988 282.293H722.03V385.335" stroke="#C2C2C2" stroke-width="19.5795"/>
<path d="M381.992 282.293H278.951V385.335" stroke="#C2C2C2" stroke-width="19.5795"/>
<path d="M618.988 725.367H722.03V622.326" stroke="#C2C2C2" stroke-width="19.5795"/>
<path d="M381.992 725.367H278.951V622.326" stroke="#C2C2C2" stroke-width="19.5795"/>
<path d="M384.091 459.341L375.99 435.763L367.38 459.341H384.091ZM372.212 427.844H380.386L399.749 481.211H391.829L386.416 465.226H365.309L359.533 481.211H352.122L372.212 427.844ZM409.594 462.211C409.594 466.377 410.478 469.864 412.246 472.674C414.014 475.483 416.848 476.888 420.747 476.888C423.775 476.888 426.257 475.592 428.195 473.001C430.157 470.385 431.137 466.643 431.137 461.775C431.137 456.858 430.132 453.225 428.122 450.876C426.112 448.503 423.629 447.316 420.675 447.316C417.381 447.316 414.705 448.575 412.646 451.094C410.612 453.613 409.594 457.319 409.594 462.211ZM419.439 441.612C422.418 441.612 424.913 442.242 426.923 443.501C428.086 444.228 429.406 445.499 430.883 447.316V427.662H437.168V481.211H431.283V475.798C429.757 478.196 427.953 479.927 425.87 480.993C423.787 482.059 421.401 482.591 418.713 482.591C414.378 482.591 410.624 480.775 407.451 477.142C404.278 473.485 402.692 468.629 402.692 462.574C402.692 456.907 404.133 452.002 407.015 447.861C409.921 443.695 414.063 441.612 419.439 441.612ZM451.009 462.211C451.009 466.377 451.893 469.864 453.661 472.674C455.429 475.483 458.263 476.888 462.162 476.888C465.19 476.888 467.672 475.592 469.61 473.001C471.572 470.385 472.553 466.643 472.553 461.775C472.553 456.858 471.547 453.225 469.537 450.876C467.527 448.503 465.045 447.316 462.09 447.316C458.796 447.316 456.12 448.575 454.061 451.094C452.027 453.613 451.009 457.319 451.009 462.211ZM460.855 441.612C463.834 441.612 466.328 442.242 468.338 443.501C469.501 444.228 470.821 445.499 472.298 447.316V427.662H478.583V481.211H472.698V475.798C471.172 478.196 469.368 479.927 467.285 480.993C465.202 482.059 462.816 482.591 460.128 482.591C455.793 482.591 452.039 480.775 448.866 477.142C445.693 473.485 444.107 468.629 444.107 462.574C444.107 456.907 445.548 452.002 448.43 447.861C451.336 443.695 455.478 441.612 460.855 441.612ZM533.295 442.302H540.524C539.604 444.797 537.557 450.489 534.385 459.377C532.011 466.062 530.025 471.511 528.427 475.725C524.648 485.655 521.984 491.71 520.434 493.89C518.884 496.07 516.22 497.159 512.442 497.159C511.522 497.159 510.807 497.123 510.299 497.05C509.814 496.978 509.209 496.845 508.482 496.651V490.693C509.62 491.008 510.444 491.201 510.952 491.274C511.461 491.347 511.909 491.383 512.297 491.383C513.508 491.383 514.392 491.177 514.949 490.765C515.53 490.378 516.014 489.894 516.402 489.312C516.523 489.119 516.959 488.126 517.71 486.333C518.46 484.541 519.005 483.209 519.344 482.337L504.958 442.302H512.369L522.796 473.981L533.295 442.302ZM561.632 476.997C565.967 476.997 568.934 475.362 570.532 472.092C572.155 468.799 572.966 465.141 572.966 461.121C572.966 457.488 572.385 454.533 571.222 452.257C569.382 448.672 566.209 446.88 561.704 446.88C557.708 446.88 554.802 448.406 552.985 451.457C551.169 454.509 550.261 458.19 550.261 462.501C550.261 466.643 551.169 470.094 552.985 472.855C554.802 475.616 557.684 476.997 561.632 476.997ZM561.886 441.176C566.899 441.176 571.138 442.847 574.601 446.19C578.064 449.532 579.796 454.449 579.796 460.939C579.796 467.212 578.27 472.395 575.219 476.488C572.167 480.581 567.432 482.628 561.014 482.628C555.661 482.628 551.411 480.823 548.262 477.215C545.114 473.582 543.54 468.714 543.54 462.61C543.54 456.071 545.199 450.864 548.517 446.989C551.835 443.114 556.291 441.176 561.886 441.176ZM594.146 442.302V468.132C594.146 470.118 594.461 471.741 595.091 473.001C596.253 475.326 598.421 476.488 601.593 476.488C606.147 476.488 609.247 474.454 610.894 470.385C611.79 468.205 612.238 465.214 612.238 461.412V442.302H618.777V481.211H612.601L612.674 475.471C611.826 476.948 610.773 478.196 609.513 479.213C607.019 481.247 603.991 482.264 600.431 482.264C594.885 482.264 591.106 480.412 589.096 476.706C588.006 474.72 587.461 472.068 587.461 468.75V442.302H594.146ZM629.204 442.302H635.416V449.023C635.924 447.716 637.172 446.129 639.158 444.264C641.144 442.375 643.432 441.431 646.024 441.431C646.145 441.431 646.351 441.443 646.642 441.467C646.932 441.491 647.429 441.54 648.131 441.612V448.515C647.744 448.442 647.38 448.394 647.041 448.369C646.726 448.345 646.375 448.333 645.988 448.333C642.694 448.333 640.163 449.399 638.395 451.53C636.627 453.637 635.743 456.071 635.743 458.832V481.211H629.204V442.302Z" fill="#C2C2C2"/>
<path d="M384.747 574.009C382.349 574.809 379.479 575.208 376.137 575.208C369.162 575.208 363.398 573.125 358.844 568.96C353.322 563.946 350.561 556.584 350.561 546.872C350.561 537.087 353.395 529.688 359.062 524.674C363.688 520.581 369.44 518.535 376.319 518.535C383.245 518.535 389.058 520.703 393.757 525.038C399.182 530.051 401.894 537.063 401.894 546.072C401.894 550.844 401.313 554.84 400.15 558.061C399.206 561.137 397.813 563.692 395.973 565.726L402.149 571.503L396.3 577.606L389.833 571.503C387.871 572.689 386.176 573.525 384.747 574.009ZM382.349 564.346L376.936 559.187L382.713 553.156L388.126 558.315C388.973 556.571 389.567 555.046 389.906 553.738C390.438 551.776 390.705 549.487 390.705 546.872C390.705 540.865 389.47 536.227 386.999 532.958C384.553 529.664 380.969 528.017 376.246 528.017C371.814 528.017 368.278 529.591 365.638 532.74C362.998 535.888 361.678 540.599 361.678 546.872C361.678 554.21 363.567 559.466 367.345 562.638C369.791 564.697 372.722 565.726 376.137 565.726C377.421 565.726 378.656 565.569 379.843 565.254C380.496 565.085 381.332 564.782 382.349 564.346ZM433.21 552.721H421.657V573.719H410.722V520.17H436.988C440.742 520.242 443.624 520.703 445.634 521.55C447.669 522.398 449.388 523.645 450.793 525.292C451.956 526.648 452.876 528.15 453.554 529.797C454.232 531.444 454.571 533.321 454.571 535.428C454.571 537.971 453.93 540.478 452.646 542.948C451.362 545.394 449.243 547.126 446.288 548.143C448.759 549.136 450.503 550.553 451.52 552.394C452.561 554.21 453.082 556.995 453.082 560.749V564.346C453.082 566.792 453.179 568.451 453.373 569.323C453.663 570.703 454.341 571.721 455.407 572.375V573.719H443.091C442.752 572.532 442.51 571.575 442.365 570.849C442.074 569.347 441.917 567.809 441.893 566.235L441.82 561.258C441.771 557.843 441.142 555.566 439.931 554.428C438.744 553.29 436.504 552.721 433.21 552.721ZM440.003 542.984C442.232 541.967 443.346 539.957 443.346 536.954C443.346 533.708 442.268 531.529 440.112 530.414C438.901 529.785 437.085 529.47 434.663 529.47H421.657V543.856H434.336C436.855 543.856 438.744 543.566 440.003 542.984ZM518.365 548.325H507.757C507.563 546.847 507.067 545.515 506.268 544.329C505.105 542.73 503.301 541.931 500.855 541.931C497.367 541.931 494.981 543.662 493.698 547.126C493.02 548.967 492.681 551.413 492.681 554.464C492.681 557.371 493.02 559.708 493.698 561.476C494.933 564.77 497.258 566.417 500.673 566.417C503.095 566.417 504.815 565.763 505.832 564.455C506.849 563.147 507.467 561.452 507.685 559.369H518.256C518.014 562.517 516.876 565.496 514.841 568.306C511.596 572.835 506.788 575.099 500.419 575.099C494.049 575.099 489.363 573.21 486.359 569.432C483.356 565.654 481.855 560.749 481.855 554.719C481.855 547.913 483.514 542.621 486.832 538.843C490.15 535.065 494.727 533.175 500.564 533.175C505.529 533.175 509.586 534.29 512.734 536.518C515.907 538.746 517.784 542.682 518.365 548.325ZM558.545 539.133C561.888 543.323 563.559 548.276 563.559 553.992C563.559 559.805 561.888 564.782 558.545 568.923C555.203 573.041 550.129 575.099 543.323 575.099C536.518 575.099 531.444 573.041 528.102 568.923C524.759 564.782 523.088 559.805 523.088 553.992C523.088 548.276 524.759 543.323 528.102 539.133C531.444 534.944 536.518 532.849 543.323 532.849C550.129 532.849 555.203 534.944 558.545 539.133ZM543.287 541.604C540.26 541.604 537.922 542.682 536.276 544.837C534.653 546.968 533.841 550.02 533.841 553.992C533.841 557.964 534.653 561.028 536.276 563.183C537.922 565.339 540.26 566.417 543.287 566.417C546.314 566.417 548.64 565.339 550.262 563.183C551.885 561.028 552.696 557.964 552.696 553.992C552.696 550.02 551.885 546.968 550.262 544.837C548.64 542.682 546.314 541.604 543.287 541.604ZM607.045 520.242V573.719H596.981V568.233C595.504 570.582 593.821 572.29 591.932 573.355C590.043 574.421 587.693 574.954 584.884 574.954C580.258 574.954 576.359 573.089 573.186 569.359C570.037 565.605 568.463 560.798 568.463 554.937C568.463 548.179 570.013 542.863 573.113 538.988C576.238 535.113 580.403 533.175 585.61 533.175C588.008 533.175 590.139 533.708 592.004 534.774C593.869 535.815 595.383 537.269 596.545 539.133V520.242H607.045ZM579.144 554.174C579.144 557.831 579.87 560.749 581.324 562.929C582.753 565.133 584.932 566.235 587.863 566.235C590.793 566.235 593.022 565.145 594.547 562.965C596.073 560.786 596.836 557.964 596.836 554.501C596.836 549.657 595.613 546.193 593.167 544.111C591.665 542.851 589.921 542.221 587.935 542.221C584.908 542.221 582.68 543.372 581.251 545.673C579.846 547.949 579.144 550.783 579.144 554.174ZM650.385 562.093C650.119 564.443 648.896 566.828 646.716 569.25C643.325 573.101 638.578 575.027 632.475 575.027C627.437 575.027 622.993 573.404 619.142 570.158C615.291 566.913 613.366 561.633 613.366 554.319C613.366 547.465 615.098 542.209 618.561 538.552C622.049 534.895 626.565 533.067 632.112 533.067C635.405 533.067 638.372 533.684 641.012 534.919C643.652 536.154 645.832 538.104 647.552 540.768C649.102 543.118 650.107 545.842 650.567 548.942C650.833 550.759 650.942 553.374 650.894 556.789H623.792C623.938 560.761 625.185 563.547 627.534 565.145C628.963 566.138 630.683 566.635 632.693 566.635C634.824 566.635 636.556 566.029 637.888 564.818C638.615 564.164 639.256 563.256 639.813 562.093H650.385ZM640.14 549.96C639.971 547.223 639.135 545.152 637.634 543.747C636.156 542.318 634.316 541.604 632.112 541.604C629.714 541.604 627.849 542.355 626.517 543.856C625.209 545.358 624.386 547.392 624.047 549.96H640.14Z" fill="#C2C2C2"/>
<path d="M331.55 159.133C325.914 172.3 319.709 187.314 321.414 201.949C322.361 210.096 327.334 218.526 336.476 219.047C348.08 219.71 359.447 206.496 366.741 198.965C370.34 195.224 373.703 191.292 376.876 187.172C374.461 195.176 373.04 203.512 375.55 211.611C375.977 213.08 381.044 216.537 381.234 213.601C381.944 203.039 382.939 193.661 386.681 183.62C390.091 174.526 394.259 165.811 397.006 156.48C398.427 151.555 399.327 146.345 393.643 144.024C387.296 141.466 377.729 148.997 372.519 151.744C369.772 153.165 375.55 157.665 378.013 156.528C390.091 150.986 381.092 166.948 378.771 170.689C375.74 175.663 372.377 180.399 368.73 184.946C361.578 193.897 352.295 204.933 341.97 210.238C337.66 212.464 330.082 212.369 328.85 206.922C328.092 203.607 328.14 200.007 328.376 196.692C328.85 189.208 331.029 181.867 333.539 174.81C337.612 163.301 342.728 152.17 348.506 141.419C359.636 120.769 373.798 98.8867 392.222 83.9673C395.822 81.0781 401.837 77.0049 406.052 74.8262C411.12 72.2212 414.957 73.5947 416.046 75.6313C416.804 77.2417 417.23 78.8994 417.23 80.6519C417.562 83.2095 417.325 85.7197 417.041 88.2773C415.478 102.392 410.836 115.748 404.963 128.583C404.016 130.62 408.705 133.604 409.794 131.662C416.993 118.542 422.156 103.292 423.387 88.3247C424.003 80.6519 422.156 72.4106 414.246 69.4268C402.547 65.022 388.575 77.6206 380.95 84.9146C370.672 94.7188 361.91 106.275 354 118.021C345.238 130.999 337.754 144.782 331.55 159.133ZM390.991 149.66C390.943 150.513 390.754 151.413 390.517 152.312C389.854 151.649 389.049 151.128 388.196 150.702C389.144 150.276 390.091 149.944 390.991 149.66ZM400.558 183.762C401.079 186.746 402.074 188.309 405.437 188.688C415.383 190.108 425.329 175.094 430.539 165.669C432.149 165.195 431.676 162.117 429.876 162.638C422.061 173.91 413.488 185.23 407.284 184.425C406.81 184.614 405.389 183.525 405.768 180.257C406.715 172.063 410.031 159.749 416.283 153.686C418.746 151.318 410.504 145.966 409.794 149.518C408.752 154.539 398.806 173.91 400.558 183.762ZM413.204 141.845C416.046 140.424 417.988 137.63 420.735 136.02C422.393 135.025 418.604 132.846 417.467 133.225C414.151 134.362 409.841 135.356 407.805 138.53C407.142 139.619 408.752 140.945 409.462 141.419C410.599 142.082 411.973 142.461 413.204 141.845ZM427.176 183.193C435.891 177.462 443.422 172.3 453.368 167.99C455.594 166.995 454.694 165.243 453.131 165.764C444.795 168.463 436.838 172.252 429.166 176.562C430.444 173.152 431.771 169.79 433.191 166.379C442.333 154.917 452.61 137.772 456.494 126.547C457.157 124.7 454.031 123.279 452.705 123.563C445.411 125.126 432.055 153.212 425.471 171.116C424.666 173.2 423.435 176.705 422.014 180.873C421.066 181.441 420.167 182.009 419.267 182.578C417.988 183.43 419.172 184.52 420.545 185.23C416.141 198.729 411.215 216.253 414.199 219.9C421.777 229.088 434.47 209.006 436.223 203.133C438.78 194.513 434.66 185.94 427.176 183.193ZM431.439 200.718C430.681 203.275 429.592 205.454 428.076 207.68C427.034 209.196 419.977 218.574 417.704 216.395C416.662 215.353 420.545 203.938 420.972 202.281C422.487 196.739 424.145 191.292 425.945 185.846C434.233 186.556 432.765 196.171 431.439 200.718ZM533.365 113.048C520.624 110.301 506.652 110.491 493.627 110.112C491.732 110.064 489.791 110.064 487.896 110.017C492.822 101.871 494.148 100.781 497.795 92.2085C498.6 90.3613 494.29 87.8511 493.011 89.272C486.001 97.1816 484.533 100.166 479.513 109.922C470.135 109.922 460.757 110.112 451.379 110.538C424.571 111.817 414.341 111.627 399.753 116.695C397.716 117.264 400.984 119.679 402.121 119.537C417.798 118.306 427.224 116.553 454.458 115.227C461.988 114.896 469.566 114.706 477.097 114.611C476.055 116.648 475.061 118.637 474.019 120.579C466.488 135.025 459.62 149.802 453.558 164.911C448.111 178.457 443.28 192.477 442.001 207.064C441.291 215.685 441.433 224.731 450.763 227.904C454.031 229.041 453.416 225.394 450.811 224.731C442.664 222.647 451.663 191.198 452.895 187.077C456.494 175.094 461.42 163.538 466.488 152.123C471.603 140.614 477.192 129.247 483.16 118.164C483.823 116.979 484.486 115.795 485.149 114.611C488.464 114.659 491.78 114.706 495.048 114.753C508.404 115.085 521.998 117.358 535.259 116.79C538.622 116.648 534.738 113.333 533.365 113.048ZM545.49 167.8C540.706 172.773 535.591 177.368 529.955 181.394C524.129 185.562 507.599 196.692 508.783 181.441C509.162 176.042 511.388 169.079 514.988 162.685C520.34 153.26 524.082 150.607 525.408 149.613C531.091 145.255 535.354 151.46 533.033 156.007C532.465 157.996 536.254 160.175 536.775 158.375C538.906 151.318 536.112 143.692 527.444 144.64C514.704 145.966 505.278 163.822 503.242 173.389C500.779 184.709 504.142 193.519 515.651 193.519C524.46 193.519 541.322 176.894 547.574 169.032C548.995 167.232 546.816 166.427 545.49 167.8ZM569.361 175.521C569.029 178.741 569.456 181.915 571.966 184.093C581.486 192.429 591.716 173.437 595.411 167.09C596.121 165.811 593.611 164.722 592.806 166.048C590.106 170.453 583.001 181.82 577.507 180.304C574.95 179.641 576.086 175.473 576.892 172.442C579.354 163.396 583.949 154.965 587.785 146.487C588.922 144.213 582.528 142.887 581.249 145.161C579.828 147.718 578.502 150.229 577.223 152.786C577.413 147.339 574.571 142.603 567.087 144.403C554.157 147.529 542.411 167.469 540.99 179.688C539.806 189.919 549.042 193.708 556.762 187.788C561.356 184.235 565.524 180.067 569.361 175.521ZM548.474 185.277C543.5 181.346 553.352 165.858 556.904 161.122C565.903 149.139 569.882 148.855 571.445 150.465C572.866 151.886 570.64 156.528 569.929 157.854C569.171 159.133 570.687 162.59 572.439 162.732C571.682 163.869 570.924 164.958 570.071 166.143C566.898 170.547 554.11 189.635 548.474 185.277ZM626.434 144.734C609.478 141.229 602.989 155.628 596.784 169.174C599.01 160.222 602.468 151.649 605.073 144.734C605.641 143.124 600.573 144.308 599.673 145.729C599.673 145.729 587.501 171.542 588.069 185.419C588.164 187.551 593.042 189.303 594.369 187.598C604.457 175.094 606.92 147.434 627.286 147.434C630.081 147.434 627.949 145.019 626.434 144.734ZM675.644 105.091C668.918 117.122 662.951 129.578 657.599 142.271C656.462 144.971 655.136 147.86 653.81 150.892C653.715 150.607 653.573 150.323 653.431 150.039C651.205 146.061 646.752 144.308 642.537 145.445C631.123 148.523 616.677 170.784 622.36 182.388C628.518 194.845 642.063 178.22 647.368 169.458C646.563 173.294 646.184 177.083 646.61 180.73C647.131 185.514 650.968 188.83 656.415 187.835C665.508 186.177 670.576 175.142 673.465 167.8C674.081 166.285 671.571 166.664 670.813 168.132C669.061 171.589 662.667 183.951 655.562 183.951C641.969 183.904 673.229 121.668 679.007 109.78C679.859 107.98 676.591 103.386 675.644 105.091ZM645.9 159.843C644.953 161.312 645.189 163.585 646.468 163.585C645.853 164.485 639.506 175.899 633.207 179.404C630.649 180.825 628.991 181.157 628.044 180.683C623.118 178.125 633.207 159.228 640.5 153.307C641.779 152.265 644.858 149.944 647.037 150.418C648.221 150.655 649.121 151.649 649.357 153.923C649.594 156.007 646.516 158.849 645.9 159.843Z" fill="#333333"/>
<path d="M375.75 917.609C375.75 915.719 375.086 914.227 373.758 913.133C372.43 912.023 370 910.977 366.469 909.992C362.938 908.992 360.359 907.906 358.734 906.734C356.422 905.078 355.266 902.906 355.266 900.219C355.266 897.609 356.336 895.492 358.477 893.867C360.633 892.227 363.383 891.406 366.727 891.406C368.992 891.406 371.016 891.844 372.797 892.719C374.594 893.594 375.984 894.812 376.969 896.375C377.953 897.938 378.445 899.68 378.445 901.602H375.539C375.539 899.273 374.742 897.406 373.148 896C371.555 894.578 369.414 893.867 366.727 893.867C364.117 893.867 362.039 894.453 360.492 895.625C358.945 896.781 358.172 898.297 358.172 900.172C358.172 901.906 358.867 903.32 360.258 904.414C361.648 905.508 363.875 906.477 366.938 907.32C370 908.148 372.32 909.016 373.898 909.922C375.477 910.812 376.664 911.883 377.461 913.133C378.258 914.383 378.656 915.859 378.656 917.562C378.656 920.25 377.578 922.406 375.422 924.031C373.281 925.656 370.453 926.469 366.938 926.469C364.531 926.469 362.32 926.039 360.305 925.18C358.305 924.32 356.781 923.117 355.734 921.57C354.703 920.023 354.188 918.25 354.188 916.25H357.07C357.07 918.656 357.969 920.555 359.766 921.945C361.562 923.336 363.953 924.031 366.938 924.031C369.594 924.031 371.727 923.445 373.336 922.273C374.945 921.102 375.75 919.547 375.75 917.609ZM393.609 924.102C395.562 924.102 397.195 923.555 398.508 922.461C399.836 921.352 400.555 919.922 400.664 918.172H403.359C403.281 919.719 402.797 921.133 401.906 922.414C401.016 923.68 399.828 924.672 398.344 925.391C396.875 926.109 395.297 926.469 393.609 926.469C390.281 926.469 387.641 925.312 385.688 923C383.75 920.688 382.781 917.578 382.781 913.672V912.828C382.781 910.328 383.219 908.117 384.094 906.195C384.969 904.273 386.219 902.789 387.844 901.742C389.484 900.695 391.398 900.172 393.586 900.172C396.367 900.172 398.656 901 400.453 902.656C402.266 904.312 403.234 906.492 403.359 909.195H400.664C400.539 907.211 399.82 905.609 398.508 904.391C397.211 903.172 395.57 902.562 393.586 902.562C391.055 902.562 389.086 903.477 387.68 905.305C386.289 907.133 385.594 909.695 385.594 912.992V913.812C385.594 917.047 386.289 919.57 387.68 921.383C389.086 923.195 391.062 924.102 393.609 924.102ZM424.992 926C424.711 925.203 424.531 924.023 424.453 922.461C423.469 923.742 422.211 924.734 420.68 925.438C419.164 926.125 417.555 926.469 415.852 926.469C413.414 926.469 411.438 925.789 409.922 924.43C408.422 923.07 407.672 921.352 407.672 919.273C407.672 916.805 408.695 914.852 410.742 913.414C412.805 911.977 415.672 911.258 419.344 911.258H424.43V908.375C424.43 906.562 423.867 905.141 422.742 904.109C421.633 903.062 420.008 902.539 417.867 902.539C415.914 902.539 414.297 903.039 413.016 904.039C411.734 905.039 411.094 906.242 411.094 907.648L408.281 907.625C408.281 905.609 409.219 903.867 411.094 902.398C412.969 900.914 415.273 900.172 418.008 900.172C420.836 900.172 423.062 900.883 424.688 902.305C426.328 903.711 427.172 905.68 427.219 908.211V920.211C427.219 922.664 427.477 924.5 427.992 925.719V926H424.992ZM416.18 923.984C418.055 923.984 419.727 923.531 421.195 922.625C422.68 921.719 423.758 920.508 424.43 918.992V913.414H419.414C416.617 913.445 414.43 913.961 412.852 914.961C411.273 915.945 410.484 917.305 410.484 919.039C410.484 920.461 411.008 921.641 412.055 922.578C413.117 923.516 414.492 923.984 416.18 923.984ZM437.391 900.641L437.484 904.977C438.438 903.414 439.625 902.227 441.047 901.414C442.469 900.586 444.039 900.172 445.758 900.172C448.477 900.172 450.5 900.938 451.828 902.469C453.156 904 453.828 906.297 453.844 909.359V926H451.055V909.336C451.039 907.07 450.555 905.383 449.602 904.273C448.664 903.164 447.156 902.609 445.078 902.609C443.344 902.609 441.805 903.156 440.461 904.25C439.133 905.328 438.148 906.789 437.508 908.633V926H434.719V900.641H437.391ZM498.562 910.789C498.562 914.039 497.984 916.875 496.828 919.297C495.688 921.703 494.055 923.523 491.93 924.758L498.141 930.172L496.148 931.953L489.188 925.93C487.906 926.289 486.602 926.469 485.273 926.469C482.68 926.469 480.367 925.828 478.336 924.547C476.32 923.266 474.758 921.453 473.648 919.109C472.539 916.75 471.977 914.031 471.961 910.953V907.133C471.961 904.023 472.508 901.273 473.602 898.883C474.711 896.477 476.273 894.633 478.289 893.352C480.305 892.055 482.617 891.406 485.227 891.406C487.883 891.406 490.219 892.047 492.234 893.328C494.25 894.609 495.805 896.445 496.898 898.836C498.008 901.227 498.562 903.984 498.562 907.109V910.789ZM495.68 907.086C495.68 902.977 494.75 899.758 492.891 897.43C491.031 895.102 488.477 893.938 485.227 893.938C482.07 893.938 479.547 895.109 477.656 897.453C475.781 899.781 474.844 903.039 474.844 907.227V910.789C474.844 914.836 475.773 918.047 477.633 920.422C479.508 922.781 482.055 923.961 485.273 923.961C488.523 923.961 491.07 922.797 492.914 920.469C494.758 918.141 495.68 914.891 495.68 910.719V907.086ZM518.672 911.797H508.758V926H505.852V891.875H516.938C520.578 891.875 523.422 892.758 525.469 894.523C527.516 896.289 528.539 898.758 528.539 901.93C528.539 904.117 527.898 906.047 526.617 907.719C525.336 909.391 523.617 910.547 521.461 911.188L529.992 925.695V926H526.922L518.672 911.797ZM508.758 909.336H517.594C520.016 909.336 521.961 908.648 523.43 907.273C524.898 905.898 525.633 904.117 525.633 901.93C525.633 899.523 524.867 897.656 523.336 896.328C521.805 895 519.656 894.336 516.891 894.336H508.758V909.336ZM556.781 924.102C558.734 924.102 560.367 923.555 561.68 922.461C563.008 921.352 563.727 919.922 563.836 918.172H566.531C566.453 919.719 565.969 921.133 565.078 922.414C564.188 923.68 563 924.672 561.516 925.391C560.047 926.109 558.469 926.469 556.781 926.469C553.453 926.469 550.812 925.312 548.859 923C546.922 920.688 545.953 917.578 545.953 913.672V912.828C545.953 910.328 546.391 908.117 547.266 906.195C548.141 904.273 549.391 902.789 551.016 901.742C552.656 900.695 554.57 900.172 556.758 900.172C559.539 900.172 561.828 901 563.625 902.656C565.438 904.312 566.406 906.492 566.531 909.195H563.836C563.711 907.211 562.992 905.609 561.68 904.391C560.383 903.172 558.742 902.562 556.758 902.562C554.227 902.562 552.258 903.477 550.852 905.305C549.461 907.133 548.766 909.695 548.766 912.992V913.812C548.766 917.047 549.461 919.57 550.852 921.383C552.258 923.195 554.234 924.102 556.781 924.102ZM570.609 912.945C570.609 910.508 571.078 908.312 572.016 906.359C572.969 904.406 574.305 902.891 576.023 901.812C577.758 900.719 579.719 900.172 581.906 900.172C585.281 900.172 588.016 901.359 590.109 903.734C592.203 906.094 593.25 909.227 593.25 913.133V913.719C593.25 916.172 592.773 918.383 591.82 920.352C590.883 922.305 589.555 923.812 587.836 924.875C586.117 925.938 584.156 926.469 581.953 926.469C578.594 926.469 575.859 925.289 573.75 922.93C571.656 920.555 570.609 917.414 570.609 913.508V912.945ZM573.422 913.719C573.422 916.75 574.203 919.242 575.766 921.195C577.344 923.133 579.406 924.102 581.953 924.102C584.484 924.102 586.531 923.133 588.094 921.195C589.672 919.242 590.461 916.672 590.461 913.484V912.945C590.461 911.008 590.102 909.234 589.383 907.625C588.664 906.016 587.656 904.773 586.359 903.898C585.062 903.008 583.578 902.562 581.906 902.562C579.406 902.562 577.367 903.547 575.789 905.516C574.211 907.469 573.422 910.031 573.422 913.203V913.719ZM597.938 913.086C597.938 909.148 598.812 906.016 600.562 903.688C602.328 901.344 604.719 900.172 607.734 900.172C611.156 900.172 613.766 901.523 615.562 904.227V890H618.352V926H615.727L615.609 922.625C613.812 925.188 611.172 926.469 607.688 926.469C604.766 926.469 602.406 925.297 600.609 922.953C598.828 920.594 597.938 917.414 597.938 913.414V913.086ZM600.773 913.578C600.773 916.812 601.422 919.367 602.719 921.242C604.016 923.102 605.844 924.031 608.203 924.031C611.656 924.031 614.109 922.508 615.562 919.461V907.555C614.109 904.258 611.672 902.609 608.25 902.609C605.891 902.609 604.055 903.539 602.742 905.398C601.43 907.242 600.773 909.969 600.773 913.578ZM635.555 926.469C633.398 926.469 631.445 925.938 629.695 924.875C627.961 923.812 626.609 922.336 625.641 920.445C624.672 918.539 624.188 916.406 624.188 914.047V913.039C624.188 910.602 624.656 908.406 625.594 906.453C626.547 904.5 627.867 902.969 629.555 901.859C631.242 900.734 633.07 900.172 635.039 900.172C638.117 900.172 640.555 901.227 642.352 903.336C644.164 905.43 645.07 908.297 645.07 911.938V913.508H626.977V914.047C626.977 916.922 627.797 919.32 629.438 921.242C631.094 923.148 633.172 924.102 635.672 924.102C637.172 924.102 638.492 923.828 639.633 923.281C640.789 922.734 641.836 921.859 642.773 920.656L644.531 921.992C642.469 924.977 639.477 926.469 635.555 926.469ZM635.039 902.562C632.93 902.562 631.148 903.336 629.695 904.883C628.258 906.43 627.383 908.508 627.07 911.117H642.281V910.812C642.203 908.375 641.508 906.391 640.195 904.859C638.883 903.328 637.164 902.562 635.039 902.562Z" fill="black"/>
</svg>
