<svg width="1000" height="1000" viewBox="0 0 1000 1000" fill="none" xmlns="http://www.w3.org/2000/svg">
<rect x="175" y="265" width="650" height="735" rx="15" fill="#333333"/>
<rect x="228" y="422" width="543" height="543" rx="7.91244" fill="white"/>
<path d="M617.988 475.293H721.03V578.335" stroke="#C2C2C2" stroke-width="19.5795"/>
<path d="M380.992 475.293H277.951V578.335" stroke="#C2C2C2" stroke-width="19.5795"/>
<path d="M617.988 918.367H721.03V815.326" stroke="#C2C2C2" stroke-width="19.5795"/>
<path d="M380.992 918.367H277.951V815.326" stroke="#C2C2C2" stroke-width="19.5795"/>
<path d="M383.091 652.341L374.99 628.763L366.38 652.341H383.091ZM371.212 620.844H379.386L398.749 674.211H390.829L385.416 658.226H364.309L358.533 674.211H351.122L371.212 620.844ZM408.594 655.211C408.594 659.377 409.478 662.864 411.246 665.674C413.014 668.483 415.848 669.888 419.747 669.888C422.775 669.888 425.257 668.592 427.195 666.001C429.157 663.385 430.137 659.643 430.137 654.775C430.137 649.858 429.132 646.225 427.122 643.876C425.112 641.503 422.629 640.316 419.675 640.316C416.381 640.316 413.705 641.575 411.646 644.094C409.612 646.613 408.594 650.319 408.594 655.211ZM418.439 634.612C421.418 634.612 423.913 635.242 425.923 636.501C427.086 637.228 428.406 638.499 429.883 640.316V620.662H436.168V674.211H430.283V668.798C428.757 671.196 426.953 672.927 424.87 673.993C422.787 675.059 420.401 675.591 417.713 675.591C413.378 675.591 409.624 673.775 406.451 670.142C403.278 666.485 401.692 661.629 401.692 655.574C401.692 649.907 403.133 645.002 406.015 640.861C408.921 636.695 413.063 634.612 418.439 634.612ZM450.009 655.211C450.009 659.377 450.893 662.864 452.661 665.674C454.429 668.483 457.263 669.888 461.162 669.888C464.19 669.888 466.672 668.592 468.61 666.001C470.572 663.385 471.553 659.643 471.553 654.775C471.553 649.858 470.547 646.225 468.537 643.876C466.527 641.503 464.045 640.316 461.09 640.316C457.796 640.316 455.12 641.575 453.061 644.094C451.027 646.613 450.009 650.319 450.009 655.211ZM459.855 634.612C462.834 634.612 465.328 635.242 467.338 636.501C468.501 637.228 469.821 638.499 471.298 640.316V620.662H477.583V674.211H471.698V668.798C470.172 671.196 468.368 672.927 466.285 673.993C464.202 675.059 461.816 675.591 459.128 675.591C454.793 675.591 451.039 673.775 447.866 670.142C444.693 666.485 443.107 661.629 443.107 655.574C443.107 649.907 444.548 645.002 447.43 640.861C450.336 636.695 454.478 634.612 459.855 634.612ZM532.295 635.302H539.524C538.604 637.797 536.557 643.489 533.385 652.377C531.011 659.062 529.025 664.511 527.427 668.725C523.648 678.655 520.984 684.71 519.434 686.89C517.884 689.07 515.22 690.159 511.442 690.159C510.522 690.159 509.807 690.123 509.299 690.05C508.814 689.978 508.209 689.845 507.482 689.651V683.693C508.62 684.008 509.444 684.201 509.952 684.274C510.461 684.347 510.909 684.383 511.297 684.383C512.508 684.383 513.392 684.177 513.949 683.765C514.53 683.378 515.014 682.894 515.402 682.312C515.523 682.119 515.959 681.126 516.71 679.333C517.46 677.541 518.005 676.209 518.344 675.337L503.958 635.302H511.369L521.796 666.981L532.295 635.302ZM560.632 669.997C564.967 669.997 567.934 668.362 569.532 665.092C571.155 661.799 571.966 658.141 571.966 654.121C571.966 650.488 571.385 647.533 570.222 645.257C568.382 641.672 565.209 639.88 560.704 639.88C556.708 639.88 553.802 641.406 551.985 644.457C550.169 647.509 549.261 651.19 549.261 655.501C549.261 659.643 550.169 663.094 551.985 665.855C553.802 668.616 556.684 669.997 560.632 669.997ZM560.886 634.176C565.899 634.176 570.138 635.847 573.601 639.19C577.064 642.532 578.796 647.449 578.796 653.939C578.796 660.212 577.27 665.395 574.219 669.488C571.167 673.581 566.432 675.628 560.014 675.628C554.661 675.628 550.411 673.823 547.262 670.215C544.114 666.582 542.54 661.714 542.54 655.61C542.54 649.071 544.199 643.864 547.517 639.989C550.835 636.114 555.291 634.176 560.886 634.176ZM593.146 635.302V661.132C593.146 663.118 593.461 664.741 594.091 666.001C595.253 668.326 597.421 669.488 600.593 669.488C605.147 669.488 608.247 667.454 609.894 663.385C610.79 661.205 611.238 658.214 611.238 654.412V635.302H617.777V674.211H611.601L611.674 668.471C610.826 669.948 609.773 671.196 608.513 672.213C606.019 674.247 602.991 675.264 599.431 675.264C593.885 675.264 590.106 673.412 588.096 669.706C587.006 667.72 586.461 665.068 586.461 661.75V635.302H593.146ZM628.204 635.302H634.416V642.023C634.924 640.716 636.172 639.129 638.158 637.264C640.144 635.375 642.432 634.431 645.024 634.431C645.145 634.431 645.351 634.443 645.642 634.467C645.932 634.491 646.429 634.54 647.131 634.612V641.515C646.744 641.442 646.38 641.394 646.041 641.369C645.726 641.345 645.375 641.333 644.988 641.333C641.694 641.333 639.163 642.399 637.395 644.53C635.627 646.637 634.743 649.071 634.743 651.832V674.211H628.204V635.302Z" fill="#C2C2C2"/>
<path d="M383.747 767.009C381.349 767.809 378.479 768.208 375.137 768.208C368.162 768.208 362.398 766.125 357.844 761.96C352.322 756.946 349.561 749.584 349.561 739.872C349.561 730.087 352.395 722.688 358.062 717.674C362.688 713.581 368.44 711.535 375.319 711.535C382.245 711.535 388.058 713.703 392.757 718.038C398.182 723.051 400.894 730.063 400.894 739.072C400.894 743.844 400.313 747.84 399.15 751.061C398.206 754.137 396.813 756.692 394.973 758.726L401.149 764.503L395.3 770.606L388.833 764.503C386.871 765.689 385.176 766.525 383.747 767.009ZM381.349 757.346L375.936 752.187L381.713 746.156L387.126 751.315C387.973 749.571 388.567 748.046 388.906 746.738C389.438 744.776 389.705 742.487 389.705 739.872C389.705 733.865 388.47 729.227 385.999 725.958C383.553 722.664 379.969 721.017 375.246 721.017C370.814 721.017 367.278 722.591 364.638 725.74C361.998 728.888 360.678 733.599 360.678 739.872C360.678 747.21 362.567 752.466 366.345 755.638C368.791 757.697 371.722 758.726 375.137 758.726C376.421 758.726 377.656 758.569 378.843 758.254C379.496 758.085 380.332 757.782 381.349 757.346ZM432.21 745.721H420.657V766.719H409.722V713.17H435.988C439.742 713.242 442.624 713.703 444.634 714.55C446.669 715.398 448.388 716.645 449.793 718.292C450.956 719.648 451.876 721.15 452.554 722.797C453.232 724.444 453.571 726.321 453.571 728.428C453.571 730.971 452.93 733.478 451.646 735.948C450.362 738.394 448.243 740.126 445.288 741.143C447.759 742.136 449.503 743.553 450.52 745.394C451.561 747.21 452.082 749.995 452.082 753.749V757.346C452.082 759.792 452.179 761.451 452.373 762.323C452.663 763.703 453.341 764.721 454.407 765.375V766.719H442.091C441.752 765.532 441.51 764.575 441.365 763.849C441.074 762.347 440.917 760.809 440.893 759.235L440.82 754.258C440.771 750.843 440.142 748.566 438.931 747.428C437.744 746.29 435.504 745.721 432.21 745.721ZM439.003 735.984C441.232 734.967 442.346 732.957 442.346 729.954C442.346 726.708 441.268 724.529 439.112 723.414C437.901 722.785 436.085 722.47 433.663 722.47H420.657V736.856H433.336C435.855 736.856 437.744 736.566 439.003 735.984ZM517.365 741.325H506.757C506.563 739.847 506.067 738.515 505.268 737.329C504.105 735.73 502.301 734.931 499.855 734.931C496.367 734.931 493.981 736.662 492.698 740.126C492.02 741.967 491.681 744.413 491.681 747.464C491.681 750.371 492.02 752.708 492.698 754.476C493.933 757.77 496.258 759.417 499.673 759.417C502.095 759.417 503.815 758.763 504.832 757.455C505.849 756.147 506.467 754.452 506.685 752.369H517.256C517.014 755.517 515.876 758.496 513.841 761.306C510.596 765.835 505.788 768.099 499.419 768.099C493.049 768.099 488.363 766.21 485.359 762.432C482.356 758.654 480.855 753.749 480.855 747.719C480.855 740.913 482.514 735.621 485.832 731.843C489.15 728.065 493.727 726.175 499.564 726.175C504.529 726.175 508.586 727.29 511.734 729.518C514.907 731.746 516.784 735.682 517.365 741.325ZM557.545 732.133C560.888 736.323 562.559 741.276 562.559 746.992C562.559 752.805 560.888 757.782 557.545 761.923C554.203 766.041 549.129 768.099 542.323 768.099C535.518 768.099 530.444 766.041 527.102 761.923C523.759 757.782 522.088 752.805 522.088 746.992C522.088 741.276 523.759 736.323 527.102 732.133C530.444 727.944 535.518 725.849 542.323 725.849C549.129 725.849 554.203 727.944 557.545 732.133ZM542.287 734.604C539.26 734.604 536.922 735.682 535.276 737.837C533.653 739.968 532.841 743.02 532.841 746.992C532.841 750.964 533.653 754.028 535.276 756.183C536.922 758.339 539.26 759.417 542.287 759.417C545.314 759.417 547.64 758.339 549.262 756.183C550.885 754.028 551.696 750.964 551.696 746.992C551.696 743.02 550.885 739.968 549.262 737.837C547.64 735.682 545.314 734.604 542.287 734.604ZM606.045 713.242V766.719H595.981V761.233C594.504 763.582 592.821 765.29 590.932 766.355C589.043 767.421 586.693 767.954 583.884 767.954C579.258 767.954 575.359 766.089 572.186 762.359C569.037 758.605 567.463 753.798 567.463 747.937C567.463 741.179 569.013 735.863 572.113 731.988C575.238 728.113 579.403 726.175 584.61 726.175C587.008 726.175 589.139 726.708 591.004 727.774C592.869 728.815 594.383 730.269 595.545 732.133V713.242H606.045ZM578.144 747.174C578.144 750.831 578.87 753.749 580.324 755.929C581.753 758.133 583.932 759.235 586.863 759.235C589.793 759.235 592.022 758.145 593.547 755.965C595.073 753.786 595.836 750.964 595.836 747.501C595.836 742.657 594.613 739.193 592.167 737.111C590.665 735.851 588.921 735.221 586.935 735.221C583.908 735.221 581.68 736.372 580.251 738.673C578.846 740.949 578.144 743.783 578.144 747.174ZM649.385 755.093C649.119 757.443 647.896 759.828 645.716 762.25C642.325 766.101 637.578 768.027 631.475 768.027C626.437 768.027 621.993 766.404 618.142 763.158C614.291 759.913 612.366 754.633 612.366 747.319C612.366 740.465 614.098 735.209 617.561 731.552C621.049 727.895 625.565 726.067 631.112 726.067C634.405 726.067 637.372 726.684 640.012 727.919C642.652 729.154 644.832 731.104 646.552 733.768C648.102 736.118 649.107 738.842 649.567 741.942C649.833 743.759 649.942 746.374 649.894 749.789H622.792C622.938 753.761 624.185 756.547 626.534 758.145C627.963 759.138 629.683 759.635 631.693 759.635C633.824 759.635 635.556 759.029 636.888 757.818C637.615 757.164 638.256 756.256 638.813 755.093H649.385ZM639.14 742.96C638.971 740.223 638.135 738.152 636.634 736.747C635.156 735.318 633.316 734.604 631.112 734.604C628.714 734.604 626.849 735.355 625.517 736.856C624.209 738.358 623.386 740.392 623.047 742.96H639.14Z" fill="#C2C2C2"/>
<path fill-rule="evenodd" clip-rule="evenodd" d="M622.317 265.067C622.258 265.077 622.2 265.082 622.141 265.082H378.054C378.005 265.082 377.957 265.079 377.908 265.071C325.967 257.251 227.631 226.908 199.545 203.632C186.816 193.082 179.817 188.082 168.831 162.665C152.817 125.615 156.637 91.1281 178.317 57.0825C196.39 28.7017 223.1 14.0721 251.467 8.30844C289.332 0.614943 317.332 5.61525 346.535 30.9865C376.332 56.1148 394.799 78.0492 401.381 86.5845C401.381 86.5848 401.381 86.5846 401.381 86.5849C401.389 86.5949 431.05 124.968 446.721 151.693C459.114 172.828 474.108 206.035 477.96 214.684C478.318 215.488 479.625 215.536 480.215 214.883C483.143 211.646 490.3 207.193 500.816 207.582C512.66 208.021 518.185 212.533 521.008 215.609C521.504 216.15 522.395 216.043 522.703 215.376C536.756 184.972 555.115 142.135 585.666 101.947C601.586 81.0048 607.832 71.6153 630.274 51.4705C664.541 20.711 690.825 4.94401 728.267 6.11449C775.069 7.57759 811.078 42.7568 821.316 59.5825C831.554 76.4081 839.816 95.0825 840.816 116.082C841.444 129.256 838.816 157.582 816.752 183.883C801.313 202.286 767.836 221.147 767.756 221.192C767.754 221.193 767.758 221.191 767.756 221.192C767.676 221.236 730.777 241.594 693.896 251.917C666.535 259.576 641.32 261.663 622.317 265.067ZM292.419 178.762C314.283 212.146 390.412 222.262 427.007 223.051C427.8 223.068 428.266 222.204 427.851 221.528C413.202 197.652 396.17 157.446 366.816 128.582C351.42 113.443 332.332 107.116 320.832 110.616C316.688 111.591 303.863 114.994 293.332 126.114C280.169 140.013 282.316 162.082 292.419 178.762ZM622.961 142.916C598.59 168.949 584.025 201.814 575.398 221.764C575.088 222.478 575.657 223.255 576.428 223.148C586.414 221.772 636.576 214.814 647.825 212.413C660.334 209.744 672.691 208.727 697.552 191.198C713.316 180.084 717.816 165.582 716.566 153.889C715.816 145.582 711.137 128.987 699.316 120.582C687.553 112.218 672.832 110.115 660.816 114.082C649.816 118.084 637.316 127.582 622.961 142.916Z" fill="#333333"/>
<path d="M371.177 350.08C366.854 360.18 362.095 371.696 363.403 382.922C364.129 389.17 367.944 395.637 374.955 396.036C383.856 396.545 392.575 386.409 398.17 380.633C400.931 377.763 403.51 374.747 405.944 371.587C404.091 377.726 403.001 384.12 404.927 390.333C405.254 391.459 409.141 394.111 409.286 391.858C409.831 383.757 410.594 376.564 413.464 368.862C416.08 361.887 419.277 355.202 421.384 348.046C422.474 344.267 423.164 340.271 418.804 338.491C413.936 336.529 406.598 342.306 402.602 344.413C400.495 345.503 404.927 348.954 406.816 348.082C416.08 343.831 409.177 356.074 407.397 358.944C405.072 362.759 402.493 366.392 399.695 369.879C394.21 376.746 387.089 385.21 379.169 389.279C375.864 390.987 370.051 390.914 369.106 386.736C368.525 384.193 368.561 381.432 368.743 378.889C369.106 373.149 370.777 367.518 372.703 362.105C375.827 353.277 379.751 344.74 384.183 336.493C392.72 320.653 403.583 303.869 417.715 292.426C420.476 290.21 425.089 287.085 428.323 285.414C432.21 283.416 435.153 284.47 435.988 286.032C436.569 287.267 436.896 288.539 436.896 289.883C437.151 291.845 436.969 293.77 436.751 295.732C435.552 306.558 431.992 316.803 427.487 326.648C426.761 328.21 430.357 330.499 431.193 329.009C436.715 318.946 440.675 307.248 441.619 295.768C442.091 289.883 440.675 283.561 434.608 281.273C425.634 277.894 414.917 287.558 409.068 293.152C401.185 300.672 394.464 309.537 388.397 318.546C381.676 328.501 375.936 339.072 371.177 350.08ZM416.77 342.814C416.734 343.468 416.588 344.158 416.407 344.849C415.898 344.34 415.281 343.94 414.627 343.613C415.353 343.287 416.08 343.032 416.77 342.814ZM424.109 368.971C424.508 371.26 425.271 372.459 427.85 372.749C435.48 373.839 443.109 362.323 447.105 355.093C448.34 354.73 447.977 352.369 446.596 352.768C440.602 361.415 434.026 370.097 429.267 369.48C428.904 369.625 427.814 368.79 428.105 366.283C428.831 359.998 431.374 350.552 436.17 345.902C438.059 344.086 431.738 339.981 431.193 342.705C430.393 346.556 422.764 361.415 424.109 368.971ZM433.808 336.82C435.988 335.73 437.478 333.587 439.585 332.351C440.856 331.589 437.95 329.917 437.078 330.208C434.535 331.08 431.229 331.843 429.667 334.277C429.158 335.112 430.393 336.13 430.938 336.493C431.81 337.002 432.864 337.292 433.808 336.82ZM444.525 368.535C451.21 364.139 456.986 360.18 464.615 356.874C466.323 356.111 465.633 354.766 464.434 355.166C458.04 357.237 451.937 360.143 446.051 363.449C447.032 360.833 448.049 358.254 449.139 355.638C456.151 346.847 464.034 333.696 467.013 325.086C467.522 323.669 465.124 322.579 464.107 322.797C458.512 323.996 448.267 345.539 443.218 359.271C442.6 360.87 441.655 363.558 440.566 366.755C439.839 367.191 439.149 367.627 438.459 368.063C437.478 368.717 438.386 369.552 439.439 370.097C436.061 380.451 432.283 393.893 434.571 396.69C440.384 403.738 450.12 388.335 451.464 383.83C453.426 377.218 450.265 370.642 444.525 368.535ZM447.795 381.977C447.214 383.939 446.378 385.61 445.216 387.317C444.416 388.48 439.003 395.673 437.26 394.002C436.46 393.203 439.439 384.447 439.766 383.176C440.929 378.925 442.2 374.747 443.581 370.57C449.939 371.115 448.812 378.489 447.795 381.977ZM525.975 314.732C516.203 312.625 505.486 312.77 495.495 312.479C494.042 312.443 492.553 312.443 491.099 312.407C494.878 306.158 495.895 305.323 498.692 298.747C499.31 297.33 496.004 295.405 495.023 296.495C489.646 302.562 488.52 304.85 484.669 312.334C477.476 312.334 470.283 312.479 463.09 312.806C442.527 313.787 434.68 313.642 423.491 317.529C421.929 317.965 424.435 319.818 425.307 319.709C437.332 318.764 444.562 317.42 465.451 316.403C471.227 316.149 477.04 316.003 482.816 315.931C482.017 317.493 481.254 319.019 480.455 320.508C474.679 331.589 469.411 342.923 464.761 354.512C460.583 364.902 456.877 375.656 455.896 386.845C455.352 393.457 455.461 400.396 462.617 402.83C465.124 403.702 464.652 400.904 462.654 400.396C456.405 398.797 463.308 374.675 464.252 371.514C467.013 362.323 470.791 353.459 474.679 344.703C478.602 335.875 482.889 327.156 487.466 318.655C487.975 317.747 488.484 316.839 488.992 315.931C491.535 315.967 494.078 316.003 496.585 316.04C506.83 316.294 517.256 318.038 527.428 317.602C530.008 317.493 527.029 314.95 525.975 314.732ZM535.276 356.728C531.606 360.543 527.683 364.067 523.36 367.155C518.891 370.352 506.212 378.889 507.12 367.191C507.411 363.05 509.119 357.709 511.88 352.805C515.985 345.575 518.855 343.541 519.872 342.778C524.231 339.436 527.501 344.195 525.721 347.682C525.285 349.208 528.191 350.879 528.591 349.499C530.226 344.086 528.082 338.237 521.434 338.963C511.662 339.981 504.432 353.677 502.87 361.015C500.981 369.698 503.56 376.455 512.388 376.455C519.145 376.455 532.079 363.703 536.874 357.673C537.964 356.292 536.293 355.675 535.276 356.728ZM553.585 362.65C553.331 365.12 553.658 367.554 555.583 369.225C562.886 375.619 570.733 361.051 573.566 356.183C574.111 355.202 572.186 354.367 571.568 355.384C569.498 358.763 564.048 367.482 559.834 366.319C557.872 365.811 558.744 362.614 559.362 360.289C561.251 353.35 564.775 346.883 567.717 340.38C568.589 338.636 563.685 337.619 562.704 339.363C561.614 341.325 560.597 343.25 559.616 345.212C559.761 341.034 557.582 337.401 551.842 338.782C541.924 341.179 532.914 356.474 531.824 365.847C530.916 373.694 538 376.6 543.922 372.059C547.446 369.334 550.643 366.137 553.585 362.65ZM537.564 370.134C533.75 367.118 541.306 355.239 544.031 351.606C550.933 342.415 553.985 342.197 555.184 343.432C556.274 344.522 554.566 348.082 554.021 349.099C553.44 350.08 554.603 352.732 555.947 352.841C555.366 353.713 554.784 354.549 554.13 355.457C551.696 358.835 541.887 373.476 537.564 370.134ZM597.362 339.036C584.356 336.348 579.379 347.392 574.62 357.782C576.327 350.916 578.979 344.34 580.978 339.036C581.413 337.801 577.526 338.709 576.836 339.799C576.836 339.799 567.499 359.598 567.935 370.243C568.008 371.877 571.75 373.222 572.767 371.914C580.505 362.323 582.394 341.107 598.016 341.107C600.159 341.107 598.524 339.254 597.362 339.036ZM635.108 308.629C629.949 317.856 625.372 327.411 621.266 337.147C620.395 339.218 619.377 341.434 618.36 343.759C618.287 343.541 618.178 343.323 618.07 343.105C616.362 340.053 612.947 338.709 609.714 339.581C600.959 341.942 589.878 359.017 594.238 367.918C598.96 377.472 609.351 364.721 613.419 358C612.802 360.942 612.511 363.849 612.838 366.646C613.238 370.315 616.18 372.858 620.358 372.095C627.333 370.824 631.221 362.359 633.437 356.728C633.909 355.566 631.984 355.856 631.402 356.983C630.058 359.635 625.154 369.116 619.704 369.116C609.278 369.08 633.255 321.344 637.687 312.225C638.341 310.845 635.834 307.321 635.108 308.629ZM612.293 350.625C611.567 351.751 611.748 353.495 612.729 353.495C612.257 354.185 607.389 362.941 602.557 365.629C600.595 366.719 599.324 366.973 598.597 366.61C594.819 364.648 602.557 350.153 608.152 345.612C609.133 344.812 611.494 343.032 613.165 343.395C614.073 343.577 614.764 344.34 614.945 346.084C615.127 347.682 612.765 349.862 612.293 350.625Z" fill="white"/>
<path d="M175 341H330C333.866 341 337 344.134 337 348V354C337 357.866 333.866 361 330 361H175V341Z" fill="white"/>
<path d="M663 348C663 344.134 666.134 341 670 341H825V361H670C666.134 361 663 357.866 663 354V348Z" fill="white"/>
</svg>
