<svg width="2000" height="1000" viewBox="0 0 2000 1000" fill="none" xmlns="http://www.w3.org/2000/svg">
<g clip-path="url(#clip0_283_656)">
<rect x="1430" width="140" height="1000" rx="5" fill="#333333"/>
<rect x="2000" y="231.625" width="140" height="2000" rx="5" transform="rotate(90 2000 231.625)" fill="#333333"/>
<mask id="path-3-inside-1_283_656" fill="white">
<path d="M1326.15 302.183C1326.15 302.183 1299.84 526.355 1123.88 642.958L1267.39 664.868L1240.43 841.496C1240.43 841.496 1422.92 652.463 1472.98 324.598L1326.15 302.183"/>
</mask>
<path d="M1326.15 302.183C1326.15 302.183 1299.84 526.355 1123.88 642.958L1267.39 664.868L1240.43 841.496C1240.43 841.496 1422.92 652.463 1472.98 324.598L1326.15 302.183" fill="#333333"/>
<path d="M1123.88 642.958L1121.12 638.79L1110.32 645.946L1123.13 647.901L1123.88 642.958ZM1267.39 664.868L1272.34 665.622L1273.09 660.68L1268.15 659.925L1267.39 664.868ZM1240.43 841.496L1235.49 840.741L1233.11 856.27L1244.03 844.968L1240.43 841.496ZM1472.98 324.598L1477.92 325.353L1478.67 320.41L1473.73 319.655L1472.98 324.598ZM1326.15 302.183C1321.19 301.6 1321.19 301.599 1321.19 301.599C1321.19 301.6 1321.19 301.601 1321.19 301.603C1321.19 301.608 1321.19 301.616 1321.18 301.627C1321.18 301.649 1321.18 301.685 1321.17 301.735C1321.16 301.834 1321.14 301.986 1321.11 302.19C1321.06 302.598 1320.98 303.215 1320.86 304.03C1320.63 305.66 1320.27 308.083 1319.75 311.218C1318.7 317.488 1317 326.604 1314.42 337.918C1309.25 360.553 1300.53 391.956 1286.37 426.969C1258.01 497.048 1207.96 581.243 1121.12 638.79L1126.65 647.126C1215.76 588.07 1266.84 501.877 1295.64 430.72C1310.04 395.115 1318.9 363.186 1324.17 340.145C1326.8 328.621 1328.53 319.312 1329.61 312.868C1330.15 309.645 1330.52 307.138 1330.77 305.427C1330.89 304.572 1330.97 303.916 1331.03 303.469C1331.06 303.246 1331.08 303.074 1331.1 302.957C1331.1 302.898 1331.11 302.852 1331.11 302.821C1331.12 302.805 1331.12 302.792 1331.12 302.783C1331.12 302.778 1331.12 302.774 1331.12 302.772C1331.12 302.768 1331.12 302.766 1326.15 302.183ZM1123.13 647.901L1266.64 669.811L1268.15 659.925L1124.64 638.016L1123.13 647.901ZM1262.45 664.113L1235.49 840.741L1245.37 842.25L1272.34 665.622L1262.45 664.113ZM1240.43 841.496C1244.03 844.968 1244.03 844.966 1244.03 844.964C1244.03 844.962 1244.04 844.958 1244.04 844.955C1244.05 844.947 1244.06 844.937 1244.07 844.923C1244.09 844.897 1244.13 844.859 1244.18 844.809C1244.27 844.71 1244.41 844.565 1244.59 844.374C1244.95 843.992 1245.48 843.427 1246.17 842.68C1247.54 841.186 1249.56 838.964 1252.13 836.027C1257.27 830.153 1264.66 821.418 1273.66 809.919C1291.67 786.923 1316.18 752.865 1342.24 708.53C1394.37 619.866 1452.78 490.042 1477.92 325.353L1468.03 323.843C1443.12 487.02 1385.25 615.644 1333.62 703.462C1307.81 747.368 1283.56 781.061 1265.79 803.754C1256.9 815.099 1249.64 823.694 1244.61 829.438C1242.09 832.311 1240.13 834.47 1238.81 835.905C1238.15 836.623 1237.65 837.159 1237.32 837.512C1237.15 837.689 1237.02 837.82 1236.94 837.905C1236.9 837.948 1236.87 837.979 1236.85 837.999C1236.84 838.008 1236.84 838.015 1236.83 838.019C1236.83 838.021 1236.83 838.022 1236.83 838.023C1236.83 838.023 1236.83 838.023 1240.43 841.496ZM1473.73 319.655L1326.91 297.24L1325.4 307.126L1472.22 329.541L1473.73 319.655Z" fill="white" mask="url(#path-3-inside-1_283_656)"/>
<path d="M1539.31 319.452L1672.96 267.29C1672.96 267.302 1672.97 267.315 1672.97 267.327C1673.58 268.925 1674.48 271.269 1675.71 274.275C1678.15 280.287 1681.86 288.946 1686.93 299.566C1697.06 320.803 1712.63 349.898 1734.39 381.357C1777 442.98 1843.48 513.82 1939.49 552.29L1810.21 602.744L1807.88 603.653L1808.79 605.982L1870.76 764.766C1869.89 764.137 1868.93 763.445 1867.89 762.688C1861.69 758.158 1852.69 751.334 1841.5 742.176C1819.11 723.861 1788 696.216 1753.12 658.931C1683.71 584.736 1599.4 472.391 1539.31 319.452Z" fill="#333333" stroke="white" stroke-width="5"/>
<mask id="path-6-outside-2_283_656" maskUnits="userSpaceOnUse" x="1144.11" y="133.827" width="359.59" height="312.746" fill="black">
<rect fill="white" x="1144.11" y="133.827" width="359.59" height="312.746"/>
<path d="M1482.74 271.877C1489.01 328.484 1431.77 389.877 1356.41 409.458L1296.35 425.098C1221 444.679 1166 424.928 1174.77 382.386C1183.54 339.843 1176.04 272.138 1158.18 232.545C1140.31 192.953 1188.54 161.77 1267.46 164.265L1329.37 165.274C1407.06 166.781 1476.47 215.271 1482.74 271.877"/>
</mask>
<path d="M1482.74 271.877C1489.01 328.484 1431.77 389.877 1356.41 409.458L1296.35 425.098C1221 444.679 1166 424.928 1174.77 382.386C1183.54 339.843 1176.04 272.138 1158.18 232.545C1140.31 192.953 1188.54 161.77 1267.46 164.265L1329.37 165.274C1407.06 166.781 1476.47 215.271 1482.74 271.877" fill="#333333"/>
<path d="M1356.41 409.458L1355.16 404.619L1355.15 404.619L1356.41 409.458ZM1296.35 425.098L1297.61 429.937L1297.61 429.937L1296.35 425.098ZM1267.46 164.265L1267.31 169.263L1267.34 169.264L1267.38 169.264L1267.46 164.265ZM1329.37 165.274L1329.47 160.275L1329.46 160.275L1329.45 160.274L1329.37 165.274ZM1477.77 272.428C1480.7 298.844 1468.83 326.971 1446.51 351.162C1424.24 375.302 1391.94 395.06 1355.16 404.619L1357.67 414.297C1396.24 404.275 1430.24 383.546 1453.86 357.943C1477.44 332.39 1491.06 301.517 1487.71 271.327L1477.77 272.428ZM1355.15 404.619L1295.09 420.259L1297.61 429.937L1357.67 414.297L1355.15 404.619ZM1295.09 420.259C1257.95 429.91 1226.47 429.677 1205.68 422.324C1195.33 418.662 1187.94 413.353 1183.61 406.956C1179.35 400.665 1177.72 392.858 1179.67 383.395L1169.88 381.376C1167.44 393.185 1169.39 403.8 1175.33 412.565C1181.2 421.225 1190.63 427.606 1202.35 431.752C1225.7 440.015 1259.39 439.867 1297.61 429.937L1295.09 420.259ZM1179.67 383.395C1184.19 361.447 1184.48 333.325 1181.43 305.809C1178.39 278.292 1171.95 250.915 1162.74 230.489L1153.62 234.602C1162.27 253.768 1168.52 280.04 1171.49 306.91C1174.47 333.78 1174.12 360.782 1169.88 381.376L1179.67 383.395ZM1162.74 230.489C1158.75 221.657 1158.58 213.674 1161.29 206.614C1164.04 199.445 1169.97 192.673 1179.19 186.85C1197.72 175.154 1228.38 168.032 1267.31 169.263L1267.62 159.268C1227.63 158.003 1194.71 165.225 1173.85 178.395C1163.39 185.006 1155.68 193.297 1151.95 203.032C1148.17 212.876 1148.67 223.638 1153.62 234.602L1162.74 230.489ZM1267.38 169.264L1329.29 170.273L1329.45 160.274L1267.55 159.266L1267.38 169.264ZM1329.27 170.273C1367.15 171.008 1402.96 183.205 1429.98 202.017C1457.07 220.872 1474.85 245.998 1477.77 272.428L1487.71 271.327C1484.37 241.15 1464.31 213.729 1435.7 193.81C1407.02 173.849 1369.28 161.047 1329.47 160.275L1329.27 170.273Z" fill="white" mask="url(#path-6-outside-2_283_656)"/>
<path d="M1194.25 385.857C1189.31 392.021 1196.71 397.943 1199.17 399.917C1206.69 406.949 1226.55 413.739 1259.84 410.051C1269.83 408.945 1279.7 406.728 1290.68 404.389L1350.74 388.749C1393.41 378.405 1429.8 351.905 1447.82 321.821C1447.94 322.931 1257.66 309.174 1194.25 385.857" fill="white"/>
<path d="M1726.92 379.904L1726.92 379.904C1766.1 381.222 1798.45 374.022 1818.85 361.212C1829.08 354.795 1836.44 346.878 1840.02 337.78C1843.62 328.624 1843.28 318.541 1838.57 308.097C1829.78 288.616 1823.48 262.068 1820.49 235.036C1817.49 208.005 1817.83 180.723 1822.14 159.79C1824.45 148.582 1822.66 138.667 1817.23 130.508C1811.84 122.398 1803.02 116.268 1791.71 112.232C1769.13 104.178 1735.99 104.233 1697.51 114.147L1637.34 128.673L1637.33 128.675C1599.12 138.026 1565.54 158.522 1542.27 183.903C1519.02 209.257 1505.88 239.719 1509.11 268.959C1512.35 298.205 1531.82 324.776 1560.03 344.287C1588.28 363.818 1625.52 376.461 1664.89 377.786C1664.89 377.786 1664.89 377.786 1664.89 377.786L1726.92 379.904Z" fill="#333333" stroke="white" stroke-width="5"/>
<path d="M1818.04 316.776C1824.2 321.711 1818.28 329.109 1816.3 331.574C1810.51 340.081 1792.62 351.05 1759.32 354.738C1749.33 355.844 1739.22 355.841 1728 355.96L1665.97 353.842C1622.07 353.086 1580.76 335.19 1556.6 309.777C1556.72 310.887 1739.38 255.828 1818.04 316.776" fill="white"/>
<path d="M1486.46 254.625C1486.46 254.625 1469.31 272.254 1419.62 239.556C1362.66 202.046 1293.58 268.121 1397.41 282.464C1453.4 290.87 1486.46 254.625 1486.46 254.625Z" fill="white"/>
<path d="M1504.2 252.659C1504.2 252.659 1524.79 266.108 1566.12 223.33C1613.49 174.266 1695.36 223.623 1597.19 260.338C1544.4 280.79 1504.2 252.659 1504.2 252.659Z" fill="white"/>
<path d="M1506.36 353.274C1465.19 357.833 1457.81 392.843 1444.98 277.035C1432.16 161.227 1445.91 193.896 1488.19 189.213C1530.48 184.53 1536.75 149.644 1549.58 265.452C1562.4 381.259 1547.53 348.714 1506.36 353.274Z" fill="#333333"/>
<path d="M1505.9 349.1C1472.6 352.788 1467.16 384.849 1455.12 276.076C1442.95 166.193 1454.28 197.521 1488.69 193.71C1523.1 189.899 1527.43 157.961 1539.47 266.734C1551.52 375.507 1539.2 345.412 1505.9 349.1" fill="white"/>
<rect x="359.73" y="411.021" width="622.912" height="612.717" rx="20" transform="rotate(-15 359.73 411.021)" fill="#333333"/>
<rect x="419.5" y="441.365" width="523.16" height="523.16" rx="7.62333" transform="rotate(-15 419.5 441.365)" fill="white"/>
<path d="M795.727 393.717L891.62 368.022L917.315 463.916" stroke="#C2C2C2" stroke-width="18.8641"/>
<path d="M575.168 452.812L479.274 478.507L504.969 574.401" stroke="#C2C2C2" stroke-width="18.8641"/>
<path d="M906.211 806.059L1002.1 780.364L976.41 684.47" stroke="#C2C2C2" stroke-width="18.8641"/>
<path d="M685.652 865.156L589.758 890.851L564.064 794.957" stroke="#C2C2C2" stroke-width="18.8641"/>
<path d="M621.378 617.455L607.96 597.533L605.826 621.622L621.378 617.455ZM602.469 591.105L610.076 589.067L641.404 633.904L634.033 635.878L625.01 622.352L605.367 627.616L603.977 643.932L597.08 645.78L602.469 591.105ZM645.828 613.766C646.867 617.643 648.559 620.668 650.905 622.842C653.251 625.016 656.239 625.617 659.867 624.644C662.685 623.889 664.672 622.064 665.829 619.169C667.002 616.246 666.982 612.519 665.768 607.989C664.542 603.413 662.701 600.283 660.244 598.598C657.782 596.89 655.175 596.405 652.426 597.142C649.36 597.963 647.184 599.802 645.896 602.66C644.631 605.511 644.608 609.214 645.828 613.766ZM649.854 592.142C652.626 591.399 655.105 591.363 657.29 592.034C658.553 592.42 660.098 593.274 661.926 594.596L657.025 576.305L662.874 574.738L676.227 624.573L670.75 626.04L669.4 621.003C668.578 623.615 667.331 625.676 665.658 627.187C663.985 628.698 661.898 629.789 659.396 630.459C655.362 631.541 651.415 630.786 647.557 628.196C643.692 625.584 641.005 621.461 639.495 615.826C638.082 610.552 638.2 605.628 639.849 601.055C641.515 596.454 644.85 593.482 649.854 592.142ZM684.37 603.439C685.409 607.316 687.102 610.341 689.447 612.515C691.793 614.688 694.781 615.289 698.41 614.317C701.227 613.562 703.214 611.737 704.371 608.842C705.545 605.919 705.524 602.192 704.31 597.661C703.084 593.086 701.243 589.956 698.787 588.271C696.324 586.563 693.718 586.078 690.968 586.814C687.903 587.636 685.726 589.475 684.438 592.333C683.173 595.184 683.15 598.886 684.37 603.439ZM688.396 581.814C691.168 581.071 693.647 581.035 695.832 581.706C697.095 582.093 698.64 582.947 700.468 584.269L695.567 565.978L701.416 564.411L714.769 614.245L709.292 615.713L707.942 610.675C707.12 613.287 705.873 615.349 704.2 616.86C702.528 618.371 700.44 619.462 697.939 620.132C693.904 621.213 689.958 620.459 686.099 617.869C682.234 615.257 679.547 611.133 678.037 605.498C676.624 600.224 676.742 595.301 678.392 590.728C680.058 586.126 683.392 583.155 688.396 581.814ZM755.983 564.393L762.711 562.59C762.477 565.141 761.992 570.948 761.256 580.011C760.714 586.824 760.224 592.391 759.787 596.711C758.747 606.894 757.778 613.194 756.879 615.609C755.98 618.024 753.772 619.702 750.256 620.644C749.4 620.874 748.726 621.018 748.234 621.077C747.765 621.131 747.169 621.158 746.444 621.159L744.959 615.614C746.096 615.623 746.911 615.598 747.403 615.539C747.894 615.48 748.32 615.402 748.681 615.305C749.808 615.003 750.579 614.591 750.995 614.069C751.439 613.563 751.769 612.992 751.985 612.354C752.049 612.144 752.207 611.111 752.459 609.256C752.711 607.401 752.886 606.025 752.984 605.129L729.612 571.459L736.509 569.611L754.112 596.492L755.983 564.393ZM791.006 589.614C795.04 588.533 797.394 586.272 798.066 582.831C798.755 579.361 798.598 575.755 797.596 572.013C796.69 568.632 795.412 566.028 793.762 564.199C791.155 561.322 787.756 560.445 783.564 561.569C779.845 562.565 777.52 564.71 776.591 568.003C775.661 571.296 775.734 574.948 776.809 578.96C777.842 582.814 779.548 585.8 781.927 587.916C784.306 590.033 787.332 590.599 791.006 589.614ZM782.31 556.215C786.976 554.965 791.337 555.463 795.394 557.71C799.45 559.957 802.288 564.101 803.906 570.141C805.471 575.979 805.343 581.183 803.524 585.753C801.704 590.323 797.808 593.408 791.835 595.009C786.854 596.343 782.449 595.724 778.619 593.151C774.783 590.555 772.104 586.417 770.582 580.737C768.951 574.652 769.196 569.392 771.318 564.958C773.44 560.525 777.104 557.61 782.31 556.215ZM812.614 549.219L819.055 573.257C819.55 575.105 820.247 576.537 821.148 577.552C822.809 579.426 825.116 579.967 828.069 579.176C832.306 578.041 834.684 575.374 835.202 571.177C835.493 568.925 835.164 566.03 834.216 562.491L829.45 544.707L835.536 543.077L845.238 579.286L839.491 580.826L838.127 575.466C837.707 577.053 837.037 578.476 836.119 579.737C834.305 582.252 831.741 583.954 828.428 584.842C823.266 586.225 819.288 585.442 816.493 582.495C814.984 580.919 813.815 578.587 812.988 575.499L806.393 550.886L812.614 549.219ZM845.239 540.477L851.021 538.928L852.697 545.182C852.844 543.838 853.609 542.051 854.992 539.82C856.369 537.567 858.264 536.117 860.675 535.471C860.788 535.441 860.983 535.401 861.259 535.351C861.536 535.301 862.01 535.222 862.682 535.115L864.403 541.538C864.024 541.567 863.674 541.613 863.352 541.675C863.053 541.731 862.724 541.807 862.363 541.904C859.298 542.725 857.208 544.348 856.094 546.772C854.974 549.174 854.758 551.66 855.447 554.229L861.027 575.056L854.942 576.686L845.239 540.477Z" fill="#C2C2C2"/>
<path d="M650.586 724.004C648.554 725.345 645.982 726.433 642.872 727.266C636.381 729.006 630.497 728.505 625.221 725.763C618.832 722.475 614.426 716.311 612.004 707.273C609.564 698.167 610.356 690.575 614.381 684.496C617.665 679.533 622.508 676.194 628.909 674.479C635.355 672.752 641.305 673.319 646.759 676.182C653.058 679.495 657.331 685.344 659.577 693.729C660.767 698.169 661.223 702.033 660.944 705.32C660.832 708.418 660.173 711.144 658.967 713.496L666.155 717.331L662.234 724.47L654.694 720.403C653.164 721.996 651.795 723.197 650.586 724.004ZM645.945 715.608L639.621 712.157L643.493 705.105L649.816 708.556C650.171 706.721 650.342 705.153 650.332 703.852C650.338 701.893 650.016 699.697 649.363 697.263C647.866 691.673 645.559 687.665 642.445 685.238C639.347 682.782 635.601 682.144 631.206 683.321C627.081 684.426 624.183 686.773 622.511 690.362C620.839 693.95 620.786 698.663 622.35 704.501C624.18 711.33 627.248 715.75 631.556 717.761C634.346 719.067 637.33 719.294 640.508 718.442C641.702 718.122 642.812 717.668 643.838 717.079C644.405 716.758 645.107 716.268 645.945 715.608ZM690.378 692.107L679.627 694.987L684.863 714.529L674.687 717.256L661.334 667.421L685.778 660.872C689.289 660.003 692.086 659.713 694.168 660C696.273 660.282 698.184 661.014 699.902 662.196C701.322 663.169 702.553 664.337 703.595 665.7C704.637 667.064 705.421 668.726 705.946 670.687C706.58 673.053 706.608 675.546 706.029 678.165C705.445 680.762 703.904 682.902 701.408 684.585C703.955 684.894 705.931 685.777 707.337 687.237C708.759 688.667 709.938 691.13 710.874 694.623L711.771 697.97C712.381 700.247 712.885 701.767 713.282 702.53C713.897 703.742 714.782 704.519 715.937 704.862L716.272 706.113L704.811 709.184C704.199 708.164 703.735 707.334 703.419 706.695C702.774 705.37 702.244 703.978 701.829 702.519L700.52 697.905C699.623 694.739 698.47 692.777 697.059 692.02C695.671 691.256 693.444 691.285 690.378 692.107ZM694.273 681.352C696.093 679.85 696.628 677.701 695.879 674.906C695.07 671.886 693.524 670.126 691.24 669.627C689.956 669.343 688.187 669.503 685.933 670.107L673.829 673.35L677.417 686.738L689.216 683.576C691.56 682.948 693.246 682.207 694.273 681.352ZM768.531 666.781L758.658 669.427C758.11 668.1 757.315 666.984 756.276 666.079C754.795 664.881 752.917 664.587 750.64 665.197C747.395 666.067 745.606 668.273 745.275 671.817C745.103 673.699 745.398 676.06 746.159 678.9C746.883 681.604 747.782 683.695 748.854 685.171C750.825 687.929 753.399 688.882 756.577 688.03C758.831 687.426 760.268 686.389 760.889 684.918C761.509 683.447 761.661 681.715 761.345 679.723L771.183 677.086C771.743 680.077 771.426 683.133 770.234 686.255C768.343 691.279 764.433 694.585 758.506 696.174C752.578 697.762 747.745 697.173 744.008 694.405C740.271 691.638 737.651 687.448 736.147 681.836C734.45 675.502 734.674 670.164 736.82 665.82C738.966 661.477 742.755 658.577 748.187 657.122C752.807 655.884 756.86 655.909 760.346 657.197C763.854 658.48 766.582 661.675 768.531 666.781ZM803.631 648.208C807.787 651.274 810.577 655.467 812.002 660.786C813.452 666.195 813.138 671.244 811.06 675.932C808.976 680.597 804.768 683.778 798.434 685.475C792.1 687.172 786.865 686.521 782.728 683.523C778.585 680.502 775.788 676.287 774.339 670.878C772.914 665.558 773.234 660.532 775.299 655.8C777.365 651.067 781.565 647.852 787.898 646.155C794.232 644.458 799.476 645.142 803.631 648.208ZM790.048 654.312C787.23 655.067 785.324 656.653 784.329 659.069C783.35 661.458 783.356 664.5 784.346 668.196C785.337 671.893 786.856 674.542 788.904 676.143C790.974 677.738 793.418 678.159 796.235 677.404C799.052 676.649 800.947 675.066 801.92 672.655C802.893 670.245 802.884 667.191 801.893 663.495C800.903 659.798 799.387 657.161 797.345 655.582C795.298 653.98 792.865 653.557 790.048 654.312ZM844.056 618.534L857.391 668.301L848.026 670.81L846.658 665.705C845.869 668.259 844.728 670.268 843.236 671.731C841.743 673.194 839.69 674.275 837.075 674.976C832.77 676.13 828.676 675.366 824.794 672.687C820.927 669.978 818.264 665.897 816.802 660.442C815.117 654.154 815.234 648.82 817.153 644.44C819.094 640.055 822.488 637.213 827.333 635.914C829.565 635.317 831.681 635.281 833.682 635.808C835.678 636.312 837.449 637.287 838.996 638.732L834.285 621.152L844.056 618.534ZM826.552 657.069C827.464 660.472 828.868 663.007 830.763 664.673C832.643 666.368 834.946 666.85 837.673 666.119C840.401 665.388 842.203 663.818 843.079 661.409C843.955 659 843.962 656.184 843.098 652.961C841.89 648.453 839.888 645.535 837.093 644.207C835.381 643.409 833.601 643.258 831.753 643.753C828.936 644.508 827.149 646.134 826.393 648.632C825.653 651.101 825.706 653.913 826.552 657.069ZM894.826 646.674C895.164 648.927 894.621 651.452 893.196 654.249C891.001 658.679 887.063 661.654 881.383 663.176C876.695 664.432 872.154 664.031 867.761 661.971C863.368 659.911 860.26 655.477 858.436 648.67C856.727 642.292 857.028 636.969 859.339 632.702C861.673 628.429 865.42 625.6 870.582 624.217C873.647 623.396 876.562 623.231 879.327 623.722C882.092 624.213 884.607 625.484 886.871 627.535C888.9 629.335 890.514 631.62 891.716 634.39C892.417 636.014 893.17 638.421 893.977 641.611L868.755 648.369C869.881 652.029 871.736 654.31 874.321 655.212C875.899 655.78 877.623 655.813 879.493 655.312C881.477 654.781 882.937 653.785 883.875 652.326C884.388 651.536 884.759 650.531 884.988 649.31L894.826 646.674ZM882.266 637.937C881.426 635.432 880.132 633.713 878.384 632.78C876.653 631.819 874.762 631.613 872.711 632.163C870.479 632.76 868.931 633.924 868.066 635.654C867.223 637.377 866.964 639.476 867.289 641.95L882.266 637.937Z" fill="#C2C2C2"/>
<circle cx="943" cy="276" r="15" fill="white"/>
<path d="M738.088 964.347C734.993 964.291 732.628 963.84 730.992 962.994C729.365 962.134 728.315 960.819 727.841 959.051C727.305 957.05 727.659 955.184 728.904 953.454C730.157 951.709 732.063 950.494 734.623 949.808C736.368 949.34 738.011 949.262 739.553 949.572C741.107 949.879 742.415 950.526 743.477 951.513C744.551 952.497 745.277 953.693 745.654 955.1L742.286 956.003C741.875 954.467 741.064 953.394 739.853 952.783C738.638 952.161 737.141 952.088 735.361 952.565C733.709 953.008 732.516 953.72 731.782 954.703C731.056 955.67 730.866 956.8 731.212 958.091C731.49 959.127 732.161 959.888 733.227 960.375C734.301 960.848 735.971 961.099 738.236 961.128C740.512 961.154 742.34 961.369 743.72 961.772C745.108 962.161 746.215 962.756 747.041 963.557C747.878 964.355 748.47 965.4 748.816 966.691C749.368 968.75 749.008 970.617 747.736 972.292C746.461 973.956 744.48 975.148 741.792 975.868C740.047 976.335 738.33 976.44 736.639 976.182C734.946 975.913 733.531 975.307 732.393 974.365C731.267 973.42 730.506 972.208 730.11 970.731L733.478 969.828C733.89 971.364 734.78 972.429 736.148 973.022C737.525 973.601 739.162 973.636 741.058 973.128C742.826 972.654 744.085 971.93 744.834 970.956C745.583 969.983 745.791 968.873 745.458 967.629C745.124 966.384 744.431 965.541 743.377 965.1C742.321 964.647 740.558 964.396 738.088 964.347ZM761.312 967.813C762.463 967.505 763.376 966.886 764.05 965.957C764.724 965.029 764.967 964.028 764.78 962.956L767.834 962.138C768.065 963.235 767.969 964.365 767.544 965.526C767.12 966.687 766.41 967.713 765.414 968.603C764.429 969.49 763.297 970.105 762.018 970.448C759.447 971.137 757.17 970.831 755.188 969.529C753.214 968.212 751.828 966.065 751.03 963.087L750.885 962.546C750.392 960.708 750.292 958.983 750.583 957.371C750.875 955.759 751.542 954.389 752.587 953.262C753.643 952.131 755.032 951.335 756.754 950.873C758.871 950.306 760.798 950.469 762.534 951.363C764.281 952.254 765.473 953.699 766.108 955.699L763.054 956.517C762.634 955.32 761.9 954.444 760.854 953.889C759.816 953.32 758.686 953.198 757.465 953.526C755.824 953.965 754.709 954.9 754.12 956.33C753.539 957.745 753.548 959.569 754.146 961.803L754.31 962.414C754.893 964.589 755.79 966.144 757 967.079C758.211 968.014 759.648 968.259 761.312 967.813ZM784.715 963.993C784.429 963.67 784.1 963.047 783.728 962.125C782.645 964.086 781.062 965.345 778.98 965.903C777.118 966.402 775.448 966.288 773.969 965.562C772.499 964.822 771.547 963.643 771.114 962.026C770.587 960.06 770.923 958.336 772.123 956.855C773.33 955.359 775.29 954.248 778 953.522L781.141 952.68L780.744 951.197C780.442 950.069 779.864 949.263 779.012 948.781C778.156 948.287 777.071 948.216 775.756 948.568C774.605 948.877 773.717 949.426 773.093 950.217C772.47 951.008 772.269 951.816 772.49 952.642L769.244 953.512C768.992 952.569 769.08 951.573 769.509 950.523C769.947 949.458 770.668 948.517 771.671 947.699C772.685 946.879 773.879 946.285 775.252 945.917C777.427 945.334 779.278 945.424 780.804 946.187C782.327 946.939 783.368 948.262 783.926 950.158L786.254 958.848C786.719 960.581 787.309 961.901 788.026 962.806L788.1 963.085L784.715 963.993ZM778.698 962.967C779.71 962.696 780.6 962.177 781.367 961.411C782.134 960.644 782.609 959.787 782.792 958.841L781.754 954.966L779.224 955.644C775.268 956.704 773.601 958.392 774.221 960.707C774.492 961.719 775.041 962.42 775.869 962.809C776.696 963.198 777.64 963.251 778.698 962.967ZM790.493 942.207L791.233 944.552C792.189 942.351 793.831 940.938 796.158 940.315C800.148 939.246 802.764 940.958 804.005 945.45L807.349 957.928L804.12 958.793L800.772 946.298C800.396 944.94 799.812 944.018 799.021 943.532C798.241 943.042 797.206 942.971 795.915 943.317C794.868 943.597 794.023 944.123 793.382 944.893C792.74 945.663 792.32 946.562 792.121 947.587L795.726 961.042L792.498 961.907L787.439 943.025L790.493 942.207ZM819.178 929.62L820.403 934.192L823.928 933.248L824.597 935.743L821.072 936.688L824.209 948.397C824.412 949.154 824.722 949.682 825.139 949.981C825.553 950.269 826.138 950.312 826.894 950.11C827.266 950.01 827.759 949.803 828.374 949.489L829.075 952.106C828.288 952.567 827.493 952.904 826.69 953.119C825.248 953.506 824.043 953.361 823.076 952.685C822.11 952.009 821.411 950.868 820.981 949.262L817.843 937.553L814.406 938.474L813.737 935.979L817.175 935.057L815.95 930.485L819.178 929.62ZM828.994 941.822C828.498 939.972 828.413 938.212 828.739 936.541C829.076 934.868 829.782 933.456 830.859 932.307C831.946 931.156 833.322 930.357 834.986 929.911C837.557 929.222 839.872 929.556 841.931 930.912C844.002 932.265 845.433 934.419 846.225 937.374L846.286 937.6C846.778 939.439 846.866 941.186 846.549 942.842C846.241 944.483 845.539 945.887 844.442 947.053C843.357 948.217 841.966 949.026 840.267 949.481C837.708 950.167 835.393 949.834 833.322 948.481C831.263 947.125 829.84 944.981 829.055 942.049L828.994 941.822ZM832.343 941.336C832.904 943.431 833.837 944.982 835.142 945.992C836.459 946.998 837.932 947.283 839.561 946.846C841.201 946.407 842.333 945.418 842.956 943.879C843.575 942.329 843.575 940.397 842.955 938.081C842.4 936.011 841.456 934.468 840.125 933.453C838.801 932.424 837.325 932.127 835.697 932.563C834.103 932.991 832.987 933.969 832.35 935.499C831.712 937.029 831.71 938.975 832.343 941.336ZM858.333 933.979C857.545 931.036 857.599 928.515 858.495 926.417C859.389 924.307 860.958 922.952 863.204 922.35C865.507 921.733 867.523 922.066 869.251 923.348L868.847 921.212L871.796 920.422L876.734 938.85C877.388 941.293 877.177 943.413 876.1 945.211C875.035 947.005 873.28 948.229 870.837 948.884C869.476 949.249 868.066 949.315 866.607 949.082C865.148 948.85 863.94 948.319 862.983 947.491L864.139 945.105C865.981 946.444 867.903 946.846 869.904 946.31C871.475 945.889 872.578 945.119 873.214 944.001C873.861 942.88 873.969 941.517 873.539 939.912L873.104 938.289C872.212 940.124 870.649 941.341 868.415 941.939C866.205 942.531 864.175 942.121 862.325 940.709C860.487 939.294 859.156 937.051 858.333 933.979ZM861.677 933.476C862.248 935.605 863.133 937.164 864.333 938.151C865.53 939.127 866.913 939.405 868.484 938.984C870.52 938.439 871.767 937.113 872.225 935.008L869.915 926.387C868.443 924.849 866.718 924.345 864.741 924.875C863.17 925.296 862.106 926.235 861.549 927.694C860.993 929.152 861.035 931.08 861.677 933.476ZM889.67 936.244C887.111 936.93 884.804 936.65 882.75 935.405C880.692 934.148 879.286 932.112 878.532 929.297L878.373 928.703C877.871 926.83 877.778 925.066 878.095 923.41C878.421 921.739 879.113 920.319 880.171 919.15C881.238 917.967 882.522 917.174 884.023 916.772C886.477 916.114 888.602 916.411 890.396 917.664C892.191 918.916 893.492 921.049 894.299 924.062L894.659 925.406L881.868 928.833C882.413 930.682 883.358 932.044 884.702 932.918C886.054 933.778 887.533 933.992 889.139 933.562C890.279 933.257 891.182 932.765 891.849 932.088C892.515 931.41 893.042 930.608 893.43 929.682L895.813 930.689C894.882 933.544 892.835 935.396 889.67 936.244ZM884.733 919.424C883.43 919.773 882.465 920.543 881.836 921.734C881.204 922.913 881.013 924.386 881.262 926.152L890.72 923.618L890.655 923.374C890.122 921.758 889.34 920.609 888.309 919.925C887.275 919.229 886.083 919.063 884.733 919.424ZM898.789 908.289L900.014 912.861L903.539 911.916L904.208 914.412L900.682 915.356L903.82 927.066C904.023 927.822 904.332 928.35 904.749 928.65C905.163 928.938 905.748 928.981 906.505 928.778C906.877 928.678 907.37 928.471 907.984 928.157L908.685 930.775C907.899 931.235 907.104 931.573 906.301 931.788C904.858 932.174 903.654 932.029 902.687 931.353C901.72 930.677 901.022 929.536 900.592 927.931L897.454 916.221L894.016 917.143L893.348 914.647L896.785 913.726L895.56 909.154L898.789 908.289ZM926.16 921.024L926.766 905.693L930.221 904.767L928.47 928.597C928.137 932.053 926.691 934.124 924.131 934.81L923.506 934.921L922.241 935.017L921.54 932.399L922.431 932.235C923.525 931.942 924.315 931.493 924.801 930.889C925.3 930.282 925.589 929.338 925.67 928.057L925.871 925.945L914.132 909.078L917.657 908.133L926.16 921.024ZM934.467 913.561C933.971 911.711 933.886 909.951 934.211 908.28C934.548 906.606 935.255 905.195 936.331 904.046C937.419 902.894 938.795 902.095 940.459 901.65C943.03 900.961 945.345 901.294 947.404 902.65C949.475 904.003 950.906 906.157 951.698 909.112L951.759 909.339C952.251 911.177 952.339 912.924 952.022 914.58C951.714 916.222 951.011 917.626 949.915 918.792C948.83 919.956 947.438 920.765 945.74 921.22C943.18 921.906 940.865 921.572 938.794 920.219C936.735 918.863 935.313 916.72 934.527 913.788L934.467 913.561ZM937.815 913.075C938.376 915.169 939.31 916.721 940.615 917.73C941.932 918.737 943.405 919.021 945.034 918.585C946.674 918.145 947.806 917.156 948.428 915.618C949.048 914.068 949.048 912.135 948.427 909.82C947.872 907.749 946.929 906.207 945.597 905.192C944.274 904.162 942.798 903.866 941.169 904.302C939.575 904.729 938.46 905.708 937.822 907.238C937.185 908.768 937.183 910.713 937.815 913.075ZM969.437 912.495C968.577 914.309 966.931 915.542 964.499 916.193C962.487 916.733 960.795 916.563 959.425 915.683C958.063 914.788 957.069 913.197 956.443 910.908L953.152 898.623L956.38 897.758L959.648 909.956C960.415 912.818 961.962 913.937 964.289 913.313C966.755 912.653 968.149 911.294 968.471 909.238L964.791 895.504L968.02 894.639L973.079 913.521L970.008 914.343L969.437 912.495ZM982.844 893.771C982.333 893.821 981.793 893.922 981.223 894.075C979.106 894.642 977.91 895.929 977.637 897.935L981.228 911.337L978 912.202L972.941 893.32L976.082 892.478L976.719 894.646C977.325 892.675 978.6 891.43 980.543 890.909C981.171 890.741 981.67 890.694 982.039 890.77L982.844 893.771ZM995.636 897.189C994.848 894.246 994.902 891.725 995.798 889.627C996.692 887.517 998.261 886.161 1000.51 885.56C1002.81 884.943 1004.83 885.275 1006.55 886.558L1006.15 884.422L1009.1 883.632L1014.04 902.06C1014.69 904.503 1014.48 906.623 1013.4 908.42C1012.34 910.215 1010.58 911.439 1008.14 912.094C1006.78 912.458 1005.37 912.524 1003.91 912.292C1002.45 912.059 1001.24 911.529 1000.29 910.701L1001.44 908.315C1003.28 909.654 1005.21 910.056 1007.21 909.519C1008.78 909.099 1009.88 908.329 1010.52 907.211C1011.16 906.09 1011.27 904.727 1010.84 903.121L1010.41 901.498C1009.51 903.334 1007.95 904.55 1005.72 905.149C1003.51 905.741 1001.48 905.331 999.628 903.919C997.79 902.504 996.459 900.261 995.636 897.189ZM998.98 896.686C999.551 898.815 1000.44 900.373 1001.64 901.361C1002.83 902.337 1004.22 902.615 1005.79 902.194C1007.82 901.649 1009.07 900.323 1009.53 898.218L1007.22 889.597C1005.75 888.059 1004.02 887.555 1002.04 888.084C1000.47 888.505 999.409 889.445 998.852 890.903C998.296 892.362 998.338 894.289 998.98 896.686ZM1022.55 900.264L1019.32 901.129L1014.26 882.248L1017.49 881.382L1022.55 900.264ZM1012.66 877.309C1012.52 876.786 1012.56 876.302 1012.78 875.857C1013.01 875.409 1013.43 875.101 1014.06 874.932C1014.69 874.764 1015.22 874.817 1015.64 875.09C1016.06 875.363 1016.34 875.762 1016.48 876.285C1016.62 876.809 1016.58 877.289 1016.34 877.725C1016.11 878.161 1015.68 878.464 1015.05 878.632C1014.43 878.8 1013.9 878.754 1013.48 878.492C1013.07 878.227 1012.8 877.833 1012.66 877.309ZM1029.32 898.45L1024.93 882.064L1021.95 882.863L1021.28 880.368L1024.26 879.568L1023.74 877.631C1023.2 875.607 1023.32 873.897 1024.11 872.502C1024.9 871.107 1026.28 870.144 1028.25 869.614C1029 869.415 1029.76 869.316 1030.55 869.317L1031.08 871.982C1030.5 872.023 1029.91 872.127 1029.29 872.292C1028.24 872.573 1027.52 873.098 1027.11 873.867C1026.7 874.625 1026.65 875.574 1026.96 876.714L1027.49 878.703L1031.52 877.623L1032.19 880.119L1028.16 881.199L1032.55 897.585L1029.32 898.45ZM1038.26 870.919L1039.48 875.491L1043.01 874.546L1043.67 877.042L1040.15 877.986L1043.29 889.696C1043.49 890.452 1043.8 890.98 1044.22 891.28C1044.63 891.568 1045.22 891.611 1045.97 891.408C1046.34 891.308 1046.84 891.101 1047.45 890.787L1048.15 893.405C1047.37 893.865 1046.57 894.203 1045.77 894.418C1044.33 894.804 1043.12 894.659 1042.15 893.983C1041.19 893.307 1040.49 892.166 1040.06 890.561L1036.92 878.851L1033.48 879.772L1032.81 877.277L1036.25 876.356L1035.03 871.784L1038.26 870.919ZM1067.68 885.723C1068.83 885.414 1069.74 884.795 1070.42 883.867C1071.09 882.938 1071.33 881.938 1071.15 880.866L1074.2 880.047C1074.43 881.145 1074.34 882.274 1073.91 883.435C1073.49 884.596 1072.78 885.622 1071.78 886.513C1070.8 887.4 1069.66 888.015 1068.38 888.358C1065.81 889.047 1063.54 888.74 1061.55 887.438C1059.58 886.122 1058.19 883.974 1057.4 880.996L1057.25 880.455C1056.76 878.617 1056.66 876.892 1056.95 875.28C1057.24 873.668 1057.91 872.299 1058.95 871.171C1060.01 870.04 1061.4 869.244 1063.12 868.783C1065.24 868.215 1067.16 868.379 1068.9 869.273C1070.65 870.163 1071.84 871.609 1072.47 873.608L1069.42 874.426C1069 873.23 1068.27 872.354 1067.22 871.799C1066.18 871.229 1065.05 871.108 1063.83 871.435C1062.19 871.875 1061.08 872.809 1060.49 874.239C1059.91 875.654 1059.91 877.478 1060.51 879.712L1060.68 880.323C1061.26 882.499 1062.16 884.054 1063.37 884.989C1064.58 885.924 1066.01 886.168 1067.68 885.723ZM1091.08 881.902C1090.8 881.579 1090.47 880.957 1090.09 880.034C1089.01 881.995 1087.43 883.255 1085.35 883.813C1083.48 884.311 1081.81 884.198 1080.34 883.472C1078.87 882.731 1077.91 881.552 1077.48 879.935C1076.95 877.969 1077.29 876.245 1078.49 874.764C1079.7 873.269 1081.66 872.158 1084.37 871.431L1087.51 870.59L1087.11 869.106C1086.81 867.978 1086.23 867.173 1085.38 866.69C1084.52 866.196 1083.44 866.125 1082.12 866.478C1080.97 866.786 1080.08 867.336 1079.46 868.126C1078.84 868.917 1078.64 869.725 1078.86 870.551L1075.61 871.421C1075.36 870.479 1075.45 869.482 1075.88 868.432C1076.31 867.367 1077.03 866.426 1078.04 865.609C1079.05 864.788 1080.25 864.194 1081.62 863.826C1083.79 863.243 1085.64 863.333 1087.17 864.096C1088.69 864.848 1089.73 866.171 1090.29 868.067L1092.62 876.757C1093.09 878.491 1093.68 879.81 1094.39 880.716L1094.47 880.995L1091.08 881.902ZM1085.06 880.877C1086.08 880.606 1086.97 880.087 1087.73 879.32C1088.5 878.553 1088.98 877.697 1089.16 876.75L1088.12 872.876L1085.59 873.554C1081.63 874.614 1079.97 876.301 1080.59 878.616C1080.86 879.628 1081.41 880.329 1082.24 880.718C1083.06 881.108 1084.01 881.161 1085.06 880.877ZM1103.71 861.386C1103.2 861.435 1102.66 861.537 1102.09 861.689C1099.97 862.257 1098.77 863.543 1098.5 865.549L1102.09 878.951L1098.86 879.816L1093.81 860.935L1096.95 860.093L1097.58 862.26C1098.19 860.29 1099.46 859.044 1101.41 858.524C1102.04 858.355 1102.53 858.309 1102.9 858.384L1103.71 861.386ZM1107.27 867.277C1106.49 864.38 1106.56 861.87 1107.46 859.745C1108.36 857.609 1109.92 856.243 1112.14 855.648C1114.35 855.056 1116.3 855.343 1118 856.509L1115.36 846.667L1118.59 845.802L1125.77 872.606L1122.81 873.401L1122.11 871.419C1121.24 873.347 1119.65 874.62 1117.35 875.237C1115.16 875.823 1113.14 875.406 1111.27 873.985C1109.42 872.561 1108.11 870.407 1107.33 867.522L1107.27 867.277ZM1110.6 866.779C1111.17 868.919 1112.06 870.476 1113.27 871.449C1114.48 872.422 1115.86 872.7 1117.42 872.282C1119.47 871.733 1120.72 870.414 1121.17 868.323L1118.84 859.65C1117.4 858.129 1115.68 857.636 1113.68 858.173C1112.09 858.596 1111.02 859.538 1110.47 860.996C1109.91 862.455 1109.95 864.382 1110.6 866.779Z" fill="black"/>
<path d="M105.067 654.056C107.612 675.314 110.802 699.389 123.948 717.061C131.263 726.899 144.002 734.096 156.225 727.938C171.743 720.124 176.582 694.521 180.396 679.32C182.259 671.785 183.675 664.183 184.703 656.477C187.559 668.644 191.95 680.498 201.253 689.106C202.902 690.689 212.047 691.377 210.097 687.434C203.123 673.229 197.401 660.346 194.74 644.55C192.358 630.229 191.24 615.831 187.822 601.699C185.98 594.26 183.251 586.843 174.159 588.087C164.031 589.519 157.274 606.419 152.582 613.87C150.088 617.762 160.932 619.268 163.27 615.956C174.764 599.755 175.044 627.144 174.836 633.723C174.629 642.427 173.816 651.072 172.493 659.684C169.925 676.618 166.155 697.843 156.754 712.427C152.838 718.53 142.956 724.072 137.291 717.941C133.832 714.215 131.203 709.52 129.032 705.051C124.051 695.009 121.385 683.877 119.36 672.865C116.031 654.921 114.334 636.688 113.778 618.451C112.753 583.398 114.731 544.486 127.432 511.401C129.932 504.97 134.675 495.201 138.503 489.23C143.117 482.07 149.11 480.981 152.043 482.803C154.227 484.321 156.018 486.149 157.328 488.417C159.669 491.481 161.239 494.907 162.782 498.431C171.308 517.871 175.282 538.631 177.273 559.637C177.569 562.982 185.869 563.34 185.828 560.012C185.342 537.647 180.626 514.044 171.034 493.748C166.096 483.355 157.545 474.067 145.075 476.116C126.638 479.157 117.967 505.91 113.547 521.052C107.569 541.427 104.863 562.937 103.403 584.055C101.759 607.404 102.373 630.84 105.067 654.056ZM174.938 597.366C175.514 598.505 175.941 599.811 176.307 601.153C174.953 600.79 173.521 600.718 172.099 600.803C173.007 599.543 173.985 598.406 174.938 597.366ZM212.812 634.362C215.716 637.835 218.172 639.115 222.809 637.092C236.747 631.498 238.401 604.627 238.101 588.531C239.832 586.714 236.918 583.083 234.977 585.102C233.286 605.536 230.648 626.598 222.014 630.193C221.543 630.793 218.889 630.444 216.937 625.93C212.039 614.615 207.127 596.195 210.689 583.674C212.108 578.767 197.438 577.998 199.174 583.128C201.577 590.406 203.18 622.918 212.812 634.362ZM197.854 570.646C200.47 566.682 200.896 561.613 203.248 557.475C204.651 554.949 198.117 554.96 196.929 556.3C193.487 560.25 188.65 564.759 188.386 570.389C188.341 572.295 191.417 572.808 192.691 572.891C194.658 572.899 196.72 572.363 197.854 570.646ZM246.846 613.731C253.845 599.798 259.735 587.486 269.39 574.472C271.528 571.521 269.054 569.925 267.42 571.767C258.646 581.493 251.177 592.345 244.465 603.66C243.572 598.289 242.775 592.945 242.066 587.468C245.333 565.798 245.823 535.92 242.461 518.485C241.939 515.598 236.83 516.095 235.326 517.454C227.052 524.929 230.753 571.272 235.612 599.37C236.127 602.67 237.152 608.127 238.428 614.585C237.627 616.029 236.886 617.437 236.146 618.846C235.128 620.905 237.475 621.43 239.784 621.323C244.171 642.091 250.892 668.459 257.481 670.95C274.159 677.181 275.582 641.696 273.461 632.783C270.329 619.712 258.587 611.694 246.846 613.731ZM265.463 633.231C266.393 637.109 266.611 640.744 266.313 644.758C266.097 647.499 263.97 664.914 259.399 663.793C257.271 663.223 253.767 645.543 253.08 643.078C250.9 634.772 248.975 626.481 247.234 618.085C258.496 612.81 263.781 626.354 265.463 633.231ZM331.887 443.555C313.34 449.522 295.394 460.21 278.249 469.455C275.761 470.809 273.247 472.261 270.759 473.615C271.047 459.388 271.949 456.986 270.263 443.162C269.925 440.169 262.469 440.141 261.875 442.936C258.713 458.415 259.042 463.375 259.835 479.759C247.695 486.768 235.696 494.023 223.874 501.584C190.125 523.276 176.74 530.677 161.642 548.141C159.431 550.399 165.467 551.084 166.832 550.05C186.207 536.738 197.099 527.425 231.364 505.353C240.865 499.295 250.534 493.386 260.213 487.634C260.386 491.05 260.585 494.368 260.688 497.661C261.736 521.991 263.89 546.254 267.334 570.345C270.407 591.952 274.632 613.713 283.88 633.553C289.403 645.244 296.348 656.849 310.799 653.983C315.879 653.012 312.357 648.751 308.489 649.84C296.385 653.231 284.529 605.791 283.043 599.536C278.747 581.333 276.486 562.691 274.515 544.126C272.535 525.403 271.274 506.51 270.716 487.702C270.689 485.673 270.663 483.645 270.636 481.616C274.964 479.2 279.291 476.783 283.557 474.402C301.096 464.848 320.393 457.631 337.136 446.983C341.383 444.286 333.878 442.897 331.887 443.555Z" fill="black"/>
<path d="M165.576 908.805C165.863 906.187 158.732 906.297 158.146 908.68C154.32 925.277 148.103 941.13 139.923 955.99C135.001 964.881 127.812 981.458 115.382 974.655C107.838 970.509 101.92 957.002 98.7073 949.455C83.5835 913.631 80.6046 869.814 78.835 831.349C78.0109 813.921 77.2033 796.238 78.5752 778.931C79.2002 771.376 87.2347 721.855 101.825 740.328C112.74 754.137 117.958 776.06 122.195 792.744C127.038 811.612 129.257 830.606 131.02 849.945C131.281 853.228 139.473 852.832 139.432 849.503C139.295 828.735 135.724 807.824 130.366 787.781C126 771.58 121.238 751.439 110.851 737.978C105.657 731.248 97.3007 726.262 88.8152 729.69C75.8934 734.779 72.0815 756.356 70.0097 768.343C63.2431 806.75 66.167 848.065 71.5807 886.47C74.3821 906.19 77.7215 926.417 84.3131 945.339C89.1245 958.912 97.957 978.175 112.743 983.537C148.095 996.482 162.814 931.492 165.576 908.805ZM192.866 842.934C194.844 847.351 197.768 851.141 202.646 852.085C221.201 855.761 220.249 823.527 220.288 812.549C220.252 810.363 216.188 810.829 216.137 813.148C215.934 820.868 215.233 840.893 206.988 843.038C203.181 844.091 201.537 837.846 200.314 833.32C196.741 819.768 196.387 805.42 195.017 791.577C194.79 787.784 185.521 790.846 185.565 794.745C185.637 799.118 185.796 803.359 186.052 807.626C182.226 800.433 175.008 796.426 166.665 804.349C152.262 818.06 151.96 852.653 159.253 869.534C165.367 883.663 180.156 881.666 185.725 868.231C189.018 860.198 191.298 851.687 192.866 842.934ZM173.119 871.176C163.742 869.804 164.92 842.391 165.978 833.604C168.672 811.365 173.61 808.024 176.837 808.94C179.739 809.718 180.326 817.391 180.398 819.638C180.372 821.86 184.919 825.204 187.293 824.078C187.162 826.116 186.995 828.092 186.777 830.262C185.961 838.337 183.672 872.605 173.119 871.176ZM243.741 760.421C219.17 768.557 221.532 792.047 223.624 814.221C219.815 800.968 217.884 787.286 216.088 776.387C215.62 773.877 209.944 779.198 209.841 781.71C209.841 781.71 213.376 824.225 224.484 841.766C226.2 844.454 233.825 843.076 234.268 839.878C237.982 816.15 220.497 778.501 246.862 763.279C250.48 761.191 245.915 759.656 243.741 760.421ZM277.817 672.319C278.102 692.92 279.687 713.507 282.245 733.94C282.792 738.284 283.234 743.016 283.783 747.931C283.448 747.634 283.052 747.372 282.655 747.11C276.8 743.624 269.726 744.683 265.119 749.305C252.643 761.822 250.58 801.437 266.611 812.211C283.892 823.735 289.003 792.089 289.321 776.781C291.146 782.349 293.488 787.538 296.765 791.94C301.015 797.744 308.46 799.169 314.768 793.81C325.301 784.867 323.614 766.793 321.867 755.129C321.531 752.707 318.565 755.074 318.681 757.541C318.997 763.327 319.958 784.109 310.761 789.419C293.128 799.518 287.08 695.585 285.675 675.876C285.434 672.909 277.769 669.404 277.817 672.319ZM280.234 765.431C280.105 768.04 282.111 770.806 283.766 769.851C283.642 771.476 283.957 790.996 278.422 800.242C276.173 803.993 274.275 805.661 272.694 805.756C264.406 806.127 263.341 774.122 268.359 761.006C269.236 758.701 271.486 753.395 274.661 752.38C276.371 751.802 278.279 752.417 280.285 755.183C282.149 757.704 280.288 763.684 280.234 765.431Z" fill="black"/>
</g>
<defs>
<clipPath id="clip0_283_656">
<rect width="2000" height="1000" fill="white"/>
</clipPath>
</defs>
</svg>
