<?xml version="1.0" encoding="UTF-8" standalone="no"?>
<svg
   xmlns:dc="http://purl.org/dc/elements/1.1/"
   xmlns:cc="http://creativecommons.org/ns#"
   xmlns:rdf="http://www.w3.org/1999/02/22-rdf-syntax-ns#"
   xmlns:svg="http://www.w3.org/2000/svg"
   xmlns="http://www.w3.org/2000/svg"
   xmlns:sodipodi="http://sodipodi.sourceforge.net/DTD/sodipodi-0.dtd"
   xmlns:inkscape="http://www.inkscape.org/namespaces/inkscape"
   version="1.1"
   id="svg2"
   xml:space="preserve"
   width="666.66669"
   height="666.66669"
   viewBox="0 0 666.66669 666.66669"
   sodipodi:docname="calendar-qr-code-frame-2.eps"><metadata
     id="metadata8"><rdf:RDF><cc:Work
         rdf:about=""><dc:format>image/svg+xml</dc:format><dc:type
           rdf:resource="http://purl.org/dc/dcmitype/StillImage" /></cc:Work></rdf:RDF></metadata><defs
     id="defs6" /><sodipodi:namedview
     pagecolor="#ffffff"
     bordercolor="#666666"
     borderopacity="1"
     objecttolerance="10"
     gridtolerance="10"
     guidetolerance="10"
     inkscape:pageopacity="0"
     inkscape:pageshadow="2"
     inkscape:window-width="640"
     inkscape:window-height="480"
     id="namedview4" /><g
     id="g10"
     inkscape:groupmode="layer"
     inkscape:label="ink_ext_XXXXXX"
     transform="matrix(1.3333333,0,0,-1.3333333,0,666.66667)"><g
       id="g12"
       transform="scale(0.1)"><path
         d="m 1712.29,927.82 h -73.41 l 99.79,-122.57 -99.79,-122.559 h 73.41 l 99.81,122.559 -99.81,122.57"
         style="fill:#2a2a2b;fill-opacity:1;fill-rule:nonzero;stroke:none"
         id="path14" /><path
         d="m 1493.57,775.02 h 261.3 v 60.472 h -261.3 V 775.02"
         style="fill:#2a2a2b;fill-opacity:1;fill-rule:nonzero;stroke:none"
         id="path16" /><path
         d="m 404.363,1250.42 31.77,38.05 c 22.004,-18.16 45.039,-29.67 72.969,-29.67 21.992,0 35.261,8.72 35.261,23.73 0,13.62 -8.379,20.6 -49.226,31.07 -49.231,12.57 -80.996,26.19 -80.996,75.41 0,44.34 35.617,73.68 85.539,73.68 35.601,0 65.972,-11.18 90.769,-31.08 l -27.929,-40.5 c -21.653,15.01 -42.942,24.1 -63.543,24.1 -20.598,0 -31.418,-9.44 -31.418,-22.01 0,-16.05 10.468,-21.3 52.714,-32.12 49.582,-12.91 77.508,-30.72 77.508,-74.01 0,-48.53 -37.011,-75.75 -89.722,-75.75 -37.012,0 -74.368,12.91 -103.696,39.1"
         style="fill:#2a2a2b;fill-opacity:1;fill-rule:nonzero;stroke:none"
         id="path18" /><path
         d="m 779.695,1317.1 -32.461,79.25 -32.468,-79.25 z m -56.55,143.84 h 49.582 L 877.449,1214.8 H 821.25 l -22.344,54.82 h -103.34 l -22.343,-54.82 h -54.817 l 104.739,246.14"
         style="fill:#2a2a2b;fill-opacity:1;fill-rule:nonzero;stroke:none"
         id="path20" /><path
         d="m 859.324,1459.19 h 59.36 l 63.882,-172.12 63.894,172.12 h 57.94 l -98.79,-246.13 h -47.485 l -98.801,246.13"
         style="fill:#2a2a2b;fill-opacity:1;fill-rule:nonzero;stroke:none"
         id="path22" /><path
         d="m 1142.15,1459.19 h 184.33 v -47.83 h -130.91 v -49.57 h 115.2 v -47.83 h -115.2 v -51.32 h 132.66 v -47.84 h -186.08 v 244.39"
         style="fill:#2a2a2b;fill-opacity:1;fill-rule:nonzero;stroke:none"
         id="path24" /><path
         d="m 516.438,783.332 c 43.984,0 73.66,29.68 73.66,73.668 0,43.281 -29.676,73.66 -73.66,73.66 H 474.895 V 783.332 Z m -95.317,195.859 h 95.317 c 76.804,0 129.871,-52.722 129.871,-122.191 0,-68.781 -53.067,-122.199 -129.871,-122.199 h -95.317 v 244.39"
         style="fill:#2a2a2b;fill-opacity:1;fill-rule:nonzero;stroke:none"
         id="path26" /><path
         d="m 817.078,837.102 -32.469,79.25 -32.468,-79.25 z M 760.52,980.941 h 49.57 l 104.746,-246.14 h -56.215 l -22.344,54.82 H 732.938 l -22.34,-54.82 h -54.817 l 104.739,246.14"
         style="fill:#2a2a2b;fill-opacity:1;fill-rule:nonzero;stroke:none"
         id="path28" /><path
         d="m 978.047,929.621 h -74.363 v 49.57 h 202.496 v -49.57 h -74.36 v -194.82 h -53.773 v 194.82"
         style="fill:#2a2a2b;fill-opacity:1;fill-rule:nonzero;stroke:none"
         id="path30" /><path
         d="m 1147.4,979.191 h 184.34 v -47.832 h -130.92 v -49.57 h 115.21 v -47.828 h -115.21 v -51.32 h 132.67 v -47.84 H 1147.4 v 244.39"
         style="fill:#2a2a2b;fill-opacity:1;fill-rule:nonzero;stroke:none"
         id="path32" /><path
         d="m 1057.9,1054.29 v 45.74 h -11.52 v 23.4 h 11.52 v 24.67 h 27.36 v -24.67 h 22.69 v -23.4 h -22.69 v -41.24 c 0,-6.3 2.71,-9.36 8.83,-9.36 5.04,0 9.54,1.26 13.5,3.42 v -21.96 c -5.76,-3.43 -12.42,-5.59 -21.6,-5.59 -16.75,0 -28.09,6.66 -28.09,28.99"
         style="fill:#2a2a2b;fill-opacity:1;fill-rule:nonzero;stroke:none"
         id="path34" /><path
         d="m 1128.1,1158.36 h 27.36 v -48.61 c 6.31,8.1 14.4,15.48 28.27,15.48 20.7,0 32.77,-13.68 32.77,-35.83 v -62.48 h -27.37 v 53.84 c 0,12.96 -6.12,19.62 -16.56,19.62 -10.45,0 -17.11,-6.66 -17.11,-19.62 v -53.84 h -27.36 v 131.44"
         style="fill:#2a2a2b;fill-opacity:1;fill-rule:nonzero;stroke:none"
         id="path36" /><path
         d="m 1303.61,1082.74 c -1.62,12.24 -8.82,20.53 -20.35,20.53 -11.34,0 -18.72,-8.1 -20.88,-20.53 z m -68.06,-7.74 c 0,27.55 19.63,50.23 47.71,50.23 32.24,0 47,-25.02 47,-52.39 0,-2.17 -0.18,-4.69 -0.36,-7.21 h -67.17 c 2.71,-12.42 11.35,-18.9 23.6,-18.9 9.18,0 15.84,2.88 23.41,9.9 l 15.66,-13.87 c -9,-11.16 -21.97,-17.99 -39.43,-17.99 -29,0 -50.42,20.34 -50.42,50.23"
         style="fill:#2a2a2b;fill-opacity:1;fill-rule:nonzero;stroke:none"
         id="path38" /><path
         d="m 3489.38,3338.24 c -12.21,-20.85 -20.98,-45.05 -37.34,-61.87 -34.89,-35.89 -79.44,-45.62 -126.74,-28.14 -48.37,17.87 -74.92,54.67 -80.05,106.03 -1.51,15.16 -0.72,30.58 -0.72,45.88 -0.04,213.24 0.07,426.47 -0.05,639.72 -0.1,162.83 -102.77,265.41 -265.59,265.62 -44.76,0.06 -89.52,0.01 -138.68,0.01 0,-43.11 1.53,-84.58 -0.31,-125.91 -4.24,-95.75 -106.74,-150.22 -186.82,-99.7 -37.29,23.51 -56.07,58.59 -57.14,102.33 -0.98,39.66 -0.21,79.34 -0.21,121.14 -185.79,0 -369.75,0 -557.22,0 0,-31.52 0.01,-62.81 0,-94.11 -0.03,-91.79 -46.02,-147.89 -121.63,-148.4 -76.71,-0.52 -123.23,56.04 -123.25,149.84 -0.01,30.41 0,60.82 0,93 -183.54,0 -364.74,0 -551.06,0 0,-39.27 0.73,-79.58 -0.18,-119.85 -1.25,-55.41 -33.84,-100.16 -83.23,-116.47 -78.85,-26.02 -157.78,29.19 -160.918,113.66 -1.504,40.46 -0.262,81.04 -0.262,127.66 -72.25,-3.54 -142.531,0.67 -209.628,-11.99 -109.446,-20.64 -181.86,-115.98 -188.086,-230.74 -0.442,-8.15 -0.371,-16.32 -0.371,-24.47 -0.024,-624.42 0.039,-1248.82 -0.071,-1873.23 -0.019,-106.05 41.25,-189.71 138.797,-235.54 37.297,-17.51 82.309,-25.55 123.891,-25.84 300.958,-2.11 601.948,-1.34 902.928,-0.88 39.52,0.05 74.96,-8.52 103.24,-37.28 58.85,-59.82 40.82,-159.36 -35.17,-195.68 -9.09,-4.34 -18.42,-8.13 -27.63,-12.17 -338.74,0 -677.48,0 -1016.232,0 -4.519,1.87 -8.894,4.73 -13.601,5.49 -172.16,27.74 -297.719,120.07 -372.817,276.63 -22.82,47.61 -32.515,101.51 -48.23,152.53 0,673.41 0,1346.8 0,2020.2 1.98,5.57 4.941,10.98 5.801,16.71 29.328,194.68 169.355,355.37 360.937,399.43 74.336,17.09 153.543,13.13 230.559,18.38 14.734,0.99 29.598,0.13 45.586,0.13 0,43.45 -0.512,82.17 0.125,120.87 0.742,44.96 19.332,81.04 57.812,105.05 80.34,50.14 182.31,-4.7 186.33,-100.58 1.73,-41.27 0.29,-82.69 0.29,-123.8 185.96,0 367.14,0 551.39,0 0,42.03 -1.26,82.61 0.26,123.1 3.18,84.4 82.22,139.55 161.02,113.46 49.36,-16.35 81.88,-61.08 83.12,-116.52 0.9,-40.25 0.18,-80.55 0.18,-119.78 188.39,0 371.6,0 557.19,0 0,37.27 -0.18,72.76 0.03,108.26 0.49,79.87 51.04,135.03 123.12,134.6 71.94,-0.43 121.31,-55.52 121.69,-136.02 0.17,-35.39 0.03,-70.77 0.03,-109.06 60.25,0 117.28,2.63 174,-0.47 193.46,-10.56 336.62,-102.72 423.86,-275.23 24.74,-48.94 34.44,-105.48 51.05,-158.53 0,-259.16 0,-518.31 0,-777.47"
         style="fill:#2a2a2b;fill-opacity:1;fill-rule:nonzero;stroke:none"
         id="path40" /><path
         d="m 1120.26,3387.43 c -67.3,-0.01 -122.655,55.66 -122.24,122.95 0.398,67.31 56.42,122.32 123.71,121.49 66.1,-0.82 120.28,-55.31 120.72,-121.42 0.44,-67.31 -54.87,-123 -122.19,-123.02"
         style="fill:#2a2a2b;fill-opacity:1;fill-rule:nonzero;stroke:none"
         id="path42" /><path
         d="m 1652.86,3387.43 c -67.3,-0.01 -122.65,55.66 -122.24,122.95 0.41,67.31 56.42,122.32 123.71,121.49 66.1,-0.82 120.28,-55.31 120.72,-121.42 0.44,-67.31 -54.87,-123 -122.19,-123.02"
         style="fill:#2a2a2b;fill-opacity:1;fill-rule:nonzero;stroke:none"
         id="path44" /><path
         d="m 2186.04,3387.43 c -67.31,-0.33 -122.92,55.08 -122.83,122.38 0.1,67.33 55.84,122.57 123.15,122.06 66.11,-0.5 120.54,-54.75 121.29,-120.85 0.75,-67.29 -54.31,-123.25 -121.61,-123.59"
         style="fill:#2a2a2b;fill-opacity:1;fill-rule:nonzero;stroke:none"
         id="path46" /><path
         d="m 2840.24,3509.37 c -0.15,-67.33 -55.94,-122.51 -123.26,-121.93 -67.29,0.58 -122.16,56.73 -121.17,124.02 0.98,66.1 55.62,120.14 121.74,120.41 67.3,0.27 122.86,-55.19 122.69,-122.5"
         style="fill:#2a2a2b;fill-opacity:1;fill-rule:nonzero;stroke:none"
         id="path48" /><path
         d="m 1118.57,2854.83 c -67.28,0.92 -121.89,57.38 -120.55,124.65 1.328,67.28 58.13,121.53 125.4,119.76 66.08,-1.73 119.52,-56.98 119.03,-123.08 -0.5,-67.3 -56.59,-122.23 -123.88,-121.33"
         style="fill:#2a2a2b;fill-opacity:1;fill-rule:nonzero;stroke:none"
         id="path50" /><path
         d="m 1653.84,2854.83 c -67.31,-0.55 -123.09,54.65 -123.22,121.98 -0.15,67.3 55.42,122.75 122.73,122.46 66.12,-0.29 120.74,-54.35 121.7,-120.44 0.98,-67.29 -53.91,-123.43 -121.21,-124"
         style="fill:#2a2a2b;fill-opacity:1;fill-rule:nonzero;stroke:none"
         id="path52" /><path
         d="m 1119.56,2566.67 c 67.31,0.37 122.94,-55 122.89,-122.3 -0.06,-67.32 -55.77,-122.6 -123.07,-122.13 -66.12,0.47 -120.591,54.67 -121.36,120.78 -0.793,67.28 54.24,123.28 121.54,123.65"
         style="fill:#2a2a2b;fill-opacity:1;fill-rule:nonzero;stroke:none"
         id="path54" /><path
         d="m 1653.54,2322.24 c -67.3,-0.4 -122.95,54.97 -122.92,122.27 0.02,67.31 55.73,122.62 123.03,122.16 66.11,-0.45 120.6,-54.64 121.4,-120.74 0.81,-67.29 -54.21,-123.29 -121.51,-123.69"
         style="fill:#2a2a2b;fill-opacity:1;fill-rule:nonzero;stroke:none"
         id="path56" /><path
         d="M 4178.26,776.238 H 2308.23 c -123.68,0 -223.94,100.262 -223.94,223.942 v 1870.03 c 0,123.68 100.26,223.94 223.94,223.94 h 1870.03 c 123.67,0 223.94,-100.26 223.94,-223.94 V 1000.18 c 0,-123.68 -100.27,-223.942 -223.94,-223.942"
         style="fill:#ffffff;fill-opacity:1;fill-rule:nonzero;stroke:none"
         id="path58" /><path
         d="M 4178.26,776.238 H 2308.23 c -123.68,0 -223.94,100.262 -223.94,223.942 v 1870.03 c 0,123.68 100.26,223.94 223.94,223.94 h 1870.03 c 123.67,0 223.94,-100.26 223.94,-223.94 V 1000.18 c 0,-123.68 -100.27,-223.942 -223.94,-223.942 z"
         style="fill:none;stroke:#2a2a2b;stroke-width:97.1702;stroke-linecap:butt;stroke-linejoin:miter;stroke-miterlimit:10;stroke-dasharray:none;stroke-opacity:1"
         id="path60" /><path
         d="M 4214.33,964.109 H 2272.17 V 2906.27 H 4214.33 V 964.109"
         style="fill:#ffffff;fill-opacity:1;fill-rule:nonzero;stroke:none"
         id="path62" /><path
         d="M 4069.95,1111.06 H 2416.54 V 2764.48 H 4069.95 V 1111.06"
         style="fill:#ffffff;fill-opacity:1;fill-rule:nonzero;stroke:none"
         id="path64" /><path
         d="m 4033.43,2368.32 h 73.04 v 432.69 h -432.68 v -73.04 h 359.64 v -359.65"
         style="fill:#a6a7a7;fill-opacity:1;fill-rule:nonzero;stroke:none"
         id="path66" /><path
         d="m 2453.07,2368.32 v 359.65 h 359.64 v 73.04 h -432.69 v -432.69 h 73.05"
         style="fill:#a6a7a7;fill-opacity:1;fill-rule:nonzero;stroke:none"
         id="path68" /><path
         d="m 2453.07,1507.24 h -73.05 v -432.7 h 432.69 v 73.05 h -359.64 v 359.65"
         style="fill:#a6a7a7;fill-opacity:1;fill-rule:nonzero;stroke:none"
         id="path70" /><path
         d="m 4033.43,1507.24 v -359.65 h -359.64 v -73.05 h 432.68 v 432.7 h -73.04"
         style="fill:#a6a7a7;fill-opacity:1;fill-rule:nonzero;stroke:none"
         id="path72" /><path
         d="m 2709.28,2098.6 -53.77,118.34 -54.05,-118.34 z m -60.78,135 h 14.61 l 95.26,-206 h -16.66 l -26.01,57.27 h -120.68 l -26.01,-57.27 h -15.77 l 95.26,206"
         style="fill:#a6a7a7;fill-opacity:1;fill-rule:nonzero;stroke:none"
         id="path74" /><path
         d="m 2916.13,2102.4 c 0,38.28 -29.8,64 -60.77,64 -32.44,0 -58.45,-23.68 -58.45,-64.29 0,-39.15 27.18,-64.29 58.45,-64.29 30.97,0 60.77,26.01 60.77,64.58 z m -134.7,-0.29 c 0,48.51 36.53,78.02 72.47,78.02 29.8,0 49.09,-16.95 61.36,-35.65 v 96.43 h 14.32 V 2027.6 h -14.32 v 33.31 c -12.86,-19.58 -31.85,-36.82 -61.36,-36.82 -35.94,0 -72.47,28.93 -72.47,78.02"
         style="fill:#a6a7a7;fill-opacity:1;fill-rule:nonzero;stroke:none"
         id="path76" /><path
         d="m 3108.97,2102.4 c 0,38.28 -29.8,64 -60.77,64 -32.44,0 -58.44,-23.68 -58.44,-64.29 0,-39.15 27.17,-64.29 58.44,-64.29 30.97,0 60.77,26.01 60.77,64.58 z m -134.7,-0.29 c 0,48.51 36.53,78.02 72.47,78.02 29.8,0 49.09,-16.95 61.37,-35.65 v 96.43 h 14.31 V 2027.6 h -14.31 v 33.31 c -12.87,-19.58 -31.86,-36.82 -61.37,-36.82 -35.94,0 -72.47,28.93 -72.47,78.02"
         style="fill:#a6a7a7;fill-opacity:1;fill-rule:nonzero;stroke:none"
         id="path78" /><path
         d="m 3253.02,1986.4 4.96,12.56 c 7.89,-3.79 14.32,-5.55 25.43,-5.55 15.49,0 25.71,9.06 36.81,35.07 l -71.59,148.14 h 16.65 l 61.96,-133.24 53.77,133.24 h 15.77 l -64.57,-154.29 c -13.16,-31.26 -28.35,-42.36 -49.68,-42.36 -11.4,0 -19.58,2.04 -29.51,6.43"
         style="fill:#a6a7a7;fill-opacity:1;fill-rule:nonzero;stroke:none"
         id="path80" /><path
         d="m 3554.86,2102.11 c 0,35.94 -27.76,64.58 -61.36,64.58 -33.61,0 -60.79,-28.93 -60.79,-64.58 0,-35.94 26.89,-64.58 61.37,-64.58 33.02,0 60.78,28.93 60.78,64.58 z m -137.63,0 c 0,41.79 32.44,78.02 76.85,78.02 44.12,0 76.27,-35.65 76.27,-78.02 0,-41.79 -32.44,-78.02 -76.85,-78.02 -44.12,0 -76.27,35.65 -76.27,78.02"
         style="fill:#a6a7a7;fill-opacity:1;fill-rule:nonzero;stroke:none"
         id="path82" /><path
         d="m 3611.54,2085.46 v 91.16 h 14.32 v -88.53 c 0,-30.69 17.24,-50.85 47.33,-50.85 29.22,0 51.72,22.2 51.72,53.18 v 86.2 h 14.32 V 2027.6 h -14.32 v 27.76 c -9.93,-17.54 -26.59,-31.27 -53.76,-31.27 -37.69,0 -59.61,25.71 -59.61,61.37"
         style="fill:#a6a7a7;fill-opacity:1;fill-rule:nonzero;stroke:none"
         id="path84" /><path
         d="m 3793.56,2176.62 h 14.32 v -42.37 c 11.69,26.59 36.52,45.88 66.04,44.71 v -15.78 h -1.46 c -34.48,0 -64.58,-26 -64.58,-74.51 v -61.07 h -14.32 v 149.02"
         style="fill:#a6a7a7;fill-opacity:1;fill-rule:nonzero;stroke:none"
         id="path86" /><path
         d="m 2704.32,1720.51 -33.32,28.35 28.64,32.14 33.6,-30.39 c 3.8,8.47 5.55,17.83 5.55,28.64 0,35.06 -25.71,64.28 -61.94,64.28 -36.23,0 -61.37,-28.64 -61.37,-64.28 0,-35.07 25.71,-64.29 61.95,-64.29 9.93,0 19,2.04 26.89,5.55 z m 33.31,-29.51 c -17.25,-11.11 -37.99,-17.53 -60.78,-17.53 -63.12,0 -108.41,47.04 -108.41,105.78 0,58.14 45.88,105.77 108.99,105.77 63.12,0 108.41,-47.04 108.41,-105.77 0,-21.34 -6.44,-41.79 -18.12,-58.74 l 21.04,-17.82 -28.63,-31.85 -22.5,20.16"
         style="fill:#a6a7a7;fill-opacity:1;fill-rule:nonzero;stroke:none"
         id="path88" /><path
         d="m 2916.43,1782.17 c 21.91,0 34.48,11.69 34.48,29.51 0,19.29 -13.44,29.22 -35.36,29.22 h -44.71 v -58.73 z m -90.59,99.34 h 93.51 c 26,0 46.17,-7.3 59.61,-20.74 11.39,-11.4 17.53,-27.47 17.53,-47.33 0,-33.03 -17.82,-53.77 -43.82,-63.42 l 49.96,-73.05 h -52.6 l -44.41,65.45 h -34.78 v -65.45 h -45 v 204.54"
         style="fill:#a6a7a7;fill-opacity:1;fill-rule:nonzero;stroke:none"
         id="path90" /><path
         d="m 3115.69,1779.25 c 0,58.14 43.83,105.77 106.65,105.77 38.58,0 60.2,-14.61 79.19,-33.31 l -26.88,-30.97 c -15.77,14.32 -29.22,22.79 -52.6,22.79 -34.47,0 -59.32,-28.64 -59.32,-64.28 0,-35.07 24.26,-64.29 59.32,-64.29 23.38,0 37.7,9.35 53.77,23.96 l 28.63,-30.68 c -21.03,-22.5 -44.41,-34.77 -83.85,-34.77 -60.2,0 -104.91,46.46 -104.91,105.78"
         style="fill:#a6a7a7;fill-opacity:1;fill-rule:nonzero;stroke:none"
         id="path92" /><path
         d="m 3450.83,1754.99 c 0,23.09 -16.65,43.25 -41.2,43.25 -25.42,0 -40.62,-19.58 -40.62,-43.25 0,-23.09 16.66,-43.24 41.2,-43.24 25.42,0 40.62,19.57 40.62,43.24 z m -125.64,0 c 0,45 36.23,81.52 85.02,81.52 48.51,0 84.45,-35.93 84.45,-81.52 0,-45 -36.23,-81.52 -85.03,-81.52 -48.51,0 -84.44,35.93 -84.44,81.52"
         style="fill:#a6a7a7;fill-opacity:1;fill-rule:nonzero;stroke:none"
         id="path94" /><path
         d="m 3640.45,1755.58 c 0,26 -17.24,43.24 -37.99,43.24 -20.74,0 -38.27,-16.95 -38.27,-43.83 0,-26.01 17.53,-43.24 38.27,-43.24 20.75,0 37.99,17.23 37.99,43.83 z m -120.67,0 c 0,52.3 34.18,80.93 71.28,80.93 23.68,0 38.29,-10.81 48.8,-23.37 v 77.14 h 44.43 v -213.31 h -44.43 v 22.5 c -10.81,-14.61 -25.71,-25.42 -48.8,-25.42 -36.52,0 -71.28,28.64 -71.28,81.53"
         style="fill:#a6a7a7;fill-opacity:1;fill-rule:nonzero;stroke:none"
         id="path96" /><path
         d="m 3826.86,1767.56 c -2.63,19.86 -14.32,33.31 -33.02,33.31 -18.41,0 -30.39,-13.16 -33.9,-33.31 z m -110.45,-12.57 c 0,44.71 31.84,81.52 77.43,81.52 52.3,0 76.27,-40.61 76.27,-85.03 0,-3.5 -0.3,-7.59 -0.59,-11.69 h -108.99 c 4.38,-20.15 18.41,-30.68 38.28,-30.68 14.9,0 25.71,4.68 37.99,16.08 l 25.42,-22.5 c -14.61,-18.12 -35.66,-29.22 -64,-29.22 -47.05,0 -81.81,33.01 -81.81,81.52"
         style="fill:#a6a7a7;fill-opacity:1;fill-rule:nonzero;stroke:none"
         id="path98" /></g></g></svg>
