<?xml version="1.0" encoding="UTF-8" standalone="no"?>
<svg
   xmlns:dc="http://purl.org/dc/elements/1.1/"
   xmlns:cc="http://creativecommons.org/ns#"
   xmlns:rdf="http://www.w3.org/1999/02/22-rdf-syntax-ns#"
   xmlns:svg="http://www.w3.org/2000/svg"
   xmlns="http://www.w3.org/2000/svg"
   xmlns:sodipodi="http://sodipodi.sourceforge.net/DTD/sodipodi-0.dtd"
   xmlns:inkscape="http://www.inkscape.org/namespaces/inkscape"
   version="1.1"
   id="svg2"
   xml:space="preserve"
   width="666.66669"
   height="666.66669"
   viewBox="0 0 666.66669 666.66669"
   sodipodi:docname="calendar-qr-code-frame-1.eps"><metadata
     id="metadata8"><rdf:RDF><cc:Work
         rdf:about=""><dc:format>image/svg+xml</dc:format><dc:type
           rdf:resource="http://purl.org/dc/dcmitype/StillImage" /></cc:Work></rdf:RDF></metadata><defs
     id="defs6" /><sodipodi:namedview
     pagecolor="#ffffff"
     bordercolor="#666666"
     borderopacity="1"
     objecttolerance="10"
     gridtolerance="10"
     guidetolerance="10"
     inkscape:pageopacity="0"
     inkscape:pageshadow="2"
     inkscape:window-width="640"
     inkscape:window-height="480"
     id="namedview4" /><g
     id="g10"
     inkscape:groupmode="layer"
     inkscape:label="ink_ext_XXXXXX"
     transform="matrix(1.3333333,0,0,-1.3333333,0,666.66667)"><g
       id="g12"
       transform="scale(0.1)"><path
         d="M 4121.7,915.949 H 726.16 c -199.832,0 -361.836,162.001 -361.836,361.831 V 3959.1 c 0,199.84 162.004,361.84 361.836,361.84 H 4121.7 c 199.83,0 361.83,-162 361.83,-361.84 V 1277.78 c 0,-199.83 -162,-361.831 -361.83,-361.831"
         style="fill:#ffffff;fill-opacity:1;fill-rule:nonzero;stroke:none"
         id="path14" /><path
         d="M 4121.7,915.949 H 726.16 c -199.832,0 -361.836,162.001 -361.836,361.831 V 3959.1 c 0,199.84 162.004,361.84 361.836,361.84 H 4121.7 c 199.83,0 361.83,-162 361.83,-361.84 V 1277.78 c 0,-199.83 -162,-361.831 -361.83,-361.831 z"
         style="fill:none;stroke:#2a2a2b;stroke-width:100;stroke-linecap:butt;stroke-linejoin:miter;stroke-miterlimit:10;stroke-dasharray:none;stroke-opacity:1"
         id="path16" /><path
         d="M 3258.08,1324.8 H 670.793 V 3912.08 H 3258.08 V 1324.8"
         style="fill:#ffffff;fill-opacity:1;fill-rule:nonzero;stroke:none"
         id="path18" /><path
         d="M 3065.74,1520.58 H 863.125 V 3723.19 H 3065.74 V 1520.58"
         style="fill:#ffffff;fill-opacity:1;fill-rule:nonzero;stroke:none"
         id="path20" /><path
         d="m 3017.09,3195.44 h 97.3 v 576.42 h -576.41 v -97.31 h 479.11 v -479.11"
         style="fill:#a6a7a7;fill-opacity:1;fill-rule:nonzero;stroke:none"
         id="path22" /><path
         d="m 911.777,3195.44 v 479.11 h 479.103 v 97.31 H 814.465 v -576.42 h 97.312"
         style="fill:#a6a7a7;fill-opacity:1;fill-rule:nonzero;stroke:none"
         id="path24" /><path
         d="m 911.777,2048.33 h -97.312 v -576.42 h 576.415 v 97.32 H 911.777 v 479.1"
         style="fill:#a6a7a7;fill-opacity:1;fill-rule:nonzero;stroke:none"
         id="path26" /><path
         d="m 3017.09,2048.33 v -479.1 h -479.11 v -97.32 h 576.41 v 576.42 h -97.3"
         style="fill:#a6a7a7;fill-opacity:1;fill-rule:nonzero;stroke:none"
         id="path28" /><path
         d="m 1253.13,2836.11 -71.63,157.65 -72.01,-157.65 z m -80.97,179.84 h 19.46 l 126.9,-274.43 h -22.19 l -34.64,76.29 h -160.76 l -34.65,-76.29 h -21.02 l 126.9,274.43"
         style="fill:#a6a7a7;fill-opacity:1;fill-rule:nonzero;stroke:none"
         id="path30" /><path
         d="m 1528.7,2841.17 c 0,51 -39.71,85.25 -80.97,85.25 -43.2,0 -77.85,-31.53 -77.85,-85.64 0,-52.16 36.2,-85.63 77.85,-85.63 41.26,0 80.97,34.64 80.97,86.02 z m -179.44,-0.39 c 0,64.62 48.65,103.94 96.53,103.94 39.7,0 65.39,-22.58 81.74,-47.49 v 128.44 h 19.07 v -284.15 h -19.07 v 44.38 c -17.13,-26.09 -42.43,-49.04 -81.74,-49.04 -47.88,0 -96.53,38.53 -96.53,103.92"
         style="fill:#a6a7a7;fill-opacity:1;fill-rule:nonzero;stroke:none"
         id="path32" /><path
         d="m 1785.6,2841.17 c 0,51 -39.71,85.25 -80.97,85.25 -43.2,0 -77.85,-31.53 -77.85,-85.64 0,-52.16 36.2,-85.63 77.85,-85.63 41.26,0 80.97,34.64 80.97,86.02 z m -179.45,-0.39 c 0,64.62 48.65,103.94 96.54,103.94 39.69,0 65.39,-22.58 81.73,-47.49 v 128.44 h 19.08 v -284.15 h -19.08 v 44.38 c -17.13,-26.09 -42.43,-49.04 -81.73,-49.04 -47.89,0 -96.54,38.53 -96.54,103.92"
         style="fill:#a6a7a7;fill-opacity:1;fill-rule:nonzero;stroke:none"
         id="path34" /><path
         d="m 1977.47,2686.64 6.62,16.74 c 10.51,-5.06 19.07,-7.4 33.87,-7.4 20.62,0 34.25,12.07 49.04,46.72 l -95.36,197.34 h 22.18 l 82.53,-177.5 71.62,177.5 h 21.01 l -86.02,-205.52 c -17.51,-41.65 -37.75,-56.44 -66.17,-56.44 -15.18,0 -26.08,2.72 -39.32,8.56"
         style="fill:#a6a7a7;fill-opacity:1;fill-rule:nonzero;stroke:none"
         id="path36" /><path
         d="m 2379.56,2840.78 c 0,47.88 -36.98,86.03 -81.75,86.03 -44.76,0 -80.96,-38.54 -80.96,-86.03 0,-47.88 35.81,-86.02 81.74,-86.02 43.99,0 80.97,38.53 80.97,86.02 z m -183.34,0 c 0,55.67 43.2,103.94 102.37,103.94 58.78,0 101.6,-47.49 101.6,-103.94 0,-55.66 -43.21,-103.92 -102.38,-103.92 -58.78,0 -101.59,47.49 -101.59,103.92"
         style="fill:#a6a7a7;fill-opacity:1;fill-rule:nonzero;stroke:none"
         id="path38" /><path
         d="m 2455.06,2818.59 v 121.45 h 19.07 V 2822.1 c 0,-40.87 22.97,-67.73 63.07,-67.73 38.92,0 68.89,29.59 68.89,70.84 v 114.83 h 19.08 v -198.52 h -19.08 v 36.99 c -13.23,-23.36 -35.42,-41.65 -71.62,-41.65 -50.21,0 -79.41,34.24 -79.41,81.73"
         style="fill:#a6a7a7;fill-opacity:1;fill-rule:nonzero;stroke:none"
         id="path40" /><path
         d="m 2697.56,2940.04 h 19.07 v -56.44 c 15.57,35.42 48.65,61.12 87.97,59.55 v -21.01 h -1.94 c -45.93,0 -86.03,-34.65 -86.03,-99.26 v -81.36 h -19.07 v 198.52"
         style="fill:#a6a7a7;fill-opacity:1;fill-rule:nonzero;stroke:none"
         id="path42" /><path
         d="m 1246.51,2332.44 -44.37,37.76 38.14,42.82 44.77,-40.48 c 5.06,11.28 7.4,23.74 7.4,38.14 0,46.71 -34.26,85.64 -82.53,85.64 -48.26,0 -81.74,-38.15 -81.74,-85.64 0,-46.71 34.26,-85.63 82.52,-85.63 13.24,0 25.31,2.72 35.81,7.39 z m 44.38,-39.32 c -22.97,-14.78 -50.61,-23.34 -80.97,-23.34 -84.07,0 -144.4,62.66 -144.4,140.9 0,77.46 61.1,140.91 145.18,140.91 84.09,0 144.42,-62.66 144.42,-140.91 0,-28.41 -8.57,-55.66 -24.13,-78.24 l 28.02,-23.74 -38.15,-42.43 -29.97,26.85"
         style="fill:#a6a7a7;fill-opacity:1;fill-rule:nonzero;stroke:none"
         id="path44" /><path
         d="m 1529.1,2414.57 c 29.19,0 45.93,15.58 45.93,39.32 0,25.69 -17.91,38.92 -47.1,38.92 h -59.55 v -78.24 z m -120.67,132.35 h 124.56 c 34.65,0 61.5,-9.73 79.4,-27.63 15.19,-15.19 23.36,-36.59 23.36,-63.07 0,-43.98 -23.74,-71.62 -58.39,-84.46 l 66.57,-97.32 h -70.07 l -59.16,87.2 h -46.32 v -87.2 h -59.95 v 272.48"
         style="fill:#a6a7a7;fill-opacity:1;fill-rule:nonzero;stroke:none"
         id="path46" /><path
         d="m 1794.55,2410.68 c 0,77.46 58.38,140.91 142.07,140.91 51.39,0 80.19,-19.46 105.49,-44.37 l -35.81,-41.26 c -21.02,19.07 -38.93,30.36 -70.07,30.36 -45.93,0 -79.01,-38.15 -79.01,-85.64 0,-46.71 32.3,-85.63 79.01,-85.63 31.14,0 50.22,12.45 71.62,31.91 l 38.16,-40.87 c -28.03,-29.97 -59.17,-46.31 -111.72,-46.31 -80.19,0 -139.74,61.88 -139.74,140.9"
         style="fill:#a6a7a7;fill-opacity:1;fill-rule:nonzero;stroke:none"
         id="path48" /><path
         d="m 2241.02,2378.37 c 0,30.75 -22.19,57.62 -54.9,57.62 -33.85,0 -54.1,-26.09 -54.1,-57.62 0,-30.74 22.19,-57.61 54.88,-57.61 33.87,0 54.12,26.09 54.12,57.61 z m -167.39,0 c 0,59.95 48.27,108.6 113.27,108.6 64.62,0 112.5,-47.87 112.5,-108.6 0,-59.94 -48.27,-108.59 -113.28,-108.59 -64.61,0 -112.49,47.87 -112.49,108.59"
         style="fill:#a6a7a7;fill-opacity:1;fill-rule:nonzero;stroke:none"
         id="path50" /><path
         d="m 2493.62,2379.15 c 0,34.65 -22.97,57.61 -50.6,57.61 -27.64,0 -51,-22.57 -51,-58.39 0,-34.64 23.36,-57.61 51,-57.61 27.63,0 50.6,22.97 50.6,58.39 z m -160.76,0 c 0,69.68 45.54,107.82 94.98,107.82 31.53,0 50.99,-14.4 65,-31.14 v 102.76 h 59.17 v -284.15 h -59.17 v 29.97 c -14.4,-19.46 -34.26,-33.86 -65,-33.86 -48.66,0 -94.98,38.15 -94.98,108.6"
         style="fill:#a6a7a7;fill-opacity:1;fill-rule:nonzero;stroke:none"
         id="path52" /><path
         d="m 2741.95,2395.11 c -3.5,26.47 -19.07,44.37 -43.98,44.37 -24.52,0 -40.49,-17.51 -45.16,-44.37 z m -147.14,-16.74 c 0,59.56 42.44,108.6 103.16,108.6 69.68,0 101.59,-54.1 101.59,-113.27 0,-4.67 -0.39,-10.12 -0.78,-15.57 h -145.19 c 5.84,-26.86 24.53,-40.86 50.99,-40.86 19.85,0 34.26,6.22 50.61,21.4 l 33.86,-29.97 c -19.46,-24.14 -47.49,-38.92 -85.24,-38.92 -62.68,0 -109,43.98 -109,108.59"
         style="fill:#a6a7a7;fill-opacity:1;fill-rule:nonzero;stroke:none"
         id="path54" /><path
         d="m 4729.26,2566.94 h -1020.9 c -104.04,0 -188.38,84.34 -188.38,188.37 v 880.26 c 0,104.03 84.34,188.37 188.38,188.37 h 1020.9 c 104.03,0 188.37,-84.34 188.37,-188.37 v -880.26 c 0,-104.03 -84.34,-188.37 -188.37,-188.37"
         style="fill:#2a2a2b;fill-opacity:1;fill-rule:nonzero;stroke:none"
         id="path56" /><path
         d="m 3830.08,2853.37 c 282.08,0 563.28,0 844.67,0 0,188.77 0,376.85 0,565.46 -281.73,0 -562.93,0 -844.67,0 0,-188.58 0,-376.66 0,-565.46 z m -62.8,-10.53 c 0,256.46 0,512.9 0,769.36 0.98,2.95 2.01,5.89 2.94,8.85 8.15,25.54 28.93,42.99 55.8,43.74 35.64,0.99 71.32,0.18 106.99,0.09 0.48,0 0.95,-0.67 2.19,-1.59 0,-2.85 0,-6.28 0,-9.71 0,-29.36 -0.68,-58.75 0.33,-88.08 0.41,-12 2.22,-24.92 7.25,-35.62 13.8,-29.27 39.07,-39.8 70.56,-39.27 44.96,0.74 74.01,29.29 74.13,74.25 0.09,29.99 0.02,59.99 0.02,89.98 0,3.32 0,6.64 0,9.66 113.3,0 225.2,0 336.96,0 0.22,-1.37 0.4,-1.99 0.4,-2.62 0.03,-32.51 -0.12,-65.03 0.13,-97.55 0.23,-30.53 13.42,-53.67 41.48,-66.57 19.32,-8.88 40.16,-8.05 60.43,-3.96 33.86,6.82 50.18,27.3 50.41,61.86 0.23,32.84 0.05,65.68 0.05,98.51 0,3.41 0,6.82 0,10.53 3.16,0.23 5.3,0.53 7.44,0.53 29.37,0.03 58.74,0.22 88.1,-0.02 37.96,-0.33 64.51,-26.56 64.53,-64.49 0.14,-248.49 0.14,-496.98 -0.2,-745.48 -0.01,-9.77 -2.26,-20.38 -6.46,-29.18 -12.19,-25.53 -34.08,-35.41 -61.74,-35.31 -73.88,0.26 -147.76,0.09 -221.65,0.09 -203.02,0 -406.05,-0.12 -609.07,0.29 -12.26,0.02 -25.26,2.39 -36.62,6.93 -19.59,7.83 -28.66,25.42 -34.4,44.78"
         style="fill:#ffffff;fill-opacity:1;fill-rule:nonzero;stroke:none"
         id="path58" /><path
         d="m 4522.05,3071.49 c 17.35,0 34.71,0.15 52.05,-0.06 8.38,-0.1 11.94,3.4 11.89,11.91 -0.24,29.65 -0.21,59.31 -0.02,88.96 0.06,8.59 -3.81,11.75 -12.11,11.7 -34.39,-0.17 -68.78,-0.22 -103.17,0.03 -9.01,0.07 -12.31,-3.61 -12.23,-12.45 0.28,-29.34 0.31,-58.69 -0.01,-88.03 -0.11,-9.16 3.8,-12.31 12.49,-12.15 17.03,0.3 34.07,0.08 51.11,0.09 z m -182.52,0 c 17.68,0 35.34,0.11 53.01,-0.04 7.85,-0.07 11.52,3.18 11.48,11.3 -0.17,29.97 -0.15,59.95 -0.02,89.92 0.04,8.03 -3.56,11.35 -11.49,11.31 -34.71,-0.12 -69.4,-0.16 -104.11,0.03 -8.46,0.05 -11.94,-3.39 -11.89,-11.84 0.21,-29.66 0.23,-59.32 -0.02,-88.98 -0.06,-8.57 3.59,-11.89 11.94,-11.77 17.03,0.24 34.07,0.06 51.1,0.07 z m -182.11,-0.01 c 17.36,0 34.71,0.2 52.06,-0.07 8.63,-0.14 12.75,2.97 12.66,12.13 -0.27,29.34 -0.26,58.68 -0.01,88.02 0.07,8.83 -3.42,12.52 -12.36,12.46 -34.39,-0.22 -68.78,-0.21 -103.17,-0.01 -8.36,0.06 -12.07,-3.11 -12.01,-11.69 0.21,-29.65 0.24,-59.31 -0.02,-88.97 -0.07,-8.47 3.27,-12.06 11.75,-11.93 17.03,0.24 34.07,0.06 51.1,0.06 z m -181.21,0.01 c 17.35,0 34.71,0.16 52.05,-0.06 8.37,-0.11 11.97,3.36 11.92,11.87 -0.23,29.66 -0.21,59.32 -0.02,88.98 0.05,8.53 -3.76,11.77 -12.09,11.73 -34.39,-0.18 -68.78,-0.23 -103.17,0.02 -8.99,0.07 -12.38,-3.6 -12.3,-12.43 0.24,-29.33 0.27,-58.68 -0.02,-88.02 -0.09,-9.09 3.79,-12.34 12.52,-12.18 17.03,0.3 34.07,0.08 51.11,0.09 z m 545.67,157.92 c 17.36,0 34.71,0.18 52.07,-0.07 8.35,-0.12 12.08,3.27 12.02,11.79 -0.2,29.65 -0.22,59.31 0.02,88.97 0.05,8.56 -3.66,11.85 -11.97,11.82 -34.7,-0.15 -69.41,-0.13 -104.12,-0.01 -7.85,0.02 -11.47,-3.08 -11.41,-11.27 0.21,-29.97 0.18,-59.94 0.01,-89.91 -0.04,-8.01 3.32,-11.47 11.33,-11.37 17.35,0.2 34.7,0.05 52.05,0.05 z m -182.38,0 c 17.67,0 35.33,0.13 53,-0.05 7.93,-0.08 11.54,3.28 11.5,11.31 -0.13,29.97 -0.15,59.95 0.02,89.92 0.04,8.12 -3.62,11.33 -11.47,11.31 -34.71,-0.1 -69.42,-0.14 -104.11,0.03 -8.34,0.04 -12.01,-3.19 -11.95,-11.77 0.25,-29.65 0.23,-59.31 0.02,-88.97 -0.05,-8.45 3.41,-12 11.88,-11.85 17.03,0.27 34.07,0.07 51.11,0.07 z m 182.73,-316.24 c 16.73,0 33.45,-0.05 50.17,0.02 11.19,0.05 13.46,2.25 13.48,13.15 0.05,28.72 0.05,57.43 0,86.15 -0.02,11.1 -2.21,13.46 -13.17,13.49 -33.75,0.08 -67.52,0.09 -101.29,-0.01 -10.81,-0.03 -12.81,-2.07 -12.84,-12.69 -0.06,-29.03 -0.06,-58.07 0,-87.1 0.03,-11.15 1.93,-12.95 13.47,-13 16.73,-0.06 33.45,-0.01 50.18,-0.01 z m -182.01,0 c 16.72,0 33.45,-0.05 50.18,0.01 11.26,0.05 13.51,2.21 13.54,13.08 0.05,29.03 -0.16,58.08 0.12,87.1 0.09,8.86 -3.43,12.72 -12.25,12.69 -34.4,-0.12 -68.79,-0.13 -103.2,0.01 -8.9,0.04 -12.22,-3.88 -12.14,-12.7 0.31,-29.35 0.29,-58.7 0.01,-88.05 -0.07,-9.11 3.96,-12.35 12.61,-12.21 17.04,0.25 34.08,0.07 51.13,0.07 z m -181.63,0 c 17.04,0 34.1,0.16 51.13,-0.06 8.82,-0.12 12.48,3.67 12.41,12.53 -0.25,29.36 -0.24,58.71 -0.01,88.06 0.07,8.32 -3.25,12.34 -11.65,12.32 -34.72,-0.05 -69.43,-0.08 -104.14,0.02 -8.33,0.02 -11.84,-3.55 -11.76,-12.07 0.26,-29.65 0.24,-59.32 0.02,-88.99 -0.07,-8.55 3.62,-11.96 11.93,-11.86 17.36,0.19 34.72,0.05 52.07,0.05 z m -182.26,0 c 16.73,0 33.46,-0.05 50.18,0.02 11.26,0.04 13.53,2.21 13.56,13.07 0.06,29.03 -0.16,58.08 0.13,87.1 0.07,8.85 -3.46,12.72 -12.27,12.68 -34.4,-0.11 -68.8,-0.13 -103.2,0.02 -8.92,0.04 -12.24,-3.89 -12.15,-12.7 0.29,-29.35 0.28,-58.69 0.02,-88.05 -0.09,-9.08 3.94,-12.35 12.61,-12.21 17.04,0.26 34.08,0.07 51.12,0.07 z m -146.25,-59.8 c 0,188.8 0,376.88 0,565.46 281.74,0 562.94,0 844.67,0 0,-188.61 0,-376.69 0,-565.46 -281.39,0 -562.59,0 -844.67,0"
         style="fill:#2a2a2b;fill-opacity:1;fill-rule:nonzero;stroke:none"
         id="path60" /><path
         d="m 3966.23,3632.09 c -0.02,23.04 -0.1,46.07 0.01,69.11 0.12,26.12 15.69,41.51 42,41.72 1.9,0.01 3.79,0.01 5.69,0 26.86,-0.17 42.4,-15.24 42.55,-42.25 0.26,-45.76 0.3,-91.53 -0.02,-137.29 -0.18,-26.37 -15.81,-41.5 -42.11,-41.8 -4.73,-0.05 -9.51,-0.05 -14.16,0.6 -20.24,2.8 -33.58,17.51 -33.87,37.95 -0.33,23.98 -0.08,47.97 -0.09,71.96"
         style="fill:#ffffff;fill-opacity:1;fill-rule:nonzero;stroke:none"
         id="path62" /><path
         d="m 4546.23,3633.44 c 0,-23.35 0.13,-46.71 -0.03,-70.06 -0.16,-24.8 -15.36,-40.24 -40.04,-40.44 -7.81,-0.07 -15.96,-0.08 -23.37,2.01 -15,4.24 -23.59,15.03 -25.97,30.48 -0.62,4.03 -0.8,8.16 -0.81,12.26 -0.06,43.55 0.11,87.1 -0.11,130.66 -0.09,16.82 3.6,32.04 19.59,40.1 16.9,8.52 35.04,8.35 51.89,-0.27 12.72,-6.5 18.71,-18.39 18.79,-32.78 0.13,-23.98 0.03,-47.98 0.03,-71.96 0.01,0 0.02,0 0.03,0"
         style="fill:#ffffff;fill-opacity:1;fill-rule:nonzero;stroke:none"
         id="path64" /><path
         d="m 3976.33,2913.17 c -17.04,0 -34.08,0.19 -51.12,-0.07 -8.67,-0.14 -12.7,3.13 -12.61,12.21 0.26,29.36 0.27,58.7 -0.02,88.05 -0.09,8.81 3.23,12.74 12.15,12.7 34.4,-0.15 68.8,-0.13 103.2,-0.02 8.81,0.04 12.34,-3.83 12.27,-12.68 -0.29,-29.02 -0.07,-58.07 -0.13,-87.1 -0.03,-10.86 -2.3,-13.03 -13.56,-13.07 -16.72,-0.07 -33.45,-0.02 -50.18,-0.02"
         style="fill:#ffffff;fill-opacity:1;fill-rule:nonzero;stroke:none"
         id="path66" /><path
         d="m 4158.59,2913.17 c -17.35,0 -34.71,0.14 -52.07,-0.05 -8.31,-0.1 -12,3.31 -11.93,11.86 0.22,29.67 0.24,59.34 -0.02,88.99 -0.08,8.52 3.43,12.09 11.76,12.07 34.71,-0.1 69.42,-0.07 104.14,-0.02 8.4,0.02 11.72,-4 11.65,-12.32 -0.23,-29.35 -0.24,-58.7 0.01,-88.06 0.07,-8.86 -3.59,-12.65 -12.41,-12.53 -17.03,0.22 -34.09,0.06 -51.13,0.06"
         style="fill:#ffffff;fill-opacity:1;fill-rule:nonzero;stroke:none"
         id="path68" /><path
         d="m 4340.22,2913.17 c -17.05,0 -34.09,0.18 -51.13,-0.07 -8.65,-0.14 -12.68,3.1 -12.61,12.21 0.28,29.35 0.3,58.7 -0.01,88.05 -0.08,8.82 3.24,12.74 12.14,12.7 34.41,-0.14 68.8,-0.13 103.2,-0.01 8.82,0.03 12.34,-3.83 12.25,-12.69 -0.28,-29.02 -0.07,-58.07 -0.12,-87.1 -0.03,-10.87 -2.28,-13.03 -13.54,-13.08 -16.73,-0.06 -33.46,-0.01 -50.18,-0.01"
         style="fill:#ffffff;fill-opacity:1;fill-rule:nonzero;stroke:none"
         id="path70" /><path
         d="m 4522.23,2913.17 c -16.73,0 -33.45,-0.05 -50.18,0.01 -11.54,0.05 -13.44,1.85 -13.47,13 -0.06,29.03 -0.06,58.07 0,87.1 0.03,10.62 2.03,12.66 12.84,12.69 33.77,0.1 67.54,0.09 101.29,0.01 10.96,-0.03 13.15,-2.39 13.17,-13.49 0.05,-28.72 0.05,-57.43 0,-86.15 -0.02,-10.9 -2.29,-13.1 -13.48,-13.15 -16.72,-0.07 -33.44,-0.02 -50.17,-0.02"
         style="fill:#ffffff;fill-opacity:1;fill-rule:nonzero;stroke:none"
         id="path72" /><path
         d="m 4339.5,3229.41 c -17.04,0 -34.08,0.2 -51.11,-0.07 -8.47,-0.15 -11.93,3.4 -11.88,11.85 0.21,29.66 0.23,59.32 -0.02,88.97 -0.06,8.58 3.61,11.81 11.95,11.77 34.69,-0.17 69.4,-0.13 104.11,-0.03 7.85,0.02 11.51,-3.19 11.47,-11.31 -0.17,-29.97 -0.15,-59.95 -0.02,-89.92 0.04,-8.03 -3.57,-11.39 -11.5,-11.31 -17.67,0.18 -35.33,0.05 -53,0.05"
         style="fill:#ffffff;fill-opacity:1;fill-rule:nonzero;stroke:none"
         id="path74" /><path
         d="m 4521.88,3229.41 c -17.35,0 -34.7,0.15 -52.05,-0.05 -8.01,-0.1 -11.37,3.36 -11.33,11.37 0.17,29.97 0.2,59.94 -0.01,89.91 -0.06,8.19 3.56,11.29 11.41,11.27 34.71,-0.12 69.42,-0.14 104.12,0.01 8.31,0.03 12.02,-3.26 11.97,-11.82 -0.24,-29.66 -0.22,-59.32 -0.02,-88.97 0.06,-8.52 -3.67,-11.91 -12.02,-11.79 -17.36,0.25 -34.71,0.07 -52.07,0.07"
         style="fill:#ffffff;fill-opacity:1;fill-rule:nonzero;stroke:none"
         id="path76" /><path
         d="m 3976.21,3071.48 c -17.04,0 -34.08,0.22 -51.11,-0.08 -8.73,-0.16 -12.61,3.09 -12.52,12.18 0.29,29.34 0.26,58.69 0.02,88.02 -0.08,8.83 3.31,12.5 12.3,12.43 34.39,-0.25 68.78,-0.2 103.17,-0.02 8.33,0.04 12.14,-3.2 12.09,-11.73 -0.19,-29.66 -0.21,-59.32 0.02,-88.98 0.05,-8.51 -3.55,-11.98 -11.92,-11.87 -17.34,0.22 -34.7,0.06 -52.05,0.05"
         style="fill:#ffffff;fill-opacity:1;fill-rule:nonzero;stroke:none"
         id="path78" /><path
         d="m 4157.42,3071.48 c -17.03,0 -34.07,0.18 -51.1,-0.06 -8.48,-0.13 -11.82,3.46 -11.75,11.93 0.26,29.66 0.23,59.32 0.02,88.97 -0.06,8.58 3.65,11.75 12.01,11.69 34.39,-0.2 68.78,-0.21 103.17,0.01 8.94,0.06 12.43,-3.63 12.36,-12.46 -0.25,-29.34 -0.26,-58.68 0.01,-88.02 0.09,-9.16 -4.03,-12.27 -12.66,-12.13 -17.35,0.27 -34.7,0.07 -52.06,0.07"
         style="fill:#ffffff;fill-opacity:1;fill-rule:nonzero;stroke:none"
         id="path80" /><path
         d="m 4339.53,3071.49 c -17.03,-0.01 -34.07,0.17 -51.1,-0.07 -8.35,-0.12 -12,3.2 -11.94,11.77 0.25,29.66 0.23,59.32 0.02,88.98 -0.05,8.45 3.43,11.89 11.89,11.84 34.71,-0.19 69.4,-0.15 104.11,-0.03 7.93,0.04 11.53,-3.28 11.49,-11.31 -0.13,-29.97 -0.15,-59.95 0.02,-89.92 0.04,-8.12 -3.63,-11.37 -11.48,-11.3 -17.67,0.15 -35.33,0.04 -53.01,0.04"
         style="fill:#ffffff;fill-opacity:1;fill-rule:nonzero;stroke:none"
         id="path82" /><path
         d="m 4522.05,3071.48 c -17.04,0 -34.08,0.22 -51.11,-0.08 -8.69,-0.16 -12.6,2.99 -12.49,12.15 0.32,29.34 0.29,58.69 0.01,88.03 -0.08,8.84 3.22,12.52 12.23,12.45 34.39,-0.25 68.78,-0.2 103.17,-0.03 8.3,0.05 12.17,-3.11 12.11,-11.7 -0.19,-29.65 -0.22,-59.31 0.02,-88.96 0.05,-8.51 -3.51,-12.01 -11.89,-11.91 -17.34,0.21 -34.7,0.06 -52.05,0.05"
         style="fill:#ffffff;fill-opacity:1;fill-rule:nonzero;stroke:none"
         id="path84" /><path
         d="m 3319.77,2042.76 31.76,38.05 c 22.01,-18.15 45.04,-29.67 72.97,-29.67 21.99,0 35.27,8.72 35.27,23.73 0,13.63 -8.38,20.61 -49.23,31.08 -49.23,12.57 -81,26.19 -81,75.41 0,44.33 35.62,73.67 85.54,73.67 35.6,0 65.97,-11.17 90.77,-31.07 l -27.93,-40.5 c -21.65,15.01 -42.94,24.09 -63.54,24.09 -20.6,0 -31.42,-9.43 -31.42,-22 0,-16.06 10.47,-21.3 52.71,-32.12 49.58,-12.91 77.51,-30.72 77.51,-74.02 0,-48.52 -37.01,-75.75 -89.72,-75.75 -37.01,0 -74.37,12.91 -103.69,39.1"
         style="fill:#2a2a2b;fill-opacity:1;fill-rule:nonzero;stroke:none"
         id="path86" /><path
         d="m 3695.1,2109.44 -32.46,79.25 -32.47,-79.25 z m -56.56,143.84 h 49.59 l 104.72,-246.13 h -56.2 l -22.34,54.81 h -103.34 l -22.35,-54.81 h -54.81 l 104.73,246.13"
         style="fill:#2a2a2b;fill-opacity:1;fill-rule:nonzero;stroke:none"
         id="path88" /><path
         d="m 3774.73,2251.53 h 59.35 l 63.89,-172.12 63.89,172.12 h 57.94 l -98.79,-246.13 h -47.48 l -98.8,246.13"
         style="fill:#2a2a2b;fill-opacity:1;fill-rule:nonzero;stroke:none"
         id="path90" /><path
         d="m 4057.55,2251.53 h 184.33 v -47.83 h -130.91 v -49.57 h 115.2 v -47.83 h -115.2 v -51.32 h 132.66 v -47.83 h -186.08 v 244.38"
         style="fill:#2a2a2b;fill-opacity:1;fill-rule:nonzero;stroke:none"
         id="path92" /><path
         d="m 3431.84,1575.67 c 43.98,0 73.66,29.68 73.66,73.68 0,43.28 -29.68,73.66 -73.66,73.66 h -41.55 v -147.34 z m -95.32,195.86 h 95.32 c 76.8,0 129.87,-52.71 129.87,-122.18 0,-68.78 -53.07,-122.2 -129.87,-122.2 h -95.32 v 244.38"
         style="fill:#2a2a2b;fill-opacity:1;fill-rule:nonzero;stroke:none"
         id="path94" /><path
         d="m 3732.48,1629.44 -32.47,79.25 -32.47,-79.25 z m -56.56,143.84 h 49.57 l 104.74,-246.13 h -56.21 l -22.34,54.81 H 3648.34 L 3626,1527.15 h -54.82 l 104.74,246.13"
         style="fill:#2a2a2b;fill-opacity:1;fill-rule:nonzero;stroke:none"
         id="path96" /><path
         d="m 3893.45,1721.96 h -74.37 v 49.57 h 202.5 v -49.57 h -74.36 v -194.81 h -53.77 v 194.81"
         style="fill:#2a2a2b;fill-opacity:1;fill-rule:nonzero;stroke:none"
         id="path98" /><path
         d="m 4062.8,1771.53 h 184.34 v -47.83 h -130.92 v -49.57 h 115.21 v -47.83 h -115.21 v -51.32 h 132.67 v -47.83 H 4062.8 v 244.38"
         style="fill:#2a2a2b;fill-opacity:1;fill-rule:nonzero;stroke:none"
         id="path100" /><path
         d="m 3973.3,1846.63 v 45.74 h -11.52 v 23.4 h 11.52 v 24.67 h 27.36 v -24.67 h 22.69 v -23.4 h -22.69 v -41.24 c 0,-6.3 2.71,-9.35 8.83,-9.35 5.04,0 9.54,1.26 13.5,3.42 v -21.97 c -5.76,-3.43 -12.42,-5.58 -21.6,-5.58 -16.75,0 -28.09,6.66 -28.09,28.98"
         style="fill:#2a2a2b;fill-opacity:1;fill-rule:nonzero;stroke:none"
         id="path102" /><path
         d="m 4043.5,1950.7 h 27.36 v -48.61 c 6.31,8.11 14.4,15.49 28.27,15.49 20.7,0 32.77,-13.68 32.77,-35.83 v -62.48 h -27.37 v 53.84 c 0,12.95 -6.12,19.61 -16.56,19.61 -10.45,0 -17.11,-6.66 -17.11,-19.61 v -53.84 h -27.36 v 131.43"
         style="fill:#2a2a2b;fill-opacity:1;fill-rule:nonzero;stroke:none"
         id="path104" /><path
         d="m 4219.01,1875.09 c -1.62,12.23 -8.82,20.53 -20.35,20.53 -11.34,0 -18.72,-8.11 -20.88,-20.53 z m -68.06,-7.75 c 0,27.55 19.63,50.24 47.71,50.24 32.24,0 47,-25.03 47,-52.39 0,-2.17 -0.18,-4.69 -0.36,-7.21 h -67.17 c 2.71,-12.42 11.35,-18.91 23.6,-18.91 9.18,0 15.84,2.88 23.41,9.9 l 15.66,-13.86 c -9,-11.16 -21.97,-18 -39.43,-18 -29,0 -50.42,20.34 -50.42,50.23"
         style="fill:#2a2a2b;fill-opacity:1;fill-rule:nonzero;stroke:none"
         id="path106" /><path
         d="m 4011.42,2881.95 c 0,-121.21 -98.27,-219.47 -219.48,-219.47 -121.21,0 -219.47,98.26 -219.47,219.47 0,121.22 98.26,219.49 219.47,219.49 121.21,0 219.48,-98.27 219.48,-219.49"
         style="fill:#ffffff;fill-opacity:1;fill-rule:nonzero;stroke:none"
         id="path108" /><path
         d="m 3927.57,2915.04 -123.4,-123.4 -23.17,-23.18 c -3.07,-3.07 -7.34,-4.78 -11.6,-4.78 -4.25,0 -8.52,1.71 -11.59,4.78 l -23.17,23.18 -61.7,61.7 c -3.08,3.07 -4.78,7.32 -4.78,11.58 0,4.27 1.7,8.53 4.78,11.59 l 23.17,23.19 c 3.07,3.06 7.34,4.77 11.6,4.77 4.25,0 8.52,-1.71 11.59,-4.77 l 50.1,-50.29 111.81,111.99 c 3.07,3.06 7.33,4.77 11.59,4.77 4.26,0 8.53,-1.71 11.59,-4.77 l 23.18,-23.19 c 3.07,-3.06 4.77,-7.32 4.77,-11.58 0,-4.27 -1.7,-8.52 -4.77,-11.59"
         style="fill:#2a2a2b;fill-opacity:1;fill-rule:nonzero;stroke:none"
         id="path110" /></g></g></svg>
