<svg width="1000" height="1000" viewBox="0 0 1000 1000" fill="none" xmlns="http://www.w3.org/2000/svg">
<rect x="101.148" y="101.15" width="797.701" height="797.701" fill="#333333"/>
<rect x="240.23" y="332" width="518.391" height="518.391" rx="7.55384" fill="white"/>
<path d="M612.539 382.881H710.911V481.253" stroke="#C2C2C2" stroke-width="18.6921"/>
<path d="M386.285 382.881H287.913V481.253" stroke="#C2C2C2" stroke-width="18.6921"/>
<path d="M612.539 805.877H710.911V707.505" stroke="#C2C2C2" stroke-width="18.6921"/>
<path d="M386.285 805.877H287.913V707.505" stroke="#C2C2C2" stroke-width="18.6921"/>
<path d="M388.294 551.895L380.56 529.385L372.34 551.895H388.294ZM376.953 521.825H384.756L403.242 572.773H395.681L390.513 557.513H370.363L364.848 572.773H357.773L376.953 521.825ZM412.641 554.634C412.641 558.611 413.485 561.941 415.173 564.623C416.861 567.305 419.566 568.646 423.289 568.646C426.179 568.646 428.549 567.409 430.399 564.935C432.271 562.438 433.208 558.866 433.208 554.218C433.208 549.525 432.248 546.056 430.329 543.813C428.41 541.548 426.04 540.415 423.219 540.415C420.075 540.415 417.52 541.617 415.554 544.022C413.612 546.426 412.641 549.964 412.641 554.634ZM422.04 534.969C424.884 534.969 427.266 535.571 429.185 536.773C430.294 537.467 431.555 538.68 432.965 540.415V521.651H438.965V572.773H433.347V567.606C431.89 569.895 430.167 571.548 428.179 572.565C426.19 573.583 423.913 574.091 421.346 574.091C417.208 574.091 413.624 572.357 410.595 568.889C407.566 565.398 406.051 560.762 406.051 554.981C406.051 549.571 407.427 544.889 410.179 540.935C412.953 536.958 416.907 534.969 422.04 534.969ZM452.179 554.634C452.179 558.611 453.023 561.941 454.711 564.623C456.399 567.305 459.104 568.646 462.827 568.646C465.717 568.646 468.087 567.409 469.937 564.935C471.81 562.438 472.746 558.866 472.746 554.218C472.746 549.525 471.786 546.056 469.867 543.813C467.948 541.548 465.578 540.415 462.757 540.415C459.613 540.415 457.058 541.617 455.093 544.022C453.15 546.426 452.179 549.964 452.179 554.634ZM461.578 534.969C464.422 534.969 466.804 535.571 468.723 536.773C469.833 537.467 471.093 538.68 472.503 540.415V521.651H478.503V572.773H472.885V567.606C471.428 569.895 469.705 571.548 467.717 572.565C465.729 573.583 463.451 574.091 460.885 574.091C456.746 574.091 453.162 572.357 450.133 568.889C447.104 565.398 445.589 560.762 445.589 554.981C445.589 549.571 446.965 544.889 449.717 540.935C452.491 536.958 456.445 534.969 461.578 534.969ZM530.735 535.628H537.637C536.759 538.01 534.805 543.444 531.776 551.929C529.51 558.311 527.614 563.513 526.088 567.536C522.481 577.016 519.937 582.797 518.458 584.878C516.978 586.959 514.435 587.999 510.828 587.999C509.949 587.999 509.267 587.964 508.781 587.895C508.319 587.826 507.741 587.699 507.047 587.514V581.826C508.134 582.126 508.92 582.311 509.406 582.381C509.891 582.45 510.319 582.485 510.689 582.485C511.845 582.485 512.689 582.288 513.221 581.895C513.776 581.525 514.238 581.063 514.608 580.508C514.724 580.323 515.14 579.375 515.856 577.664C516.573 575.953 517.094 574.681 517.417 573.849L503.683 535.628H510.758L520.712 565.872L530.735 535.628ZM557.788 568.75C561.927 568.75 564.759 567.19 566.285 564.068C567.834 560.924 568.609 557.432 568.609 553.594C568.609 550.126 568.054 547.305 566.944 545.131C565.187 541.709 562.158 539.998 557.857 539.998C554.042 539.998 551.267 541.455 549.533 544.368C547.799 547.282 546.932 550.796 546.932 554.912C546.932 558.866 547.799 562.161 549.533 564.796C551.267 567.432 554.019 568.75 557.788 568.75ZM558.031 534.553C562.817 534.553 566.863 536.149 570.169 539.339C573.476 542.53 575.129 547.224 575.129 553.421C575.129 559.409 573.672 564.357 570.759 568.265C567.846 572.172 563.325 574.126 557.198 574.126C552.088 574.126 548.03 572.403 545.025 568.958C542.019 565.49 540.516 560.843 540.516 555.016C540.516 548.773 542.1 543.802 545.267 540.102C548.435 536.403 552.689 534.553 558.031 534.553ZM588.829 535.628V560.288C588.829 562.184 589.129 563.733 589.73 564.935C590.84 567.155 592.91 568.265 595.939 568.265C600.286 568.265 603.245 566.322 604.817 562.438C605.673 560.357 606.101 557.502 606.101 553.871V535.628H612.344V572.773H606.448L606.517 567.294C605.708 568.704 604.702 569.895 603.499 570.866C601.118 572.808 598.228 573.779 594.829 573.779C589.534 573.779 585.927 572.01 584.008 568.473C582.967 566.577 582.447 564.045 582.447 560.877V535.628H588.829ZM622.297 535.628H628.228V542.045C628.714 540.796 629.905 539.282 631.801 537.501C633.696 535.698 635.882 534.796 638.356 534.796C638.471 534.796 638.668 534.808 638.945 534.831C639.223 534.854 639.697 534.9 640.367 534.969V541.559C639.997 541.49 639.65 541.443 639.327 541.42C639.026 541.397 638.691 541.386 638.321 541.386C635.176 541.386 632.76 542.403 631.072 544.438C629.384 546.449 628.54 548.773 628.54 551.409V572.773H622.297V535.628Z" fill="#C2C2C2"/>
<path d="M388.919 661.367C386.63 662.13 383.89 662.512 380.699 662.512C374.04 662.512 368.537 660.523 364.19 656.546C358.918 651.76 356.283 644.731 356.283 635.459C356.283 626.118 358.988 619.055 364.398 614.268C368.815 610.361 374.306 608.407 380.873 608.407C387.485 608.407 393.035 610.476 397.52 614.615C402.699 619.401 405.289 626.095 405.289 634.696C405.289 639.251 404.734 643.066 403.624 646.142C402.723 649.078 401.393 651.517 399.636 653.46L405.532 658.974L399.948 664.801L393.774 658.974C391.902 660.107 390.283 660.905 388.919 661.367ZM386.63 652.142L381.462 647.217L386.977 641.459L392.144 646.384C392.954 644.72 393.52 643.263 393.844 642.014C394.353 640.142 394.607 637.957 394.607 635.459C394.607 629.725 393.428 625.297 391.069 622.176C388.734 619.031 385.312 617.459 380.803 617.459C376.572 617.459 373.196 618.962 370.676 621.968C368.156 624.974 366.895 629.471 366.895 635.459C366.895 642.465 368.699 647.483 372.306 650.512C374.641 652.477 377.439 653.46 380.699 653.46C381.925 653.46 383.104 653.309 384.237 653.009C384.861 652.847 385.659 652.558 386.63 652.142ZM435.186 641.043H424.156V661.09H413.717V609.968H438.793C442.376 610.037 445.128 610.476 447.047 611.286C448.989 612.095 450.631 613.286 451.972 614.858C453.082 616.153 453.96 617.586 454.608 619.159C455.255 620.731 455.579 622.523 455.579 624.534C455.579 626.962 454.966 629.355 453.741 631.714C452.515 634.049 450.492 635.702 447.671 636.673C450.03 637.621 451.694 638.974 452.666 640.731C453.66 642.465 454.157 645.124 454.157 648.708V652.142C454.157 654.477 454.249 656.061 454.434 656.893C454.712 658.211 455.359 659.182 456.377 659.807V661.09H444.619C444.295 659.957 444.064 659.044 443.926 658.35C443.648 656.916 443.498 655.448 443.475 653.945L443.405 649.194C443.359 645.934 442.758 643.76 441.602 642.673C440.469 641.587 438.33 641.043 435.186 641.043ZM441.671 631.748C443.798 630.777 444.862 628.858 444.862 625.991C444.862 622.893 443.833 620.812 441.775 619.748C440.619 619.147 438.885 618.846 436.573 618.846H424.156V632.581H436.261C438.665 632.581 440.469 632.303 441.671 631.748ZM516.482 636.847H506.354C506.169 635.436 505.695 634.165 504.932 633.032C503.822 631.506 502.1 630.743 499.765 630.743C496.435 630.743 494.158 632.396 492.932 635.702C492.285 637.459 491.961 639.795 491.961 642.708C491.961 645.483 492.285 647.714 492.932 649.402C494.111 652.546 496.331 654.119 499.591 654.119C501.903 654.119 503.545 653.494 504.516 652.246C505.487 650.997 506.077 649.379 506.285 647.39H516.378C516.146 650.396 515.06 653.24 513.117 655.922C510.019 660.246 505.429 662.408 499.348 662.408C493.267 662.408 488.793 660.604 485.926 656.997C483.059 653.39 481.626 648.708 481.626 642.951C481.626 636.454 483.209 631.402 486.377 627.795C489.545 624.188 493.915 622.384 499.487 622.384C504.227 622.384 508.1 623.448 511.106 625.575C514.135 627.702 515.927 631.459 516.482 636.847ZM554.841 628.072C558.031 632.072 559.627 636.8 559.627 642.257C559.627 647.806 558.031 652.558 554.841 656.512C551.65 660.442 546.806 662.408 540.309 662.408C533.811 662.408 528.967 660.442 525.777 656.512C522.586 652.558 520.99 647.806 520.99 642.257C520.99 636.8 522.586 632.072 525.777 628.072C528.967 624.072 533.811 622.072 540.309 622.072C546.806 622.072 551.65 624.072 554.841 628.072ZM540.274 630.43C537.384 630.43 535.152 631.459 533.58 633.517C532.031 635.552 531.256 638.465 531.256 642.257C531.256 646.049 532.031 648.974 533.58 651.032C535.152 653.09 537.384 654.119 540.274 654.119C543.164 654.119 545.384 653.09 546.933 651.032C548.482 648.974 549.257 646.049 549.257 642.257C549.257 638.465 548.482 635.552 546.933 633.517C545.384 631.459 543.164 630.43 540.274 630.43ZM601.142 610.037V661.09H591.535V655.853C590.124 658.096 588.517 659.726 586.714 660.743C584.91 661.76 582.668 662.269 579.985 662.269C575.569 662.269 571.847 660.489 568.818 656.928C565.812 653.344 564.309 648.754 564.309 643.159C564.309 636.708 565.789 631.633 568.748 627.933C571.731 624.234 575.708 622.384 580.679 622.384C582.968 622.384 585.003 622.893 586.783 623.91C588.564 624.904 590.009 626.292 591.119 628.072V610.037H601.142ZM574.506 642.431C574.506 645.922 575.199 648.708 576.587 650.789C577.951 652.893 580.032 653.945 582.829 653.945C585.627 653.945 587.754 652.905 589.211 650.824C590.668 648.743 591.396 646.049 591.396 642.743C591.396 638.118 590.228 634.812 587.893 632.824C586.46 631.621 584.795 631.02 582.899 631.02C580.009 631.02 577.881 632.118 576.517 634.315C575.176 636.488 574.506 639.194 574.506 642.431ZM642.518 649.991C642.264 652.234 641.096 654.512 639.015 656.824C635.778 660.5 631.246 662.338 625.42 662.338C620.61 662.338 616.368 660.789 612.691 657.691C609.015 654.593 607.177 649.552 607.177 642.569C607.177 636.026 608.83 631.008 612.136 627.517C615.466 624.026 619.778 622.28 625.073 622.28C628.217 622.28 631.05 622.87 633.57 624.049C636.09 625.228 638.171 627.089 639.813 629.633C641.293 631.876 642.252 634.477 642.692 637.436C642.946 639.17 643.05 641.668 643.004 644.928H617.131C617.269 648.72 618.46 651.379 620.703 652.905C622.067 653.853 623.709 654.327 625.628 654.327C627.663 654.327 629.316 653.749 630.587 652.593C631.281 651.968 631.894 651.101 632.426 649.991H642.518ZM632.738 638.407C632.576 635.795 631.778 633.818 630.345 632.477C628.934 631.112 627.177 630.43 625.073 630.43C622.784 630.43 621.003 631.147 619.732 632.581C618.483 634.014 617.697 635.957 617.373 638.407H632.738Z" fill="#C2C2C2"/>
<path d="M271.998 199.994C271.998 197.774 271.211 196.063 269.639 194.861C268.09 193.659 265.281 192.445 261.211 191.219C257.142 189.994 253.905 188.63 251.5 187.127C246.899 184.237 244.598 180.468 244.598 175.82C244.598 171.751 246.252 168.398 249.558 165.762C252.887 163.126 257.2 161.808 262.495 161.808C266.009 161.808 269.142 162.456 271.894 163.751C274.645 165.045 276.807 166.895 278.379 169.3C279.951 171.681 280.738 174.329 280.738 177.242H271.998C271.998 174.606 271.165 172.549 269.5 171.069C267.859 169.566 265.5 168.814 262.425 168.814C259.558 168.814 257.327 169.427 255.731 170.653C254.159 171.878 253.373 173.589 253.373 175.786C253.373 177.635 254.229 179.184 255.94 180.433C257.651 181.658 260.471 182.861 264.402 184.04C268.333 185.196 271.489 186.526 273.87 188.029C276.252 189.508 277.998 191.219 279.108 193.162C280.217 195.081 280.772 197.335 280.772 199.925C280.772 204.133 279.154 207.485 275.917 209.983C272.703 212.457 268.333 213.694 262.807 213.694C259.153 213.694 255.789 213.023 252.714 211.682C249.662 210.318 247.28 208.445 245.569 206.063C243.882 203.682 243.038 200.907 243.038 197.74H251.812C251.812 200.607 252.76 202.826 254.656 204.399C256.552 205.971 259.269 206.757 262.807 206.757C265.859 206.757 268.148 206.144 269.674 204.919C271.223 203.67 271.998 202.029 271.998 199.994ZM303.073 206.965C305.177 206.965 306.923 206.352 308.31 205.127C309.698 203.902 310.437 202.387 310.53 200.584H318.472C318.38 202.919 317.651 205.104 316.287 207.139C314.923 209.15 313.073 210.746 310.738 211.925C308.403 213.104 305.882 213.694 303.177 213.694C297.929 213.694 293.767 211.994 290.692 208.595C287.616 205.196 286.079 200.503 286.079 194.514V193.647C286.079 187.936 287.605 183.369 290.657 179.947C293.709 176.502 297.871 174.78 303.143 174.78C307.605 174.78 311.235 176.086 314.033 178.699C316.854 181.289 318.334 184.699 318.472 188.93H310.53C310.437 186.78 309.698 185.011 308.31 183.624C306.946 182.237 305.2 181.543 303.073 181.543C300.345 181.543 298.241 182.537 296.761 184.526C295.281 186.491 294.53 189.485 294.507 193.508V194.861C294.507 198.93 295.235 201.971 296.692 203.983C298.171 205.971 300.299 206.965 303.073 206.965ZM347.259 213C346.889 212.283 346.565 211.116 346.288 209.497C343.606 212.295 340.322 213.694 336.438 213.694C332.669 213.694 329.594 212.618 327.212 210.468C324.831 208.318 323.64 205.659 323.64 202.491C323.64 198.491 325.12 195.427 328.079 193.3C331.062 191.15 335.316 190.075 340.843 190.075H346.01V187.612C346.01 185.67 345.467 184.121 344.38 182.965C343.293 181.786 341.64 181.196 339.421 181.196C337.501 181.196 335.929 181.682 334.704 182.653C333.478 183.601 332.866 184.815 332.866 186.294H324.438C324.438 184.237 325.12 182.317 326.484 180.537C327.848 178.734 329.698 177.323 332.033 176.306C334.392 175.288 337.016 174.78 339.906 174.78C344.299 174.78 347.802 175.89 350.415 178.109C353.028 180.306 354.369 183.404 354.438 187.404V204.329C354.438 207.705 354.912 210.399 355.86 212.41V213H347.259ZM337.999 206.931C339.663 206.931 341.224 206.526 342.681 205.717C344.161 204.907 345.27 203.821 346.01 202.456V195.381H341.467C338.345 195.381 335.999 195.925 334.426 197.011C332.854 198.098 332.068 199.636 332.068 201.624C332.068 203.243 332.6 204.537 333.663 205.509C334.75 206.457 336.195 206.931 337.999 206.931ZM371.086 175.473L371.329 179.809C374.103 176.456 377.745 174.78 382.254 174.78C390.069 174.78 394.046 179.254 394.184 188.202V213H385.757V188.687C385.757 186.306 385.236 184.549 384.196 183.416C383.178 182.26 381.502 181.682 379.167 181.682C375.768 181.682 373.236 183.219 371.571 186.294V213H363.143V175.473H371.086ZM431.052 166.352V175.473H437.676V181.716H431.052V202.665C431.052 204.098 431.33 205.139 431.884 205.786C432.462 206.41 433.48 206.722 434.937 206.722C435.908 206.722 436.89 206.607 437.885 206.376V212.896C435.965 213.428 434.116 213.694 432.335 213.694C425.861 213.694 422.624 210.121 422.624 202.977V181.716H416.451V175.473H422.624V166.352H431.052ZM441.526 193.89C441.526 190.214 442.255 186.907 443.711 183.971C445.168 181.011 447.214 178.745 449.85 177.173C452.486 175.577 455.515 174.78 458.937 174.78C464.001 174.78 468.105 176.41 471.249 179.67C474.417 182.93 476.128 187.254 476.382 192.641L476.417 194.618C476.417 198.318 475.7 201.624 474.267 204.537C472.856 207.451 470.821 209.705 468.162 211.301C465.527 212.896 462.475 213.694 459.006 213.694C453.711 213.694 449.469 211.936 446.278 208.422C443.11 204.884 441.526 200.179 441.526 194.306V193.89ZM449.954 194.618C449.954 198.48 450.752 201.508 452.347 203.705C453.943 205.879 456.162 206.965 459.006 206.965C461.85 206.965 464.058 205.855 465.631 203.636C467.226 201.416 468.024 198.167 468.024 193.89C468.024 190.098 467.203 187.092 465.561 184.872C463.943 182.653 461.735 181.543 458.937 181.543C456.185 181.543 454 182.641 452.382 184.838C450.763 187.011 449.954 190.271 449.954 194.618ZM523.655 213C523.285 212.283 522.961 211.116 522.684 209.497C520.001 212.295 516.718 213.694 512.834 213.694C509.065 213.694 505.99 212.618 503.608 210.468C501.227 208.318 500.036 205.659 500.036 202.491C500.036 198.491 501.516 195.427 504.475 193.3C507.458 191.15 511.712 190.075 517.238 190.075H522.406V187.612C522.406 185.67 521.863 184.121 520.776 182.965C519.689 181.786 518.036 181.196 515.816 181.196C513.897 181.196 512.325 181.682 511.1 182.653C509.874 183.601 509.261 184.815 509.261 186.294H500.834C500.834 184.237 501.516 182.317 502.88 180.537C504.244 178.734 506.094 177.323 508.429 176.306C510.787 175.288 513.412 174.78 516.302 174.78C520.695 174.78 524.198 175.89 526.811 178.109C529.424 180.306 530.765 183.404 530.834 187.404V204.329C530.834 207.705 531.308 210.399 532.256 212.41V213H523.655ZM514.394 206.931C516.059 206.931 517.62 206.526 519.077 205.717C520.556 204.907 521.666 203.821 522.406 202.456V195.381H517.863C514.741 195.381 512.394 195.925 510.822 197.011C509.25 198.098 508.464 199.636 508.464 201.624C508.464 203.243 508.995 204.537 510.059 205.509C511.146 206.457 512.591 206.931 514.394 206.931ZM538.083 193.959C538.083 188.179 539.424 183.543 542.106 180.052C544.788 176.537 548.383 174.78 552.892 174.78C556.869 174.78 560.083 176.167 562.534 178.942V159.727H570.962V213H563.332L562.915 209.116C560.395 212.168 557.031 213.694 552.823 213.694C548.43 213.694 544.869 211.925 542.141 208.387C539.435 204.85 538.083 200.04 538.083 193.959ZM546.511 194.688C546.511 198.503 547.239 201.485 548.696 203.636C550.175 205.763 552.268 206.826 554.973 206.826C558.418 206.826 560.938 205.289 562.534 202.214V186.19C560.985 183.185 558.488 181.682 555.042 181.682C552.314 181.682 550.21 182.768 548.73 184.942C547.25 187.092 546.511 190.341 546.511 194.688ZM578.176 193.959C578.176 188.179 579.517 183.543 582.199 180.052C584.881 176.537 588.476 174.78 592.985 174.78C596.962 174.78 600.176 176.167 602.627 178.942V159.727H611.055V213H603.425L603.009 209.116C600.488 212.168 597.124 213.694 592.916 213.694C588.523 213.694 584.962 211.925 582.234 208.387C579.528 204.85 578.176 200.04 578.176 193.959ZM586.604 194.688C586.604 198.503 587.332 201.485 588.789 203.636C590.268 205.763 592.361 206.826 595.066 206.826C598.511 206.826 601.032 205.289 602.627 202.214V186.19C601.078 183.185 598.581 181.682 595.136 181.682C592.407 181.682 590.303 182.768 588.823 184.942C587.344 187.092 586.604 190.341 586.604 194.688Z" fill="white"/>
<path d="M516.068 282C515.698 281.283 515.374 280.116 515.097 278.497C512.414 281.295 509.131 282.694 505.247 282.694C501.478 282.694 498.403 281.618 496.021 279.468C493.64 277.318 492.449 274.659 492.449 271.491C492.449 267.491 493.929 264.427 496.888 262.3C499.871 260.15 504.125 259.075 509.651 259.075H514.819V256.612C514.819 254.67 514.276 253.121 513.189 251.965C512.102 250.786 510.449 250.196 508.229 250.196C506.31 250.196 504.738 250.682 503.513 251.653C502.287 252.601 501.674 253.815 501.674 255.294H493.247C493.247 253.237 493.929 251.317 495.293 249.537C496.657 247.734 498.507 246.323 500.842 245.306C503.2 244.288 505.825 243.78 508.715 243.78C513.108 243.78 516.611 244.89 519.224 247.109C521.837 249.306 523.178 252.404 523.247 256.404V273.329C523.247 276.705 523.721 279.399 524.669 281.41V282H516.068ZM506.807 275.931C508.472 275.931 510.033 275.526 511.49 274.717C512.969 273.907 514.079 272.821 514.819 271.456V264.381H510.276C507.154 264.381 504.807 264.925 503.235 266.011C501.663 267.098 500.877 268.636 500.877 270.624C500.877 272.243 501.408 273.537 502.472 274.509C503.559 275.457 505.004 275.931 506.807 275.931ZM539.895 244.473L540.137 248.809C542.912 245.456 546.554 243.78 551.062 243.78C558.878 243.78 562.855 248.254 562.993 257.202V282H554.565V257.687C554.565 255.306 554.045 253.549 553.005 252.416C551.987 251.26 550.311 250.682 547.976 250.682C544.577 250.682 542.045 252.219 540.38 255.294V282H531.952V244.473H539.895ZM605.826 282.694C600.485 282.694 596.15 281.017 592.82 277.665C589.514 274.289 587.861 269.803 587.861 264.208V263.167C587.861 259.422 588.577 256.081 590.011 253.144C591.468 250.184 593.502 247.884 596.115 246.242C598.728 244.601 601.641 243.78 604.855 243.78C609.965 243.78 613.907 245.41 616.682 248.67C619.48 251.93 620.879 256.543 620.879 262.508V265.907H596.358C596.612 269.006 597.641 271.456 599.445 273.26C601.271 275.063 603.56 275.965 606.312 275.965C610.173 275.965 613.318 274.405 615.746 271.283L620.289 275.618C618.786 277.861 616.774 279.607 614.254 280.855C611.757 282.081 608.948 282.694 605.826 282.694ZM604.821 250.543C602.508 250.543 600.635 251.352 599.202 252.971C597.791 254.589 596.89 256.844 596.497 259.734H612.555V259.109C612.37 256.289 611.618 254.161 610.3 252.728C608.982 251.271 607.156 250.543 604.821 250.543ZM640.197 271.318L648.139 244.473H656.844L643.838 282H636.52L623.41 244.473H632.15L640.197 271.318ZM678.174 282.694C672.833 282.694 668.498 281.017 665.168 277.665C661.862 274.289 660.209 269.803 660.209 264.208V263.167C660.209 259.422 660.925 256.081 662.359 253.144C663.816 250.184 665.85 247.884 668.463 246.242C671.076 244.601 673.989 243.78 677.203 243.78C682.313 243.78 686.255 245.41 689.03 248.67C691.828 251.93 693.227 256.543 693.227 262.508V265.907H668.706C668.96 269.006 669.989 271.456 671.793 273.26C673.619 275.063 675.908 275.965 678.66 275.965C682.521 275.965 685.666 274.405 688.093 271.283L692.637 275.618C691.134 277.861 689.122 279.607 686.602 280.855C684.105 282.081 681.296 282.694 678.174 282.694ZM677.168 250.543C674.856 250.543 672.983 251.352 671.55 252.971C670.139 254.589 669.238 256.844 668.845 259.734H684.903V259.109C684.718 256.289 683.966 254.161 682.648 252.728C681.33 251.271 679.504 250.543 677.168 250.543ZM707.62 244.473L707.863 248.809C710.637 245.456 714.279 243.78 718.788 243.78C726.603 243.78 730.58 248.254 730.718 257.202V282H722.291V257.687C722.291 255.306 721.77 253.549 720.73 252.416C719.712 251.26 718.036 250.682 715.701 250.682C712.302 250.682 709.77 252.219 708.105 255.294V282H699.677V244.473H707.62ZM749.898 235.352V244.473H756.522V250.716H749.898V271.665C749.898 273.098 750.175 274.139 750.73 274.786C751.308 275.41 752.326 275.722 753.782 275.722C754.753 275.722 755.736 275.607 756.73 275.376V281.896C754.811 282.428 752.962 282.694 751.181 282.694C744.707 282.694 741.47 279.121 741.47 271.977V250.716H735.297V244.473H741.47V235.352H749.898Z" fill="white"/>
<path d="M162.817 36.3467C168.948 -12.1156 95.3812 -12.1156 101.512 36.3467L101.148 89.6552H898.486V36.3467C904.617 -12.1156 831.05 -12.1156 837.181 36.3467C843.311 84.809 769.744 84.809 775.875 36.3467C782.005 -12.1156 708.439 -12.1156 714.569 36.3467C720.7 84.809 647.133 84.809 653.263 36.3467C659.394 -12.1156 585.827 -12.1156 591.958 36.3467C598.088 84.809 524.521 84.809 530.652 36.3467C536.782 -12.1156 463.216 -12.1156 469.346 36.3467C475.477 84.809 401.91 84.809 408.04 36.3467C414.171 -12.1156 340.604 -12.1156 346.735 36.3467C352.865 84.809 279.298 84.809 285.429 36.3467C291.56 -12.1156 217.993 -12.1156 224.123 36.3467C230.254 84.809 156.687 84.809 162.817 36.3467Z" fill="#333333"/>
<path d="M162.817 963.653C168.948 1012.12 95.3812 1012.12 101.512 963.653L101.148 910.345H898.486V963.653C904.617 1012.12 831.05 1012.12 837.181 963.653C843.311 915.191 769.744 915.191 775.875 963.653C782.005 1012.12 708.439 1012.12 714.569 963.653C720.7 915.191 647.133 915.191 653.263 963.653C659.394 1012.12 585.827 1012.12 591.958 963.653C598.088 915.191 524.521 915.191 530.652 963.653C536.782 1012.12 463.216 1012.12 469.346 963.653C475.477 915.191 401.91 915.191 408.04 963.653C414.171 1012.12 340.604 1012.12 346.735 963.653C352.865 915.191 279.298 915.191 285.429 963.653C291.56 1012.12 217.993 1012.12 224.123 963.653C230.254 915.191 156.687 915.191 162.817 963.653Z" fill="#333333"/>
</svg>
