<svg width="1000" height="1000" viewBox="0 0 1000 1000" fill="none" xmlns="http://www.w3.org/2000/svg">
<rect y="140" width="500" height="720" rx="20" fill="#333333"/>
<rect x="500" y="140" width="500" height="720" rx="20" fill="#333333"/>
<rect x="524" y="274" width="451" height="451" rx="6.57184" fill="white"/>
<path d="M847.91 318.266H933.494V403.849" stroke="#C2C2C2" stroke-width="16.2621"/>
<path d="M651.07 318.266H565.487V403.849" stroke="#C2C2C2" stroke-width="16.2621"/>
<path d="M847.91 686.271H933.494V600.688" stroke="#C2C2C2" stroke-width="16.2621"/>
<path d="M651.07 686.271H565.487V600.688" stroke="#C2C2C2" stroke-width="16.2621"/>
<path d="M652.816 465.499L646.087 445.917L638.936 465.499H652.816ZM642.949 439.339H649.738L665.821 483.664H659.243L654.747 470.388H637.216L632.418 483.664H626.263L642.949 439.339ZM673.998 467.883C673.998 471.343 674.732 474.24 676.2 476.573C677.669 478.907 680.023 480.073 683.261 480.073C685.776 480.073 687.838 478.997 689.447 476.845C691.076 474.672 691.891 471.564 691.891 467.521C691.891 463.438 691.056 460.42 689.386 458.469C687.717 456.498 685.655 455.512 683.201 455.512C680.465 455.512 678.242 456.558 676.532 458.65C674.843 460.742 673.998 463.82 673.998 467.883ZM682.175 450.775C684.649 450.775 686.721 451.298 688.391 452.344C689.356 452.947 690.453 454.003 691.68 455.512V439.188H696.9V483.664H692.012V479.168C690.744 481.16 689.246 482.598 687.516 483.483C685.786 484.368 683.804 484.811 681.571 484.811C677.971 484.811 674.853 483.302 672.218 480.285C669.582 477.247 668.265 473.214 668.265 468.185C668.265 463.478 669.462 459.404 671.855 455.964C674.269 452.505 677.709 450.775 682.175 450.775ZM708.396 467.883C708.396 471.343 709.13 474.24 710.599 476.573C712.067 478.907 714.421 480.073 717.659 480.073C720.174 480.073 722.236 478.997 723.845 476.845C725.474 474.672 726.289 471.564 726.289 467.521C726.289 463.438 725.454 460.42 723.785 458.469C722.115 456.498 720.053 455.512 717.599 455.512C714.863 455.512 712.64 456.558 710.931 458.65C709.241 460.742 708.396 463.82 708.396 467.883ZM716.573 450.775C719.047 450.775 721.119 451.298 722.789 452.344C723.755 452.947 724.851 454.003 726.078 455.512V439.188H731.298V483.664H726.41V479.168C725.143 481.16 723.644 482.598 721.914 483.483C720.184 484.368 718.203 484.811 715.97 484.811C712.369 484.811 709.251 483.302 706.616 480.285C703.981 477.247 702.663 473.214 702.663 468.185C702.663 463.478 703.86 459.404 706.254 455.964C708.668 452.505 712.107 450.775 716.573 450.775ZM776.74 451.348H782.744C781.98 453.42 780.28 458.147 777.645 465.53C775.674 471.082 774.024 475.608 772.697 479.108C769.558 487.355 767.346 492.384 766.058 494.195C764.771 496.005 762.558 496.91 759.42 496.91C758.656 496.91 758.062 496.88 757.64 496.82C757.237 496.76 756.735 496.649 756.131 496.488V491.539C757.077 491.801 757.76 491.962 758.183 492.022C758.605 492.083 758.978 492.113 759.299 492.113C760.305 492.113 761.039 491.942 761.502 491.6C761.985 491.278 762.387 490.876 762.709 490.393C762.81 490.232 763.172 489.407 763.795 487.919C764.419 486.43 764.871 485.324 765.153 484.599L753.204 451.348H759.36L768.02 477.659L776.74 451.348ZM800.275 480.164C803.876 480.164 806.34 478.806 807.668 476.09C809.016 473.355 809.69 470.317 809.69 466.978C809.69 463.961 809.207 461.506 808.241 459.615C806.713 456.638 804.077 455.15 800.336 455.15C797.017 455.15 794.603 456.417 793.094 458.952C791.585 461.486 790.831 464.544 790.831 468.125C790.831 471.564 791.585 474.431 793.094 476.724C794.603 479.017 796.997 480.164 800.275 480.164ZM800.487 450.412C804.651 450.412 808.171 451.8 811.048 454.576C813.924 457.352 815.362 461.436 815.362 466.827C815.362 472.037 814.095 476.342 811.561 479.741C809.026 483.141 805.093 484.841 799.763 484.841C795.317 484.841 791.787 483.342 789.171 480.345C786.556 477.328 785.249 473.284 785.249 468.215C785.249 462.784 786.627 458.459 789.383 455.24C792.139 452.022 795.84 450.412 800.487 450.412ZM827.281 451.348V472.801C827.281 474.451 827.543 475.799 828.066 476.845C829.031 478.776 830.832 479.741 833.467 479.741C837.249 479.741 839.823 478.052 841.191 474.672C841.936 472.862 842.308 470.377 842.308 467.219V451.348H847.739V483.664H842.609L842.67 478.897C841.966 480.124 841.091 481.16 840.045 482.004C837.973 483.694 835.458 484.539 832.501 484.539C827.895 484.539 824.757 483 823.087 479.923C822.182 478.273 821.729 476.07 821.729 473.314V451.348H827.281ZM856.399 451.348H861.559V456.93C861.981 455.844 863.017 454.526 864.667 452.977C866.316 451.408 868.217 450.624 870.369 450.624C870.47 450.624 870.641 450.634 870.882 450.654C871.124 450.674 871.536 450.714 872.119 450.775V456.508C871.798 456.447 871.496 456.407 871.214 456.387C870.953 456.367 870.661 456.357 870.339 456.357C867.603 456.357 865.501 457.242 864.033 459.012C862.564 460.762 861.83 462.784 861.83 465.077V483.664H856.399V451.348Z" fill="#C2C2C2"/>
<path d="M653.359 560.739C651.368 561.403 648.984 561.735 646.208 561.735C640.415 561.735 635.627 560.005 631.845 556.545C627.259 552.381 624.966 546.266 624.966 538.2C624.966 530.073 627.319 523.927 632.026 519.763C635.868 516.364 640.646 514.664 646.359 514.664C652.112 514.664 656.94 516.464 660.842 520.065C665.348 524.229 667.601 530.053 667.601 537.536C667.601 541.499 667.119 544.818 666.153 547.493C665.368 550.048 664.212 552.17 662.683 553.86L667.813 558.657L662.955 563.727L657.584 558.657C655.954 559.643 654.546 560.337 653.359 560.739ZM651.368 552.713L646.872 548.428L651.67 543.42L656.165 547.704C656.869 546.256 657.362 544.989 657.644 543.902C658.086 542.273 658.308 540.372 658.308 538.2C658.308 533.211 657.282 529.359 655.23 526.643C653.198 523.907 650.221 522.539 646.299 522.539C642.617 522.539 639.68 523.847 637.488 526.462C635.295 529.077 634.199 532.99 634.199 538.2C634.199 544.295 635.768 548.66 638.906 551.295C640.938 553.005 643.372 553.86 646.208 553.86C647.274 553.86 648.3 553.729 649.286 553.468C649.829 553.327 650.523 553.075 651.368 552.713ZM693.611 543.058H684.016V560.498H674.934V516.022H696.749C699.867 516.082 702.261 516.464 703.931 517.168C705.62 517.872 707.049 518.908 708.215 520.276C709.181 521.403 709.945 522.65 710.509 524.018C711.072 525.386 711.353 526.945 711.353 528.695C711.353 530.807 710.82 532.889 709.754 534.941C708.688 536.972 706.928 538.411 704.474 539.256C706.526 540.08 707.974 541.257 708.819 542.786C709.684 544.295 710.116 546.608 710.116 549.726V552.713C710.116 554.745 710.197 556.123 710.358 556.847C710.599 557.994 711.162 558.838 712.047 559.382V560.498H701.819C701.537 559.512 701.336 558.718 701.215 558.114C700.974 556.867 700.843 555.59 700.823 554.282L700.762 550.148C700.722 547.312 700.199 545.421 699.193 544.476C698.208 543.53 696.347 543.058 693.611 543.058ZM699.254 534.971C701.104 534.126 702.03 532.456 702.03 529.962C702.03 527.267 701.135 525.456 699.344 524.531C698.338 524.008 696.83 523.746 694.818 523.746H684.016V535.695H694.547C696.639 535.695 698.208 535.454 699.254 534.971ZM764.339 539.407H755.528C755.367 538.179 754.955 537.073 754.291 536.087C753.325 534.76 751.827 534.096 749.795 534.096C746.898 534.096 744.917 535.534 743.851 538.411C743.287 539.94 743.006 541.971 743.006 544.506C743.006 546.92 743.287 548.861 743.851 550.329C744.877 553.065 746.808 554.433 749.644 554.433C751.656 554.433 753.084 553.89 753.929 552.804C754.774 551.717 755.287 550.309 755.468 548.579H764.248C764.047 551.194 763.102 553.669 761.412 556.002C758.716 559.764 754.723 561.645 749.433 561.645C744.142 561.645 740.25 560.076 737.756 556.938C735.261 553.799 734.014 549.726 734.014 544.717C734.014 539.065 735.392 534.669 738.148 531.531C740.904 528.393 744.706 526.824 749.554 526.824C753.677 526.824 757.047 527.749 759.662 529.6C762.297 531.451 763.856 534.719 764.339 539.407ZM797.711 531.773C800.487 535.253 801.875 539.366 801.875 544.114C801.875 548.941 800.487 553.075 797.711 556.515C794.935 559.935 790.721 561.645 785.068 561.645C779.416 561.645 775.201 559.935 772.425 556.515C769.649 553.075 768.261 548.941 768.261 544.114C768.261 539.366 769.649 535.253 772.425 531.773C775.201 528.292 779.416 526.552 785.068 526.552C790.721 526.552 794.935 528.292 797.711 531.773ZM785.038 533.824C782.524 533.824 780.582 534.719 779.215 536.51C777.867 538.28 777.193 540.815 777.193 544.114C777.193 547.413 777.867 549.957 779.215 551.748C780.582 553.538 782.524 554.433 785.038 554.433C787.553 554.433 789.484 553.538 790.831 551.748C792.179 549.957 792.853 547.413 792.853 544.114C792.853 540.815 792.179 538.28 790.831 536.51C789.484 534.719 787.553 533.824 785.038 533.824ZM837.993 516.082V560.498H829.635V555.942C828.408 557.893 827.01 559.311 825.441 560.196C823.872 561.081 821.921 561.524 819.587 561.524C815.745 561.524 812.506 559.975 809.871 556.877C807.256 553.759 805.949 549.766 805.949 544.898C805.949 539.286 807.236 534.87 809.811 531.652C812.406 528.433 815.866 526.824 820.191 526.824C822.182 526.824 823.952 527.267 825.501 528.152C827.05 529.017 828.307 530.224 829.273 531.773V516.082H837.993ZM814.82 544.264C814.82 547.302 815.423 549.726 816.63 551.536C817.817 553.367 819.627 554.282 822.061 554.282C824.495 554.282 826.346 553.377 827.613 551.567C828.881 549.756 829.514 547.413 829.514 544.536C829.514 540.513 828.499 537.636 826.467 535.906C825.22 534.86 823.771 534.337 822.122 534.337C819.607 534.337 817.757 535.293 816.57 537.204C815.403 539.095 814.82 541.448 814.82 544.264ZM873.991 550.842C873.769 552.794 872.754 554.775 870.943 556.787C868.127 559.985 864.184 561.584 859.115 561.584C854.931 561.584 851.24 560.237 848.041 557.541C844.843 554.845 843.243 550.46 843.243 544.385C843.243 538.692 844.682 534.327 847.558 531.29C850.455 528.252 854.207 526.733 858.813 526.733C861.549 526.733 864.013 527.246 866.206 528.272C868.398 529.298 870.209 530.918 871.637 533.13C872.925 535.082 873.759 537.345 874.142 539.919C874.363 541.428 874.453 543.601 874.413 546.437H851.903C852.024 549.736 853.06 552.049 855.011 553.377C856.198 554.202 857.626 554.614 859.296 554.614C861.066 554.614 862.504 554.111 863.611 553.105C864.214 552.562 864.747 551.808 865.21 550.842H873.991ZM865.482 540.764C865.341 538.491 864.647 536.771 863.4 535.605C862.173 534.418 860.644 533.824 858.813 533.824C856.822 533.824 855.273 534.448 854.166 535.695C853.08 536.942 852.396 538.632 852.115 540.764H865.482Z" fill="#C2C2C2"/>
<line x1="73" y1="432.5" x2="426" y2="432.5" stroke="white" stroke-width="3"/>
<line x1="73" y1="531.5" x2="426" y2="531.5" stroke="white" stroke-width="3"/>
<line x1="73" y1="636.5" x2="426" y2="636.5" stroke="white" stroke-width="3"/>
<path d="M140.348 405.771H123.33L119.77 416H111.834L128.429 372.067H135.279L151.905 416H143.939L140.348 405.771ZM125.472 399.616H138.206L131.839 381.391L125.472 399.616ZM154.832 399.435C154.832 394.406 155.998 390.372 158.332 387.335C160.665 384.277 163.793 382.748 167.716 382.748C171.176 382.748 173.972 383.955 176.104 386.369V369.653H183.436V416H176.798L176.436 412.621C174.243 415.276 171.317 416.603 167.655 416.603C163.833 416.603 160.736 415.065 158.362 411.987C156.008 408.909 154.832 404.725 154.832 399.435ZM162.164 400.068C162.164 403.387 162.797 405.982 164.065 407.853C165.352 409.704 167.173 410.629 169.526 410.629C172.524 410.629 174.716 409.291 176.104 406.616V392.676C174.756 390.061 172.584 388.753 169.587 388.753C167.213 388.753 165.382 389.698 164.095 391.589C162.808 393.46 162.164 396.286 162.164 400.068ZM189.713 399.435C189.713 394.406 190.879 390.372 193.213 387.335C195.546 384.277 198.674 382.748 202.597 382.748C206.057 382.748 208.853 383.955 210.985 386.369V369.653H218.317V416H211.679L211.317 412.621C209.124 415.276 206.198 416.603 202.536 416.603C198.714 416.603 195.617 415.065 193.243 411.987C190.889 408.909 189.713 404.725 189.713 399.435ZM197.045 400.068C197.045 403.387 197.678 405.982 198.946 407.853C200.233 409.704 202.054 410.629 204.407 410.629C207.405 410.629 209.597 409.291 210.985 406.616V392.676C209.637 390.061 207.465 388.753 204.468 388.753C202.094 388.753 200.263 389.698 198.976 391.589C197.689 393.46 197.045 396.286 197.045 400.068ZM255.733 416.603C251.086 416.603 247.315 415.145 244.418 412.228C241.541 409.291 240.103 405.389 240.103 400.521V399.616C240.103 396.357 240.727 393.45 241.974 390.895C243.241 388.32 245.011 386.319 247.284 384.891C249.557 383.462 252.092 382.748 254.888 382.748C259.334 382.748 262.764 384.167 265.177 387.003C267.611 389.839 268.829 393.852 268.829 399.042V401.999H247.496C247.717 404.695 248.612 406.827 250.181 408.396C251.77 409.965 253.762 410.75 256.155 410.75C259.515 410.75 262.251 409.392 264.363 406.676L268.316 410.448C267.008 412.399 265.258 413.918 263.065 415.004C260.893 416.07 258.449 416.603 255.733 416.603ZM254.858 388.632C252.846 388.632 251.217 389.336 249.97 390.744C248.743 392.153 247.958 394.114 247.616 396.628H261.587V396.085C261.426 393.631 260.772 391.78 259.625 390.533C258.479 389.266 256.89 388.632 254.858 388.632ZM285.635 406.706L292.545 383.352H300.119L288.804 416H282.437L271.031 383.352H278.635L285.635 406.706ZM318.676 416.603C314.029 416.603 310.257 415.145 307.361 412.228C304.484 409.291 303.046 405.389 303.046 400.521V399.616C303.046 396.357 303.669 393.45 304.916 390.895C306.184 388.32 307.954 386.319 310.227 384.891C312.5 383.462 315.035 382.748 317.831 382.748C322.276 382.748 325.706 384.167 328.12 387.003C330.554 389.839 331.771 393.852 331.771 399.042V401.999H310.438C310.66 404.695 311.555 406.827 313.124 408.396C314.713 409.965 316.704 410.75 319.098 410.75C322.458 410.75 325.193 409.392 327.305 406.676L331.258 410.448C329.951 412.399 328.201 413.918 326.008 415.004C323.835 416.07 321.391 416.603 318.676 416.603ZM317.801 388.632C315.789 388.632 314.16 389.336 312.913 390.744C311.685 392.153 310.901 394.114 310.559 396.628H324.529V396.085C324.369 393.631 323.715 391.78 322.568 390.533C321.422 389.266 319.832 388.632 317.801 388.632ZM344.293 383.352L344.505 387.124C346.918 384.207 350.087 382.748 354.009 382.748C360.809 382.748 364.268 386.641 364.389 394.426V416H357.057V394.848C357.057 392.776 356.604 391.247 355.699 390.262C354.814 389.256 353.356 388.753 351.324 388.753C348.367 388.753 346.164 390.091 344.716 392.766V416H337.384V383.352H344.293ZM381.075 375.416V383.352H386.839V388.783H381.075V407.008C381.075 408.255 381.317 409.161 381.8 409.724C382.302 410.267 383.188 410.539 384.455 410.539C385.3 410.539 386.155 410.438 387.02 410.237V415.909C385.35 416.372 383.741 416.603 382.192 416.603C376.559 416.603 373.743 413.496 373.743 407.28V388.783H368.372V383.352H373.743V375.416H381.075Z" fill="white"/>
<path d="M235.017 474.416V482.352H240.78V487.783H235.017V506.008C235.017 507.255 235.258 508.161 235.741 508.724C236.244 509.267 237.129 509.539 238.396 509.539C239.241 509.539 240.096 509.438 240.961 509.237V514.909C239.291 515.372 237.682 515.603 236.133 515.603C230.501 515.603 227.684 512.496 227.684 506.28V487.783H222.313V482.352H227.684V474.416H235.017ZM244.129 498.374C244.129 495.176 244.763 492.299 246.03 489.744C247.297 487.17 249.078 485.198 251.371 483.83C253.664 482.442 256.299 481.748 259.276 481.748C263.682 481.748 267.252 483.167 269.988 486.003C272.744 488.839 274.233 492.601 274.454 497.288L274.484 499.008C274.484 502.226 273.86 505.103 272.613 507.638C271.386 510.172 269.616 512.133 267.303 513.521C265.009 514.909 262.354 515.603 259.337 515.603C254.73 515.603 251.039 514.075 248.263 511.017C245.507 507.939 244.129 503.846 244.129 498.736V498.374ZM251.461 499.008C251.461 502.367 252.155 505.002 253.543 506.913C254.931 508.804 256.862 509.75 259.337 509.75C261.811 509.75 263.732 508.784 265.1 506.853C266.488 504.922 267.182 502.096 267.182 498.374C267.182 495.075 266.468 492.46 265.04 490.529C263.631 488.598 261.71 487.632 259.276 487.632C256.883 487.632 254.982 488.588 253.573 490.499C252.165 492.39 251.461 495.226 251.461 499.008Z" fill="white"/>
<path d="M147.169 614.75C148.999 614.75 150.518 614.217 151.725 613.151C152.932 612.084 153.576 610.767 153.656 609.198H160.566C160.486 611.229 159.852 613.13 158.665 614.901C157.478 616.651 155.869 618.039 153.837 619.065C151.806 620.091 149.613 620.603 147.259 620.603C142.693 620.603 139.072 619.125 136.397 616.168C133.721 613.211 132.384 609.127 132.384 603.917V603.163C132.384 598.194 133.711 594.221 136.367 591.244C139.022 588.247 142.643 586.748 147.229 586.748C151.112 586.748 154.27 587.885 156.704 590.158C159.158 592.411 160.445 595.378 160.566 599.059H153.656C153.576 597.189 152.932 595.65 151.725 594.443C150.538 593.236 149.02 592.632 147.169 592.632C144.795 592.632 142.965 593.497 141.677 595.227C140.39 596.937 139.736 599.542 139.716 603.042V604.219C139.716 607.759 140.35 610.405 141.617 612.155C142.904 613.885 144.755 614.75 147.169 614.75ZM185.61 620C185.289 619.376 185.007 618.361 184.766 616.952C182.432 619.386 179.576 620.603 176.196 620.603C172.917 620.603 170.242 619.668 168.17 617.797C166.098 615.927 165.062 613.613 165.062 610.857C165.062 607.377 166.349 604.712 168.924 602.861C171.519 600.99 175.221 600.055 180.028 600.055H184.524V597.913C184.524 596.223 184.051 594.875 183.106 593.869C182.161 592.844 180.722 592.331 178.791 592.331C177.122 592.331 175.754 592.753 174.688 593.598C173.621 594.423 173.088 595.479 173.088 596.766H165.756C165.756 594.976 166.349 593.306 167.536 591.757C168.723 590.188 170.332 588.961 172.364 588.076C174.416 587.191 176.699 586.748 179.214 586.748C183.036 586.748 186.083 587.714 188.356 589.645C190.629 591.556 191.796 594.252 191.856 597.732V612.457C191.856 615.393 192.269 617.737 193.094 619.487V620H185.61ZM177.554 614.72C179.002 614.72 180.36 614.368 181.628 613.663C182.915 612.959 183.88 612.014 184.524 610.827V604.672H180.571C177.856 604.672 175.814 605.144 174.446 606.09C173.078 607.035 172.394 608.373 172.394 610.103C172.394 611.511 172.857 612.638 173.782 613.482C174.728 614.307 175.985 614.72 177.554 614.72ZM207.336 620H200.003V573.653H207.336V620ZM229.725 620.603C225.078 620.603 221.306 619.145 218.409 616.228C215.533 613.291 214.095 609.389 214.095 604.521V603.616C214.095 600.357 214.718 597.45 215.965 594.895C217.233 592.32 219.003 590.319 221.276 588.891C223.549 587.462 226.084 586.748 228.88 586.748C233.325 586.748 236.755 588.167 239.169 591.003C241.603 593.839 242.82 597.852 242.82 603.042V605.999H221.487C221.708 608.695 222.604 610.827 224.173 612.396C225.762 613.965 227.753 614.75 230.147 614.75C233.506 614.75 236.242 613.392 238.354 610.676L242.307 614.448C241 616.399 239.25 617.918 237.057 619.004C234.884 620.07 232.44 620.603 229.725 620.603ZM228.85 592.632C226.838 592.632 225.209 593.336 223.961 594.744C222.734 596.153 221.95 598.114 221.608 600.628H235.578V600.085C235.417 597.631 234.764 595.78 233.617 594.533C232.47 593.266 230.881 592.632 228.85 592.632ZM255.342 587.352L255.554 591.124C257.967 588.207 261.136 586.748 265.058 586.748C271.857 586.748 275.317 590.641 275.438 598.426V620H268.106V598.848C268.106 596.776 267.653 595.247 266.748 594.262C265.863 593.256 264.405 592.753 262.373 592.753C259.416 592.753 257.213 594.091 255.765 596.766V620H248.432V587.352H255.342ZM281.563 603.435C281.563 598.406 282.73 594.372 285.064 591.335C287.397 588.277 290.525 586.748 294.448 586.748C297.908 586.748 300.704 587.955 302.836 590.369V573.653H310.168V620H303.53L303.168 616.621C300.975 619.276 298.048 620.603 294.387 620.603C290.565 620.603 287.467 619.065 285.094 615.987C282.74 612.909 281.563 608.725 281.563 603.435ZM288.896 604.068C288.896 607.387 289.529 609.982 290.797 611.853C292.084 613.704 293.905 614.629 296.258 614.629C299.255 614.629 301.448 613.291 302.836 610.616V596.676C301.488 594.061 299.316 592.753 296.318 592.753C293.945 592.753 292.114 593.698 290.827 595.589C289.539 597.46 288.896 600.286 288.896 604.068ZM337.325 620C337.003 619.376 336.721 618.361 336.48 616.952C334.146 619.386 331.29 620.603 327.91 620.603C324.632 620.603 321.956 619.668 319.884 617.797C317.812 615.927 316.776 613.613 316.776 610.857C316.776 607.377 318.064 604.712 320.639 602.861C323.234 600.99 326.935 600.055 331.743 600.055H336.238V597.913C336.238 596.223 335.766 594.875 334.82 593.869C333.875 592.844 332.437 592.331 330.505 592.331C328.836 592.331 327.468 592.753 326.402 593.598C325.336 594.423 324.803 595.479 324.803 596.766H317.47C317.47 594.976 318.064 593.306 319.251 591.757C320.437 590.188 322.047 588.961 324.078 588.076C326.13 587.191 328.413 586.748 330.928 586.748C334.75 586.748 337.797 587.714 340.071 589.645C342.344 591.556 343.51 594.252 343.571 597.732V612.457C343.571 615.393 343.983 617.737 344.808 619.487V620H337.325ZM329.268 614.72C330.717 614.72 332.074 614.368 333.342 613.663C334.629 612.959 335.595 612.014 336.238 610.827V604.672H332.286C329.57 604.672 327.528 605.144 326.16 606.09C324.793 607.035 324.109 608.373 324.109 610.103C324.109 611.511 324.571 612.638 325.497 613.482C326.442 614.307 327.699 614.72 329.268 614.72ZM368.343 594.05C367.378 593.89 366.382 593.809 365.356 593.809C361.997 593.809 359.734 595.096 358.567 597.671V620H351.235V587.352H358.235L358.416 591.003C360.186 588.167 362.641 586.748 365.779 586.748C366.825 586.748 367.69 586.889 368.374 587.171L368.343 594.05Z" fill="white"/>
<rect x="496" y="140" width="8" height="720" fill="white"/>
</svg>
