<svg width="1000" height="1000" viewBox="0 0 1000 1000" fill="none" xmlns="http://www.w3.org/2000/svg">
<rect y="4" width="861" height="761" rx="25" fill="#333333"/>
<rect y="810" width="861" height="190" rx="25" fill="#333333"/>
<circle cx="874" cy="218" r="115" fill="white" stroke="#333333" stroke-width="12"/>
<rect x="81" y="54" width="661" height="661" rx="9.6319" fill="white"/>
<path d="M555.734 118.879H681.168V244.313" stroke="#C2C2C2" stroke-width="23.8343"/>
<path d="M267.238 118.879H141.805V244.313" stroke="#C2C2C2" stroke-width="23.8343"/>
<path d="M555.734 658.24H681.168V532.806" stroke="#C2C2C2" stroke-width="23.8343"/>
<path d="M267.238 658.24H141.805V532.806" stroke="#C2C2C2" stroke-width="23.8343"/>
<path d="M269.797 334.057L259.935 305.356L249.454 334.057H269.797ZM255.336 295.715H265.286L288.858 360.68H279.217L272.627 341.221H246.933L239.902 360.68H230.88L255.336 295.715ZM300.842 337.551C300.842 342.622 301.918 346.867 304.071 350.287C306.223 353.707 309.672 355.417 314.419 355.417C318.104 355.417 321.126 353.84 323.485 350.685C325.873 347.501 327.067 342.946 327.067 337.02C327.067 331.035 325.843 326.613 323.396 323.753C320.949 320.864 317.927 319.419 314.331 319.419C310.321 319.419 307.063 320.952 304.557 324.018C302.081 327.084 300.842 331.595 300.842 337.551ZM312.827 312.476C316.453 312.476 319.49 313.242 321.937 314.775C323.352 315.66 324.959 317.208 326.757 319.419V295.494H334.408V360.68H327.244V354.09C325.386 357.009 323.19 359.117 320.655 360.414C318.119 361.712 315.215 362.36 311.942 362.36C306.665 362.36 302.095 360.149 298.233 355.727C294.371 351.275 292.44 345.364 292.44 337.993C292.44 331.094 294.194 325.124 297.702 320.082C301.24 315.011 306.282 312.476 312.827 312.476ZM351.257 337.551C351.257 342.622 352.334 346.867 354.486 350.287C356.638 353.707 360.087 355.417 364.834 355.417C368.519 355.417 371.541 353.84 373.9 350.685C376.288 347.501 377.482 342.946 377.482 337.02C377.482 331.035 376.259 326.613 373.812 323.753C371.365 320.864 368.343 319.419 364.746 319.419C360.736 319.419 357.478 320.952 354.972 324.018C352.496 327.084 351.257 331.595 351.257 337.551ZM363.242 312.476C366.868 312.476 369.905 313.242 372.352 314.775C373.767 315.66 375.374 317.208 377.173 319.419V295.494H384.823V360.68H377.659V354.09C375.802 357.009 373.605 359.117 371.07 360.414C368.534 361.712 365.63 362.36 362.358 362.36C357.08 362.36 352.51 360.149 348.648 355.727C344.786 351.275 342.855 345.364 342.855 337.993C342.855 331.094 344.609 325.124 348.118 320.082C351.655 315.011 356.697 312.476 363.242 312.476ZM451.424 313.316H460.225C459.105 316.353 456.613 323.281 452.751 334.101C449.862 342.238 447.444 348.872 445.498 354.002C440.899 366.09 437.656 373.46 435.769 376.114C433.882 378.767 430.639 380.094 426.04 380.094C424.92 380.094 424.05 380.05 423.431 379.961C422.841 379.873 422.104 379.711 421.219 379.475V372.222C422.605 372.605 423.608 372.841 424.227 372.93C424.846 373.018 425.391 373.062 425.863 373.062C427.337 373.062 428.413 372.812 429.091 372.311C429.799 371.839 430.389 371.249 430.86 370.542C431.008 370.306 431.538 369.097 432.452 366.915C433.366 364.734 434.03 363.112 434.442 362.051L416.93 313.316H425.951L438.644 351.879L451.424 313.316ZM485.919 355.55C491.196 355.55 494.808 353.56 496.754 349.58C498.729 345.57 499.717 341.118 499.717 336.224C499.717 331.802 499.009 328.205 497.594 325.433C495.353 321.07 491.491 318.888 486.007 318.888C481.143 318.888 477.605 320.746 475.394 324.46C473.182 328.175 472.077 332.657 472.077 337.904C472.077 342.946 473.182 347.147 475.394 350.508C477.605 353.869 481.113 355.55 485.919 355.55ZM486.228 311.945C492.331 311.945 497.491 313.979 501.707 318.048C505.923 322.117 508.031 328.101 508.031 336.003C508.031 343.639 506.173 349.948 502.459 354.931C498.744 359.913 492.98 362.404 485.167 362.404C478.651 362.404 473.477 360.208 469.645 355.815C465.812 351.393 463.895 345.467 463.895 338.037C463.895 330.077 465.915 323.738 469.954 319.021C473.993 314.304 479.418 311.945 486.228 311.945ZM525.499 313.316V344.759C525.499 347.177 525.883 349.152 526.649 350.685C528.064 353.515 530.703 354.931 534.565 354.931C540.108 354.931 543.882 352.454 545.886 347.501C546.977 344.848 547.523 341.206 547.523 336.578V313.316H555.483V360.68H547.965L548.053 353.692C547.021 355.491 545.739 357.009 544.206 358.247C541.169 360.724 537.484 361.962 533.15 361.962C526.398 361.962 521.799 359.707 519.352 355.196C518.025 352.778 517.362 349.55 517.362 345.511V313.316H525.499ZM568.175 313.316H575.737V321.497C576.357 319.905 577.875 317.974 580.292 315.704C582.71 313.404 585.496 312.255 588.651 312.255C588.798 312.255 589.049 312.269 589.403 312.299C589.756 312.328 590.361 312.387 591.216 312.476V320.878C590.744 320.79 590.302 320.731 589.889 320.701C589.506 320.672 589.078 320.657 588.607 320.657C584.597 320.657 581.516 321.954 579.364 324.549C577.212 327.114 576.135 330.077 576.135 333.438V360.68H568.175V313.316Z" fill="#C2C2C2"/>
<path d="M270.596 473.645C267.677 474.618 264.184 475.104 260.115 475.104C251.624 475.104 244.607 472.569 239.065 467.498C232.343 461.395 228.982 452.432 228.982 440.61C228.982 428.699 232.431 419.692 239.33 413.589C244.961 408.606 251.963 406.115 260.336 406.115C268.768 406.115 275.844 408.754 281.564 414.031C288.168 420.134 291.47 428.669 291.47 439.637C291.47 445.445 290.762 450.309 289.347 454.231C288.197 457.975 286.502 461.085 284.261 463.562L291.779 470.593L284.659 478.023L276.788 470.593C274.399 472.038 272.336 473.055 270.596 473.645ZM267.677 461.881L261.088 455.601L268.12 448.26L274.709 454.54C275.741 452.417 276.463 450.56 276.876 448.968C277.525 446.58 277.849 443.794 277.849 440.61C277.849 433.298 276.345 427.652 273.338 423.672C270.36 419.662 265.997 417.657 260.248 417.657C254.853 417.657 250.548 419.574 247.334 423.407C244.121 427.239 242.514 432.974 242.514 440.61C242.514 449.543 244.814 455.941 249.413 459.803C252.391 462.309 255.958 463.562 260.115 463.562C261.678 463.562 263.181 463.37 264.626 462.987C265.422 462.78 266.439 462.412 267.677 461.881ZM329.591 447.73H315.528V473.291H302.216V408.105H334.19C338.76 408.194 342.268 408.754 344.715 409.786C347.192 410.818 349.285 412.336 350.995 414.341C352.41 415.992 353.531 417.82 354.356 419.824C355.182 421.829 355.594 424.114 355.594 426.679C355.594 429.775 354.813 432.826 353.25 435.833C351.688 438.811 349.108 440.919 345.511 442.157C348.519 443.366 350.641 445.091 351.88 447.332C353.147 449.543 353.781 452.933 353.781 457.503V461.881C353.781 464.859 353.899 466.879 354.135 467.94C354.489 469.62 355.314 470.859 356.611 471.655V473.291H341.62C341.207 471.846 340.912 470.682 340.735 469.797C340.381 467.969 340.19 466.097 340.16 464.181L340.072 458.122C340.013 453.965 339.246 451.194 337.772 449.808C336.328 448.422 333.6 447.73 329.591 447.73ZM337.861 435.878C340.573 434.639 341.929 432.192 341.929 428.537C341.929 424.586 340.617 421.932 337.993 420.576C336.519 419.81 334.308 419.426 331.36 419.426H315.528V436.939H330.962C334.028 436.939 336.328 436.585 337.861 435.878ZM433.251 442.379H420.338C420.102 440.58 419.498 438.959 418.525 437.514C417.11 435.568 414.913 434.595 411.935 434.595C407.69 434.595 404.786 436.703 403.223 440.919C402.398 443.16 401.985 446.138 401.985 449.852C401.985 453.39 402.398 456.235 403.223 458.388C404.727 462.397 407.557 464.402 411.714 464.402C414.663 464.402 416.756 463.606 417.994 462.014C419.232 460.422 419.984 458.358 420.25 455.823H433.119C432.824 459.655 431.438 463.282 428.962 466.702C425.011 472.215 419.159 474.972 411.405 474.972C403.651 474.972 397.946 472.672 394.29 468.073C390.634 463.473 388.806 457.503 388.806 450.162C388.806 441.877 390.826 435.435 394.865 430.836C398.904 426.237 404.476 423.937 411.582 423.937C417.626 423.937 422.564 425.293 426.397 428.006C430.259 430.718 432.544 435.509 433.251 442.379ZM482.163 431.19C486.231 436.29 488.266 442.32 488.266 449.277C488.266 456.353 486.231 462.412 482.163 467.453C478.094 472.466 471.918 474.972 463.633 474.972C455.349 474.972 449.172 472.466 445.103 467.453C441.035 462.412 439 456.353 439 449.277C439 442.32 441.035 436.29 445.103 431.19C449.172 426.089 455.349 423.539 463.633 423.539C471.918 423.539 478.094 426.089 482.163 431.19ZM463.589 434.197C459.904 434.197 457.058 435.509 455.054 438.133C453.078 440.728 452.091 444.442 452.091 449.277C452.091 454.113 453.078 457.842 455.054 460.466C457.058 463.09 459.904 464.402 463.589 464.402C467.274 464.402 470.105 463.09 472.08 460.466C474.055 457.842 475.043 454.113 475.043 449.277C475.043 444.442 474.055 440.728 472.08 438.133C470.105 435.509 467.274 434.197 463.589 434.197ZM541.202 408.194V473.291H528.952V466.613C527.153 469.473 525.104 471.552 522.805 472.849C520.505 474.146 517.645 474.795 514.225 474.795C508.594 474.795 503.847 472.524 499.985 467.984C496.152 463.414 494.236 457.562 494.236 450.427C494.236 442.202 496.123 435.73 499.897 431.013C503.7 426.296 508.771 423.937 515.11 423.937C518.028 423.937 520.623 424.586 522.893 425.883C525.163 427.151 527.006 428.92 528.421 431.19V408.194H541.202ZM507.238 449.499C507.238 453.95 508.122 457.503 509.891 460.157C511.631 462.839 514.284 464.181 517.851 464.181C521.419 464.181 524.131 462.854 525.989 460.201C527.846 457.547 528.775 454.113 528.775 449.897C528.775 444 527.286 439.784 524.308 437.249C522.48 435.716 520.357 434.949 517.94 434.949C514.255 434.949 511.542 436.349 509.803 439.15C508.093 441.922 507.238 445.371 507.238 449.499ZM593.961 459.139C593.636 461.999 592.147 464.903 589.494 467.851C585.367 472.539 579.588 474.883 572.158 474.883C566.026 474.883 560.616 472.908 555.928 468.957C551.24 465.006 548.897 458.579 548.897 449.676C548.897 441.332 551.005 434.934 555.221 430.482C559.466 426.031 564.965 423.805 571.716 423.805C575.726 423.805 579.337 424.556 582.551 426.06C585.765 427.564 588.418 429.937 590.511 433.18C592.398 436.04 593.622 439.357 594.182 443.13C594.506 445.342 594.639 448.526 594.58 452.683H561.589C561.766 457.518 563.284 460.908 566.144 462.854C567.883 464.063 569.977 464.667 572.424 464.667C575.018 464.667 577.126 463.93 578.748 462.456C579.632 461.66 580.413 460.555 581.092 459.139H593.961ZM581.49 444.369C581.283 441.037 580.266 438.516 578.438 436.806C576.64 435.067 574.399 434.197 571.716 434.197C568.797 434.197 566.527 435.111 564.906 436.939C563.314 438.767 562.311 441.243 561.898 444.369H581.49Z" fill="#C2C2C2"/>
<path d="M125.838 922.202H99.5779L94.0837 937.986H81.8381L107.447 870.193H118.016L143.671 937.986H131.379L125.838 922.202ZM102.884 912.704H122.533L112.708 884.581L102.884 912.704ZM151.401 937.986V870.193H171.422C177.413 870.193 182.721 871.528 187.346 874.197C192.002 876.867 195.603 880.654 198.148 885.558C200.693 890.463 201.966 896.081 201.966 902.414V905.813C201.966 912.238 200.678 917.887 198.101 922.761C195.556 927.634 191.909 931.39 187.16 934.029C182.441 936.667 177.025 937.986 170.91 937.986H151.401ZM163.181 879.692V928.581H170.863C177.04 928.581 181.774 926.656 185.064 922.807C188.386 918.927 190.077 913.371 190.14 906.138V902.367C190.14 895.01 188.541 889.392 185.344 885.512C182.146 881.632 177.506 879.692 171.422 879.692H163.181ZM213.699 937.986V870.193H233.721C239.712 870.193 245.02 871.528 249.645 874.197C254.301 876.867 257.902 880.654 260.447 885.558C262.992 890.463 264.265 896.081 264.265 902.414V905.813C264.265 912.238 262.977 917.887 260.4 922.761C257.855 927.634 254.208 931.39 249.459 934.029C244.74 936.667 239.324 937.986 233.209 937.986H213.699ZM225.479 879.692V928.581H233.162C239.339 928.581 244.073 926.656 247.363 922.807C250.685 918.927 252.376 913.371 252.438 906.138V902.367C252.438 895.01 250.84 889.392 247.643 885.512C244.445 881.632 239.805 879.692 233.721 879.692H225.479ZM337.692 922.202H311.431L305.937 937.986H293.692L319.3 870.193H329.87L355.525 937.986H343.233L337.692 922.202ZM314.737 912.704H334.386L324.562 884.581L314.737 912.704ZM417.032 937.986H405.252L375.034 889.889V937.986H363.254V870.193H375.034L405.345 918.477V870.193H417.032V937.986ZM494.324 907.722H466.48V928.581H499.027V937.986H454.7V870.193H498.701V879.692H466.48V898.409H494.324V907.722ZM532.504 923.226L549.732 870.193H562.676L538.278 937.986H526.87L502.565 870.193H515.463L532.504 923.226ZM609.982 907.722H582.138V928.581H614.685V937.986H570.358V870.193H614.359V879.692H582.138V898.409H609.982V907.722ZM678.055 937.986H666.275L636.056 889.889V937.986H624.276V870.193H636.056L666.368 918.477V870.193H678.055V937.986ZM739.562 879.692H718.423V937.986H706.736V879.692H685.784V870.193H739.562V879.692Z" fill="white"/>
<path d="M907.966 222.933L871.043 260.076C870.562 260.511 870.01 260.729 869.385 260.729C868.76 260.729 868.207 260.511 867.726 260.076L846.957 239.183C846.524 238.699 846.308 238.143 846.308 237.515C846.308 236.886 846.524 236.354 846.957 235.919L850.274 232.581C850.707 232.146 851.236 231.929 851.861 231.929C852.486 231.929 853.038 232.146 853.519 232.581L869.385 248.541L901.404 216.331C901.885 215.896 902.437 215.679 903.062 215.679C903.687 215.679 904.216 215.896 904.649 216.331L907.966 219.669C908.399 220.104 908.615 220.636 908.615 221.265C908.615 221.893 908.399 222.449 907.966 222.933ZM823.231 273.714H924.769V199.429H823.231V273.714ZM850.923 185.5V164.607C850.923 163.93 850.707 163.374 850.274 162.939C849.841 162.503 849.288 162.286 848.615 162.286H844C843.327 162.286 842.774 162.503 842.341 162.939C841.909 163.374 841.692 163.93 841.692 164.607V185.5C841.692 186.177 841.909 186.733 842.341 187.169C842.774 187.604 843.327 187.821 844 187.821H848.615C849.288 187.821 849.841 187.604 850.274 187.169C850.707 186.733 850.923 186.177 850.923 185.5ZM906.308 185.5V164.607C906.308 163.93 906.091 163.374 905.659 162.939C905.226 162.503 904.673 162.286 904 162.286H899.385C898.712 162.286 898.159 162.503 897.726 162.939C897.293 163.374 897.077 163.93 897.077 164.607V185.5C897.077 186.177 897.293 186.733 897.726 187.169C898.159 187.604 898.712 187.821 899.385 187.821H904C904.673 187.821 905.226 187.604 905.659 187.169C906.091 186.733 906.308 186.177 906.308 185.5ZM934 180.857V273.714C934 276.229 933.087 278.406 931.26 280.243C929.433 282.081 927.269 283 924.769 283H823.231C820.731 283 818.567 282.081 816.74 280.243C814.913 278.406 814 276.229 814 273.714V180.857C814 178.342 814.913 176.166 816.74 174.328C818.567 172.49 820.731 171.571 823.231 171.571H832.462V164.607C832.462 161.415 833.591 158.683 835.851 156.41C838.111 154.137 840.827 153 844 153H848.615C851.788 153 854.505 154.137 856.764 156.41C859.024 158.683 860.154 161.415 860.154 164.607V171.571H887.846V164.607C887.846 161.415 888.976 158.683 891.236 156.41C893.495 154.137 896.212 153 899.385 153H904C907.173 153 909.889 154.137 912.149 156.41C914.409 158.683 915.538 161.415 915.538 164.607V171.571H924.769C927.269 171.571 929.433 172.49 931.26 174.328C933.087 176.166 934 178.342 934 180.857Z" fill="#333333"/>
</svg>
