<svg width="1000" height="1000" viewBox="0 0 1000 1000" fill="none" xmlns="http://www.w3.org/2000/svg">
<g clip-path="url(#clip0_286_873)">
<rect x="106.422" width="786.156" height="737.999" rx="3" fill="#333333"/>
<path d="M1 774H637L576.258 851.5L637 929H1L59.6998 851.5L1 774Z" fill="#333333"/>
<path d="M644.504 776.5H994.187L942.488 850.063L941.478 851.5L942.488 852.937L994.187 926.5H644.504L589.108 851.5L644.504 776.5Z" fill="white" stroke="#333333" stroke-width="5"/>
<rect x="188.289" y="57.7891" width="624.098" height="624.098" rx="3" fill="white"/>
<path d="M636.512 119.047H754.943V237.478" stroke="#C2C2C2" stroke-width="22.5037"/>
<path d="M364.121 119.047H245.69V237.478" stroke="#C2C2C2" stroke-width="22.5037"/>
<path d="M636.512 628.297H754.943V509.866" stroke="#C2C2C2" stroke-width="22.5037"/>
<path d="M364.121 628.297H245.69V509.866" stroke="#C2C2C2" stroke-width="22.5037"/>
<path d="M366.543 322.676L357.232 295.577L347.336 322.676H366.543ZM352.889 286.475H362.284L384.54 347.812H375.437L369.216 329.44H344.956L338.317 347.812H329.799L352.889 286.475ZM395.855 325.975C395.855 330.763 396.871 334.771 398.903 338C400.935 341.229 404.192 342.844 408.674 342.844C412.154 342.844 415.007 341.354 417.234 338.376C419.488 335.37 420.616 331.069 420.616 325.474C420.616 319.823 419.461 315.647 417.15 312.947C414.84 310.219 411.986 308.855 408.59 308.855C404.805 308.855 401.729 310.303 399.363 313.198C397.024 316.093 395.855 320.352 395.855 325.975ZM407.171 302.3C410.595 302.3 413.462 303.023 415.772 304.471C417.108 305.306 418.626 306.767 420.324 308.855V286.266H427.547V347.812H420.783V341.591C419.029 344.347 416.955 346.337 414.561 347.562C412.167 348.787 409.426 349.399 406.336 349.399C401.353 349.399 397.038 347.311 393.392 343.136C389.745 338.933 387.922 333.351 387.922 326.392C387.922 319.878 389.578 314.242 392.891 309.482C396.231 304.694 400.991 302.3 407.171 302.3ZM443.456 325.975C443.456 330.763 444.472 334.771 446.504 338C448.536 341.229 451.793 342.844 456.275 342.844C459.754 342.844 462.607 341.354 464.834 338.376C467.089 335.37 468.216 331.069 468.216 325.474C468.216 319.823 467.061 315.647 464.751 312.947C462.44 310.219 459.587 308.855 456.191 308.855C452.405 308.855 449.329 310.303 446.963 313.198C444.625 316.093 443.456 320.352 443.456 325.975ZM454.771 302.3C458.195 302.3 461.062 303.023 463.373 304.471C464.709 305.306 466.226 306.767 467.924 308.855V286.266H475.148V347.812H468.383V341.591C466.63 344.347 464.556 346.337 462.162 347.562C459.768 348.787 457.026 349.399 453.936 349.399C448.953 349.399 444.639 347.311 440.992 343.136C437.346 338.933 435.522 333.351 435.522 326.392C435.522 319.878 437.179 314.242 440.491 309.482C443.832 304.694 448.592 302.3 454.771 302.3ZM538.031 303.093H546.34C545.282 305.96 542.93 312.502 539.283 322.718C536.555 330.401 534.273 336.664 532.435 341.508C528.093 352.921 525.031 359.88 523.249 362.385C521.468 364.89 518.406 366.143 514.063 366.143C513.005 366.143 512.184 366.101 511.6 366.018C511.043 365.934 510.347 365.781 509.512 365.558V358.711C510.82 359.072 511.767 359.295 512.351 359.379C512.936 359.462 513.451 359.504 513.896 359.504C515.288 359.504 516.304 359.267 516.944 358.794C517.612 358.349 518.169 357.792 518.615 357.124C518.754 356.901 519.255 355.76 520.118 353.7C520.981 351.64 521.607 350.109 521.997 349.107L505.462 303.093H513.98L525.963 339.503L538.031 303.093ZM570.599 342.969C575.582 342.969 578.992 341.09 580.829 337.332C582.694 333.546 583.627 329.343 583.627 324.722C583.627 320.547 582.959 317.151 581.623 314.534C579.507 310.414 575.86 308.354 570.683 308.354C566.09 308.354 562.749 310.108 560.662 313.615C558.574 317.123 557.53 321.354 557.53 326.309C557.53 331.069 558.574 335.036 560.662 338.209C562.749 341.382 566.062 342.969 570.599 342.969ZM570.892 301.799C576.654 301.799 581.525 303.719 585.506 307.561C589.486 311.402 591.477 317.053 591.477 324.513C591.477 331.723 589.723 337.68 586.216 342.384C582.708 347.089 577.266 349.441 569.89 349.441C563.738 349.441 558.852 347.367 555.234 343.219C551.615 339.044 549.805 333.449 549.805 326.434C549.805 318.918 551.712 312.933 555.526 308.479C559.339 304.026 564.461 301.799 570.892 301.799ZM607.97 303.093V332.781C607.97 335.063 608.332 336.928 609.056 338.376C610.392 341.048 612.883 342.384 616.53 342.384C621.763 342.384 625.326 340.046 627.219 335.37C628.249 332.864 628.764 329.426 628.764 325.056V303.093H636.28V347.812H629.181L629.265 341.215C628.291 342.913 627.08 344.347 625.632 345.516C622.765 347.854 619.286 349.023 615.194 349.023C608.819 349.023 604.476 346.894 602.166 342.635C600.913 340.352 600.287 337.304 600.287 333.491V303.093H607.97ZM648.263 303.093H655.404V310.818C655.988 309.315 657.422 307.491 659.704 305.348C661.987 303.177 664.617 302.091 667.596 302.091C667.735 302.091 667.972 302.105 668.306 302.133C668.64 302.161 669.21 302.216 670.018 302.3V310.233C669.572 310.15 669.155 310.094 668.765 310.066C668.403 310.038 668 310.024 667.554 310.024C663.768 310.024 660.86 311.249 658.827 313.699C656.795 316.121 655.779 318.918 655.779 322.091V347.812H648.263V303.093Z" fill="#C2C2C2"/>
<path d="M367.297 454.473C364.541 455.391 361.242 455.851 357.401 455.851C349.384 455.851 342.759 453.457 337.525 448.669C331.179 442.907 328.005 434.444 328.005 423.282C328.005 412.036 331.262 403.532 337.776 397.77C343.093 393.065 349.704 390.713 357.609 390.713C365.571 390.713 372.251 393.204 377.652 398.187C383.887 403.949 387.005 412.008 387.005 422.363C387.005 427.847 386.337 432.44 385.001 436.142C383.915 439.678 382.314 442.614 380.199 444.953L387.297 451.592L380.575 458.606L373.142 451.592C370.887 452.956 368.939 453.916 367.297 454.473ZM364.541 443.366L358.319 437.437L364.958 430.505L371.18 436.435C372.154 434.43 372.836 432.677 373.226 431.173C373.838 428.919 374.144 426.288 374.144 423.282C374.144 416.378 372.725 411.048 369.885 407.29C367.074 403.504 362.954 401.611 357.526 401.611C352.432 401.611 348.368 403.42 345.333 407.039C342.299 410.658 340.782 416.072 340.782 423.282C340.782 431.716 342.953 437.757 347.296 441.403C350.107 443.77 353.476 444.953 357.401 444.953C358.876 444.953 360.296 444.772 361.66 444.41C362.411 444.215 363.372 443.867 364.541 443.366ZM422.998 430.004H409.719V454.139H397.151V392.592H427.34C431.655 392.675 434.967 393.204 437.278 394.179C439.616 395.153 441.592 396.587 443.207 398.479C444.543 400.038 445.601 401.764 446.38 403.657C447.16 405.55 447.549 407.707 447.549 410.129C447.549 413.052 446.812 415.933 445.336 418.772C443.861 421.584 441.425 423.574 438.029 424.743C440.869 425.885 442.873 427.513 444.042 429.629C445.239 431.716 445.837 434.918 445.837 439.232V443.366C445.837 446.177 445.949 448.084 446.171 449.086C446.506 450.673 447.285 451.842 448.51 452.594V454.139H434.355C433.965 452.775 433.687 451.675 433.52 450.84C433.186 449.114 433.005 447.347 432.977 445.537L432.893 439.817C432.838 435.892 432.114 433.275 430.722 431.967C429.358 430.659 426.783 430.004 422.998 430.004ZM430.806 418.814C433.367 417.645 434.647 415.334 434.647 411.883C434.647 408.153 433.408 405.647 430.931 404.367C429.539 403.643 427.451 403.281 424.668 403.281H409.719V419.816H424.292C427.187 419.816 429.358 419.482 430.806 418.814ZM520.871 424.952H508.679C508.456 423.254 507.885 421.723 506.967 420.359C505.63 418.522 503.557 417.603 500.745 417.603C496.737 417.603 493.995 419.593 492.519 423.574C491.74 425.69 491.35 428.501 491.35 432.009C491.35 435.349 491.74 438.035 492.519 440.067C493.939 443.853 496.611 445.746 500.536 445.746C503.32 445.746 505.296 444.994 506.466 443.491C507.635 441.988 508.345 440.039 508.595 437.645H520.746C520.467 441.264 519.159 444.688 516.821 447.917C513.091 453.123 507.565 455.725 500.244 455.725C492.923 455.725 487.537 453.554 484.085 449.212C480.633 444.869 478.907 439.232 478.907 432.301C478.907 424.479 480.814 418.396 484.628 414.054C488.441 409.711 493.702 407.54 500.411 407.54C506.118 407.54 510.78 408.821 514.399 411.382C518.046 413.943 520.203 418.466 520.871 424.952ZM567.052 414.388C570.893 419.204 572.814 424.896 572.814 431.466C572.814 438.147 570.893 443.867 567.052 448.627C563.21 453.359 557.379 455.725 549.557 455.725C541.734 455.725 535.903 453.359 532.061 448.627C528.22 443.867 526.299 438.147 526.299 431.466C526.299 424.896 528.22 419.204 532.061 414.388C535.903 409.572 541.734 407.164 549.557 407.164C557.379 407.164 563.21 409.572 567.052 414.388ZM549.515 417.227C546.035 417.227 543.349 418.466 541.456 420.944C539.591 423.393 538.659 426.901 538.659 431.466C538.659 436.031 539.591 439.552 541.456 442.03C543.349 444.507 546.035 445.746 549.515 445.746C552.994 445.746 555.667 444.507 557.532 442.03C559.397 439.552 560.329 436.031 560.329 431.466C560.329 426.901 559.397 423.393 557.532 420.944C555.667 418.466 552.994 417.227 549.515 417.227ZM622.795 392.675V454.139H611.229V447.834C609.53 450.534 607.596 452.496 605.425 453.721C603.253 454.946 600.553 455.558 597.324 455.558C592.007 455.558 587.526 453.415 583.879 449.128C580.26 444.813 578.451 439.288 578.451 432.551C578.451 424.785 580.232 418.675 583.796 414.221C587.386 409.767 592.174 407.54 598.159 407.54C600.915 407.54 603.365 408.153 605.508 409.377C607.652 410.574 609.391 412.245 610.727 414.388V392.675H622.795ZM590.727 431.675C590.727 435.878 591.562 439.232 593.232 441.737C594.875 444.271 597.38 445.537 600.748 445.537C604.116 445.537 606.677 444.285 608.431 441.779C610.185 439.274 611.061 436.031 611.061 432.05C611.061 426.483 609.656 422.502 606.844 420.108C605.118 418.661 603.114 417.937 600.832 417.937C597.352 417.937 594.791 419.259 593.149 421.904C591.534 424.521 590.727 427.777 590.727 431.675ZM672.608 440.777C672.302 443.477 670.896 446.219 668.391 449.003C664.494 453.429 659.038 455.642 652.023 455.642C646.233 455.642 641.125 453.777 636.699 450.047C632.273 446.317 630.06 440.248 630.06 431.842C630.06 423.964 632.05 417.923 636.031 413.72C640.039 409.517 645.231 407.415 651.605 407.415C655.391 407.415 658.801 408.125 661.835 409.544C664.87 410.964 667.375 413.205 669.351 416.267C671.133 418.967 672.288 422.099 672.817 425.662C673.123 427.75 673.248 430.756 673.193 434.681H642.044C642.211 439.246 643.644 442.447 646.344 444.285C647.987 445.426 649.963 445.996 652.274 445.996C654.723 445.996 656.713 445.301 658.244 443.909C659.08 443.157 659.817 442.113 660.458 440.777H672.608ZM660.833 426.831C660.638 423.685 659.678 421.305 657.952 419.691C656.254 418.049 654.139 417.227 651.605 417.227C648.85 417.227 646.706 418.09 645.175 419.816C643.672 421.542 642.726 423.88 642.336 426.831H660.833Z" fill="#C2C2C2"/>
<path d="M121.677 865.089H100.196L95.7021 878H85.6855L106.633 822.547H115.278L136.264 878H126.209L121.677 865.089ZM102.9 857.319H118.973L110.937 834.315L102.9 857.319ZM139.958 857.091C139.958 850.743 141.431 845.652 144.376 841.818C147.321 837.959 151.27 836.029 156.221 836.029C160.588 836.029 164.117 837.553 166.809 840.6V819.5H176.063V878H167.685L167.228 873.734C164.46 877.086 160.766 878.762 156.145 878.762C151.32 878.762 147.41 876.819 144.414 872.935C141.443 869.05 139.958 863.769 139.958 857.091ZM149.213 857.891C149.213 862.08 150.013 865.355 151.612 867.717C153.237 870.053 155.535 871.221 158.506 871.221C162.289 871.221 165.057 869.532 166.809 866.155V848.56C165.107 845.259 162.365 843.608 158.582 843.608C155.586 843.608 153.275 844.802 151.65 847.188C150.025 849.55 149.213 853.117 149.213 857.891ZM183.985 857.091C183.985 850.743 185.458 845.652 188.403 841.818C191.349 837.959 195.297 836.029 200.248 836.029C204.615 836.029 208.145 837.553 210.836 840.6V819.5H220.091V878H211.712L211.255 873.734C208.487 877.086 204.793 878.762 200.172 878.762C195.348 878.762 191.438 876.819 188.441 872.935C185.471 869.05 183.985 863.769 183.985 857.091ZM193.24 857.891C193.24 862.08 194.04 865.355 195.64 867.717C197.265 870.053 199.562 871.221 202.533 871.221C206.316 871.221 209.084 869.532 210.836 866.155V848.56C209.135 845.259 206.393 843.608 202.609 843.608C199.613 843.608 197.303 844.802 195.678 847.188C194.053 849.55 193.24 853.117 193.24 857.891ZM273.792 878C273.386 877.213 273.03 875.931 272.726 874.153C269.78 877.226 266.175 878.762 261.909 878.762C257.771 878.762 254.394 877.581 251.778 875.22C249.163 872.858 247.855 869.938 247.855 866.46C247.855 862.067 249.48 858.703 252.73 856.367C256.006 854.006 260.678 852.825 266.746 852.825H272.421V850.121C272.421 847.988 271.824 846.287 270.631 845.018C269.438 843.723 267.622 843.075 265.185 843.075C263.077 843.075 261.351 843.608 260.005 844.675C258.659 845.716 257.986 847.049 257.986 848.674H248.731C248.731 846.414 249.48 844.307 250.979 842.352C252.477 840.371 254.508 838.822 257.072 837.705C259.662 836.588 262.544 836.029 265.718 836.029C270.542 836.029 274.389 837.248 277.258 839.686C280.127 842.098 281.6 845.5 281.676 849.893V868.479C281.676 872.186 282.196 875.144 283.237 877.353V878H273.792ZM263.623 871.335C265.451 871.335 267.165 870.891 268.765 870.002C270.39 869.113 271.608 867.92 272.421 866.422V858.652H267.432C264.004 858.652 261.427 859.249 259.7 860.442C257.974 861.636 257.11 863.324 257.11 865.508C257.11 867.285 257.694 868.707 258.862 869.773C260.056 870.814 261.643 871.335 263.623 871.335ZM299.957 836.791L300.224 841.552C303.271 837.87 307.27 836.029 312.221 836.029C320.803 836.029 325.17 840.942 325.322 850.769V878H316.067V851.302C316.067 848.687 315.496 846.757 314.354 845.513C313.236 844.243 311.396 843.608 308.831 843.608C305.099 843.608 302.318 845.297 300.49 848.674V878H291.235V836.791H299.957ZM372.358 878.762C366.493 878.762 361.732 876.921 358.076 873.239C354.445 869.532 352.63 864.606 352.63 858.462V857.319C352.63 853.206 353.417 849.537 354.991 846.312C356.591 843.062 358.825 840.536 361.694 838.733C364.563 836.931 367.763 836.029 371.292 836.029C376.903 836.029 381.232 837.819 384.279 841.399C387.352 844.979 388.888 850.045 388.888 856.596V860.328H361.961C362.24 863.73 363.37 866.422 365.351 868.402C367.356 870.383 369.87 871.373 372.892 871.373C377.132 871.373 380.585 869.659 383.251 866.231L388.24 870.992C386.59 873.455 384.381 875.372 381.613 876.743C378.871 878.089 375.786 878.762 372.358 878.762ZM371.254 843.456C368.715 843.456 366.658 844.345 365.084 846.122C363.535 847.899 362.545 850.375 362.113 853.549H379.747V852.863C379.544 849.766 378.719 847.43 377.271 845.855C375.824 844.256 373.818 843.456 371.254 843.456ZM410.102 866.27L418.823 836.791H428.383L414.101 878H406.064L391.668 836.791H401.266L410.102 866.27ZM451.806 878.762C445.94 878.762 441.18 876.921 437.523 873.239C433.893 869.532 432.077 864.606 432.077 858.462V857.319C432.077 853.206 432.864 849.537 434.438 846.312C436.038 843.062 438.272 840.536 441.142 838.733C444.011 836.931 447.21 836.029 450.739 836.029C456.351 836.029 460.68 837.819 463.727 841.399C466.799 844.979 468.335 850.045 468.335 856.596V860.328H441.408C441.688 863.73 442.817 866.422 444.798 868.402C446.804 870.383 449.317 871.373 452.339 871.373C456.579 871.373 460.032 869.659 462.698 866.231L467.688 870.992C466.037 873.455 463.828 875.372 461.061 876.743C458.318 878.089 455.233 878.762 451.806 878.762ZM450.701 843.456C448.162 843.456 446.105 844.345 444.531 846.122C442.982 847.899 441.992 850.375 441.561 853.549H459.194V852.863C458.991 849.766 458.166 847.43 456.719 845.855C455.271 844.256 453.266 843.456 450.701 843.456ZM484.141 836.791L484.407 841.552C487.454 837.87 491.453 836.029 496.404 836.029C504.986 836.029 509.354 840.942 509.506 850.769V878H500.251V851.302C500.251 848.687 499.68 846.757 498.537 845.513C497.42 844.243 495.579 843.608 493.015 843.608C489.282 843.608 486.502 845.297 484.674 848.674V878H475.419V836.791H484.141ZM530.567 826.774V836.791H537.842V843.646H530.567V866.65C530.567 868.225 530.872 869.367 531.481 870.078C532.116 870.764 533.233 871.106 534.833 871.106C535.899 871.106 536.979 870.979 538.07 870.726V877.886C535.963 878.47 533.932 878.762 531.977 878.762C524.867 878.762 521.312 874.839 521.312 866.993V843.646H514.533V836.791H521.312V826.774H530.567Z" fill="white"/>
<path d="M849 908H737V810H751V894H835V810H849V908Z" fill="#333333"/>
<path d="M772 838H758V852H772V838Z" fill="#333333"/>
<path d="M800 838.027H786V852.027H800V838.027Z" fill="#333333"/>
<path d="M828 838H814V852H828V838Z" fill="#333333"/>
<path d="M772 866H758V880H772V866Z" fill="#333333"/>
<path d="M800 866H786V880H800V866Z" fill="#333333"/>
<path d="M814 880V866H828L814 880Z" fill="#333333"/>
<path d="M765 817V803C765 799.132 768.132 796 772 796C775.868 796 779 799.132 779 803V817C779 820.868 775.868 824 772 824C768.132 824 765 820.868 765 817ZM807 817V803C807 799.132 810.132 796 814 796C817.868 796 821 799.132 821 803V817C821 820.868 817.868 824 814 824C810.132 824 807 820.868 807 817Z" fill="#333333"/>
</g>
<defs>
<clipPath id="clip0_286_873">
<rect width="1000" height="1000" fill="white"/>
</clipPath>
</defs>
</svg>
