<svg width="1000" height="1000" viewBox="0 0 1000 1000" fill="none" xmlns="http://www.w3.org/2000/svg">
<path d="M52 258C52 136.497 150.497 38 272 38H728C849.503 38 948 136.497 948 258V662C948 827.685 813.685 962 648 962H52V258Z" fill="#333333"/>
<path d="M79 265C79 154.543 168.543 65 279 65H721C831.457 65 921 154.543 921 265V503C921 653.221 799.221 775 649 775H79V265Z" fill="white"/>
<rect x="198" y="118" width="603" height="603" rx="10.8323" fill="white"/>
<path d="M638.189 160.207H758.789V280.807" stroke="#C2C2C2" stroke-width="24.12"/>
<path d="M360.807 160.207H240.207V280.807" stroke="#C2C2C2" stroke-width="24.12"/>
<path d="M638.189 678.789H758.789V558.189" stroke="#C2C2C2" stroke-width="24.12"/>
<path d="M360.807 678.789H240.207V558.189" stroke="#C2C2C2" stroke-width="24.12"/>
<path d="M356.131 370.837L346.151 341.792L335.544 370.837H356.131ZM341.496 332.036H351.566L375.42 397.779H365.663L358.995 378.088H332.993L325.877 397.779H316.747L341.496 332.036ZM387.548 374.373C387.548 379.505 388.637 383.801 390.815 387.262C392.993 390.723 396.484 392.454 401.287 392.454C405.017 392.454 408.075 390.857 410.462 387.665C412.879 384.443 414.087 379.833 414.087 373.836C414.087 367.779 412.849 363.304 410.372 360.41C407.896 357.486 404.838 356.024 401.198 356.024C397.14 356.024 393.843 357.575 391.307 360.678C388.801 363.781 387.548 368.346 387.548 374.373ZM399.676 348.998C403.346 348.998 406.419 349.773 408.896 351.325C410.328 352.22 411.954 353.786 413.774 356.024V331.812H421.516V397.779H414.266V391.111C412.386 394.065 410.164 396.198 407.598 397.511C405.032 398.824 402.093 399.48 398.781 399.48C393.44 399.48 388.816 397.242 384.907 392.767C380.999 388.262 379.045 382.28 379.045 374.821C379.045 367.839 380.82 361.797 384.37 356.695C387.951 351.563 393.053 348.998 399.676 348.998ZM438.567 374.373C438.567 379.505 439.656 383.801 441.834 387.262C444.012 390.723 447.503 392.454 452.307 392.454C456.036 392.454 459.095 390.857 461.481 387.665C463.898 384.443 465.106 379.833 465.106 373.836C465.106 367.779 463.868 363.304 461.392 360.41C458.915 357.486 455.857 356.024 452.217 356.024C448.16 356.024 444.863 357.575 442.327 360.678C439.82 363.781 438.567 368.346 438.567 374.373ZM450.696 348.998C454.366 348.998 457.439 349.773 459.915 351.325C461.347 352.22 462.973 353.786 464.793 356.024V331.812H472.536V397.779H465.285V391.111C463.406 394.065 461.183 396.198 458.617 397.511C456.051 398.824 453.112 399.48 449.801 399.48C444.46 399.48 439.835 397.242 435.927 392.767C432.018 388.262 430.064 382.28 430.064 374.821C430.064 367.839 431.839 361.797 435.39 356.695C438.97 351.563 444.072 348.998 450.696 348.998ZM539.935 349.848H548.841C547.707 352.921 545.186 359.932 541.278 370.882C538.354 379.117 535.907 385.83 533.938 391.021C529.284 403.254 526.002 410.713 524.092 413.398C522.183 416.084 518.901 417.426 514.246 417.426C513.112 417.426 512.232 417.382 511.606 417.292C511.009 417.202 510.263 417.038 509.368 416.8V409.46C510.77 409.848 511.785 410.087 512.411 410.176C513.038 410.266 513.59 410.31 514.067 410.31C515.559 410.31 516.648 410.057 517.334 409.55C518.05 409.072 518.647 408.475 519.124 407.759C519.274 407.521 519.811 406.297 520.736 404.09C521.66 401.882 522.332 400.241 522.749 399.167L505.027 349.848H514.157L527.001 388.873L539.935 349.848ZM574.843 392.588C580.184 392.588 583.839 390.574 585.808 386.546C587.807 382.488 588.806 377.983 588.806 373.03C588.806 368.555 588.09 364.915 586.658 362.11C584.391 357.695 580.482 355.487 574.933 355.487C570.01 355.487 566.429 357.367 564.192 361.126C561.954 364.885 560.835 369.42 560.835 374.731C560.835 379.833 561.954 384.085 564.192 387.486C566.429 390.887 569.98 392.588 574.843 392.588ZM575.156 348.46C581.332 348.46 586.554 350.519 590.82 354.637C595.087 358.754 597.22 364.811 597.22 372.807C597.22 380.534 595.34 386.919 591.581 391.961C587.822 397.004 581.989 399.525 574.082 399.525C567.488 399.525 562.252 397.302 558.374 392.856C554.495 388.381 552.556 382.384 552.556 374.865C552.556 366.81 554.599 360.395 558.687 355.621C562.774 350.847 568.264 348.46 575.156 348.46ZM614.898 349.848V381.668C614.898 384.114 615.286 386.113 616.061 387.665C617.494 390.529 620.164 391.961 624.072 391.961C629.682 391.961 633.501 389.455 635.529 384.443C636.633 381.757 637.185 378.073 637.185 373.388V349.848H645.241V397.779H637.633L637.722 390.708C636.678 392.528 635.38 394.065 633.829 395.318C630.756 397.824 627.026 399.077 622.64 399.077C615.808 399.077 611.153 396.795 608.677 392.23C607.334 389.783 606.663 386.516 606.663 382.429V349.848H614.898ZM658.085 349.848H665.738V358.127C666.365 356.516 667.901 354.562 670.348 352.265C672.794 349.937 675.614 348.774 678.806 348.774C678.956 348.774 679.209 348.789 679.567 348.819C679.925 348.848 680.537 348.908 681.402 348.998V357.501C680.925 357.411 680.477 357.352 680.06 357.322C679.672 357.292 679.239 357.277 678.762 357.277C674.704 357.277 671.586 358.59 669.408 361.215C667.23 363.811 666.141 366.81 666.141 370.211V397.779H658.085V349.848Z" fill="#C2C2C2"/>
<path d="M356.936 506.411C353.982 507.395 350.447 507.888 346.329 507.888C337.736 507.888 330.635 505.322 325.026 500.19C318.224 494.014 314.822 484.944 314.822 472.98C314.822 460.926 318.313 451.811 325.295 445.635C330.994 440.593 338.08 438.072 346.553 438.072C355.086 438.072 362.247 440.742 368.035 446.082C374.718 452.259 378.06 460.896 378.06 471.995C378.06 477.873 377.344 482.796 375.912 486.764C374.748 490.553 373.032 493.701 370.765 496.207L378.373 503.323L371.168 510.841L363.201 503.323C360.785 504.785 358.696 505.814 356.936 506.411ZM353.982 494.506L347.314 488.151L354.43 480.722L361.098 487.077C362.142 484.929 362.873 483.049 363.291 481.438C363.947 479.021 364.275 476.202 364.275 472.98C364.275 465.58 362.754 459.867 359.711 455.839C356.697 451.781 352.281 449.752 346.463 449.752C341.003 449.752 336.647 451.692 333.395 455.57C330.143 459.449 328.517 465.252 328.517 472.98C328.517 482.02 330.844 488.494 335.499 492.403C338.512 494.939 342.122 496.207 346.329 496.207C347.91 496.207 349.432 496.013 350.894 495.625C351.7 495.416 352.729 495.043 353.982 494.506ZM416.638 480.185H402.406V506.053H388.935V440.085H421.292C425.917 440.175 429.467 440.742 431.943 441.786C434.45 442.83 436.568 444.367 438.298 446.396C439.731 448.067 440.864 449.916 441.7 451.945C442.535 453.974 442.953 456.286 442.953 458.882C442.953 462.015 442.162 465.103 440.581 468.146C439 471.16 436.389 473.293 432.749 474.546C435.792 475.769 437.94 477.515 439.194 479.782C440.477 482.02 441.118 485.451 441.118 490.076V494.506C441.118 497.52 441.237 499.563 441.476 500.638C441.834 502.338 442.669 503.591 443.982 504.397V506.053H428.811C428.393 504.591 428.095 503.412 427.916 502.517C427.558 500.667 427.364 498.773 427.334 496.833L427.244 490.702C427.185 486.495 426.409 483.691 424.917 482.288C423.455 480.886 420.695 480.185 416.638 480.185ZM425.007 468.191C427.751 466.938 429.124 464.461 429.124 460.762C429.124 456.764 427.796 454.079 425.141 452.706C423.649 451.93 421.411 451.542 418.428 451.542H402.406V469.265H418.025C421.128 469.265 423.455 468.907 425.007 468.191ZM521.541 474.77H508.473C508.234 472.95 507.622 471.309 506.638 469.847C505.206 467.878 502.983 466.893 499.969 466.893C495.673 466.893 492.734 469.026 491.153 473.293C490.317 475.56 489.9 478.574 489.9 482.333C489.9 485.913 490.317 488.793 491.153 490.971C492.674 495.028 495.539 497.057 499.746 497.057C502.729 497.057 504.848 496.252 506.101 494.64C507.354 493.029 508.115 490.941 508.383 488.375H521.406C521.108 492.254 519.706 495.923 517.2 499.384C513.202 504.964 507.279 507.753 499.432 507.753C491.585 507.753 485.812 505.426 482.113 500.772C478.413 496.117 476.563 490.076 476.563 482.646C476.563 474.263 478.607 467.743 482.694 463.089C486.782 458.435 492.421 456.107 499.611 456.107C505.728 456.107 510.725 457.48 514.604 460.225C518.512 462.97 520.825 467.818 521.541 474.77ZM571.039 463.447C575.156 468.609 577.215 474.71 577.215 481.751C577.215 488.912 575.156 495.043 571.039 500.145C566.921 505.217 560.671 507.753 552.287 507.753C543.903 507.753 537.652 505.217 533.535 500.145C529.417 495.043 527.359 488.912 527.359 481.751C527.359 474.71 529.417 468.609 533.535 463.447C537.652 458.285 543.903 455.705 552.287 455.705C560.671 455.705 566.921 458.285 571.039 463.447ZM552.242 466.49C548.512 466.49 545.633 467.818 543.604 470.473C541.605 473.099 540.606 476.858 540.606 481.751C540.606 486.644 541.605 490.419 543.604 493.074C545.633 495.729 548.512 497.057 552.242 497.057C555.971 497.057 558.836 495.729 560.835 493.074C562.834 490.419 563.833 486.644 563.833 481.751C563.833 476.858 562.834 473.099 560.835 470.473C558.836 467.818 555.971 466.49 552.242 466.49ZM630.785 440.175V506.053H618.388V499.295C616.568 502.189 614.495 504.292 612.167 505.605C609.84 506.918 606.946 507.574 603.485 507.574C597.787 507.574 592.983 505.277 589.074 500.682C585.196 496.058 583.256 490.135 583.256 482.915C583.256 474.591 585.166 468.042 588.985 463.268C592.834 458.494 597.966 456.107 604.38 456.107C607.334 456.107 609.96 456.764 612.257 458.077C614.554 459.359 616.419 461.15 617.851 463.447V440.175H630.785ZM596.414 481.975C596.414 486.48 597.309 490.076 599.099 492.761C600.86 495.476 603.545 496.833 607.155 496.833C610.765 496.833 613.51 495.491 615.39 492.806C617.269 490.12 618.209 486.644 618.209 482.378C618.209 476.411 616.703 472.144 613.689 469.578C611.839 468.027 609.691 467.251 607.245 467.251C603.515 467.251 600.77 468.668 599.01 471.503C597.279 474.307 596.414 477.798 596.414 481.975ZM684.176 491.731C683.848 494.626 682.342 497.564 679.656 500.548C675.479 505.292 669.631 507.664 662.113 507.664C655.907 507.664 650.432 505.665 645.688 501.667C640.944 497.669 638.572 491.165 638.572 482.154C638.572 473.711 640.706 467.236 644.972 462.731C649.268 458.226 654.833 455.973 661.665 455.973C665.723 455.973 669.378 456.734 672.63 458.256C675.882 459.777 678.567 462.179 680.686 465.461C682.595 468.355 683.833 471.712 684.4 475.531C684.728 477.768 684.863 480.991 684.803 485.197H651.417C651.596 490.091 653.132 493.522 656.026 495.491C657.787 496.714 659.905 497.326 662.381 497.326C665.007 497.326 667.14 496.58 668.781 495.088C669.676 494.282 670.467 493.164 671.153 491.731H684.176ZM671.556 476.784C671.347 473.412 670.318 470.861 668.468 469.131C666.648 467.37 664.38 466.49 661.665 466.49C658.712 466.49 656.414 467.415 654.773 469.265C653.162 471.115 652.148 473.621 651.73 476.784H671.556Z" fill="#C2C2C2"/>
<path d="M108.703 881.316C108.703 879.435 108.039 877.996 106.711 877C105.383 875.982 102.992 874.919 99.5391 873.812C96.0859 872.684 93.3522 871.577 91.3379 870.492C85.8483 867.526 83.1035 863.531 83.1035 858.506C83.1035 855.894 83.834 853.57 85.2949 851.533C86.778 849.475 88.8919 847.87 91.6367 846.719C94.4036 845.568 97.5026 844.992 100.934 844.992C104.387 844.992 107.464 845.623 110.164 846.885C112.865 848.124 114.956 849.884 116.439 852.164C117.945 854.444 118.697 857.034 118.697 859.934H108.736C108.736 857.72 108.039 856.005 106.645 854.787C105.25 853.548 103.291 852.928 100.768 852.928C98.3327 852.928 96.4401 853.448 95.0898 854.488C93.7396 855.507 93.0645 856.857 93.0645 858.539C93.0645 860.111 93.8503 861.428 95.4219 862.49C97.0156 863.553 99.3509 864.549 102.428 865.479C108.094 867.183 112.223 869.297 114.812 871.82C117.402 874.344 118.697 877.487 118.697 881.25C118.697 885.434 117.115 888.721 113.949 891.111C110.784 893.48 106.523 894.664 101.166 894.664C97.4473 894.664 94.0605 893.989 91.0059 892.639C87.9512 891.266 85.6159 889.396 84 887.027C82.4062 884.659 81.6094 881.914 81.6094 878.793H91.6035C91.6035 884.128 94.791 886.795 101.166 886.795C103.535 886.795 105.383 886.319 106.711 885.367C108.039 884.393 108.703 883.043 108.703 881.316ZM154.557 873.049H135.432V885.998H157.877V894H125.471V845.656H157.811V853.725H135.432V865.246H154.557V873.049ZM203.033 894H193.072L173.682 862.191V894H163.721V845.656H173.682L193.105 877.531V845.656H203.033V894ZM211.732 894V845.656H226.607C230.857 845.656 234.654 846.619 237.996 848.545C241.361 850.449 243.984 853.171 245.865 856.713C247.747 860.232 248.688 864.239 248.688 868.732V870.957C248.688 875.451 247.758 879.446 245.898 882.943C244.061 886.441 241.46 889.152 238.096 891.078C234.731 893.004 230.935 893.978 226.707 894H211.732ZM221.693 853.725V885.998H226.508C230.404 885.998 233.381 884.725 235.439 882.18C237.498 879.634 238.549 875.993 238.594 871.256V868.699C238.594 863.785 237.576 860.066 235.539 857.543C233.503 854.997 230.525 853.725 226.607 853.725H221.693ZM309.482 845.656V877.498C309.482 882.788 307.822 886.972 304.502 890.049C301.204 893.126 296.688 894.664 290.955 894.664C285.311 894.664 280.828 893.17 277.508 890.182C274.188 887.193 272.494 883.087 272.428 877.863V845.656H282.389V877.564C282.389 880.73 283.141 883.043 284.646 884.504C286.174 885.943 288.277 886.662 290.955 886.662C296.555 886.662 299.4 883.718 299.488 877.83V845.656H309.482ZM342.719 881.316C342.719 879.435 342.055 877.996 340.727 877C339.398 875.982 337.008 874.919 333.555 873.812C330.102 872.684 327.368 871.577 325.354 870.492C319.864 867.526 317.119 863.531 317.119 858.506C317.119 855.894 317.85 853.57 319.311 851.533C320.794 849.475 322.908 847.87 325.652 846.719C328.419 845.568 331.518 844.992 334.949 844.992C338.402 844.992 341.479 845.623 344.18 846.885C346.88 848.124 348.972 849.884 350.455 852.164C351.96 854.444 352.713 857.034 352.713 859.934H342.752C342.752 857.72 342.055 856.005 340.66 854.787C339.266 853.548 337.307 852.928 334.783 852.928C332.348 852.928 330.456 853.448 329.105 854.488C327.755 855.507 327.08 856.857 327.08 858.539C327.08 860.111 327.866 861.428 329.438 862.49C331.031 863.553 333.367 864.549 336.443 865.479C342.11 867.183 346.238 869.297 348.828 871.82C351.418 874.344 352.713 877.487 352.713 881.25C352.713 885.434 351.13 888.721 347.965 891.111C344.799 893.48 340.538 894.664 335.182 894.664C331.463 894.664 328.076 893.989 325.021 892.639C321.967 891.266 319.632 889.396 318.016 887.027C316.422 884.659 315.625 881.914 315.625 878.793H325.619C325.619 884.128 328.807 886.795 335.182 886.795C337.55 886.795 339.398 886.319 340.727 885.367C342.055 884.393 342.719 883.043 342.719 881.316ZM403.713 884.039H386.248L382.928 894H372.336L390.332 845.656H399.562L417.658 894H407.066L403.713 884.039ZM388.938 875.971H401.023L394.947 857.875L388.938 875.971ZM461.486 894H451.525L432.135 862.191V894H422.174V845.656H432.135L451.559 877.531V845.656H461.486V894ZM516.205 873.049H497.08V885.998H519.525V894H487.119V845.656H519.459V853.725H497.08V865.246H516.205V873.049ZM538.385 845.656L550.803 880.719L563.154 845.656H576.236V894H566.242V880.785L567.238 857.975L554.189 894H547.35L534.334 858.008L535.33 880.785V894H525.369V845.656H538.385ZM612.826 884.039H595.361L592.041 894H581.449L599.445 845.656H608.676L626.771 894H616.18L612.826 884.039ZM598.051 875.971H610.137L604.061 857.875L598.051 875.971ZM641.879 894H631.918V845.656H641.879V894ZM661.104 885.998H682.254V894H651.143V845.656H661.104V885.998Z" fill="white"/>
</svg>
