<svg width="1000" height="1003" viewBox="0 0 1000 1003" fill="none" xmlns="http://www.w3.org/2000/svg">
<path d="M44.5762 550.102C44.5749 520.761 51.6484 491.853 65.197 465.828C78.7457 439.802 98.3699 417.428 122.406 400.601L396.133 208.992C426.807 187.518 463.344 176 500.788 176C538.231 176 574.769 187.518 605.443 208.992L879.17 400.601C903.206 417.428 922.83 439.802 936.379 465.828C949.927 491.853 957.001 520.761 957 550.102V911.285C957 935.483 947.387 958.691 930.275 975.803C913.164 992.914 889.956 1002.53 865.757 1002.53H135.819C111.62 1002.53 88.4117 992.914 71.3004 975.803C54.1892 958.691 44.5762 935.483 44.5762 911.285V550.102Z" fill="#333333"/>
<path d="M39 515L385.546 785.484C418.315 811.064 459.033 825 501 825C542.967 825 583.685 811.064 616.454 785.484L963 515" stroke="white" stroke-width="24.2118" stroke-linejoin="round"/>
<rect x="194" y="5" width="613" height="613" rx="41" fill="white" stroke="#333333" stroke-width="10"/>
<path d="M639.189 52.207H759.789V172.807" stroke="#C2C2C2" stroke-width="24.12"/>
<path d="M361.807 52.207H241.207V172.807" stroke="#C2C2C2" stroke-width="24.12"/>
<path d="M639.189 570.789H759.789V450.189" stroke="#C2C2C2" stroke-width="24.12"/>
<path d="M361.807 570.789H241.207V450.189" stroke="#C2C2C2" stroke-width="24.12"/>
<path d="M357.131 262.837L347.151 233.792L336.544 262.837H357.131ZM342.496 224.036H352.566L376.42 289.779H366.663L359.995 270.088H333.993L326.877 289.779H317.747L342.496 224.036ZM388.548 266.373C388.548 271.505 389.637 275.801 391.815 279.262C393.993 282.723 397.484 284.454 402.287 284.454C406.017 284.454 409.075 282.857 411.462 279.665C413.879 276.443 415.087 271.833 415.087 265.836C415.087 259.779 413.849 255.304 411.372 252.41C408.896 249.486 405.838 248.024 402.198 248.024C398.14 248.024 394.843 249.575 392.307 252.678C389.801 255.781 388.548 260.346 388.548 266.373ZM400.676 240.998C404.346 240.998 407.419 241.773 409.896 243.325C411.328 244.22 412.954 245.786 414.774 248.024V223.812H422.516V289.779H415.266V283.111C413.386 286.065 411.164 288.198 408.598 289.511C406.032 290.824 403.093 291.48 399.781 291.48C394.44 291.48 389.816 289.242 385.907 284.767C381.999 280.262 380.045 274.28 380.045 266.821C380.045 259.839 381.82 253.797 385.37 248.695C388.951 243.563 394.053 240.998 400.676 240.998ZM439.567 266.373C439.567 271.505 440.656 275.801 442.834 279.262C445.012 282.723 448.503 284.454 453.307 284.454C457.036 284.454 460.095 282.857 462.481 279.665C464.898 276.443 466.106 271.833 466.106 265.836C466.106 259.779 464.868 255.304 462.392 252.41C459.915 249.486 456.857 248.024 453.217 248.024C449.16 248.024 445.863 249.575 443.327 252.678C440.82 255.781 439.567 260.346 439.567 266.373ZM451.696 240.998C455.366 240.998 458.439 241.773 460.915 243.325C462.347 244.22 463.973 245.786 465.793 248.024V223.812H473.536V289.779H466.285V283.111C464.406 286.065 462.183 288.198 459.617 289.511C457.051 290.824 454.112 291.48 450.801 291.48C445.46 291.48 440.835 289.242 436.927 284.767C433.018 280.262 431.064 274.28 431.064 266.821C431.064 259.839 432.839 253.797 436.39 248.695C439.97 243.563 445.072 240.998 451.696 240.998ZM540.935 241.848H549.841C548.707 244.921 546.186 251.932 542.278 262.882C539.354 271.117 536.907 277.83 534.938 283.021C530.284 295.254 527.002 302.713 525.092 305.398C523.183 308.084 519.901 309.426 515.246 309.426C514.112 309.426 513.232 309.382 512.606 309.292C512.009 309.202 511.263 309.038 510.368 308.8V301.46C511.77 301.848 512.785 302.087 513.411 302.176C514.038 302.266 514.59 302.31 515.067 302.31C516.559 302.31 517.648 302.057 518.334 301.55C519.05 301.072 519.647 300.475 520.124 299.759C520.274 299.521 520.811 298.297 521.736 296.09C522.66 293.882 523.332 292.241 523.749 291.167L506.027 241.848H515.157L528.001 280.873L540.935 241.848ZM575.843 284.588C581.184 284.588 584.839 282.574 586.808 278.546C588.807 274.488 589.806 269.983 589.806 265.03C589.806 260.555 589.09 256.915 587.658 254.11C585.391 249.695 581.482 247.487 575.933 247.487C571.01 247.487 567.429 249.367 565.192 253.126C562.954 256.885 561.835 261.42 561.835 266.731C561.835 271.833 562.954 276.085 565.192 279.486C567.429 282.887 570.98 284.588 575.843 284.588ZM576.156 240.46C582.332 240.46 587.554 242.519 591.82 246.637C596.087 250.754 598.22 256.811 598.22 264.807C598.22 272.534 596.34 278.919 592.581 283.961C588.822 289.004 582.989 291.525 575.082 291.525C568.488 291.525 563.252 289.302 559.374 284.856C555.495 280.381 553.556 274.384 553.556 266.865C553.556 258.81 555.599 252.395 559.687 247.621C563.774 242.847 569.264 240.46 576.156 240.46ZM615.898 241.848V273.668C615.898 276.114 616.286 278.113 617.061 279.665C618.494 282.529 621.164 283.961 625.072 283.961C630.682 283.961 634.501 281.455 636.529 276.443C637.633 273.757 638.185 270.073 638.185 265.388V241.848H646.241V289.779H638.633L638.722 282.708C637.678 284.528 636.38 286.065 634.829 287.318C631.756 289.824 628.026 291.077 623.64 291.077C616.808 291.077 612.153 288.795 609.677 284.23C608.334 281.783 607.663 278.516 607.663 274.429V241.848H615.898ZM659.085 241.848H666.738V250.127C667.365 248.516 668.901 246.562 671.348 244.265C673.794 241.937 676.614 240.774 679.806 240.774C679.956 240.774 680.209 240.789 680.567 240.819C680.925 240.848 681.537 240.908 682.402 240.998V249.501C681.925 249.411 681.477 249.352 681.06 249.322C680.672 249.292 680.239 249.277 679.762 249.277C675.704 249.277 672.586 250.59 670.408 253.215C668.23 255.811 667.141 258.81 667.141 262.211V289.779H659.085V241.848Z" fill="#C2C2C2"/>
<path d="M357.936 398.411C354.982 399.395 351.447 399.888 347.329 399.888C338.736 399.888 331.635 397.322 326.026 392.19C319.224 386.014 315.822 376.944 315.822 364.98C315.822 352.926 319.313 343.811 326.295 337.635C331.994 332.593 339.08 330.072 347.553 330.072C356.086 330.072 363.247 332.742 369.035 338.082C375.718 344.259 379.06 352.896 379.06 363.995C379.06 369.873 378.344 374.796 376.912 378.764C375.748 382.553 374.032 385.701 371.765 388.207L379.373 395.323L372.168 402.841L364.201 395.323C361.785 396.785 359.696 397.814 357.936 398.411ZM354.982 386.506L348.314 380.151L355.43 372.722L362.098 379.077C363.142 376.929 363.873 375.049 364.291 373.438C364.947 371.021 365.275 368.202 365.275 364.98C365.275 357.58 363.754 351.867 360.711 347.839C357.697 343.781 353.281 341.752 347.463 341.752C342.003 341.752 337.647 343.692 334.395 347.57C331.143 351.449 329.517 357.252 329.517 364.98C329.517 374.02 331.844 380.494 336.499 384.403C339.512 386.939 343.122 388.207 347.329 388.207C348.91 388.207 350.432 388.013 351.894 387.625C352.7 387.416 353.729 387.043 354.982 386.506ZM417.638 372.185H403.406V398.053H389.935V332.085H422.292C426.917 332.175 430.467 332.742 432.943 333.786C435.45 334.83 437.568 336.367 439.298 338.396C440.731 340.067 441.864 341.916 442.7 343.945C443.535 345.974 443.953 348.286 443.953 350.882C443.953 354.015 443.162 357.103 441.581 360.146C440 363.16 437.389 365.293 433.749 366.546C436.792 367.769 438.94 369.515 440.194 371.782C441.477 374.02 442.118 377.451 442.118 382.076V386.506C442.118 389.52 442.237 391.563 442.476 392.638C442.834 394.338 443.669 395.591 444.982 396.397V398.053H429.811C429.393 396.591 429.095 395.412 428.916 394.517C428.558 392.667 428.364 390.773 428.334 388.833L428.244 382.702C428.185 378.495 427.409 375.691 425.917 374.288C424.455 372.886 421.695 372.185 417.638 372.185ZM426.007 360.191C428.751 358.938 430.124 356.461 430.124 352.762C430.124 348.764 428.796 346.079 426.141 344.706C424.649 343.93 422.411 343.542 419.428 343.542H403.406V361.265H419.025C422.128 361.265 424.455 360.907 426.007 360.191ZM522.541 366.77H509.473C509.234 364.95 508.622 363.309 507.638 361.847C506.206 359.878 503.983 358.893 500.969 358.893C496.673 358.893 493.734 361.026 492.153 365.293C491.317 367.56 490.9 370.574 490.9 374.333C490.9 377.913 491.317 380.793 492.153 382.971C493.674 387.028 496.539 389.057 500.746 389.057C503.729 389.057 505.848 388.252 507.101 386.64C508.354 385.029 509.115 382.941 509.383 380.375H522.406C522.108 384.254 520.706 387.923 518.2 391.384C514.202 396.964 508.279 399.753 500.432 399.753C492.585 399.753 486.812 397.426 483.113 392.772C479.413 388.117 477.563 382.076 477.563 374.646C477.563 366.263 479.607 359.743 483.694 355.089C487.782 350.435 493.421 348.107 500.611 348.107C506.728 348.107 511.725 349.48 515.604 352.225C519.512 354.97 521.825 359.818 522.541 366.77ZM572.039 355.447C576.156 360.609 578.215 366.71 578.215 373.751C578.215 380.912 576.156 387.043 572.039 392.145C567.921 397.217 561.671 399.753 553.287 399.753C544.903 399.753 538.652 397.217 534.535 392.145C530.417 387.043 528.359 380.912 528.359 373.751C528.359 366.71 530.417 360.609 534.535 355.447C538.652 350.285 544.903 347.705 553.287 347.705C561.671 347.705 567.921 350.285 572.039 355.447ZM553.242 358.49C549.512 358.49 546.633 359.818 544.604 362.473C542.605 365.099 541.606 368.858 541.606 373.751C541.606 378.644 542.605 382.419 544.604 385.074C546.633 387.729 549.512 389.057 553.242 389.057C556.971 389.057 559.836 387.729 561.835 385.074C563.834 382.419 564.833 378.644 564.833 373.751C564.833 368.858 563.834 365.099 561.835 362.473C559.836 359.818 556.971 358.49 553.242 358.49ZM631.785 332.175V398.053H619.388V391.295C617.568 394.189 615.495 396.292 613.167 397.605C610.84 398.918 607.946 399.574 604.485 399.574C598.787 399.574 593.983 397.277 590.074 392.682C586.196 388.058 584.256 382.135 584.256 374.915C584.256 366.591 586.166 360.042 589.985 355.268C593.834 350.494 598.966 348.107 605.38 348.107C608.334 348.107 610.96 348.764 613.257 350.077C615.554 351.359 617.419 353.15 618.851 355.447V332.175H631.785ZM597.414 373.975C597.414 378.48 598.309 382.076 600.099 384.761C601.86 387.476 604.545 388.833 608.155 388.833C611.765 388.833 614.51 387.491 616.39 384.806C618.269 382.12 619.209 378.644 619.209 374.378C619.209 368.411 617.703 364.144 614.689 361.578C612.839 360.027 610.691 359.251 608.245 359.251C604.515 359.251 601.77 360.668 600.01 363.503C598.279 366.307 597.414 369.798 597.414 373.975ZM685.176 383.731C684.848 386.626 683.342 389.564 680.656 392.548C676.479 397.292 670.631 399.664 663.113 399.664C656.907 399.664 651.432 397.665 646.688 393.667C641.944 389.669 639.572 383.165 639.572 374.154C639.572 365.711 641.706 359.236 645.972 354.731C650.268 350.226 655.833 347.973 662.665 347.973C666.723 347.973 670.378 348.734 673.63 350.256C676.882 351.777 679.567 354.179 681.686 357.461C683.595 360.355 684.833 363.712 685.4 367.531C685.728 369.768 685.863 372.991 685.803 377.197H652.417C652.596 382.091 654.132 385.522 657.026 387.491C658.787 388.714 660.905 389.326 663.381 389.326C666.007 389.326 668.14 388.58 669.781 387.088C670.676 386.282 671.467 385.164 672.153 383.731H685.176ZM672.556 368.784C672.347 365.412 671.318 362.861 669.468 361.131C667.648 359.37 665.38 358.49 662.665 358.49C659.712 358.49 657.414 359.415 655.773 361.265C654.162 363.115 653.148 365.621 652.73 368.784H672.556Z" fill="#C2C2C2"/>
<path d="M205.042 937.217C205.042 934.353 204.028 932.145 201.999 930.594C200 929.042 196.375 927.476 191.124 925.895C185.873 924.313 181.696 922.553 178.593 920.614C172.655 916.884 169.687 912.021 169.687 906.024C169.687 900.773 171.82 896.446 176.087 893.045C180.383 889.644 185.947 887.943 192.78 887.943C197.315 887.943 201.358 888.779 204.908 890.449C208.459 892.12 211.248 894.507 213.277 897.61C215.306 900.683 216.32 904.099 216.32 907.859H205.042C205.042 904.457 203.968 901.802 201.82 899.893C199.702 897.953 196.658 896.984 192.69 896.984C188.991 896.984 186.111 897.774 184.053 899.355C182.024 900.937 181.009 903.145 181.009 905.979C181.009 908.366 182.113 910.365 184.321 911.976C186.529 913.557 190.169 915.109 195.241 916.63C200.313 918.122 204.386 919.838 207.459 921.777C210.532 923.687 212.785 925.895 214.217 928.401C215.649 930.877 216.365 933.786 216.365 937.128C216.365 942.558 214.277 946.884 210.1 950.106C205.952 953.299 200.313 954.895 193.183 954.895C188.468 954.895 184.127 954.03 180.159 952.299C176.221 950.539 173.148 948.122 170.94 945.049C168.762 941.976 167.673 938.396 167.673 934.308H178.996C178.996 938.008 180.219 940.872 182.665 942.901C185.112 944.93 188.618 945.944 193.183 945.944C197.121 945.944 200.075 945.154 202.044 943.572C204.043 941.961 205.042 939.843 205.042 937.217ZM264.386 924.91H237.623V944.96H268.906V954H226.3V888.838H268.593V897.968H237.623V915.959H264.386V924.91ZM329.816 954H318.494L289.448 907.769V954H278.125V888.838H289.448L318.583 935.248V888.838H329.816V954ZM343.198 954V888.838H362.442C368.2 888.838 373.302 890.121 377.748 892.687C382.223 895.253 385.684 898.893 388.131 903.607C390.577 908.321 391.8 913.721 391.8 919.808V923.075C391.8 929.251 390.562 934.681 388.086 939.365C385.639 944.05 382.134 947.66 377.569 950.196C373.034 952.732 367.827 954 361.95 954H343.198ZM354.52 897.968V944.96H361.905C367.842 944.96 372.392 943.11 375.555 939.41C378.747 935.681 380.373 930.34 380.433 923.388V919.763C380.433 912.692 378.896 907.292 375.823 903.562C372.75 899.833 368.29 897.968 362.442 897.968H354.52ZM462.377 938.828H437.136L431.855 954H420.085L444.7 888.838H454.859L479.518 954H467.703L462.377 938.828ZM440.314 929.699H459.2L449.757 902.667L440.314 929.699ZM538.638 954H527.315L498.27 907.769V954H486.947V888.838H498.27L527.405 935.248V888.838H538.638V954ZM612.93 924.91H586.167V944.96H617.45V954H574.844V888.838H617.136V897.968H586.167V915.959H612.93V924.91ZM641.348 888.838L660.145 938.784L678.897 888.838H693.531V954H682.253V932.518L683.372 903.786L664.128 954H656.028L636.828 903.831L637.947 932.518V954H626.669V888.838H641.348ZM744.238 938.828H718.996L713.715 954H701.945L726.56 888.838H736.719L761.378 954H749.563L744.238 938.828ZM722.174 929.699H741.06L731.617 902.667L722.174 929.699ZM780.757 954H769.479V888.838H780.757V954ZM805.998 944.96H835.58V954H794.675V888.838H805.998V944.96Z" fill="white"/>
</svg>
