<svg width="1000" height="1000" viewBox="0 0 1000 1000" fill="none" xmlns="http://www.w3.org/2000/svg">
<rect x="282.146" y="128.584" width="435.708" height="435.708" rx="7.82709" fill="white"/>
<path d="M600.211 159.082H687.353V246.224" stroke="#C2C2C2" stroke-width="17.4283"/>
<path d="M399.785 159.082H312.644V246.224" stroke="#C2C2C2" stroke-width="17.4283"/>
<path d="M600.211 533.793H687.353V446.651" stroke="#C2C2C2" stroke-width="17.4283"/>
<path d="M399.785 533.793H312.644V446.651" stroke="#C2C2C2" stroke-width="17.4283"/>
<path d="M396.404 311.025L389.193 290.038L381.529 311.025H396.404ZM385.83 282.988H393.106L410.342 330.492H403.292L398.474 316.264H379.686L374.544 330.492H367.947L385.83 282.988ZM419.105 313.58C419.105 317.288 419.892 320.392 421.466 322.893C423.04 325.394 425.562 326.644 429.033 326.644C431.728 326.644 433.938 325.491 435.662 323.184C437.409 320.856 438.282 317.525 438.282 313.192C438.282 308.815 437.387 305.581 435.598 303.49C433.808 301.377 431.599 300.321 428.968 300.321C426.037 300.321 423.654 301.442 421.822 303.684C420.011 305.926 419.105 309.225 419.105 313.58ZM427.869 295.244C430.521 295.244 432.741 295.805 434.531 296.926C435.565 297.572 436.74 298.704 438.055 300.321V282.826H443.65V330.492H438.411V325.674C437.053 327.808 435.447 329.35 433.593 330.298C431.739 331.247 429.615 331.721 427.222 331.721C423.363 331.721 420.022 330.104 417.198 326.87C414.373 323.615 412.961 319.293 412.961 313.903C412.961 308.858 414.244 304.493 416.81 300.806C419.397 297.098 423.083 295.244 427.869 295.244ZM455.97 313.58C455.97 317.288 456.757 320.392 458.331 322.893C459.905 325.394 462.427 326.644 465.898 326.644C468.593 326.644 470.803 325.491 472.527 323.184C474.274 320.856 475.147 317.525 475.147 313.192C475.147 308.815 474.252 305.581 472.463 303.49C470.673 301.377 468.464 300.321 465.833 300.321C462.902 300.321 460.519 301.442 458.687 303.684C456.876 305.926 455.97 309.225 455.97 313.58ZM464.734 295.244C467.386 295.244 469.606 295.805 471.396 296.926C472.43 297.572 473.605 298.704 474.92 300.321V282.826H480.515V330.492H475.276V325.674C473.918 327.808 472.312 329.35 470.458 330.298C468.604 331.247 466.48 331.721 464.087 331.721C460.228 331.721 456.887 330.104 454.063 326.87C451.238 323.615 449.826 319.293 449.826 313.903C449.826 308.858 451.109 304.493 453.675 300.806C456.262 297.098 459.948 295.244 464.734 295.244ZM529.215 295.859H535.651C534.831 298.079 533.01 303.145 530.186 311.057C528.073 317.007 526.305 321.858 524.882 325.609C521.519 334.448 519.148 339.838 517.768 341.778C516.388 343.718 514.017 344.688 510.654 344.688C509.834 344.688 509.198 344.656 508.746 344.591C508.314 344.527 507.775 344.408 507.129 344.236V338.932C508.142 339.213 508.875 339.385 509.328 339.45C509.78 339.514 510.179 339.547 510.524 339.547C511.602 339.547 512.389 339.363 512.885 338.997C513.402 338.652 513.833 338.221 514.178 337.703C514.286 337.531 514.674 336.647 515.343 335.052C516.011 333.456 516.496 332.271 516.798 331.495L503.992 295.859H510.589L519.87 324.057L529.215 295.859ZM554.439 326.741C558.298 326.741 560.939 325.286 562.362 322.375C563.806 319.443 564.528 316.188 564.528 312.609C564.528 309.376 564.011 306.746 562.976 304.719C561.338 301.528 558.513 299.933 554.503 299.933C550.946 299.933 548.359 301.291 546.742 304.008C545.126 306.724 544.317 310.001 544.317 313.838C544.317 317.525 545.126 320.597 546.742 323.055C548.359 325.512 550.925 326.741 554.439 326.741ZM554.665 294.856C559.128 294.856 562.9 296.344 565.983 299.319C569.066 302.294 570.608 306.67 570.608 312.448C570.608 318.031 569.249 322.645 566.533 326.288C563.817 329.932 559.602 331.753 553.889 331.753C549.125 331.753 545.341 330.147 542.539 326.935C539.736 323.701 538.335 319.368 538.335 313.935C538.335 308.114 539.811 303.479 542.765 300.03C545.718 296.581 549.685 294.856 554.665 294.856ZM583.381 295.859V318.851C583.381 320.618 583.661 322.063 584.222 323.184C585.257 325.253 587.186 326.288 590.01 326.288C594.063 326.288 596.823 324.477 598.289 320.856C599.086 318.915 599.485 316.253 599.485 312.868V295.859H605.306V330.492H599.809L599.873 325.383C599.119 326.698 598.181 327.808 597.06 328.714C594.839 330.525 592.145 331.43 588.975 331.43C584.039 331.43 580.675 329.781 578.886 326.482C577.916 324.715 577.431 322.354 577.431 319.4V295.859H583.381ZM614.587 295.859H620.117V301.841C620.569 300.677 621.68 299.265 623.447 297.605C625.215 295.923 627.253 295.082 629.559 295.082C629.667 295.082 629.85 295.093 630.109 295.115C630.368 295.136 630.81 295.179 631.435 295.244V301.388C631.09 301.324 630.767 301.28 630.465 301.259C630.184 301.237 629.872 301.227 629.527 301.227C626.595 301.227 624.342 302.175 622.768 304.072C621.195 305.948 620.408 308.114 620.408 310.572V330.492H614.587V295.859Z" fill="#C2C2C2"/>
<path d="M396.987 408.985C394.853 409.697 392.298 410.052 389.323 410.052C383.114 410.052 377.983 408.198 373.93 404.49C369.015 400.028 366.557 393.474 366.557 384.829C366.557 376.119 369.08 369.533 374.124 365.071C378.242 361.427 383.362 359.606 389.485 359.606C395.65 359.606 400.824 361.535 405.007 365.394C409.836 369.857 412.25 376.098 412.25 384.118C412.25 388.365 411.733 391.922 410.698 394.789C409.857 397.527 408.618 399.801 406.979 401.612L412.477 406.754L407.27 412.187L401.514 406.754C399.768 407.81 398.259 408.554 396.987 408.985ZM394.853 400.383L390.034 395.791L395.176 390.423L399.994 395.015C400.749 393.463 401.277 392.105 401.579 390.941C402.053 389.195 402.29 387.157 402.29 384.829C402.29 379.482 401.191 375.354 398.992 372.444C396.814 369.512 393.624 368.046 389.42 368.046C385.475 368.046 382.327 369.447 379.977 372.25C377.627 375.052 376.453 379.245 376.453 384.829C376.453 391.361 378.134 396.039 381.497 398.864C383.675 400.696 386.283 401.612 389.323 401.612C390.466 401.612 391.565 401.472 392.621 401.192C393.203 401.041 393.947 400.771 394.853 400.383ZM440.125 390.035H429.842V408.727H420.108V361.061H443.489C446.83 361.125 449.396 361.535 451.185 362.29C452.996 363.044 454.527 364.154 455.777 365.62C456.812 366.828 457.631 368.164 458.235 369.63C458.838 371.096 459.14 372.767 459.14 374.643C459.14 376.906 458.569 379.138 457.426 381.337C456.284 383.514 454.397 385.055 451.767 385.961C453.966 386.845 455.518 388.106 456.424 389.744C457.351 391.361 457.814 393.84 457.814 397.182V400.383C457.814 402.561 457.9 404.038 458.073 404.814C458.332 406.043 458.935 406.948 459.884 407.53V408.727H448.921C448.619 407.67 448.404 406.819 448.275 406.172C448.016 404.835 447.876 403.466 447.854 402.065L447.789 397.635C447.746 394.595 447.186 392.568 446.108 391.555C445.052 390.542 443.057 390.035 440.125 390.035ZM446.173 381.369C448.156 380.463 449.148 378.674 449.148 376.001C449.148 373.112 448.188 371.172 446.27 370.18C445.192 369.619 443.575 369.339 441.419 369.339H429.842V382.145H441.128C443.37 382.145 445.052 381.886 446.173 381.369ZM515.925 386.123H506.482C506.31 384.807 505.868 383.622 505.157 382.565C504.122 381.142 502.516 380.431 500.338 380.431C497.234 380.431 495.11 381.972 493.968 385.055C493.364 386.694 493.062 388.871 493.062 391.588C493.062 394.175 493.364 396.255 493.968 397.829C495.067 400.761 497.137 402.227 500.177 402.227C502.332 402.227 503.863 401.645 504.769 400.48C505.674 399.316 506.224 397.807 506.418 395.953H515.828C515.612 398.756 514.599 401.407 512.788 403.908C509.899 407.94 505.62 409.955 499.95 409.955C494.28 409.955 490.109 408.274 487.436 404.911C484.762 401.548 483.426 397.182 483.426 391.814C483.426 385.756 484.902 381.045 487.856 377.682C490.809 374.319 494.884 372.638 500.08 372.638C504.499 372.638 508.11 373.629 510.913 375.613C513.737 377.596 515.408 381.099 515.925 386.123ZM551.691 377.941C554.666 381.671 556.153 386.079 556.153 391.167C556.153 396.341 554.666 400.771 551.691 404.458C548.715 408.123 544.199 409.955 538.141 409.955C532.083 409.955 527.567 408.123 524.592 404.458C521.616 400.771 520.129 396.341 520.129 391.167C520.129 386.079 521.616 381.671 524.592 377.941C527.567 374.211 532.083 372.347 538.141 372.347C544.199 372.347 548.715 374.211 551.691 377.941ZM538.109 380.14C535.414 380.14 533.333 381.099 531.868 383.018C530.423 384.915 529.701 387.632 529.701 391.167C529.701 394.703 530.423 397.43 531.868 399.349C533.333 401.267 535.414 402.227 538.109 402.227C540.804 402.227 542.873 401.267 544.318 399.349C545.762 397.43 546.484 394.703 546.484 391.167C546.484 387.632 545.762 384.915 544.318 383.018C542.873 381.099 540.804 380.14 538.109 380.14ZM594.861 361.125V408.727H585.904V403.844C584.589 405.935 583.09 407.455 581.409 408.403C579.727 409.352 577.636 409.826 575.135 409.826C571.018 409.826 567.547 408.166 564.723 404.846C561.92 401.504 560.519 397.225 560.519 392.008C560.519 385.993 561.898 381.261 564.658 377.812C567.439 374.362 571.147 372.638 575.782 372.638C577.916 372.638 579.814 373.112 581.474 374.061C583.134 374.988 584.481 376.281 585.516 377.941V361.125H594.861ZM570.026 391.329C570.026 394.584 570.673 397.182 571.966 399.122C573.238 401.084 575.178 402.065 577.787 402.065C580.396 402.065 582.379 401.095 583.737 399.155C585.095 397.214 585.774 394.703 585.774 391.62C585.774 387.308 584.686 384.225 582.508 382.371C581.172 381.25 579.62 380.69 577.852 380.69C575.157 380.69 573.174 381.714 571.902 383.762C570.651 385.788 570.026 388.311 570.026 391.329ZM633.44 398.378C633.203 400.47 632.114 402.593 630.174 404.749C627.156 408.177 622.931 409.891 617.498 409.891C613.014 409.891 609.058 408.446 605.63 405.557C602.202 402.669 600.488 397.969 600.488 391.458C600.488 385.357 602.03 380.679 605.112 377.424C608.217 374.168 612.238 372.541 617.174 372.541C620.106 372.541 622.747 373.09 625.097 374.19C627.447 375.289 629.387 377.025 630.918 379.396C632.298 381.487 633.192 383.913 633.602 386.672C633.839 388.289 633.936 390.617 633.893 393.657H609.769C609.898 397.193 611.009 399.672 613.1 401.095C614.372 401.979 615.902 402.421 617.692 402.421C619.589 402.421 621.13 401.882 622.316 400.804C622.963 400.222 623.534 399.413 624.03 398.378H633.44ZM624.321 387.578C624.17 385.142 623.426 383.298 622.09 382.048C620.775 380.776 619.136 380.14 617.174 380.14C615.04 380.14 613.38 380.808 612.194 382.145C611.03 383.482 610.297 385.293 609.995 387.578H624.321Z" fill="#C2C2C2"/>
<path d="M187.142 414.687L187.279 415.233C195.973 456.472 214.241 495.089 240.607 527.968C266.974 560.848 300.701 587.068 339.067 604.513L500 677.677V591.5H591C651.337 591.5 709.202 567.531 751.867 524.867C794.531 482.202 818.5 424.337 818.5 364V318.5C818.5 258.163 794.531 200.298 751.867 157.633C709.202 114.969 651.337 91 591 91H409C348.663 91 290.798 114.969 248.133 157.633C205.469 200.298 181.5 258.163 181.5 318.5V364C181.5 381.29 183.411 398.034 187.006 414.05L187.142 414.687ZM591 819L301.438 687.369C250.085 664.028 204.938 628.943 169.641 584.943C134.343 540.944 109.883 489.262 98.2351 434.07C93.0807 411.07 90.4866 387.57 90.5001 364V318.5C90.5001 234.029 124.056 153.017 183.787 93.2865C243.517 33.5561 324.529 0 409 0H591C675.471 0 756.483 33.5561 816.214 93.2865C875.944 153.017 909.5 234.029 909.5 318.5V364C909.5 448.471 875.944 529.483 816.214 589.214C756.483 648.944 675.471 682.5 591 682.5V819Z" fill="#333333"/>
<rect x="91" y="840" width="819" height="122" rx="54" fill="#333333"/>
<path d="M303.305 902.98H283.967V917.468H306.571V924H275.786V876.916H306.345V883.513H283.967V896.513H303.305V902.98ZM323.84 876.916L337.422 913.005L350.971 876.916H361.546V924H353.396V908.478L354.205 887.717L340.3 924H334.447L320.574 887.749L321.382 908.478V924H313.233V876.916H323.84ZM398.184 913.038H379.946L376.13 924H367.625L385.411 876.916H392.751L410.57 924H402.032L398.184 913.038ZM382.242 906.441H395.888L389.065 886.909L382.242 906.441ZM424.572 924H416.423V876.916H424.572V924ZM442.81 917.468H464.185V924H434.629V876.916H442.81V917.468ZM521.391 876.916V908.381C521.391 913.382 519.785 917.349 516.573 920.281C513.382 923.192 509.124 924.647 503.799 924.647C498.41 924.647 494.13 923.213 490.961 920.346C487.792 917.457 486.207 913.458 486.207 908.349V876.916H494.357V908.413C494.357 911.561 495.154 913.965 496.75 915.625C498.345 917.285 500.695 918.115 503.799 918.115C510.094 918.115 513.242 914.795 513.242 908.155V876.916H521.391ZM554.763 911.873C554.763 909.804 554.03 908.208 552.564 907.087C551.12 905.966 548.501 904.835 544.706 903.692C540.912 902.549 537.894 901.277 535.652 899.876C531.362 897.181 529.217 893.667 529.217 889.334C529.217 885.54 530.758 882.414 533.841 879.956C536.945 877.498 540.966 876.27 545.903 876.27C549.18 876.27 552.101 876.873 554.666 878.08C557.232 879.288 559.248 881.012 560.714 883.254C562.179 885.475 562.912 887.943 562.912 890.66H554.763C554.763 888.202 553.987 886.283 552.435 884.904C550.904 883.502 548.705 882.802 545.838 882.802C543.165 882.802 541.085 883.373 539.597 884.516C538.131 885.658 537.398 887.254 537.398 889.302C537.398 891.026 538.196 892.471 539.791 893.635C541.386 894.777 544.016 895.899 547.681 896.998C551.346 898.076 554.289 899.316 556.51 900.717C558.73 902.097 560.358 903.692 561.393 905.503C562.427 907.292 562.945 909.394 562.945 911.809C562.945 915.732 561.436 918.858 558.418 921.187C555.421 923.493 551.346 924.647 546.194 924.647C542.788 924.647 539.651 924.022 536.784 922.771C533.938 921.499 531.717 919.753 530.122 917.532C528.548 915.312 527.761 912.725 527.761 909.771H535.943C535.943 912.445 536.827 914.514 538.595 915.98C540.362 917.446 542.895 918.179 546.194 918.179C549.04 918.179 551.174 917.608 552.597 916.465C554.041 915.301 554.763 913.771 554.763 911.873Z" fill="white"/>
<path d="M696 922H651L650.991 876.718L685.293 900.466C685.795 900.813 686.39 900.999 687 900.999C687.61 900.999 688.205 900.813 688.707 900.466L723 876.73V904H729V874C728.998 872.409 728.365 870.885 727.24 869.76C726.115 868.635 724.591 868.002 723 868H651C649.409 868.002 647.884 868.634 646.759 869.759C645.634 870.884 645.002 872.409 645 874V922C645.002 923.591 645.635 925.115 646.76 926.24C647.885 927.365 649.409 927.998 651 928H696V922ZM716.397 874L687 894.352L657.603 874H716.397Z" fill="white"/>
<path d="M717 934C723.627 934 729 928.627 729 922C729 915.373 723.627 910 717 910C710.373 910 705 915.373 705 922C705 928.627 710.373 934 717 934Z" fill="white"/>
</svg>
