<svg width="1000" height="1000" viewBox="0 0 1000 1000" fill="none" xmlns="http://www.w3.org/2000/svg">
<rect x="86" width="828" height="1000" fill="#333333"/>
<path fill-rule="evenodd" clip-rule="evenodd" d="M133 30C124.716 30 118 36.7157 118 45V700.331C118 708.615 124.716 715.331 133 715.331H198.041L255.889 778.585C262.97 786.328 274.452 786.328 281.533 778.585L339.381 715.331H867C875.284 715.331 882 708.615 882 700.331V45C882 36.7157 875.284 30 867 30H133Z" fill="white"/>
<rect x="193" y="63" width="614" height="614" rx="11.0299" fill="white"/>
<path d="M641.219 105.979H764.019V228.779" stroke="#C2C2C2" stroke-width="24.56"/>
<path d="M358.779 105.979H235.979V228.779" stroke="#C2C2C2" stroke-width="24.56"/>
<path d="M641.219 634.02H764.019V511.22" stroke="#C2C2C2" stroke-width="24.56"/>
<path d="M358.779 634.02H235.979V511.22" stroke="#C2C2C2" stroke-width="24.56"/>
<path d="M354.013 319.957L343.851 290.382L333.051 319.957H354.013ZM339.112 280.448H349.365L373.654 347.391H363.72L356.93 327.34H330.453L323.208 347.391H313.911L339.112 280.448ZM386.004 323.557C386.004 328.783 387.113 333.157 389.33 336.682C391.548 340.206 395.103 341.968 399.994 341.968C403.791 341.968 406.905 340.342 409.336 337.092C411.797 333.811 413.027 329.117 413.027 323.011C413.027 316.843 411.766 312.286 409.245 309.339C406.723 306.362 403.609 304.874 399.903 304.874C395.771 304.874 392.414 306.453 389.832 309.613C387.28 312.772 386.004 317.421 386.004 323.557ZM398.353 297.719C402.09 297.719 405.219 298.509 407.741 300.089C409.199 301 410.855 302.595 412.708 304.874V280.22H420.592V347.391H413.209V340.601C411.295 343.608 409.032 345.78 406.419 347.117C403.807 348.454 400.814 349.122 397.442 349.122C392.004 349.122 387.295 346.844 383.315 342.287C379.335 337.699 377.345 331.608 377.345 324.013C377.345 316.904 379.153 310.752 382.768 305.557C386.414 300.332 391.609 297.719 398.353 297.719ZM437.954 323.557C437.954 328.783 439.063 333.157 441.28 336.682C443.498 340.206 447.053 341.968 451.944 341.968C455.741 341.968 458.855 340.342 461.286 337.092C463.747 333.811 464.977 329.117 464.977 323.011C464.977 316.843 463.716 312.286 461.195 309.339C458.673 306.362 455.559 304.874 451.853 304.874C447.721 304.874 444.364 306.453 441.782 309.613C439.23 312.772 437.954 317.421 437.954 323.557ZM450.303 297.719C454.04 297.719 457.169 298.509 459.691 300.089C461.149 301 462.805 302.595 464.658 304.874V280.22H472.542V347.391H465.159V340.601C463.245 343.608 460.982 345.78 458.369 347.117C455.757 348.454 452.764 349.122 449.392 349.122C443.954 349.122 439.245 346.844 435.265 342.287C431.285 337.699 429.295 331.608 429.295 324.013C429.295 316.904 431.103 310.752 434.718 305.557C438.364 300.332 443.559 297.719 450.303 297.719ZM541.171 298.585H550.239C549.085 301.714 546.518 308.853 542.538 320.003C539.56 328.388 537.069 335.223 535.064 340.51C530.325 352.965 526.983 360.56 525.039 363.295C523.094 366.029 519.753 367.396 515.013 367.396C513.859 367.396 512.963 367.35 512.325 367.259C511.717 367.168 510.958 367.001 510.046 366.758V359.284C511.474 359.679 512.507 359.922 513.145 360.014C513.783 360.105 514.345 360.15 514.831 360.15C516.35 360.15 517.459 359.892 518.158 359.376C518.887 358.89 519.494 358.282 519.98 357.553C520.132 357.31 520.679 356.064 521.621 353.816C522.563 351.568 523.246 349.897 523.672 348.803L505.626 298.585H514.922L528.001 338.322L541.171 298.585ZM576.715 342.104C582.154 342.104 585.875 340.054 587.88 335.952C589.916 331.821 590.933 327.233 590.933 322.19C590.933 317.633 590.204 313.927 588.746 311.071C586.437 306.575 582.457 304.327 576.807 304.327C571.794 304.327 568.148 306.241 565.87 310.069C563.591 313.896 562.452 318.514 562.452 323.922C562.452 329.117 563.591 333.446 565.87 336.909C568.148 340.373 571.764 342.104 576.715 342.104ZM577.034 297.172C583.323 297.172 588.64 299.268 592.984 303.461C597.328 307.653 599.501 313.82 599.501 321.962C599.501 329.831 597.587 336.332 593.759 341.466C589.931 346.601 583.992 349.168 575.941 349.168C569.227 349.168 563.895 346.905 559.946 342.378C555.996 337.821 554.021 331.714 554.021 324.059C554.021 315.856 556.103 309.324 560.265 304.463C564.427 299.603 570.017 297.172 577.034 297.172ZM617.501 298.585V330.985C617.501 333.476 617.896 335.512 618.686 337.092C620.144 340.008 622.863 341.466 626.843 341.466C632.554 341.466 636.443 338.915 638.509 333.811C639.633 331.076 640.195 327.324 640.195 322.555V298.585H648.398V347.391H640.651L640.742 340.191C639.678 342.044 638.357 343.608 636.777 344.884C633.648 347.436 629.85 348.712 625.385 348.712C618.427 348.712 613.688 346.388 611.167 341.74C609.8 339.249 609.116 335.922 609.116 331.76V298.585H617.501ZM661.476 298.585H669.269V307.015C669.907 305.375 671.471 303.385 673.962 301.046C676.454 298.676 679.325 297.491 682.575 297.491C682.727 297.491 682.985 297.506 683.35 297.537C683.715 297.567 684.337 297.628 685.218 297.719V306.377C684.732 306.286 684.277 306.225 683.851 306.195C683.456 306.165 683.016 306.149 682.53 306.149C678.398 306.149 675.223 307.486 673.006 310.16C670.788 312.803 669.679 315.856 669.679 319.319V347.391H661.476V298.585Z" fill="#C2C2C2"/>
<path d="M354.836 457.999C351.828 459.002 348.228 459.503 344.036 459.503C335.286 459.503 328.056 456.89 322.344 451.665C315.418 445.376 311.954 436.141 311.954 423.958C311.954 411.685 315.509 402.404 322.618 396.115C328.421 390.981 335.636 388.413 344.264 388.413C352.953 388.413 360.244 391.132 366.138 396.571C372.943 402.859 376.345 411.654 376.345 422.956C376.345 428.941 375.616 433.953 374.158 437.994C372.973 441.852 371.226 445.057 368.917 447.609L376.664 454.855L369.327 462.511L361.216 454.855C358.755 456.344 356.629 457.392 354.836 457.999ZM351.828 445.878L345.038 439.407L352.284 431.842L359.074 438.313C360.137 436.126 360.882 434.212 361.307 432.571C361.975 430.11 362.31 427.239 362.31 423.958C362.31 416.424 360.76 410.606 357.661 406.505C354.593 402.373 350.097 400.307 344.173 400.307C338.613 400.307 334.178 402.282 330.866 406.231C327.555 410.181 325.899 416.09 325.899 423.958C325.899 433.164 328.269 439.756 333.008 443.736C336.076 446.318 339.752 447.609 344.036 447.609C345.646 447.609 347.195 447.412 348.684 447.017C349.504 446.804 350.552 446.424 351.828 445.878ZM415.627 431.295H401.136V457.635H387.419V390.464H420.366C425.075 390.555 428.69 391.132 431.212 392.196C433.764 393.259 435.921 394.824 437.683 396.89C439.141 398.591 440.296 400.474 441.146 402.54C441.997 404.606 442.422 406.961 442.422 409.604C442.422 412.794 441.617 415.938 440.007 419.037C438.397 422.105 435.739 424.277 432.032 425.553C435.131 426.799 437.318 428.576 438.594 430.885C439.901 433.164 440.554 436.657 440.554 441.366V445.878C440.554 448.946 440.675 451.027 440.918 452.121C441.283 453.852 442.134 455.128 443.47 455.949V457.635H428.022C427.597 456.146 427.293 454.946 427.111 454.035C426.746 452.151 426.549 450.222 426.518 448.247L426.427 442.004C426.366 437.721 425.576 434.865 424.057 433.437C422.569 432.009 419.759 431.295 415.627 431.295ZM424.149 419.082C426.944 417.806 428.341 415.285 428.341 411.518C428.341 407.447 426.989 404.712 424.285 403.315C422.766 402.525 420.488 402.13 417.45 402.13H401.136V420.176H417.04C420.199 420.176 422.569 419.811 424.149 419.082ZM522.444 425.781H509.137C508.894 423.928 508.271 422.257 507.269 420.768C505.811 418.763 503.547 417.761 500.479 417.761C496.104 417.761 493.112 419.933 491.501 424.277C490.651 426.586 490.226 429.655 490.226 433.482C490.226 437.128 490.651 440.06 491.501 442.278C493.051 446.409 495.967 448.475 500.251 448.475C503.289 448.475 505.446 447.655 506.722 446.014C507.998 444.374 508.773 442.247 509.046 439.634H522.307C522.003 443.584 520.575 447.321 518.023 450.845C513.952 456.526 507.922 459.366 499.932 459.366C491.942 459.366 486.063 456.997 482.296 452.257C478.529 447.518 476.646 441.366 476.646 433.801C476.646 425.265 478.727 418.627 482.889 413.887C487.051 409.148 492.793 406.778 500.114 406.778C506.342 406.778 511.431 408.176 515.38 410.971C519.36 413.766 521.715 418.703 522.444 425.781ZM572.844 414.252C577.037 419.508 579.133 425.72 579.133 432.89C579.133 440.181 577.037 446.424 572.844 451.619C568.652 456.784 562.287 459.366 553.751 459.366C545.214 459.366 538.849 456.784 534.657 451.619C530.464 446.424 528.368 440.181 528.368 432.89C528.368 425.72 530.464 419.508 534.657 414.252C538.849 408.996 545.214 406.368 553.751 406.368C562.287 406.368 568.652 408.996 572.844 414.252ZM553.705 417.351C549.907 417.351 546.976 418.703 544.91 421.406C542.874 424.08 541.857 427.908 541.857 432.89C541.857 437.872 542.874 441.716 544.91 444.419C546.976 447.123 549.907 448.475 553.705 448.475C557.502 448.475 560.419 447.123 562.454 444.419C564.49 441.716 565.508 437.872 565.508 432.89C565.508 427.908 564.49 424.08 562.454 421.406C560.419 418.703 557.502 417.351 553.705 417.351ZM633.681 390.555V457.635H621.058V450.754C619.205 453.701 617.093 455.842 614.724 457.179C612.354 458.516 609.407 459.184 605.883 459.184C600.08 459.184 595.189 456.845 591.209 452.166C587.26 447.457 585.285 441.427 585.285 434.075C585.285 425.599 587.23 418.93 591.118 414.07C595.037 409.209 600.263 406.778 606.794 406.778C609.802 406.778 612.475 407.447 614.815 408.783C617.154 410.09 619.053 411.913 620.511 414.252V390.555H633.681ZM598.683 433.118C598.683 437.705 599.594 441.366 601.417 444.1C603.209 446.865 605.944 448.247 609.62 448.247C613.296 448.247 616.091 446.88 618.005 444.146C619.919 441.412 620.876 437.872 620.876 433.528C620.876 427.452 619.341 423.108 616.273 420.495C614.389 418.915 612.202 418.125 609.711 418.125C605.913 418.125 603.118 419.568 601.326 422.454C599.564 425.31 598.683 428.865 598.683 433.118ZM688.046 443.052C687.712 445.999 686.178 448.992 683.444 452.03C679.19 456.86 673.236 459.275 665.58 459.275C659.261 459.275 653.686 457.24 648.856 453.169C644.025 449.098 641.61 442.475 641.61 433.3C641.61 424.703 643.782 418.11 648.127 413.523C652.501 408.935 658.167 406.642 665.124 406.642C669.256 406.642 672.978 407.416 676.289 408.966C679.601 410.515 682.335 412.961 684.492 416.302C686.436 419.249 687.697 422.667 688.274 426.556C688.608 428.834 688.745 432.115 688.684 436.399H654.689C654.871 441.381 656.436 444.875 659.383 446.88C661.175 448.126 663.332 448.749 665.854 448.749C668.527 448.749 670.699 447.989 672.37 446.47C673.281 445.65 674.087 444.511 674.785 443.052H688.046ZM675.195 427.832C674.983 424.399 673.935 421.801 672.051 420.039C670.198 418.247 667.889 417.351 665.124 417.351C662.117 417.351 659.777 418.292 658.107 420.176C656.466 422.06 655.433 424.611 655.008 427.832H675.195Z" fill="#C2C2C2"/>
<path d="M179.099 911.057C179.099 908.84 178.317 907.145 176.752 905.971C175.187 904.771 172.371 903.52 168.302 902.216C164.234 900.886 161.013 899.582 158.64 898.304C152.172 894.809 148.938 890.102 148.938 884.182C148.938 881.105 149.799 878.366 151.52 875.967C153.268 873.542 155.758 871.651 158.992 870.295C162.252 868.939 165.903 868.261 169.945 868.261C174.014 868.261 177.639 869.004 180.82 870.49C184.002 871.951 186.467 874.024 188.214 876.71C189.987 879.396 190.874 882.448 190.874 885.864H179.138C179.138 883.256 178.317 881.235 176.674 879.801C175.031 878.34 172.723 877.61 169.75 877.61C166.881 877.61 164.651 878.223 163.06 879.449C161.47 880.648 160.674 882.239 160.674 884.221C160.674 886.073 161.6 887.624 163.452 888.876C165.329 890.128 168.081 891.302 171.706 892.397C178.382 894.405 183.246 896.896 186.297 899.869C189.348 902.842 190.874 906.545 190.874 910.978C190.874 915.907 189.009 919.78 185.28 922.597C181.551 925.387 176.53 926.782 170.219 926.782C165.838 926.782 161.848 925.987 158.249 924.396C154.65 922.779 151.898 920.576 149.995 917.785C148.117 914.995 147.178 911.761 147.178 908.084H158.953C158.953 914.369 162.708 917.511 170.219 917.511C173.01 917.511 175.187 916.95 176.752 915.829C178.317 914.682 179.099 913.091 179.099 911.057ZM233.122 901.316H210.59V916.572H237.034V926H198.854V869.043H236.956V878.549H210.59V892.123H233.122V901.316ZM290.236 926H278.5L255.655 888.524V926H243.919V869.043H255.655L278.539 906.597V869.043H290.236V926ZM300.485 926V869.043H318.01C323.018 869.043 327.49 870.177 331.428 872.446C335.392 874.689 338.483 877.897 340.699 882.069C342.916 886.216 344.024 890.936 344.024 896.231V898.851C344.024 904.146 342.929 908.853 340.738 912.973C338.574 917.094 335.51 920.289 331.545 922.558C327.581 924.826 323.109 925.974 318.128 926H300.485ZM312.221 878.549V916.572H317.893C322.483 916.572 325.991 915.073 328.416 912.074C330.841 909.075 332.08 904.785 332.132 899.204V896.191C332.132 890.402 330.933 886.02 328.533 883.047C326.134 880.048 322.626 878.549 318.01 878.549H312.221ZM415.651 869.043V906.558C415.651 912.791 413.695 917.72 409.783 921.345C405.897 924.97 400.577 926.782 393.823 926.782C387.173 926.782 381.892 925.022 377.98 921.501C374.068 917.981 372.073 913.143 371.994 906.988V869.043H383.73V906.636C383.73 910.365 384.617 913.091 386.39 914.812C388.19 916.507 390.667 917.355 393.823 917.355C400.421 917.355 403.772 913.886 403.876 906.949V869.043H415.651ZM454.809 911.057C454.809 908.84 454.027 907.145 452.462 905.971C450.897 904.771 448.081 903.52 444.012 902.216C439.944 900.886 436.723 899.582 434.35 898.304C427.882 894.809 424.648 890.102 424.648 884.182C424.648 881.105 425.509 878.366 427.23 875.967C428.978 873.542 431.468 871.651 434.702 870.295C437.962 868.939 441.613 868.261 445.655 868.261C449.724 868.261 453.349 869.004 456.53 870.49C459.712 871.951 462.177 874.024 463.924 876.71C465.697 879.396 466.584 882.448 466.584 885.864H454.848C454.848 883.256 454.027 881.235 452.384 879.801C450.741 878.34 448.433 877.61 445.46 877.61C442.591 877.61 440.361 878.223 438.77 879.449C437.18 880.648 436.384 882.239 436.384 884.221C436.384 886.073 437.31 887.624 439.162 888.876C441.039 890.128 443.791 891.302 447.416 892.397C454.092 894.405 458.956 896.896 462.007 899.869C465.058 902.842 466.584 906.545 466.584 910.978C466.584 915.907 464.719 919.78 460.99 922.597C457.261 925.387 452.24 926.782 445.929 926.782C441.548 926.782 437.558 925.987 433.959 924.396C430.36 922.779 427.608 920.576 425.705 917.785C423.827 914.995 422.888 911.761 422.888 908.084H434.663C434.663 914.369 438.418 917.511 445.929 917.511C448.72 917.511 450.897 916.95 452.462 915.829C454.027 914.682 454.809 913.091 454.809 911.057ZM526.671 914.264H506.094L502.182 926H489.703L510.906 869.043H521.781L543.1 926H530.622L526.671 914.264ZM509.263 904.758H523.502L516.343 883.439L509.263 904.758ZM594.737 926H583.002L560.156 888.524V926H548.421V869.043H560.156L583.041 906.597V869.043H594.737V926ZM659.205 901.316H636.673V916.572H663.117V926H624.937V869.043H663.039V878.549H636.673V892.123H659.205V901.316ZM685.337 869.043L699.967 910.352L714.52 869.043H729.932V926H718.158V910.431L719.331 883.556L703.957 926H695.899L680.564 883.595L681.738 910.431V926H670.002V869.043H685.337ZM773.041 914.264H752.465L748.553 926H736.074L757.276 869.043H768.151L789.471 926H776.992L773.041 914.264ZM755.633 904.758H769.873L762.714 883.439L755.633 904.758ZM807.27 926H795.535V869.043H807.27V926ZM829.92 916.572H854.839V926H818.185V869.043H829.92V916.572Z" fill="white"/>
</svg>
