<?xml version="1.0" encoding="UTF-8" standalone="no"?>
<svg
   xmlns:dc="http://purl.org/dc/elements/1.1/"
   xmlns:cc="http://creativecommons.org/ns#"
   xmlns:rdf="http://www.w3.org/1999/02/22-rdf-syntax-ns#"
   xmlns:svg="http://www.w3.org/2000/svg"
   xmlns="http://www.w3.org/2000/svg"
   xmlns:sodipodi="http://sodipodi.sourceforge.net/DTD/sodipodi-0.dtd"
   xmlns:inkscape="http://www.inkscape.org/namespaces/inkscape"
   version="1.1"
   id="svg2"
   xml:space="preserve"
   width="666.66669"
   height="666.66669"
   viewBox="0 0 666.66669 666.66669"
   sodipodi:docname="ticket-qr-code-frame-2.eps"><metadata
     id="metadata8"><rdf:RDF><cc:Work
         rdf:about=""><dc:format>image/svg+xml</dc:format><dc:type
           rdf:resource="http://purl.org/dc/dcmitype/StillImage" /></cc:Work></rdf:RDF></metadata><defs
     id="defs6" /><sodipodi:namedview
     pagecolor="#ffffff"
     bordercolor="#666666"
     borderopacity="1"
     objecttolerance="10"
     gridtolerance="10"
     guidetolerance="10"
     inkscape:pageopacity="0"
     inkscape:pageshadow="2"
     inkscape:window-width="640"
     inkscape:window-height="480"
     id="namedview4" /><g
     id="g10"
     inkscape:groupmode="layer"
     inkscape:label="ink_ext_XXXXXX"
     transform="matrix(1.3333333,0,0,-1.3333333,0,666.66667)"><g
       id="g12"
       transform="scale(0.1)"><path
         d="M 3076.08,3222.79 H 786.672 c -77.484,0 -140.293,62.81 -140.293,140.3 v 349.4 c 0,77.49 62.809,140.3 140.293,140.3 H 3076.08 c 77.48,0 140.3,-62.81 140.3,-140.3 v -349.4 c 0,-77.49 -62.82,-140.3 -140.3,-140.3"
         style="fill:#2a2a2b;fill-opacity:1;fill-rule:nonzero;stroke:none"
         id="path14" /><path
         d="m 1157.49,3455.21 18.62,22.04 c 27.73,-25.08 54.33,-37.62 91.18,-37.62 35.72,0 59.28,18.99 59.28,45.98 0,24.69 -13.3,38.75 -69.15,50.52 -61.17,13.3 -89.29,33.06 -89.29,77.51 0,41.8 36.86,72.57 87.39,72.57 38.75,0 66.49,-11.01 93.46,-32.67 l -17.48,-23.18 c -24.69,20.14 -49.39,28.88 -76.74,28.88 -34.58,0 -56.62,-19 -56.62,-43.69 0,-25.08 13.68,-39.14 72.19,-51.68 59.27,-12.91 86.63,-34.57 86.63,-75.99 0,-45.59 -38,-75.22 -90.81,-75.22 -42.17,0 -76.75,14.05 -108.66,42.55"
         style="fill:#ffffff;fill-opacity:1;fill-rule:nonzero;stroke:none"
         id="path16" /><path
         d="m 1401.07,3514.48 c 0,55.47 43.31,102.58 100.68,102.58 37.24,0 60.41,-15.58 78.65,-34.95 l -18.61,-19.76 c -15.58,16.34 -33.82,28.88 -60.42,28.88 -39.89,0 -70.29,-33.82 -70.29,-76.75 0,-42.56 31.16,-76.37 72.19,-76.37 25.08,0 43.7,12.92 59.27,29.63 l 19.38,-17.85 c -19.76,-22.04 -43.31,-38 -80.17,-38 -57.37,0 -100.68,46.73 -100.68,102.59"
         style="fill:#ffffff;fill-opacity:1;fill-rule:nonzero;stroke:none"
         id="path18" /><path
         d="m 1759.77,3488.64 v 18.23 c -14.44,4.18 -33.44,8.36 -57.38,8.36 -36.47,0 -57.37,-15.95 -57.37,-40.27 0,-24.7 22.8,-39.13 49.39,-39.13 36.1,0 65.36,21.66 65.36,52.81 z m -144.38,-14.43 c 0,42.17 34.19,64.21 83.97,64.21 25.07,0 42.55,-3.42 60.02,-8.36 v 6.07 c 0,34.96 -21.27,53.2 -58.13,53.2 -23.17,0 -41.41,-5.7 -59.65,-14.06 l -8.73,23.94 c 21.65,9.87 42.55,16.72 71.42,16.72 27.74,0 49.4,-7.61 63.45,-21.66 13.68,-13.68 20.52,-32.68 20.52,-57.76 v -120.05 h -28.88 v 29.25 c -13.67,-17.48 -36.09,-33.43 -70.66,-33.43 -36.86,0 -73.33,20.89 -73.33,61.93"
         style="fill:#ffffff;fill-opacity:1;fill-rule:nonzero;stroke:none"
         id="path20" /><path
         d="m 1850.22,3612.88 h 29.26 v -34.19 c 12.92,21.27 33.44,38.37 67.25,38.37 47.49,0 75.23,-31.91 75.23,-78.64 v -121.96 h -29.25 v 114.73 c 0,36.48 -19.77,59.28 -54.34,59.28 -33.81,0 -58.89,-24.7 -58.89,-61.55 v -112.46 h -29.26 v 196.42"
         style="fill:#ffffff;fill-opacity:1;fill-rule:nonzero;stroke:none"
         id="path22" /><path
         d="m 2198.3,3612.88 h 29.25 v -33.06 c 12.92,19.39 30.39,37.24 63.45,37.24 31.92,0 52.43,-17.1 63.07,-39.13 14.06,21.66 34.96,39.13 69.15,39.13 45.22,0 72.95,-30.39 72.95,-79.02 v -121.58 h -29.26 v 114.73 c 0,38 -18.99,59.28 -50.91,59.28 -29.63,0 -54.33,-22.04 -54.33,-60.79 v -113.22 h -28.87 v 115.49 c 0,36.86 -19.38,58.52 -50.54,58.52 -31.15,0 -54.71,-25.84 -54.71,-61.93 v -112.08 h -29.25 v 196.42"
         style="fill:#ffffff;fill-opacity:1;fill-rule:nonzero;stroke:none"
         id="path24" /><path
         d="m 2703.67,3526.26 c -3.42,35.71 -23.93,66.1 -62.69,66.1 -33.82,0 -59.65,-28.11 -63.83,-66.1 z m -57.37,-88.91 c 26.98,0 45.97,11.02 61.93,27.74 l 18.24,-16.34 c -19.76,-22.04 -43.7,-36.86 -80.93,-36.86 -53.95,0 -98.03,41.42 -98.03,102.59 0,56.99 39.9,102.58 94.23,102.58 58.13,0 91.57,-46.35 91.57,-104.1 0,-2.66 0,-5.7 -0.39,-10.26 h -155.77 c 4.18,-41.41 34.57,-65.35 69.15,-65.35"
         style="fill:#ffffff;fill-opacity:1;fill-rule:nonzero;stroke:none"
         id="path26" /><path
         d="M 4128.99,782.18 H 2233.18 V 2677.99 H 4128.99 V 782.18"
         style="fill:#ffffff;fill-opacity:1;fill-rule:nonzero;stroke:none"
         id="path28" /><path
         d="M 3988.06,925.621 H 2374.11 V 2539.58 H 3988.06 V 925.621"
         style="fill:#ffffff;fill-opacity:1;fill-rule:nonzero;stroke:none"
         id="path30" /><path
         d="m 3952.41,2152.87 h 71.3 v 422.36 h -422.36 v -71.29 h 351.06 v -351.07"
         style="fill:#a6a7a7;fill-opacity:1;fill-rule:nonzero;stroke:none"
         id="path32" /><path
         d="m 2409.76,2152.87 v 351.07 h 351.06 v 71.29 h -422.36 v -422.36 h 71.3"
         style="fill:#a6a7a7;fill-opacity:1;fill-rule:nonzero;stroke:none"
         id="path34" /><path
         d="m 2409.76,1312.34 h -71.3 V 889.969 h 422.36 v 71.312 h -351.06 v 351.059"
         style="fill:#a6a7a7;fill-opacity:1;fill-rule:nonzero;stroke:none"
         id="path36" /><path
         d="M 3952.41,1312.34 V 961.281 h -351.06 v -71.312 h 422.36 v 422.371 h -71.3"
         style="fill:#a6a7a7;fill-opacity:1;fill-rule:nonzero;stroke:none"
         id="path38" /><path
         d="m 2659.85,1889.58 -52.48,115.51 -52.76,-115.51 z m -59.32,131.76 h 14.26 l 92.97,-201.06 h -16.26 l -25.38,55.9 h -117.78 l -25.38,-55.9 h -15.4 l 92.97,201.06"
         style="fill:#a6a7a7;fill-opacity:1;fill-rule:nonzero;stroke:none"
         id="path40" /><path
         d="m 2861.78,1893.29 c 0,37.36 -29.09,62.45 -59.32,62.45 -31.66,0 -57.04,-23.09 -57.04,-62.73 0,-38.22 26.52,-62.75 57.04,-62.75 30.23,0 59.32,25.38 59.32,63.03 z m -131.48,-0.28 c 0,47.34 35.65,76.14 70.73,76.14 29.09,0 47.91,-16.54 59.89,-34.79 v 94.11 h 13.97 v -208.19 h -13.97 v 32.51 c -12.55,-19.1 -31.09,-35.92 -59.89,-35.92 -35.08,0 -70.73,28.23 -70.73,76.14"
         style="fill:#a6a7a7;fill-opacity:1;fill-rule:nonzero;stroke:none"
         id="path42" /><path
         d="m 3050.01,1893.29 c 0,37.36 -29.09,62.45 -59.32,62.45 -31.65,0 -57.03,-23.09 -57.03,-62.73 0,-38.22 26.52,-62.75 57.03,-62.75 30.23,0 59.32,25.38 59.32,63.03 z m -131.47,-0.28 c 0,47.34 35.65,76.14 70.73,76.14 29.09,0 47.91,-16.54 59.89,-34.79 v 94.11 h 13.97 v -208.19 h -13.97 v 32.51 c -12.55,-19.1 -31.09,-35.92 -59.89,-35.92 -35.08,0 -70.73,28.23 -70.73,76.14"
         style="fill:#a6a7a7;fill-opacity:1;fill-rule:nonzero;stroke:none"
         id="path44" /><path
         d="m 3190.63,1780.07 4.85,12.26 c 7.7,-3.71 13.97,-5.42 24.81,-5.42 15.12,0 25.1,8.85 35.93,34.23 l -69.87,144.59 h 16.26 l 60.46,-130.05 52.47,130.05 h 15.4 l -63.02,-150.58 c -12.84,-30.51 -27.67,-41.35 -48.49,-41.35 -11.12,0 -19.1,1.99 -28.8,6.27"
         style="fill:#a6a7a7;fill-opacity:1;fill-rule:nonzero;stroke:none"
         id="path46" /><path
         d="m 3485.24,1893.01 c 0,35.08 -27.09,63.03 -59.88,63.03 -32.8,0 -59.32,-28.24 -59.32,-63.03 0,-35.08 26.23,-63.03 59.88,-63.03 32.23,0 59.32,28.23 59.32,63.03 z m -134.32,0 c 0,40.78 31.66,76.14 75,76.14 43.07,0 74.44,-34.79 74.44,-76.14 0,-40.78 -31.66,-76.14 -75,-76.14 -43.07,0 -74.44,34.78 -74.44,76.14"
         style="fill:#a6a7a7;fill-opacity:1;fill-rule:nonzero;stroke:none"
         id="path48" /><path
         d="m 3540.59,1876.75 v 88.98 h 13.97 v -86.41 c 0,-29.95 16.83,-49.62 46.2,-49.62 28.52,0 50.48,21.67 50.48,51.9 v 84.13 h 13.97 v -145.45 h -13.97 v 27.09 c -9.7,-17.11 -25.96,-30.5 -52.48,-30.5 -36.79,0 -58.17,25.08 -58.17,59.88"
         style="fill:#a6a7a7;fill-opacity:1;fill-rule:nonzero;stroke:none"
         id="path50" /><path
         d="m 3718.27,1965.73 h 13.97 v -41.36 c 11.41,25.96 35.65,44.78 64.45,43.64 v -15.4 h -1.43 c -33.64,0 -63.02,-25.38 -63.02,-72.73 v -59.6 h -13.97 v 145.45"
         style="fill:#a6a7a7;fill-opacity:1;fill-rule:nonzero;stroke:none"
         id="path52" /><path
         d="m 2655,1520.52 -32.51,27.66 27.95,31.37 32.8,-29.66 c 3.7,8.27 5.41,17.4 5.41,27.95 0,34.22 -25.09,62.75 -60.46,62.75 -35.36,0 -59.88,-27.95 -59.88,-62.75 0,-34.22 25.09,-62.74 60.45,-62.74 9.7,0 18.54,2 26.24,5.42 z m 32.51,-28.8 c -16.82,-10.84 -37.07,-17.11 -59.32,-17.11 -61.6,0 -105.8,45.91 -105.8,103.23 0,56.76 44.77,103.24 106.37,103.24 61.61,0 105.81,-45.91 105.81,-103.24 0,-20.82 -6.27,-40.78 -17.68,-57.32 l 20.53,-17.4 -27.95,-31.08 -21.96,19.68"
         style="fill:#a6a7a7;fill-opacity:1;fill-rule:nonzero;stroke:none"
         id="path54" /><path
         d="m 2862.07,1580.69 c 21.39,0 33.65,11.41 33.65,28.81 0,18.82 -13.12,28.52 -34.51,28.52 h -43.63 v -57.33 z m -88.41,96.97 h 91.26 c 25.38,0 45.06,-7.13 58.18,-20.25 11.12,-11.12 17.11,-26.8 17.11,-46.2 0,-32.23 -17.4,-52.48 -42.78,-61.88 l 48.77,-71.3 h -51.34 l -43.35,63.87 h -33.93 v -63.87 h -43.92 v 199.63"
         style="fill:#a6a7a7;fill-opacity:1;fill-rule:nonzero;stroke:none"
         id="path56" /><path
         d="m 3056.59,1577.84 c 0,56.76 42.77,103.24 104.09,103.24 37.64,0 58.74,-14.26 77.28,-32.52 l -26.23,-30.22 c -15.4,13.97 -28.52,22.25 -51.34,22.25 -33.65,0 -57.89,-27.95 -57.89,-62.75 0,-34.22 23.67,-62.74 57.89,-62.74 22.82,0 36.79,9.13 52.48,23.39 l 27.95,-29.95 c -20.54,-21.96 -43.35,-33.93 -81.86,-33.93 -58.74,0 -102.37,45.34 -102.37,103.23"
         style="fill:#a6a7a7;fill-opacity:1;fill-rule:nonzero;stroke:none"
         id="path58" /><path
         d="m 3383.71,1554.17 c 0,22.53 -16.25,42.21 -40.21,42.21 -24.81,0 -39.64,-19.1 -39.64,-42.21 0,-22.53 16.25,-42.21 40.21,-42.21 24.81,0 39.64,19.11 39.64,42.21 z m -122.63,0 c 0,43.93 35.36,79.57 82.99,79.57 47.34,0 82.42,-35.08 82.42,-79.57 0,-43.92 -35.37,-79.56 -82.99,-79.56 -47.34,0 -82.42,35.08 -82.42,79.56"
         style="fill:#a6a7a7;fill-opacity:1;fill-rule:nonzero;stroke:none"
         id="path60" /><path
         d="m 3568.81,1554.75 c 0,25.38 -16.83,42.2 -37.08,42.2 -20.25,0 -37.35,-16.54 -37.35,-42.78 0,-25.38 17.1,-42.21 37.35,-42.21 20.25,0 37.08,16.83 37.08,42.79 z m -117.78,0 c 0,51.04 33.36,78.99 69.58,78.99 23.1,0 37.36,-10.56 47.63,-22.81 v 75.28 h 43.35 v -208.18 h -43.35 v 21.96 c -10.55,-14.27 -25.1,-24.81 -47.63,-24.81 -35.65,0 -69.58,27.94 -69.58,79.57"
         style="fill:#a6a7a7;fill-opacity:1;fill-rule:nonzero;stroke:none"
         id="path62" /><path
         d="m 3750.77,1566.44 c -2.57,19.39 -13.97,32.51 -32.23,32.51 -17.96,0 -29.66,-12.84 -33.08,-32.51 z m -107.8,-12.27 c 0,43.63 31.08,79.57 75.57,79.57 51.05,0 74.44,-39.64 74.44,-82.99 0,-3.43 -0.29,-7.41 -0.57,-11.4 h -106.38 c 4.28,-19.68 17.97,-29.96 37.36,-29.96 14.54,0 25.1,4.57 37.07,15.7 l 24.82,-21.97 c -14.26,-17.68 -34.8,-28.51 -62.46,-28.51 -45.92,0 -79.85,32.23 -79.85,79.56"
         style="fill:#a6a7a7;fill-opacity:1;fill-rule:nonzero;stroke:none"
         id="path64" /><path
         d="M 4351.15,716.941 C 4351.14,611.57 4303.7,564.27 4197.43,564.262 c -782.38,-0.082 -1564.76,-0.051 -2347.14,0.039 -13.23,0.008 -26.47,1.23 -42.76,2.031 0,43.188 0.66,82.969 -0.17,122.707 -0.99,46.961 -26.91,74.922 -66.58,73.672 -38.24,-1.199 -60.46,-27.723 -61.08,-74.262 -0.53,-39.687 -0.11,-79.39 -0.11,-120.027 -11.11,-1.813 -18.25,-3.981 -25.4,-3.981 -252.46,-0.132 -504.92,-0.902 -757.374,0.481 -79.148,0.437 -129.48,54.629 -129.937,134.328 -0.633,111.219 0.301,222.461 -0.359,333.69 -0.344,58.01 23.515,100.18 74.601,128.37 422.089,232.93 422.989,842.76 1.25,1076.65 -52.492,29.12 -76.433,71.96 -75.922,131.42 0.914,106.24 0.16,212.48 0.285,318.71 0.114,98.24 48.852,147.45 147.368,147.56 241.208,0.3 482.418,0.15 723.638,-0.02 13.08,-0.01 26.15,-1.72 41.85,-2.84 0,-42.67 -0.37,-81.25 0.09,-119.8 0.58,-48.62 23.74,-75.87 63.46,-75.76 39.09,0.09 63.65,28.46 64.25,76.13 0.53,40.8 0.37,81.62 0.25,122.44 673.92,-0.05 1770.06,-0.02 2387.51,-0.07 109.18,-0.01 156,-46.36 156,-154.09 0.03,-654.9 0.03,-1309.8 0,-1964.699 z M 4200.97,2964.1 c -650.92,0.27 -1823.87,0.12 -2492.87,0.08 -247.84,0.09 -495.66,0.1 -743.491,-0.04 -29.976,-0.02 -60.089,0.51 -89.902,-1.99 -111.859,-9.4 -198.469,-82.85 -228.027,-191.68 -1.907,-7.01 -5.133,-13.66 -7.742,-20.48 0,-145 0,-290 0,-435 22.121,-95.02 83.398,-154.14 165.398,-204.81 302.324,-186.83 302.284,-633.52 -0.055,-820.36 -81.984,-50.67 -143.297,-109.77 -165.343,-204.83 0,-145.002 0,-290.002 0,-435.002 1.488,-1.949 3.718,-3.679 4.375,-5.886 42.648,-143.59 127.804,-208.262 276.398,-208.27 1093.579,-0.133 2187.169,-0.184 3280.739,0.047 172.79,0.031 278.44,105.992 278.46,277.762 0.06,657.399 0.06,1314.799 0,1972.199 -0.02,171.95 -105.61,278.18 -277.94,278.26"
         style="fill:#2a2a2b;fill-opacity:1;fill-rule:nonzero;stroke:none"
         id="path66" /><path
         d="m 1679.74,2094 c 0,39.85 -0.85,79.71 0.23,119.52 1.1,40.49 24.69,65.15 60.83,66.24 37.33,1.12 65.29,-24.18 66.08,-65.55 1.57,-82.14 1.59,-164.36 -0.08,-246.5 -0.79,-38.91 -28.75,-64.8 -63.49,-65.01 -36.69,-0.23 -61.64,26.45 -63.62,68.04 -0.11,2.48 -0.09,4.98 -0.09,7.47 -0.01,38.6 -0.01,77.19 -0.01,115.79 0.05,0 0.1,0 0.15,0"
         style="fill:#2a2a2b;fill-opacity:1;fill-rule:nonzero;stroke:none"
         id="path68" /><path
         d="m 1679.71,1309.55 c -0.03,39.84 -0.79,79.7 0.18,119.52 1.01,41.74 26.44,68.3 63.2,68.23 34.71,-0.06 62.92,-25.94 63.68,-64.76 1.63,-83.38 1.78,-166.85 -0.22,-250.22 -0.92,-38.85 -29.71,-63.08 -65.53,-62.09 -36.08,1 -59.95,25.76 -61.03,66.07 -1.11,41.05 -0.25,82.16 -0.28,123.25"
         style="fill:#2a2a2b;fill-opacity:1;fill-rule:nonzero;stroke:none"
         id="path70" /><path
         d="m 3827.63,3121.75 136.39,207.61 h -83.12 v 35.38 c -0.12,12.33 0.4,21.83 -0.68,38.77 -1.9,30.64 -10.17,61.06 -24.12,88.5 -22.74,44.69 -60.21,81.72 -105.81,102.91 -22.68,10.66 -47.12,17.91 -72.07,20.59 -27.47,2.34 -43.77,1.21 -63.51,1.49 h -230.61 -36.6 v -106.56 h 36.6 230.61 c 18.67,-0.05 40.89,0.3 51.71,-0.83 13.32,-1.4 26.17,-5.37 38.23,-10.99 24.3,-11.09 44.35,-31.17 56.45,-54.87 7.4,-14.61 11.76,-30.62 12.79,-47.03 0.66,-6.61 0.41,-20.71 0.46,-31.98 v -35.38 h -83.11 l 136.39,-207.61"
         style="fill:#2a2a2b;fill-opacity:1;fill-rule:nonzero;stroke:none"
         id="path72" /></g></g></svg>
