<?xml version="1.0" encoding="UTF-8" standalone="no"?>
<svg
   xmlns:dc="http://purl.org/dc/elements/1.1/"
   xmlns:cc="http://creativecommons.org/ns#"
   xmlns:rdf="http://www.w3.org/1999/02/22-rdf-syntax-ns#"
   xmlns:svg="http://www.w3.org/2000/svg"
   xmlns="http://www.w3.org/2000/svg"
   xmlns:sodipodi="http://sodipodi.sourceforge.net/DTD/sodipodi-0.dtd"
   xmlns:inkscape="http://www.inkscape.org/namespaces/inkscape"
   version="1.1"
   id="svg2"
   xml:space="preserve"
   width="666.66669"
   height="666.66669"
   viewBox="0 0 666.66669 666.66669"
   sodipodi:docname="ticket-qr-code-frame-1.eps"><metadata
     id="metadata8"><rdf:RDF><cc:Work
         rdf:about=""><dc:format>image/svg+xml</dc:format><dc:type
           rdf:resource="http://purl.org/dc/dcmitype/StillImage" /></cc:Work></rdf:RDF></metadata><defs
     id="defs6" /><sodipodi:namedview
     pagecolor="#ffffff"
     bordercolor="#666666"
     borderopacity="1"
     objecttolerance="10"
     gridtolerance="10"
     guidetolerance="10"
     inkscape:pageopacity="0"
     inkscape:pageshadow="2"
     inkscape:window-width="640"
     inkscape:window-height="480"
     id="namedview4" /><g
     id="g10"
     inkscape:groupmode="layer"
     inkscape:label="ink_ext_XXXXXX"
     transform="matrix(1.3333333,0,0,-1.3333333,0,666.66667)"><g
       id="g12"
       transform="scale(0.1)"><path
         d="m 1137.43,2680.83 c 0,-607.27 0.24,-1214.54 -0.69,-1821.818 -0.05,-31.953 7.95,-54.992 31.27,-77.293 67.31,-64.41 131.4,-132.199 199.05,-196.227 14.92,-14.133 39.3,-25.832 59.35,-25.871 652.31,-1.34 1304.63,-1.34 1956.93,-0.012 20.08,0.039 44.53,11.59 59.44,25.7 67.66,64.023 131.75,131.82 199.07,196.211 23.34,22.339 31.19,45.441 31.17,77.359 -0.79,1206.781 -0.65,2413.561 -0.69,3620.351 0,167.31 -87.82,254.44 -256.31,254.45 -674.06,0.02 -1348.11,0.02 -2022.17,0 -168.78,-0.01 -256.4,-86.89 -256.41,-254.32 -0.04,-599.51 -0.01,-1199.02 -0.01,-1798.53 z M 1305.18,111.172 c -57.16,26.137 -119.67,44.629 -170.34,80.047 -95.92,67.051 -141.516,166.371 -145.945,283.179 -2.055,54.282 -0.571,108.704 -0.571,163.043 -0.011,1284.269 -0.066,2568.529 0.055,3852.789 0.019,184.89 100.021,326.62 267.681,375.95 36.64,10.78 76.28,15.89 114.56,15.94 689.49,0.93 1378.98,1.06 2068.48,0.45 220.71,-0.19 382.05,-161.73 382.13,-383 0.45,-1335.51 0.41,-2671.02 0.01,-4006.519 -0.06,-189.071 -114.38,-329.61 -300.32,-374.18 -5.72,-1.383 -10.89,-5.082 -16.32,-7.699 -733.14,0 -1466.28,0 -2199.42,0"
         style="fill:#2a2a2b;fill-opacity:1;fill-rule:nonzero;stroke:none"
         id="path14" /><path
         d="m 2833.96,707.75 c -142.9,-0.371 -285.8,-0.121 -428.7,-0.121 -142.9,0 -285.8,-0.25 -428.7,0.121 -59.02,0.129 -92.95,27.59 -93.2,74.07 -0.24,46.719 33.68,74.801 92.46,74.801 285.8,0.25 571.6,0.25 857.28,0 59.02,0 93.07,-27.59 93.32,-74.062 0.24,-46.477 -33.93,-74.68 -92.46,-74.809 z m -570.23,3876.58 c 48.09,0.99 96.3,0.25 144.39,0.25 45.11,0 90.09,0.62 135.2,-0.13 51.81,-0.99 84,-29.2 84.87,-73.06 0.74,-43.87 -31.56,-75.05 -82.26,-75.55 -94.69,-1 -189.5,-1.12 -284.19,0 -48.09,0.62 -79.4,30.7 -80.15,72.94 -0.87,43.99 31.44,74.43 82.14,75.55 z M 3672.35,4479.2 c 0,167.38 -87.85,254.49 -256.35,254.49 H 1393.9 c -168.87,0 -256.47,-86.85 -256.47,-254.36 V 2680.77 c 0,-607.26 0.25,-1214.53 -0.62,-1821.801 -0.13,-31.93 7.82,-54.918 31.18,-77.278 67.35,-64.371 131.47,-132.222 199.07,-196.211 14.91,-14.16 39.27,-25.839 59.4,-25.839 652.25,-1.371 1304.61,-1.371 1956.86,0 20.13,0 44.49,11.55 59.4,25.718 67.72,64 131.84,131.711 199.19,196.2 23.24,22.25 31.19,45.363 31.06,77.3 -0.74,1206.821 -0.62,2413.651 -0.62,3620.341"
         style="fill:#ffffff;fill-opacity:1;fill-rule:nonzero;stroke:none"
         id="path16" /><path
         d="m 2926.42,782.559 c 0.24,-46.477 -33.93,-74.68 -92.46,-74.809 -142.9,-0.371 -285.8,-0.121 -428.7,-0.121 -142.9,0 -285.8,-0.25 -428.7,0.121 -59.02,0.129 -92.95,27.59 -93.2,74.07 -0.24,46.719 33.68,74.801 92.46,74.801 285.8,0.25 571.6,0.25 857.28,0 59.02,0 93.07,-27.59 93.32,-74.062"
         style="fill:#2a2a2b;fill-opacity:1;fill-rule:nonzero;stroke:none"
         id="path18" /><path
         d="m 2628.19,4511.39 c 0.74,-43.87 -31.56,-75.05 -82.26,-75.55 -94.69,-1 -189.5,-1.12 -284.19,0 -48.09,0.62 -79.4,30.7 -80.15,72.94 -0.87,43.99 31.44,74.43 82.14,75.55 48.09,0.99 96.3,0.25 144.39,0.25 45.11,0 90.09,0.62 135.2,-0.13 51.81,-0.99 84,-29.2 84.87,-73.06"
         style="fill:#2a2a2b;fill-opacity:1;fill-rule:nonzero;stroke:none"
         id="path20" /><path
         d="M 3477.21,1158.47 H 1332.57 c -88.63,0 -160.48,71.85 -160.48,160.48 v 322.45 c 0,88.62 71.85,160.47 160.48,160.47 h 2144.64 c 88.63,0 160.48,-71.85 160.48,-160.47 v -322.45 c 0,-88.63 -71.85,-160.48 -160.48,-160.48"
         style="fill:#2a2a2b;fill-opacity:1;fill-rule:nonzero;stroke:none"
         id="path22" /><path
         d="m 1394.42,1338.72 30.91,36.96 c 27.98,-24.36 55.96,-38.22 92.3,-38.22 31.74,0 51.78,14.7 51.78,37.8 0,21.01 -11.69,32.35 -65.98,45.37 -62.23,14.7 -97.31,33.19 -97.31,88.22 0,50.41 41.76,85.27 99.81,85.27 42.6,0 76.43,-13.02 106.08,-36.96 l -27.56,-39.07 c -26.32,19.74 -52.62,30.24 -79.35,30.24 -30.08,0 -47.61,-15.54 -47.61,-35.7 0,-22.69 13.36,-32.77 69.32,-46.21 61.81,-15.12 93.97,-37.39 93.97,-86.96 0,-55.03 -43.02,-87.79 -104.41,-87.79 -44.69,0 -86.87,15.54 -121.95,47.05"
         style="fill:#ffffff;fill-opacity:1;fill-rule:nonzero;stroke:none"
         id="path24" /><path
         d="m 1668.42,1442.89 c 0,83.6 62.22,152.07 150.76,152.07 53.88,0 86.45,-18.91 114.44,-45.79 l -32.99,-38.22 c -23.39,21.84 -48.45,36.54 -81.86,36.54 -55.97,0 -96.48,-46.2 -96.48,-104.6 0,-57.55 40.51,-104.59 96.48,-104.59 35.91,0 58.89,14.7 83.94,38.22 l 32.99,-33.6 c -30.48,-31.92 -63.89,-52.09 -118.61,-52.09 -85.19,0 -148.67,66.79 -148.67,152.06"
         style="fill:#ffffff;fill-opacity:1;fill-rule:nonzero;stroke:none"
         id="path26" /><path
         d="m 2166.68,1412.65 -50.53,117.62 -50.11,-117.62 z m -73.5,179.37 h 47.61 l 128.63,-296.15 h -54.29 l -29.65,71 h -138.24 l -30.07,-71 h -52.62 l 128.63,296.15"
         style="fill:#ffffff;fill-opacity:1;fill-rule:nonzero;stroke:none"
         id="path28" /><path
         d="m 2319.57,1589.92 h 47.61 l 156.61,-203.32 v 203.32 h 50.54 v -294.05 h -43.02 l -161.21,209.2 v -209.2 h -50.53 v 294.05"
         style="fill:#ffffff;fill-opacity:1;fill-rule:nonzero;stroke:none"
         id="path30" /><path
         d="m 2828.53,1589.92 h 54.7 l 88.96,-139.04 88.96,139.04 h 54.7 v -294.05 h -51.36 v 210.88 l -92.3,-138.63 h -1.67 l -91.46,137.79 v -210.04 h -50.53 v 294.05"
         style="fill:#ffffff;fill-opacity:1;fill-rule:nonzero;stroke:none"
         id="path32" /><path
         d="m 3191.07,1589.92 h 216.75 v -46.21 h -165.38 v -76.45 h 146.59 v -46.21 h -146.59 v -78.97 h 167.47 v -46.21 h -218.84 v 294.05"
         style="fill:#ffffff;fill-opacity:1;fill-rule:nonzero;stroke:none"
         id="path34" /><path
         d="M 3252.8,1692.18 H 1556.98 c -112.16,0 -203.08,90.92 -203.08,203.07 v 1695.82 c 0,112.16 90.92,203.08 203.08,203.08 H 3252.8 c 112.16,0 203.08,-90.92 203.08,-203.08 V 1895.25 c 0,-112.15 -90.92,-203.07 -203.08,-203.07"
         style="fill:#ffffff;fill-opacity:1;fill-rule:nonzero;stroke:none"
         id="path36" /><path
         d="M 3252.8,1692.18 H 1556.98 c -112.16,0 -203.08,90.92 -203.08,203.07 v 1695.82 c 0,112.16 90.92,203.08 203.08,203.08 H 3252.8 c 112.16,0 203.08,-90.92 203.08,-203.08 V 1895.25 c 0,-112.15 -90.92,-203.07 -203.08,-203.07 z"
         style="fill:none;stroke:#2a2a2b;stroke-width:54.9469;stroke-linecap:butt;stroke-linejoin:miter;stroke-miterlimit:10;stroke-dasharray:none;stroke-opacity:1"
         id="path38" /><path
         d="M 3285.5,1880.3 H 1524.27 V 3641.53 H 3285.5 V 1880.3"
         style="fill:#ffffff;fill-opacity:1;fill-rule:nonzero;stroke:none"
         id="path40" /><path
         d="M 3154.58,2013.57 H 1655.2 V 3512.96 H 3154.58 V 2013.57"
         style="fill:#ffffff;fill-opacity:1;fill-rule:nonzero;stroke:none"
         id="path42" /><path
         d="m 3121.46,3153.7 h 66.24 v 392.38 h -392.38 v -66.24 h 326.14 V 3153.7"
         style="fill:#a6a7a7;fill-opacity:1;fill-rule:nonzero;stroke:none"
         id="path44" /><path
         d="m 1688.32,3153.7 v 326.14 h 326.14 v 66.24 H 1622.08 V 3153.7 h 66.24"
         style="fill:#a6a7a7;fill-opacity:1;fill-rule:nonzero;stroke:none"
         id="path46" /><path
         d="m 1688.32,2372.83 h -66.24 v -392.38 h 392.38 v 66.24 h -326.14 v 326.14"
         style="fill:#a6a7a7;fill-opacity:1;fill-rule:nonzero;stroke:none"
         id="path48" /><path
         d="m 3121.46,2372.83 v -326.14 h -326.14 v -66.24 h 392.38 v 392.38 h -66.24"
         style="fill:#a6a7a7;fill-opacity:1;fill-rule:nonzero;stroke:none"
         id="path50" /><path
         d="m 1920.62,2909.09 -48.74,107.29 -49,-107.29 z m -55.1,122.38 h 13.25 l 86.35,-186.74 h -15.1 l -23.57,51.91 h -109.4 l -23.58,-51.91 h -14.3 l 86.35,186.74"
         style="fill:#a6a7a7;fill-opacity:1;fill-rule:nonzero;stroke:none"
         id="path52" /><path
         d="m 2108.22,2912.54 c 0,34.7 -27.01,58.01 -55.09,58.01 -29.4,0 -52.98,-21.46 -52.98,-58.27 0,-35.5 24.63,-58.29 52.98,-58.29 28.08,0 55.09,23.59 55.09,58.55 z m -122.11,-0.26 c 0,43.97 33.11,70.72 65.69,70.72 27.02,0 44.5,-15.36 55.63,-32.32 v 87.42 h 12.98 v -193.37 h -12.98 v 30.19 c -11.65,-17.74 -28.88,-33.38 -55.63,-33.38 -32.58,0 -65.69,26.23 -65.69,70.74"
         style="fill:#a6a7a7;fill-opacity:1;fill-rule:nonzero;stroke:none"
         id="path54" /><path
         d="m 2283.1,2912.54 c 0,34.7 -27.02,58.01 -55.1,58.01 -29.4,0 -52.98,-21.46 -52.98,-58.27 0,-35.5 24.63,-58.29 52.98,-58.29 28.08,0 55.1,23.59 55.1,58.55 z m -122.12,-0.26 c 0,43.97 33.11,70.72 65.69,70.72 27.03,0 44.51,-15.36 55.63,-32.32 v 87.42 h 12.98 v -193.37 h -12.98 v 30.19 c -11.65,-17.74 -28.87,-33.38 -55.63,-33.38 -32.58,0 -65.69,26.23 -65.69,70.74"
         style="fill:#a6a7a7;fill-opacity:1;fill-rule:nonzero;stroke:none"
         id="path56" /><path
         d="m 2413.75,2807.37 4.51,11.4 c 7.15,-3.45 12.98,-5.04 23.04,-5.04 14.04,0 23.31,8.21 33.38,31.79 l -64.9,134.3 h 15.1 l 56.16,-120.79 48.74,120.79 h 14.3 l -58.54,-139.86 c -11.92,-28.35 -25.7,-38.41 -45.03,-38.41 -10.33,0 -17.75,1.85 -26.76,5.82"
         style="fill:#a6a7a7;fill-opacity:1;fill-rule:nonzero;stroke:none"
         id="path58" /><path
         d="m 2687.42,2912.28 c 0,32.57 -25.16,58.54 -55.62,58.54 -30.47,0 -55.1,-26.23 -55.1,-58.54 0,-32.59 24.37,-58.55 55.62,-58.55 29.94,0 55.1,26.23 55.1,58.55 z m -124.76,0 c 0,37.88 29.4,70.72 69.66,70.72 40,0 69.14,-32.32 69.14,-70.72 0,-37.89 -29.4,-70.74 -69.66,-70.74 -40,0 -69.14,32.33 -69.14,70.74"
         style="fill:#a6a7a7;fill-opacity:1;fill-rule:nonzero;stroke:none"
         id="path60" /><path
         d="m 2738.86,2897.18 v 82.64 h 12.98 v -80.26 c 0,-27.81 15.63,-46.09 42.91,-46.09 26.49,0 46.89,20.13 46.89,48.21 v 78.14 h 12.97 v -135.09 h -12.97 v 25.16 c -9.01,-15.9 -24.11,-28.35 -48.74,-28.35 -34.17,0 -54.04,23.32 -54.04,55.64"
         style="fill:#a6a7a7;fill-opacity:1;fill-rule:nonzero;stroke:none"
         id="path62" /><path
         d="m 2903.93,2979.82 h 12.98 v -38.4 c 10.59,24.1 33.11,41.58 59.86,40.52 v -14.3 h -1.32 c -31.26,0 -58.54,-23.58 -58.54,-67.55 v -55.36 h -12.98 v 135.09"
         style="fill:#a6a7a7;fill-opacity:1;fill-rule:nonzero;stroke:none"
         id="path64" /><path
         d="m 1916.13,2566.24 -30.2,25.69 25.96,29.14 30.46,-27.55 c 3.45,7.68 5.03,16.16 5.03,25.96 0,31.79 -23.31,58.27 -56.15,58.27 -32.85,0 -55.63,-25.95 -55.63,-58.27 0,-31.78 23.31,-58.28 56.15,-58.28 9.01,0 17.22,1.86 24.38,5.04 z m 30.19,-26.76 c -15.63,-10.07 -34.43,-15.89 -55.09,-15.89 -57.22,0 -98.28,42.65 -98.28,95.89 0,52.72 41.59,95.89 98.8,95.89 57.22,0 98.28,-42.65 98.28,-95.89 0,-19.33 -5.83,-37.88 -16.42,-53.24 l 19.07,-16.16 -25.96,-28.88 -20.4,18.28"
         style="fill:#a6a7a7;fill-opacity:1;fill-rule:nonzero;stroke:none"
         id="path66" /><path
         d="m 2108.49,2622.13 c 19.87,0 31.26,10.59 31.26,26.76 0,17.48 -12.19,26.48 -32.05,26.48 h -40.53 v -53.24 z m -82.11,90.06 h 84.76 c 23.58,0 41.85,-6.62 54.04,-18.8 10.33,-10.33 15.89,-24.9 15.89,-42.92 0,-29.93 -16.15,-48.74 -39.73,-57.48 l 45.3,-66.22 h -47.68 l -40.27,59.33 h -31.52 v -59.33 h -40.79 v 185.42"
         style="fill:#a6a7a7;fill-opacity:1;fill-rule:nonzero;stroke:none"
         id="path68" /><path
         d="m 2289.22,2619.48 c 0,52.72 39.74,95.89 96.68,95.89 34.97,0 54.57,-13.24 71.79,-30.19 l -24.37,-28.09 c -14.3,12.99 -26.49,20.66 -47.68,20.66 -31.26,0 -53.77,-25.95 -53.77,-58.27 0,-31.78 21.98,-58.28 53.77,-58.28 21.19,0 34.17,8.48 48.74,21.73 l 25.96,-27.82 c -19.07,-20.39 -40.26,-31.52 -76.02,-31.52 -54.57,0 -95.1,42.11 -95.1,95.89"
         style="fill:#a6a7a7;fill-opacity:1;fill-rule:nonzero;stroke:none"
         id="path70" /><path
         d="m 2593.11,2597.49 c 0,20.93 -15.1,39.21 -37.35,39.21 -23.05,0 -36.82,-17.75 -36.82,-39.21 0,-20.93 15.09,-39.2 37.34,-39.2 23.05,0 36.83,17.75 36.83,39.2 z m -113.91,0 c 0,40.8 32.85,73.91 77.08,73.91 43.98,0 76.56,-32.58 76.56,-73.91 0,-40.79 -32.84,-73.9 -77.08,-73.9 -43.98,0 -76.56,32.58 -76.56,73.9"
         style="fill:#a6a7a7;fill-opacity:1;fill-rule:nonzero;stroke:none"
         id="path72" /><path
         d="m 2765.06,2598.03 c 0,23.57 -15.62,39.2 -34.43,39.2 -18.81,0 -34.7,-15.36 -34.7,-39.74 0,-23.57 15.89,-39.2 34.7,-39.2 18.81,0 34.43,15.63 34.43,39.74 z m -109.4,0 c 0,47.41 31,73.37 64.64,73.37 21.45,0 34.7,-9.8 44.24,-21.19 v 69.93 h 40.26 v -193.37 h -40.26 v 20.4 c -9.81,-13.25 -23.31,-23.05 -44.24,-23.05 -33.11,0 -64.64,25.96 -64.64,73.91"
         style="fill:#a6a7a7;fill-opacity:1;fill-rule:nonzero;stroke:none"
         id="path74" /><path
         d="m 2934.11,2608.89 c -2.38,18 -12.98,30.19 -29.93,30.19 -16.69,0 -27.55,-11.92 -30.73,-30.19 z m -100.13,-11.4 c 0,40.54 28.88,73.91 70.2,73.91 47.42,0 69.14,-36.82 69.14,-77.08 0,-3.19 -0.27,-6.89 -0.53,-10.6 h -98.81 c 3.97,-18.28 16.69,-27.81 34.7,-27.81 13.51,0 23.31,4.24 34.44,14.57 l 23.04,-20.4 c -13.24,-16.43 -32.31,-26.49 -58.01,-26.49 -42.65,0 -74.17,29.94 -74.17,73.9"
         style="fill:#a6a7a7;fill-opacity:1;fill-rule:nonzero;stroke:none"
         id="path76" /></g></g></svg>
