<?xml version="1.0" encoding="UTF-8" standalone="no"?>
<svg
   xmlns:dc="http://purl.org/dc/elements/1.1/"
   xmlns:cc="http://creativecommons.org/ns#"
   xmlns:rdf="http://www.w3.org/1999/02/22-rdf-syntax-ns#"
   xmlns:svg="http://www.w3.org/2000/svg"
   xmlns="http://www.w3.org/2000/svg"
   xmlns:sodipodi="http://sodipodi.sourceforge.net/DTD/sodipodi-0.dtd"
   xmlns:inkscape="http://www.inkscape.org/namespaces/inkscape"
   version="1.1"
   id="svg2"
   xml:space="preserve"
   width="666.66669"
   height="666.66669"
   viewBox="0 0 666.66669 666.66669"
   sodipodi:docname="ticket-qr-code-frame-3.eps"><metadata
     id="metadata8"><rdf:RDF><cc:Work
         rdf:about=""><dc:format>image/svg+xml</dc:format><dc:type
           rdf:resource="http://purl.org/dc/dcmitype/StillImage" /></cc:Work></rdf:RDF></metadata><defs
     id="defs6" /><sodipodi:namedview
     pagecolor="#ffffff"
     bordercolor="#666666"
     borderopacity="1"
     objecttolerance="10"
     gridtolerance="10"
     guidetolerance="10"
     inkscape:pageopacity="0"
     inkscape:pageshadow="2"
     inkscape:window-width="640"
     inkscape:window-height="480"
     id="namedview4" /><g
     id="g10"
     inkscape:groupmode="layer"
     inkscape:label="ink_ext_XXXXXX"
     transform="matrix(1.3333333,0,0,-1.3333333,0,666.66667)"><g
       id="g12"
       transform="scale(0.1)"><path
         d="m 3069.03,3645.8 11.9,13.65 c 26.95,-24.84 51.8,-36.4 87.86,-36.4 36.76,0 61.95,20.66 61.95,49.35 0,25.91 -13.65,40.96 -69.3,52.17 -58.8,11.89 -82.61,31.85 -82.61,69.65 0,36.4 33.25,64.41 78.76,64.41 35.7,0 59.16,-9.8 84,-29.75 l -11.54,-14.36 c -23.11,19.95 -46.21,27.66 -73.17,27.66 -36.05,0 -59.85,-20.66 -59.85,-46.91 0,-25.9 13.3,-41.66 71.41,-53.55 56.71,-11.55 80.51,-31.86 80.51,-68.26 0,-39.55 -33.96,-66.86 -81.22,-66.86 -39.19,0 -69.3,12.95 -98.7,39.2"
         style="fill:#2a2a2b;fill-opacity:1;fill-rule:nonzero;stroke:none"
         id="path14" /><path
         d="m 3297.93,3732.62 c 0,69.3 51.81,126.71 122.51,126.71 43.76,0 68.95,-17.15 94.16,-40.26 l -11.9,-12.25 c -21.35,20.66 -45.85,36.05 -82.61,36.05 -58.8,0 -103.26,-47.95 -103.26,-110.25 0,-61.96 45.15,-110.27 103.61,-110.27 35.35,0 59.51,13.66 84.35,38.16 l 12.26,-11.9 c -25.9,-25.56 -53.91,-42.71 -97.31,-42.71 -70,0 -121.81,55.66 -121.81,126.72"
         style="fill:#2a2a2b;fill-opacity:1;fill-rule:nonzero;stroke:none"
         id="path16" /><path
         d="m 3732.99,3695.16 -64.41,141.76 -64.75,-141.76 z m -72.8,161.71 h 17.5 L 3791.8,3610.1 h -19.95 l -31.16,68.61 h -144.56 l -31.16,-68.61 h -18.9 l 114.12,246.77"
         style="fill:#2a2a2b;fill-opacity:1;fill-rule:nonzero;stroke:none"
         id="path18" /><path
         d="m 3843.57,3855.13 h 17.15 l 169.07,-213.18 v 213.18 h 17.5 V 3610.1 h -13.65 l -172.57,217.73 V 3610.1 h -17.5 v 245.03"
         style="fill:#2a2a2b;fill-opacity:1;fill-rule:nonzero;stroke:none"
         id="path20" /><path
         d="m 3107.18,3450.16 h 116.22 l 128.81,-207.23 128.82,207.23 h 116.21 V 2960.1 h -107.11 v 319.94 l -137.92,-209.33 h -2.81 l -136.51,207.22 V 2960.1 h -105.71 v 490.06"
         style="fill:#2a2a2b;fill-opacity:1;fill-rule:nonzero;stroke:none"
         id="path22" /><path
         d="m 3714.78,3450.16 h 369.63 v -95.92 h -262.52 v -99.41 h 231.03 v -95.9 h -231.03 v -102.91 h 266.03 v -95.92 h -373.14 v 490.06"
         style="fill:#2a2a2b;fill-opacity:1;fill-rule:nonzero;stroke:none"
         id="path24" /><path
         d="m 3890.51,1636.72 c -0.8,-92.1 68.8,-175 160.8,-179.6 68.3,-3.4 112.2,-32.2 139.1,-92.3 v -840 c -29.4,-68.101 -81.2,-91.101 -154.8,-91 -1179.91,1.399 -2359.91,1 -3539.797,1 -101.602,0 -145.403,44.2 -145.403,146.399 V 2684.92 c 0,108.1 41.594,149.9 149.094,149.9 1178.696,0 2357.396,-0.4 3536.106,1 73.7,0.1 125.4,-22.8 154.8,-91 v -840 c -26.7,-60.4 -70.91,-88.79 -139.1,-92.2 -90.5,-4.5 -160,-85.6 -160.8,-175.9"
         style="fill:#2a2a2b;fill-opacity:1;fill-rule:nonzero;stroke:none"
         id="path26" /><path
         d="m 2024.03,1998.63 c -4.27,-70.54 -32.16,-141.18 -88.11,-199.49 -40.67,-42.37 -80.85,-85.46 -124.45,-124.67 -30.18,-27.15 -34.17,-50.27 -15.13,-87.11 71.6,-138.55 140.83,-278.38 208.04,-419.11 12.71,-26.61 19.18,-60.32 16.09,-89.43 -4.82,-45.32 -35.71,-77 -79.82,-90.23 -46.6,-13.961 -89.04,-3.129 -123.97,31.93 -94.37,94.72 -188.65,189.55 -282.87,284.42 -43.21,43.51 -42.53,40.73 -89.18,0.27 -80.14,-69.48 -162.99,-135.91 -246.31,-201.59 -23.84,-18.79 -33.32,-37.03 -25.54,-66.86 7.22,-27.66 11.45,-56.338 14.36,-84.85 6.18,-60.629 -32.39,-113.57 -91.58,-128.262 -56.72,-14.058 -119.029,17.602 -138.033,75.161 -9.363,28.339 -23.953,42.132 -51.875,51.031 -37.918,12.09 -62.422,41.609 -71.863,80.31 -5.422,22.18 -15.664,33.07 -38.074,39.64 -67.063,19.62 -103.574,81.85 -87.57,144.05 16.613,64.54 76.933,107.81 143.085,86.27 90.528,-29.49 143.489,-0.84 192.97,75.92 46.27,71.78 107.8,133.97 164.72,198.53 23.03,26.14 14.21,43.1 -6.1,63.33 -96.5,96.12 -192.31,192.95 -288.672,289.23 -30.906,30.89 -49.109,66.6 -41.738,111 14.153,85.3 99.016,125.54 181.14,84.87 136.42,-67.55 272.09,-136.61 408.08,-205.03 59.08,-29.73 59.04,-29.67 106.89,18.23 39.74,39.78 78.79,80.29 119.61,118.95 56.65,53.66 125.18,81.37 202.89,84.71 81.01,3.48 135.37,-50.95 133.01,-141.22"
         style="fill:#ffffff;fill-opacity:1;fill-rule:nonzero;stroke:none"
         id="path28" /><path
         d="m 2966.91,2080.21 c 96.23,0 192.46,0.23 288.68,-0.07 76.55,-0.24 130.72,-49.68 131.21,-119.01 0.49,-69.54 -53.57,-120.66 -129.39,-120.8 -193.69,-0.34 -387.38,-0.35 -581.07,0.01 -75.79,0.14 -129.82,51.34 -129.26,120.95 0.56,69.6 54.3,118.6 131.17,118.85 96.22,0.3 192.44,0.07 288.66,0.07"
         style="fill:#ffffff;fill-opacity:1;fill-rule:nonzero;stroke:none"
         id="path30" /><path
         d="m 2966.26,1360.22 c -96.22,-0.01 -192.45,-0.28 -288.67,0.08 -76.21,0.3 -130.38,50.36 -130.51,119.74 -0.13,69.74 53.63,119.95 129.93,120.07 193.69,0.29 387.38,0.33 581.08,-0.02 75.47,-0.14 129.62,-51.87 128.71,-121.45 -0.88,-68 -54.39,-117.93 -128.13,-118.3 -97.47,-0.49 -194.94,-0.12 -292.41,-0.12"
         style="fill:#ffffff;fill-opacity:1;fill-rule:nonzero;stroke:none"
         id="path32" /><path
         d="m 2968.43,880.219 c -97.47,0 -194.94,-0.34 -292.41,0.113 -75.64,0.34 -129.65,51.629 -128.94,121.268 0.7,68.24 53.93,118.33 127.74,118.48 194.96,0.38 389.9,0.4 584.84,-0.01 73.23,-0.16 126.84,-51.22 127.14,-119.24 0.3,-68.15 -53.13,-119.971 -125.95,-120.451 -97.47,-0.629 -194.94,-0.16 -292.42,-0.16"
         style="fill:#ffffff;fill-opacity:1;fill-rule:nonzero;stroke:none"
         id="path34" /><path
         d="M 2326.52,2430.26 H 877.883 c -95.813,0 -173.481,77.68 -173.481,173.49 v 1448.63 c 0,95.81 77.668,173.49 173.481,173.49 H 2326.52 c 95.81,0 173.48,-77.68 173.48,-173.49 V 2603.75 c 0,-95.81 -77.67,-173.49 -173.48,-173.49"
         style="fill:#ffffff;fill-opacity:1;fill-rule:nonzero;stroke:none"
         id="path36" /><path
         d="M 2326.52,2430.26 H 877.883 c -95.813,0 -173.481,77.68 -173.481,173.49 v 1448.63 c 0,95.81 77.668,173.49 173.481,173.49 H 2326.52 c 95.81,0 173.48,-77.68 173.48,-173.49 V 2603.75 c 0,-95.81 -77.67,-173.49 -173.48,-173.49 z"
         style="fill:none;stroke:#2a2a2b;stroke-width:75.2742;stroke-linecap:butt;stroke-linejoin:miter;stroke-miterlimit:10;stroke-dasharray:none;stroke-opacity:1"
         id="path38" /><path
         d="M 2354.46,2575.81 H 849.941 V 4080.33 H 2354.46 V 2575.81"
         style="fill:#ffffff;fill-opacity:1;fill-rule:nonzero;stroke:none"
         id="path40" /><path
         d="M 2242.62,2689.65 H 961.777 V 3970.49 H 2242.62 V 2689.65"
         style="fill:#ffffff;fill-opacity:1;fill-rule:nonzero;stroke:none"
         id="path42" /><path
         d="m 2214.33,3663.59 h 56.58 v 335.2 h -335.19 v -56.59 h 278.61 v -278.61"
         style="fill:#a6a7a7;fill-opacity:1;fill-rule:nonzero;stroke:none"
         id="path44" /><path
         d="m 990.078,3663.59 v 278.61 h 278.592 v 56.59 H 933.484 v -335.2 h 56.594"
         style="fill:#a6a7a7;fill-opacity:1;fill-rule:nonzero;stroke:none"
         id="path46" /><path
         d="m 990.078,2996.54 h -56.594 v -335.18 h 335.186 v 56.58 H 990.078 v 278.6"
         style="fill:#a6a7a7;fill-opacity:1;fill-rule:nonzero;stroke:none"
         id="path48" /><path
         d="m 2214.33,2996.54 v -278.6 h -278.61 v -56.58 h 335.19 v 335.18 h -56.58"
         style="fill:#a6a7a7;fill-opacity:1;fill-rule:nonzero;stroke:none"
         id="path50" /><path
         d="m 1188.52,3454.64 -41.64,91.64 -41.86,-91.64 z m -47.06,104.54 h 11.3 l 73.77,-159.53 h -12.9 L 1193.5,3444 h -93.46 l -20.14,-44.35 h -12.21 l 73.77,159.53"
         style="fill:#a6a7a7;fill-opacity:1;fill-rule:nonzero;stroke:none"
         id="path52" /><path
         d="m 1348.78,3457.58 c 0,29.65 -23.09,49.56 -47.07,49.56 -25.12,0 -45.26,-18.33 -45.26,-49.79 0,-30.32 21.04,-49.78 45.26,-49.78 23.98,0 47.07,20.14 47.07,50.01 z m -104.33,-0.23 c 0,37.56 28.29,60.42 56.13,60.42 23.07,0 38.01,-13.12 47.52,-27.6 v 74.66 h 11.08 v -165.18 h -11.08 v 25.8 c -9.97,-15.17 -24.67,-28.52 -47.52,-28.52 -27.84,0 -56.13,22.41 -56.13,60.42"
         style="fill:#a6a7a7;fill-opacity:1;fill-rule:nonzero;stroke:none"
         id="path54" /><path
         d="m 1498.16,3457.58 c 0,29.65 -23.08,49.56 -47.07,49.56 -25.11,0 -45.26,-18.33 -45.26,-49.79 0,-30.32 21.05,-49.78 45.26,-49.78 23.99,0 47.07,20.14 47.07,50.01 z m -104.32,-0.23 c 0,37.56 28.29,60.42 56.12,60.42 23.08,0 38.02,-13.12 47.52,-27.6 v 74.66 h 11.08 v -165.18 h -11.08 v 25.8 c -9.96,-15.17 -24.67,-28.52 -47.52,-28.52 -27.83,0 -56.12,22.41 -56.12,60.42"
         style="fill:#a6a7a7;fill-opacity:1;fill-rule:nonzero;stroke:none"
         id="path56" /><path
         d="m 1609.77,3367.74 3.84,9.73 c 6.12,-2.94 11.1,-4.3 19.69,-4.3 11.99,0 19.91,7.02 28.52,27.16 l -55.44,114.73 h 12.9 l 47.97,-103.19 41.64,103.19 h 12.21 l -50.01,-119.48 c -10.18,-24.21 -21.95,-32.82 -38.46,-32.82 -8.83,0 -15.17,1.59 -22.86,4.98"
         style="fill:#a6a7a7;fill-opacity:1;fill-rule:nonzero;stroke:none"
         id="path58" /><path
         d="m 1843.54,3457.35 c 0,27.84 -21.49,50.01 -47.51,50.01 -26.03,0 -47.07,-22.4 -47.07,-50.01 0,-27.83 20.82,-50.01 47.51,-50.01 25.58,0 47.07,22.41 47.07,50.01 z m -106.58,0 c 0,32.36 25.12,60.42 59.51,60.42 34.17,0 59.07,-27.6 59.07,-60.42 0,-32.36 -25.12,-60.42 -59.51,-60.42 -34.17,0 -59.07,27.61 -59.07,60.42"
         style="fill:#a6a7a7;fill-opacity:1;fill-rule:nonzero;stroke:none"
         id="path60" /><path
         d="m 1887.48,3444.45 v 70.61 h 11.09 v -68.57 c 0,-23.76 13.35,-39.37 36.66,-39.37 22.63,0 40.05,17.2 40.05,41.18 v 66.76 h 11.09 v -115.41 h -11.09 v 21.49 c -7.69,-13.57 -20.59,-24.21 -41.64,-24.21 -29.19,0 -46.16,19.92 -46.16,47.52"
         style="fill:#a6a7a7;fill-opacity:1;fill-rule:nonzero;stroke:none"
         id="path62" /><path
         d="m 2028.5,3515.06 h 11.08 v -32.81 c 9.05,20.58 28.29,35.52 51.14,34.62 v -12.22 h -1.13 c -26.7,0 -50.01,-20.15 -50.01,-57.71 v -47.29 h -11.08 v 115.41"
         style="fill:#a6a7a7;fill-opacity:1;fill-rule:nonzero;stroke:none"
         id="path64" /><path
         d="m 1184.68,3161.76 -25.8,21.94 22.17,24.89 26.03,-23.53 c 2.94,6.56 4.3,13.81 4.3,22.18 0,27.15 -19.92,49.78 -47.97,49.78 -28.06,0 -47.52,-22.18 -47.52,-49.78 0,-27.15 19.91,-49.79 47.97,-49.79 7.69,0 14.7,1.59 20.82,4.31 z m 25.8,-22.86 c -13.36,-8.6 -29.43,-13.58 -47.07,-13.58 -48.88,0 -83.96,36.44 -83.96,81.92 0,45.03 35.53,81.91 84.41,81.91 48.87,0 83.95,-36.43 83.95,-81.91 0,-16.52 -4.98,-32.36 -14.03,-45.48 l 16.3,-13.81 -22.18,-24.67 -17.42,15.62"
         style="fill:#a6a7a7;fill-opacity:1;fill-rule:nonzero;stroke:none"
         id="path66" /><path
         d="m 1349.01,3209.5 c 16.98,0 26.7,9.05 26.7,22.85 0,14.94 -10.41,22.63 -27.38,22.63 h -34.62 v -45.48 z m -70.15,76.94 h 72.41 c 20.15,0 35.76,-5.66 46.17,-16.07 8.82,-8.83 13.58,-21.27 13.58,-36.66 0,-25.57 -13.81,-41.63 -33.95,-49.1 l 38.69,-56.57 h -40.73 l -34.4,50.68 h -26.92 v -50.68 h -34.85 v 158.4"
         style="fill:#a6a7a7;fill-opacity:1;fill-rule:nonzero;stroke:none"
         id="path68" /><path
         d="m 1503.39,3207.24 c 0,45.03 33.94,81.91 82.6,81.91 29.87,0 46.61,-11.31 61.31,-25.79 l -20.81,-23.99 c -12.22,11.09 -22.63,17.65 -40.73,17.65 -26.71,0 -45.94,-22.18 -45.94,-49.78 0,-27.15 18.78,-49.79 45.94,-49.79 18.1,0 29.19,7.25 41.63,18.56 l 22.18,-23.76 c -16.29,-17.43 -34.39,-26.93 -64.94,-26.93 -46.62,0 -81.24,35.98 -81.24,81.92"
         style="fill:#a6a7a7;fill-opacity:1;fill-rule:nonzero;stroke:none"
         id="path70" /><path
         d="m 1762.98,3188.46 c 0,17.87 -12.9,33.48 -31.91,33.48 -19.68,0 -31.45,-15.15 -31.45,-33.48 0,-17.88 12.9,-33.5 31.9,-33.5 19.69,0 31.46,15.17 31.46,33.5 z m -97.31,0 c 0,34.84 28.07,63.13 65.85,63.13 37.57,0 65.4,-27.83 65.4,-63.13 0,-34.86 -28.05,-63.14 -65.85,-63.14 -37.56,0 -65.4,27.83 -65.4,63.14"
         style="fill:#a6a7a7;fill-opacity:1;fill-rule:nonzero;stroke:none"
         id="path72" /><path
         d="m 1909.88,3188.91 c 0,20.14 -13.36,33.49 -29.42,33.49 -16.07,0 -29.64,-13.12 -29.64,-33.94 0,-20.14 13.57,-33.5 29.64,-33.5 16.06,0 29.42,13.36 29.42,33.95 z m -93.45,0 c 0,40.5 26.47,62.68 55.21,62.68 18.32,0 29.64,-8.38 37.78,-18.1 v 59.73 h 34.4 v -165.18 h -34.4 v 17.42 c -8.37,-11.31 -19.91,-19.69 -37.78,-19.69 -28.29,0 -55.21,22.18 -55.21,63.14"
         style="fill:#a6a7a7;fill-opacity:1;fill-rule:nonzero;stroke:none"
         id="path74" /><path
         d="m 2054.29,3198.18 c -2.03,15.39 -11.09,25.8 -25.57,25.8 -14.26,0 -23.53,-10.18 -26.25,-25.8 z m -85.54,-9.72 c 0,34.62 24.67,63.13 59.97,63.13 40.51,0 59.06,-31.45 59.06,-65.85 0,-2.71 -0.23,-5.89 -0.46,-9.05 h -84.4 c 3.4,-15.62 14.26,-23.76 29.65,-23.76 11.53,0 19.91,3.62 29.41,12.44 l 19.69,-17.42 c -11.32,-14.03 -27.61,-22.63 -49.56,-22.63 -36.43,0 -63.36,25.57 -63.36,63.14"
         style="fill:#a6a7a7;fill-opacity:1;fill-rule:nonzero;stroke:none"
         id="path76" /><path
         d="m 2762.88,3760.43 -136.39,207.61 h 83.11 c -0.18,7.85 0.4,18.33 0.9,28.2 0.42,9.93 0.93,19.87 2.74,29.68 1.71,9.8 2.51,19.79 5.14,29.41 l 7.53,28.94 10.25,28.09 c 1.56,4.74 3.97,9.12 6.05,13.65 l 7.94,16.43 c 2.98,6.8 7.27,12.88 10.97,19.29 14.76,25.74 34.07,48.46 54.48,69.79 l 16.39,14.96 8.26,7.4 8.86,6.69 17.8,13.25 18.92,11.64 c 101.84,61.21 234.45,66.47 340.58,12.72 53.46,-25.75 99.19,-66.01 133.64,-114.05 34.77,-47.97 55.82,-105.47 63.31,-164.09 1.94,-14.18 1.9,-28.55 2.76,-42.81 h -106.56 c -0.86,10.05 -0.57,20.21 -2.01,30.17 -5.44,41.12 -19.83,81.39 -44.42,115.09 -24.28,33.69 -56.38,62.28 -93.98,80.19 l -14.04,6.73 -14.65,5.32 c -9.56,4.19 -19.99,5.54 -29.92,8.57 -10.23,1.69 -20.48,3.63 -30.84,4.49 -10.42,0.2 -20.83,1.74 -31.24,0.6 -41.58,-1.67 -82.82,-12.89 -118.38,-34.65 l -13.33,-8.1 -12.47,-9.38 -6.29,-4.64 -5.76,-5.27 -11.59,-10.47 c -14.18,-15.18 -28.04,-30.96 -38.25,-49.15 -2.56,-4.51 -5.77,-8.68 -7.74,-13.52 l -5.54,-11.53 c -1.46,-3.17 -3.28,-6.2 -4.28,-9.56 l -7.22,-19.66 -5.23,-20.29 c -1.97,-6.71 -2.25,-13.78 -3.55,-20.65 -1.42,-6.85 -1.65,-13.87 -1.93,-20.89 -0.32,-7.05 -0.91,-13.49 -0.74,-22.59 h 83.12 l -136.4,-207.61"
         style="fill:#2a2a2b;fill-opacity:1;fill-rule:nonzero;stroke:none"
         id="path78" /></g></g></svg>
