<svg width="1000" height="1000" viewBox="0 0 1000 1000" fill="none" xmlns="http://www.w3.org/2000/svg">
<path d="M925 188.24V75H75V925H925V441.749" stroke="#333333" stroke-width="25" stroke-linecap="round"/>
<path d="M976.358 295.354C971.834 295.245 967.381 294.21 963.273 292.312C959.164 290.414 955.489 287.694 952.473 284.32C954.092 291.207 953.152 298.447 949.828 304.692C946.504 310.937 941.023 315.76 934.407 318.264C927.79 320.767 920.489 320.779 913.864 318.299C907.239 315.818 901.742 311.013 898.396 304.78C895.051 298.547 894.086 291.31 895.681 284.417C897.276 277.525 901.323 271.448 907.066 267.318C912.81 263.188 919.859 261.287 926.9 261.969C933.942 262.652 940.495 265.87 945.339 271.026C943.382 263.925 943.865 256.372 946.713 249.578C938.779 245.746 930.002 243.991 921.204 244.475C912.407 244.96 903.876 247.669 896.411 252.349C888.946 257.029 882.791 263.527 878.521 271.235C874.252 278.942 872.008 287.607 872 296.418C872 317.112 883.61 334.439 892.118 347.068L893.669 349.372C902.134 361.641 911.216 373.473 920.878 384.823L924.246 388.767L927.614 384.823C937.275 373.472 946.356 361.64 954.822 349.372L956.373 347.024C964.837 334.394 976.447 317.112 976.447 296.418C976.403 296.063 976.358 295.709 976.358 295.354V295.354Z" fill="#333333"/>
<path d="M924.205 307.226C933.333 307.226 940.734 299.826 940.734 290.697C940.734 281.568 933.333 274.168 924.205 274.168C915.076 274.168 907.676 281.568 907.676 290.697C907.676 299.826 915.076 307.226 924.205 307.226Z" fill="#333333"/>
<path d="M977.379 284.314C989.616 284.314 999.536 274.394 999.536 262.157C999.536 249.92 989.616 240 977.379 240C965.143 240 955.223 249.92 955.223 262.157C955.223 274.394 965.143 284.314 977.379 284.314Z" fill="#333333"/>
<rect x="215" y="117" width="570" height="570" rx="11.4" fill="white"/>
<path d="M631.096 156.9H745.096V270.9" stroke="#C2C2C2" stroke-width="22.8"/>
<path d="M368.898 156.9H254.898V270.9" stroke="#C2C2C2" stroke-width="22.8"/>
<path d="M631.096 647.1H745.096V533.1" stroke="#C2C2C2" stroke-width="22.8"/>
<path d="M368.898 647.1H254.898V533.1" stroke="#C2C2C2" stroke-width="22.8"/>
<path d="M364.475 355.488L355.041 328.032L345.015 355.488H364.475ZM350.641 318.809H360.16L382.708 380.955H373.486L367.182 362.341H342.603L335.877 380.955H327.247L350.641 318.809ZM394.173 358.83C394.173 363.681 395.202 367.742 397.261 371.013C399.32 374.285 402.62 375.921 407.16 375.921C410.686 375.921 413.577 374.412 415.833 371.394C418.117 368.348 419.259 363.991 419.259 358.322C419.259 352.597 418.089 348.366 415.748 345.631C413.407 342.867 410.516 341.485 407.076 341.485C403.24 341.485 400.124 342.951 397.726 345.884C395.357 348.818 394.173 353.133 394.173 358.83ZM405.637 334.843C409.106 334.843 412.011 335.576 414.352 337.043C415.706 337.889 417.243 339.37 418.963 341.485V318.598H426.282V380.955H419.429V374.652C417.652 377.444 415.551 379.46 413.125 380.701C410.7 381.942 407.922 382.563 404.791 382.563C399.743 382.563 395.371 380.447 391.677 376.217C387.982 371.958 386.135 366.304 386.135 359.253C386.135 352.653 387.813 346.942 391.169 342.119C394.553 337.268 399.376 334.843 405.637 334.843ZM442.4 358.83C442.4 363.681 443.43 367.742 445.488 371.013C447.547 374.285 450.847 375.921 455.388 375.921C458.913 375.921 461.804 374.412 464.06 371.394C466.345 368.348 467.487 363.991 467.487 358.322C467.487 352.597 466.316 348.366 463.975 345.631C461.635 342.867 458.744 341.485 455.303 341.485C451.467 341.485 448.351 342.951 445.954 345.884C443.585 348.818 442.4 353.133 442.4 358.83ZM453.865 334.843C457.334 334.843 460.239 335.576 462.579 337.043C463.933 337.889 465.47 339.37 467.191 341.485V318.598H474.509V380.955H467.656V374.652C465.879 377.444 463.778 379.46 461.353 380.701C458.927 381.942 456.149 382.563 453.019 382.563C447.97 382.563 443.599 380.447 439.904 376.217C436.21 371.958 434.362 366.304 434.362 359.253C434.362 352.653 436.04 346.942 439.396 342.119C442.781 337.268 447.604 334.843 453.865 334.843ZM538.22 335.647H546.639C545.567 338.552 543.184 345.179 539.489 355.53C536.725 363.314 534.413 369.66 532.551 374.567C528.152 386.13 525.049 393.181 523.244 395.719C521.439 398.258 518.337 399.527 513.937 399.527C512.866 399.527 512.034 399.485 511.441 399.4C510.877 399.315 510.172 399.16 509.326 398.935V391.997C510.652 392.363 511.611 392.589 512.203 392.673C512.795 392.758 513.317 392.8 513.768 392.8C515.178 392.8 516.208 392.561 516.856 392.081C517.533 391.63 518.097 391.066 518.549 390.389C518.69 390.163 519.197 389.007 520.072 386.92C520.946 384.833 521.58 383.282 521.975 382.267L505.223 335.647H513.853L525.994 372.536L538.22 335.647ZM571.218 376.048C576.266 376.048 579.721 374.144 581.583 370.337C583.472 366.501 584.417 362.242 584.417 357.561C584.417 353.33 583.74 349.889 582.386 347.238C580.243 343.064 576.548 340.977 571.302 340.977C566.649 340.977 563.265 342.754 561.149 346.308C559.034 349.861 557.977 354.148 557.977 359.168C557.977 363.991 559.034 368.01 561.149 371.225C563.265 374.44 566.621 376.048 571.218 376.048ZM571.514 334.335C577.352 334.335 582.288 336.281 586.321 340.173C590.354 344.065 592.37 349.791 592.37 357.349C592.37 364.654 590.593 370.689 587.04 375.455C583.486 380.222 577.973 382.605 570.499 382.605C564.266 382.605 559.316 380.504 555.65 376.302C551.983 372.071 550.15 366.402 550.15 359.295C550.15 351.68 552.082 345.617 555.946 341.104C559.81 336.592 564.999 334.335 571.514 334.335ZM609.081 335.647V365.725C609.081 368.038 609.447 369.928 610.18 371.394C611.534 374.102 614.058 375.455 617.753 375.455C623.055 375.455 626.665 373.086 628.583 368.348C629.627 365.81 630.148 362.327 630.148 357.899V335.647H637.763V380.955H630.571L630.656 374.271C629.669 375.991 628.442 377.444 626.975 378.628C624.071 380.997 620.545 382.182 616.399 382.182C609.941 382.182 605.541 380.024 603.2 375.709C601.931 373.397 601.297 370.308 601.297 366.445V335.647H609.081ZM649.905 335.647H657.139V343.473C657.731 341.95 659.183 340.103 661.496 337.931C663.809 335.731 666.474 334.631 669.492 334.631C669.633 334.631 669.872 334.646 670.211 334.674C670.549 334.702 671.127 334.758 671.945 334.843V342.881C671.494 342.796 671.071 342.74 670.676 342.712C670.31 342.683 669.901 342.669 669.449 342.669C665.614 342.669 662.667 343.91 660.608 346.392C658.549 348.846 657.519 351.68 657.519 354.895V380.955H649.905V335.647Z" fill="#C2C2C2"/>
<path d="M365.245 483.639C362.453 484.57 359.111 485.035 355.219 485.035C347.096 485.035 340.384 482.61 335.082 477.759C328.651 471.921 325.436 463.347 325.436 452.038C325.436 440.644 328.736 432.028 335.335 426.189C340.722 421.423 347.421 419.04 355.43 419.04C363.496 419.04 370.265 421.564 375.736 426.613C382.054 432.451 385.213 440.615 385.213 451.107C385.213 456.663 384.536 461.316 383.182 465.067C382.082 468.649 380.46 471.625 378.317 473.994L385.509 480.72L378.698 487.827L371.168 480.72C368.883 482.102 366.909 483.075 365.245 483.639ZM362.453 472.386L356.149 466.379L362.876 459.356L369.179 465.364C370.166 463.333 370.857 461.556 371.252 460.033C371.873 457.749 372.183 455.084 372.183 452.038C372.183 445.043 370.745 439.642 367.868 435.835C365.019 431.999 360.845 430.081 355.346 430.081C350.184 430.081 346.067 431.915 342.993 435.581C339.918 439.248 338.381 444.733 338.381 452.038C338.381 460.583 340.581 466.703 344.981 470.398C347.829 472.795 351.242 473.994 355.219 473.994C356.713 473.994 358.152 473.81 359.534 473.444C360.295 473.246 361.268 472.894 362.453 472.386ZM421.679 458.849H408.226V483.301H395.493V420.944H426.079C430.451 421.028 433.807 421.564 436.148 422.551C438.517 423.538 440.519 424.991 442.155 426.909C443.509 428.488 444.58 430.237 445.37 432.154C446.16 434.072 446.555 436.258 446.555 438.712C446.555 441.673 445.807 444.592 444.312 447.469C442.818 450.317 440.35 452.334 436.909 453.518C439.786 454.675 441.816 456.324 443.001 458.468C444.214 460.583 444.82 463.827 444.82 468.198V472.386C444.82 475.235 444.933 477.167 445.158 478.182C445.497 479.789 446.287 480.974 447.528 481.736V483.301H433.186C432.791 481.919 432.509 480.805 432.34 479.959C432.002 478.21 431.818 476.419 431.79 474.586L431.706 468.79C431.649 464.814 430.916 462.163 429.506 460.837C428.124 459.511 425.515 458.849 421.679 458.849ZM429.59 447.511C432.185 446.326 433.482 443.986 433.482 440.488C433.482 436.709 432.227 434.171 429.717 432.874C428.307 432.14 426.192 431.774 423.372 431.774H408.226V448.526H422.991C425.924 448.526 428.124 448.188 429.59 447.511ZM520.842 453.73H508.489C508.263 452.009 507.685 450.458 506.754 449.076C505.4 447.215 503.299 446.284 500.451 446.284C496.389 446.284 493.611 448.301 492.117 452.334C491.327 454.477 490.932 457.326 490.932 460.879C490.932 464.264 491.327 466.985 492.117 469.044C493.555 472.88 496.263 474.798 500.239 474.798C503.059 474.798 505.062 474.036 506.246 472.513C507.431 470.99 508.15 469.016 508.404 466.59H520.715C520.433 470.257 519.107 473.726 516.738 476.997C512.959 482.271 507.36 484.908 499.943 484.908C492.526 484.908 487.068 482.709 483.571 478.309C480.074 473.909 478.325 468.198 478.325 461.175C478.325 453.25 480.257 447.088 484.121 442.688C487.985 438.289 493.315 436.089 500.112 436.089C505.894 436.089 510.618 437.386 514.284 439.981C517.979 442.575 520.165 447.158 520.842 453.73ZM567.631 443.027C571.523 447.906 573.469 453.673 573.469 460.329C573.469 467.098 571.523 472.894 567.631 477.717C563.738 482.511 557.83 484.908 549.905 484.908C541.98 484.908 536.071 482.511 532.179 477.717C528.287 472.894 526.341 467.098 526.341 460.329C526.341 453.673 528.287 447.906 532.179 443.027C536.071 438.148 541.98 435.708 549.905 435.708C557.83 435.708 563.738 438.148 567.631 443.027ZM549.863 445.903C546.337 445.903 543.616 447.158 541.698 449.669C539.808 452.15 538.863 455.704 538.863 460.329C538.863 464.955 539.808 468.522 541.698 471.032C543.616 473.543 546.337 474.798 549.863 474.798C553.388 474.798 556.095 473.543 557.985 471.032C559.875 468.522 560.819 464.955 560.819 460.329C560.819 455.704 559.875 452.15 557.985 449.669C556.095 447.158 553.388 445.903 549.863 445.903ZM624.107 421.028V483.301H612.389V476.913C610.668 479.648 608.708 481.637 606.509 482.878C604.309 484.119 601.573 484.739 598.301 484.739C592.915 484.739 588.374 482.568 584.679 478.224C581.013 473.853 579.18 468.254 579.18 461.429C579.18 453.561 580.985 447.37 584.595 442.858C588.233 438.345 593.084 436.089 599.148 436.089C601.94 436.089 604.422 436.709 606.593 437.95C608.765 439.163 610.527 440.855 611.881 443.027V421.028H624.107ZM591.617 460.541C591.617 464.8 592.463 468.198 594.156 470.736C595.82 473.303 598.358 474.586 601.77 474.586C605.183 474.586 607.778 473.317 609.554 470.779C611.331 468.24 612.22 464.955 612.22 460.922C612.22 455.281 610.795 451.248 607.947 448.822C606.198 447.356 604.168 446.623 601.855 446.623C598.33 446.623 595.735 447.962 594.071 450.642C592.435 453.293 591.617 456.592 591.617 460.541ZM674.577 469.763C674.267 472.499 672.842 475.277 670.304 478.097C666.356 482.582 660.828 484.824 653.721 484.824C647.854 484.824 642.679 482.934 638.195 479.155C633.71 475.376 631.468 469.227 631.468 460.71C631.468 452.729 633.485 446.609 637.518 442.35C641.579 438.091 646.839 435.962 653.298 435.962C657.133 435.962 660.588 436.681 663.662 438.119C666.736 439.558 669.275 441.828 671.277 444.93C673.082 447.666 674.252 450.839 674.788 454.449C675.099 456.564 675.225 459.61 675.169 463.587H643.61C643.779 468.212 645.231 471.455 647.967 473.317C649.631 474.473 651.634 475.051 653.974 475.051C656.456 475.051 658.473 474.346 660.024 472.936C660.87 472.175 661.617 471.117 662.266 469.763H674.577ZM662.647 455.634C662.449 452.447 661.476 450.035 659.728 448.399C658.007 446.735 655.864 445.903 653.298 445.903C650.505 445.903 648.334 446.778 646.783 448.526C645.26 450.275 644.301 452.644 643.906 455.634H662.647Z" fill="#C2C2C2"/>
<path d="M236.938 828.779C236.938 835.218 235.799 840.863 233.523 845.715C231.247 850.566 227.983 854.31 223.73 856.945C219.508 859.581 214.656 860.898 209.176 860.898C203.755 860.898 198.919 859.596 194.666 856.99C190.413 854.385 187.119 850.671 184.783 845.85C182.447 840.998 181.264 835.428 181.234 829.139V825.904C181.234 819.465 182.387 813.805 184.693 808.924C187.029 804.012 190.309 800.254 194.531 797.648C198.784 795.013 203.635 793.695 209.086 793.695C214.536 793.695 219.373 795.013 223.596 797.648C227.848 800.254 231.128 804.012 233.434 808.924C235.77 813.805 236.938 819.451 236.938 825.859V828.779ZM223.281 825.814C223.281 818.956 222.053 813.745 219.598 810.182C217.142 806.618 213.638 804.836 209.086 804.836C204.564 804.836 201.075 806.603 198.619 810.137C196.163 813.641 194.921 818.792 194.891 825.59V828.779C194.891 835.458 196.118 840.639 198.574 844.322C201.03 848.006 204.564 849.848 209.176 849.848C213.698 849.848 217.172 848.081 219.598 844.547C222.023 840.983 223.251 835.802 223.281 829.004V825.814ZM296.234 794.594V837.674C296.234 844.831 293.988 850.492 289.496 854.654C285.034 858.817 278.924 860.898 271.168 860.898C263.531 860.898 257.467 858.877 252.975 854.834C248.482 850.791 246.191 845.236 246.102 838.168V794.594H259.578V837.764C259.578 842.046 260.596 845.176 262.633 847.152C264.699 849.099 267.544 850.072 271.168 850.072C278.745 850.072 282.593 846.089 282.713 838.123V794.594H296.234ZM331.498 836.057H320.762V860H307.285V794.594H331.588C339.314 794.594 345.274 796.316 349.467 799.76C353.66 803.204 355.756 808.07 355.756 814.359C355.756 818.822 354.783 822.55 352.836 825.545C350.919 828.51 347.999 830.876 344.076 832.643L358.227 859.371V860H343.762L331.498 836.057ZM320.762 825.141H331.633C335.017 825.141 337.637 824.287 339.494 822.58C341.351 820.843 342.279 818.462 342.279 815.438C342.279 812.353 341.396 809.927 339.629 808.16C337.892 806.393 335.212 805.51 331.588 805.51H320.762V825.141ZM402.43 849.174H431.045V860H388.953V794.594H402.43V849.174ZM489.668 828.779C489.668 835.218 488.53 840.863 486.254 845.715C483.978 850.566 480.714 854.31 476.461 856.945C472.238 859.581 467.387 860.898 461.906 860.898C456.486 860.898 451.649 859.596 447.396 856.99C443.144 854.385 439.85 850.671 437.514 845.85C435.178 840.998 433.995 835.428 433.965 829.139V825.904C433.965 819.465 435.118 813.805 437.424 808.924C439.76 804.012 443.039 800.254 447.262 797.648C451.514 795.013 456.366 793.695 461.816 793.695C467.267 793.695 472.104 795.013 476.326 797.648C480.579 800.254 483.858 804.012 486.164 808.924C488.5 813.805 489.668 819.451 489.668 825.859V828.779ZM476.012 825.814C476.012 818.956 474.784 813.745 472.328 810.182C469.872 806.618 466.368 804.836 461.816 804.836C457.294 804.836 453.805 806.603 451.35 810.137C448.894 813.641 447.651 818.792 447.621 825.59V828.779C447.621 835.458 448.849 840.639 451.305 844.322C453.76 848.006 457.294 849.848 461.906 849.848C466.428 849.848 469.902 848.081 472.328 844.547C474.754 840.983 475.982 835.802 476.012 829.004V825.814ZM550.807 838.213C550.298 845.251 547.692 850.791 542.99 854.834C538.318 858.877 532.149 860.898 524.482 860.898C516.097 860.898 509.493 858.083 504.672 852.453C499.88 846.793 497.484 839.036 497.484 829.184V825.186C497.484 818.896 498.592 813.356 500.809 808.564C503.025 803.773 506.184 800.104 510.287 797.559C514.42 794.983 519.212 793.695 524.662 793.695C532.209 793.695 538.288 795.717 542.9 799.76C547.512 803.803 550.178 809.478 550.896 816.785H537.42C537.09 812.562 535.908 809.508 533.871 807.621C531.865 805.704 528.795 804.746 524.662 804.746C520.17 804.746 516.801 806.363 514.555 809.598C512.339 812.802 511.201 817.788 511.141 824.557V829.498C511.141 836.566 512.204 841.732 514.33 844.996C516.486 848.26 519.87 849.893 524.482 849.893C528.645 849.893 531.745 848.949 533.781 847.062C535.848 845.146 537.031 842.196 537.33 838.213H550.807ZM596.582 846.523H572.953L568.461 860H554.131L578.479 794.594H590.967L615.449 860H601.119L596.582 846.523ZM576.592 835.607H592.943L584.723 811.125L576.592 835.607ZM665.402 805.51H645.367V860H631.891V805.51H612.125V794.594H665.402V805.51ZM687.459 860H673.982V794.594H687.459V860ZM753.719 828.779C753.719 835.218 752.581 840.863 750.305 845.715C748.029 850.566 744.764 854.31 740.512 856.945C736.289 859.581 731.438 860.898 725.957 860.898C720.536 860.898 715.7 859.596 711.447 856.99C707.195 854.385 703.9 850.671 701.564 845.85C699.229 840.998 698.046 835.428 698.016 829.139V825.904C698.016 819.465 699.169 813.805 701.475 808.924C703.811 804.012 707.09 800.254 711.312 797.648C715.565 795.013 720.417 793.695 725.867 793.695C731.318 793.695 736.154 795.013 740.377 797.648C744.63 800.254 747.909 804.012 750.215 808.924C752.551 813.805 753.719 819.451 753.719 825.859V828.779ZM740.062 825.814C740.062 818.956 738.835 813.745 736.379 810.182C733.923 806.618 730.419 804.836 725.867 804.836C721.345 804.836 717.856 806.603 715.4 810.137C712.945 813.641 711.702 818.792 711.672 825.59V828.779C711.672 835.458 712.9 840.639 715.355 844.322C717.811 848.006 721.345 849.848 725.957 849.848C730.479 849.848 733.953 848.081 736.379 844.547C738.805 840.983 740.033 835.802 740.062 829.004V825.814ZM816.699 860H803.223L776.988 816.965V860H763.512V794.594H776.988L803.268 837.719V794.594H816.699V860Z" fill="#333333"/>
</svg>
