<svg width="1000" height="1001" viewBox="0 0 1000 1001" fill="none" xmlns="http://www.w3.org/2000/svg">
<path d="M500 0C412.775 0.102968 329.153 34.821 267.476 96.5384C205.799 158.256 171.103 241.933 171 329.214C170.896 400.541 194.179 469.932 237.279 526.743C237.279 526.743 246.252 538.565 247.717 540.271L500 838L752.403 540.121C753.719 538.535 762.721 526.743 762.721 526.743L762.751 526.653C805.829 469.867 829.102 400.508 829 329.214C828.897 241.933 794.201 158.256 732.524 96.5384C670.847 34.821 587.225 0.102968 500 0V0ZM500 448.929C476.338 448.929 453.208 441.907 433.534 428.753C413.86 415.599 398.526 396.902 389.471 375.027C380.416 353.152 378.046 329.081 382.663 305.859C387.279 282.637 398.673 261.306 415.404 244.563C432.136 227.821 453.453 216.419 476.66 211.8C499.867 207.181 523.922 209.552 545.783 218.613C567.643 227.674 586.328 243.018 599.474 262.705C612.62 282.392 619.636 305.537 619.636 329.214C619.597 360.952 606.979 391.379 584.552 413.821C562.124 436.264 531.717 448.889 500 448.929V448.929Z" fill="#333333"/>
<rect x="282" y="109" width="436" height="436" rx="8.72" fill="white"/>
<path d="M600.277 139.52H687.477V226.72" stroke="#C2C2C2" stroke-width="17.44"/>
<path d="M399.719 139.52H312.519V226.72" stroke="#C2C2C2" stroke-width="17.44"/>
<path d="M600.277 514.479H687.477V427.279" stroke="#C2C2C2" stroke-width="17.44"/>
<path d="M399.719 514.479H312.519V427.279" stroke="#C2C2C2" stroke-width="17.44"/>
<path d="M396.334 291.524L389.118 270.522L381.449 291.524H396.334ZM385.753 263.468H393.034L410.281 311.004H403.227L398.405 296.766H379.605L374.46 311.004H367.858L385.753 263.468ZM419.051 294.08C419.051 297.79 419.838 300.897 421.413 303.399C422.988 305.902 425.512 307.153 428.985 307.153C431.682 307.153 433.893 305.999 435.619 303.691C437.366 301.361 438.24 298.028 438.24 293.692C438.24 289.312 437.345 286.076 435.554 283.984C433.764 281.87 431.552 280.813 428.92 280.813C425.986 280.813 423.603 281.934 421.769 284.178C419.957 286.422 419.051 289.722 419.051 294.08ZM427.82 275.732C430.474 275.732 432.696 276.293 434.486 277.415C435.522 278.062 436.697 279.195 438.013 280.813V263.306H443.612V311.004H438.369V306.182C437.01 308.318 435.403 309.861 433.548 310.81C431.693 311.759 429.568 312.234 427.173 312.234C423.311 312.234 419.968 310.616 417.142 307.38C414.316 304.122 412.902 299.797 412.902 294.404C412.902 289.355 414.186 284.987 416.753 281.298C419.342 277.587 423.031 275.732 427.82 275.732ZM455.94 294.08C455.94 297.79 456.728 300.897 458.303 303.399C459.878 305.902 462.402 307.153 465.875 307.153C468.571 307.153 470.783 305.999 472.508 303.691C474.256 301.361 475.13 298.028 475.13 293.692C475.13 289.312 474.234 286.076 472.444 283.984C470.653 281.87 468.442 280.813 465.81 280.813C462.876 280.813 460.492 281.934 458.659 284.178C456.847 286.422 455.94 289.722 455.94 294.08ZM464.71 275.732C467.363 275.732 469.585 276.293 471.376 277.415C472.411 278.062 473.587 279.195 474.903 280.813V263.306H480.501V311.004H475.259V306.182C473.9 308.318 472.293 309.861 470.437 310.81C468.582 311.759 466.457 312.234 464.063 312.234C460.201 312.234 456.857 310.616 454.031 307.38C451.205 304.122 449.792 299.797 449.792 294.404C449.792 289.355 451.076 284.987 453.643 281.298C456.232 277.587 459.921 275.732 464.71 275.732ZM529.234 276.347H535.674C534.854 278.569 533.031 283.639 530.205 291.556C528.091 297.51 526.322 302.364 524.898 306.118C521.533 314.963 519.16 320.356 517.779 322.297C516.399 324.239 514.026 325.21 510.66 325.21C509.84 325.21 509.204 325.177 508.751 325.113C508.32 325.048 507.78 324.929 507.133 324.757V319.45C508.147 319.73 508.88 319.903 509.333 319.967C509.786 320.032 510.186 320.065 510.531 320.065C511.609 320.065 512.397 319.881 512.893 319.514C513.411 319.169 513.842 318.738 514.187 318.22C514.295 318.047 514.684 317.163 515.352 315.567C516.021 313.97 516.506 312.784 516.808 312.007L503.994 276.347H510.595L519.883 304.564L529.234 276.347ZM554.475 307.25C558.336 307.25 560.979 305.794 562.403 302.882C563.848 299.948 564.571 296.69 564.571 293.109C564.571 289.873 564.053 287.241 563.018 285.213C561.378 282.021 558.552 280.424 554.539 280.424C550.98 280.424 548.391 281.783 546.773 284.502C545.155 287.22 544.346 290.499 544.346 294.339C544.346 298.028 545.155 301.102 546.773 303.561C548.391 306.021 550.958 307.25 554.475 307.25ZM554.701 275.344C559.167 275.344 562.942 276.832 566.027 279.809C569.112 282.787 570.654 287.166 570.654 292.947C570.654 298.535 569.295 303.151 566.577 306.797C563.859 310.443 559.641 312.266 553.925 312.266C549.157 312.266 545.371 310.659 542.567 307.444C539.762 304.208 538.36 299.872 538.36 294.436C538.36 288.611 539.838 283.973 542.793 280.521C545.749 277.07 549.718 275.344 554.701 275.344ZM583.436 276.347V299.355C583.436 301.124 583.717 302.569 584.278 303.691C585.313 305.762 587.244 306.797 590.07 306.797C594.126 306.797 596.887 304.985 598.354 301.361C599.152 299.419 599.551 296.755 599.551 293.368V276.347H605.376V311.004H599.875L599.94 305.891C599.185 307.207 598.246 308.318 597.124 309.224C594.902 311.036 592.206 311.942 589.035 311.942C584.094 311.942 580.729 310.292 578.938 306.991C577.968 305.222 577.482 302.86 577.482 299.905V276.347H583.436ZM614.663 276.347H620.197V282.333C620.65 281.169 621.761 279.756 623.53 278.094C625.299 276.412 627.337 275.57 629.646 275.57C629.753 275.57 629.937 275.581 630.196 275.603C630.455 275.624 630.897 275.667 631.522 275.732V281.88C631.177 281.816 630.854 281.773 630.552 281.751C630.271 281.729 629.958 281.719 629.613 281.719C626.679 281.719 624.425 282.668 622.85 284.566C621.275 286.443 620.488 288.611 620.488 291.071V311.004H614.663V276.347Z" fill="#C2C2C2"/>
<path d="M396.924 389.548C394.788 390.26 392.232 390.616 389.254 390.616C383.041 390.616 377.907 388.761 373.851 385.05C368.933 380.584 366.473 374.026 366.473 365.375C366.473 356.66 368.998 350.069 374.046 345.604C378.166 341.958 383.29 340.135 389.416 340.135C395.586 340.135 400.764 342.066 404.949 345.927C409.781 350.393 412.197 356.638 412.197 364.664C412.197 368.913 411.68 372.473 410.644 375.342C409.803 378.082 408.562 380.358 406.923 382.17L412.424 387.315L407.214 392.752L401.454 387.315C399.707 388.372 398.196 389.116 396.924 389.548ZM394.788 380.94L389.966 376.345L395.112 370.974L399.933 375.569C400.688 374.015 401.217 372.656 401.519 371.491C401.993 369.744 402.231 367.705 402.231 365.375C402.231 360.025 401.13 355.894 398.93 352.982C396.751 350.048 393.558 348.581 389.352 348.581C385.404 348.581 382.254 349.983 379.903 352.788C377.551 355.592 376.375 359.788 376.375 365.375C376.375 371.912 378.058 376.593 381.424 379.419C383.602 381.253 386.213 382.17 389.254 382.17C390.398 382.17 391.498 382.03 392.555 381.749C393.138 381.598 393.882 381.329 394.788 380.94ZM440.091 370.585H429.801V389.289H420.061V341.591H443.456C446.8 341.656 449.367 342.066 451.158 342.821C452.97 343.576 454.502 344.687 455.753 346.154C456.789 347.362 457.608 348.7 458.212 350.167C458.816 351.634 459.118 353.305 459.118 355.182C459.118 357.447 458.547 359.68 457.403 361.881C456.26 364.06 454.372 365.602 451.74 366.508C453.941 367.393 455.494 368.655 456.4 370.294C457.328 371.912 457.792 374.393 457.792 377.737V380.94C457.792 383.119 457.878 384.597 458.051 385.374C458.309 386.603 458.913 387.509 459.863 388.092V389.289H448.893C448.591 388.232 448.375 387.38 448.246 386.733C447.987 385.395 447.847 384.025 447.825 382.623L447.76 378.19C447.717 375.148 447.156 373.12 446.078 372.106C445.02 371.092 443.025 370.585 440.091 370.585ZM446.142 361.913C448.127 361.007 449.119 359.216 449.119 356.541C449.119 353.651 448.159 351.709 446.239 350.717C445.161 350.156 443.543 349.875 441.385 349.875H429.801V362.69H441.094C443.338 362.69 445.02 362.431 446.142 361.913ZM515.941 366.67H506.493C506.32 365.354 505.878 364.167 505.166 363.11C504.13 361.687 502.523 360.975 500.344 360.975C497.238 360.975 495.113 362.517 493.969 365.602C493.365 367.242 493.063 369.42 493.063 372.139C493.063 374.727 493.365 376.809 493.969 378.384C495.07 381.318 497.141 382.785 500.182 382.785C502.34 382.785 503.871 382.202 504.777 381.037C505.684 379.872 506.234 378.362 506.428 376.507H515.844C515.629 379.312 514.615 381.965 512.803 384.468C509.912 388.502 505.63 390.519 499.956 390.519C494.282 390.519 490.108 388.836 487.433 385.471C484.758 382.105 483.42 377.737 483.42 372.365C483.42 366.303 484.898 361.589 487.853 358.224C490.809 354.859 494.886 353.176 500.085 353.176C504.508 353.176 508.121 354.168 510.926 356.153C513.752 358.138 515.424 361.643 515.941 366.67ZM551.731 358.483C554.708 362.215 556.197 366.627 556.197 371.718C556.197 376.895 554.708 381.329 551.731 385.018C548.754 388.685 544.234 390.519 538.172 390.519C532.11 390.519 527.591 388.685 524.614 385.018C521.637 381.329 520.148 376.895 520.148 371.718C520.148 366.627 521.637 362.215 524.614 358.483C527.591 354.751 532.11 352.885 538.172 352.885C544.234 352.885 548.754 354.751 551.731 358.483ZM538.14 360.683C535.443 360.683 533.362 361.643 531.895 363.563C530.449 365.462 529.727 368.18 529.727 371.718C529.727 375.256 530.449 377.985 531.895 379.905C533.362 381.825 535.443 382.785 538.14 382.785C540.837 382.785 542.908 381.825 544.353 379.905C545.798 377.985 546.521 375.256 546.521 371.718C546.521 368.18 545.798 365.462 544.353 363.563C542.908 361.643 540.837 360.683 538.14 360.683ZM594.931 341.656V389.289H585.967V384.403C584.651 386.495 583.152 388.016 581.469 388.965C579.786 389.915 577.694 390.389 575.191 390.389C571.071 390.389 567.598 388.728 564.772 385.406C561.967 382.062 560.565 377.78 560.565 372.559C560.565 366.54 561.946 361.805 564.707 358.353C567.49 354.902 571.2 353.176 575.839 353.176C577.974 353.176 579.873 353.651 581.534 354.6C583.195 355.527 584.543 356.822 585.579 358.483V341.656H594.931ZM570.079 371.88C570.079 375.137 570.726 377.737 572.02 379.678C573.293 381.641 575.235 382.623 577.845 382.623C580.455 382.623 582.44 381.652 583.799 379.711C585.158 377.769 585.838 375.256 585.838 372.171C585.838 367.856 584.748 364.771 582.569 362.916C581.232 361.794 579.679 361.233 577.91 361.233C575.213 361.233 573.228 362.258 571.956 364.308C570.704 366.335 570.079 368.86 570.079 371.88ZM633.535 378.934C633.298 381.027 632.209 383.152 630.267 385.309C627.247 388.739 623.019 390.454 617.582 390.454C613.095 390.454 609.136 389.009 605.706 386.118C602.276 383.227 600.561 378.524 600.561 372.009C600.561 365.904 602.104 361.223 605.189 357.965C608.295 354.708 612.318 353.079 617.259 353.079C620.193 353.079 622.835 353.629 625.187 354.729C627.538 355.829 629.48 357.566 631.011 359.939C632.392 362.032 633.287 364.459 633.697 367.22C633.935 368.838 634.032 371.168 633.988 374.21H609.848C609.978 377.748 611.089 380.228 613.181 381.652C614.454 382.537 615.986 382.979 617.776 382.979C619.675 382.979 621.217 382.44 622.404 381.361C623.051 380.779 623.623 379.97 624.119 378.934H633.535ZM624.41 368.126C624.259 365.688 623.515 363.844 622.177 362.593C620.861 361.32 619.222 360.683 617.259 360.683C615.123 360.683 613.462 361.352 612.275 362.69C611.11 364.027 610.377 365.839 610.075 368.126H624.41Z" fill="#C2C2C2"/>
<rect x="171" y="862" width="658" height="139" rx="69.5" fill="#333333"/>
<path d="M271.95 931.708C271.95 935.687 271.247 939.175 269.841 942.173C268.434 945.171 266.417 947.484 263.789 949.112C261.18 950.741 258.182 951.555 254.796 951.555C251.446 951.555 248.458 950.75 245.83 949.14C243.202 947.53 241.167 945.236 239.723 942.256C238.28 939.258 237.549 935.816 237.531 931.93V929.932C237.531 925.953 238.243 922.456 239.668 919.439C241.111 916.405 243.138 914.082 245.747 912.472C248.375 910.844 251.372 910.029 254.74 910.029C258.108 910.029 261.097 910.844 263.706 912.472C266.334 914.082 268.36 916.405 269.785 919.439C271.229 922.456 271.95 925.944 271.95 929.904V931.708ZM263.512 929.876C263.512 925.639 262.753 922.419 261.236 920.217C259.718 918.014 257.553 916.913 254.74 916.913C251.946 916.913 249.79 918.005 248.273 920.189C246.755 922.354 245.987 925.537 245.969 929.738V931.708C245.969 935.835 246.728 939.036 248.245 941.313C249.762 943.589 251.946 944.727 254.796 944.727C257.59 944.727 259.737 943.635 261.236 941.451C262.735 939.249 263.493 936.048 263.512 931.847V929.876ZM308.591 910.585V937.204C308.591 941.627 307.203 945.125 304.427 947.697C301.67 950.269 297.895 951.555 293.102 951.555C288.383 951.555 284.636 950.306 281.86 947.808C279.084 945.31 277.668 941.877 277.613 937.51V910.585H285.94V937.26C285.94 939.906 286.569 941.84 287.828 943.061C289.105 944.264 290.863 944.866 293.102 944.866C297.784 944.866 300.161 942.404 300.235 937.482V910.585H308.591ZM330.38 936.205H323.746V951H315.419V910.585H330.436C335.21 910.585 338.893 911.649 341.484 913.777C344.074 915.905 345.37 918.912 345.37 922.798C345.37 925.555 344.768 927.859 343.565 929.71C342.381 931.542 340.577 933.004 338.153 934.095L346.896 950.611V951H337.958L330.38 936.205ZM323.746 929.46H330.464C332.555 929.46 334.174 928.933 335.321 927.878C336.469 926.804 337.042 925.333 337.042 923.464C337.042 921.558 336.496 920.059 335.405 918.967C334.331 917.876 332.675 917.33 330.436 917.33H323.746V929.46ZM374.21 944.31H391.892V951H365.883V910.585H374.21V944.31ZM428.116 931.708C428.116 935.687 427.413 939.175 426.006 942.173C424.6 945.171 422.583 947.484 419.955 949.112C417.346 950.741 414.348 951.555 410.961 951.555C407.612 951.555 404.623 950.75 401.996 949.14C399.368 947.53 397.332 945.236 395.889 942.256C394.445 939.258 393.715 935.816 393.696 931.93V929.932C393.696 925.953 394.408 922.456 395.833 919.439C397.277 916.405 399.303 914.082 401.912 912.472C404.54 910.844 407.538 910.029 410.906 910.029C414.274 910.029 417.262 910.844 419.872 912.472C422.499 914.082 424.526 916.405 425.951 919.439C427.394 922.456 428.116 925.944 428.116 929.904V931.708ZM419.677 929.876C419.677 925.639 418.919 922.419 417.401 920.217C415.884 918.014 413.719 916.913 410.906 916.913C408.112 916.913 405.956 918.005 404.438 920.189C402.921 922.354 402.153 925.537 402.134 929.738V931.708C402.134 935.835 402.893 939.036 404.411 941.313C405.928 943.589 408.112 944.727 410.961 944.727C413.756 944.727 415.902 943.635 417.401 941.451C418.9 939.249 419.659 936.048 419.677 931.847V929.876ZM465.894 937.537C465.579 941.886 463.97 945.31 461.064 947.808C458.177 950.306 454.365 951.555 449.628 951.555C444.447 951.555 440.366 949.816 437.387 946.337C434.426 942.839 432.946 938.046 432.946 931.958V929.488C432.946 925.602 433.63 922.178 435 919.217C436.369 916.256 438.321 913.99 440.857 912.417C443.41 910.825 446.371 910.029 449.739 910.029C454.402 910.029 458.159 911.279 461.009 913.777C463.859 916.275 465.505 919.782 465.95 924.297H457.622C457.419 921.688 456.688 919.8 455.429 918.634C454.19 917.45 452.293 916.858 449.739 916.858C446.963 916.858 444.881 917.857 443.494 919.856C442.124 921.836 441.421 924.917 441.384 929.099V932.152C441.384 936.52 442.041 939.712 443.355 941.729C444.687 943.746 446.778 944.754 449.628 944.754C452.2 944.754 454.116 944.172 455.374 943.006C456.651 941.821 457.382 939.999 457.567 937.537H465.894ZM494.179 942.673H479.579L476.803 951H467.948L482.993 910.585H490.71L505.838 951H496.983L494.179 942.673ZM481.827 935.928H491.931L486.851 920.799L481.827 935.928ZM536.704 917.33H524.324V951H515.997V917.33H503.783V910.585H536.704V917.33ZM550.333 951H542.006V910.585H550.333V951ZM591.276 931.708C591.276 935.687 590.573 939.175 589.167 942.173C587.76 945.171 585.743 947.484 583.115 949.112C580.506 950.741 577.508 951.555 574.122 951.555C570.772 951.555 567.784 950.75 565.156 949.14C562.528 947.53 560.493 945.236 559.049 942.256C557.606 939.258 556.875 935.816 556.856 931.93V929.932C556.856 925.953 557.569 922.456 558.994 919.439C560.437 916.405 562.464 914.082 565.073 912.472C567.7 910.844 570.698 910.029 574.066 910.029C577.434 910.029 580.423 910.844 583.032 912.472C585.66 914.082 587.686 916.405 589.111 919.439C590.554 922.456 591.276 925.944 591.276 929.904V931.708ZM582.838 929.876C582.838 925.639 582.079 922.419 580.562 920.217C579.044 918.014 576.879 916.913 574.066 916.913C571.272 916.913 569.116 918.005 567.599 920.189C566.081 922.354 565.313 925.537 565.295 929.738V931.708C565.295 935.835 566.054 939.036 567.571 941.313C569.088 943.589 571.272 944.727 574.122 944.727C576.916 944.727 579.063 943.635 580.562 941.451C582.061 939.249 582.819 936.048 582.838 931.847V929.876ZM630.193 951H621.865L605.655 924.408V951H597.327V910.585H605.655L621.893 937.232V910.585H630.193V951Z" fill="white"/>
<path d="M720.49 907.165L711.066 904.021C710.03 903.676 708.928 903.582 707.848 903.747C706.769 903.912 705.745 904.331 704.86 904.969C703.974 905.607 703.253 906.447 702.756 907.419C702.259 908.391 702 909.467 702 910.558V951.145C702 952.591 702.455 954.001 703.3 955.175C704.146 956.348 705.34 957.226 706.712 957.683L720.49 962.274C721.903 962.745 723.431 962.745 724.844 962.274L741.157 956.839C742.57 956.368 744.098 956.368 745.511 956.839L754.935 959.98C755.971 960.325 757.074 960.419 758.153 960.254C759.233 960.089 760.257 959.67 761.143 959.031C762.028 958.392 762.749 957.552 763.246 956.579C763.743 955.607 764.002 954.531 764.001 953.439V912.856C764.002 911.41 763.547 910 762.702 908.827C761.857 907.654 760.664 906.776 759.292 906.318L745.514 901.727C744.1 901.255 742.571 901.255 741.157 901.727L724.841 907.162C723.427 907.633 721.9 907.633 720.487 907.162L720.49 907.165Z" stroke="white" stroke-width="6.88901" stroke-linecap="round" stroke-linejoin="round"/>
<path d="M722.666 907.887V962.999" stroke="white" stroke-width="6.88901" stroke-linejoin="round"/>
<path d="M743.334 901V956.112" stroke="white" stroke-width="6.88901" stroke-linejoin="round"/>
</svg>
