<svg width="1000" height="1000" viewBox="0 0 1000 1000" fill="none" xmlns="http://www.w3.org/2000/svg">
<path d="M70 272H931V975C931 988.807 919.807 1000 906 1000H95C81.1929 1000 70 988.807 70 975V272Z" fill="#333333"/>
<path fill-rule="evenodd" clip-rule="evenodd" d="M154.774 158C80.3403 158 20 218.34 20 292.774H980C980 218.34 919.66 158 845.226 158H154.774ZM37.5736 328.289C26.3214 318.87 20 306.095 20 292.774H140C140 306.095 133.679 318.87 122.426 328.289C111.174 337.709 95.913 343 80 343C64.087 343 48.8258 337.709 37.5736 328.289ZM260 292.774C260 306.095 253.679 318.87 242.426 328.289C231.174 337.709 215.913 343 200 343C184.087 343 168.826 337.709 157.574 328.289C146.321 318.87 140 306.095 140 292.774H260ZM380 292.774C380 306.095 373.679 318.87 362.426 328.289C351.174 337.709 335.913 343 320 343C304.087 343 288.826 337.709 277.574 328.289C266.321 318.87 260 306.095 260 292.774H380ZM500 292.774C500 306.095 493.679 318.87 482.426 328.289C471.174 337.709 455.913 343 440 343C424.087 343 408.826 337.709 397.574 328.289C386.321 318.87 380 306.095 380 292.774H500ZM620 292.774C620 306.095 613.679 318.87 602.426 328.289C591.174 337.709 575.913 343 560 343C544.087 343 528.826 337.709 517.574 328.289C506.321 318.87 500 306.095 500 292.774H620ZM740 292.774C740 306.095 733.679 318.87 722.426 328.289C711.174 337.709 695.913 343 680 343C664.087 343 648.826 337.709 637.574 328.289C626.321 318.87 620 306.095 620 292.774H740ZM860 292.774C860 306.095 853.679 318.87 842.426 328.289C831.174 337.709 815.913 343 800 343C784.087 343 768.826 337.709 757.574 328.289C746.321 318.87 740 306.095 740 292.774H860ZM860 292.774H980C980 306.095 973.679 318.87 962.426 328.289C951.174 337.709 935.913 343 920 343C904.087 343 888.826 337.709 877.574 328.289C866.321 318.87 860 306.095 860 292.774Z" fill="white"/>
<path fill-rule="evenodd" clip-rule="evenodd" d="M160 31C82.6801 31 20 93.6801 20 171V255H980V171C980 93.6801 917.32 31 840 31H160ZM37.5736 311.484C26.3214 298.348 20 280.532 20 261.955H140C140 280.532 133.679 298.348 122.426 311.484C111.174 324.62 95.913 332 80 332C64.087 332 48.8258 324.62 37.5736 311.484ZM260 261.955C260 280.532 253.679 298.348 242.426 311.484C231.174 324.62 215.913 332 200 332C184.087 332 168.826 324.62 157.574 311.484C146.321 298.348 140 280.532 140 261.955H260ZM380 261.955C380 280.532 373.679 298.348 362.426 311.484C351.174 324.62 335.913 332 320 332C304.087 332 288.826 324.62 277.574 311.484C266.321 298.348 260 280.532 260 261.955H380ZM500 261.955C500 280.532 493.679 298.348 482.426 311.484C471.174 324.62 455.913 332 440 332C424.087 332 408.826 324.62 397.574 311.484C386.321 298.348 380 280.532 380 261.955H500ZM620 261.955C620 280.532 613.679 298.348 602.426 311.484C591.174 324.62 575.913 332 560 332C544.087 332 528.826 324.62 517.574 311.484C506.321 298.348 500 280.532 500 261.955H620ZM740 261.955C740 280.532 733.679 298.348 722.426 311.484C711.174 324.62 695.913 332 680 332C664.087 332 648.826 324.62 637.574 311.484C626.321 298.348 620 280.532 620 261.955H740ZM860 261.955C860 280.532 853.679 298.348 842.426 311.484C831.174 324.62 815.913 332 800 332C784.087 332 768.826 324.62 757.574 311.484C746.321 298.348 740 280.532 740 261.955H860ZM860 261.955H980C980 280.532 973.679 298.348 962.426 311.484C951.174 324.62 935.913 332 920 332C904.087 332 888.826 324.62 877.574 311.484C866.321 298.348 860 280.532 860 261.955Z" fill="#333333"/>
<rect x="215" y="390" width="570" height="570" rx="11.4" fill="white"/>
<path d="M631.096 429.9H745.096V543.9" stroke="#C2C2C2" stroke-width="22.8"/>
<path d="M368.898 429.9H254.898V543.9" stroke="#C2C2C2" stroke-width="22.8"/>
<path d="M631.096 920.1H745.096V806.1" stroke="#C2C2C2" stroke-width="22.8"/>
<path d="M368.898 920.1H254.898V806.1" stroke="#C2C2C2" stroke-width="22.8"/>
<path d="M364.475 628.488L355.041 601.032L345.015 628.488H364.475ZM350.641 591.809H360.16L382.708 653.955H373.486L367.182 635.341H342.603L335.877 653.955H327.247L350.641 591.809ZM394.173 631.83C394.173 636.681 395.202 640.742 397.261 644.013C399.32 647.285 402.62 648.921 407.16 648.921C410.686 648.921 413.577 647.412 415.833 644.394C418.117 641.348 419.259 636.991 419.259 631.322C419.259 625.597 418.089 621.366 415.748 618.631C413.407 615.867 410.516 614.485 407.076 614.485C403.24 614.485 400.124 615.951 397.726 618.884C395.357 621.818 394.173 626.133 394.173 631.83ZM405.637 607.843C409.106 607.843 412.011 608.576 414.352 610.043C415.706 610.889 417.243 612.37 418.963 614.485V591.598H426.282V653.955H419.429V647.652C417.652 650.444 415.551 652.46 413.125 653.701C410.7 654.942 407.922 655.563 404.791 655.563C399.743 655.563 395.371 653.447 391.677 649.217C387.982 644.958 386.135 639.304 386.135 632.253C386.135 625.653 387.813 619.942 391.169 615.119C394.553 610.268 399.376 607.843 405.637 607.843ZM442.4 631.83C442.4 636.681 443.43 640.742 445.488 644.013C447.547 647.285 450.847 648.921 455.388 648.921C458.913 648.921 461.804 647.412 464.06 644.394C466.345 641.348 467.487 636.991 467.487 631.322C467.487 625.597 466.316 621.366 463.975 618.631C461.635 615.867 458.744 614.485 455.303 614.485C451.467 614.485 448.351 615.951 445.954 618.884C443.585 621.818 442.4 626.133 442.4 631.83ZM453.865 607.843C457.334 607.843 460.239 608.576 462.579 610.043C463.933 610.889 465.47 612.37 467.191 614.485V591.598H474.509V653.955H467.656V647.652C465.879 650.444 463.778 652.46 461.353 653.701C458.927 654.942 456.149 655.563 453.019 655.563C447.97 655.563 443.599 653.447 439.904 649.217C436.21 644.958 434.362 639.304 434.362 632.253C434.362 625.653 436.04 619.942 439.396 615.119C442.781 610.268 447.604 607.843 453.865 607.843ZM538.22 608.647H546.639C545.567 611.552 543.184 618.179 539.489 628.53C536.725 636.314 534.413 642.66 532.551 647.567C528.152 659.13 525.049 666.181 523.244 668.719C521.439 671.258 518.337 672.527 513.937 672.527C512.866 672.527 512.034 672.485 511.441 672.4C510.877 672.315 510.172 672.16 509.326 671.935V664.997C510.652 665.363 511.611 665.589 512.203 665.673C512.795 665.758 513.317 665.8 513.768 665.8C515.178 665.8 516.208 665.561 516.856 665.081C517.533 664.63 518.097 664.066 518.549 663.389C518.69 663.163 519.197 662.007 520.072 659.92C520.946 657.833 521.58 656.282 521.975 655.267L505.223 608.647H513.853L525.994 645.536L538.22 608.647ZM571.218 649.048C576.266 649.048 579.721 647.144 581.583 643.337C583.472 639.501 584.417 635.242 584.417 630.561C584.417 626.33 583.74 622.889 582.386 620.238C580.243 616.064 576.548 613.977 571.302 613.977C566.649 613.977 563.265 615.754 561.149 619.308C559.034 622.861 557.977 627.148 557.977 632.168C557.977 636.991 559.034 641.01 561.149 644.225C563.265 647.44 566.621 649.048 571.218 649.048ZM571.514 607.335C577.352 607.335 582.288 609.281 586.321 613.173C590.354 617.065 592.37 622.791 592.37 630.349C592.37 637.654 590.593 643.689 587.04 648.455C583.486 653.222 577.973 655.605 570.499 655.605C564.266 655.605 559.316 653.504 555.65 649.302C551.983 645.071 550.15 639.402 550.15 632.295C550.15 624.68 552.082 618.617 555.946 614.104C559.81 609.592 564.999 607.335 571.514 607.335ZM609.081 608.647V638.725C609.081 641.038 609.447 642.928 610.18 644.394C611.534 647.102 614.058 648.455 617.753 648.455C623.055 648.455 626.665 646.086 628.583 641.348C629.627 638.81 630.148 635.327 630.148 630.899V608.647H637.763V653.955H630.571L630.656 647.271C629.669 648.991 628.442 650.444 626.975 651.628C624.071 653.997 620.545 655.182 616.399 655.182C609.941 655.182 605.541 653.024 603.2 648.709C601.931 646.397 601.297 643.308 601.297 639.445V608.647H609.081ZM649.905 608.647H657.139V616.473C657.731 614.95 659.183 613.103 661.496 610.931C663.809 608.731 666.474 607.631 669.492 607.631C669.633 607.631 669.872 607.646 670.211 607.674C670.549 607.702 671.127 607.758 671.945 607.843V615.881C671.494 615.796 671.071 615.74 670.676 615.712C670.31 615.683 669.901 615.669 669.449 615.669C665.614 615.669 662.667 616.91 660.608 619.392C658.549 621.846 657.519 624.68 657.519 627.895V653.955H649.905V608.647Z" fill="#C2C2C2"/>
<path d="M365.245 756.639C362.453 757.57 359.111 758.035 355.219 758.035C347.096 758.035 340.384 755.61 335.082 750.759C328.651 744.921 325.436 736.347 325.436 725.038C325.436 713.644 328.736 705.028 335.335 699.189C340.722 694.423 347.421 692.04 355.43 692.04C363.496 692.04 370.265 694.564 375.736 699.613C382.054 705.451 385.213 713.615 385.213 724.107C385.213 729.663 384.536 734.316 383.182 738.067C382.082 741.649 380.46 744.625 378.317 746.994L385.509 753.72L378.698 760.827L371.168 753.72C368.883 755.102 366.909 756.075 365.245 756.639ZM362.453 745.386L356.149 739.379L362.876 732.356L369.179 738.364C370.166 736.333 370.857 734.556 371.252 733.033C371.873 730.749 372.183 728.084 372.183 725.038C372.183 718.043 370.745 712.642 367.868 708.835C365.019 704.999 360.845 703.081 355.346 703.081C350.184 703.081 346.067 704.915 342.993 708.581C339.918 712.248 338.381 717.733 338.381 725.038C338.381 733.583 340.581 739.703 344.981 743.398C347.829 745.795 351.242 746.994 355.219 746.994C356.713 746.994 358.152 746.81 359.534 746.444C360.295 746.246 361.268 745.894 362.453 745.386ZM421.679 731.849H408.226V756.301H395.493V693.944H426.079C430.451 694.028 433.807 694.564 436.148 695.551C438.517 696.538 440.519 697.991 442.155 699.909C443.509 701.488 444.58 703.237 445.37 705.154C446.16 707.072 446.555 709.258 446.555 711.712C446.555 714.673 445.807 717.592 444.312 720.469C442.818 723.317 440.35 725.334 436.909 726.518C439.786 727.675 441.816 729.324 443.001 731.468C444.214 733.583 444.82 736.827 444.82 741.198V745.386C444.82 748.235 444.933 750.167 445.158 751.182C445.497 752.789 446.287 753.974 447.528 754.736V756.301H433.186C432.791 754.919 432.509 753.805 432.34 752.959C432.002 751.21 431.818 749.419 431.79 747.586L431.706 741.79C431.649 737.814 430.916 735.163 429.506 733.837C428.124 732.511 425.515 731.849 421.679 731.849ZM429.59 720.511C432.185 719.326 433.482 716.986 433.482 713.488C433.482 709.709 432.227 707.171 429.717 705.874C428.307 705.14 426.192 704.774 423.372 704.774H408.226V721.526H422.991C425.924 721.526 428.124 721.188 429.59 720.511ZM520.842 726.73H508.489C508.263 725.009 507.685 723.458 506.754 722.076C505.4 720.215 503.299 719.284 500.451 719.284C496.389 719.284 493.611 721.301 492.117 725.334C491.327 727.477 490.932 730.326 490.932 733.879C490.932 737.264 491.327 739.985 492.117 742.044C493.555 745.88 496.263 747.798 500.239 747.798C503.059 747.798 505.062 747.036 506.246 745.513C507.431 743.99 508.15 742.016 508.404 739.59H520.715C520.433 743.257 519.107 746.726 516.738 749.997C512.959 755.271 507.36 757.908 499.943 757.908C492.526 757.908 487.068 755.709 483.571 751.309C480.074 746.909 478.325 741.198 478.325 734.175C478.325 726.25 480.257 720.088 484.121 715.688C487.985 711.289 493.315 709.089 500.112 709.089C505.894 709.089 510.618 710.386 514.284 712.981C517.979 715.575 520.165 720.158 520.842 726.73ZM567.631 716.027C571.523 720.906 573.469 726.673 573.469 733.329C573.469 740.098 571.523 745.894 567.631 750.717C563.738 755.511 557.83 757.908 549.905 757.908C541.98 757.908 536.071 755.511 532.179 750.717C528.287 745.894 526.341 740.098 526.341 733.329C526.341 726.673 528.287 720.906 532.179 716.027C536.071 711.148 541.98 708.708 549.905 708.708C557.83 708.708 563.738 711.148 567.631 716.027ZM549.863 718.903C546.337 718.903 543.616 720.158 541.698 722.669C539.808 725.15 538.863 728.704 538.863 733.329C538.863 737.955 539.808 741.522 541.698 744.032C543.616 746.543 546.337 747.798 549.863 747.798C553.388 747.798 556.095 746.543 557.985 744.032C559.875 741.522 560.819 737.955 560.819 733.329C560.819 728.704 559.875 725.15 557.985 722.669C556.095 720.158 553.388 718.903 549.863 718.903ZM624.107 694.028V756.301H612.389V749.913C610.668 752.648 608.708 754.637 606.509 755.878C604.309 757.119 601.573 757.739 598.301 757.739C592.915 757.739 588.374 755.568 584.679 751.224C581.013 746.853 579.18 741.254 579.18 734.429C579.18 726.561 580.985 720.37 584.595 715.858C588.233 711.345 593.084 709.089 599.148 709.089C601.94 709.089 604.422 709.709 606.593 710.95C608.765 712.163 610.527 713.855 611.881 716.027V694.028H624.107ZM591.617 733.541C591.617 737.8 592.463 741.198 594.156 743.736C595.82 746.303 598.358 747.586 601.77 747.586C605.183 747.586 607.778 746.317 609.554 743.779C611.331 741.24 612.22 737.955 612.22 733.922C612.22 728.281 610.795 724.248 607.947 721.822C606.198 720.356 604.168 719.623 601.855 719.623C598.33 719.623 595.735 720.962 594.071 723.642C592.435 726.293 591.617 729.592 591.617 733.541ZM674.577 742.763C674.267 745.499 672.842 748.277 670.304 751.097C666.356 755.582 660.828 757.824 653.721 757.824C647.854 757.824 642.679 755.934 638.195 752.155C633.71 748.376 631.468 742.227 631.468 733.71C631.468 725.729 633.485 719.609 637.518 715.35C641.579 711.091 646.839 708.962 653.298 708.962C657.133 708.962 660.588 709.681 663.662 711.119C666.736 712.558 669.275 714.828 671.277 717.93C673.082 720.666 674.252 723.839 674.788 727.449C675.099 729.564 675.225 732.61 675.169 736.587H643.61C643.779 741.212 645.231 744.455 647.967 746.317C649.631 747.473 651.634 748.051 653.974 748.051C656.456 748.051 658.473 747.346 660.024 745.936C660.87 745.175 661.617 744.117 662.266 742.763H674.577ZM662.647 728.634C662.449 725.447 661.476 723.035 659.728 721.399C658.007 719.735 655.864 718.903 653.298 718.903C650.505 718.903 648.334 719.778 646.783 721.526C645.26 723.275 644.301 725.644 643.906 728.634H662.647Z" fill="#C2C2C2"/>
<path d="M214.625 147.566C214.625 152.605 213.734 157.023 211.953 160.82C210.172 164.617 207.617 167.547 204.289 169.609C200.984 171.672 197.188 172.703 192.898 172.703C188.656 172.703 184.871 171.684 181.543 169.645C178.215 167.605 175.637 164.699 173.809 160.926C171.98 157.129 171.055 152.77 171.031 147.848V145.316C171.031 140.277 171.934 135.848 173.738 132.027C175.566 128.184 178.133 125.242 181.438 123.203C184.766 121.141 188.562 120.109 192.828 120.109C197.094 120.109 200.879 121.141 204.184 123.203C207.512 125.242 210.078 128.184 211.883 132.027C213.711 135.848 214.625 140.266 214.625 145.281V147.566ZM203.938 145.246C203.938 139.879 202.977 135.801 201.055 133.012C199.133 130.223 196.391 128.828 192.828 128.828C189.289 128.828 186.559 130.211 184.637 132.977C182.715 135.719 181.742 139.75 181.719 145.07V147.566C181.719 152.793 182.68 156.848 184.602 159.73C186.523 162.613 189.289 164.055 192.898 164.055C196.438 164.055 199.156 162.672 201.055 159.906C202.953 157.117 203.914 153.062 203.938 147.742V145.246ZM261.031 120.812V154.527C261.031 160.129 259.273 164.559 255.758 167.816C252.266 171.074 247.484 172.703 241.414 172.703C235.438 172.703 230.691 171.121 227.176 167.957C223.66 164.793 221.867 160.445 221.797 154.914V120.812H232.344V154.598C232.344 157.949 233.141 160.398 234.734 161.945C236.352 163.469 238.578 164.23 241.414 164.23C247.344 164.23 250.355 161.113 250.449 154.879V120.812H261.031ZM288.629 153.262H280.227V172H269.68V120.812H288.699C294.746 120.812 299.41 122.16 302.691 124.855C305.973 127.551 307.613 131.359 307.613 136.281C307.613 139.773 306.852 142.691 305.328 145.035C303.828 147.355 301.543 149.207 298.473 150.59L309.547 171.508V172H298.227L288.629 153.262ZM280.227 144.719H288.734C291.383 144.719 293.434 144.051 294.887 142.715C296.34 141.355 297.066 139.492 297.066 137.125C297.066 134.711 296.375 132.812 294.992 131.43C293.633 130.047 291.535 129.355 288.699 129.355H280.227V144.719ZM344.141 163.527H366.535V172H333.594V120.812H344.141V163.527ZM412.414 147.566C412.414 152.605 411.523 157.023 409.742 160.82C407.961 164.617 405.406 167.547 402.078 169.609C398.773 171.672 394.977 172.703 390.688 172.703C386.445 172.703 382.66 171.684 379.332 169.645C376.004 167.605 373.426 164.699 371.598 160.926C369.77 157.129 368.844 152.77 368.82 147.848V145.316C368.82 140.277 369.723 135.848 371.527 132.027C373.355 128.184 375.922 125.242 379.227 123.203C382.555 121.141 386.352 120.109 390.617 120.109C394.883 120.109 398.668 121.141 401.973 123.203C405.301 125.242 407.867 128.184 409.672 132.027C411.5 135.848 412.414 140.266 412.414 145.281V147.566ZM401.727 145.246C401.727 139.879 400.766 135.801 398.844 133.012C396.922 130.223 394.18 128.828 390.617 128.828C387.078 128.828 384.348 130.211 382.426 132.977C380.504 135.719 379.531 139.75 379.508 145.07V147.566C379.508 152.793 380.469 156.848 382.391 159.73C384.312 162.613 387.078 164.055 390.688 164.055C394.227 164.055 396.945 162.672 398.844 159.906C400.742 157.117 401.703 153.062 401.727 147.742V145.246ZM460.262 154.949C459.863 160.457 457.824 164.793 454.145 167.957C450.488 171.121 445.66 172.703 439.66 172.703C433.098 172.703 427.93 170.5 424.156 166.094C420.406 161.664 418.531 155.594 418.531 147.883V144.754C418.531 139.832 419.398 135.496 421.133 131.746C422.867 127.996 425.34 125.125 428.551 123.133C431.785 121.117 435.535 120.109 439.801 120.109C445.707 120.109 450.465 121.691 454.074 124.855C457.684 128.02 459.77 132.461 460.332 138.18H449.785C449.527 134.875 448.602 132.484 447.008 131.008C445.438 129.508 443.035 128.758 439.801 128.758C436.285 128.758 433.648 130.023 431.891 132.555C430.156 135.062 429.266 138.965 429.219 144.262V148.129C429.219 153.66 430.051 157.703 431.715 160.258C433.402 162.812 436.051 164.09 439.66 164.09C442.918 164.09 445.344 163.352 446.938 161.875C448.555 160.375 449.48 158.066 449.715 154.949H460.262ZM496.086 161.453H477.594L474.078 172H462.863L481.918 120.812H491.691L510.852 172H499.637L496.086 161.453ZM480.441 152.91H493.238L486.805 133.75L480.441 152.91ZM549.945 129.355H534.266V172H523.719V129.355H508.25V120.812H549.945V129.355ZM567.207 172H556.66V120.812H567.207V172ZM619.062 147.566C619.062 152.605 618.172 157.023 616.391 160.82C614.609 164.617 612.055 167.547 608.727 169.609C605.422 171.672 601.625 172.703 597.336 172.703C593.094 172.703 589.309 171.684 585.98 169.645C582.652 167.605 580.074 164.699 578.246 160.926C576.418 157.129 575.492 152.77 575.469 147.848V145.316C575.469 140.277 576.371 135.848 578.176 132.027C580.004 128.184 582.57 125.242 585.875 123.203C589.203 121.141 593 120.109 597.266 120.109C601.531 120.109 605.316 121.141 608.621 123.203C611.949 125.242 614.516 128.184 616.32 132.027C618.148 135.848 619.062 140.266 619.062 145.281V147.566ZM608.375 145.246C608.375 139.879 607.414 135.801 605.492 133.012C603.57 130.223 600.828 128.828 597.266 128.828C593.727 128.828 590.996 130.211 589.074 132.977C587.152 135.719 586.18 139.75 586.156 145.07V147.566C586.156 152.793 587.117 156.848 589.039 159.73C590.961 162.613 593.727 164.055 597.336 164.055C600.875 164.055 603.594 162.672 605.492 159.906C607.391 157.117 608.352 153.062 608.375 147.742V145.246ZM668.352 172H657.805L637.273 138.32V172H626.727V120.812H637.273L657.84 154.562V120.812H668.352V172Z" fill="white"/>
<path d="M816.97 132.175C813.85 132.1 810.778 131.386 807.945 130.077C805.112 128.768 802.577 126.892 800.497 124.565C801.614 129.314 800.965 134.308 798.673 138.615C796.381 142.921 792.601 146.248 788.038 147.974C783.474 149.701 778.439 149.709 773.87 147.999C769.301 146.288 765.51 142.974 763.203 138.675C760.895 134.376 760.23 129.385 761.33 124.632C762.43 119.879 765.221 115.688 769.182 112.839C773.143 109.991 778.005 108.68 782.861 109.151C787.717 109.621 792.236 111.841 795.577 115.397C794.227 110.499 794.561 105.29 796.524 100.605C791.053 97.9623 785 96.7514 778.932 97.0856C772.865 97.4199 766.982 99.2883 761.833 102.516C756.685 105.744 752.44 110.225 749.495 115.54C746.551 120.856 745.004 126.832 744.998 132.908C744.998 147.18 753.005 159.13 758.873 167.84L759.943 169.429C765.781 177.89 772.044 186.05 778.707 193.878L781.03 196.598L783.352 193.878C790.015 186.05 796.278 177.89 802.117 169.429L803.187 167.809C809.024 159.099 817.031 147.18 817.031 132.908C817.001 132.664 816.97 132.419 816.97 132.175Z" fill="white"/>
<path d="M781.001 140.363C787.297 140.363 792.4 135.26 792.4 128.964C792.4 122.668 787.297 117.564 781.001 117.564C774.705 117.564 769.602 122.668 769.602 128.964C769.602 135.26 774.705 140.363 781.001 140.363Z" fill="white"/>
<path d="M817.675 124.561C826.114 124.561 832.956 117.72 832.956 109.281C832.956 100.841 826.114 94 817.675 94C809.236 94 802.395 100.841 802.395 109.281C802.395 117.72 809.236 124.561 817.675 124.561Z" fill="white"/>
</svg>
