<svg width="1004" height="1000" viewBox="0 0 1004 1000" fill="none" xmlns="http://www.w3.org/2000/svg">
<path d="M5.29957 239.937C-1.41857 233.219 -1.43284 222.311 5.44399 215.755C69.6108 154.585 144.568 105.765 226.562 71.802C313.858 35.643 407.421 17.0323 501.908 17.0323C596.396 17.0323 689.959 35.6431 777.254 71.8021C859.249 105.765 934.206 154.586 998.373 215.755C1005.25 222.311 1005.24 233.219 998.517 239.937L514.072 724.382C507.354 731.1 496.462 731.1 489.744 724.382L5.29957 239.937Z" fill="#333333"/>
<path d="M58.0138 249.223C51.2956 242.505 51.2799 231.594 58.1748 225.058C115.407 170.8 182.142 127.465 255.091 97.248C333.342 64.8355 417.21 48.153 501.908 48.153C586.606 48.1531 670.475 64.8356 748.726 97.2481C821.675 127.465 888.41 170.801 945.642 225.058C952.537 231.595 952.521 242.505 945.803 249.223L514.072 680.953C507.354 687.671 496.462 687.671 489.744 680.953L58.0138 249.223Z" fill="white"/>
<circle cx="502" cy="873" r="127" fill="#333333"/>
<rect x="196.646" y="355.072" width="431.438" height="431.438" rx="15" transform="rotate(-45 196.646 355.072)" fill="white"/>
<path d="M440.705 153.723L501.72 92.7081L562.734 153.723" stroke="#C2C2C2" stroke-width="17.2575"/>
<path d="M300.369 294.059L239.355 355.073L300.369 416.088" stroke="#C2C2C2" stroke-width="17.2575"/>
<path d="M703.066 416.084L764.081 355.069L703.066 294.055" stroke="#C2C2C2" stroke-width="17.2575"/>
<path d="M562.732 556.42L501.718 617.434L440.703 556.42" stroke="#C2C2C2" stroke-width="17.2575"/>
<path d="M399.539 319.733L392.398 298.952L384.81 319.733H399.539ZM389.068 291.971H396.273L413.34 339.01H406.36L401.588 324.921H382.984L377.893 339.01H371.361L389.068 291.971ZM422.018 322.263C422.018 325.935 422.797 329.009 424.355 331.485C425.914 333.961 428.411 335.199 431.848 335.199C434.516 335.199 436.705 334.057 438.412 331.773C440.141 329.468 441.006 326.169 441.006 321.879C441.006 317.545 440.12 314.343 438.348 312.272C436.576 310.18 434.388 309.134 431.784 309.134C428.881 309.134 426.522 310.244 424.707 312.465C422.914 314.685 422.018 317.951 422.018 322.263ZM430.695 304.107C433.321 304.107 435.52 304.662 437.292 305.772C438.316 306.413 439.48 307.533 440.782 309.134V291.811H446.321V339.01H441.134V334.239C439.789 336.352 438.199 337.878 436.363 338.818C434.527 339.757 432.424 340.227 430.055 340.227C426.234 340.227 422.925 338.626 420.128 335.423C417.332 332.2 415.934 327.92 415.934 322.583C415.934 317.588 417.204 313.265 419.744 309.615C422.306 305.943 425.956 304.107 430.695 304.107ZM458.521 322.263C458.521 325.935 459.301 329.009 460.859 331.485C462.417 333.961 464.915 335.199 468.352 335.199C471.02 335.199 473.208 334.057 474.916 331.773C476.645 329.468 477.51 326.169 477.51 321.879C477.51 317.545 476.624 314.343 474.852 312.272C473.08 310.18 470.892 309.134 468.288 309.134C465.385 309.134 463.026 310.244 461.211 312.465C459.418 314.685 458.521 317.951 458.521 322.263ZM467.199 304.107C469.825 304.107 472.024 304.662 473.795 305.772C474.82 306.413 475.983 307.533 477.286 309.134V291.811H482.825V339.01H477.638V334.239C476.293 336.352 474.703 337.878 472.867 338.818C471.031 339.757 468.928 340.227 466.559 340.227C462.737 340.227 459.429 338.626 456.632 335.423C453.836 332.2 452.437 327.92 452.437 322.583C452.437 317.588 453.708 313.265 456.248 309.615C458.81 305.943 462.46 304.107 467.199 304.107ZM531.048 304.716H537.421C536.609 306.914 534.806 311.931 532.009 319.765C529.917 325.657 528.167 330.46 526.758 334.175C523.428 342.927 521.079 348.264 519.713 350.185C518.347 352.106 515.999 353.067 512.669 353.067C511.857 353.067 511.228 353.035 510.779 352.971C510.352 352.907 509.819 352.789 509.178 352.619V347.367C510.182 347.645 510.907 347.815 511.356 347.88C511.804 347.944 512.199 347.976 512.54 347.976C513.608 347.976 514.387 347.794 514.878 347.431C515.39 347.09 515.817 346.663 516.159 346.15C516.266 345.98 516.65 345.104 517.312 343.525C517.973 341.945 518.454 340.771 518.752 340.002L506.072 304.716H512.604L521.794 332.638L531.048 304.716ZM556.025 335.295C559.846 335.295 562.461 333.854 563.87 330.973C565.3 328.069 566.015 324.846 566.015 321.302C566.015 318.1 565.503 315.496 564.478 313.489C562.856 310.33 560.059 308.75 556.089 308.75C552.566 308.75 550.005 310.095 548.404 312.785C546.803 315.474 546.002 318.719 546.002 322.519C546.002 326.169 546.803 329.211 548.404 331.645C550.005 334.079 552.545 335.295 556.025 335.295ZM556.249 303.723C560.668 303.723 564.403 305.196 567.456 308.142C570.509 311.088 572.035 315.421 572.035 321.142C572.035 326.671 570.69 331.239 568 334.847C565.311 338.455 561.137 340.259 555.48 340.259C550.763 340.259 547.016 338.668 544.241 335.487C541.466 332.285 540.078 327.995 540.078 322.615C540.078 316.851 541.541 312.262 544.465 308.846C547.39 305.431 551.318 303.723 556.249 303.723ZM584.683 304.716V327.482C584.683 329.233 584.961 330.663 585.516 331.773C586.54 333.822 588.451 334.847 591.248 334.847C595.261 334.847 597.993 333.054 599.445 329.468C600.235 327.546 600.63 324.91 600.63 321.558V304.716H606.393V339.01H600.95L601.014 333.95C600.267 335.253 599.338 336.352 598.228 337.249C596.029 339.042 593.361 339.938 590.223 339.938C585.334 339.938 582.004 338.305 580.232 335.039C579.272 333.289 578.791 330.951 578.791 328.027V304.716H584.683ZM615.583 304.716H621.059V310.639C621.507 309.487 622.607 308.088 624.357 306.445C626.107 304.78 628.125 303.947 630.409 303.947C630.516 303.947 630.697 303.958 630.953 303.979C631.209 304 631.647 304.043 632.266 304.107V310.191C631.925 310.127 631.604 310.084 631.306 310.063C631.028 310.042 630.718 310.031 630.377 310.031C627.474 310.031 625.243 310.97 623.685 312.849C622.126 314.706 621.347 316.851 621.347 319.285V339.01H615.583V304.716Z" fill="#C2C2C2"/>
<path d="M400.203 413.428C398.089 414.132 395.56 414.485 392.614 414.485C386.466 414.485 381.385 412.649 377.372 408.977C372.505 404.558 370.071 398.069 370.071 389.509C370.071 380.884 372.569 374.363 377.564 369.944C381.641 366.336 386.711 364.532 392.774 364.532C398.879 364.532 404.002 366.443 408.144 370.264C412.925 374.683 415.316 380.863 415.316 388.804C415.316 393.009 414.804 396.532 413.779 399.371C412.947 402.082 411.719 404.334 410.097 406.127L415.54 411.219L410.385 416.598L404.685 411.219C402.956 412.265 401.462 413.001 400.203 413.428ZM398.089 404.911L393.318 400.364L398.409 395.048L403.18 399.595C403.928 398.058 404.451 396.713 404.749 395.56C405.219 393.831 405.454 391.814 405.454 389.509C405.454 384.214 404.365 380.126 402.188 377.245C400.032 374.341 396.872 372.89 392.71 372.89C388.803 372.89 385.686 374.277 383.36 377.052C381.033 379.828 379.869 383.98 379.869 389.509C379.869 395.977 381.534 400.609 384.865 403.406C387.021 405.22 389.604 406.127 392.614 406.127C393.745 406.127 394.834 405.989 395.88 405.711C396.456 405.562 397.193 405.295 398.089 404.911ZM442.918 394.664H432.736V413.172H423.097V365.973H446.248C449.557 366.037 452.098 366.443 453.869 367.19C455.663 367.937 457.178 369.037 458.416 370.488C459.441 371.684 460.252 373.007 460.85 374.459C461.448 375.91 461.746 377.565 461.746 379.422C461.746 381.663 461.181 383.873 460.049 386.05C458.918 388.206 457.05 389.733 454.446 390.629C456.623 391.504 458.16 392.753 459.057 394.376C459.975 395.977 460.434 398.432 460.434 401.74V404.911C460.434 407.067 460.519 408.529 460.69 409.297C460.946 410.514 461.544 411.411 462.483 411.987V413.172H451.628C451.329 412.126 451.116 411.283 450.987 410.642C450.731 409.319 450.593 407.963 450.571 406.576L450.507 402.189C450.464 399.179 449.909 397.172 448.842 396.169C447.796 395.166 445.821 394.664 442.918 394.664ZM448.906 386.082C450.87 385.186 451.852 383.414 451.852 380.767C451.852 377.906 450.902 375.985 449.002 375.003C447.935 374.448 446.334 374.171 444.199 374.171H432.736V386.851H443.911C446.131 386.851 447.796 386.595 448.906 386.082ZM517.975 390.789H508.625C508.454 389.487 508.016 388.313 507.312 387.267C506.287 385.858 504.697 385.154 502.541 385.154C499.467 385.154 497.364 386.68 496.233 389.733C495.635 391.355 495.336 393.511 495.336 396.201C495.336 398.763 495.635 400.823 496.233 402.381C497.322 405.284 499.371 406.736 502.381 406.736C504.516 406.736 506.031 406.159 506.928 405.007C507.824 403.854 508.369 402.36 508.561 400.524H517.879C517.665 403.299 516.662 405.925 514.869 408.401C512.008 412.393 507.771 414.389 502.157 414.389C496.542 414.389 492.412 412.724 489.765 409.393C487.118 406.063 485.794 401.74 485.794 396.425C485.794 390.426 487.256 385.762 490.181 382.432C493.105 379.102 497.14 377.437 502.285 377.437C506.661 377.437 510.237 378.419 513.012 380.383C515.808 382.347 517.463 385.815 517.975 390.789ZM553.39 382.688C556.336 386.381 557.809 390.747 557.809 395.785C557.809 400.908 556.336 405.295 553.39 408.945C550.444 412.574 545.972 414.389 539.973 414.389C533.975 414.389 529.502 412.574 526.557 408.945C523.611 405.295 522.138 400.908 522.138 395.785C522.138 390.747 523.611 386.381 526.557 382.688C529.502 378.995 533.975 377.148 539.973 377.148C545.972 377.148 550.444 378.995 553.39 382.688ZM539.941 384.866C537.273 384.866 535.213 385.815 533.761 387.715C532.331 389.594 531.616 392.284 531.616 395.785C531.616 399.286 532.331 401.986 533.761 403.886C535.213 405.786 537.273 406.736 539.941 406.736C542.61 406.736 544.659 405.786 546.089 403.886C547.519 401.986 548.235 399.286 548.235 395.785C548.235 392.284 547.519 389.594 546.089 387.715C544.659 385.815 542.61 384.866 539.941 384.866ZM596.138 366.037V413.172H587.268V408.337C585.966 410.407 584.482 411.912 582.817 412.852C581.152 413.791 579.081 414.261 576.605 414.261C572.528 414.261 569.091 412.617 566.294 409.329C563.519 406.021 562.132 401.783 562.132 396.617C562.132 390.661 563.498 385.976 566.23 382.56C568.984 379.144 572.656 377.437 577.245 377.437C579.359 377.437 581.237 377.906 582.881 378.846C584.525 379.764 585.859 381.044 586.884 382.688V366.037H596.138ZM571.546 395.945C571.546 399.168 572.186 401.74 573.467 403.662C574.726 405.604 576.648 406.576 579.231 406.576C581.814 406.576 583.778 405.615 585.123 403.694C586.467 401.772 587.14 399.286 587.14 396.233C587.14 391.963 586.062 388.911 583.906 387.075C582.582 385.965 581.045 385.41 579.295 385.41C576.626 385.41 574.662 386.424 573.403 388.452C572.165 390.458 571.546 392.956 571.546 395.945ZM634.338 402.925C634.104 404.996 633.026 407.099 631.104 409.233C628.116 412.628 623.932 414.325 618.552 414.325C614.112 414.325 610.195 412.894 606.801 410.034C603.406 407.173 601.709 402.52 601.709 396.073C601.709 390.032 603.236 385.399 606.288 382.176C609.362 378.952 613.344 377.341 618.232 377.341C621.135 377.341 623.75 377.885 626.077 378.974C628.404 380.062 630.325 381.781 631.841 384.129C633.207 386.2 634.093 388.601 634.499 391.334C634.733 392.935 634.829 395.24 634.787 398.25H610.899C611.027 401.751 612.127 404.206 614.197 405.615C615.457 406.49 616.973 406.928 618.744 406.928C620.623 406.928 622.149 406.394 623.323 405.327C623.964 404.75 624.529 403.95 625.02 402.925H634.338ZM625.309 392.23C625.159 389.818 624.423 387.993 623.099 386.755C621.797 385.495 620.175 384.866 618.232 384.866C616.119 384.866 614.475 385.527 613.301 386.851C612.148 388.174 611.422 389.967 611.123 392.23H625.309Z" fill="#C2C2C2"/>
<rect x="157.5" y="810.5" width="688" height="125" rx="47.5" fill="#333333" stroke="white" stroke-width="5"/>
<path d="M312.725 875.243H293.961V895H285.859V848.378H315.479V854.91H293.961V868.775H312.725V875.243ZM339.046 877.036H330.016V895H321.915V848.378H338.309C343.689 848.378 347.841 849.584 350.765 851.996C353.69 854.408 355.152 857.899 355.152 862.467C355.152 865.584 354.394 868.199 352.879 870.312C351.385 872.404 349.292 874.016 346.603 875.147L357.074 894.584V895H348.396L339.046 877.036ZM330.016 870.536H338.341C341.074 870.536 343.209 869.853 344.746 868.487C346.283 867.099 347.051 865.21 347.051 862.819C347.051 860.321 346.336 858.39 344.906 857.023C343.497 855.657 341.383 854.953 338.566 854.91H330.016V870.536ZM390.087 874.186H370.939V888.532H393.321V895H362.837V848.378H393.097V854.91H370.939V867.782H390.087V874.186ZM427.167 874.186H408.019V888.532H430.401V895H399.917V848.378H430.177V854.91H408.019V867.782H427.167V874.186ZM489.896 883.473L497.068 848.378H505.106L494.347 895H486.598L477.728 860.962L468.666 895H460.885L450.126 848.378H458.163L465.4 883.408L474.302 848.378H481.09L489.896 883.473ZM519.579 895H511.51V848.378H519.579V895ZM543.883 878.317H527.072V872.041H543.883V878.317ZM577.921 875.243H559.157V895H551.055V848.378H580.675V854.91H559.157V868.775H577.921V875.243ZM595.66 895H587.591V848.378H595.66V895Z" fill="white"/>
<path d="M663.02 870.346C669.656 864.818 678.021 861.791 686.659 861.791C695.296 861.791 703.661 864.818 710.298 870.346" stroke="white" stroke-width="6.71564" stroke-linecap="round" stroke-linejoin="round"/>
<path d="M651 858.422C660.813 849.773 673.445 845 686.526 845C699.607 845 712.239 849.773 722.051 858.422" stroke="white" stroke-width="6.71564" stroke-linecap="round" stroke-linejoin="round"/>
<path d="M674.871 882.301C678.28 879.879 682.358 878.578 686.54 878.578C690.721 878.578 694.799 879.879 698.208 882.301" stroke="white" stroke-width="6.71564" stroke-linecap="round" stroke-linejoin="round"/>
<path d="M686.525 895.361H686.558" stroke="white" stroke-width="6.71564" stroke-linecap="round" stroke-linejoin="round"/>
</svg>
