<svg width="1000" height="1000" viewBox="0 0 1000 1000" fill="none" xmlns="http://www.w3.org/2000/svg">
<rect x="188" y="377" width="623" height="623" rx="64" fill="#333333"/>
<path d="M500.012 371.728C600.27 371.728 681.545 289.918 681.545 189.001C681.545 88.0831 600.27 6.27344 500.012 6.27344C399.754 6.27344 318.479 88.0831 318.479 189.001C318.479 289.918 399.754 371.728 500.012 371.728Z" fill="#333333"/>
<path d="M774.5 217.024C774.5 266.539 734.746 299.5 685.086 299.5H314.901C265.352 299.5 225.5 262.402 225.5 217.024V160.976C225.5 115.598 265.352 78.5 314.901 78.5H685.086C734.661 78.5 774.5 115.598 774.5 160.976V217.024Z" fill="#333333" stroke="white" stroke-width="5"/>
<path d="M414.728 128.084H381.399L371.203 199.457L358.546 128.425H328.603L315.617 199.457L305.75 128.425H271.787L300.183 249.902H330.138L343.099 175.033L356.365 249.902H386.625L414.728 128.084Z" fill="white"/>
<path d="M439.094 164.627H469.646V249.9H439.094V164.627Z" fill="white"/>
<path d="M469.543 137.174C469.625 139.225 469.292 141.272 468.564 143.191C467.835 145.11 466.727 146.862 465.305 148.342C463.883 149.822 462.176 151 460.288 151.804C458.4 152.608 456.368 153.023 454.316 153.023C452.263 153.023 450.232 152.608 448.343 151.804C446.455 151 444.749 149.822 443.326 148.342C441.904 146.862 440.796 145.11 440.068 143.191C439.339 141.272 439.006 139.225 439.088 137.174C439.088 128.696 445.91 121.85 454.316 121.85C462.721 121.85 469.543 128.696 469.543 137.174Z" fill="white"/>
<path d="M677.387 91.5391H580.189C580.189 91.5391 512.19 93.8901 512.19 163.582V216.403C512.19 216.403 513.42 252.229 475.645 286.448H680.116C680.116 286.448 743.644 286.448 743.644 218.802V159.367C743.644 159.367 740.867 91.5391 677.387 91.5391ZM662.501 156.943H593.662V184.182H655.716V212.736H593.662V249.903H560.917V128.084H662.501V156.943ZM697.962 121.86C706.356 121.86 713.19 128.706 713.19 137.184C713.19 145.626 706.356 152.448 697.962 152.448C689.569 152.448 682.735 145.626 682.735 137.184C682.735 128.706 689.569 121.86 697.962 121.86ZM713.287 249.903H682.735V164.63H713.287V249.903Z" fill="white"/>
<rect x="223" y="412" width="554" height="554" rx="41" fill="white"/>
<path d="M627.422 450.779H738.222V561.579" stroke="#C2C2C2" stroke-width="22.16"/>
<path d="M372.58 450.779H261.78V561.579" stroke="#C2C2C2" stroke-width="22.16"/>
<path d="M627.422 927.219H738.222V816.419" stroke="#C2C2C2" stroke-width="22.16"/>
<path d="M372.58 927.219H261.78V816.419" stroke="#C2C2C2" stroke-width="22.16"/>
<path d="M368.279 643.958L359.11 617.273L349.365 643.958H368.279ZM354.833 608.31H364.085L386 668.711H377.037L370.91 650.619H347.021L340.483 668.711H332.096L354.833 608.31ZM397.143 647.207C397.143 651.921 398.143 655.869 400.145 659.048C402.146 662.228 405.353 663.818 409.766 663.818C413.192 663.818 416.002 662.351 418.195 659.418C420.415 656.458 421.525 652.223 421.525 646.713C421.525 641.149 420.388 637.037 418.113 634.378C415.838 631.692 413.028 630.349 409.684 630.349C405.956 630.349 402.927 631.774 400.597 634.625C398.294 637.476 397.143 641.67 397.143 647.207ZM408.286 623.893C411.657 623.893 414.481 624.606 416.756 626.031C418.072 626.854 419.566 628.293 421.238 630.349V608.104H428.351V668.711H421.69V662.584C419.963 665.298 417.921 667.258 415.563 668.464C413.206 669.67 410.506 670.273 407.463 670.273C402.557 670.273 398.308 668.218 394.717 664.106C391.126 659.967 389.331 654.471 389.331 647.618C389.331 641.204 390.962 635.653 394.224 630.965C397.513 626.251 402.2 623.893 408.286 623.893ZM444.017 647.207C444.017 651.921 445.017 655.869 447.018 659.048C449.019 662.228 452.226 663.818 456.64 663.818C460.066 663.818 462.876 662.351 465.069 659.418C467.289 656.458 468.399 652.223 468.399 646.713C468.399 641.149 467.261 637.037 464.986 634.378C462.711 631.692 459.902 630.349 456.557 630.349C452.829 630.349 449.8 631.774 447.47 634.625C445.168 637.476 444.017 641.67 444.017 647.207ZM455.159 623.893C458.531 623.893 461.354 624.606 463.629 626.031C464.945 626.854 466.439 628.293 468.111 630.349V608.104H475.225V668.711H468.564V662.584C466.837 665.298 464.794 667.258 462.437 668.464C460.08 669.67 457.38 670.273 454.337 670.273C449.43 670.273 445.182 668.218 441.591 664.106C438 659.967 436.204 654.471 436.204 647.618C436.204 641.204 437.835 635.653 441.097 630.965C444.387 626.251 449.074 623.893 455.159 623.893ZM537.147 624.674H545.329C544.288 627.498 541.971 633.939 538.381 644C535.694 651.565 533.446 657.733 531.637 662.502C527.361 673.741 524.346 680.594 522.592 683.061C520.837 685.528 517.822 686.761 513.546 686.761C512.504 686.761 511.695 686.72 511.12 686.638C510.572 686.556 509.886 686.405 509.064 686.186V679.443C510.352 679.799 511.284 680.018 511.86 680.1C512.436 680.183 512.943 680.224 513.381 680.224C514.752 680.224 515.752 679.991 516.383 679.525C517.041 679.086 517.589 678.538 518.028 677.88C518.165 677.661 518.658 676.537 519.508 674.508C520.357 672.48 520.974 670.972 521.358 669.986L505.076 624.674H513.463L525.264 660.529L537.147 624.674ZM569.218 663.941C574.125 663.941 577.483 662.091 579.292 658.391C581.129 654.663 582.047 650.523 582.047 645.973C582.047 641.861 581.389 638.517 580.073 635.941C577.99 631.884 574.399 629.855 569.301 629.855C564.778 629.855 561.488 631.582 559.433 635.036C557.377 638.49 556.349 642.656 556.349 647.536C556.349 652.223 557.377 656.129 559.433 659.254C561.488 662.379 564.75 663.941 569.218 663.941ZM569.506 623.4C575.18 623.4 579.977 625.291 583.897 629.074C587.817 632.857 589.777 638.421 589.777 645.768C589.777 652.867 588.05 658.733 584.596 663.366C581.142 667.998 575.783 670.315 568.519 670.315C562.461 670.315 557.651 668.272 554.087 664.188C550.524 660.076 548.742 654.567 548.742 647.659C548.742 640.258 550.62 634.364 554.375 629.979C558.13 625.593 563.174 623.4 569.506 623.4ZM606.018 624.674V653.909C606.018 656.156 606.375 657.993 607.087 659.418C608.403 662.05 610.856 663.366 614.447 663.366C619.601 663.366 623.109 661.063 624.973 656.458C625.988 653.991 626.495 650.606 626.495 646.302V624.674H633.896V668.711H626.906L626.988 662.214C626.029 663.887 624.836 665.298 623.411 666.449C620.587 668.752 617.161 669.903 613.132 669.903C606.854 669.903 602.578 667.806 600.303 663.612C599.069 661.365 598.453 658.363 598.453 654.608V624.674H606.018ZM645.696 624.674H652.727V632.281C653.303 630.801 654.715 629.005 656.962 626.895C659.21 624.757 661.801 623.688 664.734 623.688C664.871 623.688 665.104 623.701 665.433 623.729C665.762 623.756 666.324 623.811 667.118 623.893V631.705C666.68 631.623 666.269 631.568 665.885 631.541C665.529 631.514 665.131 631.5 664.693 631.5C660.965 631.5 658.1 632.706 656.099 635.118C654.098 637.503 653.097 640.258 653.097 643.383V668.711H645.696V624.674Z" fill="#C2C2C2"/>
<path d="M369.023 768.511C366.309 769.415 363.061 769.867 359.278 769.867C351.384 769.867 344.86 767.51 339.707 762.795C333.457 757.121 330.332 748.788 330.332 737.796C330.332 726.722 333.539 718.348 339.953 712.673C345.189 708.041 351.699 705.725 359.484 705.725C367.324 705.725 373.902 708.178 379.22 713.085C385.36 718.759 388.431 726.694 388.431 736.891C388.431 742.292 387.773 746.814 386.457 750.46C385.388 753.941 383.812 756.833 381.728 759.136L388.718 765.673L382.098 772.581L374.78 765.673C372.559 767.017 370.64 767.962 369.023 768.511ZM366.309 757.573L360.183 751.735L366.721 744.909L372.847 750.748C373.806 748.774 374.478 747.047 374.862 745.567C375.465 743.347 375.766 740.756 375.766 737.796C375.766 730.998 374.368 725.749 371.572 722.048C368.804 718.32 364.747 716.456 359.402 716.456C354.385 716.456 350.383 718.238 347.396 721.801C344.408 725.365 342.914 730.696 342.914 737.796C342.914 746.102 345.052 752.05 349.328 755.641C352.097 757.971 355.413 759.136 359.278 759.136C360.731 759.136 362.129 758.958 363.472 758.601C364.212 758.409 365.158 758.067 366.309 757.573ZM423.874 744.416H410.798V768.182H398.422V707.575H428.15C432.398 707.657 435.66 708.178 437.936 709.137C440.238 710.097 442.184 711.508 443.774 713.372C445.09 714.907 446.132 716.607 446.899 718.471C447.667 720.335 448.05 722.459 448.05 724.844C448.05 727.722 447.324 730.559 445.871 733.355C444.418 736.124 442.02 738.084 438.676 739.235C441.472 740.359 443.445 741.963 444.597 744.046C445.775 746.102 446.365 749.254 446.365 753.503V757.573C446.365 760.342 446.474 762.22 446.694 763.206C447.023 764.769 447.79 765.92 448.996 766.66V768.182H435.057C434.674 766.838 434.4 765.756 434.235 764.933C433.906 763.234 433.728 761.493 433.701 759.711L433.618 754.078C433.563 750.213 432.851 747.637 431.48 746.348C430.137 745.06 427.601 744.416 423.874 744.416ZM431.562 733.396C434.084 732.245 435.345 729.97 435.345 726.571C435.345 722.898 434.125 720.431 431.686 719.17C430.315 718.457 428.259 718.101 425.518 718.101H410.798V734.383H425.148C427.999 734.383 430.137 734.054 431.562 733.396ZM520.252 739.441H508.246C508.027 737.769 507.465 736.261 506.56 734.918C505.244 733.109 503.202 732.204 500.434 732.204C496.486 732.204 493.786 734.164 492.334 738.084C491.566 740.167 491.182 742.936 491.182 746.39C491.182 749.679 491.566 752.324 492.334 754.325C493.732 758.053 496.363 759.917 500.228 759.917C502.969 759.917 504.916 759.177 506.067 757.697C507.218 756.217 507.917 754.298 508.164 751.94H520.129C519.855 755.504 518.566 758.875 516.264 762.055C512.591 767.181 507.15 769.744 499.94 769.744C492.731 769.744 487.427 767.606 484.028 763.33C480.629 759.054 478.929 753.503 478.929 746.677C478.929 738.975 480.807 732.985 484.562 728.709C488.318 724.433 493.499 722.295 500.105 722.295C505.724 722.295 510.316 723.556 513.879 726.078C517.47 728.599 519.594 733.054 520.252 739.441ZM565.728 729.038C569.511 733.78 571.402 739.386 571.402 745.855C571.402 752.434 569.511 758.067 565.728 762.754C561.945 767.414 556.202 769.744 548.5 769.744C540.797 769.744 535.054 767.414 531.272 762.754C527.489 758.067 525.597 752.434 525.597 745.855C525.597 739.386 527.489 733.78 531.272 729.038C535.054 724.296 540.797 721.925 548.5 721.925C556.202 721.925 561.945 724.296 565.728 729.038ZM548.459 731.834C545.032 731.834 542.387 733.054 540.523 735.493C538.686 737.906 537.768 741.36 537.768 745.855C537.768 750.35 538.686 753.818 540.523 756.258C542.387 758.697 545.032 759.917 548.459 759.917C551.885 759.917 554.517 758.697 556.353 756.258C558.19 753.818 559.108 750.35 559.108 745.855C559.108 741.36 558.19 737.906 556.353 735.493C554.517 733.054 551.885 731.834 548.459 731.834ZM620.619 707.657V768.182H609.23V761.973C607.558 764.632 605.653 766.564 603.515 767.77C601.376 768.977 598.718 769.58 595.538 769.58C590.302 769.58 585.889 767.469 582.298 763.248C578.735 758.999 576.953 753.558 576.953 746.924C576.953 739.276 578.707 733.259 582.216 728.874C585.752 724.488 590.467 722.295 596.36 722.295C599.074 722.295 601.486 722.898 603.597 724.104C605.707 725.283 607.421 726.927 608.736 729.038V707.657H620.619ZM589.041 746.061C589.041 750.2 589.864 753.503 591.508 755.97C593.126 758.464 595.593 759.711 598.909 759.711C602.226 759.711 604.748 758.478 606.475 756.011C608.202 753.544 609.065 750.35 609.065 746.431C609.065 740.948 607.681 737.029 604.913 734.671C603.213 733.246 601.239 732.533 598.992 732.533C595.565 732.533 593.043 733.835 591.426 736.439C589.836 739.016 589.041 742.223 589.041 746.061ZM669.672 755.024C669.371 757.683 667.986 760.383 665.519 763.124C661.682 767.483 656.309 769.662 649.401 769.662C643.7 769.662 638.67 767.825 634.311 764.152C629.953 760.479 627.774 754.503 627.774 746.225C627.774 738.468 629.734 732.519 633.653 728.38C637.601 724.241 642.713 722.172 648.99 722.172C652.718 722.172 656.076 722.87 659.064 724.268C662.052 725.666 664.519 727.873 666.465 730.888C668.219 733.547 669.357 736.631 669.878 740.14C670.179 742.196 670.303 745.156 670.248 749.021H639.574C639.739 753.517 641.15 756.669 643.809 758.478C645.427 759.602 647.373 760.164 649.648 760.164C652.06 760.164 654.02 759.479 655.528 758.108C656.35 757.368 657.077 756.34 657.707 755.024H669.672ZM658.077 741.291C657.885 738.194 656.939 735.85 655.24 734.26C653.568 732.643 651.485 731.834 648.99 731.834C646.276 731.834 644.166 732.684 642.658 734.383C641.178 736.083 640.246 738.385 639.862 741.291H658.077Z" fill="#C2C2C2"/>
</svg>
