<svg width="1000" height="1001" viewBox="0 0 1000 1001" fill="none" xmlns="http://www.w3.org/2000/svg">
<circle cx="500" cy="567.052" r="433.947" fill="#333333"/>
<circle cx="500.001" cy="567.053" r="361.442" fill="white"/>
<rect x="240.281" y="307.334" width="519.438" height="519.438" rx="38.4421" fill="white"/>
<path d="M619.471 343.693H723.358V447.581" stroke="#C2C2C2" stroke-width="20.7775"/>
<path d="M380.527 343.693H276.64V447.581" stroke="#C2C2C2" stroke-width="20.7775"/>
<path d="M619.471 790.408H723.358V686.521" stroke="#C2C2C2" stroke-width="20.7775"/>
<path d="M380.527 790.408H276.64V686.521" stroke="#C2C2C2" stroke-width="20.7775"/>
<path d="M376.497 524.501L367.9 499.48L358.763 524.501H376.497ZM363.89 491.076H372.565L393.113 547.709H384.708L378.964 530.746H356.565L350.436 547.709H342.571L363.89 491.076ZM403.56 527.546C403.56 531.967 404.499 535.668 406.375 538.649C408.251 541.631 411.258 543.121 415.396 543.121C418.609 543.121 421.243 541.746 423.299 538.996C425.381 536.22 426.422 532.25 426.422 527.084C426.422 521.866 425.355 518.011 423.222 515.518C421.089 512.999 418.454 511.74 415.319 511.74C411.823 511.74 408.983 513.076 406.799 515.749C404.64 518.422 403.56 522.355 403.56 527.546ZM414.008 505.687C417.169 505.687 419.817 506.356 421.95 507.692C423.183 508.463 424.584 509.812 426.152 511.74V490.883H432.821V547.709H426.576V541.965C424.957 544.509 423.042 546.347 420.832 547.478C418.621 548.609 416.09 549.174 413.237 549.174C408.636 549.174 404.653 547.246 401.286 543.391C397.919 539.51 396.236 534.357 396.236 527.932C396.236 521.918 397.765 516.713 400.823 512.318C403.907 507.898 408.302 505.687 414.008 505.687ZM447.51 527.546C447.51 531.967 448.448 535.668 450.324 538.649C452.2 541.631 455.207 543.121 459.345 543.121C462.558 543.121 465.192 541.746 467.248 538.996C469.33 536.22 470.371 532.25 470.371 527.084C470.371 521.866 469.304 518.011 467.171 515.518C465.038 512.999 462.404 511.74 459.268 511.74C455.773 511.74 452.933 513.076 450.748 515.749C448.589 518.422 447.51 522.355 447.51 527.546ZM457.957 505.687C461.119 505.687 463.766 506.356 465.899 507.692C467.133 508.463 468.533 509.812 470.101 511.74V490.883H476.771V547.709H470.525V541.965C468.906 544.509 466.991 546.347 464.781 547.478C462.571 548.609 460.039 549.174 457.186 549.174C452.586 549.174 448.602 547.246 445.235 543.391C441.868 539.51 440.185 534.357 440.185 527.932C440.185 521.918 441.714 516.713 444.773 512.318C447.857 507.898 452.252 505.687 457.957 505.687ZM534.83 506.42H542.502C541.525 509.067 539.354 515.107 535.987 524.539C533.468 531.633 531.36 537.416 529.664 541.888C525.655 552.425 522.828 558.851 521.183 561.164C519.538 563.477 516.711 564.633 512.701 564.633C511.725 564.633 510.966 564.595 510.427 564.518C509.913 564.441 509.27 564.299 508.499 564.094V557.771C509.707 558.105 510.581 558.311 511.121 558.388C511.66 558.465 512.136 558.504 512.547 558.504C513.832 558.504 514.77 558.285 515.361 557.848C515.978 557.437 516.492 556.923 516.903 556.306C517.032 556.1 517.495 555.047 518.291 553.145C519.088 551.243 519.666 549.829 520.026 548.904L504.759 506.42H512.624L523.689 540.037L534.83 506.42ZM564.901 543.237C569.501 543.237 572.65 541.502 574.346 538.032C576.068 534.537 576.929 530.656 576.929 526.39C576.929 522.535 576.312 519.399 575.078 516.983C573.125 513.179 569.758 511.277 564.978 511.277C560.737 511.277 557.653 512.897 555.725 516.135C553.798 519.373 552.834 523.28 552.834 527.855C552.834 532.25 553.798 535.912 555.725 538.842C557.653 541.772 560.711 543.237 564.901 543.237ZM565.171 505.225C570.491 505.225 574.988 506.998 578.664 510.545C582.339 514.092 584.177 519.309 584.177 526.197C584.177 532.854 582.557 538.354 579.319 542.697C576.081 547.041 571.056 549.213 564.245 549.213C558.565 549.213 554.055 547.298 550.714 543.468C547.372 539.613 545.702 534.447 545.702 527.97C545.702 521.031 547.462 515.505 550.983 511.393C554.504 507.281 559.234 505.225 565.171 505.225ZM599.405 506.42V533.83C599.405 535.938 599.739 537.66 600.407 538.996C601.641 541.464 603.941 542.697 607.308 542.697C612.14 542.697 615.43 540.538 617.177 536.22C618.128 533.907 618.604 530.733 618.604 526.698V506.42H625.543V547.709H618.989L619.066 541.618C618.167 543.186 617.049 544.509 615.712 545.589C613.065 547.748 609.852 548.827 606.074 548.827C600.189 548.827 596.179 546.861 594.046 542.929C592.889 540.821 592.311 538.007 592.311 534.486V506.42H599.405ZM636.607 506.42H643.2V513.552C643.74 512.164 645.063 510.481 647.171 508.502C649.278 506.497 651.707 505.495 654.457 505.495C654.586 505.495 654.804 505.507 655.112 505.533C655.421 505.559 655.948 505.61 656.693 505.687V513.012C656.282 512.935 655.896 512.884 655.536 512.858C655.202 512.832 654.83 512.819 654.418 512.819C650.923 512.819 648.237 513.95 646.361 516.212C644.485 518.448 643.547 521.031 643.547 523.961V547.709H636.607V506.42Z" fill="#C2C2C2"/>
<path d="M377.195 641.283C374.651 642.131 371.605 642.555 368.059 642.555C360.657 642.555 354.54 640.345 349.708 635.924C343.848 630.604 340.918 622.791 340.918 612.485C340.918 602.101 343.925 594.25 349.939 588.929C354.848 584.586 360.952 582.414 368.251 582.414C375.602 582.414 381.77 584.714 386.756 589.315C392.513 594.635 395.392 602.076 395.392 611.637C395.392 616.7 394.775 620.94 393.541 624.359C392.539 627.623 391.061 630.334 389.108 632.493L395.662 638.623L389.455 645.1L382.593 638.623C380.511 639.882 378.712 640.769 377.195 641.283ZM374.651 631.028L368.907 625.554L375.037 619.154L380.781 624.629C381.68 622.778 382.31 621.159 382.67 619.771C383.235 617.689 383.518 615.26 383.518 612.485C383.518 606.111 382.207 601.189 379.586 597.719C376.99 594.224 373.186 592.476 368.174 592.476C363.471 592.476 359.719 594.147 356.917 597.488C354.116 600.829 352.715 605.828 352.715 612.485C352.715 620.272 354.72 625.849 358.729 629.216C361.325 631.401 364.435 632.493 368.059 632.493C369.421 632.493 370.732 632.326 371.991 631.992C372.685 631.812 373.572 631.491 374.651 631.028ZM428.624 618.692H416.364V640.975H404.76V584.149H432.633C436.617 584.226 439.675 584.714 441.809 585.614C443.968 586.513 445.792 587.837 447.283 589.585C448.517 591.024 449.493 592.618 450.213 594.365C450.933 596.113 451.292 598.105 451.292 600.341C451.292 603.039 450.611 605.7 449.249 608.321C447.887 610.917 445.638 612.755 442.503 613.834C445.124 614.888 446.975 616.391 448.054 618.345C449.159 620.272 449.712 623.228 449.712 627.212V631.028C449.712 633.624 449.815 635.385 450.02 636.31C450.329 637.775 451.048 638.854 452.179 639.548V640.975H439.11C438.75 639.715 438.493 638.7 438.339 637.929C438.031 636.336 437.863 634.703 437.838 633.033L437.761 627.751C437.709 624.127 437.041 621.711 435.756 620.503C434.497 619.296 432.119 618.692 428.624 618.692ZM435.833 608.36C438.198 607.28 439.38 605.147 439.38 601.96C439.38 598.516 438.236 596.203 435.949 595.021C434.664 594.352 432.736 594.018 430.166 594.018H416.364V609.285H429.819C432.492 609.285 434.497 608.976 435.833 608.36ZM518.99 614.027H507.733C507.527 612.459 507 611.045 506.152 609.786C504.918 608.09 503.004 607.242 500.408 607.242C496.707 607.242 494.175 609.079 492.813 612.755C492.093 614.708 491.734 617.304 491.734 620.542C491.734 623.626 492.093 626.106 492.813 627.983C494.124 631.478 496.591 633.226 500.215 633.226C502.785 633.226 504.61 632.532 505.689 631.144C506.769 629.756 507.424 627.957 507.656 625.747H518.874C518.617 629.088 517.409 632.249 515.25 635.23C511.806 640.037 506.705 642.44 499.945 642.44C493.186 642.44 488.212 640.435 485.025 636.425C481.838 632.416 480.245 627.212 480.245 620.812C480.245 613.59 482.006 607.974 485.527 603.965C489.048 599.955 493.905 597.951 500.099 597.951C505.368 597.951 509.673 599.133 513.014 601.497C516.381 603.862 518.373 608.038 518.99 614.027ZM561.628 604.273C565.175 608.719 566.949 613.975 566.949 620.041C566.949 626.209 565.175 631.491 561.628 635.886C558.082 640.255 552.697 642.44 545.475 642.44C538.253 642.44 532.869 640.255 529.322 635.886C525.775 631.491 524.002 626.209 524.002 620.041C524.002 613.975 525.775 608.719 529.322 604.273C532.869 599.827 538.253 597.604 545.475 597.604C552.697 597.604 558.082 599.827 561.628 604.273ZM545.437 606.895C542.224 606.895 539.744 608.038 537.996 610.326C536.274 612.587 535.413 615.826 535.413 620.041C535.413 624.256 536.274 627.507 537.996 629.795C539.744 632.082 542.224 633.226 545.437 633.226C548.649 633.226 551.117 632.082 552.838 629.795C554.56 627.507 555.421 624.256 555.421 620.041C555.421 615.826 554.56 612.587 552.838 610.326C551.117 608.038 548.649 606.895 545.437 606.895ZM613.095 584.226V640.975H602.416V635.153C600.849 637.646 599.062 639.458 597.058 640.589C595.053 641.72 592.56 642.285 589.579 642.285C584.67 642.285 580.532 640.306 577.165 636.348C573.824 632.365 572.153 627.263 572.153 621.043C572.153 613.873 573.798 608.231 577.088 604.119C580.403 600.007 584.824 597.951 590.35 597.951C592.894 597.951 595.156 598.516 597.135 599.647C599.114 600.752 600.72 602.294 601.954 604.273V584.226H613.095ZM583.487 620.234C583.487 624.115 584.258 627.212 585.8 629.525C587.317 631.863 589.63 633.033 592.74 633.033C595.85 633.033 598.214 631.876 599.833 629.563C601.453 627.25 602.262 624.256 602.262 620.581C602.262 615.44 600.964 611.765 598.368 609.555C596.775 608.218 594.924 607.55 592.817 607.55C589.604 607.55 587.24 608.771 585.723 611.212C584.233 613.628 583.487 616.635 583.487 620.234ZM659.088 628.638C658.805 631.131 657.507 633.663 655.194 636.233C651.596 640.319 646.558 642.362 640.082 642.362C634.736 642.362 630.02 640.64 625.933 637.197C621.847 633.753 619.803 628.15 619.803 620.388C619.803 613.114 621.641 607.537 625.316 603.656C629.017 599.775 633.811 597.835 639.696 597.835C643.192 597.835 646.34 598.49 649.141 599.801C651.943 601.112 654.256 603.181 656.081 606.008C657.726 608.501 658.792 611.392 659.281 614.682C659.563 616.61 659.679 619.385 659.628 623.009H630.868C631.022 627.224 632.346 630.18 634.839 631.876C636.355 632.93 638.18 633.457 640.313 633.457C642.575 633.457 644.412 632.814 645.826 631.529C646.597 630.835 647.278 629.872 647.869 628.638H659.088ZM648.216 615.762C648.036 612.857 647.15 610.66 645.556 609.169C643.988 607.653 642.035 606.895 639.696 606.895C637.152 606.895 635.173 607.691 633.759 609.285C632.371 610.878 631.497 613.037 631.138 615.762H648.216Z" fill="#C2C2C2"/>
<path d="M173.145 265.563L94.1895 187.846L143.563 137.686L154.625 148.575L118.756 185.016L142.235 208.128L173.515 176.352L184.47 187.134L153.19 218.91L186.648 251.843L173.145 265.563ZM824.8 254.496L811.546 240.639L891.606 164.061L904.86 177.916L824.8 254.496ZM234.558 205.689L173.509 113.24L206.018 91.7717C216.685 84.7279 226.498 81.6838 235.456 82.6372C244.414 83.5905 251.882 88.5977 257.864 97.6565C261.945 103.837 263.871 109.995 263.641 116.136C263.409 122.276 261.367 128.23 257.516 133.996L303.73 158.826L304.275 159.65L287.067 171.013L245.005 147.637L227.098 159.46L250.621 195.08L234.558 205.689ZM760.372 196.712L745.154 184.921L813.005 97.3437L868.643 140.448L859.136 152.72L818.715 121.405L798.537 147.449L833.786 174.756L824.372 186.908L789.124 159.599L760.372 196.712ZM317.339 154.501L277.339 51.1884L344.393 25.2274L349.996 39.7034L300.895 58.7138L311.939 87.2385L354.372 70.8091L359.865 85.0028L317.434 101.429L329.742 133.217L379.339 114.016L384.89 128.348L317.339 154.501ZM678.976 149.898L661.253 142.579L703.551 40.1839L721.272 47.5048L678.976 149.898ZM218.587 146.569L235.097 135.67C240.515 132.092 243.847 127.93 245.092 123.187C246.336 118.444 245.392 113.703 242.262 108.962C238.991 104.01 235.054 101.109 230.451 100.258C225.846 99.4085 220.722 100.785 215.079 104.391L198.126 115.584L218.587 146.569ZM749.392 141.537L714.37 122.322L721.543 109.248L756.566 128.462L749.392 141.537ZM622.935 127.942L604.826 124.615L598.703 41.2574L562.916 116.92L544.73 113.58L539.594 0L558.378 3.44886L560.256 88.4267L596.097 10.3758L611.962 13.2879L617.48 99.0893L649.307 20.1445L668.09 23.5933L622.935 127.942ZM400.41 124.831L382.218 15.5474L453.146 3.74104L455.694 19.0515L403.755 27.6979L408.779 57.8697L453.663 50.3985L456.162 65.4113L411.278 72.8825L416.876 106.509L469.34 97.7744L471.864 112.936L400.41 124.831Z" fill="#333333"/>
</svg>
