<svg width="1000" height="1000" viewBox="0 0 1000 1000" fill="none" xmlns="http://www.w3.org/2000/svg">
<path d="M907.147 196.051C915.301 190.365 926.556 192.348 931.898 200.731C977.739 272.66 1001.44 356.636 999.816 442.18C998.193 527.725 971.323 610.742 922.787 680.879C917.13 689.054 905.808 690.608 897.875 684.617L891.974 680.161C884.041 674.17 882.505 662.904 888.124 654.703C931.162 591.893 954.979 517.745 956.429 441.357C957.879 364.969 936.892 289.971 896.267 225.573C890.963 217.165 892.926 205.966 901.081 200.28L907.147 196.051Z" fill="#333333"/>
<path d="M848.927 230.027C855.723 225.289 865.1 226.941 869.56 233.922C908.954 295.584 929.325 367.617 927.932 440.997C926.54 514.378 903.451 585.586 861.746 645.709C857.024 652.516 847.591 653.811 840.98 648.819L835.27 644.507C828.66 639.515 827.378 630.126 832.069 623.298C869.066 569.448 889.541 505.833 890.785 440.292C892.029 374.751 873.982 310.406 839.055 255.191C834.626 248.19 836.263 238.857 843.058 234.118L848.927 230.027Z" fill="#333333"/>
<path d="M92.7478 196.051C84.5932 190.365 73.3389 192.348 67.9962 200.731C22.1556 272.66 -1.54476 356.636 0.0786031 442.18C1.70196 527.725 28.5713 610.742 77.1078 680.879C82.7648 689.054 94.0862 690.608 102.019 684.617L107.92 680.161C115.853 674.17 117.39 662.904 111.771 654.703C68.7321 591.893 44.9151 517.745 43.4655 441.357C42.0159 364.969 63.0026 289.971 103.627 225.573C108.931 217.165 106.968 205.966 98.8137 200.28L92.7478 196.051Z" fill="#333333"/>
<path d="M150.968 230.027C144.172 225.289 134.794 226.941 130.334 233.922C90.9407 295.584 70.5696 367.617 71.9621 440.997C73.3546 514.378 96.4439 585.586 138.149 645.709C142.87 652.516 152.304 653.811 158.915 648.819L164.624 644.507C171.235 639.515 172.516 630.126 167.825 623.298C130.829 569.448 110.354 505.833 109.11 440.292C107.866 374.751 125.913 310.406 160.84 255.191C165.268 248.19 163.632 238.857 156.836 234.118L150.968 230.027Z" fill="#333333"/>
<circle cx="500" cy="434" r="356" fill="#333333"/>
<rect x="260.438" y="194.438" width="478.562" height="478.562" rx="35.417" fill="white"/>
<path d="M609.789 227.936H705.501V323.648" stroke="#C2C2C2" stroke-width="19.1425"/>
<path d="M389.648 227.936H293.936V323.648" stroke="#C2C2C2" stroke-width="19.1425"/>
<path d="M609.789 639.498H705.501V543.786" stroke="#C2C2C2" stroke-width="19.1425"/>
<path d="M389.648 639.498H293.936V543.786" stroke="#C2C2C2" stroke-width="19.1425"/>
<path d="M385.935 395.024L378.014 371.973L369.597 395.024H385.935ZM374.321 364.23H382.312L401.243 416.406H393.5L388.208 400.778H367.572L361.925 416.406H354.679L374.321 364.23ZM410.869 397.83C410.869 401.903 411.733 405.313 413.462 408.059C415.19 410.806 417.961 412.18 421.773 412.18C424.733 412.18 427.16 410.913 429.054 408.379C430.972 405.822 431.931 402.163 431.931 397.404C431.931 392.597 430.949 389.045 428.983 386.748C427.018 384.428 424.591 383.268 421.702 383.268C418.482 383.268 415.865 384.499 413.852 386.962C411.863 389.424 410.869 393.047 410.869 397.83ZM420.494 377.691C423.407 377.691 425.846 378.307 427.811 379.538C428.948 380.249 430.238 381.492 431.683 383.268V364.052H437.827V416.406H432.073V411.114C430.582 413.458 428.817 415.151 426.781 416.193C424.745 417.235 422.412 417.756 419.784 417.756C415.545 417.756 411.875 415.98 408.773 412.428C405.671 408.853 404.12 404.105 404.12 398.185C404.12 392.645 405.529 387.85 408.347 383.8C411.189 379.728 415.238 377.691 420.494 377.691ZM451.36 397.83C451.36 401.903 452.224 405.313 453.953 408.059C455.681 410.806 458.452 412.18 462.264 412.18C465.224 412.18 467.651 410.913 469.545 408.379C471.463 405.822 472.422 402.163 472.422 397.404C472.422 392.597 471.439 389.045 469.474 386.748C467.509 384.428 465.082 383.268 462.193 383.268C458.973 383.268 456.356 384.499 454.343 386.962C452.354 389.424 451.36 393.047 451.36 397.83ZM460.985 377.691C463.898 377.691 466.337 378.307 468.302 379.538C469.439 380.249 470.729 381.492 472.173 383.268V364.052H478.318V416.406H472.564V411.114C471.072 413.458 469.308 415.151 467.272 416.193C465.236 417.235 462.903 417.756 460.275 417.756C456.036 417.756 452.366 415.98 449.264 412.428C446.162 408.853 444.611 404.105 444.611 398.185C444.611 392.645 446.02 387.85 448.838 383.8C451.679 379.728 455.729 377.691 460.985 377.691ZM531.809 378.366H538.877C537.977 380.805 535.976 386.37 532.874 395.06C530.554 401.595 528.612 406.923 527.049 411.043C523.355 420.751 520.751 426.671 519.235 428.802C517.72 430.933 515.115 431.999 511.421 431.999C510.521 431.999 509.823 431.963 509.326 431.892C508.852 431.821 508.26 431.691 507.55 431.502V425.677C508.663 425.984 509.468 426.174 509.965 426.245C510.462 426.316 510.9 426.351 511.279 426.351C512.463 426.351 513.327 426.15 513.872 425.748C514.44 425.369 514.914 424.895 515.293 424.327C515.411 424.137 515.837 423.167 516.571 421.414C517.305 419.662 517.838 418.36 518.17 417.507L504.104 378.366H511.35L521.544 409.338L531.809 378.366ZM559.513 412.286C563.751 412.286 566.652 410.688 568.215 407.491C569.801 404.271 570.595 400.695 570.595 396.765C570.595 393.213 570.026 390.324 568.89 388.098C567.09 384.594 563.988 382.841 559.584 382.841C555.677 382.841 552.835 384.333 551.06 387.317C549.284 390.3 548.396 393.899 548.396 398.114C548.396 402.163 549.284 405.538 551.06 408.237C552.835 410.936 555.653 412.286 559.513 412.286ZM559.762 377.265C564.663 377.265 568.807 378.899 572.193 382.167C575.579 385.434 577.272 390.241 577.272 396.587C577.272 402.72 575.78 407.787 572.797 411.789C569.813 415.791 565.184 417.791 558.909 417.791C553.676 417.791 549.52 416.027 546.442 412.499C543.364 408.947 541.825 404.188 541.825 398.221C541.825 391.828 543.447 386.737 546.691 382.948C549.935 379.159 554.292 377.265 559.762 377.265ZM591.302 378.366V403.62C591.302 405.561 591.61 407.148 592.225 408.379C593.362 410.652 595.481 411.789 598.583 411.789C603.035 411.789 606.066 409.8 607.676 405.822C608.552 403.691 608.99 400.766 608.99 397.049V378.366H615.383V416.406H609.345L609.416 410.794C608.587 412.239 607.557 413.458 606.326 414.453C603.887 416.442 600.927 417.436 597.446 417.436C592.024 417.436 588.33 415.625 586.365 412.002C585.299 410.06 584.766 407.467 584.766 404.223V378.366H591.302ZM625.577 378.366H631.651V384.937C632.148 383.658 633.367 382.107 635.309 380.284C637.251 378.437 639.488 377.514 642.022 377.514C642.14 377.514 642.342 377.526 642.626 377.549C642.91 377.573 643.395 377.62 644.082 377.691V384.44C643.703 384.369 643.348 384.321 643.016 384.298C642.709 384.274 642.365 384.262 641.986 384.262C638.766 384.262 636.292 385.304 634.563 387.388C632.835 389.448 631.97 391.828 631.97 394.527V416.406H625.577V378.366Z" fill="#C2C2C2"/>
<path d="M386.671 498.954C384.327 499.735 381.521 500.126 378.253 500.126C371.434 500.126 365.798 498.09 361.346 494.017C355.948 489.116 353.248 481.917 353.248 472.422C353.248 462.856 356.019 455.622 361.559 450.72C366.082 446.719 371.706 444.718 378.431 444.718C385.203 444.718 390.886 446.837 395.479 451.075C400.783 455.977 403.435 462.832 403.435 471.641C403.435 476.305 402.867 480.212 401.731 483.362C400.807 486.369 399.446 488.867 397.646 490.856L403.684 496.503L397.966 502.47L391.643 496.503C389.725 497.664 388.068 498.48 386.671 498.954ZM384.327 489.506L379.034 484.463L384.682 478.567L389.974 483.61C390.803 481.905 391.383 480.414 391.714 479.135C392.235 477.217 392.496 474.979 392.496 472.422C392.496 466.55 391.288 462.015 388.873 458.818C386.481 455.598 382.977 453.988 378.36 453.988C374.026 453.988 370.569 455.527 367.988 458.605C365.407 461.684 364.117 466.289 364.117 472.422C364.117 479.597 365.964 484.735 369.658 487.837C372.049 489.85 374.914 490.856 378.253 490.856C379.508 490.856 380.716 490.702 381.876 490.394C382.515 490.228 383.332 489.932 384.327 489.506ZM434.052 478.14H422.757V498.67H412.066V446.316H437.746C441.416 446.387 444.234 446.837 446.199 447.666C448.189 448.494 449.87 449.714 451.243 451.324C452.38 452.65 453.279 454.118 453.942 455.728C454.605 457.338 454.937 459.174 454.937 461.234C454.937 463.72 454.31 466.171 453.055 468.586C451.8 470.977 449.728 472.671 446.839 473.665C449.254 474.636 450.959 476.021 451.953 477.821C452.972 479.597 453.481 482.32 453.481 485.99V489.506C453.481 491.898 453.575 493.52 453.765 494.372C454.049 495.722 454.712 496.716 455.754 497.356V498.67H443.713C443.382 497.51 443.145 496.574 443.003 495.864C442.719 494.396 442.565 492.892 442.541 491.353L442.47 486.487C442.423 483.148 441.807 480.923 440.623 479.81C439.463 478.697 437.273 478.14 434.052 478.14ZM440.694 468.621C442.873 467.627 443.962 465.662 443.962 462.725C443.962 459.552 442.908 457.421 440.801 456.332C439.617 455.716 437.841 455.409 435.473 455.409H422.757V469.474H435.153C437.616 469.474 439.463 469.19 440.694 468.621ZM517.307 473.843H506.936C506.746 472.398 506.261 471.096 505.48 469.936C504.343 468.373 502.579 467.591 500.187 467.591C496.778 467.591 494.445 469.284 493.19 472.671C492.527 474.47 492.196 476.862 492.196 479.845C492.196 482.687 492.527 484.972 493.19 486.7C494.398 489.921 496.671 491.531 500.01 491.531C502.378 491.531 504.059 490.891 505.053 489.613C506.048 488.334 506.652 486.677 506.865 484.64H517.201C516.964 487.718 515.851 490.631 513.862 493.378C510.689 497.806 505.989 500.02 499.761 500.02C493.534 500.02 488.952 498.173 486.015 494.479C483.079 490.785 481.611 485.99 481.611 480.094C481.611 473.44 483.233 468.266 486.477 464.572C489.721 460.878 494.197 459.032 499.903 459.032C504.757 459.032 508.724 460.121 511.802 462.299C514.904 464.478 516.739 468.325 517.307 473.843ZM556.59 464.857C559.858 468.953 561.492 473.795 561.492 479.383C561.492 485.066 559.858 489.932 556.59 493.982C553.323 498.007 548.362 500.02 541.708 500.02C535.054 500.02 530.094 498.007 526.826 493.982C523.558 489.932 521.924 485.066 521.924 479.383C521.924 473.795 523.558 468.953 526.826 464.857C530.094 460.76 535.054 458.712 541.708 458.712C548.362 458.712 553.323 460.76 556.59 464.857ZM541.673 467.272C538.713 467.272 536.428 468.325 534.818 470.433C533.231 472.517 532.438 475.5 532.438 479.383C532.438 483.267 533.231 486.262 534.818 488.37C536.428 490.477 538.713 491.531 541.673 491.531C544.633 491.531 546.906 490.477 548.492 488.37C550.079 486.262 550.872 483.267 550.872 479.383C550.872 475.5 550.079 472.517 548.492 470.433C546.906 468.325 544.633 467.272 541.673 467.272ZM604.007 446.387V498.67H594.169V493.307C592.724 495.604 591.079 497.273 589.232 498.315C587.385 499.357 585.088 499.878 582.341 499.878C577.818 499.878 574.006 498.054 570.904 494.408C567.826 490.738 566.287 486.037 566.287 480.307C566.287 473.701 567.802 468.503 570.833 464.714C573.888 460.926 577.96 459.032 583.051 459.032C585.396 459.032 587.479 459.552 589.303 460.594C591.126 461.613 592.606 463.033 593.742 464.857V446.387H604.007ZM576.729 479.561C576.729 483.137 577.44 485.99 578.86 488.121C580.257 490.276 582.388 491.353 585.254 491.353C588.119 491.353 590.297 490.288 591.789 488.157C593.281 486.025 594.027 483.267 594.027 479.881C594.027 475.145 592.831 471.759 590.439 469.723C588.971 468.491 587.266 467.876 585.325 467.876C582.365 467.876 580.186 469 578.789 471.25C577.416 473.476 576.729 476.246 576.729 479.561ZM646.381 487.304C646.12 489.601 644.924 491.933 642.793 494.301C639.478 498.066 634.837 499.949 628.87 499.949C623.945 499.949 619.6 498.362 615.835 495.189C612.07 492.016 610.187 486.854 610.187 479.703C610.187 473.002 611.88 467.864 615.267 464.288C618.676 460.713 623.092 458.925 628.515 458.925C631.735 458.925 634.636 459.529 637.217 460.736C639.798 461.944 641.929 463.85 643.61 466.455C645.126 468.752 646.108 471.416 646.558 474.446C646.819 476.222 646.925 478.78 646.878 482.118H620.381C620.523 486.002 621.743 488.725 624.04 490.288C625.437 491.258 627.118 491.744 629.083 491.744C631.167 491.744 632.86 491.152 634.162 489.968C634.873 489.329 635.5 488.441 636.045 487.304H646.381ZM636.364 475.441C636.199 472.765 635.382 470.741 633.914 469.367C632.469 467.97 630.67 467.272 628.515 467.272C626.171 467.272 624.347 468.006 623.045 469.474C621.766 470.942 620.961 472.931 620.63 475.441H636.364Z" fill="#C2C2C2"/>
<rect x="144" y="832" width="712" height="127" rx="50" fill="#333333"/>
<path d="M225.479 910.238H206.193L202.57 921H191.133L209.816 868.646H222.176L240.717 921H228.853L225.479 910.238ZM222.425 901.216L215.889 880.616L209.141 901.216H222.425ZM284.333 917.093C280.426 920.668 275.43 922.456 269.344 922.456C261.814 922.456 255.895 920.041 251.585 915.211C247.276 910.356 245.121 903.703 245.121 895.249C245.121 886.109 247.572 879.065 252.473 874.116C256.735 869.806 262.158 867.652 268.74 867.652C277.549 867.652 283.99 870.54 288.062 876.318C290.312 879.562 291.52 882.818 291.685 886.086H280.746C280.035 883.576 279.124 881.681 278.011 880.403C276.022 878.129 273.074 876.993 269.167 876.993C265.189 876.993 262.051 878.603 259.754 881.823C257.457 885.02 256.309 889.554 256.309 895.427C256.309 901.299 257.517 905.703 259.932 908.64C262.371 911.552 265.461 913.008 269.202 913.008C273.038 913.008 275.962 911.753 277.975 909.243C279.088 907.894 280.012 905.869 280.746 903.17H291.579C290.632 908.876 288.216 913.517 284.333 917.093ZM336.9 917.093C332.993 920.668 327.997 922.456 321.911 922.456C314.381 922.456 308.462 920.041 304.152 915.211C299.843 910.356 297.688 903.703 297.688 895.249C297.688 886.109 300.139 879.065 305.04 874.116C309.302 869.806 314.725 867.652 321.308 867.652C330.116 867.652 336.557 870.54 340.629 876.318C342.879 879.562 344.087 882.818 344.252 886.086H333.313C332.602 883.576 331.691 881.681 330.578 880.403C328.589 878.129 325.641 876.993 321.734 876.993C317.756 876.993 314.618 878.603 312.321 881.823C310.025 885.02 308.876 889.554 308.876 895.427C308.876 901.299 310.084 905.703 312.499 908.64C314.938 911.552 318.028 913.008 321.769 913.008C325.605 913.008 328.53 911.753 330.542 909.243C331.655 907.894 332.579 905.869 333.313 903.17H344.146C343.199 908.876 340.783 913.517 336.9 917.093ZM388.97 898.126H363.539V911.588H392.522V921H352.848V868.646H391.243V877.916H363.539V889.034H388.97V898.126ZM420.048 913.435C422.629 913.435 424.725 913.15 426.335 912.582C429.39 911.493 430.917 909.468 430.917 906.509C430.917 904.78 430.159 903.442 428.644 902.495C427.128 901.571 424.749 900.755 421.505 900.044L415.964 898.801C410.518 897.57 406.753 896.232 404.669 894.788C401.141 892.372 399.377 888.595 399.377 883.457C399.377 878.769 401.082 874.874 404.491 871.772C407.901 868.67 412.909 867.119 419.516 867.119C425.033 867.119 429.733 868.587 433.616 871.523C437.523 874.436 439.572 878.674 439.761 884.239H429.248C429.058 881.089 427.685 878.852 425.127 877.526C423.423 876.65 421.303 876.211 418.77 876.211C415.952 876.211 413.702 876.78 412.021 877.916C410.34 879.053 409.499 880.639 409.499 882.676C409.499 884.546 410.328 885.943 411.986 886.867C413.051 887.483 415.324 888.205 418.805 889.034L427.827 891.2C431.781 892.147 434.765 893.414 436.777 895.001C439.903 897.463 441.466 901.027 441.466 905.692C441.466 910.475 439.631 914.453 435.961 917.626C432.314 920.775 427.152 922.35 420.475 922.35C413.655 922.35 408.292 920.799 404.385 917.697C400.478 914.571 398.524 910.285 398.524 904.839H408.967C409.298 907.231 409.949 909.018 410.92 910.202C412.696 912.357 415.739 913.435 420.048 913.435ZM468.566 913.435C471.147 913.435 473.243 913.15 474.853 912.582C477.908 911.493 479.435 909.468 479.435 906.509C479.435 904.78 478.677 903.442 477.162 902.495C475.646 901.571 473.267 900.755 470.023 900.044L464.482 898.801C459.036 897.57 455.271 896.232 453.187 894.788C449.659 892.372 447.895 888.595 447.895 883.457C447.895 878.769 449.6 874.874 453.009 871.772C456.419 868.67 461.427 867.119 468.034 867.119C473.551 867.119 478.251 868.587 482.134 871.523C486.041 874.436 488.09 878.674 488.279 884.239H477.766C477.576 881.089 476.203 878.852 473.645 877.526C471.941 876.65 469.821 876.211 467.288 876.211C464.47 876.211 462.22 876.78 460.539 877.916C458.858 879.053 458.017 880.639 458.017 882.676C458.017 884.546 458.846 885.943 460.504 886.867C461.569 887.483 463.842 888.205 467.323 889.034L476.345 891.2C480.299 892.147 483.283 893.414 485.295 895.001C488.421 897.463 489.984 901.027 489.984 905.692C489.984 910.475 488.149 914.453 484.479 917.626C480.832 920.775 475.67 922.35 468.993 922.35C462.173 922.35 456.81 920.799 452.903 917.697C448.996 914.571 447.042 910.285 447.042 904.839H457.485C457.816 907.231 458.467 909.018 459.438 910.202C461.214 912.357 464.257 913.435 468.566 913.435ZM556.368 868.646V877.916H540.704V921H529.693V877.916H513.959V868.646H556.368ZM584.676 922.456C577.193 922.456 571.475 920.42 567.52 916.347C562.216 911.351 559.564 904.152 559.564 894.752C559.564 885.162 562.216 877.964 567.52 873.157C571.475 869.084 577.193 867.048 584.676 867.048C592.158 867.048 597.877 869.084 601.831 873.157C607.111 877.964 609.751 885.162 609.751 894.752C609.751 904.152 607.111 911.351 601.831 916.347C597.877 920.42 592.158 922.456 584.676 922.456ZM595.011 908.391C597.545 905.194 598.812 900.648 598.812 894.752C598.812 888.88 597.533 884.345 594.976 881.148C592.442 877.928 589.009 876.318 584.676 876.318C580.342 876.318 576.885 877.916 574.304 881.113C571.723 884.31 570.433 888.856 570.433 894.752C570.433 900.648 571.723 905.194 574.304 908.391C576.885 911.588 580.342 913.186 584.676 913.186C589.009 913.186 592.454 911.588 595.011 908.391ZM689.312 868.646H700.43L685.69 921H675.247L668.925 890.383L667.078 880.261L665.231 890.383L658.909 921H648.751L633.904 868.646H645.518L652.444 898.623L653.936 906.97L655.464 898.801L661.36 868.646H672.903L679.119 898.623L680.717 906.97L682.315 898.943L689.312 868.646ZM706.219 868.646H717.088V921H706.219V868.646ZM723.445 895.924H743.833V905.514H723.445V895.924ZM788.657 877.916H762.409V889.957H785.389V899.05H762.409V921H751.54V868.717H788.657V877.916ZM795.157 868.646H806.026V921H795.157V868.646Z" fill="white"/>
</svg>
