<svg width="550" height="1000" viewBox="0 0 550 1000" fill="none" xmlns="http://www.w3.org/2000/svg">
<g clip-path="url(#clip0_237:418)">
<rect x="275" y="106" width="390.323" height="390.323" rx="19" transform="rotate(45 275 106)" fill="#333333"/>
<path fill-rule="evenodd" clip-rule="evenodd" d="M7 417.072L7 875.999C7 880.97 11.0295 884.999 16 884.999H533C537.971 884.999 542 880.97 542 875.999V418.617C541.367 419.502 540.653 420.347 539.858 421.142L289.142 671.858C281.332 679.668 268.668 679.668 260.858 671.858L10.1419 421.142C8.89582 419.896 7.8485 418.526 7 417.072Z" fill="#333333"/>
<path d="M82.5996 743.695L90.1875 763.857L97.7573 743.695H103.665V770H99.1123V761.328L99.564 749.729L91.7954 770H88.5254L80.7749 749.748L81.2266 761.328V770H76.6738V743.695H82.5996ZM124.134 763.875H113.945L111.813 770H107.062L116.998 743.695H121.099L131.054 770H126.284L124.134 763.875ZM115.228 760.19H122.852L119.04 749.278L115.228 760.19ZM141.604 758.636L138.624 761.798V770H134.053V743.695H138.624V756.035L141.153 752.909L148.849 743.695H154.377L144.604 755.348L154.938 770H149.518L141.604 758.636ZM172.769 758.257H161.965V766.351H174.594V770H157.395V743.695H174.467V747.381H161.965V754.644H172.769V758.257ZM202.253 763.875H192.064L189.932 770H185.181L195.117 743.695H199.218L209.173 770H204.403L202.253 763.875ZM193.347 760.19H200.971L197.159 749.278L193.347 760.19ZM233.039 770H228.468L216.743 751.337V770H212.172V743.695H216.743L228.504 762.43V743.695H233.039V770ZM91.3979 806.875H81.2085L79.0767 813H74.3252L84.2617 786.695H88.3628L98.3174 813H93.5479L91.3979 806.875ZM82.4912 803.19H90.1152L86.3032 792.278L82.4912 803.19ZM105.887 803.226V813H101.316V786.695H111.379C114.318 786.695 116.649 787.46 118.371 788.99C120.105 790.519 120.973 792.543 120.973 795.06C120.973 797.638 120.124 799.643 118.425 801.076C116.739 802.509 114.372 803.226 111.325 803.226H105.887ZM105.887 799.559H111.379C113.005 799.559 114.246 799.179 115.101 798.42C115.956 797.65 116.384 796.542 116.384 795.096C116.384 793.675 115.95 792.543 115.083 791.7C114.216 790.845 113.023 790.405 111.506 790.381H105.887V799.559ZM129.554 803.226V813H124.983V786.695H135.046C137.985 786.695 140.316 787.46 142.038 788.99C143.772 790.519 144.64 792.543 144.64 795.06C144.64 797.638 143.791 799.643 142.092 801.076C140.406 802.509 138.039 803.226 134.992 803.226H129.554ZM129.554 799.559H135.046C136.672 799.559 137.913 799.179 138.768 798.42C139.623 797.65 140.051 796.542 140.051 795.096C140.051 793.675 139.617 792.543 138.75 791.7C137.883 790.845 136.69 790.405 135.173 790.381H129.554V799.559ZM169.644 800.534C169.644 803.112 169.198 805.376 168.307 807.327C167.415 809.266 166.139 810.76 164.477 811.808C162.826 812.843 160.924 813.361 158.768 813.361C156.636 813.361 154.733 812.843 153.059 811.808C151.396 810.76 150.108 809.272 149.192 807.345C148.289 805.418 147.831 803.196 147.819 800.679V799.197C147.819 796.632 148.271 794.368 149.174 792.404C150.09 790.441 151.372 788.942 153.022 787.906C154.685 786.858 156.588 786.334 158.731 786.334C160.875 786.334 162.772 786.852 164.422 787.888C166.084 788.911 167.367 790.393 168.271 792.332C169.174 794.259 169.632 796.505 169.644 799.071V800.534ZM165.073 799.161C165.073 796.246 164.519 794.012 163.411 792.458C162.315 790.905 160.755 790.128 158.731 790.128C156.756 790.128 155.208 790.905 154.088 792.458C152.98 794 152.414 796.186 152.39 799.017V800.534C152.39 803.425 152.95 805.659 154.07 807.237C155.202 808.815 156.768 809.604 158.768 809.604C160.791 809.604 162.345 808.833 163.429 807.291C164.525 805.749 165.073 803.497 165.073 800.534V799.161ZM179.02 813H174.467V786.695H179.02V813ZM205.505 813H200.935L189.209 794.337V813H184.639V786.695H189.209L200.971 805.43V786.695H205.505V813ZM229.371 790.381H221.169V813H216.634V790.381H208.504V786.695H229.371V790.381ZM238.766 786.695L246.354 806.857L253.923 786.695H259.831V813H255.278V804.328L255.73 792.729L247.961 813H244.691L236.941 792.748L237.393 804.328V813H232.84V786.695H238.766ZM280.625 801.257H269.822V809.351H282.45V813H265.251V786.695H282.324V790.381H269.822V797.644H280.625V801.257ZM307.039 813H302.468L290.743 794.337V813H286.172V786.695H290.743L302.504 805.43V786.695H307.039V813ZM330.904 790.381H322.702V813H318.167V790.381H310.038V786.695H330.904V790.381Z" fill="white"/>
<rect x="43.5" y="716.5" width="463" height="124" rx="8.5" stroke="white" stroke-width="3"/>
<path d="M458.5 748H420C417.239 748 415 750.239 415 753V805C415 807.761 417.239 810 420 810H470.5C473.261 810 475.5 807.761 475.5 805V782" stroke="white" stroke-width="5" stroke-linecap="round"/>
<path d="M437.5 778.646L445.793 786.939C446.183 787.33 446.817 787.33 447.207 786.939L473.646 760.5" stroke="white" stroke-width="5" stroke-linecap="round"/>
<rect x="25.7002" y="381.566" width="351.95" height="351.95" rx="7.03901" transform="rotate(-45 25.7002 381.566)" fill="white"/>
<path d="M224.794 217.314L274.567 167.541L324.341 217.314" stroke="#C2C2C2" stroke-width="14.078"/>
<path d="M110.314 331.793L60.5411 381.566L110.314 431.34" stroke="#C2C2C2" stroke-width="14.078"/>
<path d="M438.817 431.34L488.591 381.567L438.817 331.793" stroke="#C2C2C2" stroke-width="14.078"/>
<path d="M324.34 545.818L274.567 595.592L224.793 545.818" stroke="#C2C2C2" stroke-width="14.078"/>
<path d="M192.174 352.056L186.349 335.103L180.159 352.056H192.174ZM183.633 329.409H189.51L203.433 367.781H197.738L193.846 356.288H178.67L174.516 367.781H169.188L183.633 329.409ZM210.512 354.12C210.512 357.115 211.147 359.623 212.418 361.643C213.69 363.663 215.727 364.673 218.531 364.673C220.708 364.673 222.492 363.741 223.886 361.878C225.296 359.997 226.001 357.307 226.001 353.806C226.001 350.271 225.279 347.659 223.833 345.97C222.388 344.263 220.603 343.41 218.479 343.41C216.11 343.41 214.186 344.316 212.706 346.127C211.243 347.938 210.512 350.602 210.512 354.12ZM217.59 339.309C219.732 339.309 221.526 339.762 222.971 340.667C223.807 341.19 224.756 342.104 225.819 343.41V329.278H230.338V367.781H226.106V363.889C225.009 365.613 223.711 366.858 222.214 367.625C220.716 368.391 219.001 368.774 217.068 368.774C213.951 368.774 211.252 367.468 208.97 364.856C206.689 362.226 205.548 358.735 205.548 354.381C205.548 350.306 206.585 346.78 208.657 343.802C210.747 340.807 213.724 339.309 217.59 339.309ZM240.29 354.12C240.29 357.115 240.925 359.623 242.197 361.643C243.468 363.663 245.505 364.673 248.309 364.673C250.486 364.673 252.271 363.741 253.664 361.878C255.074 359.997 255.78 357.307 255.78 353.806C255.78 350.271 255.057 347.659 253.612 345.97C252.166 344.263 250.381 343.41 248.257 343.41C245.888 343.41 243.964 344.316 242.484 346.127C241.021 347.938 240.29 350.602 240.29 354.12ZM247.369 339.309C249.511 339.309 251.304 339.762 252.75 340.667C253.586 341.19 254.535 342.104 255.597 343.41V329.278H260.116V367.781H255.884V363.889C254.787 365.613 253.49 366.858 251.992 367.625C250.495 368.391 248.779 368.774 246.846 368.774C243.729 368.774 241.03 367.468 238.749 364.856C236.467 362.226 235.327 358.735 235.327 354.381C235.327 350.306 236.363 346.78 238.435 343.802C240.525 340.807 243.503 339.309 247.369 339.309ZM299.455 339.805H304.653C303.991 341.599 302.52 345.691 300.238 352.082C298.532 356.889 297.104 360.807 295.954 363.837C293.238 370.977 291.322 375.33 290.208 376.898C289.093 378.465 287.178 379.249 284.461 379.249C283.799 379.249 283.286 379.222 282.92 379.17C282.572 379.118 282.136 379.022 281.614 378.883V374.599C282.432 374.825 283.024 374.965 283.39 375.017C283.756 375.069 284.078 375.095 284.356 375.095C285.227 375.095 285.863 374.947 286.263 374.651C286.681 374.373 287.03 374.024 287.308 373.606C287.395 373.467 287.709 372.753 288.249 371.464C288.788 370.176 289.18 369.218 289.424 368.591L279.08 339.805H284.409L291.906 362.583L299.455 339.805ZM319.829 364.751C322.946 364.751 325.08 363.576 326.229 361.225C327.396 358.856 327.979 356.227 327.979 353.336C327.979 350.724 327.561 348.599 326.725 346.963C325.402 344.385 323.121 343.097 319.882 343.097C317.008 343.097 314.918 344.194 313.612 346.388C312.306 348.582 311.653 351.229 311.653 354.329C311.653 357.307 312.306 359.788 313.612 361.773C314.918 363.759 316.991 364.751 319.829 364.751ZM320.012 338.996C323.617 338.996 326.664 340.197 329.155 342.6C331.645 345.003 332.89 348.539 332.89 353.206C332.89 357.716 331.793 361.442 329.599 364.385C327.404 367.328 324 368.8 319.385 368.8C315.537 368.8 312.48 367.503 310.217 364.908C307.953 362.296 306.821 358.796 306.821 354.407C306.821 349.705 308.014 345.961 310.399 343.175C312.785 340.389 315.989 338.996 320.012 338.996ZM343.208 339.805V358.378C343.208 359.806 343.434 360.972 343.887 361.878C344.723 363.55 346.281 364.385 348.563 364.385C351.837 364.385 354.066 362.923 355.25 359.997C355.894 358.43 356.216 356.279 356.216 353.545V339.805H360.918V367.781H356.477L356.53 363.654C355.92 364.716 355.163 365.613 354.257 366.345C352.463 367.807 350.287 368.539 347.727 368.539C343.739 368.539 341.022 367.207 339.577 364.542C338.793 363.114 338.402 361.207 338.402 358.822V339.805H343.208ZM368.415 339.805H372.882V344.638C373.247 343.697 374.144 342.557 375.572 341.216C377 339.858 378.646 339.178 380.509 339.178C380.596 339.178 380.744 339.187 380.953 339.205C381.162 339.222 381.519 339.257 382.024 339.309V344.272C381.745 344.22 381.484 344.185 381.24 344.168C381.014 344.15 380.762 344.141 380.483 344.141C378.115 344.141 376.295 344.908 375.024 346.44C373.752 347.955 373.117 349.705 373.117 351.691V367.781H368.415V339.805Z" fill="#C2C2C2"/>
<path d="M192.646 431.182C190.922 431.756 188.859 432.044 186.456 432.044C181.44 432.044 177.296 430.546 174.022 427.551C170.051 423.946 168.066 418.652 168.066 411.669C168.066 404.634 170.104 399.314 174.179 395.709C177.505 392.766 181.641 391.294 186.586 391.294C191.567 391.294 195.746 392.853 199.125 395.97C203.025 399.575 204.976 404.616 204.976 411.094C204.976 414.525 204.558 417.398 203.722 419.714C203.043 421.926 202.041 423.763 200.718 425.226L205.159 429.379L200.953 433.768L196.303 429.379C194.893 430.233 193.674 430.833 192.646 431.182ZM190.922 424.233L187.03 420.524L191.184 416.188L195.076 419.897C195.685 418.643 196.112 417.546 196.356 416.606C196.739 415.195 196.93 413.55 196.93 411.669C196.93 407.35 196.042 404.015 194.266 401.665C192.507 399.296 189.93 398.112 186.534 398.112C183.347 398.112 180.805 399.244 178.907 401.508C177.008 403.772 176.059 407.159 176.059 411.669C176.059 416.946 177.418 420.724 180.134 423.006C181.893 424.486 184 425.226 186.456 425.226C187.379 425.226 188.267 425.113 189.12 424.886C189.59 424.764 190.191 424.547 190.922 424.233ZM227.492 415.875H219.186V430.973H211.323V392.47H230.209C232.908 392.522 234.98 392.853 236.426 393.462C237.889 394.072 239.125 394.969 240.135 396.153C240.971 397.128 241.633 398.208 242.12 399.392C242.608 400.576 242.852 401.926 242.852 403.441C242.852 405.269 242.39 407.072 241.467 408.848C240.544 410.607 239.02 411.852 236.896 412.583C238.672 413.297 239.926 414.316 240.657 415.639C241.406 416.946 241.781 418.948 241.781 421.647V424.233C241.781 425.992 241.85 427.185 241.99 427.812C242.199 428.805 242.686 429.536 243.452 430.006V430.973H234.597C234.353 430.119 234.179 429.431 234.075 428.909C233.866 427.829 233.753 426.724 233.735 425.592L233.683 422.013C233.648 419.558 233.195 417.921 232.325 417.102C231.471 416.284 229.861 415.875 227.492 415.875ZM232.377 408.874C233.979 408.143 234.78 406.697 234.78 404.538C234.78 402.204 234.005 400.637 232.455 399.836C231.585 399.383 230.279 399.157 228.537 399.157H219.186V409.501H228.302C230.113 409.501 231.471 409.292 232.377 408.874ZM288.721 412.714H281.093C280.954 411.652 280.597 410.694 280.022 409.841C279.186 408.691 277.889 408.116 276.13 408.116C273.623 408.116 271.907 409.362 270.984 411.852C270.497 413.175 270.253 414.934 270.253 417.128C270.253 419.218 270.497 420.899 270.984 422.17C271.872 424.538 273.544 425.722 276 425.722C277.741 425.722 278.977 425.252 279.709 424.312C280.44 423.371 280.884 422.152 281.041 420.655H288.642C288.468 422.919 287.65 425.061 286.187 427.081C283.853 430.337 280.397 431.965 275.817 431.965C271.237 431.965 267.867 430.607 265.708 427.89C263.548 425.174 262.469 421.647 262.469 417.311C262.469 412.418 263.662 408.613 266.047 405.896C268.433 403.18 271.724 401.821 275.921 401.821C279.491 401.821 282.408 402.622 284.672 404.224C286.953 405.827 288.303 408.656 288.721 412.714ZM317.611 406.105C320.014 409.118 321.216 412.679 321.216 416.789C321.216 420.968 320.014 424.547 317.611 427.525C315.208 430.485 311.559 431.965 306.666 431.965C301.773 431.965 298.124 430.485 295.721 427.525C293.318 424.547 292.116 420.968 292.116 416.789C292.116 412.679 293.318 409.118 295.721 406.105C298.124 403.092 301.773 401.586 306.666 401.586C311.559 401.586 315.208 403.092 317.611 406.105ZM306.64 407.881C304.463 407.881 302.783 408.656 301.598 410.206C300.432 411.739 299.848 413.933 299.848 416.789C299.848 419.645 300.432 421.848 301.598 423.397C302.783 424.947 304.463 425.722 306.64 425.722C308.817 425.722 310.488 424.947 311.655 423.397C312.822 421.848 313.405 419.645 313.405 416.789C313.405 413.933 312.822 411.739 311.655 410.206C310.488 408.656 308.817 407.881 306.64 407.881ZM352.483 392.522V430.973H345.247V427.028C344.185 428.718 342.975 429.945 341.616 430.711C340.258 431.478 338.569 431.861 336.549 431.861C333.223 431.861 330.419 430.52 328.138 427.838C325.874 425.139 324.742 421.682 324.742 417.468C324.742 412.609 325.856 408.787 328.085 406.001C330.332 403.214 333.327 401.821 337.071 401.821C338.795 401.821 340.328 402.204 341.669 402.971C343.009 403.719 344.098 404.764 344.934 406.105V392.522H352.483ZM332.422 416.919C332.422 419.549 332.944 421.647 333.989 423.215C335.016 424.799 336.584 425.592 338.691 425.592C340.798 425.592 342.4 424.808 343.497 423.241C344.594 421.673 345.143 419.645 345.143 417.154C345.143 413.672 344.263 411.181 342.504 409.684C341.425 408.778 340.171 408.325 338.743 408.325C336.566 408.325 334.964 409.153 333.937 410.807C332.927 412.444 332.422 414.481 332.422 416.919ZM383.646 422.614C383.454 424.303 382.575 426.018 381.007 427.76C378.569 430.529 375.156 431.913 370.768 431.913C367.146 431.913 363.95 430.746 361.181 428.413C358.412 426.079 357.028 422.283 357.028 417.024C357.028 412.096 358.273 408.317 360.763 405.687C363.271 403.058 366.519 401.743 370.506 401.743C372.875 401.743 375.008 402.187 376.906 403.075C378.804 403.963 380.372 405.365 381.608 407.281C382.723 408.97 383.445 410.929 383.776 413.158C383.968 414.464 384.046 416.345 384.011 418.8H364.525C364.629 421.656 365.526 423.659 367.215 424.808C368.243 425.522 369.479 425.879 370.924 425.879C372.457 425.879 373.702 425.444 374.66 424.573C375.182 424.103 375.644 423.45 376.044 422.614H383.646ZM376.279 413.889C376.157 411.922 375.557 410.433 374.477 409.423C373.415 408.395 372.091 407.881 370.506 407.881C368.782 407.881 367.442 408.421 366.484 409.501C365.543 410.581 364.951 412.043 364.708 413.889H376.279Z" fill="#C2C2C2"/>
</g>
<defs>
<clipPath id="clip0_237:418">
<rect width="550" height="1000" fill="white"/>
</clipPath>
</defs>
</svg>
