<svg width="550" height="1000" viewBox="0 0 550 1000" fill="none" xmlns="http://www.w3.org/2000/svg">
<circle cx="275" cy="556" r="251.5" fill="white" stroke="#333333" stroke-width="25"/>
<rect x="33" y="150" width="484" height="115" rx="18" fill="#333333"/>
<rect x="42.5" y="159.5" width="465" height="96" rx="16.5" stroke="white" stroke-width="3"/>
<path d="M207.557 214.225C207.557 213.069 207.148 212.178 206.329 211.551C205.522 210.925 204.059 210.293 201.939 209.654C199.819 209.016 198.133 208.305 196.88 207.522C194.483 206.017 193.285 204.054 193.285 201.633C193.285 199.513 194.146 197.767 195.868 196.394C197.603 195.021 199.849 194.334 202.607 194.334C204.438 194.334 206.07 194.671 207.503 195.346C208.936 196.02 210.063 196.984 210.882 198.236C211.701 199.477 212.11 200.856 212.11 202.374H207.557C207.557 201 207.124 199.929 206.257 199.158C205.401 198.375 204.173 197.983 202.571 197.983C201.078 197.983 199.915 198.303 199.084 198.941C198.265 199.579 197.856 200.471 197.856 201.615C197.856 202.578 198.301 203.385 199.193 204.036C200.084 204.674 201.553 205.3 203.601 205.915C205.648 206.517 207.292 207.209 208.533 207.992C209.774 208.763 210.683 209.654 211.261 210.666C211.839 211.666 212.128 212.84 212.128 214.189C212.128 216.381 211.285 218.127 209.599 219.428C207.925 220.717 205.648 221.361 202.77 221.361C200.867 221.361 199.114 221.012 197.512 220.313C195.923 219.603 194.682 218.627 193.791 217.387C192.912 216.146 192.472 214.701 192.472 213.051H197.043C197.043 214.544 197.537 215.701 198.524 216.52C199.512 217.339 200.927 217.748 202.77 217.748C204.36 217.748 205.552 217.429 206.347 216.791C207.154 216.14 207.557 215.285 207.557 214.225ZM237.506 212.437C237.241 215.243 236.205 217.435 234.398 219.013C232.592 220.578 230.189 221.361 227.19 221.361C225.094 221.361 223.245 220.868 221.643 219.88C220.054 218.88 218.825 217.465 217.958 215.634C217.091 213.804 216.639 211.678 216.603 209.257V206.8C216.603 204.319 217.042 202.133 217.922 200.242C218.801 198.351 220.06 196.893 221.698 195.87C223.348 194.846 225.251 194.334 227.407 194.334C230.309 194.334 232.646 195.123 234.416 196.701C236.187 198.278 237.217 200.507 237.506 203.385H232.953C232.736 201.494 232.182 200.133 231.291 199.302C230.412 198.459 229.117 198.038 227.407 198.038C225.419 198.038 223.89 198.766 222.818 200.224C221.758 201.669 221.216 203.795 221.192 206.601V208.932C221.192 211.774 221.698 213.942 222.709 215.436C223.733 216.929 225.227 217.676 227.19 217.676C228.984 217.676 230.333 217.272 231.237 216.465C232.14 215.658 232.712 214.315 232.953 212.437H237.506ZM257.626 214.875H247.436L245.305 221H240.553L250.49 194.695H254.591L264.545 221H259.776L257.626 214.875ZM248.719 211.19H256.343L252.531 200.278L248.719 211.19ZM289.706 221H285.135L273.41 202.337V221H268.839V194.695H273.41L285.171 213.43V194.695H289.706V221ZM312.838 194.695L320.425 214.857L327.995 194.695H333.903V221H329.35V212.328L329.802 200.729L322.033 221H318.763L311.013 200.748L311.465 212.328V221H306.912V194.695H312.838ZM355.992 209.257H345.189V217.351H357.817V221H340.618V194.695H357.691V198.381H345.189V205.644H355.992V209.257Z" fill="white"/>
<rect x="113" y="394" width="323" height="323" rx="6.46" fill="white"/>
<path d="M348.792 416.611H413.392V481.211" stroke="#C2C2C2" stroke-width="12.92"/>
<path d="M200.211 416.611H135.611V481.211" stroke="#C2C2C2" stroke-width="12.92"/>
<path d="M348.792 694.391H413.392V629.791" stroke="#C2C2C2" stroke-width="12.92"/>
<path d="M200.211 694.391H135.611V629.791" stroke="#C2C2C2" stroke-width="12.92"/>
<path d="M197.703 528.514L192.357 512.956L186.675 528.514H197.703ZM189.864 507.729H195.258L208.035 542.945H202.809L199.237 532.397H185.309L181.497 542.945H176.607L189.864 507.729ZM214.532 530.408C214.532 533.156 215.115 535.458 216.282 537.312C217.448 539.166 219.318 540.093 221.891 540.093C223.889 540.093 225.527 539.238 226.806 537.527C228.1 535.801 228.747 533.332 228.747 530.12C228.747 526.876 228.084 524.478 226.758 522.928C225.431 521.362 223.793 520.579 221.843 520.579C219.67 520.579 217.904 521.41 216.545 523.072C215.203 524.734 214.532 527.179 214.532 530.408ZM221.028 516.815C222.994 516.815 224.64 517.231 225.967 518.062C226.734 518.541 227.605 519.38 228.58 520.579V507.61H232.727V542.945H228.843V539.373C227.836 540.956 226.646 542.098 225.271 542.801C223.897 543.505 222.323 543.856 220.549 543.856C217.688 543.856 215.211 542.658 213.117 540.26C211.024 537.847 209.977 534.643 209.977 530.647C209.977 526.908 210.928 523.671 212.83 520.938C214.747 518.19 217.48 516.815 221.028 516.815ZM241.86 530.408C241.86 533.156 242.444 535.458 243.61 537.312C244.777 539.166 246.647 540.093 249.22 540.093C251.218 540.093 252.856 539.238 254.134 537.527C255.429 535.801 256.076 533.332 256.076 530.12C256.076 526.876 255.413 524.478 254.087 522.928C252.76 521.362 251.122 520.579 249.172 520.579C246.999 520.579 245.233 521.41 243.874 523.072C242.532 524.734 241.86 527.179 241.86 530.408ZM248.357 516.815C250.323 516.815 251.969 517.231 253.295 518.062C254.063 518.541 254.934 519.38 255.908 520.579V507.61H260.056V542.945H256.172V539.373C255.165 540.956 253.975 542.098 252.6 542.801C251.226 543.505 249.652 543.856 247.878 543.856C245.017 543.856 242.54 542.658 240.446 540.26C238.352 537.847 237.306 534.643 237.306 530.647C237.306 526.908 238.257 523.671 240.158 520.938C242.076 518.19 244.809 516.815 248.357 516.815ZM296.159 517.271H300.929C300.322 518.917 298.971 522.672 296.878 528.538C295.311 532.949 294.001 536.545 292.946 539.325C290.453 545.878 288.695 549.873 287.672 551.312C286.649 552.75 284.891 553.469 282.398 553.469C281.791 553.469 281.319 553.445 280.984 553.397C280.664 553.349 280.265 553.262 279.785 553.134V549.202C280.536 549.41 281.08 549.538 281.415 549.586C281.751 549.634 282.047 549.658 282.302 549.658C283.101 549.658 283.685 549.522 284.052 549.25C284.436 548.994 284.756 548.675 285.011 548.291C285.091 548.163 285.379 547.508 285.874 546.325C286.37 545.143 286.729 544.264 286.953 543.688L277.46 517.271H282.35L289.23 538.175L296.159 517.271ZM314.857 540.164C317.718 540.164 319.676 539.086 320.73 536.928C321.801 534.755 322.337 532.341 322.337 529.688C322.337 527.291 321.953 525.341 321.186 523.839C319.971 521.474 317.878 520.291 314.905 520.291C312.268 520.291 310.35 521.298 309.152 523.312C307.953 525.325 307.354 527.755 307.354 530.599C307.354 533.332 307.953 535.61 309.152 537.432C310.35 539.254 312.252 540.164 314.857 540.164ZM315.025 516.527C318.333 516.527 321.13 517.63 323.415 519.836C325.701 522.041 326.844 525.285 326.844 529.569C326.844 533.708 325.837 537.128 323.823 539.829C321.809 542.53 318.685 543.88 314.45 543.88C310.918 543.88 308.113 542.69 306.035 540.308C303.958 537.911 302.919 534.699 302.919 530.671C302.919 526.356 304.014 522.92 306.203 520.363C308.393 517.806 311.333 516.527 315.025 516.527ZM336.313 517.271V534.315C336.313 535.626 336.52 536.696 336.936 537.527C337.703 539.062 339.134 539.829 341.227 539.829C344.232 539.829 346.277 538.486 347.364 535.801C347.955 534.363 348.251 532.389 348.251 529.88V517.271H352.566V542.945H348.491L348.539 539.158C347.979 540.133 347.284 540.956 346.453 541.627C344.807 542.969 342.809 543.641 340.46 543.641C336.8 543.641 334.307 542.418 332.981 539.973C332.261 538.662 331.902 536.912 331.902 534.723V517.271H336.313ZM359.446 517.271H363.546V521.706C363.881 520.843 364.704 519.796 366.015 518.565C367.325 517.319 368.836 516.695 370.546 516.695C370.626 516.695 370.761 516.703 370.953 516.719C371.145 516.735 371.473 516.767 371.936 516.815V521.37C371.68 521.322 371.441 521.29 371.217 521.274C371.009 521.258 370.777 521.25 370.522 521.25C368.348 521.25 366.678 521.953 365.511 523.36C364.345 524.75 363.761 526.356 363.761 528.178V542.945H359.446V517.271Z" fill="#C2C2C2"/>
<path d="M198.136 601.129C196.554 601.657 194.66 601.92 192.454 601.92C187.852 601.92 184.048 600.546 181.043 597.797C177.4 594.489 175.578 589.63 175.578 583.222C175.578 576.765 177.447 571.883 181.187 568.574C184.24 565.873 188.035 564.523 192.574 564.523C197.145 564.523 200.981 565.953 204.081 568.814C207.661 572.122 209.451 576.749 209.451 582.694C209.451 585.843 209.067 588.48 208.3 590.605C207.677 592.635 206.758 594.321 205.543 595.664L209.619 599.475L205.759 603.503L201.492 599.475C200.198 600.258 199.079 600.81 198.136 601.129ZM196.554 594.753L192.982 591.348L196.793 587.369L200.365 590.773C200.925 589.622 201.316 588.616 201.54 587.753C201.892 586.458 202.067 584.948 202.067 583.222C202.067 579.258 201.252 576.198 199.622 574.04C198.008 571.867 195.643 570.78 192.526 570.78C189.602 570.78 187.268 571.819 185.526 573.896C183.784 575.974 182.913 579.082 182.913 583.222C182.913 588.064 184.16 591.532 186.653 593.626C188.267 594.984 190.201 595.664 192.454 595.664C193.301 595.664 194.116 595.56 194.9 595.352C195.331 595.24 195.882 595.04 196.554 594.753ZM230.115 587.081H222.492V600.938H215.276V565.602H232.609C235.086 565.65 236.988 565.953 238.314 566.513C239.656 567.072 240.791 567.895 241.718 568.982C242.485 569.877 243.093 570.868 243.54 571.955C243.988 573.041 244.211 574.28 244.211 575.67C244.211 577.348 243.788 579.003 242.941 580.633C242.094 582.247 240.695 583.39 238.746 584.061C240.376 584.716 241.526 585.651 242.198 586.866C242.885 588.064 243.228 589.902 243.228 592.379V594.753C243.228 596.367 243.292 597.461 243.42 598.037C243.612 598.948 244.059 599.619 244.763 600.051V600.938H236.636C236.412 600.154 236.252 599.523 236.156 599.044C235.965 598.053 235.861 597.038 235.845 595.999L235.797 592.715C235.765 590.461 235.349 588.959 234.55 588.208C233.767 587.457 232.289 587.081 230.115 587.081ZM234.598 580.657C236.069 579.985 236.804 578.659 236.804 576.677C236.804 574.536 236.093 573.097 234.67 572.362C233.871 571.947 232.672 571.739 231.074 571.739H222.492V581.232H230.859C232.521 581.232 233.767 581.04 234.598 580.657ZM286.307 584.181H279.307C279.179 583.206 278.852 582.327 278.324 581.544C277.557 580.489 276.367 579.961 274.752 579.961C272.451 579.961 270.877 581.104 270.03 583.39C269.582 584.604 269.359 586.218 269.359 588.232C269.359 590.15 269.582 591.692 270.03 592.859C270.845 595.032 272.379 596.119 274.633 596.119C276.231 596.119 277.365 595.687 278.037 594.824C278.708 593.961 279.115 592.843 279.259 591.468H286.235C286.076 593.546 285.324 595.512 283.982 597.366C281.84 600.354 278.668 601.848 274.465 601.848C270.262 601.848 267.169 600.602 265.187 598.109C263.206 595.616 262.215 592.379 262.215 588.4C262.215 583.909 263.31 580.417 265.499 577.924C267.689 575.431 270.709 574.184 274.561 574.184C277.837 574.184 280.514 574.919 282.592 576.389C284.685 577.86 285.924 580.457 286.307 584.181ZM312.821 578.116C315.027 580.88 316.129 584.149 316.129 587.92C316.129 591.756 315.027 595.04 312.821 597.773C310.616 600.49 307.267 601.848 302.777 601.848C298.286 601.848 294.937 600.49 292.732 597.773C290.526 595.04 289.424 591.756 289.424 587.92C289.424 584.149 290.526 580.88 292.732 578.116C294.937 575.351 298.286 573.968 302.777 573.968C307.267 573.968 310.616 575.351 312.821 578.116ZM302.753 579.746C300.755 579.746 299.213 580.457 298.126 581.879C297.055 583.286 296.52 585.299 296.52 587.92C296.52 590.541 297.055 592.563 298.126 593.985C299.213 595.408 300.755 596.119 302.753 596.119C304.75 596.119 306.285 595.408 307.355 593.985C308.426 592.563 308.961 590.541 308.961 587.92C308.961 585.299 308.426 583.286 307.355 581.879C306.285 580.457 304.75 579.746 302.753 579.746ZM344.825 565.65V600.938H338.184V597.318C337.209 598.868 336.099 599.995 334.852 600.698C333.605 601.401 332.055 601.753 330.201 601.753C327.149 601.753 324.576 600.522 322.482 598.061C320.404 595.584 319.366 592.411 319.366 588.544C319.366 584.085 320.388 580.577 322.434 578.02C324.496 575.463 327.245 574.184 330.681 574.184C332.263 574.184 333.669 574.536 334.9 575.239C336.13 575.926 337.129 576.885 337.896 578.116V565.65H344.825ZM326.414 588.04C326.414 590.453 326.893 592.379 327.852 593.818C328.795 595.272 330.233 595.999 332.167 595.999C334.101 595.999 335.571 595.28 336.578 593.842C337.585 592.403 338.088 590.541 338.088 588.256C338.088 585.06 337.281 582.774 335.667 581.4C334.676 580.569 333.525 580.153 332.215 580.153C330.217 580.153 328.747 580.912 327.804 582.431C326.877 583.933 326.414 585.803 326.414 588.04ZM373.424 593.266C373.248 594.816 372.441 596.391 371.003 597.989C368.765 600.53 365.633 601.801 361.605 601.801C358.281 601.801 355.349 600.73 352.807 598.588C350.266 596.447 348.996 592.963 348.996 588.136C348.996 583.613 350.138 580.145 352.424 577.732C354.725 575.319 357.706 574.112 361.366 574.112C363.539 574.112 365.497 574.52 367.239 575.335C368.981 576.15 370.419 577.436 371.554 579.194C372.577 580.745 373.24 582.542 373.544 584.588C373.72 585.787 373.792 587.513 373.76 589.766H355.876C355.972 592.387 356.795 594.225 358.345 595.28C359.288 595.935 360.423 596.263 361.749 596.263C363.156 596.263 364.298 595.863 365.177 595.064C365.657 594.633 366.08 594.033 366.448 593.266H373.424ZM366.664 585.259C366.552 583.453 366 582.087 365.01 581.16C364.035 580.217 362.82 579.746 361.366 579.746C359.783 579.746 358.553 580.241 357.674 581.232C356.811 582.223 356.268 583.565 356.044 585.259H366.664Z" fill="#C2C2C2"/>
</svg>
