<svg width="824" height="1000" viewBox="0 0 824 1000" fill="none" xmlns="http://www.w3.org/2000/svg">
<g clip-path="url(#clip0_237:444)">
<rect y="2" width="824" height="500" fill="#DDDDDD"/>
<rect y="435" width="824" height="567" fill="#333333"/>
<circle cx="412" cy="435" r="336" fill="white"/>
<path d="M204.293 863.493C204.293 862.211 203.84 861.224 202.932 860.53C202.038 859.836 200.416 859.135 198.067 858.428C195.718 857.72 193.85 856.933 192.462 856.065C189.806 854.397 188.478 852.222 188.478 849.539C188.478 847.19 189.432 845.255 191.341 843.733C193.263 842.212 195.752 841.451 198.808 841.451C200.837 841.451 202.645 841.825 204.233 842.572C205.822 843.32 207.069 844.387 207.977 845.775C208.885 847.15 209.338 848.678 209.338 850.36H204.293C204.293 848.838 203.813 847.651 202.852 846.796C201.904 845.929 200.543 845.495 198.768 845.495C197.113 845.495 195.825 845.849 194.904 846.556C193.997 847.264 193.543 848.251 193.543 849.519C193.543 850.587 194.037 851.481 195.024 852.202C196.012 852.909 197.64 853.603 199.909 854.284C202.178 854.951 204 855.718 205.375 856.586C206.749 857.44 207.757 858.428 208.397 859.549C209.038 860.657 209.358 861.958 209.358 863.453C209.358 865.882 208.424 867.817 206.556 869.258C204.701 870.686 202.178 871.4 198.988 871.4C196.88 871.4 194.938 871.013 193.163 870.239C191.401 869.452 190.026 868.371 189.039 866.996C188.064 865.621 187.577 864.02 187.577 862.191H192.642C192.642 863.846 193.189 865.128 194.284 866.035C195.378 866.943 196.946 867.396 198.988 867.396C200.75 867.396 202.071 867.043 202.952 866.335C203.846 865.615 204.293 864.667 204.293 863.493ZM236.044 861.511C235.751 864.62 234.603 867.049 232.601 868.798C230.599 870.533 227.937 871.4 224.613 871.4C222.291 871.4 220.242 870.853 218.467 869.759C216.706 868.651 215.344 867.083 214.383 865.054C213.422 863.026 212.922 860.67 212.882 857.987V855.265C212.882 852.515 213.369 850.093 214.343 847.998C215.318 845.902 216.712 844.287 218.527 843.153C220.356 842.018 222.465 841.451 224.854 841.451C228.07 841.451 230.659 842.325 232.621 844.074C234.583 845.822 235.724 848.291 236.044 851.481H231C230.759 849.386 230.145 847.877 229.158 846.957C228.183 846.022 226.749 845.555 224.854 845.555C222.651 845.555 220.956 846.363 219.769 847.978C218.594 849.579 217.993 851.935 217.967 855.044V857.627C217.967 860.777 218.527 863.179 219.648 864.834C220.783 866.489 222.438 867.316 224.613 867.316C226.602 867.316 228.097 866.869 229.098 865.975C230.099 865.081 230.733 863.593 231 861.511H236.044ZM256.905 864.213H245.614L243.251 871H237.986L248.997 841.852H253.542L264.572 871H259.287L256.905 864.213ZM247.035 860.129H255.483L251.259 848.038L247.035 860.129ZM291.018 871H285.953L272.96 850.32V871H267.896V841.852H272.96L285.993 862.612V841.852H291.018V871ZM330.376 857.187C330.376 859.949 329.936 862.345 329.055 864.374C328.188 866.389 326.966 867.99 325.392 869.178L330.396 873.082L327.113 876.045L320.907 871.14C320.093 871.314 319.219 871.4 318.285 871.4C315.936 871.4 313.834 870.826 311.979 869.679C310.137 868.518 308.709 866.869 307.694 864.734C306.693 862.598 306.186 860.136 306.173 857.347V855.705C306.173 852.862 306.673 850.353 307.674 848.178C308.689 846.002 310.11 844.341 311.938 843.193C313.78 842.032 315.882 841.451 318.245 841.451C320.647 841.451 322.762 842.025 324.591 843.173C326.433 844.307 327.854 845.949 328.855 848.098C329.856 850.233 330.363 852.722 330.376 855.565V857.187ZM325.292 855.665C325.292 852.382 324.678 849.893 323.45 848.198C322.222 846.503 320.487 845.655 318.245 845.655C316.069 845.655 314.361 846.516 313.12 848.238C311.892 849.946 311.264 852.362 311.238 855.485V857.187C311.238 860.336 311.852 862.799 313.08 864.574C314.321 866.349 316.056 867.236 318.285 867.236C320.54 867.236 322.269 866.382 323.47 864.674C324.684 862.965 325.292 860.47 325.292 857.187V855.665ZM346.232 859.769H340.586V871H335.521V841.852H345.771C349.135 841.852 351.731 842.606 353.559 844.114C355.388 845.622 356.302 847.804 356.302 850.66C356.302 852.609 355.828 854.244 354.88 855.565C353.946 856.873 352.638 857.881 350.957 858.588L357.503 870.74V871H352.078L346.232 859.769ZM340.586 855.705H345.792C347.5 855.705 348.834 855.278 349.795 854.424C350.756 853.556 351.237 852.375 351.237 850.88C351.237 849.319 350.79 848.111 349.896 847.257C349.015 846.403 347.693 845.962 345.932 845.936H340.586V855.705ZM393.558 861.511C393.264 864.62 392.117 867.049 390.115 868.798C388.113 870.533 385.45 871.4 382.127 871.4C379.805 871.4 377.756 870.853 375.981 869.759C374.219 868.651 372.858 867.083 371.897 865.054C370.936 863.026 370.436 860.67 370.396 857.987V855.265C370.396 852.515 370.883 850.093 371.857 847.998C372.831 845.902 374.226 844.287 376.041 843.153C377.869 842.018 379.978 841.451 382.367 841.451C385.584 841.451 388.173 842.325 390.135 844.074C392.097 845.822 393.238 848.291 393.558 851.481H388.513C388.273 849.386 387.659 847.877 386.671 846.957C385.697 846.022 384.262 845.555 382.367 845.555C380.165 845.555 378.47 846.363 377.282 847.978C376.108 849.579 375.507 851.935 375.48 855.044V857.627C375.48 860.777 376.041 863.179 377.162 864.834C378.297 866.489 379.951 867.316 382.127 867.316C384.116 867.316 385.61 866.869 386.611 865.975C387.612 865.081 388.246 863.593 388.513 861.511H393.558ZM421.365 857.187C421.365 860.043 420.871 862.552 419.884 864.714C418.896 866.863 417.481 868.518 415.64 869.679C413.811 870.826 411.702 871.4 409.313 871.4C406.951 871.4 404.842 870.826 402.987 869.679C401.146 868.518 399.717 866.869 398.703 864.734C397.702 862.598 397.195 860.136 397.182 857.347V855.705C397.182 852.862 397.682 850.353 398.683 848.178C399.697 846.002 401.119 844.341 402.947 843.193C404.789 842.032 406.898 841.451 409.273 841.451C411.649 841.451 413.751 842.025 415.58 843.173C417.421 844.307 418.843 845.949 419.844 848.098C420.845 850.233 421.352 852.722 421.365 855.565V857.187ZM416.3 855.665C416.3 852.435 415.686 849.959 414.458 848.238C413.244 846.516 411.516 845.655 409.273 845.655C407.085 845.655 405.37 846.516 404.128 848.238C402.901 849.946 402.273 852.368 402.247 855.505V857.187C402.247 860.39 402.867 862.865 404.108 864.614C405.363 866.362 407.098 867.236 409.313 867.236C411.556 867.236 413.277 866.382 414.479 864.674C415.693 862.965 416.3 860.47 416.3 857.187V855.665ZM426.41 871V841.852H435.019C437.594 841.852 439.877 842.425 441.865 843.573C443.867 844.721 445.415 846.349 446.51 848.458C447.604 850.567 448.151 852.982 448.151 855.705V857.167C448.151 859.929 447.597 862.358 446.49 864.454C445.395 866.549 443.827 868.164 441.785 869.298C439.757 870.433 437.428 871 434.798 871H426.41ZM431.475 845.936V866.956H434.778C437.434 866.956 439.47 866.129 440.884 864.474C442.312 862.805 443.04 860.416 443.066 857.307V855.685C443.066 852.522 442.379 850.106 441.004 848.438C439.63 846.77 437.634 845.936 435.019 845.936H431.475ZM470.233 857.987H458.261V866.956H472.255V871H453.196V841.852H472.115V845.936H458.261V853.983H470.233V857.987ZM503.385 858.648H491.654V871H486.589V841.852H505.107V845.936H491.654V854.604H503.385V858.648ZM532.394 857.187C532.394 860.043 531.9 862.552 530.912 864.714C529.924 866.863 528.51 868.518 526.668 869.679C524.84 870.826 522.731 871.4 520.342 871.4C517.979 871.4 515.871 870.826 514.016 869.679C512.174 868.518 510.746 866.869 509.731 864.734C508.73 862.598 508.223 860.136 508.21 857.347V855.705C508.21 852.862 508.71 850.353 509.711 848.178C510.726 846.002 512.147 844.341 513.976 843.193C515.817 842.032 517.926 841.451 520.302 841.451C522.677 841.451 524.779 842.025 526.608 843.173C528.45 844.307 529.871 845.949 530.872 848.098C531.873 850.233 532.38 852.722 532.394 855.565V857.187ZM527.329 855.665C527.329 852.435 526.715 849.959 525.487 848.238C524.272 846.516 522.544 845.655 520.302 845.655C518.113 845.655 516.398 846.516 515.157 848.238C513.929 849.946 513.302 852.368 513.275 855.505V857.187C513.275 860.39 513.896 862.865 515.137 864.614C516.391 866.362 518.126 867.236 520.342 867.236C522.584 867.236 524.306 866.382 525.507 864.674C526.721 862.965 527.329 860.47 527.329 857.187V855.665ZM548.149 859.769H542.503V871H537.438V841.852H547.688C551.052 841.852 553.648 842.606 555.476 844.114C557.305 845.622 558.219 847.804 558.219 850.66C558.219 852.609 557.745 854.244 556.797 855.565C555.863 856.873 554.555 857.881 552.874 858.588L559.42 870.74V871H553.995L548.149 859.769ZM542.503 855.705H547.708C549.417 855.705 550.751 855.278 551.712 854.424C552.673 853.556 553.154 852.375 553.154 850.88C553.154 849.319 552.707 848.111 551.812 847.257C550.932 846.403 549.61 845.962 547.849 845.936H542.503V855.705ZM579.8 841.852L588.208 864.193L596.596 841.852H603.143V871H598.098V861.391L598.598 848.538L589.99 871H586.366L577.778 848.558L578.278 861.391V871H573.233V841.852H579.8ZM632.411 857.187C632.411 860.043 631.917 862.552 630.93 864.714C629.942 866.863 628.527 868.518 626.686 869.679C624.857 870.826 622.748 871.4 620.359 871.4C617.997 871.4 615.888 870.826 614.033 869.679C612.191 868.518 610.763 866.869 609.749 864.734C608.748 862.598 608.241 860.136 608.228 857.347V855.705C608.228 852.862 608.728 850.353 609.729 848.178C610.743 846.002 612.165 844.341 613.993 843.193C615.835 842.032 617.944 841.451 620.319 841.451C622.695 841.451 624.797 842.025 626.625 843.173C628.467 844.307 629.889 845.949 630.89 848.098C631.891 850.233 632.398 852.722 632.411 855.565V857.187ZM627.346 855.665C627.346 852.435 626.732 849.959 625.504 848.238C624.29 846.516 622.562 845.655 620.319 845.655C618.131 845.655 616.416 846.516 615.174 848.238C613.946 849.946 613.319 852.368 613.292 855.505V857.187C613.292 860.39 613.913 862.865 615.154 864.614C616.409 866.362 618.144 867.236 620.359 867.236C622.602 867.236 624.323 866.382 625.524 864.674C626.739 862.965 627.346 860.47 627.346 857.187V855.665ZM648.167 859.769H642.521V871H637.456V841.852H647.706C651.069 841.852 653.665 842.606 655.494 844.114C657.322 845.622 658.236 847.804 658.236 850.66C658.236 852.609 657.763 854.244 656.815 855.565C655.881 856.873 654.573 857.881 652.891 858.588L659.438 870.74V871H654.012L648.167 859.769ZM642.521 855.705H647.726C649.434 855.705 650.769 855.278 651.73 854.424C652.691 853.556 653.171 852.375 653.171 850.88C653.171 849.319 652.724 848.111 651.83 847.257C650.949 846.403 649.628 845.962 647.866 845.936H642.521V855.705ZM680.078 857.987H668.106V866.956H682.1V871H663.041V841.852H681.959V845.936H668.106V853.983H680.078V857.987ZM701.779 871H696.734V841.852H701.779V871ZM731.127 871H726.062L713.07 850.32V871H708.005V841.852H713.07L726.103 862.612V841.852H731.127V871ZM753.91 858.648H742.178V871H737.113V841.852H755.631V845.936H742.178V854.604H753.91V858.648ZM782.918 857.187C782.918 860.043 782.424 862.552 781.437 864.714C780.449 866.863 779.034 868.518 777.192 869.679C775.364 870.826 773.255 871.4 770.866 871.4C768.504 871.4 766.395 870.826 764.54 869.679C762.698 868.518 761.27 866.869 760.256 864.734C759.255 862.598 758.748 860.136 758.734 857.347V855.705C758.734 852.862 759.235 850.353 760.236 848.178C761.25 846.002 762.672 844.341 764.5 843.193C766.342 842.032 768.451 841.451 770.826 841.451C773.202 841.451 775.304 842.025 777.132 843.173C778.974 844.307 780.396 845.949 781.396 848.098C782.397 850.233 782.905 852.722 782.918 855.565V857.187ZM777.853 855.665C777.853 852.435 777.239 849.959 776.011 848.238C774.797 846.516 773.068 845.655 770.826 845.655C768.637 845.655 766.922 846.516 765.681 848.238C764.453 849.946 763.826 852.368 763.799 855.505V857.187C763.799 860.39 764.42 862.865 765.661 864.614C766.916 866.362 768.651 867.236 770.866 867.236C773.108 867.236 774.83 866.382 776.031 864.674C777.246 862.965 777.853 860.47 777.853 857.187V855.665Z" fill="white"/>
<path d="M147.107 854.4L109.349 903L109.349 876C44.875 876 37.4366 823.739 39.2274 795C41.9352 809.499 43.192 832.8 109.349 832.8L109.349 805.8L147.107 854.4Z" stroke="white" stroke-width="4.16667" stroke-linecap="round" stroke-linejoin="round"/>
<rect x="175" y="198" width="473" height="473" rx="9.46" fill="white"/>
<path d="M520.293 231.111H614.893V325.711" stroke="#C2C2C2" stroke-width="18.92"/>
<path d="M302.712 231.111H208.112V325.711" stroke="#C2C2C2" stroke-width="18.92"/>
<path d="M520.293 637.891H614.893V543.291" stroke="#C2C2C2" stroke-width="18.92"/>
<path d="M302.712 637.891H208.112V543.291" stroke="#C2C2C2" stroke-width="18.92"/>
<path d="M299.038 396.011L291.21 373.228L282.89 396.011H299.038ZM287.559 365.575H295.458L314.169 417.145H306.516L301.285 401.698H280.889L275.307 417.145H268.146L287.559 365.575ZM323.682 398.784C323.682 402.81 324.537 406.18 326.245 408.895C327.954 411.61 330.692 412.967 334.46 412.967C337.385 412.967 339.784 411.715 341.656 409.211C343.552 406.683 344.5 403.067 344.5 398.363C344.5 393.612 343.529 390.102 341.586 387.831C339.644 385.538 337.245 384.391 334.39 384.391C331.207 384.391 328.621 385.608 326.631 388.042C324.665 390.476 323.682 394.057 323.682 398.784ZM333.196 378.88C336.075 378.88 338.485 379.488 340.428 380.705C341.551 381.407 342.827 382.636 344.254 384.391V365.399H350.327V417.145H344.64V411.914C343.166 414.231 341.422 415.904 339.41 416.934C337.397 417.964 335.092 418.479 332.494 418.479C328.305 418.479 324.677 416.723 321.611 413.213C318.545 409.679 317.012 404.986 317.012 399.135C317.012 393.659 318.405 388.92 321.19 384.918C323.998 380.892 328 378.88 333.196 378.88ZM363.703 398.784C363.703 402.81 364.557 406.18 366.265 408.895C367.974 411.61 370.712 412.967 374.48 412.967C377.405 412.967 379.804 411.715 381.677 409.211C383.572 406.683 384.52 403.067 384.52 398.363C384.52 393.612 383.549 390.102 381.606 387.831C379.664 385.538 377.265 384.391 374.41 384.391C371.227 384.391 368.641 385.608 366.652 388.042C364.686 390.476 363.703 394.057 363.703 398.784ZM373.216 378.88C376.095 378.88 378.505 379.488 380.448 380.705C381.571 381.407 382.847 382.636 384.274 384.391V365.399H390.348V417.145H384.661V411.914C383.186 414.231 381.443 415.904 379.43 416.934C377.417 417.964 375.112 418.479 372.514 418.479C368.325 418.479 364.697 416.723 361.631 413.213C358.566 409.679 357.033 404.986 357.033 399.135C357.033 393.659 358.425 388.92 361.21 384.918C364.019 380.892 368.021 378.88 373.216 378.88ZM443.217 379.547H450.203C449.313 381.957 447.336 387.457 444.27 396.046C441.976 402.506 440.057 407.771 438.512 411.844C434.861 421.439 432.287 427.29 430.789 429.396C429.291 431.503 426.717 432.556 423.066 432.556C422.177 432.556 421.486 432.521 420.995 432.451C420.527 432.38 419.942 432.252 419.239 432.064V426.307C420.339 426.611 421.135 426.799 421.627 426.869C422.118 426.939 422.551 426.974 422.926 426.974C424.096 426.974 424.95 426.775 425.488 426.377C426.05 426.003 426.518 425.535 426.892 424.973C427.01 424.786 427.431 423.826 428.156 422.094C428.882 420.363 429.408 419.075 429.736 418.233L415.834 379.547H422.996L433.071 410.159L443.217 379.547ZM470.599 413.072C474.788 413.072 477.655 411.493 479.2 408.333C480.768 405.15 481.552 401.616 481.552 397.731C481.552 394.221 480.99 391.365 479.867 389.165C478.088 385.702 475.022 383.97 470.669 383.97C466.807 383.97 463.999 385.444 462.244 388.393C460.488 391.342 459.611 394.899 459.611 399.065C459.611 403.067 460.488 406.402 462.244 409.07C463.999 411.738 466.784 413.072 470.599 413.072ZM470.845 378.458C475.689 378.458 479.785 380.073 483.131 383.303C486.478 386.533 488.152 391.284 488.152 397.556C488.152 403.617 486.677 408.626 483.728 412.581C480.779 416.536 476.204 418.514 470.002 418.514C464.83 418.514 460.722 416.77 457.68 413.283C454.638 409.772 453.116 405.068 453.116 399.171C453.116 392.852 454.719 387.82 457.926 384.075C461.132 380.331 465.438 378.458 470.845 378.458ZM502.018 379.547V404.507C502.018 406.426 502.322 407.994 502.931 409.211C504.054 411.457 506.149 412.581 509.215 412.581C513.615 412.581 516.61 410.615 518.202 406.683C519.068 404.577 519.501 401.686 519.501 398.012V379.547H525.82V417.145H519.852L519.922 411.598C519.103 413.025 518.085 414.231 516.868 415.214C514.457 417.18 511.532 418.163 508.091 418.163C502.732 418.163 499.081 416.372 497.139 412.791C496.085 410.872 495.559 408.31 495.559 405.103V379.547H502.018ZM535.895 379.547H541.898V386.041C542.389 384.777 543.595 383.244 545.514 381.442C547.433 379.617 549.645 378.704 552.149 378.704C552.266 378.704 552.465 378.716 552.746 378.739C553.026 378.763 553.506 378.809 554.185 378.88V385.55C553.81 385.479 553.459 385.433 553.132 385.409C552.827 385.386 552.488 385.374 552.114 385.374C548.931 385.374 546.485 386.404 544.777 388.463C543.068 390.499 542.214 392.852 542.214 395.52V417.145H535.895V379.547Z" fill="#C2C2C2"/>
<path d="M299.672 502.351C297.355 503.123 294.582 503.51 291.352 503.51C284.612 503.51 279.042 501.497 274.642 497.471C269.306 492.627 266.638 485.512 266.638 476.127C266.638 466.672 269.376 459.522 274.852 454.678C279.323 450.723 284.881 448.745 291.528 448.745C298.221 448.745 303.838 450.84 308.378 455.029C313.621 459.874 316.242 466.649 316.242 475.355C316.242 479.966 315.68 483.827 314.557 486.94C313.644 489.912 312.298 492.381 310.52 494.347L316.488 499.929L310.836 505.827L304.587 499.929C302.691 501.076 301.053 501.883 299.672 502.351ZM297.355 493.013L292.124 488.028L297.706 482.201L302.937 487.186C303.756 485.501 304.329 484.026 304.657 482.762C305.172 480.867 305.429 478.655 305.429 476.127C305.429 470.323 304.236 465.841 301.849 462.682C299.485 459.499 296.021 457.908 291.457 457.908C287.174 457.908 283.758 459.429 281.207 462.471C278.656 465.514 277.38 470.066 277.38 476.127C277.38 483.219 279.205 488.297 282.856 491.363C285.22 493.352 288.052 494.347 291.352 494.347C292.592 494.347 293.786 494.195 294.933 493.891C295.565 493.727 296.372 493.434 297.355 493.013ZM346.503 481.779H335.339V502.07H324.772V450.325H350.154C353.781 450.395 356.566 450.84 358.509 451.659C360.475 452.478 362.136 453.683 363.494 455.275C364.617 456.585 365.506 458.036 366.162 459.628C366.817 461.219 367.145 463.033 367.145 465.069C367.145 467.527 366.524 469.949 365.284 472.336C364.044 474.7 361.996 476.373 359.141 477.356C361.528 478.316 363.213 479.685 364.196 481.463C365.202 483.219 365.705 485.91 365.705 489.538V493.013C365.705 495.377 365.799 496.98 365.986 497.823C366.267 499.157 366.922 500.14 367.952 500.771V502.07H356.051C355.724 500.924 355.49 499.999 355.349 499.297C355.068 497.846 354.916 496.36 354.893 494.839L354.823 490.029C354.776 486.729 354.167 484.529 352.997 483.429C351.85 482.329 349.686 481.779 346.503 481.779ZM353.067 472.371C355.221 471.388 356.297 469.446 356.297 466.544C356.297 463.407 355.256 461.301 353.173 460.225C352.003 459.616 350.247 459.312 347.907 459.312H335.339V473.214H347.591C350.025 473.214 351.85 472.933 353.067 472.371ZM428.79 477.532H418.539C418.352 476.104 417.872 474.817 417.1 473.67C415.976 472.125 414.233 471.353 411.869 471.353C408.499 471.353 406.194 473.026 404.953 476.373C404.298 478.152 403.97 480.516 403.97 483.464C403.97 486.273 404.298 488.531 404.953 490.24C406.147 493.423 408.394 495.014 411.694 495.014C414.034 495.014 415.696 494.382 416.679 493.118C417.661 491.855 418.258 490.216 418.469 488.204H428.685C428.451 491.246 427.351 494.125 425.385 496.84C422.249 501.216 417.603 503.404 411.448 503.404C405.293 503.404 400.764 501.579 397.862 497.928C394.96 494.277 393.509 489.538 393.509 483.71C393.509 477.134 395.112 472.02 398.318 468.369C401.525 464.718 405.948 462.893 411.588 462.893C416.386 462.893 420.306 463.969 423.349 466.122C426.414 468.275 428.228 472.079 428.79 477.532ZM467.617 468.65C470.846 472.699 472.461 477.485 472.461 483.008C472.461 488.625 470.846 493.434 467.617 497.436C464.387 501.415 459.484 503.404 452.907 503.404C446.331 503.404 441.428 501.415 438.198 497.436C434.968 493.434 433.354 488.625 433.354 483.008C433.354 477.485 434.968 472.699 438.198 468.65C441.428 464.601 446.331 462.577 452.907 462.577C459.484 462.577 464.387 464.601 467.617 468.65ZM452.872 471.037C449.947 471.037 447.688 472.079 446.097 474.161C444.529 476.221 443.745 479.17 443.745 483.008C443.745 486.846 444.529 489.807 446.097 491.89C447.688 493.973 449.947 495.014 452.872 495.014C455.798 495.014 458.044 493.973 459.612 491.89C461.181 489.807 461.965 486.846 461.965 483.008C461.965 479.17 461.181 476.221 459.612 474.161C458.044 472.079 455.798 471.037 452.872 471.037ZM514.482 450.395V502.07H504.758V496.769C503.331 499.04 501.704 500.689 499.878 501.719C498.053 502.749 495.783 503.264 493.068 503.264C488.598 503.264 484.83 501.462 481.764 497.858C478.722 494.23 477.2 489.584 477.2 483.921C477.2 477.391 478.698 472.254 481.694 468.509C484.713 464.765 488.738 462.893 493.77 462.893C496.087 462.893 498.147 463.407 499.949 464.437C501.751 465.444 503.213 466.848 504.337 468.65V450.395H514.482ZM487.521 483.184C487.521 486.718 488.223 489.538 489.628 491.644C491.008 493.774 493.115 494.839 495.947 494.839C498.778 494.839 500.932 493.785 502.406 491.679C503.88 489.573 504.618 486.846 504.618 483.5C504.618 478.819 503.436 475.472 501.072 473.459C499.621 472.242 497.936 471.634 496.017 471.634C493.091 471.634 490.938 472.746 489.557 474.969C488.2 477.169 487.521 479.907 487.521 483.184ZM556.363 490.837C556.106 493.107 554.924 495.412 552.818 497.752C549.541 501.474 544.954 503.334 539.056 503.334C534.188 503.334 529.894 501.766 526.172 498.63C522.451 495.494 520.591 490.392 520.591 483.324C520.591 476.701 522.264 471.622 525.611 468.088C528.981 464.554 533.346 462.787 538.705 462.787C541.888 462.787 544.755 463.384 547.306 464.578C549.857 465.771 551.963 467.655 553.625 470.23C555.123 472.5 556.094 475.133 556.539 478.128C556.796 479.884 556.901 482.411 556.855 485.711H530.666C530.806 489.549 532.012 492.241 534.282 493.785C535.663 494.745 537.324 495.225 539.267 495.225C541.326 495.225 543 494.64 544.287 493.469C544.989 492.838 545.609 491.96 546.147 490.837H556.363ZM546.463 479.111C546.3 476.467 545.492 474.466 544.041 473.108C542.614 471.727 540.835 471.037 538.705 471.037C536.388 471.037 534.586 471.763 533.299 473.214C532.035 474.665 531.239 476.631 530.912 479.111H546.463Z" fill="#C2C2C2"/>
</g>
<defs>
<clipPath id="clip0_237:444">
<rect width="824" height="1000" fill="white"/>
</clipPath>
</defs>
</svg>
