<?xml version="1.0" encoding="UTF-8" standalone="no"?>
<svg
   xmlns:dc="http://purl.org/dc/elements/1.1/"
   xmlns:cc="http://creativecommons.org/ns#"
   xmlns:rdf="http://www.w3.org/1999/02/22-rdf-syntax-ns#"
   xmlns:svg="http://www.w3.org/2000/svg"
   xmlns="http://www.w3.org/2000/svg"
   xmlns:sodipodi="http://sodipodi.sourceforge.net/DTD/sodipodi-0.dtd"
   xmlns:inkscape="http://www.inkscape.org/namespaces/inkscape"
   version="1.1"
   id="svg2"
   xml:space="preserve"
   width="666.66669"
   height="666.66669"
   viewBox="0 0 666.66669 666.66669"
   sodipodi:docname="general-qr-code-frame-28.eps"><metadata
     id="metadata8"><rdf:RDF><cc:Work
         rdf:about=""><dc:format>image/svg+xml</dc:format><dc:type
           rdf:resource="http://purl.org/dc/dcmitype/StillImage" /></cc:Work></rdf:RDF></metadata><defs
     id="defs6" /><sodipodi:namedview
     pagecolor="#ffffff"
     bordercolor="#666666"
     borderopacity="1"
     objecttolerance="10"
     gridtolerance="10"
     guidetolerance="10"
     inkscape:pageopacity="0"
     inkscape:pageshadow="2"
     inkscape:window-width="640"
     inkscape:window-height="480"
     id="namedview4" /><g
     id="g10"
     inkscape:groupmode="layer"
     inkscape:label="ink_ext_XXXXXX"
     transform="matrix(1.3333333,0,0,-1.3333333,0,666.66667)"><g
       id="g12"
       transform="scale(0.1)"><path
         d="m 2026.38,826.57 c -129.34,0 -234.56,105.231 -234.56,234.57 v 2496.15 c 0,129.34 105.22,234.57 234.56,234.57 h 2394.98 c 129.33,0 234.56,-105.23 234.56,-234.57 V 1061.14 c 0,-129.339 -105.23,-234.57 -234.56,-234.57 H 2026.38"
         style="fill:#ffffff;fill-opacity:1;fill-rule:nonzero;stroke:none"
         id="path14" /><path
         d="M 4421.36,3816.85 H 2026.38 c -143.12,0 -259.56,-116.44 -259.56,-259.56 V 1061.14 c 0,-143.128 116.44,-259.558 259.56,-259.558 h 2394.98 c 143.12,0 259.56,116.43 259.56,259.558 v 2496.15 c 0,143.12 -116.44,259.56 -259.56,259.56 z m 0,-49.99 c 115.74,0 209.57,-93.83 209.57,-209.57 V 1061.14 c 0,-115.742 -93.83,-209.57 -209.57,-209.57 H 2026.38 c -115.75,0 -209.57,93.828 -209.57,209.57 v 2496.15 c 0,115.74 93.82,209.57 209.57,209.57 h 2394.98"
         style="fill:#2a2a2b;fill-opacity:1;fill-rule:nonzero;stroke:none"
         id="path16" /><path
         d="M 4400.63,1132.45 H 2047.1 V 3485.98 H 4400.63 V 1132.45"
         style="fill:#ffffff;fill-opacity:1;fill-rule:nonzero;stroke:none"
         id="path18" /><path
         d="M 4225.68,1310.53 H 2222.06 V 3314.16 H 4225.68 V 1310.53"
         style="fill:#ffffff;fill-opacity:1;fill-rule:nonzero;stroke:none"
         id="path20" /><path
         d="m 4181.42,2834.08 h 88.52 v 524.34 H 3745.6 v -88.52 h 435.82 v -435.82"
         style="fill:#a6a7a7;fill-opacity:1;fill-rule:nonzero;stroke:none"
         id="path22" /><path
         d="m 2266.32,2834.08 v 435.82 h 435.81 v 88.52 H 2177.8 v -524.34 h 88.52"
         style="fill:#a6a7a7;fill-opacity:1;fill-rule:nonzero;stroke:none"
         id="path24" /><path
         d="m 2266.32,1790.61 h -88.52 v -524.34 h 524.33 v 88.52 h -435.81 v 435.82"
         style="fill:#a6a7a7;fill-opacity:1;fill-rule:nonzero;stroke:none"
         id="path26" /><path
         d="M 4181.42,1790.61 V 1354.79 H 3745.6 v -88.52 h 524.34 v 524.34 h -88.52"
         style="fill:#a6a7a7;fill-opacity:1;fill-rule:nonzero;stroke:none"
         id="path28" /><path
         d="m 2576.78,2507.2 -65.14,143.37 -65.49,-143.37 z m -73.64,163.55 h 17.71 l 115.4,-249.57 h -20.18 l -31.5,69.38 h -146.21 l -31.5,-69.38 h -19.12 l 115.4,249.57"
         style="fill:#a6a7a7;fill-opacity:1;fill-rule:nonzero;stroke:none"
         id="path30" /><path
         d="m 2827.46,2511.8 c 0,46.38 -36.1,77.53 -73.63,77.53 -39.29,0 -70.8,-28.68 -70.8,-77.88 0,-47.44 32.93,-77.88 70.8,-77.88 37.53,0 73.63,31.5 73.63,78.23 z m -163.19,-0.35 c 0,58.76 44.25,94.52 87.79,94.52 36.11,0 59.47,-20.54 74.35,-43.19 v 116.82 h 17.34 v -258.42 h -17.34 v 40.35 c -15.58,-23.71 -38.6,-44.6 -74.35,-44.6 -43.54,0 -87.79,35.05 -87.79,94.52"
         style="fill:#a6a7a7;fill-opacity:1;fill-rule:nonzero;stroke:none"
         id="path32" /><path
         d="m 3061.14,2511.8 c 0,46.38 -36.1,77.53 -73.63,77.53 -39.29,0 -70.8,-28.68 -70.8,-77.88 0,-47.44 32.93,-77.88 70.8,-77.88 37.53,0 73.63,31.5 73.63,78.23 z m -163.19,-0.35 c 0,58.76 44.25,94.52 87.79,94.52 36.12,0 59.47,-20.54 74.35,-43.19 v 116.82 h 17.34 v -258.42 h -17.34 v 40.35 c -15.58,-23.71 -38.6,-44.6 -74.35,-44.6 -43.54,0 -87.79,35.05 -87.79,94.52"
         style="fill:#a6a7a7;fill-opacity:1;fill-rule:nonzero;stroke:none"
         id="path34" /><path
         d="m 3235.72,2371.26 6.02,15.22 c 9.56,-4.6 17.35,-6.72 30.8,-6.72 18.76,0 31.15,10.97 44.61,42.48 l -86.74,179.48 h 20.19 l 75.04,-161.43 65.14,161.43 h 19.11 l -78.23,-186.92 c -15.93,-37.87 -34.34,-51.33 -60.19,-51.33 -13.79,0 -23.71,2.48 -35.75,7.79"
         style="fill:#a6a7a7;fill-opacity:1;fill-rule:nonzero;stroke:none"
         id="path36" /><path
         d="m 3601.45,2511.45 c 0,43.54 -33.64,78.23 -74.35,78.23 -40.7,0 -73.63,-35.05 -73.63,-78.23 0,-43.54 32.57,-78.24 74.34,-78.24 40,0 73.64,35.05 73.64,78.24 z m -166.74,0 c 0,50.62 39.29,94.52 93.1,94.52 53.46,0 92.4,-43.19 92.4,-94.52 0,-50.62 -39.3,-94.52 -93.11,-94.52 -53.45,0 -92.39,43.19 -92.39,94.52"
         style="fill:#a6a7a7;fill-opacity:1;fill-rule:nonzero;stroke:none"
         id="path38" /><path
         d="m 3670.17,2491.27 v 110.45 h 17.34 v -107.26 c 0,-37.17 20.89,-61.6 57.35,-61.6 35.4,0 62.66,26.9 62.66,64.43 v 104.43 h 17.34 v -180.54 h -17.34 v 33.63 c -12.04,-21.24 -32.22,-37.88 -65.14,-37.88 -45.66,0 -72.21,31.15 -72.21,74.34"
         style="fill:#a6a7a7;fill-opacity:1;fill-rule:nonzero;stroke:none"
         id="path40" /><path
         d="m 3890.74,2601.72 h 17.36 v -51.33 c 14.16,32.21 44.24,55.58 80,54.16 v -19.12 h -1.77 c -41.78,0 -78.23,-31.5 -78.23,-90.27 v -73.98 h -17.36 v 180.54"
         style="fill:#a6a7a7;fill-opacity:1;fill-rule:nonzero;stroke:none"
         id="path42" /><path
         d="m 2570.77,2049.04 -40.36,34.34 34.7,38.94 40.7,-36.82 c 4.61,10.27 6.73,21.59 6.73,34.7 0,42.48 -31.15,77.88 -75.05,77.88 -43.9,0 -74.34,-34.7 -74.34,-77.88 0,-42.49 31.16,-77.89 75.05,-77.89 12.03,0 23.01,2.48 32.57,6.73 z m 40.35,-35.75 c -20.89,-13.46 -46.01,-21.24 -73.63,-21.24 -76.46,0 -131.34,56.99 -131.34,128.15 0,70.44 55.59,128.14 132.05,128.14 76.47,0 131.33,-56.99 131.33,-128.14 0,-25.85 -7.78,-50.62 -21.94,-71.16 l 25.49,-21.59 -34.7,-38.59 -27.26,24.43"
         style="fill:#a6a7a7;fill-opacity:1;fill-rule:nonzero;stroke:none"
         id="path44" /><path
         d="m 2827.83,2123.74 c 26.55,0 41.77,14.16 41.77,35.75 0,23.37 -16.28,35.4 -42.83,35.4 h -54.16 v -71.15 z m -109.74,120.36 h 113.28 c 31.5,0 55.93,-8.85 72.21,-25.14 13.81,-13.8 21.24,-33.27 21.24,-57.34 0,-40.01 -21.59,-65.14 -53.09,-76.83 l 60.53,-88.5 h -63.72 l -53.81,79.3 h -42.12 v -79.3 h -54.52 v 247.81"
         style="fill:#a6a7a7;fill-opacity:1;fill-rule:nonzero;stroke:none"
         id="path46" /><path
         d="m 3069.32,2120.2 c 0,70.44 53.1,128.14 129.22,128.14 46.72,0 72.92,-17.7 95.92,-40.35 l -32.57,-37.53 c -19.11,17.35 -35.4,27.62 -63.72,27.62 -41.76,0 -71.85,-34.7 -71.85,-77.88 0,-42.49 29.37,-77.89 71.85,-77.89 28.32,0 45.68,11.33 65.14,29.03 l 34.7,-37.17 c -25.49,-27.26 -53.81,-42.12 -101.6,-42.12 -72.92,0 -127.09,56.28 -127.09,128.15"
         style="fill:#a6a7a7;fill-opacity:1;fill-rule:nonzero;stroke:none"
         id="path48" /><path
         d="m 3475.41,2090.82 c 0,27.96 -20.19,52.39 -49.92,52.39 -30.79,0 -49.2,-23.72 -49.2,-52.39 0,-27.97 20.17,-52.4 49.91,-52.4 30.8,0 49.21,23.72 49.21,52.4 z m -152.23,0 c 0,54.51 43.9,98.76 103.02,98.76 58.76,0 102.31,-43.54 102.31,-98.76 0,-54.53 -43.9,-98.77 -103.02,-98.77 -58.76,0 -102.31,43.54 -102.31,98.77"
         style="fill:#a6a7a7;fill-opacity:1;fill-rule:nonzero;stroke:none"
         id="path50" /><path
         d="m 3705.2,2091.52 c 0,31.51 -20.89,52.39 -46.03,52.39 -25.13,0 -46.37,-20.53 -46.37,-53.09 0,-31.51 21.24,-52.4 46.37,-52.4 25.14,0 46.03,20.89 46.03,53.1 z m -146.21,0 c 0,63.37 41.42,98.06 86.38,98.06 28.67,0 46.37,-13.1 59.11,-28.32 v 93.46 h 53.81 v -258.43 h -53.81 v 27.26 c -13.09,-17.7 -31.15,-30.8 -59.11,-30.8 -44.26,0 -86.38,34.7 -86.38,98.77"
         style="fill:#a6a7a7;fill-opacity:1;fill-rule:nonzero;stroke:none"
         id="path52" /><path
         d="m 3931.09,2106.04 c -3.19,24.07 -17.35,40.35 -40.01,40.35 -22.29,0 -36.81,-15.93 -41.06,-40.35 z m -133.81,-15.22 c 0,54.16 38.58,98.76 93.8,98.76 63.37,0 92.41,-49.2 92.41,-103.01 0,-4.25 -0.36,-9.21 -0.72,-14.16 h -132.04 c 5.31,-24.43 22.31,-37.18 46.38,-37.18 18.05,0 31.15,5.67 46.02,19.47 l 30.8,-27.25 c -17.71,-21.95 -43.2,-35.4 -77.53,-35.4 -57,0 -99.12,40 -99.12,98.77"
         style="fill:#a6a7a7;fill-opacity:1;fill-rule:nonzero;stroke:none"
         id="path54" /><path
         d="M 1889.57,1512.47 H 374.766 c -72.383,0 -131.067,58.68 -131.067,131.06 v 533.06 c 0,72.38 58.684,131.06 131.067,131.06 H 1889.57 c 72.38,0 131.06,-58.68 131.06,-131.06 v -533.06 c 0,-72.38 -58.68,-131.06 -131.06,-131.06"
         style="fill:#2a2a2b;fill-opacity:1;fill-rule:nonzero;stroke:none"
         id="path56" /><path
         d="m 454.766,1982.86 20.722,24.64 c 18.758,-16.24 37.52,-25.48 61.875,-25.48 21.289,0 34.727,9.8 34.727,25.2 0,14 -7.844,21.56 -44.238,30.24 -41.719,9.8 -65.247,22.12 -65.247,58.8 0,33.6 28,56.84 66.926,56.84 28.555,0 51.231,-8.68 71.114,-24.64 l -18.477,-26.04 c -17.637,13.16 -35.273,20.16 -53.203,20.16 -20.156,0 -31.914,-10.36 -31.914,-23.8 0,-15.12 8.965,-21.84 46.484,-30.8 41.438,-10.08 62.988,-24.92 62.988,-57.96 0,-36.68 -28.828,-58.52 -70,-58.52 -29.96,0 -58.23,10.36 -81.757,31.36"
         style="fill:#ffffff;fill-opacity:1;fill-rule:nonzero;stroke:none"
         id="path58" /><path
         d="m 638.445,2052.3 c 0,55.72 41.723,101.36 101.086,101.36 36.114,0 57.957,-12.6 76.719,-30.52 l -22.129,-25.48 c -15.676,14.56 -32.473,24.36 -54.875,24.36 -37.516,0 -64.676,-30.8 -64.676,-69.72 0,-38.36 27.16,-69.72 64.676,-69.72 24.082,0 39.484,9.8 56.281,25.48 l 22.118,-22.4 c -20.438,-21.28 -42.84,-34.72 -79.52,-34.72 -57.109,0 -99.68,44.52 -99.68,101.36"
         style="fill:#ffffff;fill-opacity:1;fill-rule:nonzero;stroke:none"
         id="path60" /><path
         d="m 972.48,2032.14 -33.875,78.4 -33.605,-78.4 z m -49.277,119.56 h 31.914 l 86.253,-197.4 h -36.41 l -19.882,47.32 h -92.676 l -20.156,-47.32 h -35.281 l 86.238,197.4"
         style="fill:#ffffff;fill-opacity:1;fill-rule:nonzero;stroke:none"
         id="path62" /><path
         d="m 1074.96,2150.3 h 31.92 l 105,-135.52 v 135.52 h 33.88 v -196 h -28.85 l -108.06,139.44 V 1954.3 h -33.89 v 196"
         style="fill:#ffffff;fill-opacity:1;fill-rule:nonzero;stroke:none"
         id="path64" /><path
         d="m 1416.15,2150.3 h 36.68 l 59.65,-92.68 59.63,92.68 h 36.68 v -196 h -34.43 v 140.56 l -61.88,-92.4 h -1.12 l -61.32,91.84 v -140 h -33.89 v 196"
         style="fill:#ffffff;fill-opacity:1;fill-rule:nonzero;stroke:none"
         id="path66" /><path
         d="m 1659.2,2150.3 h 145.31 v -30.8 h -110.88 v -50.96 h 98.28 v -30.8 h -98.28 v -52.64 h 112.29 v -30.8 H 1659.2 v 196"
         style="fill:#ffffff;fill-opacity:1;fill-rule:nonzero;stroke:none"
         id="path68" /><path
         d="m 1683.55,1836.71 h -73.42 l 99.8,-122.56 -99.8,-122.56 h 73.42 l 99.8,122.56 -99.8,122.56"
         style="fill:#ffffff;fill-opacity:1;fill-rule:nonzero;stroke:none"
         id="path70" /><path
         d="m 1464.83,1683.92 h 261.29 v 60.46 h -261.29 v -60.46"
         style="fill:#ffffff;fill-opacity:1;fill-rule:nonzero;stroke:none"
         id="path72" /></g></g></svg>
