<?xml version="1.0" encoding="UTF-8" standalone="no"?>
<svg
   xmlns:dc="http://purl.org/dc/elements/1.1/"
   xmlns:cc="http://creativecommons.org/ns#"
   xmlns:rdf="http://www.w3.org/1999/02/22-rdf-syntax-ns#"
   xmlns:svg="http://www.w3.org/2000/svg"
   xmlns="http://www.w3.org/2000/svg"
   xmlns:sodipodi="http://sodipodi.sourceforge.net/DTD/sodipodi-0.dtd"
   xmlns:inkscape="http://www.inkscape.org/namespaces/inkscape"
   version="1.1"
   id="svg2"
   xml:space="preserve"
   width="666.66669"
   height="666.66669"
   viewBox="0 0 666.66669 666.66669"
   sodipodi:docname="general-qr-code-frame-32.eps"><metadata
     id="metadata8"><rdf:RDF><cc:Work
         rdf:about=""><dc:format>image/svg+xml</dc:format><dc:type
           rdf:resource="http://purl.org/dc/dcmitype/StillImage" /></cc:Work></rdf:RDF></metadata><defs
     id="defs6" /><sodipodi:namedview
     pagecolor="#ffffff"
     bordercolor="#666666"
     borderopacity="1"
     objecttolerance="10"
     gridtolerance="10"
     guidetolerance="10"
     inkscape:pageopacity="0"
     inkscape:pageshadow="2"
     inkscape:window-width="640"
     inkscape:window-height="480"
     id="namedview4" /><g
     id="g10"
     inkscape:groupmode="layer"
     inkscape:label="ink_ext_XXXXXX"
     transform="matrix(1.3333333,0,0,-1.3333333,0,666.66667)"><g
       id="g12"
       transform="scale(0.1)"><path
         d="M 3771.36,1575.53 H 1451.09 c -150.43,0 -272.36,121.94 -272.36,272.37 v 2544.63 c 0,150.42 121.93,272.36 272.36,272.36 h 2320.27 c 150.43,0 272.37,-121.94 272.37,-272.36 V 1847.9 c 0,-150.43 -121.94,-272.37 -272.37,-272.37"
         style="fill:#ffffff;fill-opacity:1;fill-rule:nonzero;stroke:none"
         id="path14" /><path
         d="M 3771.36,1575.53 H 1451.09 c -150.43,0 -272.36,121.94 -272.36,272.37 v 2544.63 c 0,150.42 121.93,272.36 272.36,272.36 h 2320.27 c 150.43,0 272.37,-121.94 272.37,-272.36 V 1847.9 c 0,-150.43 -121.94,-272.37 -272.37,-272.37 z"
         style="fill:none;stroke:#2a2a2b;stroke-width:60.83;stroke-linecap:square;stroke-linejoin:miter;stroke-miterlimit:10;stroke-dasharray:none;stroke-opacity:1"
         id="path16" /><path
         d="M 3787.99,2127.54 H 1434.46 V 4481.07 H 3787.99 V 2127.54"
         style="fill:#ffffff;fill-opacity:1;fill-rule:nonzero;stroke:none"
         id="path18" /><path
         d="M 3613.04,2305.62 H 1609.41 V 4309.25 H 3613.04 V 2305.62"
         style="fill:#ffffff;fill-opacity:1;fill-rule:nonzero;stroke:none"
         id="path20" /><path
         d="m 3568.78,3829.17 h 88.51 v 524.34 h -524.33 v -88.52 h 435.82 v -435.82"
         style="fill:#a6a7a7;fill-opacity:1;fill-rule:nonzero;stroke:none"
         id="path22" /><path
         d="m 1653.67,3829.17 v 435.82 h 435.82 v 88.52 h -524.33 v -524.34 h 88.51"
         style="fill:#a6a7a7;fill-opacity:1;fill-rule:nonzero;stroke:none"
         id="path24" /><path
         d="m 1653.67,2785.7 h -88.51 v -524.34 h 524.33 v 88.52 h -435.82 v 435.82"
         style="fill:#a6a7a7;fill-opacity:1;fill-rule:nonzero;stroke:none"
         id="path26" /><path
         d="m 3568.78,2785.7 v -435.82 h -435.82 v -88.52 h 524.33 v 524.34 h -88.51"
         style="fill:#a6a7a7;fill-opacity:1;fill-rule:nonzero;stroke:none"
         id="path28" /><path
         d="m 1964.14,3502.29 -65.14,143.37 -65.48,-143.37 z m -73.63,163.54 h 17.69 l 115.41,-249.57 h -20.17 l -31.52,69.39 h -146.2 l -31.5,-69.39 h -19.12 l 115.41,249.57"
         style="fill:#a6a7a7;fill-opacity:1;fill-rule:nonzero;stroke:none"
         id="path30" /><path
         d="m 2214.82,3506.89 c 0,46.38 -36.1,77.53 -73.63,77.53 -39.3,0 -70.8,-28.68 -70.8,-77.88 0,-47.44 32.92,-77.88 70.8,-77.88 37.53,0 73.63,31.5 73.63,78.23 z m -163.19,-0.35 c 0,58.76 44.25,94.51 87.79,94.51 36.11,0 59.48,-20.53 74.34,-43.18 v 116.82 h 17.35 v -258.43 h -17.35 v 40.36 c -15.58,-23.71 -38.58,-44.6 -74.34,-44.6 -43.54,0 -87.79,35.05 -87.79,94.52"
         style="fill:#a6a7a7;fill-opacity:1;fill-rule:nonzero;stroke:none"
         id="path32" /><path
         d="m 2448.51,3506.89 c 0,46.38 -36.11,77.53 -73.64,77.53 -39.29,0 -70.8,-28.68 -70.8,-77.88 0,-47.44 32.92,-77.88 70.8,-77.88 37.53,0 73.64,31.5 73.64,78.23 z m -163.2,-0.35 c 0,58.76 44.25,94.51 87.8,94.51 36.1,0 59.47,-20.53 74.33,-43.18 v 116.82 h 17.35 v -258.43 h -17.35 v 40.36 c -15.57,-23.71 -38.58,-44.6 -74.33,-44.6 -43.55,0 -87.8,35.05 -87.8,94.52"
         style="fill:#a6a7a7;fill-opacity:1;fill-rule:nonzero;stroke:none"
         id="path34" /><path
         d="m 2623.09,3366.35 6.01,15.22 c 9.56,-4.6 17.35,-6.72 30.8,-6.72 18.76,0 31.15,10.97 44.6,42.48 l -86.73,179.48 h 20.18 l 75.05,-161.43 65.13,161.43 h 19.13 l -78.24,-186.92 c -15.93,-37.87 -34.34,-51.33 -60.18,-51.33 -13.81,0 -23.72,2.48 -35.75,7.79"
         style="fill:#a6a7a7;fill-opacity:1;fill-rule:nonzero;stroke:none"
         id="path36" /><path
         d="m 2988.81,3506.54 c 0,43.54 -33.63,78.23 -74.35,78.23 -40.71,0 -73.63,-35.05 -73.63,-78.23 0,-43.55 32.57,-78.24 74.35,-78.24 40,0 73.63,35.04 73.63,78.24 z m -166.74,0 c 0,50.62 39.3,94.51 93.11,94.51 53.44,0 92.39,-43.18 92.39,-94.51 0,-50.63 -39.3,-94.52 -93.11,-94.52 -53.45,0 -92.39,43.19 -92.39,94.52"
         style="fill:#a6a7a7;fill-opacity:1;fill-rule:nonzero;stroke:none"
         id="path38" /><path
         d="m 3057.53,3486.36 v 110.45 h 17.34 v -107.26 c 0,-37.18 20.89,-61.61 57.35,-61.61 35.4,0 62.66,26.91 62.66,64.44 v 104.43 h 17.35 v -180.55 h -17.35 v 33.64 c -12.04,-21.24 -32.21,-37.88 -65.13,-37.88 -45.68,0 -72.22,31.15 -72.22,74.34"
         style="fill:#a6a7a7;fill-opacity:1;fill-rule:nonzero;stroke:none"
         id="path40" /><path
         d="m 3278.11,3596.81 h 17.34 v -51.34 c 14.16,32.22 44.26,55.58 80.01,54.17 v -19.12 h -1.77 c -41.78,0 -78.24,-31.5 -78.24,-90.27 v -73.99 h -17.34 v 180.55"
         style="fill:#a6a7a7;fill-opacity:1;fill-rule:nonzero;stroke:none"
         id="path42" /><path
         d="m 1958.13,3044.13 -40.36,34.34 34.69,38.94 40.71,-36.82 c 4.6,10.26 6.73,21.59 6.73,34.69 0,42.48 -31.15,77.88 -75.05,77.88 -43.89,0 -74.34,-34.69 -74.34,-77.88 0,-42.48 31.15,-77.88 75.05,-77.88 12.04,0 23.01,2.48 32.57,6.73 z m 40.36,-35.76 c -20.89,-13.45 -46.03,-21.24 -73.64,-21.24 -76.46,0 -131.33,57 -131.33,128.15 0,70.45 55.57,128.15 132.04,128.15 76.46,0 131.33,-56.99 131.33,-128.15 0,-25.84 -7.78,-50.62 -21.94,-71.15 l 25.49,-21.6 -34.7,-38.58 -27.25,24.42"
         style="fill:#a6a7a7;fill-opacity:1;fill-rule:nonzero;stroke:none"
         id="path44" /><path
         d="m 2215.19,3118.82 c 26.55,0 41.77,14.16 41.77,35.76 0,23.36 -16.29,35.4 -42.83,35.4 h -54.17 v -71.16 z m -109.74,120.36 h 113.28 c 31.5,0 55.93,-8.84 72.22,-25.13 13.81,-13.81 21.24,-33.27 21.24,-57.35 0,-40 -21.59,-65.13 -53.11,-76.82 l 60.54,-88.5 h -63.72 l -53.81,79.3 h -42.13 v -79.3 h -54.51 v 247.8"
         style="fill:#a6a7a7;fill-opacity:1;fill-rule:nonzero;stroke:none"
         id="path46" /><path
         d="m 2456.68,3115.28 c 0,70.45 53.11,128.15 129.21,128.15 46.73,0 72.93,-17.7 95.94,-40.35 l -32.57,-37.53 c -19.11,17.35 -35.4,27.61 -63.72,27.61 -41.77,0 -71.87,-34.69 -71.87,-77.88 0,-42.48 29.39,-77.88 71.87,-77.88 28.32,0 45.66,11.33 65.13,29.03 l 34.7,-37.17 c -25.49,-27.26 -53.81,-42.13 -101.6,-42.13 -72.93,0 -127.09,56.29 -127.09,128.15"
         style="fill:#a6a7a7;fill-opacity:1;fill-rule:nonzero;stroke:none"
         id="path48" /><path
         d="m 2862.76,3085.9 c 0,27.97 -20.17,52.4 -49.91,52.4 -30.8,0 -49.21,-23.72 -49.21,-52.4 0,-27.97 20.19,-52.39 49.92,-52.39 30.8,0 49.2,23.72 49.2,52.39 z m -152.21,0 c 0,54.52 43.89,98.77 103.01,98.77 58.76,0 102.31,-43.54 102.31,-98.77 0,-54.52 -43.9,-98.77 -103.02,-98.77 -58.76,0 -102.3,43.55 -102.3,98.77"
         style="fill:#a6a7a7;fill-opacity:1;fill-rule:nonzero;stroke:none"
         id="path50" /><path
         d="m 3092.56,3086.61 c 0,31.51 -20.89,52.39 -46.03,52.39 -25.13,0 -46.37,-20.53 -46.37,-53.1 0,-31.51 21.24,-52.39 46.37,-52.39 25.14,0 46.03,20.88 46.03,53.1 z m -146.21,0 c 0,63.37 41.42,98.06 86.37,98.06 28.69,0 46.38,-13.1 59.13,-28.32 v 93.45 h 53.8 v -258.42 h -53.8 v 27.26 c -13.1,-17.7 -31.16,-30.8 -59.13,-30.8 -44.24,0 -86.37,34.69 -86.37,98.77"
         style="fill:#a6a7a7;fill-opacity:1;fill-rule:nonzero;stroke:none"
         id="path52" /><path
         d="m 3318.45,3101.12 c -3.19,24.08 -17.35,40.36 -40,40.36 -22.31,0 -36.82,-15.93 -41.07,-40.36 z m -133.81,-15.22 c 0,54.16 38.58,98.77 93.81,98.77 63.37,0 92.39,-49.21 92.39,-103.01 0,-4.25 -0.35,-9.21 -0.7,-14.16 H 3238.1 c 5.3,-24.43 22.29,-37.18 46.36,-37.18 18.06,0 31.16,5.67 46.03,19.47 l 30.8,-27.26 c -17.71,-21.94 -43.19,-35.4 -77.53,-35.4 -56.99,0 -99.12,40 -99.12,98.77"
         style="fill:#a6a7a7;fill-opacity:1;fill-rule:nonzero;stroke:none"
         id="path54" /><path
         d="m 3521.66,1327.56 c 0,-502.81 -407.62,-910.431 -910.43,-910.431 -502.82,0 -910.44,407.621 -910.44,910.431 0,502.82 407.62,910.44 910.44,910.44 502.81,0 910.43,-407.62 910.43,-910.44"
         style="fill:#2a2a2b;fill-opacity:1;fill-rule:nonzero;stroke:none"
         id="path56" /><path
         d="m 2098.68,1579.61 11.91,13.65 c 26.95,-24.85 51.8,-36.4 87.86,-36.4 36.75,0 61.95,20.65 61.95,49.35 0,25.9 -13.65,40.96 -69.31,52.16 -58.8,11.9 -82.6,31.84 -82.6,69.66 0,36.4 33.25,64.4 78.76,64.4 35.7,0 59.15,-9.79 84,-29.75 l -11.55,-14.36 c -23.11,19.96 -46.2,27.66 -73.16,27.66 -36.05,0 -59.85,-20.65 -59.85,-46.9 0,-25.91 13.3,-41.66 71.41,-53.55 56.69,-11.57 80.5,-31.86 80.5,-68.26 0,-39.56 -33.95,-66.86 -81.21,-66.86 -39.21,0 -69.3,12.95 -98.71,39.2"
         style="fill:#ffffff;fill-opacity:1;fill-rule:nonzero;stroke:none"
         id="path58" /><path
         d="m 2327.58,1666.43 c 0,69.29 51.8,126.69 122.52,126.69 43.75,0 68.95,-17.14 94.16,-40.25 l -11.91,-12.25 c -21.35,20.66 -45.86,36.06 -82.6,36.06 -58.81,0 -103.27,-47.95 -103.27,-110.25 0,-61.97 45.16,-110.28 103.62,-110.28 35.35,0 59.5,13.65 84.35,38.17 l 12.26,-11.91 c -25.91,-25.55 -53.91,-42.7 -97.32,-42.7 -70.01,0 -121.81,55.65 -121.81,126.72"
         style="fill:#ffffff;fill-opacity:1;fill-rule:nonzero;stroke:none"
         id="path60" /><path
         d="m 2762.65,1628.96 -64.41,141.76 -64.75,-141.76 z m -72.82,161.72 h 17.51 l 114.12,-246.77 h -19.96 l -31.15,68.61 h -144.57 l -31.15,-68.61 h -18.91 l 114.11,246.77"
         style="fill:#ffffff;fill-opacity:1;fill-rule:nonzero;stroke:none"
         id="path62" /><path
         d="m 2873.23,1788.93 h 17.15 l 169.06,-213.17 v 213.17 h 17.51 v -245.02 h -13.65 l -172.57,217.72 v -217.72 h -17.5 v 245.02"
         style="fill:#ffffff;fill-opacity:1;fill-rule:nonzero;stroke:none"
         id="path64" /><path
         d="m 2136.84,1383.96 h 116.21 l 128.82,-207.22 128.8,207.22 h 116.21 V 893.91 h -107.1 v 319.93 l -137.91,-209.33 h -2.81 l -136.51,207.23 V 893.91 h -105.71 v 490.05"
         style="fill:#ffffff;fill-opacity:1;fill-rule:nonzero;stroke:none"
         id="path66" /><path
         d="m 2744.43,1383.96 h 369.64 v -95.91 h -262.53 v -99.42 h 231.03 v -95.9 H 2851.54 V 989.809 h 266.03 V 893.91 h -373.14 v 490.05"
         style="fill:#ffffff;fill-opacity:1;fill-rule:nonzero;stroke:none"
         id="path68" /></g></g></svg>
