<svg width="550" height="1000" viewBox="0 0 550 1000" fill="none" xmlns="http://www.w3.org/2000/svg">
<circle cx="275" cy="529.5" r="257.5" fill="#333333"/>
<path d="M339.936 752.964L327.303 714.418L335.985 711.571L356.789 737.472L358.199 704.289L366.855 701.452L379.49 740L372.819 742.188L368.653 729.479L363.744 712.266L362.095 745.7L357.303 747.273L336.219 721.317L342.442 738.07L346.608 750.777L339.936 752.964ZM398.63 730.498L378.447 695.311L401.285 682.212L404.112 687.143L387.39 696.735L392.961 706.45L407.413 698.16L410.185 702.994L395.733 711.283L401.943 722.111L418.837 712.421L421.636 717.303L398.63 730.498ZM294.815 759.535L287.767 759.587L269.477 730.939L269.686 759.718L262.638 759.769L262.342 719.206L269.392 719.154L287.738 747.913L287.528 719.023L294.521 718.972L294.815 759.535ZM236.636 747.209L221.195 744.296L216.213 752.967L209.013 751.609L231.592 714.589L237.807 715.761L245.37 758.469L238.142 757.106L236.636 747.209ZM224.193 739.078L235.746 741.258L233.09 723.631L224.193 739.078ZM199.252 734.905C197.283 738.78 194.557 741.333 191.075 742.565C187.594 743.796 183.703 743.563 179.401 741.864C176.395 740.678 174.028 738.92 172.302 736.59C170.576 734.261 169.609 731.538 169.402 728.421C169.195 725.304 169.751 721.999 171.07 718.507L172.461 714.983C173.867 711.423 175.736 708.537 178.067 706.323C180.399 704.108 183.034 702.732 185.972 702.195C188.91 701.657 191.925 701.999 195.018 703.219C199.181 704.863 202.086 707.319 203.732 710.584C205.378 713.85 205.593 717.63 204.377 721.922L197.848 719.344C198.607 716.509 198.589 714.24 197.793 712.538C196.998 710.836 195.374 709.501 192.92 708.532C190.07 707.406 187.469 707.583 185.118 709.061C182.768 710.539 180.78 713.284 179.157 717.295L177.837 720.639C176.227 724.716 175.729 728.113 176.343 730.832C176.957 733.55 178.672 735.466 181.488 736.578C184.062 737.594 186.226 737.779 187.978 737.134C189.731 736.487 191.312 734.885 192.721 732.327L199.252 734.905ZM148.606 714.949C149.549 713.436 149.743 711.938 149.19 710.455C148.637 708.972 147.234 706.949 144.981 704.385C142.727 701.82 141.1 699.514 140.1 697.468C138.19 693.543 138.223 689.996 140.198 686.828C141.927 684.053 144.483 682.473 147.864 682.085C151.246 681.699 154.742 682.629 158.352 684.88C160.748 686.372 162.608 688.145 163.934 690.197C165.26 692.249 165.95 694.424 166.006 696.724C166.06 699.024 165.469 701.166 164.231 703.152L158.273 699.439C159.393 697.641 159.706 695.884 159.213 694.164C158.719 692.445 157.425 690.932 155.328 689.626C153.374 688.407 151.596 687.88 149.995 688.043C148.395 688.205 147.128 689.035 146.195 690.532C145.409 691.793 145.337 693.209 145.978 694.78C146.618 696.349 148.03 698.368 150.214 700.834C152.398 703.3 153.984 705.547 154.974 707.576C155.964 709.604 156.427 711.513 156.364 713.3C156.299 715.088 155.717 716.865 154.617 718.63C152.83 721.5 150.307 723.096 147.053 723.42C143.798 723.744 140.287 722.732 136.519 720.383C134.029 718.832 132.027 716.943 130.513 714.72C128.998 712.496 128.168 710.211 128.022 707.865C127.875 705.52 128.475 703.267 129.82 701.107L135.802 704.836C134.585 706.791 134.288 708.706 134.912 710.584C135.537 712.461 137.055 714.151 139.467 715.655C141.547 716.951 143.375 717.505 144.948 717.315C146.523 717.125 147.741 716.337 148.606 714.949Z" fill="white"/>
<circle cx="275" cy="484" r="209" fill="white"/>
<circle cx="275" cy="481" r="193.5" fill="white" stroke="#333333" stroke-width="25"/>
<rect x="148" y="357" width="253" height="253" rx="5.06" fill="white"/>
<path d="M332.689 374.709H383.289V425.309" stroke="#C2C2C2" stroke-width="10.12"/>
<path d="M216.308 374.709H165.708V425.309" stroke="#C2C2C2" stroke-width="10.12"/>
<path d="M332.689 592.289H383.289V541.689" stroke="#C2C2C2" stroke-width="10.12"/>
<path d="M216.308 592.289H165.708V541.689" stroke="#C2C2C2" stroke-width="10.12"/>
<path d="M214.346 462.682L210.159 450.496L205.709 462.682H214.346ZM208.206 446.402H212.431L222.439 473.986H218.346L215.548 465.724H204.638L201.653 473.986H197.822L208.206 446.402ZM227.528 464.166C227.528 466.319 227.985 468.122 228.899 469.574C229.812 471.026 231.277 471.752 233.292 471.752C234.857 471.752 236.14 471.082 237.142 469.743C238.156 468.391 238.663 466.457 238.663 463.94C238.663 461.399 238.143 459.522 237.104 458.307C236.065 457.08 234.782 456.467 233.255 456.467C231.552 456.467 230.169 457.118 229.105 458.42C228.054 459.722 227.528 461.637 227.528 464.166ZM232.616 453.519C234.156 453.519 235.446 453.844 236.485 454.495C237.085 454.871 237.768 455.528 238.531 456.467V446.309H241.78V473.986H238.738V471.189C237.949 472.428 237.017 473.323 235.94 473.874C234.863 474.424 233.63 474.7 232.241 474.7C230 474.7 228.06 473.761 226.42 471.883C224.78 469.993 223.96 467.483 223.96 464.354C223.96 461.424 224.705 458.889 226.195 456.749C227.697 454.596 229.837 453.519 232.616 453.519ZM248.934 464.166C248.934 466.319 249.391 468.122 250.305 469.574C251.219 471.026 252.683 471.752 254.699 471.752C256.263 471.752 257.547 471.082 258.548 469.743C259.562 468.391 260.069 466.457 260.069 463.94C260.069 461.399 259.549 459.522 258.51 458.307C257.471 457.08 256.188 456.467 254.661 456.467C252.959 456.467 251.575 457.118 250.511 458.42C249.46 459.722 248.934 461.637 248.934 464.166ZM254.023 453.519C255.562 453.519 256.852 453.844 257.891 454.495C258.492 454.871 259.174 455.528 259.937 456.467V446.309H263.186V473.986H260.144V471.189C259.355 472.428 258.423 473.323 257.346 473.874C256.27 474.424 255.037 474.7 253.647 474.7C251.406 474.7 249.466 473.761 247.826 471.883C246.186 469.993 245.366 467.483 245.366 464.354C245.366 461.424 246.111 458.889 247.601 456.749C249.103 454.596 251.244 453.519 254.023 453.519ZM291.465 453.876H295.201C294.726 455.165 293.668 458.107 292.028 462.701C290.801 466.156 289.775 468.973 288.948 471.151C286.996 476.283 285.619 479.413 284.817 480.54C284.016 481.666 282.639 482.23 280.686 482.23C280.211 482.23 279.841 482.211 279.579 482.173C279.328 482.136 279.015 482.067 278.64 481.967V478.887C279.228 479.05 279.654 479.15 279.917 479.188C280.179 479.225 280.411 479.244 280.611 479.244C281.237 479.244 281.694 479.138 281.982 478.925C282.283 478.724 282.533 478.474 282.733 478.174C282.796 478.074 283.021 477.56 283.409 476.634C283.797 475.708 284.079 475.019 284.254 474.568L276.818 453.876H280.649L286.038 470.25L291.465 453.876ZM306.111 471.808C308.352 471.808 309.885 470.963 310.711 469.273C311.55 467.571 311.97 465.68 311.97 463.602C311.97 461.725 311.669 460.197 311.068 459.021C310.117 457.168 308.477 456.242 306.149 456.242C304.083 456.242 302.581 457.03 301.642 458.608C300.703 460.185 300.234 462.088 300.234 464.316C300.234 466.457 300.703 468.24 301.642 469.668C302.581 471.095 304.071 471.808 306.111 471.808ZM306.242 453.294C308.834 453.294 311.024 454.157 312.814 455.885C314.605 457.612 315.5 460.154 315.5 463.509C315.5 466.751 314.711 469.43 313.134 471.545C311.556 473.661 309.109 474.719 305.792 474.719C303.025 474.719 300.828 473.786 299.201 471.921C297.574 470.043 296.76 467.527 296.76 464.372C296.76 460.992 297.617 458.301 299.332 456.298C301.047 454.295 303.351 453.294 306.242 453.294ZM322.917 453.876V467.226C322.917 468.253 323.079 469.092 323.405 469.743C324.006 470.944 325.126 471.545 326.766 471.545C329.119 471.545 330.722 470.494 331.573 468.391C332.036 467.264 332.268 465.718 332.268 463.753V453.876H335.648V473.986H332.456L332.493 471.02C332.055 471.783 331.51 472.428 330.86 472.954C329.57 474.005 328.005 474.531 326.165 474.531C323.299 474.531 321.346 473.573 320.307 471.658C319.743 470.631 319.462 469.261 319.462 467.546V453.876H322.917ZM341.037 453.876H344.248V457.35C344.511 456.674 345.155 455.854 346.182 454.89C347.208 453.913 348.391 453.425 349.731 453.425C349.793 453.425 349.9 453.431 350.05 453.444C350.2 453.456 350.457 453.481 350.82 453.519V457.087C350.62 457.049 350.432 457.024 350.257 457.012C350.094 456.999 349.912 456.993 349.712 456.993C348.009 456.993 346.701 457.544 345.788 458.645C344.874 459.734 344.417 460.992 344.417 462.419V473.986H341.037V453.876Z" fill="#C2C2C2"/>
<path d="M214.686 519.56C213.447 519.973 211.963 520.18 210.236 520.18C206.63 520.18 203.651 519.103 201.298 516.95C198.443 514.359 197.016 510.554 197.016 505.534C197.016 500.476 198.481 496.652 201.41 494.061C203.801 491.945 206.774 490.887 210.33 490.887C213.91 490.887 216.914 492.008 219.343 494.249C222.147 496.84 223.549 500.464 223.549 505.121C223.549 507.587 223.248 509.652 222.647 511.317C222.159 512.907 221.439 514.228 220.488 515.279L223.68 518.265L220.657 521.419L217.315 518.265C216.301 518.878 215.424 519.31 214.686 519.56ZM213.447 514.566L210.649 511.899L213.634 508.782L216.432 511.449C216.87 510.547 217.177 509.759 217.352 509.083C217.628 508.069 217.765 506.886 217.765 505.534C217.765 502.429 217.127 500.032 215.85 498.342C214.586 496.639 212.733 495.788 210.292 495.788C208.001 495.788 206.173 496.602 204.809 498.229C203.444 499.857 202.762 502.291 202.762 505.534C202.762 509.327 203.739 512.043 205.692 513.683C206.956 514.747 208.471 515.279 210.236 515.279C210.899 515.279 211.538 515.198 212.151 515.035C212.489 514.947 212.921 514.791 213.447 514.566ZM239.735 508.557H233.764V519.41H228.112V491.732H241.688C243.628 491.77 245.118 492.008 246.157 492.446C247.208 492.884 248.097 493.529 248.823 494.38C249.424 495.081 249.9 495.857 250.25 496.708C250.601 497.56 250.776 498.53 250.776 499.619C250.776 500.933 250.444 502.229 249.781 503.506C249.117 504.77 248.022 505.665 246.495 506.191C247.772 506.704 248.673 507.436 249.199 508.388C249.737 509.327 250.006 510.766 250.006 512.707V514.566C250.006 515.83 250.056 516.687 250.156 517.138C250.306 517.852 250.657 518.377 251.208 518.715V519.41H244.842C244.667 518.797 244.542 518.302 244.467 517.927C244.317 517.151 244.235 516.356 244.223 515.542L244.185 512.97C244.16 511.204 243.835 510.028 243.209 509.439C242.595 508.851 241.437 508.557 239.735 508.557ZM243.246 503.525C244.398 502.999 244.974 501.96 244.974 500.407C244.974 498.73 244.417 497.603 243.303 497.028C242.677 496.702 241.738 496.539 240.486 496.539H233.764V503.975H240.317C241.619 503.975 242.595 503.825 243.246 503.525ZM283.749 506.285H278.266C278.166 505.521 277.909 504.833 277.496 504.219C276.895 503.393 275.963 502.98 274.698 502.98C272.896 502.98 271.663 503.875 270.999 505.665C270.649 506.617 270.473 507.881 270.473 509.458C270.473 510.96 270.649 512.168 270.999 513.082C271.638 514.785 272.839 515.636 274.604 515.636C275.856 515.636 276.745 515.298 277.271 514.622C277.797 513.946 278.116 513.07 278.228 511.993H283.693C283.567 513.62 282.979 515.16 281.928 516.612C280.25 518.953 277.765 520.124 274.473 520.124C271.181 520.124 268.758 519.147 267.206 517.194C265.654 515.242 264.878 512.707 264.878 509.59C264.878 506.072 265.735 503.337 267.45 501.384C269.165 499.431 271.531 498.455 274.548 498.455C277.114 498.455 279.211 499.03 280.838 500.182C282.478 501.334 283.448 503.368 283.749 506.285ZM304.517 501.534C306.244 503.7 307.108 506.26 307.108 509.214C307.108 512.218 306.244 514.791 304.517 516.932C302.789 519.06 300.167 520.124 296.649 520.124C293.131 520.124 290.509 519.06 288.781 516.932C287.054 514.791 286.19 512.218 286.19 509.214C286.19 506.26 287.054 503.7 288.781 501.534C290.509 499.368 293.131 498.286 296.649 498.286C300.167 498.286 302.789 499.368 304.517 501.534ZM296.63 502.811C295.065 502.811 293.857 503.368 293.006 504.482C292.167 505.584 291.748 507.161 291.748 509.214C291.748 511.267 292.167 512.851 293.006 513.965C293.857 515.079 295.065 515.636 296.63 515.636C298.195 515.636 299.397 515.079 300.235 513.965C301.074 512.851 301.494 511.267 301.494 509.214C301.494 507.161 301.074 505.584 300.235 504.482C299.397 503.368 298.195 502.811 296.63 502.811ZM329.584 491.77V519.41H324.383V516.575C323.619 517.789 322.749 518.672 321.773 519.222C320.797 519.773 319.582 520.049 318.13 520.049C315.739 520.049 313.724 519.085 312.084 517.157C310.457 515.217 309.643 512.732 309.643 509.702C309.643 506.21 310.444 503.462 312.046 501.459C313.661 499.456 315.814 498.455 318.506 498.455C319.745 498.455 320.847 498.73 321.811 499.281C322.775 499.819 323.557 500.57 324.158 501.534V491.77H329.584ZM315.163 509.308C315.163 511.198 315.539 512.707 316.29 513.833C317.029 514.972 318.155 515.542 319.67 515.542C321.185 515.542 322.336 514.979 323.125 513.852C323.914 512.725 324.308 511.267 324.308 509.477C324.308 506.973 323.676 505.183 322.411 504.107C321.635 503.456 320.734 503.13 319.708 503.13C318.143 503.13 316.991 503.725 316.253 504.914C315.526 506.091 315.163 507.555 315.163 509.308ZM351.986 513.401C351.848 514.616 351.216 515.849 350.089 517.101C348.337 519.091 345.883 520.086 342.729 520.086C340.125 520.086 337.828 519.247 335.837 517.57C333.847 515.893 332.852 513.164 332.852 509.383C332.852 505.84 333.747 503.124 335.537 501.234C337.339 499.343 339.674 498.398 342.541 498.398C344.243 498.398 345.777 498.718 347.141 499.356C348.506 499.994 349.632 501.002 350.521 502.379C351.322 503.593 351.842 505.002 352.08 506.604C352.217 507.543 352.274 508.895 352.249 510.66H338.241C338.316 512.713 338.961 514.153 340.175 514.979C340.913 515.492 341.802 515.749 342.841 515.749C343.943 515.749 344.838 515.436 345.526 514.81C345.902 514.472 346.234 514.002 346.522 513.401H351.986ZM346.691 507.13C346.603 505.715 346.171 504.645 345.395 503.919C344.631 503.18 343.68 502.811 342.541 502.811C341.301 502.811 340.338 503.199 339.649 503.975C338.973 504.751 338.547 505.803 338.372 507.13H346.691Z" fill="#C2C2C2"/>
</svg>
