<svg width="550" height="1000" viewBox="0 0 550 1000" fill="none" xmlns="http://www.w3.org/2000/svg">
<circle cx="275" cy="724" r="221.5" fill="white" stroke="#333333" stroke-width="25"/>
<circle cx="428" cy="493" r="60" fill="white" stroke="#333333" stroke-width="14"/>
<circle cx="251" cy="214" r="114.5" fill="white" stroke="#333333" stroke-width="19"/>
<path d="M216.273 200.225C216.273 199.069 215.863 198.178 215.044 197.551C214.237 196.925 212.774 196.293 210.654 195.654C208.534 195.016 206.848 194.305 205.596 193.522C203.199 192.017 202 190.054 202 187.633C202 185.513 202.862 183.767 204.584 182.394C206.318 181.021 208.564 180.334 211.323 180.334C213.153 180.334 214.785 180.671 216.219 181.346C217.652 182.02 218.778 182.984 219.597 184.236C220.416 185.477 220.826 186.856 220.826 188.374H216.273C216.273 187 215.839 185.929 214.972 185.158C214.117 184.375 212.888 183.983 211.287 183.983C209.793 183.983 208.631 184.303 207.8 184.941C206.981 185.579 206.571 186.471 206.571 187.615C206.571 188.578 207.017 189.385 207.908 190.036C208.799 190.674 210.269 191.3 212.316 191.915C214.364 192.517 216.008 193.209 217.248 193.992C218.489 194.763 219.398 195.654 219.976 196.666C220.555 197.666 220.844 198.84 220.844 200.189C220.844 202.381 220.001 204.127 218.314 205.428C216.64 206.717 214.364 207.361 211.485 207.361C209.582 207.361 207.83 207.012 206.228 206.313C204.638 205.603 203.398 204.627 202.506 203.387C201.627 202.146 201.187 200.701 201.187 199.051H205.758C205.758 200.544 206.252 201.701 207.24 202.52C208.227 203.339 209.642 203.748 211.485 203.748C213.075 203.748 214.267 203.429 215.062 202.791C215.869 202.14 216.273 201.285 216.273 200.225ZM246.221 198.437C245.956 201.243 244.92 203.435 243.114 205.013C241.307 206.578 238.904 207.361 235.905 207.361C233.81 207.361 231.961 206.868 230.359 205.88C228.769 204.88 227.54 203.465 226.673 201.634C225.806 199.804 225.354 197.678 225.318 195.257V192.8C225.318 190.319 225.758 188.133 226.637 186.242C227.516 184.351 228.775 182.893 230.413 181.87C232.063 180.846 233.966 180.334 236.122 180.334C239.025 180.334 241.361 181.123 243.132 182.701C244.902 184.278 245.932 186.507 246.221 189.385H241.668C241.452 187.494 240.898 186.133 240.006 185.302C239.127 184.459 237.832 184.038 236.122 184.038C234.135 184.038 232.605 184.766 231.533 186.224C230.473 187.669 229.931 189.795 229.907 192.601V194.932C229.907 197.774 230.413 199.942 231.425 201.436C232.449 202.929 233.942 203.676 235.905 203.676C237.7 203.676 239.049 203.272 239.952 202.465C240.855 201.658 241.428 200.315 241.668 198.437H246.221ZM266.341 200.875H256.152L254.02 207H249.269L259.205 180.695H263.306L273.261 207H268.491L266.341 200.875ZM257.435 197.19H265.059L261.247 186.278L257.435 197.19ZM298.422 207H293.851L282.126 188.337V207H277.555V180.695H282.126L293.887 199.43V180.695H298.422V207ZM193.861 234.534C193.861 237.027 193.464 239.189 192.669 241.02C191.886 242.839 190.784 244.284 189.363 245.356L193.879 248.879L190.916 251.553L185.316 247.126C184.581 247.283 183.792 247.361 182.949 247.361C180.829 247.361 178.932 246.843 177.258 245.808C175.596 244.76 174.307 243.272 173.392 241.345C172.489 239.418 172.031 237.196 172.019 234.679V233.197C172.019 230.632 172.47 228.368 173.374 226.404C174.289 224.441 175.572 222.942 177.222 221.906C178.884 220.858 180.781 220.334 182.913 220.334C185.081 220.334 186.99 220.852 188.64 221.888C190.302 222.911 191.585 224.393 192.488 226.332C193.391 228.259 193.849 230.505 193.861 233.071V234.534ZM189.272 233.161C189.272 230.198 188.718 227.952 187.61 226.422C186.502 224.893 184.936 224.128 182.913 224.128C180.95 224.128 179.408 224.905 178.288 226.458C177.18 228 176.614 230.18 176.59 232.999V234.534C176.59 237.377 177.144 239.599 178.252 241.201C179.372 242.803 180.938 243.604 182.949 243.604C184.984 243.604 186.544 242.833 187.628 241.291C188.724 239.749 189.272 237.497 189.272 234.534V233.161ZM209.465 236.865H204.37V247H199.799V220.695H209.049C212.084 220.695 214.427 221.376 216.077 222.737C217.727 224.098 218.552 226.067 218.552 228.645C218.552 230.403 218.125 231.878 217.269 233.071C216.426 234.251 215.246 235.16 213.728 235.799L219.636 246.765V247H214.74L209.465 236.865ZM204.37 233.197H209.067C210.609 233.197 211.813 232.812 212.681 232.041C213.548 231.258 213.981 230.192 213.981 228.843C213.981 227.434 213.578 226.344 212.771 225.573C211.976 224.802 210.784 224.405 209.194 224.381H204.37V233.197ZM254.764 238.437C254.499 241.243 253.463 243.435 251.656 245.013C249.85 246.578 247.447 247.361 244.448 247.361C242.352 247.361 240.503 246.868 238.901 245.88C237.312 244.88 236.083 243.465 235.216 241.634C234.349 239.804 233.897 237.678 233.861 235.257V232.8C233.861 230.319 234.3 228.133 235.18 226.242C236.059 224.351 237.318 222.893 238.956 221.87C240.606 220.846 242.509 220.334 244.665 220.334C247.567 220.334 249.904 221.123 251.674 222.701C253.445 224.278 254.475 226.507 254.764 229.385H250.211C249.994 227.494 249.44 226.133 248.549 225.302C247.67 224.459 246.375 224.038 244.665 224.038C242.677 224.038 241.148 224.766 240.076 226.224C239.016 227.669 238.474 229.795 238.45 232.601V234.932C238.45 237.774 238.956 239.942 239.967 241.436C240.991 242.929 242.485 243.676 244.448 243.676C246.242 243.676 247.591 243.272 248.495 242.465C249.398 241.658 249.97 240.315 250.211 238.437H254.764ZM281.153 234.534C281.153 237.112 280.707 239.376 279.816 241.327C278.925 243.266 277.648 244.76 275.986 245.808C274.336 246.843 272.433 247.361 270.277 247.361C268.145 247.361 266.242 246.843 264.568 245.808C262.906 244.76 261.617 243.272 260.702 241.345C259.798 239.418 259.341 237.196 259.329 234.679V233.197C259.329 230.632 259.78 228.368 260.684 226.404C261.599 224.441 262.882 222.942 264.532 221.906C266.194 220.858 268.097 220.334 270.241 220.334C272.385 220.334 274.282 220.852 275.932 221.888C277.594 222.911 278.877 224.393 279.78 226.332C280.683 228.259 281.141 230.505 281.153 233.071V234.534ZM276.582 233.161C276.582 230.246 276.028 228.012 274.92 226.458C273.824 224.905 272.264 224.128 270.241 224.128C268.266 224.128 266.718 224.905 265.598 226.458C264.49 228 263.924 230.186 263.899 233.017V234.534C263.899 237.425 264.46 239.659 265.58 241.237C266.712 242.815 268.278 243.604 270.277 243.604C272.3 243.604 273.854 242.833 274.938 241.291C276.034 239.749 276.582 237.497 276.582 234.534V233.161ZM287.001 247V220.695H294.769C297.094 220.695 299.153 221.213 300.948 222.249C302.755 223.285 304.152 224.754 305.139 226.657C306.127 228.56 306.621 230.74 306.621 233.197V234.516C306.621 237.009 306.121 239.201 305.121 241.092C304.134 242.983 302.718 244.441 300.876 245.464C299.045 246.488 296.943 247 294.57 247H287.001ZM291.571 224.381V243.351H294.552C296.949 243.351 298.786 242.604 300.063 241.11C301.351 239.605 302.008 237.449 302.032 234.643V233.179C302.032 230.325 301.412 228.145 300.171 226.639C298.93 225.134 297.13 224.381 294.769 224.381H291.571ZM327.843 235.257H317.039V243.351H329.668V247H312.469V220.695H329.541V224.381H317.039V231.644H327.843V235.257Z" fill="black"/>
<circle cx="349.5" cy="403.5" r="35.5" stroke="#333333" stroke-width="14"/>
<circle cx="409.5" cy="326.5" r="29.5" stroke="#333333" stroke-width="10"/>
<rect x="129" y="578" width="291" height="291" rx="5.82" fill="white"/>
<path d="M341.431 598.371H399.631V656.571" stroke="#C2C2C2" stroke-width="11.64"/>
<path d="M207.571 598.371H149.371V656.571" stroke="#C2C2C2" stroke-width="11.64"/>
<path d="M341.431 848.633H399.631V790.433" stroke="#C2C2C2" stroke-width="11.64"/>
<path d="M207.571 848.633H149.371V790.433" stroke="#C2C2C2" stroke-width="11.64"/>
<path d="M205.311 699.447L200.495 685.431L195.377 699.447H205.311ZM198.249 680.722H203.109L214.62 712.449H209.912L206.694 702.946H194.146L190.711 712.449H186.306L198.249 680.722ZM220.473 701.154C220.473 703.63 220.999 705.704 222.05 707.374C223.101 709.044 224.785 709.879 227.104 709.879C228.903 709.879 230.379 709.109 231.531 707.568C232.697 706.013 233.28 703.789 233.28 700.894C233.28 697.972 232.683 695.812 231.488 694.415C230.293 693.004 228.817 692.299 227.06 692.299C225.102 692.299 223.511 693.047 222.287 694.545C221.078 696.042 220.473 698.245 220.473 701.154ZM226.326 688.908C228.097 688.908 229.58 689.282 230.775 690.031C231.466 690.463 232.251 691.219 233.129 692.299V680.614H236.866V712.449H233.367V709.231C232.46 710.657 231.387 711.686 230.149 712.32C228.911 712.953 227.492 713.27 225.894 713.27C223.317 713.27 221.085 712.19 219.199 710.03C217.313 707.856 216.369 704.969 216.369 701.37C216.369 698 217.226 695.085 218.94 692.623C220.667 690.146 223.13 688.908 226.326 688.908ZM245.094 701.154C245.094 703.63 245.62 705.704 246.671 707.374C247.722 709.044 249.407 709.879 251.725 709.879C253.525 709.879 255 709.109 256.152 707.568C257.319 706.013 257.902 703.789 257.902 700.894C257.902 697.972 257.304 695.812 256.109 694.415C254.914 693.004 253.438 692.299 251.682 692.299C249.723 692.299 248.132 693.047 246.909 694.545C245.699 696.042 245.094 698.245 245.094 701.154ZM250.947 688.908C252.718 688.908 254.201 689.282 255.396 690.031C256.088 690.463 256.872 691.219 257.751 692.299V680.614H261.487V712.449H257.988V709.231C257.081 710.657 256.008 711.686 254.77 712.32C253.532 712.953 252.114 713.27 250.515 713.27C247.938 713.27 245.706 712.19 243.82 710.03C241.934 707.856 240.991 704.969 240.991 701.37C240.991 698 241.848 695.085 243.561 692.623C245.289 690.146 247.751 688.908 250.947 688.908ZM294.013 689.318H298.311C297.764 690.801 296.547 694.185 294.661 699.469C293.25 703.443 292.069 706.683 291.119 709.188C288.873 715.091 287.289 718.691 286.367 719.987C285.446 721.283 283.862 721.931 281.616 721.931C281.069 721.931 280.644 721.909 280.342 721.866C280.054 721.823 279.694 721.743 279.262 721.628V718.086C279.939 718.273 280.428 718.389 280.73 718.432C281.033 718.475 281.299 718.497 281.53 718.497C282.25 718.497 282.775 718.374 283.106 718.129C283.452 717.899 283.74 717.611 283.97 717.265C284.042 717.15 284.301 716.56 284.748 715.494C285.194 714.429 285.518 713.637 285.72 713.119L277.167 689.318H281.573L287.771 708.151L294.013 689.318ZM310.859 709.944C313.437 709.944 315.2 708.972 316.151 707.028C317.115 705.07 317.598 702.896 317.598 700.506C317.598 698.346 317.252 696.589 316.561 695.236C315.467 693.105 313.581 692.039 310.902 692.039C308.527 692.039 306.799 692.947 305.719 694.761C304.639 696.575 304.099 698.764 304.099 701.326C304.099 703.789 304.639 705.84 305.719 707.482C306.799 709.123 308.512 709.944 310.859 709.944ZM311.01 688.649C313.991 688.649 316.511 689.642 318.57 691.629C320.629 693.616 321.658 696.539 321.658 700.398C321.658 704.127 320.751 707.208 318.937 709.642C317.123 712.075 314.308 713.292 310.492 713.292C307.31 713.292 304.783 712.219 302.911 710.073C301.039 707.914 300.104 705.02 300.104 701.391C300.104 697.504 301.09 694.408 303.062 692.104C305.035 689.8 307.684 688.649 311.01 688.649ZM330.189 689.318V704.674C330.189 705.855 330.376 706.819 330.751 707.568C331.442 708.95 332.73 709.642 334.617 709.642C337.324 709.642 339.167 708.432 340.146 706.013C340.678 704.717 340.945 702.939 340.945 700.678V689.318H344.832V712.449H341.161L341.204 709.037C340.7 709.915 340.074 710.657 339.325 711.261C337.842 712.471 336.042 713.076 333.926 713.076C330.628 713.076 328.382 711.974 327.187 709.771C326.539 708.59 326.215 707.014 326.215 705.041V689.318H330.189ZM351.031 689.318H354.724V693.314C355.026 692.536 355.768 691.593 356.949 690.484C358.129 689.361 359.49 688.8 361.031 688.8C361.103 688.8 361.225 688.807 361.398 688.821C361.571 688.836 361.866 688.865 362.283 688.908V693.011C362.053 692.968 361.837 692.939 361.635 692.925C361.448 692.911 361.239 692.903 361.009 692.903C359.051 692.903 357.546 693.537 356.495 694.804C355.444 696.057 354.918 697.504 354.918 699.145V712.449H351.031V689.318Z" fill="#C2C2C2"/>
<path d="M205.7 764.87C204.275 765.345 202.569 765.583 200.582 765.583C196.435 765.583 193.008 764.345 190.301 761.868C187.018 758.887 185.377 754.51 185.377 748.737C185.377 742.92 187.061 738.521 190.431 735.54C193.181 733.107 196.6 731.89 200.69 731.89C204.808 731.89 208.263 733.179 211.056 735.756C214.282 738.737 215.894 742.905 215.894 748.261C215.894 751.098 215.549 753.474 214.858 755.389C214.296 757.217 213.468 758.736 212.374 759.946L216.046 763.38L212.568 767.008L208.724 763.38C207.558 764.085 206.55 764.582 205.7 764.87ZM204.275 759.125L201.057 756.058L204.491 752.473L207.709 755.54C208.213 754.503 208.566 753.596 208.767 752.819C209.084 751.652 209.242 750.292 209.242 748.737C209.242 745.166 208.508 742.408 207.039 740.465C205.585 738.507 203.454 737.527 200.646 737.527C198.011 737.527 195.909 738.463 194.34 740.335C192.77 742.207 191.986 745.007 191.986 748.737C191.986 753.099 193.109 756.224 195.355 758.11C196.809 759.334 198.551 759.946 200.582 759.946C201.345 759.946 202.079 759.852 202.785 759.665C203.173 759.564 203.67 759.384 204.275 759.125ZM234.512 752.214H227.643V764.697H221.143V732.862H236.758C238.989 732.906 240.703 733.179 241.898 733.683C243.107 734.187 244.13 734.928 244.965 735.908C245.656 736.714 246.203 737.607 246.606 738.586C247.009 739.565 247.211 740.681 247.211 741.933C247.211 743.445 246.829 744.935 246.066 746.404C245.303 747.858 244.043 748.888 242.287 749.493C243.755 750.083 244.792 750.925 245.397 752.019C246.016 753.099 246.325 754.755 246.325 756.987V759.125C246.325 760.579 246.383 761.566 246.498 762.084C246.671 762.905 247.074 763.509 247.708 763.898V764.697H240.386C240.184 763.992 240.041 763.423 239.954 762.991C239.781 762.098 239.688 761.184 239.673 760.248L239.63 757.289C239.601 755.259 239.227 753.906 238.507 753.229C237.802 752.552 236.47 752.214 234.512 752.214ZM238.55 746.426C239.875 745.821 240.537 744.626 240.537 742.84C240.537 740.911 239.897 739.615 238.615 738.953C237.895 738.579 236.815 738.391 235.375 738.391H227.643V746.944H235.181C236.678 746.944 237.802 746.771 238.55 746.426ZM285.136 749.601H278.83C278.715 748.722 278.42 747.93 277.944 747.225C277.253 746.274 276.181 745.799 274.726 745.799C272.653 745.799 271.235 746.829 270.472 748.888C270.068 749.982 269.867 751.436 269.867 753.251C269.867 754.978 270.068 756.368 270.472 757.419C271.206 759.377 272.588 760.356 274.618 760.356C276.058 760.356 277.08 759.967 277.685 759.19C278.29 758.412 278.657 757.404 278.787 756.166H285.072C284.928 758.038 284.251 759.809 283.041 761.479C281.112 764.172 278.254 765.518 274.467 765.518C270.68 765.518 267.894 764.395 266.109 762.149C264.323 759.903 263.431 756.987 263.431 753.402C263.431 749.356 264.417 746.21 266.39 743.964C268.362 741.717 271.084 740.594 274.554 740.594C277.505 740.594 279.917 741.257 281.789 742.581C283.675 743.906 284.791 746.246 285.136 749.601ZM309.023 744.136C311.01 746.627 312.004 749.572 312.004 752.97C312.004 756.425 311.01 759.384 309.023 761.846C307.036 764.294 304.02 765.518 299.974 765.518C295.928 765.518 292.912 764.294 290.925 761.846C288.938 759.384 287.944 756.425 287.944 752.97C287.944 749.572 288.938 746.627 290.925 744.136C292.912 741.645 295.928 740.4 299.974 740.4C304.02 740.4 307.036 741.645 309.023 744.136ZM299.952 745.605C298.153 745.605 296.763 746.246 295.784 747.527C294.819 748.794 294.337 750.608 294.337 752.97C294.337 755.331 294.819 757.152 295.784 758.434C296.763 759.715 298.153 760.356 299.952 760.356C301.752 760.356 303.134 759.715 304.099 758.434C305.064 757.152 305.546 755.331 305.546 752.97C305.546 750.608 305.064 748.794 304.099 747.527C303.134 746.246 301.752 745.605 299.952 745.605ZM337.856 732.906V764.697H331.874V761.436C330.995 762.833 329.995 763.848 328.872 764.481C327.749 765.115 326.352 765.432 324.682 765.432C321.932 765.432 319.613 764.323 317.727 762.106C315.855 759.874 314.92 757.016 314.92 753.531C314.92 749.514 315.841 746.354 317.684 744.05C319.541 741.746 322.018 740.594 325.114 740.594C326.539 740.594 327.806 740.911 328.915 741.545C330.024 742.164 330.923 743.028 331.615 744.136V732.906H337.856ZM321.269 753.078C321.269 755.252 321.701 756.987 322.565 758.283C323.415 759.593 324.711 760.248 326.453 760.248C328.195 760.248 329.52 759.6 330.427 758.304C331.334 757.009 331.787 755.331 331.787 753.272C331.787 750.392 331.06 748.333 329.606 747.095C328.713 746.346 327.677 745.972 326.496 745.972C324.696 745.972 323.371 746.656 322.522 748.024C321.687 749.377 321.269 751.062 321.269 753.078ZM363.622 757.786C363.464 759.183 362.737 760.601 361.441 762.041C359.425 764.33 356.603 765.475 352.975 765.475C349.98 765.475 347.338 764.51 345.048 762.581C342.759 760.651 341.614 757.512 341.614 753.164C341.614 749.089 342.644 745.965 344.703 743.791C346.776 741.617 349.461 740.529 352.759 740.529C354.717 740.529 356.481 740.897 358.05 741.631C359.62 742.365 360.915 743.524 361.938 745.108C362.859 746.505 363.457 748.125 363.73 749.968C363.889 751.048 363.953 752.603 363.925 754.633H347.813C347.899 756.994 348.641 758.65 350.037 759.6C350.887 760.191 351.909 760.486 353.104 760.486C354.371 760.486 355.401 760.126 356.193 759.406C356.625 759.017 357.006 758.477 357.337 757.786H363.622ZM357.532 750.572C357.431 748.945 356.934 747.714 356.042 746.879C355.163 746.03 354.069 745.605 352.759 745.605C351.333 745.605 350.225 746.051 349.433 746.944C348.655 747.837 348.166 749.046 347.964 750.572H357.532Z" fill="#C2C2C2"/>
</svg>
