<?xml version="1.0" encoding="UTF-8" standalone="no"?>
<svg
   xmlns:dc="http://purl.org/dc/elements/1.1/"
   xmlns:cc="http://creativecommons.org/ns#"
   xmlns:rdf="http://www.w3.org/1999/02/22-rdf-syntax-ns#"
   xmlns:svg="http://www.w3.org/2000/svg"
   xmlns="http://www.w3.org/2000/svg"
   xmlns:sodipodi="http://sodipodi.sourceforge.net/DTD/sodipodi-0.dtd"
   xmlns:inkscape="http://www.inkscape.org/namespaces/inkscape"
   version="1.1"
   id="svg2"
   xml:space="preserve"
   width="666.66669"
   height="666.66669"
   viewBox="0 0 666.66669 666.66669"
   sodipodi:docname="general-qr-code-frame-31.eps"><metadata
     id="metadata8"><rdf:RDF><cc:Work
         rdf:about=""><dc:format>image/svg+xml</dc:format><dc:type
           rdf:resource="http://purl.org/dc/dcmitype/StillImage" /></cc:Work></rdf:RDF></metadata><defs
     id="defs6" /><sodipodi:namedview
     pagecolor="#ffffff"
     bordercolor="#666666"
     borderopacity="1"
     objecttolerance="10"
     gridtolerance="10"
     guidetolerance="10"
     inkscape:pageopacity="0"
     inkscape:pageshadow="2"
     inkscape:window-width="640"
     inkscape:window-height="480"
     id="namedview4" /><g
     id="g10"
     inkscape:groupmode="layer"
     inkscape:label="ink_ext_XXXXXX"
     transform="matrix(1.3333333,0,0,-1.3333333,0,666.66667)"><g
       id="g12"
       transform="scale(0.1)"><path
         d="M 37.9023,979.379 V 3699.15 c 0,220.07 178.4027,398.48 398.4807,398.48 H 5000 V 580.898 H 436.383 c -220.078,0 -398.4807,178.411 -398.4807,398.481"
         style="fill:#2a2a2b;fill-opacity:1;fill-rule:nonzero;stroke:none"
         id="path14" /><path
         d="m 4106.15,1028.45 h -2172.6 c -143.69,0 -260.17,116.48 -260.17,260.17 v 2172.6 c 0,143.69 116.48,260.18 260.17,260.18 h 2172.6 c 143.69,0 260.18,-116.49 260.18,-260.18 v -2172.6 c 0,-143.69 -116.49,-260.17 -260.18,-260.17"
         style="fill:#ffffff;fill-opacity:1;fill-rule:nonzero;stroke:none"
         id="path16" /><path
         d="m 562.813,3385.7 22.32,26.54 c 20.215,-17.49 40.426,-27.45 66.668,-27.45 22.926,0 37.41,10.56 37.41,27.15 0,15.09 -8.449,23.23 -47.668,32.58 -44.945,10.56 -70.289,23.83 -70.289,63.35 0,36.2 30.172,61.24 72.101,61.24 30.77,0 55.204,-9.35 76.625,-26.55 l -19.914,-28.05 c -19.003,14.18 -38.003,21.72 -57.312,21.72 -21.723,0 -34.391,-11.16 -34.391,-25.64 0,-16.29 9.657,-23.53 50.075,-33.19 44.648,-10.86 67.875,-26.84 67.875,-62.44 0,-39.52 -31.071,-63.05 -75.415,-63.05 -32.281,0 -62.75,11.16 -88.085,33.79"
         style="fill:#ffffff;fill-opacity:1;fill-rule:nonzero;stroke:none"
         id="path18" /><path
         d="m 552.855,3158.84 c 0,60.03 44.95,109.2 108.903,109.2 38.918,0 62.445,-13.57 82.656,-32.88 l -23.832,-27.45 c -16.891,15.69 -34.992,26.25 -59.129,26.25 -40.418,0 -69.68,-33.19 -69.68,-75.12 0,-41.33 29.262,-75.11 69.68,-75.11 25.949,0 42.539,10.55 60.637,27.45 l 23.832,-24.13 c -22.02,-22.93 -46.152,-37.41 -85.672,-37.41 -61.539,0 -107.395,47.96 -107.395,109.2"
         style="fill:#ffffff;fill-opacity:1;fill-rule:nonzero;stroke:none"
         id="path20" /><path
         d="m 682.273,2835.45 -36.503,84.47 -36.2,-84.47 z m -53.093,128.81 h 34.39 l 92.914,-212.67 h -39.218 l -21.414,50.98 h -99.856 l -21.719,-50.98 h -38.011 l 92.914,212.67"
         style="fill:#ffffff;fill-opacity:1;fill-rule:nonzero;stroke:none"
         id="path22" /><path
         d="m 554.363,2661.08 h 34.391 l 113.125,-146 v 146 h 36.504 v -211.16 h -31.074 l -116.442,150.23 v -150.23 h -36.504 v 211.16"
         style="fill:#ffffff;fill-opacity:1;fill-rule:nonzero;stroke:none"
         id="path24" /><path
         d="m 542.598,2230.13 h 39.519 l 64.254,-99.85 64.254,99.85 h 39.52 v -211.17 h -37.102 v 151.44 l -66.672,-99.55 h -1.203 l -66.066,98.94 v -150.83 h -36.504 v 211.17"
         style="fill:#ffffff;fill-opacity:1;fill-rule:nonzero;stroke:none"
         id="path26" /><path
         d="m 572.465,1928.46 h 156.566 v -33.19 H 609.57 v -54.9 h 105.891 v -33.18 H 609.57 v -56.71 h 120.973 v -33.19 H 572.465 v 211.17"
         style="fill:#ffffff;fill-opacity:1;fill-rule:nonzero;stroke:none"
         id="path28" /><path
         d="m 1332.36,1264.82 -189.44,-124.45 v 75.84 h -115.99 l -11.29,-0.03 -2.76,-0.17 c -1.49,0.08 -2.88,-0.38 -4.32,-0.52 -2.84,-0.44 -5.61,-1.24 -8.28,-2.29 -10.678,-4.08 -19.897,-12.92 -24.21,-23.59 -1.027,-2.69 -1.875,-5.41 -2.472,-8.23 l -0.285,-2.14 -0.192,-1.08 c -0.035,-0.45 -0.074,0.28 -0.109,-1.15 l -0.051,-2.54 -0.051,-0.8 -0.781,-12.8 c -1.231,-16.76 -4.75,-33.33 -11.547,-48.62 -13.277,-30.69 -37.992,-56.14 -68.301,-70.27 -15.097,-7.16 -31.554,-11.4 -48.273,-12.68 -8.356,-0.7 -16.938,-0.75 -25.461,-0.85 h -23.164 -36.914 -23.418 c -8.535,0.06 -17.106,0.17 -25.465,0.81 -33.41,2.26 -65.566,16.89 -89.059,40.56 -23.535,23.63 -37.984,55.83 -40.136,89.26 -0.563,8.38 -0.75,16.94 -0.758,25.48 v 23.22 36.92 147.66 33.4 h 97.238 v -33.4 -147.66 -61.86 c -0.285,-15.01 5.617,-30.05 16.277,-40.66 10.547,-10.73 25.563,-16.72 40.575,-16.5 h 61.66 25.004 c 7.496,0 15.004,1.49 21.902,4.45 13.824,5.86 25.039,17.53 30.344,31.56 2.722,7 3.785,14.54 3.715,22.04 l 0.261,5.62 0.024,0.35 0.008,0.17 -0.254,-1.52 c -0.086,-0.64 0.113,0.83 0.16,1.13 l 0.504,3.5 1.101,6.98 c 1.852,9.25 4.614,18.3 8.161,27.05 14.41,34.97 43.382,63.14 78.628,76.78 8.786,3.43 17.934,6 27.215,7.54 4.657,0.69 9.314,1.55 13.994,1.67 l 8.86,0.41 11.92,0.04 h 23.2 92.79 v 75.83 l 189.44,-124.46"
         style="fill:#ffffff;fill-opacity:1;fill-rule:nonzero;stroke:none"
         id="path30" /><path
         d="M 4196.62,1198.15 H 1843.09 V 3551.69 H 4196.62 V 1198.15"
         style="fill:#ffffff;fill-opacity:1;fill-rule:nonzero;stroke:none"
         id="path32" /><path
         d="M 4021.67,1376.24 H 2018.04 V 3379.87 H 4021.67 V 1376.24"
         style="fill:#ffffff;fill-opacity:1;fill-rule:nonzero;stroke:none"
         id="path34" /><path
         d="m 3977.4,2899.79 h 88.52 v 524.34 h -524.33 v -88.51 h 435.81 v -435.83"
         style="fill:#a6a7a7;fill-opacity:1;fill-rule:nonzero;stroke:none"
         id="path36" /><path
         d="m 2062.3,2899.79 v 435.83 h 435.82 v 88.51 h -524.34 v -524.34 h 88.52"
         style="fill:#a6a7a7;fill-opacity:1;fill-rule:nonzero;stroke:none"
         id="path38" /><path
         d="m 2062.3,1856.32 h -88.52 v -524.34 h 524.34 v 88.52 H 2062.3 v 435.82"
         style="fill:#a6a7a7;fill-opacity:1;fill-rule:nonzero;stroke:none"
         id="path40" /><path
         d="M 3977.4,1856.32 V 1420.5 h -435.81 v -88.52 h 524.33 v 524.34 h -88.52"
         style="fill:#a6a7a7;fill-opacity:1;fill-rule:nonzero;stroke:none"
         id="path42" /><path
         d="m 2372.76,2572.91 -65.13,143.37 -65.49,-143.37 z m -73.63,163.55 h 17.7 l 115.41,-249.58 h -20.18 l -31.51,69.39 h -146.2 l -31.51,-69.39 h -19.11 l 115.4,249.58"
         style="fill:#a6a7a7;fill-opacity:1;fill-rule:nonzero;stroke:none"
         id="path44" /><path
         d="m 2623.45,2577.51 c 0,46.38 -36.11,77.53 -73.64,77.53 -39.29,0 -70.8,-28.68 -70.8,-77.88 0,-47.44 32.93,-77.88 70.8,-77.88 37.53,0 73.64,31.5 73.64,78.23 z m -163.2,-0.35 c 0,58.76 44.25,94.51 87.8,94.51 36.11,0 59.47,-20.53 74.34,-43.18 v 116.82 h 17.35 v -258.43 h -17.35 v 40.36 c -15.58,-23.71 -38.59,-44.6 -74.34,-44.6 -43.55,0 -87.8,35.05 -87.8,94.52"
         style="fill:#a6a7a7;fill-opacity:1;fill-rule:nonzero;stroke:none"
         id="path46" /><path
         d="m 2857.13,2577.51 c 0,46.38 -36.1,77.53 -73.63,77.53 -39.3,0 -70.8,-28.68 -70.8,-77.88 0,-47.44 32.92,-77.88 70.8,-77.88 37.53,0 73.63,31.5 73.63,78.23 z m -163.19,-0.35 c 0,58.76 44.24,94.51 87.79,94.51 36.11,0 59.47,-20.53 74.34,-43.18 v 116.82 h 17.35 v -258.43 h -17.35 v 40.36 c -15.58,-23.71 -38.59,-44.6 -74.34,-44.6 -43.55,0 -87.79,35.05 -87.79,94.52"
         style="fill:#a6a7a7;fill-opacity:1;fill-rule:nonzero;stroke:none"
         id="path48" /><path
         d="m 3031.71,2436.97 6.01,15.22 c 9.57,-4.6 17.35,-6.72 30.81,-6.72 18.76,0 31.15,10.97 44.6,42.48 l -86.73,179.48 h 20.18 l 75.05,-161.43 65.13,161.43 h 19.12 l -78.23,-186.92 c -15.94,-37.87 -34.34,-51.33 -60.19,-51.33 -13.8,0 -23.71,2.48 -35.75,7.79"
         style="fill:#a6a7a7;fill-opacity:1;fill-rule:nonzero;stroke:none"
         id="path50" /><path
         d="m 3397.43,2577.16 c 0,43.54 -33.63,78.23 -74.34,78.23 -40.71,0 -73.64,-35.05 -73.64,-78.23 0,-43.55 32.57,-78.24 74.35,-78.24 40,0 73.63,35.04 73.63,78.24 z m -166.74,0 c 0,50.62 39.3,94.51 93.11,94.51 53.45,0 92.39,-43.18 92.39,-94.51 0,-50.63 -39.3,-94.52 -93.1,-94.52 -53.46,0 -92.4,43.19 -92.4,94.52"
         style="fill:#a6a7a7;fill-opacity:1;fill-rule:nonzero;stroke:none"
         id="path52" /><path
         d="m 3466.15,2556.98 v 110.45 h 17.35 v -107.26 c 0,-37.18 20.88,-61.61 57.34,-61.61 35.41,0 62.67,26.91 62.67,64.44 v 104.43 h 17.34 v -180.55 h -17.34 v 33.64 c -12.05,-21.24 -32.22,-37.88 -65.14,-37.88 -45.67,0 -72.22,31.15 -72.22,74.34"
         style="fill:#a6a7a7;fill-opacity:1;fill-rule:nonzero;stroke:none"
         id="path54" /><path
         d="m 3686.73,2667.43 h 17.35 v -51.34 c 14.16,32.22 44.25,55.58 80,54.17 v -19.12 h -1.77 c -41.77,0 -78.23,-31.5 -78.23,-90.27 v -73.99 h -17.35 v 180.55"
         style="fill:#a6a7a7;fill-opacity:1;fill-rule:nonzero;stroke:none"
         id="path56" /><path
         d="m 2366.75,2114.75 -40.35,34.33 34.69,38.95 40.71,-36.82 c 4.6,10.26 6.73,21.59 6.73,34.69 0,42.48 -31.16,77.88 -75.05,77.88 -43.9,0 -74.34,-34.69 -74.34,-77.88 0,-42.48 31.15,-77.87 75.04,-77.87 12.04,0 23.02,2.47 32.57,6.72 z m 40.36,-35.76 c -20.89,-13.44 -46.02,-21.24 -73.63,-21.24 -76.47,0 -131.34,57 -131.34,128.15 0,70.45 55.58,128.15 132.04,128.15 76.47,0 131.34,-56.99 131.34,-128.15 0,-25.84 -7.79,-50.62 -21.95,-71.15 l 25.49,-21.6 -34.69,-38.58 -27.26,24.42"
         style="fill:#a6a7a7;fill-opacity:1;fill-rule:nonzero;stroke:none"
         id="path58" /><path
         d="m 2623.81,2189.44 c 26.55,0 41.78,14.16 41.78,35.76 0,23.36 -16.29,35.4 -42.84,35.4 h -54.16 v -71.16 z m -109.74,120.36 h 113.28 c 31.51,0 55.94,-8.84 72.22,-25.13 13.81,-13.81 21.24,-33.27 21.24,-57.35 0,-40 -21.59,-65.13 -53.1,-76.81 l 60.53,-88.51 h -63.72 l -53.81,79.3 h -42.12 V 2062 h -54.52 v 247.8"
         style="fill:#a6a7a7;fill-opacity:1;fill-rule:nonzero;stroke:none"
         id="path60" /><path
         d="m 2865.3,2185.9 c 0,70.45 53.11,128.15 129.22,128.15 46.73,0 72.92,-17.7 95.93,-40.35 l -32.57,-37.53 c -19.11,17.35 -35.4,27.61 -63.72,27.61 -41.77,0 -71.86,-34.69 -71.86,-77.88 0,-42.48 29.38,-77.87 71.86,-77.87 28.32,0 45.67,11.33 65.14,29.02 l 34.69,-37.17 c -25.48,-27.26 -53.8,-42.13 -101.6,-42.13 -72.92,0 -127.09,56.29 -127.09,128.15"
         style="fill:#a6a7a7;fill-opacity:1;fill-rule:nonzero;stroke:none"
         id="path62" /><path
         d="m 3271.39,2156.52 c 0,27.97 -20.18,52.4 -49.92,52.4 -30.79,0 -49.2,-23.72 -49.2,-52.4 0,-27.97 20.18,-52.39 49.92,-52.39 30.79,0 49.2,23.72 49.2,52.39 z m -152.22,0 c 0,54.52 43.9,98.77 103.02,98.77 58.76,0 102.3,-43.54 102.3,-98.77 0,-54.52 -43.89,-98.77 -103.02,-98.77 -58.76,0 -102.3,43.55 -102.3,98.77"
         style="fill:#a6a7a7;fill-opacity:1;fill-rule:nonzero;stroke:none"
         id="path64" /><path
         d="m 3501.18,2157.23 c 0,31.5 -20.89,52.39 -46.02,52.39 -25.14,0 -46.38,-20.53 -46.38,-53.1 0,-31.5 21.24,-52.39 46.38,-52.39 25.13,0 46.02,20.89 46.02,53.1 z m -146.2,0 c 0,63.37 41.42,98.06 86.37,98.06 28.68,0 46.37,-13.1 59.12,-28.32 v 93.45 h 53.81 V 2062 h -53.81 v 27.26 c -13.1,-17.7 -31.15,-30.8 -59.12,-30.8 -44.25,0 -86.37,34.69 -86.37,98.77"
         style="fill:#a6a7a7;fill-opacity:1;fill-rule:nonzero;stroke:none"
         id="path66" /><path
         d="m 3727.08,2171.74 c -3.19,24.08 -17.35,40.36 -40.01,40.36 -22.3,0 -36.82,-15.93 -41.06,-40.36 z m -133.82,-15.22 c 0,54.16 38.59,98.77 93.81,98.77 63.37,0 92.4,-49.21 92.4,-103.01 0,-4.25 -0.36,-9.21 -0.71,-14.16 h -132.04 c 5.31,-24.43 22.3,-37.18 46.37,-37.18 18.05,0 31.15,5.66 46.02,19.47 l 30.8,-27.26 c -17.7,-21.94 -43.19,-35.4 -77.53,-35.4 -56.99,0 -99.12,40 -99.12,98.77"
         style="fill:#a6a7a7;fill-opacity:1;fill-rule:nonzero;stroke:none"
         id="path68" /></g></g></svg>
