<?xml version="1.0" encoding="UTF-8" standalone="no"?>
<svg
   xmlns:dc="http://purl.org/dc/elements/1.1/"
   xmlns:cc="http://creativecommons.org/ns#"
   xmlns:rdf="http://www.w3.org/1999/02/22-rdf-syntax-ns#"
   xmlns:svg="http://www.w3.org/2000/svg"
   xmlns="http://www.w3.org/2000/svg"
   xmlns:sodipodi="http://sodipodi.sourceforge.net/DTD/sodipodi-0.dtd"
   xmlns:inkscape="http://www.inkscape.org/namespaces/inkscape"
   version="1.1"
   id="svg2"
   xml:space="preserve"
   width="666.66669"
   height="666.66669"
   viewBox="0 0 666.66669 666.66669"
   sodipodi:docname="general-qr-code-frame-27.eps"><metadata
     id="metadata8"><rdf:RDF><cc:Work
         rdf:about=""><dc:format>image/svg+xml</dc:format><dc:type
           rdf:resource="http://purl.org/dc/dcmitype/StillImage" /></cc:Work></rdf:RDF></metadata><defs
     id="defs6" /><sodipodi:namedview
     pagecolor="#ffffff"
     bordercolor="#666666"
     borderopacity="1"
     objecttolerance="10"
     gridtolerance="10"
     guidetolerance="10"
     inkscape:pageopacity="0"
     inkscape:pageshadow="2"
     inkscape:window-width="640"
     inkscape:window-height="480"
     id="namedview4" /><g
     id="g10"
     inkscape:groupmode="layer"
     inkscape:label="ink_ext_XXXXXX"
     transform="matrix(1.3333333,0,0,-1.3333333,0,666.66667)"><g
       id="g12"
       transform="scale(0.1)"><path
         d="M 3622.29,571.699 H 1372.71 c -169.94,0 -307.71,137.77 -307.71,307.711 v 3327.88 c 0,169.94 137.77,307.71 307.71,307.71 H 3622.29 C 3792.23,4515 3930,4377.23 3930,4207.29 V 879.41 c 0,-169.941 -137.77,-307.711 -307.71,-307.711 z"
         style="fill:none;stroke:#2a2a2b;stroke-width:68.7331;stroke-linecap:round;stroke-linejoin:miter;stroke-miterlimit:10;stroke-dasharray:none;stroke-opacity:1"
         id="path14" /><path
         d="M 3642.21,850 H 1352.79 c -77.48,0 -140.29,62.809 -140.29,140.289 v 349.421 c 0,77.48 62.81,140.29 140.29,140.29 h 2289.42 c 77.48,0 140.29,-62.81 140.29,-140.29 V 990.289 C 3782.5,912.809 3719.69,850 3642.21,850"
         style="fill:#2a2a2b;fill-opacity:1;fill-rule:nonzero;stroke:none"
         id="path16" /><path
         d="m 1731.11,1082.42 18.62,22.04 c 27.74,-25.08 54.33,-37.61 91.19,-37.61 35.71,0 59.27,18.99 59.27,45.97 0,24.69 -13.3,38.75 -69.15,50.53 -61.17,13.3 -89.29,33.06 -89.29,77.51 0,41.79 36.86,72.57 87.39,72.57 38.76,0 66.49,-11.02 93.47,-32.68 l -17.48,-23.18 c -24.7,20.14 -49.39,28.88 -76.75,28.88 -34.58,0 -56.61,-18.99 -56.61,-43.69 0,-25.08 13.67,-39.14 72.19,-51.68 59.27,-12.91 86.63,-34.57 86.63,-75.98 0,-45.6 -38,-75.23 -90.81,-75.23 -42.18,0 -76.75,14.06 -108.67,42.55"
         style="fill:#ffffff;fill-opacity:1;fill-rule:nonzero;stroke:none"
         id="path18" /><path
         d="m 1974.69,1141.69 c 0,55.47 43.31,102.59 100.69,102.59 37.23,0 60.41,-15.58 78.64,-34.96 l -18.61,-19.75 c -15.58,16.33 -33.82,28.87 -60.41,28.87 -39.9,0 -70.29,-33.82 -70.29,-76.75 0,-42.55 31.15,-76.37 72.18,-76.37 25.08,0 43.7,12.92 59.28,29.64 l 19.38,-17.86 c -19.76,-22.04 -43.32,-37.99 -80.17,-37.99 -57.38,0 -100.69,46.73 -100.69,102.58"
         style="fill:#ffffff;fill-opacity:1;fill-rule:nonzero;stroke:none"
         id="path20" /><path
         d="m 2333.39,1115.85 v 18.24 c -14.44,4.18 -33.44,8.36 -57.37,8.36 -36.48,0 -57.37,-15.96 -57.37,-40.27 0,-24.7 22.79,-39.14 49.39,-39.14 36.09,0 65.35,21.66 65.35,52.81 z m -144.38,-14.43 c 0,42.17 34.19,64.21 83.97,64.21 25.07,0 42.55,-3.42 60.03,-8.36 v 6.08 c 0,34.96 -21.28,53.19 -58.13,53.19 -23.18,0 -41.42,-5.7 -59.66,-14.05 l -8.73,23.93 c 21.65,9.88 42.55,16.72 71.43,16.72 27.73,0 49.39,-7.6 63.45,-21.66 13.67,-13.68 20.51,-32.68 20.51,-57.75 v -120.06 h -28.87 v 29.25 c -13.68,-17.48 -36.1,-33.43 -70.67,-33.43 -36.86,0 -73.33,20.9 -73.33,61.93"
         style="fill:#ffffff;fill-opacity:1;fill-rule:nonzero;stroke:none"
         id="path22" /><path
         d="m 2423.85,1240.1 h 29.25 v -34.2 c 12.92,21.28 33.44,38.38 67.25,38.38 47.5,0 75.23,-31.92 75.23,-78.65 v -121.96 h -29.25 v 114.74 c 0,36.47 -19.76,59.27 -54.34,59.27 -33.81,0 -58.89,-24.7 -58.89,-61.55 v -112.46 h -29.25 v 196.43"
         style="fill:#ffffff;fill-opacity:1;fill-rule:nonzero;stroke:none"
         id="path24" /><path
         d="m 2771.92,1240.1 h 29.25 v -33.06 c 12.92,19.38 30.4,37.24 63.45,37.24 31.92,0 52.44,-17.1 63.08,-39.14 14.05,21.66 34.95,39.14 69.15,39.14 45.21,0 72.94,-30.4 72.94,-79.03 v -121.58 h -29.25 v 114.74 c 0,38 -19,59.27 -50.92,59.27 -29.63,0 -54.33,-22.04 -54.33,-60.79 v -113.22 h -28.87 v 115.5 c 0,36.86 -19.38,58.51 -50.54,58.51 -31.15,0 -54.71,-25.83 -54.71,-61.93 v -112.08 h -29.25 v 196.43"
         style="fill:#ffffff;fill-opacity:1;fill-rule:nonzero;stroke:none"
         id="path26" /><path
         d="m 3277.29,1153.47 c -3.42,35.71 -23.93,66.11 -62.69,66.11 -33.81,0 -59.65,-28.12 -63.83,-66.11 z m -57.37,-88.9 c 26.98,0 45.97,11.01 61.94,27.73 l 18.23,-16.34 c -19.76,-22.03 -43.69,-36.85 -80.92,-36.85 -53.96,0 -98.03,41.41 -98.03,102.58 0,57 39.89,102.59 94.22,102.59 58.14,0 91.57,-46.36 91.57,-104.11 0,-2.66 0,-5.7 -0.38,-10.26 h -155.78 c 4.18,-41.41 34.58,-65.34 69.15,-65.34"
         style="fill:#ffffff;fill-opacity:1;fill-rule:nonzero;stroke:none"
         id="path28" /><path
         d="M 3674.26,1822.91 H 1320.74 V 4176.44 H 3674.26 V 1822.91"
         style="fill:#ffffff;fill-opacity:1;fill-rule:nonzero;stroke:none"
         id="path30" /><path
         d="M 3499.31,2000.99 H 1495.69 V 4004.61 H 3499.31 V 2000.99"
         style="fill:#ffffff;fill-opacity:1;fill-rule:nonzero;stroke:none"
         id="path32" /><path
         d="m 3455.05,3524.54 h 88.52 v 524.34 h -524.34 v -88.52 h 435.82 v -435.82"
         style="fill:#a6a7a7;fill-opacity:1;fill-rule:nonzero;stroke:none"
         id="path34" /><path
         d="m 1539.95,3524.54 v 435.82 h 435.82 v 88.52 h -524.34 v -524.34 h 88.52"
         style="fill:#a6a7a7;fill-opacity:1;fill-rule:nonzero;stroke:none"
         id="path36" /><path
         d="m 1539.95,2481.07 h -88.52 v -524.34 h 524.34 v 88.52 h -435.82 v 435.82"
         style="fill:#a6a7a7;fill-opacity:1;fill-rule:nonzero;stroke:none"
         id="path38" /><path
         d="m 3455.05,2481.07 v -435.82 h -435.82 v -88.52 h 524.34 v 524.34 h -88.52"
         style="fill:#a6a7a7;fill-opacity:1;fill-rule:nonzero;stroke:none"
         id="path40" /><path
         d="m 1850.41,3197.66 -65.14,143.37 -65.48,-143.37 z m -73.63,163.54 h 17.7 l 115.4,-249.57 h -20.17 l -31.51,69.39 h -146.21 l -31.5,-69.39 h -19.12 l 115.41,249.57"
         style="fill:#a6a7a7;fill-opacity:1;fill-rule:nonzero;stroke:none"
         id="path42" /><path
         d="m 2101.09,3202.26 c 0,46.37 -36.1,77.53 -73.63,77.53 -39.29,0 -70.8,-28.68 -70.8,-77.89 0,-47.44 32.92,-77.88 70.8,-77.88 37.53,0 73.63,31.51 73.63,78.24 z m -163.19,-0.36 c 0,58.76 44.25,94.52 87.79,94.52 36.11,0 59.48,-20.53 74.34,-43.19 v 116.82 h 17.35 v -258.42 h -17.35 v 40.36 c -15.57,-23.72 -38.58,-44.61 -74.34,-44.61 -43.54,0 -87.79,35.05 -87.79,94.52"
         style="fill:#a6a7a7;fill-opacity:1;fill-rule:nonzero;stroke:none"
         id="path44" /><path
         d="m 2334.78,3202.26 c 0,46.37 -36.11,77.53 -73.64,77.53 -39.29,0 -70.8,-28.68 -70.8,-77.89 0,-47.44 32.93,-77.88 70.8,-77.88 37.53,0 73.64,31.51 73.64,78.24 z m -163.2,-0.36 c 0,58.76 44.25,94.52 87.8,94.52 36.1,0 59.47,-20.53 74.34,-43.19 v 116.82 h 17.34 v -258.42 h -17.34 v 40.36 c -15.58,-23.72 -38.59,-44.61 -74.34,-44.61 -43.55,0 -87.8,35.05 -87.8,94.52"
         style="fill:#a6a7a7;fill-opacity:1;fill-rule:nonzero;stroke:none"
         id="path46" /><path
         d="m 2509.36,3061.72 6.01,15.22 c 9.56,-4.61 17.35,-6.73 30.8,-6.73 18.76,0 31.15,10.98 44.61,42.49 l -86.74,179.47 h 20.18 l 75.05,-161.42 65.14,161.42 h 19.12 l -78.24,-186.91 c -15.93,-37.88 -34.34,-51.33 -60.18,-51.33 -13.81,0 -23.72,2.48 -35.75,7.79"
         style="fill:#a6a7a7;fill-opacity:1;fill-rule:nonzero;stroke:none"
         id="path48" /><path
         d="m 2875.08,3201.9 c 0,43.54 -33.63,78.24 -74.35,78.24 -40.71,0 -73.63,-35.05 -73.63,-78.24 0,-43.54 32.57,-78.23 74.35,-78.23 40,0 73.63,35.04 73.63,78.23 z m -166.74,0 c 0,50.62 39.3,94.52 93.11,94.52 53.45,0 92.39,-43.19 92.39,-94.52 0,-50.62 -39.3,-94.52 -93.11,-94.52 -53.45,0 -92.39,43.19 -92.39,94.52"
         style="fill:#a6a7a7;fill-opacity:1;fill-rule:nonzero;stroke:none"
         id="path50" /><path
         d="m 2943.8,3181.72 v 110.45 h 17.34 v -107.26 c 0,-37.17 20.89,-61.6 57.35,-61.6 35.4,0 62.66,26.9 62.66,64.43 v 104.43 h 17.35 v -180.54 h -17.35 v 33.63 c -12.04,-21.24 -32.21,-37.88 -65.13,-37.88 -45.67,0 -72.22,31.16 -72.22,74.34"
         style="fill:#a6a7a7;fill-opacity:1;fill-rule:nonzero;stroke:none"
         id="path52" /><path
         d="m 3164.38,3292.17 h 17.34 v -51.33 c 14.16,32.22 44.26,55.58 80.01,54.16 v -19.11 h -1.77 c -41.78,0 -78.24,-31.51 -78.24,-90.27 v -73.99 h -17.34 v 180.54"
         style="fill:#a6a7a7;fill-opacity:1;fill-rule:nonzero;stroke:none"
         id="path54" /><path
         d="m 1844.4,2739.49 -40.36,34.34 34.7,38.94 40.7,-36.81 c 4.61,10.26 6.73,21.59 6.73,34.69 0,42.48 -31.15,77.88 -75.05,77.88 -43.89,0 -74.34,-34.69 -74.34,-77.88 0,-42.48 31.15,-77.88 75.05,-77.88 12.04,0 23.01,2.47 32.57,6.72 z m 40.36,-35.75 c -20.89,-13.45 -46.02,-21.24 -73.64,-21.24 -76.46,0 -131.33,56.99 -131.33,128.15 0,70.44 55.58,128.15 132.04,128.15 76.47,0 131.33,-56.99 131.33,-128.15 0,-25.85 -7.78,-50.62 -21.94,-71.16 l 25.49,-21.59 -34.7,-38.58 -27.25,24.42"
         style="fill:#a6a7a7;fill-opacity:1;fill-rule:nonzero;stroke:none"
         id="path56" /><path
         d="m 2101.46,2814.19 c 26.55,0 41.77,14.16 41.77,35.75 0,23.37 -16.28,35.4 -42.83,35.4 h -54.16 v -71.15 z m -109.74,120.36 H 2105 c 31.5,0 55.93,-8.85 72.22,-25.14 13.81,-13.8 21.24,-33.27 21.24,-57.34 0,-40 -21.59,-65.14 -53.1,-76.82 l 60.53,-88.5 h -63.72 l -53.81,79.29 h -42.12 v -79.29 h -54.52 v 247.8"
         style="fill:#a6a7a7;fill-opacity:1;fill-rule:nonzero;stroke:none"
         id="path58" /><path
         d="m 2342.95,2810.65 c 0,70.44 53.1,128.15 129.21,128.15 46.73,0 72.93,-17.7 95.94,-40.36 l -32.57,-37.52 c -19.11,17.34 -35.4,27.61 -63.72,27.61 -41.77,0 -71.86,-34.69 -71.86,-77.88 0,-42.48 29.38,-77.88 71.86,-77.88 28.32,0 45.67,11.33 65.13,29.03 l 34.7,-37.17 c -25.49,-27.26 -53.81,-42.13 -101.6,-42.13 -72.93,0 -127.09,56.29 -127.09,128.15"
         style="fill:#a6a7a7;fill-opacity:1;fill-rule:nonzero;stroke:none"
         id="path60" /><path
         d="m 2749.04,2781.27 c 0,27.96 -20.18,52.39 -49.92,52.39 -30.79,0 -49.2,-23.72 -49.2,-52.39 0,-27.97 20.18,-52.39 49.91,-52.39 30.8,0 49.21,23.71 49.21,52.39 z m -152.22,0 c 0,54.51 43.89,98.76 103.01,98.76 58.76,0 102.31,-43.54 102.31,-98.76 0,-54.52 -43.9,-98.77 -103.02,-98.77 -58.76,0 -102.3,43.54 -102.3,98.77"
         style="fill:#a6a7a7;fill-opacity:1;fill-rule:nonzero;stroke:none"
         id="path62" /><path
         d="m 2978.83,2781.97 c 0,31.51 -20.89,52.4 -46.03,52.4 -25.13,0 -46.37,-20.53 -46.37,-53.1 0,-31.51 21.24,-52.39 46.37,-52.39 25.14,0 46.03,20.88 46.03,53.09 z m -146.21,0 c 0,63.37 41.42,98.06 86.38,98.06 28.68,0 46.37,-13.1 59.12,-28.32 v 93.46 h 53.8 v -258.42 h -53.8 V 2714 c -13.1,-17.69 -31.16,-30.79 -59.12,-30.79 -44.25,0 -86.38,34.69 -86.38,98.76"
         style="fill:#a6a7a7;fill-opacity:1;fill-rule:nonzero;stroke:none"
         id="path64" /><path
         d="m 3204.72,2796.49 c -3.19,24.07 -17.35,40.36 -40,40.36 -22.3,0 -36.82,-15.93 -41.07,-40.36 z m -133.81,-15.22 c 0,54.16 38.58,98.76 93.81,98.76 63.37,0 92.39,-49.2 92.39,-103.01 0,-4.25 -0.35,-9.21 -0.7,-14.16 h -132.04 c 5.3,-24.43 22.3,-37.17 46.37,-37.17 18.05,0 31.15,5.66 46.02,19.47 l 30.8,-27.26 c -17.71,-21.95 -43.19,-35.4 -77.53,-35.4 -56.99,0 -99.12,40 -99.12,98.77"
         style="fill:#a6a7a7;fill-opacity:1;fill-rule:nonzero;stroke:none"
         id="path66" /></g></g></svg>
