<svg width="550" height="1000" viewBox="0 0 550 1000" fill="none" xmlns="http://www.w3.org/2000/svg">
<rect x="69.5" y="110.5" width="411" height="755" rx="15.5" fill="white" stroke="#333333" stroke-width="23"/>
<rect x="69.5" y="729.5" width="411" height="136" rx="15.5" fill="white" stroke="#333333" stroke-width="23"/>
<path d="M206.557 804.225C206.557 803.069 206.148 802.178 205.329 801.551C204.522 800.925 203.059 800.293 200.939 799.654C198.819 799.016 197.133 798.305 195.88 797.522C193.483 796.017 192.285 794.054 192.285 791.633C192.285 789.513 193.146 787.767 194.868 786.394C196.603 785.021 198.849 784.334 201.607 784.334C203.438 784.334 205.07 784.671 206.503 785.346C207.936 786.02 209.063 786.984 209.882 788.236C210.701 789.477 211.11 790.856 211.11 792.374H206.557C206.557 791 206.124 789.929 205.257 789.158C204.401 788.375 203.173 787.983 201.571 787.983C200.078 787.983 198.915 788.303 198.084 788.941C197.265 789.579 196.856 790.471 196.856 791.615C196.856 792.578 197.301 793.385 198.193 794.036C199.084 794.674 200.553 795.3 202.601 795.915C204.648 796.517 206.292 797.209 207.533 797.992C208.774 798.763 209.683 799.654 210.261 800.666C210.839 801.666 211.128 802.84 211.128 804.189C211.128 806.381 210.285 808.127 208.599 809.428C206.925 810.717 204.648 811.361 201.77 811.361C199.867 811.361 198.114 811.012 196.512 810.313C194.923 809.603 193.682 808.627 192.791 807.387C191.912 806.146 191.472 804.701 191.472 803.051H196.043C196.043 804.544 196.537 805.701 197.524 806.52C198.512 807.339 199.927 807.748 201.77 807.748C203.36 807.748 204.552 807.429 205.347 806.791C206.154 806.14 206.557 805.285 206.557 804.225ZM236.506 802.437C236.241 805.243 235.205 807.435 233.398 809.013C231.592 810.578 229.189 811.361 226.19 811.361C224.094 811.361 222.245 810.868 220.643 809.88C219.054 808.88 217.825 807.465 216.958 805.634C216.091 803.804 215.639 801.678 215.603 799.257V796.8C215.603 794.319 216.042 792.133 216.922 790.242C217.801 788.351 219.06 786.893 220.698 785.87C222.348 784.846 224.251 784.334 226.407 784.334C229.309 784.334 231.646 785.123 233.416 786.701C235.187 788.278 236.217 790.507 236.506 793.385H231.953C231.736 791.494 231.182 790.133 230.291 789.302C229.412 788.459 228.117 788.038 226.407 788.038C224.419 788.038 222.89 788.766 221.818 790.224C220.758 791.669 220.216 793.795 220.192 796.601V798.932C220.192 801.774 220.698 803.942 221.709 805.436C222.733 806.929 224.227 807.676 226.19 807.676C227.984 807.676 229.333 807.272 230.237 806.465C231.14 805.658 231.712 804.315 231.953 802.437H236.506ZM256.626 804.875H246.436L244.305 811H239.553L249.49 784.695H253.591L263.545 811H258.776L256.626 804.875ZM247.719 801.19H255.343L251.531 790.278L247.719 801.19ZM288.706 811H284.135L272.41 792.337V811H267.839V784.695H272.41L284.171 803.43V784.695H288.706V811ZM311.838 784.695L319.425 804.857L326.995 784.695H332.903V811H328.35V802.328L328.802 790.729L321.033 811H317.763L310.013 790.748L310.465 802.328V811H305.912V784.695H311.838ZM354.992 799.257H344.189V807.351H356.817V811H339.618V784.695H356.691V788.381H344.189V795.644H354.992V799.257Z" fill="black"/>
<rect x="97" y="197" width="355" height="355" rx="7.1" fill="white"/>
<path d="M356.151 221.85H427.151V292.85" stroke="#C2C2C2" stroke-width="14.2"/>
<path d="M192.852 221.85H121.852V292.85" stroke="#C2C2C2" stroke-width="14.2"/>
<path d="M356.151 527.148H427.151V456.148" stroke="#C2C2C2" stroke-width="14.2"/>
<path d="M192.852 527.148H121.852V456.148" stroke="#C2C2C2" stroke-width="14.2"/>
<path d="M190.094 345.58L184.219 328.48L177.974 345.58H190.094ZM181.478 322.737H187.407L201.45 361.441H195.706L191.78 349.848H176.472L172.283 361.441H166.908L181.478 322.737ZM208.59 347.662C208.59 350.683 209.231 353.212 210.514 355.25C211.796 357.287 213.851 358.306 216.679 358.306C218.875 358.306 220.675 357.366 222.08 355.487C223.503 353.59 224.214 350.876 224.214 347.345C224.214 343.78 223.485 341.145 222.028 339.441C220.57 337.72 218.769 336.859 216.626 336.859C214.237 336.859 212.296 337.772 210.803 339.599C209.328 341.426 208.59 344.113 208.59 347.662ZM215.73 332.722C217.891 332.722 219.7 333.179 221.158 334.093C222.001 334.619 222.958 335.542 224.03 336.859V322.605H228.588V361.441H224.32V357.516C223.213 359.255 221.905 360.51 220.394 361.283C218.883 362.056 217.153 362.443 215.203 362.443C212.059 362.443 209.337 361.125 207.036 358.49C204.735 355.838 203.584 352.316 203.584 347.925C203.584 343.815 204.629 340.258 206.72 337.254C208.827 334.233 211.831 332.722 215.73 332.722ZM238.627 347.662C238.627 350.683 239.268 353.212 240.55 355.25C241.832 357.287 243.887 358.306 246.715 358.306C248.911 358.306 250.711 357.366 252.117 355.487C253.539 353.59 254.251 350.876 254.251 347.345C254.251 343.78 253.522 341.145 252.064 339.441C250.606 337.72 248.806 336.859 246.663 336.859C244.274 336.859 242.333 337.772 240.84 339.599C239.364 341.426 238.627 344.113 238.627 347.662ZM245.767 332.722C247.927 332.722 249.736 333.179 251.194 334.093C252.037 334.619 252.995 335.542 254.066 336.859V322.605H258.624V361.441H254.356V357.516C253.249 359.255 251.941 360.51 250.43 361.283C248.92 362.056 247.19 362.443 245.24 362.443C242.096 362.443 239.373 361.125 237.072 358.49C234.771 355.838 233.62 352.316 233.62 347.925C233.62 343.815 234.666 340.258 236.756 337.254C238.864 334.233 241.867 332.722 245.767 332.722ZM298.304 333.223H303.547C302.88 335.032 301.395 339.16 299.094 345.606C297.373 350.454 295.933 354.407 294.773 357.463C292.033 364.665 290.101 369.056 288.977 370.637C287.853 372.218 285.921 373.008 283.18 373.008C282.513 373.008 281.995 372.982 281.626 372.929C281.275 372.876 280.835 372.78 280.309 372.639V368.318C281.134 368.546 281.731 368.687 282.1 368.74C282.469 368.792 282.794 368.819 283.075 368.819C283.953 368.819 284.594 368.669 284.998 368.371C285.42 368.09 285.771 367.738 286.052 367.317C286.14 367.176 286.456 366.456 287.001 365.156C287.545 363.857 287.941 362.891 288.186 362.258L277.753 333.223H283.128L290.69 356.198L298.304 333.223ZM318.855 358.385C321.999 358.385 324.151 357.199 325.31 354.828C326.487 352.439 327.076 349.787 327.076 346.871C327.076 344.236 326.654 342.093 325.811 340.442C324.476 337.843 322.175 336.543 318.908 336.543C316.01 336.543 313.902 337.649 312.584 339.863C311.267 342.076 310.608 344.746 310.608 347.872C310.608 350.876 311.267 353.379 312.584 355.381C313.902 357.384 315.992 358.385 318.855 358.385ZM319.04 332.406C322.676 332.406 325.749 333.618 328.261 336.042C330.773 338.466 332.029 342.032 332.029 346.739C332.029 351.289 330.922 355.048 328.709 358.016C326.496 360.985 323.062 362.469 318.407 362.469C314.525 362.469 311.443 361.16 309.159 358.543C306.876 355.908 305.734 352.378 305.734 347.951C305.734 343.209 306.937 339.432 309.344 336.622C311.75 333.811 314.982 332.406 319.04 332.406ZM342.436 333.223V351.956C342.436 353.397 342.665 354.573 343.121 355.487C343.964 357.173 345.537 358.016 347.838 358.016C351.14 358.016 353.388 356.541 354.583 353.59C355.232 352.009 355.557 349.84 355.557 347.082V333.223H360.3V361.441H355.821L355.874 357.278C355.259 358.35 354.495 359.255 353.581 359.992C351.772 361.468 349.577 362.205 346.994 362.205C342.972 362.205 340.232 360.862 338.774 358.174C337.984 356.734 337.588 354.811 337.588 352.404V333.223H342.436ZM367.862 333.223H372.367V338.097C372.736 337.149 373.641 335.998 375.081 334.646C376.521 333.276 378.181 332.591 380.061 332.591C380.149 332.591 380.298 332.6 380.509 332.617C380.719 332.635 381.08 332.67 381.589 332.722V337.729C381.308 337.676 381.044 337.641 380.798 337.623C380.57 337.606 380.315 337.597 380.034 337.597C377.646 337.597 375.81 338.37 374.528 339.915C373.245 341.444 372.604 343.209 372.604 345.211V361.441H367.862V333.223Z" fill="#C2C2C2"/>
<path d="M190.571 425.39C188.832 425.97 186.75 426.26 184.326 426.26C179.267 426.26 175.087 424.749 171.785 421.728C167.78 418.092 165.777 412.752 165.777 405.709C165.777 398.612 167.832 393.246 171.943 389.61C175.298 386.642 179.469 385.158 184.458 385.158C189.481 385.158 193.697 386.73 197.105 389.874C201.039 393.51 203.007 398.595 203.007 405.129C203.007 408.589 202.585 411.488 201.742 413.824C201.057 416.055 200.047 417.908 198.712 419.383L203.191 423.572L198.949 427.999L194.259 423.572C192.836 424.433 191.607 425.039 190.571 425.39ZM188.832 418.382L184.906 414.641L189.095 410.267L193.021 414.008C193.636 412.744 194.066 411.637 194.312 410.688C194.698 409.266 194.892 407.606 194.892 405.709C194.892 401.353 193.996 397.989 192.204 395.618C190.43 393.229 187.83 392.034 184.405 392.034C181.191 392.034 178.626 393.176 176.712 395.46C174.797 397.743 173.84 401.159 173.84 405.709C173.84 411.031 175.21 414.843 177.95 417.144C179.724 418.637 181.849 419.383 184.326 419.383C185.257 419.383 186.153 419.269 187.014 419.041C187.488 418.918 188.094 418.698 188.832 418.382ZM225.718 409.951H217.34V425.18H209.409V386.343H228.458C231.181 386.396 233.271 386.73 234.729 387.344C236.205 387.959 237.452 388.864 238.471 390.058C239.314 391.042 239.981 392.131 240.473 393.325C240.965 394.52 241.211 395.881 241.211 397.409C241.211 399.254 240.745 401.072 239.814 402.863C238.883 404.637 237.346 405.893 235.203 406.631C236.995 407.351 238.26 408.379 238.997 409.714C239.753 411.031 240.13 413.051 240.13 415.774V418.382C240.13 420.156 240.201 421.359 240.341 421.992C240.552 422.993 241.044 423.731 241.817 424.205V425.18H232.885C232.639 424.319 232.463 423.625 232.358 423.098C232.147 422.009 232.033 420.894 232.015 419.752L231.963 416.142C231.928 413.666 231.471 412.015 230.593 411.189C229.732 410.364 228.107 409.951 225.718 409.951ZM230.645 402.89C232.261 402.152 233.069 400.694 233.069 398.516C233.069 396.162 232.288 394.581 230.724 393.773C229.846 393.317 228.529 393.088 226.772 393.088H217.34V403.522H226.535C228.362 403.522 229.732 403.311 230.645 402.89ZM287.477 406.763H279.784C279.643 405.691 279.283 404.725 278.703 403.864C277.86 402.705 276.552 402.125 274.778 402.125C272.248 402.125 270.518 403.381 269.587 405.893C269.095 407.228 268.849 409.002 268.849 411.215C268.849 413.323 269.095 415.018 269.587 416.301C270.483 418.689 272.169 419.884 274.646 419.884C276.402 419.884 277.65 419.41 278.387 418.461C279.125 417.513 279.573 416.283 279.731 414.772H287.398C287.222 417.056 286.397 419.216 284.921 421.254C282.568 424.539 279.081 426.181 274.461 426.181C269.842 426.181 266.443 424.811 264.265 422.071C262.087 419.331 260.998 415.774 260.998 411.4C260.998 406.464 262.201 402.626 264.607 399.886C267.014 397.146 270.334 395.776 274.567 395.776C278.168 395.776 281.11 396.584 283.393 398.2C285.694 399.816 287.056 402.67 287.477 406.763ZM316.618 400.097C319.042 403.135 320.254 406.728 320.254 410.873C320.254 415.089 319.042 418.698 316.618 421.702C314.194 424.688 310.514 426.181 305.578 426.181C300.642 426.181 296.962 424.688 294.538 421.702C292.114 418.698 290.902 415.089 290.902 410.873C290.902 406.728 292.114 403.135 294.538 400.097C296.962 397.058 300.642 395.539 305.578 395.539C310.514 395.539 314.194 397.058 316.618 400.097ZM305.552 401.888C303.356 401.888 301.661 402.67 300.467 404.233C299.29 405.779 298.701 407.992 298.701 410.873C298.701 413.754 299.29 415.976 300.467 417.539C301.661 419.102 303.356 419.884 305.552 419.884C307.747 419.884 309.434 419.102 310.61 417.539C311.787 415.976 312.376 413.754 312.376 410.873C312.376 407.992 311.787 405.779 310.61 404.233C309.434 402.67 307.747 401.888 305.552 401.888ZM351.792 386.396V425.18H344.494V421.201C343.422 422.905 342.201 424.143 340.831 424.916C339.461 425.689 337.757 426.076 335.72 426.076C332.365 426.076 329.537 424.723 327.236 422.018C324.952 419.295 323.811 415.809 323.811 411.558C323.811 406.657 324.935 402.802 327.183 399.991C329.449 397.181 332.47 395.776 336.247 395.776C337.986 395.776 339.531 396.162 340.884 396.935C342.236 397.69 343.334 398.744 344.177 400.097V386.396H351.792ZM331.557 411.005C331.557 413.657 332.084 415.774 333.138 417.354C334.174 418.953 335.755 419.752 337.88 419.752C340.006 419.752 341.622 418.962 342.728 417.381C343.835 415.8 344.388 413.754 344.388 411.242C344.388 407.729 343.501 405.217 341.727 403.706C340.638 402.793 339.373 402.336 337.933 402.336C335.737 402.336 334.121 403.171 333.085 404.839C332.066 406.49 331.557 408.546 331.557 411.005ZM383.225 416.748C383.031 418.452 382.144 420.182 380.563 421.939C378.104 424.732 374.662 426.128 370.235 426.128C366.582 426.128 363.358 424.951 360.566 422.598C357.773 420.244 356.376 416.415 356.376 411.11C356.376 406.139 357.632 402.327 360.144 399.675C362.673 397.023 365.949 395.697 369.972 395.697C372.361 395.697 374.512 396.145 376.427 397.04C378.341 397.936 379.922 399.35 381.169 401.282C382.294 402.986 383.023 404.962 383.356 407.211C383.55 408.528 383.629 410.425 383.593 412.902H363.938C364.043 415.782 364.948 417.802 366.652 418.962C367.688 419.682 368.935 420.042 370.393 420.042C371.939 420.042 373.195 419.603 374.161 418.725C374.688 418.25 375.153 417.592 375.557 416.748H383.225ZM375.795 407.948C375.672 405.963 375.066 404.462 373.977 403.443C372.905 402.407 371.57 401.888 369.972 401.888C368.233 401.888 366.88 402.433 365.914 403.522C364.966 404.611 364.368 406.086 364.123 407.948H375.795Z" fill="#C2C2C2"/>
</svg>
