<?xml version="1.0" encoding="UTF-8" standalone="no"?>
<svg
   xmlns:dc="http://purl.org/dc/elements/1.1/"
   xmlns:cc="http://creativecommons.org/ns#"
   xmlns:rdf="http://www.w3.org/1999/02/22-rdf-syntax-ns#"
   xmlns:svg="http://www.w3.org/2000/svg"
   xmlns="http://www.w3.org/2000/svg"
   xmlns:sodipodi="http://sodipodi.sourceforge.net/DTD/sodipodi-0.dtd"
   xmlns:inkscape="http://www.inkscape.org/namespaces/inkscape"
   version="1.1"
   id="svg2"
   xml:space="preserve"
   width="666.66669"
   height="666.66669"
   viewBox="0 0 666.66669 666.66669"
   sodipodi:docname="general-qr-code-frame-30.eps"><metadata
     id="metadata8"><rdf:RDF><cc:Work
         rdf:about=""><dc:format>image/svg+xml</dc:format><dc:type
           rdf:resource="http://purl.org/dc/dcmitype/StillImage" /></cc:Work></rdf:RDF></metadata><defs
     id="defs6" /><sodipodi:namedview
     pagecolor="#ffffff"
     bordercolor="#666666"
     borderopacity="1"
     objecttolerance="10"
     gridtolerance="10"
     guidetolerance="10"
     inkscape:pageopacity="0"
     inkscape:pageshadow="2"
     inkscape:window-width="640"
     inkscape:window-height="480"
     id="namedview4" /><g
     id="g10"
     inkscape:groupmode="layer"
     inkscape:label="ink_ext_XXXXXX"
     transform="matrix(1.3333333,0,0,-1.3333333,0,666.66667)"><g
       id="g12"
       transform="scale(0.1)"><path
         d="M 4177.28,916.309 H 993.324 V 4266.59 H 4177.28 V 916.309"
         style="fill:#ffffff;fill-opacity:1;fill-rule:nonzero;stroke:none"
         id="path14" /><path
         d="M 4177.28,916.309 H 993.324 V 4266.59 H 4177.28 Z"
         style="fill:none;stroke:#2a2a2b;stroke-width:66.0327;stroke-linecap:butt;stroke-linejoin:miter;stroke-miterlimit:10;stroke-dasharray:none;stroke-opacity:1"
         id="path16" /><path
         d="M 4520.84,483.262 H 649.766 V 1126.66 H 4520.84 V 483.262"
         style="fill:#2a2a2b;fill-opacity:1;fill-rule:nonzero;stroke:none"
         id="path18" /><path
         d="m 1569.21,703.512 31.09,36.957 c 28.15,-24.36 56.29,-38.219 92.84,-38.219 31.92,0 52.08,14.699 52.08,37.809 0,20.992 -11.75,32.339 -66.37,45.363 -62.59,14.699 -97.87,33.187 -97.87,88.207 0,50.41 42,85.281 100.4,85.281 42.84,0 76.87,-13.019 106.7,-36.969 l -27.73,-39.062 c -26.46,19.742 -52.93,30.242 -79.81,30.242 -30.25,0 -47.89,-15.539 -47.89,-35.699 0,-22.692 13.44,-32.774 69.73,-46.211 62.17,-15.121 94.51,-37.379 94.51,-86.949 0,-55.043 -43.26,-87.801 -105.01,-87.801 -44.95,0 -87.38,15.539 -122.67,47.051"
         style="fill:#ffffff;fill-opacity:1;fill-rule:nonzero;stroke:none"
         id="path20" /><path
         d="m 1844.74,807.691 c 0,83.59 62.59,152.059 151.64,152.059 54.19,0 86.96,-18.898 115.1,-45.789 l -33.18,-38.219 c -23.53,21.84 -48.73,36.547 -82.34,36.547 -56.29,0 -97.03,-46.219 -97.03,-104.598 0,-57.55 40.74,-104.601 97.03,-104.601 36.13,0 59.23,14.699 84.44,38.219 l 33.18,-33.598 c -30.66,-31.93 -64.27,-52.09 -119.3,-52.09 -85.69,0 -149.54,66.789 -149.54,152.07"
         style="fill:#ffffff;fill-opacity:1;fill-rule:nonzero;stroke:none"
         id="path22" /><path
         d="M 2345.83,777.441 2295,895.059 2244.59,777.441 Z m -73.94,179.379 h 47.89 l 129.39,-296.16 h -54.61 l -29.83,70.988 h -139.05 l -30.24,-70.988 h -52.93 l 129.38,296.16"
         style="fill:#ffffff;fill-opacity:1;fill-rule:nonzero;stroke:none"
         id="path24" /><path
         d="m 2499.51,954.711 h 47.89 l 157.53,-203.309 v 203.309 h 50.83 V 660.66 h -43.27 L 2550.34,869.859 V 660.66 h -50.83 v 294.051"
         style="fill:#ffffff;fill-opacity:1;fill-rule:nonzero;stroke:none"
         id="path26" /><path
         d="m 3011.3,954.711 h 55.03 l 89.48,-139.051 89.47,139.051 h 55.03 V 660.66 h -51.67 V 871.539 L 3155.81,732.91 h -1.68 l -92,137.789 V 660.66 h -50.83 v 294.051"
         style="fill:#ffffff;fill-opacity:1;fill-rule:nonzero;stroke:none"
         id="path28" /><path
         d="m 3375.86,954.711 h 218.02 V 908.5 h -166.35 v -76.449 h 147.45 V 785.84 h -147.45 v -78.969 h 168.45 V 660.66 h -220.12 v 294.051"
         style="fill:#ffffff;fill-opacity:1;fill-rule:nonzero;stroke:none"
         id="path30" /><path
         d="m 1379.57,796.449 -75.69,-43.699 -75.69,-43.699 v 174.801 l 75.69,-43.7 75.69,-43.703"
         style="fill:#ffffff;fill-opacity:1;fill-rule:nonzero;stroke:none"
         id="path32" /><path
         d="m 3815.71,796.449 75.69,43.703 75.69,43.7 V 709.051 l -75.69,43.699 -75.69,43.699"
         style="fill:#ffffff;fill-opacity:1;fill-rule:nonzero;stroke:none"
         id="path34" /><path
         d="M 3761.44,1543.91 H 1407.92 V 3897.44 H 3761.44 V 1543.91"
         style="fill:#ffffff;fill-opacity:1;fill-rule:nonzero;stroke:none"
         id="path36" /><path
         d="M 3586.49,1721.99 H 1582.87 V 3725.62 H 3586.49 V 1721.99"
         style="fill:#ffffff;fill-opacity:1;fill-rule:nonzero;stroke:none"
         id="path38" /><path
         d="m 3542.23,3245.54 h 88.52 v 524.34 h -524.34 v -88.52 h 435.82 v -435.82"
         style="fill:#a6a7a7;fill-opacity:1;fill-rule:nonzero;stroke:none"
         id="path40" /><path
         d="m 1627.12,3245.54 v 435.82 h 435.82 v 88.52 h -524.33 v -524.34 h 88.51"
         style="fill:#a6a7a7;fill-opacity:1;fill-rule:nonzero;stroke:none"
         id="path42" /><path
         d="m 1627.12,2202.07 h -88.51 v -524.34 h 524.33 v 88.52 h -435.82 v 435.82"
         style="fill:#a6a7a7;fill-opacity:1;fill-rule:nonzero;stroke:none"
         id="path44" /><path
         d="m 3542.23,2202.07 v -435.82 h -435.82 v -88.52 h 524.34 v 524.34 h -88.52"
         style="fill:#a6a7a7;fill-opacity:1;fill-rule:nonzero;stroke:none"
         id="path46" /><path
         d="m 1937.59,2918.66 -65.14,143.37 -65.49,-143.37 z m -73.63,163.54 h 17.7 l 115.4,-249.57 h -20.18 l -31.5,69.39 h -146.21 l -31.5,-69.39 h -19.12 l 115.41,249.57"
         style="fill:#a6a7a7;fill-opacity:1;fill-rule:nonzero;stroke:none"
         id="path48" /><path
         d="m 2188.27,2923.26 c 0,46.37 -36.1,77.53 -73.63,77.53 -39.29,0 -70.8,-28.68 -70.8,-77.88 0,-47.45 32.92,-77.89 70.8,-77.89 37.53,0 73.63,31.51 73.63,78.24 z m -163.19,-0.35 c 0,58.76 44.25,94.51 87.79,94.51 36.11,0 59.47,-20.53 74.34,-43.19 v 116.82 h 17.35 v -258.42 h -17.35 v 40.36 c -15.57,-23.72 -38.59,-44.61 -74.34,-44.61 -43.54,0 -87.79,35.05 -87.79,94.53"
         style="fill:#a6a7a7;fill-opacity:1;fill-rule:nonzero;stroke:none"
         id="path50" /><path
         d="m 2421.95,2923.26 c 0,46.37 -36.1,77.53 -73.63,77.53 -39.29,0 -70.8,-28.68 -70.8,-77.88 0,-47.45 32.92,-77.89 70.8,-77.89 37.53,0 73.63,31.51 73.63,78.24 z m -163.19,-0.35 c 0,58.76 44.25,94.51 87.79,94.51 36.11,0 59.48,-20.53 74.34,-43.19 v 116.82 h 17.35 v -258.42 h -17.35 v 40.36 c -15.57,-23.72 -38.59,-44.61 -74.34,-44.61 -43.54,0 -87.79,35.05 -87.79,94.53"
         style="fill:#a6a7a7;fill-opacity:1;fill-rule:nonzero;stroke:none"
         id="path52" /><path
         d="m 2596.53,2782.72 6.02,15.22 c 9.56,-4.61 17.35,-6.72 30.8,-6.72 18.76,0 31.15,10.97 44.6,42.48 l -86.73,179.47 h 20.18 l 75.05,-161.42 65.14,161.42 h 19.11 l -78.23,-186.91 c -15.93,-37.88 -34.34,-51.33 -60.18,-51.33 -13.81,0 -23.72,2.48 -35.76,7.79"
         style="fill:#a6a7a7;fill-opacity:1;fill-rule:nonzero;stroke:none"
         id="path54" /><path
         d="m 2962.26,2922.91 c 0,43.54 -33.64,78.23 -74.35,78.23 -40.71,0 -73.63,-35.05 -73.63,-78.23 0,-43.55 32.57,-78.24 74.34,-78.24 40,0 73.64,35.04 73.64,78.24 z m -166.74,0 c 0,50.62 39.29,94.51 93.1,94.51 53.46,0 92.4,-43.19 92.4,-94.51 0,-50.63 -39.3,-94.53 -93.11,-94.53 -53.45,0 -92.39,43.19 -92.39,94.53"
         style="fill:#a6a7a7;fill-opacity:1;fill-rule:nonzero;stroke:none"
         id="path56" /><path
         d="m 3030.98,2902.72 v 110.45 h 17.34 v -107.26 c 0,-37.17 20.89,-61.6 57.35,-61.6 35.4,0 62.66,26.91 62.66,64.44 v 104.42 h 17.34 v -180.54 h -17.34 v 33.63 c -12.04,-21.24 -32.22,-37.88 -65.14,-37.88 -45.67,0 -72.21,31.16 -72.21,74.34"
         style="fill:#a6a7a7;fill-opacity:1;fill-rule:nonzero;stroke:none"
         id="path58" /><path
         d="m 3251.55,3013.17 h 17.35 v -51.33 c 14.16,32.22 44.25,55.58 80.01,54.17 v -19.12 h -1.77 c -41.78,0 -78.24,-31.5 -78.24,-90.27 v -73.99 h -17.35 v 180.54"
         style="fill:#a6a7a7;fill-opacity:1;fill-rule:nonzero;stroke:none"
         id="path60" /><path
         d="m 1931.58,2460.49 -40.36,34.34 34.69,38.94 40.71,-36.81 c 4.61,10.26 6.73,21.59 6.73,34.69 0,42.48 -31.15,77.88 -75.05,77.88 -43.9,0 -74.34,-34.69 -74.34,-77.88 0,-42.48 31.15,-77.88 75.05,-77.88 12.03,0 23.01,2.48 32.57,6.72 z m 40.35,-35.75 c -20.89,-13.45 -46.02,-21.24 -73.63,-21.24 -76.46,0 -131.34,56.99 -131.34,128.15 0,70.44 55.58,128.15 132.05,128.15 76.46,0 131.33,-56.99 131.33,-128.15 0,-25.84 -7.78,-50.62 -21.94,-71.16 l 25.49,-21.59 -34.7,-38.58 -27.26,24.42"
         style="fill:#a6a7a7;fill-opacity:1;fill-rule:nonzero;stroke:none"
         id="path62" /><path
         d="m 2188.64,2535.19 c 26.55,0 41.77,14.16 41.77,35.75 0,23.37 -16.28,35.4 -42.83,35.4 h -54.17 v -71.15 z m -109.74,120.36 h 113.28 c 31.5,0 55.93,-8.85 72.21,-25.13 13.81,-13.81 21.24,-33.28 21.24,-57.35 0,-40 -21.59,-65.14 -53.1,-76.82 l 60.54,-88.5 h -63.72 l -53.81,79.3 h -42.13 v -79.3 h -54.51 v 247.8"
         style="fill:#a6a7a7;fill-opacity:1;fill-rule:nonzero;stroke:none"
         id="path64" /><path
         d="m 2430.13,2531.65 c 0,70.44 53.1,128.15 129.21,128.15 46.73,0 72.93,-17.7 95.93,-40.36 l -32.56,-37.52 c -19.12,17.34 -35.41,27.61 -63.73,27.61 -41.76,0 -71.86,-34.69 -71.86,-77.88 0,-42.48 29.38,-77.88 71.86,-77.88 28.32,0 45.67,11.33 65.14,29.03 l 34.7,-37.17 c -25.49,-27.26 -53.81,-42.13 -101.6,-42.13 -72.93,0 -127.09,56.29 -127.09,128.15"
         style="fill:#a6a7a7;fill-opacity:1;fill-rule:nonzero;stroke:none"
         id="path66" /><path
         d="m 2836.22,2502.27 c 0,27.96 -20.18,52.39 -49.92,52.39 -30.8,0 -49.21,-23.72 -49.21,-52.39 0,-27.97 20.19,-52.39 49.92,-52.39 30.8,0 49.21,23.71 49.21,52.39 z m -152.23,0 c 0,54.51 43.9,98.77 103.02,98.77 58.76,0 102.31,-43.54 102.31,-98.77 0,-54.52 -43.9,-98.77 -103.02,-98.77 -58.76,0 -102.31,43.55 -102.31,98.77"
         style="fill:#a6a7a7;fill-opacity:1;fill-rule:nonzero;stroke:none"
         id="path68" /><path
         d="m 3066.01,2502.97 c 0,31.51 -20.89,52.4 -46.03,52.4 -25.13,0 -46.37,-20.53 -46.37,-53.1 0,-31.51 21.24,-52.39 46.37,-52.39 25.14,0 46.03,20.88 46.03,53.09 z m -146.21,0 c 0,63.37 41.42,98.07 86.38,98.07 28.67,0 46.37,-13.11 59.11,-28.33 v 93.46 h 53.81 v -258.42 h -53.81 V 2435 c -13.09,-17.69 -31.15,-30.79 -59.11,-30.79 -44.26,0 -86.38,34.69 -86.38,98.76"
         style="fill:#a6a7a7;fill-opacity:1;fill-rule:nonzero;stroke:none"
         id="path70" /><path
         d="m 3291.9,2517.49 c -3.19,24.07 -17.35,40.36 -40.01,40.36 -22.3,0 -36.81,-15.93 -41.06,-40.36 z m -133.81,-15.22 c 0,54.16 38.58,98.77 93.8,98.77 63.37,0 92.4,-49.21 92.4,-103.02 0,-4.25 -0.35,-9.21 -0.71,-14.16 h -132.04 c 5.31,-24.43 22.3,-37.17 46.38,-37.17 18.05,0 31.15,5.66 46.02,19.47 l 30.8,-27.26 c -17.71,-21.95 -43.2,-35.4 -77.53,-35.4 -57,0 -99.12,40 -99.12,98.77"
         style="fill:#a6a7a7;fill-opacity:1;fill-rule:nonzero;stroke:none"
         id="path72" /></g></g></svg>
