<?xml version="1.0" encoding="UTF-8" standalone="no"?>
<svg
   xmlns:dc="http://purl.org/dc/elements/1.1/"
   xmlns:cc="http://creativecommons.org/ns#"
   xmlns:rdf="http://www.w3.org/1999/02/22-rdf-syntax-ns#"
   xmlns:svg="http://www.w3.org/2000/svg"
   xmlns="http://www.w3.org/2000/svg"
   xmlns:sodipodi="http://sodipodi.sourceforge.net/DTD/sodipodi-0.dtd"
   xmlns:inkscape="http://www.inkscape.org/namespaces/inkscape"
   version="1.1"
   id="svg2"
   xml:space="preserve"
   width="666.66669"
   height="666.66669"
   viewBox="0 0 666.66669 666.66669"
   sodipodi:docname="general-qr-code-frame-29.eps"><metadata
     id="metadata8"><rdf:RDF><cc:Work
         rdf:about=""><dc:format>image/svg+xml</dc:format><dc:type
           rdf:resource="http://purl.org/dc/dcmitype/StillImage" /></cc:Work></rdf:RDF></metadata><defs
     id="defs6" /><sodipodi:namedview
     pagecolor="#ffffff"
     bordercolor="#666666"
     borderopacity="1"
     objecttolerance="10"
     gridtolerance="10"
     guidetolerance="10"
     inkscape:pageopacity="0"
     inkscape:pageshadow="2"
     inkscape:window-width="640"
     inkscape:window-height="480"
     id="namedview4" /><g
     id="g10"
     inkscape:groupmode="layer"
     inkscape:label="ink_ext_XXXXXX"
     transform="matrix(1.3333333,0,0,-1.3333333,0,666.66667)"><g
       id="g12"
       transform="scale(0.1)"><path
         d="M 3837.85,614.039 H 1103.99 c -237.76,0 -430.513,192.75 -430.513,430.521 V 5000 H 4268.37 V 1044.56 c 0,-237.771 -192.74,-430.521 -430.52,-430.521"
         style="fill:#2a2a2b;fill-opacity:1;fill-rule:nonzero;stroke:none"
         id="path14" /><path
         d="m 2030.47,1244.95 36.29,43.34 c 23.18,-18.48 49.05,-28.22 76.27,-28.22 17.47,0 26.88,6.05 26.88,16.8 0,9.74 -7.73,15.12 -39.65,22.51 -50.06,11.43 -88.71,25.54 -88.71,74.59 0,43.68 34.61,75.27 91.06,75.27 39.99,0 71.24,-10.75 96.77,-31.25 l -32.59,-46.03 c -21.51,15.12 -45.02,23.18 -65.86,23.18 -15.79,0 -23.52,-6.72 -23.52,-15.79 0,-10.76 8.07,-15.46 40.66,-22.85 54.1,-11.76 87.69,-29.23 87.69,-73.92 0,-48.05 -37.97,-76.61 -95.09,-76.61 -41.66,0 -81.3,13.11 -110.2,38.98"
         style="fill:#ffffff;fill-opacity:1;fill-rule:nonzero;stroke:none"
         id="path16" /><path
         d="m 2276.08,1327.6 c 0,68.55 52.75,122.31 123.99,122.31 48.05,0 77.95,-20.83 98.78,-49.73 l -47.72,-36.96 c -13.43,16.8 -29.23,27.21 -51.74,27.21 -32.93,0 -56.11,-27.88 -56.11,-62.83 0,-35.28 23.18,-62.83 56.11,-62.83 24.53,0 38.98,11.43 53.09,28.56 l 49.05,-34.94 c -22.17,-30.58 -52.08,-53.09 -104.16,-53.09 -67.19,0 -121.29,51.41 -121.29,122.3"
         style="fill:#ffffff;fill-opacity:1;fill-rule:nonzero;stroke:none"
         id="path18" /><path
         d="m 2684.65,1302.74 -26.2,66.86 -26.55,-66.86 z m -57.12,144.14 h 62.83 L 2790.49,1210 h -69.88 l -17.14,42.01 h -90.73 L 2595.95,1210 h -68.55 l 100.13,236.88"
         style="fill:#ffffff;fill-opacity:1;fill-rule:nonzero;stroke:none"
         id="path20" /><path
         d="m 2830.14,1445.21 h 60.82 l 96.76,-124.33 v 124.33 h 64.52 V 1210 h -57.12 l -100.47,129.03 V 1210 h -64.51 v 235.21"
         style="fill:#ffffff;fill-opacity:1;fill-rule:nonzero;stroke:none"
         id="path22" /><path
         d="m 3267.66,1445.21 h 68.87 l 56.12,-91.06 56.11,91.06 h 68.88 V 1210 h -64.85 v 135.08 l -60.14,-92.07 h -1.35 l -59.81,91.39 V 1210 h -63.83 v 235.21"
         style="fill:#ffffff;fill-opacity:1;fill-rule:nonzero;stroke:none"
         id="path24" /><path
         d="m 3576.1,1445.21 h 189.17 v -55.44 h -124.65 v -35.62 h 112.89 v -51.41 h -112.89 v -37.3 h 126.33 V 1210 H 3576.1 v 235.21"
         style="fill:#ffffff;fill-opacity:1;fill-rule:nonzero;stroke:none"
         id="path26" /><path
         d="m 1682.01,1572.6 h -128.5 l 174.67,-214.51 -174.67,-214.52 h 128.5 l 174.67,214.52 -174.67,214.51"
         style="fill:#ffffff;fill-opacity:1;fill-rule:nonzero;stroke:none"
         id="path28" /><path
         d="m 1227.44,1572.6 h -128.5 l 174.67,-214.51 -174.67,-214.52 h 128.5 l 174.68,214.52 -174.68,214.51"
         style="fill:#ffffff;fill-opacity:1;fill-rule:nonzero;stroke:none"
         id="path30" /><path
         d="m 1454.22,1572.6 h -128.51 l 174.68,-214.51 -174.68,-214.52 h 128.51 l 174.67,214.52 -174.67,214.51"
         style="fill:#ffffff;fill-opacity:1;fill-rule:nonzero;stroke:none"
         id="path32" /><path
         d="M 3505.49,2041.46 H 1436.36 c -136.85,0 -247.79,110.93 -247.79,247.78 v 2069.13 c 0,136.85 110.94,247.79 247.79,247.79 h 2069.13 c 136.85,0 247.79,-110.94 247.79,-247.79 V 2289.24 c 0,-136.85 -110.94,-247.78 -247.79,-247.78"
         style="fill:#ffffff;fill-opacity:1;fill-rule:nonzero;stroke:none"
         id="path34" /><path
         d="M 3647.7,2147.04 H 1294.16 V 4500.57 H 3647.7 V 2147.04"
         style="fill:#ffffff;fill-opacity:1;fill-rule:nonzero;stroke:none"
         id="path36" /><path
         d="M 3472.73,2325.13 H 1469.11 V 4328.75 H 3472.73 V 2325.13"
         style="fill:#ffffff;fill-opacity:1;fill-rule:nonzero;stroke:none"
         id="path38" /><path
         d="m 3428.48,3848.67 h 88.51 v 524.34 h -524.33 v -88.51 h 435.82 v -435.83"
         style="fill:#a6a7a7;fill-opacity:1;fill-rule:nonzero;stroke:none"
         id="path40" /><path
         d="m 1513.38,3848.67 v 435.83 h 435.81 v 88.51 h -524.34 v -524.34 h 88.53"
         style="fill:#a6a7a7;fill-opacity:1;fill-rule:nonzero;stroke:none"
         id="path42" /><path
         d="m 1513.38,2805.21 h -88.53 v -524.35 h 524.34 v 88.52 h -435.81 v 435.83"
         style="fill:#a6a7a7;fill-opacity:1;fill-rule:nonzero;stroke:none"
         id="path44" /><path
         d="m 3428.48,2805.21 v -435.83 h -435.82 v -88.52 h 524.33 v 524.35 h -88.51"
         style="fill:#a6a7a7;fill-opacity:1;fill-rule:nonzero;stroke:none"
         id="path46" /><path
         d="m 1823.84,3521.79 -65.14,143.37 -65.49,-143.37 z m -73.63,163.55 h 17.69 l 115.41,-249.57 h -20.18 l -31.51,69.38 h -146.2 l -31.5,-69.38 h -19.13 l 115.42,249.57"
         style="fill:#a6a7a7;fill-opacity:1;fill-rule:nonzero;stroke:none"
         id="path48" /><path
         d="m 2074.52,3526.39 c 0,46.38 -36.1,77.53 -73.63,77.53 -39.3,0 -70.8,-28.68 -70.8,-77.88 0,-47.44 32.92,-77.88 70.8,-77.88 37.53,0 73.63,31.5 73.63,78.23 z m -163.19,-0.35 c 0,58.76 44.25,94.52 87.79,94.52 36.1,0 59.47,-20.54 74.34,-43.19 v 116.82 h 17.35 v -258.42 h -17.35 v 40.35 c -15.58,-23.71 -38.59,-44.6 -74.34,-44.6 -43.54,0 -87.79,35.05 -87.79,94.52"
         style="fill:#a6a7a7;fill-opacity:1;fill-rule:nonzero;stroke:none"
         id="path50" /><path
         d="m 2308.2,3526.39 c 0,46.38 -36.1,77.53 -73.63,77.53 -39.3,0 -70.8,-28.68 -70.8,-77.88 0,-47.44 32.92,-77.88 70.8,-77.88 37.53,0 73.63,31.5 73.63,78.23 z m -163.19,-0.35 c 0,58.76 44.25,94.52 87.79,94.52 36.11,0 59.48,-20.54 74.34,-43.19 v 116.82 h 17.35 v -258.42 h -17.35 v 40.35 c -15.58,-23.71 -38.59,-44.6 -74.34,-44.6 -43.54,0 -87.79,35.05 -87.79,94.52"
         style="fill:#a6a7a7;fill-opacity:1;fill-rule:nonzero;stroke:none"
         id="path52" /><path
         d="m 2482.78,3385.85 6.02,15.22 c 9.56,-4.6 17.34,-6.72 30.8,-6.72 18.76,0 31.15,10.97 44.6,42.48 l -86.73,179.48 h 20.18 l 75.05,-161.43 65.13,161.43 h 19.12 l -78.23,-186.92 c -15.94,-37.87 -34.34,-51.33 -60.18,-51.33 -13.81,0 -23.73,2.48 -35.76,7.79"
         style="fill:#a6a7a7;fill-opacity:1;fill-rule:nonzero;stroke:none"
         id="path54" /><path
         d="m 2848.51,3526.04 c 0,43.54 -33.64,78.23 -74.35,78.23 -40.71,0 -73.63,-35.05 -73.63,-78.23 0,-43.54 32.57,-78.24 74.34,-78.24 40,0 73.64,35.05 73.64,78.24 z m -166.74,0 c 0,50.62 39.29,94.52 93.1,94.52 53.45,0 92.4,-43.19 92.4,-94.52 0,-50.62 -39.3,-94.52 -93.11,-94.52 -53.46,0 -92.39,43.19 -92.39,94.52"
         style="fill:#a6a7a7;fill-opacity:1;fill-rule:nonzero;stroke:none"
         id="path56" /><path
         d="m 2917.23,3505.86 v 110.45 h 17.34 v -107.26 c 0,-37.18 20.89,-61.6 57.34,-61.6 35.4,0 62.67,26.9 62.67,64.43 v 104.43 h 17.34 v -180.54 h -17.34 v 33.63 c -12.04,-21.24 -32.22,-37.88 -65.14,-37.88 -45.67,0 -72.21,31.15 -72.21,74.34"
         style="fill:#a6a7a7;fill-opacity:1;fill-rule:nonzero;stroke:none"
         id="path58" /><path
         d="m 3137.8,3616.31 h 17.35 v -51.33 c 14.16,32.21 44.25,55.58 80.01,54.16 v -19.12 h -1.77 c -41.78,0 -78.24,-31.5 -78.24,-90.27 v -73.98 h -17.35 v 180.54"
         style="fill:#a6a7a7;fill-opacity:1;fill-rule:nonzero;stroke:none"
         id="path60" /><path
         d="m 1817.82,3063.63 -40.35,34.34 34.69,38.94 40.71,-36.82 c 4.6,10.27 6.73,21.59 6.73,34.7 0,42.48 -31.15,77.88 -75.05,77.88 -43.9,0 -74.34,-34.7 -74.34,-77.88 0,-42.49 31.15,-77.89 75.04,-77.89 12.04,0 23.02,2.48 32.57,6.73 z m 40.36,-35.75 c -20.89,-13.46 -46.02,-21.24 -73.63,-21.24 -76.46,0 -131.34,56.99 -131.34,128.15 0,70.44 55.58,128.14 132.04,128.14 76.47,0 131.34,-56.99 131.34,-128.14 0,-25.85 -7.78,-50.62 -21.94,-71.16 l 25.49,-21.59 -34.7,-38.59 -27.26,24.43"
         style="fill:#a6a7a7;fill-opacity:1;fill-rule:nonzero;stroke:none"
         id="path62" /><path
         d="m 2074.88,3138.33 c 26.56,0 41.78,14.16 41.78,35.75 0,23.37 -16.29,35.4 -42.83,35.4 h -54.17 v -71.15 z m -109.73,120.36 h 113.28 c 31.5,0 55.93,-8.85 72.21,-25.14 13.81,-13.8 21.24,-33.27 21.24,-57.34 0,-40.01 -21.59,-65.14 -53.1,-76.83 l 60.54,-88.5 h -63.72 l -53.81,79.3 h -42.13 v -79.3 h -54.51 v 247.81"
         style="fill:#a6a7a7;fill-opacity:1;fill-rule:nonzero;stroke:none"
         id="path64" /><path
         d="m 2316.38,3134.79 c 0,70.44 53.1,128.14 129.21,128.14 46.72,0 72.93,-17.7 95.93,-40.35 l -32.56,-37.53 c -19.12,17.35 -35.41,27.62 -63.73,27.62 -41.76,0 -71.86,-34.7 -71.86,-77.88 0,-42.49 29.38,-77.89 71.86,-77.89 28.32,0 45.67,11.33 65.14,29.03 l 34.7,-37.17 c -25.49,-27.26 -53.81,-42.12 -101.6,-42.12 -72.93,0 -127.09,56.28 -127.09,128.15"
         style="fill:#a6a7a7;fill-opacity:1;fill-rule:nonzero;stroke:none"
         id="path66" /><path
         d="m 2722.46,3105.41 c 0,27.96 -20.17,52.39 -49.91,52.39 -30.8,0 -49.21,-23.72 -49.21,-52.39 0,-27.97 20.19,-52.4 49.92,-52.4 30.79,0 49.2,23.72 49.2,52.4 z m -152.22,0 c 0,54.51 43.9,98.76 103.02,98.76 58.76,0 102.31,-43.54 102.31,-98.76 0,-54.53 -43.9,-98.77 -103.02,-98.77 -58.76,0 -102.31,43.54 -102.31,98.77"
         style="fill:#a6a7a7;fill-opacity:1;fill-rule:nonzero;stroke:none"
         id="path68" /><path
         d="m 2952.26,3106.11 c 0,31.51 -20.89,52.39 -46.03,52.39 -25.14,0 -46.38,-20.53 -46.38,-53.09 0,-31.51 21.24,-52.4 46.38,-52.4 25.14,0 46.03,20.89 46.03,53.1 z m -146.22,0 c 0,63.37 41.43,98.06 86.38,98.06 28.68,0 46.38,-13.1 59.12,-28.32 v 93.46 h 53.81 v -258.43 h -53.81 v 27.26 c -13.09,-17.7 -31.15,-30.8 -59.12,-30.8 -44.25,0 -86.38,34.7 -86.38,98.77"
         style="fill:#a6a7a7;fill-opacity:1;fill-rule:nonzero;stroke:none"
         id="path70" /><path
         d="m 3178.14,3120.62 c -3.18,24.08 -17.34,40.36 -40,40.36 -22.3,0 -36.81,-15.93 -41.06,-40.36 z m -133.8,-15.21 c 0,54.16 38.58,98.76 93.8,98.76 63.37,0 92.4,-49.2 92.4,-103.01 0,-4.25 -0.35,-9.21 -0.71,-14.16 h -132.04 c 5.31,-24.43 22.3,-37.18 46.37,-37.18 18.06,0 31.15,5.67 46.03,19.47 l 30.8,-27.25 c -17.71,-21.95 -43.2,-35.4 -77.53,-35.4 -57,0 -99.12,40 -99.12,98.77"
         style="fill:#a6a7a7;fill-opacity:1;fill-rule:nonzero;stroke:none"
         id="path72" /></g></g></svg>
