<svg width="550" height="1000" viewBox="0 0 550 1000" fill="none" xmlns="http://www.w3.org/2000/svg">
<circle cx="275" cy="400" r="259.5" fill="white" stroke="#333333" stroke-width="25"/>
<rect x="7" y="694" width="536" height="110" rx="31" fill="#333333"/>
<path d="M85 778.75C77.1098 778.75 69.5428 775.616 63.9636 770.036C58.3844 764.457 55.25 756.89 55.25 749C55.25 741.11 58.3844 733.543 63.9636 727.964C69.5428 722.384 77.1098 719.25 85 719.25C92.8902 719.25 100.457 722.384 106.036 727.964C111.616 733.543 114.75 741.11 114.75 749C114.75 756.89 111.616 764.457 106.036 770.036C100.457 775.616 92.8902 778.75 85 778.75ZM85 783C94.0174 783 102.665 779.418 109.042 773.042C115.418 766.665 119 758.017 119 749C119 739.983 115.418 731.335 109.042 724.958C102.665 718.582 94.0174 715 85 715C75.9826 715 67.3346 718.582 60.9584 724.958C54.5821 731.335 51 739.983 51 749C51 758.017 54.5821 766.665 60.9584 773.042C67.3346 779.418 75.9826 783 85 783Z" fill="white"/>
<path d="M88.72 743.243L79.5598 744.474L79.2318 746.103L81.0318 746.459C82.2079 746.76 82.4399 747.214 82.1839 748.471L79.2318 763.343C78.4558 767.19 79.6518 769 82.4639 769C84.6439 769 87.176 767.919 88.324 766.435L88.676 764.651C87.876 765.406 86.708 765.706 85.9319 765.706C84.8319 765.706 84.4319 764.879 84.7159 763.421L88.72 743.243ZM89 734.289C89 735.426 88.5786 736.517 87.8284 737.321C87.0782 738.125 86.0608 738.577 84.9999 738.577C83.939 738.577 82.9216 738.125 82.1714 737.321C81.4213 736.517 80.9998 735.426 80.9998 734.289C80.9998 733.151 81.4213 732.06 82.1714 731.256C82.9216 730.452 83.939 730 84.9999 730C86.0608 730 87.0782 730.452 87.8284 731.256C88.5786 732.06 89 733.151 89 734.289Z" fill="white"/>
<path d="M150.942 770H144.298V731.609H150.942V770ZM189.597 770H182.926L165.813 742.763V770H159.143V731.609H165.813L182.979 758.952V731.609H189.597V770ZM219.603 753.731H204.151V770H197.48V731.609H221.87V736.988H204.151V748.405H219.603V753.731ZM257.809 751.807C257.809 755.568 257.158 758.873 255.857 761.721C254.557 764.551 252.693 766.73 250.268 768.26C247.859 769.771 245.082 770.527 241.936 770.527C238.824 770.527 236.047 769.771 233.604 768.26C231.178 766.73 229.297 764.56 227.961 761.747C226.643 758.935 225.975 755.691 225.957 752.018V749.855C225.957 746.111 226.616 742.807 227.935 739.941C229.271 737.076 231.143 734.888 233.551 733.376C235.977 731.847 238.754 731.082 241.883 731.082C245.012 731.082 247.78 731.838 250.188 733.35C252.614 734.844 254.486 737.006 255.805 739.836C257.123 742.648 257.791 745.927 257.809 749.671V751.807ZM251.138 749.803C251.138 745.549 250.329 742.288 248.712 740.021C247.112 737.753 244.836 736.619 241.883 736.619C239 736.619 236.741 737.753 235.106 740.021C233.489 742.271 232.663 745.461 232.628 749.592V751.807C232.628 756.025 233.445 759.286 235.08 761.589C236.732 763.892 239.018 765.043 241.936 765.043C244.889 765.043 247.156 763.918 248.738 761.668C250.338 759.418 251.138 756.131 251.138 751.807V749.803ZM278.56 755.208H271.124V770H264.453V731.609H277.953C282.383 731.609 285.802 732.603 288.21 734.589C290.618 736.575 291.822 739.449 291.822 743.211C291.822 745.777 291.198 747.931 289.95 749.671C288.72 751.394 286.997 752.721 284.782 753.652L293.404 769.657V770H286.259L278.56 755.208ZM271.124 749.855H277.979C280.229 749.855 281.987 749.293 283.253 748.168C284.519 747.025 285.151 745.47 285.151 743.501C285.151 741.444 284.562 739.854 283.385 738.729C282.225 737.604 280.484 737.023 278.164 736.988H271.124V749.855ZM306.799 731.609L317.873 761.035L328.921 731.609H337.543V770H330.898V757.344L331.558 740.416L320.22 770H315.447L304.136 740.442L304.795 757.344V770H298.15V731.609H306.799ZM367.417 761.062H352.546L349.435 770H342.5L357.002 731.609H362.987L377.516 770H370.555L367.417 761.062ZM354.418 755.683H365.545L359.981 739.757L354.418 755.683ZM406.467 736.988H394.496V770H387.878V736.988H376.013V731.609H406.467V736.988ZM418.569 770H411.925V731.609H418.569V770ZM457.408 751.807C457.408 755.568 456.758 758.873 455.457 761.721C454.156 764.551 452.293 766.73 449.867 768.26C447.459 769.771 444.682 770.527 441.535 770.527C438.424 770.527 435.646 769.771 433.203 768.26C430.777 766.73 428.896 764.56 427.561 761.747C426.242 758.935 425.574 755.691 425.557 752.018V749.855C425.557 746.111 426.216 742.807 427.534 739.941C428.87 737.076 430.742 734.888 433.15 733.376C435.576 731.847 438.354 731.082 441.482 731.082C444.611 731.082 447.38 731.838 449.788 733.35C452.214 734.844 454.086 737.006 455.404 739.836C456.723 742.648 457.391 745.927 457.408 749.671V751.807ZM450.737 749.803C450.737 745.549 449.929 742.288 448.312 740.021C446.712 737.753 444.436 736.619 441.482 736.619C438.6 736.619 436.341 737.753 434.706 740.021C433.089 742.271 432.263 745.461 432.228 749.592V751.807C432.228 756.025 433.045 759.286 434.68 761.589C436.332 763.892 438.617 765.043 441.535 765.043C444.488 765.043 446.756 763.918 448.338 761.668C449.938 759.418 450.737 756.131 450.737 751.807V749.803ZM494.507 770H487.836L470.724 742.763V770H464.053V731.609H470.724L487.889 758.952V731.609H494.507V770Z" fill="white"/>
<rect x="100" y="225" width="349" height="349" rx="6.98" fill="white"/>
<path d="M354.771 249.43H424.571V319.23" stroke="#C2C2C2" stroke-width="13.96"/>
<path d="M194.231 249.43H124.431V319.23" stroke="#C2C2C2" stroke-width="13.96"/>
<path d="M354.771 549.57H424.571V479.77" stroke="#C2C2C2" stroke-width="13.96"/>
<path d="M194.231 549.57H124.431V479.77" stroke="#C2C2C2" stroke-width="13.96"/>
<path d="M191.521 370.879L185.745 354.069L179.606 370.879H191.521ZM183.051 348.422H188.879L202.685 386.473H197.038L193.179 375.076H178.13L174.011 386.473H168.727L183.051 348.422ZM209.705 372.926C209.705 375.896 210.335 378.382 211.595 380.386C212.856 382.389 214.876 383.39 217.657 383.39C219.815 383.39 221.585 382.466 222.967 380.619C224.365 378.754 225.065 376.086 225.065 372.615C225.065 369.109 224.348 366.519 222.915 364.844C221.481 363.152 219.711 362.306 217.605 362.306C215.256 362.306 213.348 363.204 211.88 365C210.43 366.796 209.705 369.438 209.705 372.926ZM216.724 358.239C218.848 358.239 220.627 358.688 222.06 359.586C222.889 360.104 223.83 361.011 224.883 362.306V348.293H229.364V386.473H225.168V382.613C224.08 384.323 222.794 385.557 221.309 386.317C219.824 387.077 218.123 387.457 216.206 387.457C213.115 387.457 210.438 386.162 208.176 383.572C205.914 380.964 204.783 377.502 204.783 373.185C204.783 369.144 205.811 365.647 207.865 362.694C209.938 359.724 212.891 358.239 216.724 358.239ZM239.233 372.926C239.233 375.896 239.864 378.382 241.124 380.386C242.385 382.389 244.405 383.39 247.185 383.39C249.344 383.39 251.114 382.466 252.495 380.619C253.894 378.754 254.593 376.086 254.593 372.615C254.593 369.109 253.877 366.519 252.443 364.844C251.01 363.152 249.24 362.306 247.133 362.306C244.785 362.306 242.877 363.204 241.409 365C239.958 366.796 239.233 369.438 239.233 372.926ZM246.253 358.239C248.377 358.239 250.155 358.688 251.589 359.586C252.418 360.104 253.359 361.011 254.412 362.306V348.293H258.893V386.473H254.697V382.613C253.609 384.323 252.323 385.557 250.837 386.317C249.352 387.077 247.651 387.457 245.735 387.457C242.644 387.457 239.967 386.162 237.705 383.572C235.443 380.964 234.312 377.502 234.312 373.185C234.312 369.144 235.339 365.647 237.394 362.694C239.466 359.724 242.419 358.239 246.253 358.239ZM297.902 358.731H303.057C302.4 360.51 300.941 364.568 298.679 370.905C296.987 375.671 295.571 379.557 294.431 382.561C291.737 389.641 289.838 393.958 288.733 395.513C287.627 397.067 285.728 397.844 283.034 397.844C282.378 397.844 281.868 397.818 281.506 397.766C281.16 397.714 280.729 397.619 280.211 397.481V393.233C281.022 393.458 281.609 393.596 281.972 393.648C282.335 393.699 282.654 393.725 282.93 393.725C283.794 393.725 284.424 393.579 284.821 393.285C285.236 393.009 285.581 392.663 285.857 392.249C285.944 392.111 286.255 391.403 286.79 390.125C287.325 388.847 287.714 387.897 287.956 387.276L277.698 358.731H282.982L290.416 381.318L297.902 358.731ZM318.106 383.468C321.197 383.468 323.312 382.302 324.452 379.971C325.609 377.623 326.187 375.015 326.187 372.149C326.187 369.558 325.773 367.452 324.944 365.828C323.632 363.273 321.37 361.995 318.158 361.995C315.308 361.995 313.236 363.083 311.941 365.259C310.646 367.434 309.998 370.059 309.998 373.133C309.998 376.086 310.646 378.547 311.941 380.515C313.236 382.484 315.291 383.468 318.106 383.468ZM318.287 357.928C321.862 357.928 324.884 359.12 327.353 361.503C329.822 363.886 331.057 367.391 331.057 372.019C331.057 376.492 329.969 380.187 327.793 383.105C325.618 386.024 322.242 387.483 317.666 387.483C313.849 387.483 310.819 386.196 308.574 383.623C306.329 381.033 305.206 377.562 305.206 373.211C305.206 368.548 306.389 364.836 308.755 362.073C311.121 359.31 314.298 357.928 318.287 357.928ZM341.288 358.731V377.148C341.288 378.564 341.513 379.721 341.962 380.619C342.791 382.276 344.336 383.105 346.598 383.105C349.845 383.105 352.055 381.655 353.229 378.754C353.868 377.2 354.188 375.067 354.188 372.356V358.731H358.85V386.473H354.447L354.499 382.38C353.894 383.433 353.143 384.323 352.245 385.048C350.467 386.499 348.308 387.224 345.77 387.224C341.815 387.224 339.121 385.903 337.688 383.261C336.911 381.845 336.522 379.954 336.522 377.588V358.731H341.288ZM366.284 358.731H370.714V363.523C371.076 362.591 371.965 361.46 373.381 360.13C374.797 358.783 376.429 358.11 378.277 358.11C378.363 358.11 378.51 358.118 378.717 358.135C378.925 358.153 379.279 358.187 379.779 358.239V363.161C379.503 363.109 379.244 363.074 379.002 363.057C378.778 363.04 378.527 363.031 378.251 363.031C375.903 363.031 374.098 363.791 372.837 365.31C371.577 366.813 370.947 368.548 370.947 370.517V386.473H366.284V358.731Z" fill="#C2C2C2"/>
<path d="M191.989 449.342C190.279 449.912 188.233 450.197 185.85 450.197C180.877 450.197 176.767 448.712 173.52 445.742C169.583 442.167 167.615 436.917 167.615 429.993C167.615 423.017 169.635 417.741 173.676 414.167C176.974 411.248 181.075 409.789 185.979 409.789C190.918 409.789 195.063 411.335 198.413 414.426C202.281 418 204.215 422.999 204.215 429.423C204.215 432.825 203.8 435.674 202.971 437.971C202.298 440.164 201.305 441.986 199.993 443.436L204.396 447.555L200.226 451.906L195.615 447.555C194.216 448.401 193.008 448.997 191.989 449.342ZM190.279 442.452L186.42 438.774L190.538 434.474L194.398 438.152C195.002 436.909 195.425 435.821 195.667 434.888C196.047 433.49 196.237 431.858 196.237 429.993C196.237 425.71 195.356 422.404 193.595 420.072C191.851 417.724 189.295 416.55 185.928 416.55C182.768 416.55 180.246 417.672 178.364 419.917C176.482 422.162 175.541 425.52 175.541 429.993C175.541 435.225 176.888 438.972 179.582 441.235C181.326 442.702 183.415 443.436 185.85 443.436C186.765 443.436 187.646 443.324 188.492 443.1C188.958 442.979 189.554 442.763 190.279 442.452ZM226.543 434.163H218.306V449.135H210.509V410.955H229.236C231.913 411.007 233.968 411.335 235.401 411.939C236.852 412.543 238.078 413.433 239.079 414.607C239.908 415.574 240.564 416.645 241.048 417.819C241.531 418.993 241.773 420.331 241.773 421.834C241.773 423.647 241.316 425.434 240.4 427.195C239.485 428.94 237.974 430.174 235.867 430.9C237.629 431.608 238.872 432.618 239.597 433.93C240.34 435.225 240.711 437.211 240.711 439.888V442.452C240.711 444.196 240.78 445.379 240.918 446.001C241.126 446.985 241.609 447.71 242.369 448.176V449.135H233.588C233.346 448.289 233.174 447.607 233.07 447.088C232.863 446.018 232.75 444.921 232.733 443.799L232.681 440.25C232.647 437.815 232.198 436.192 231.334 435.381C230.488 434.569 228.891 434.163 226.543 434.163ZM231.386 427.221C232.975 426.496 233.769 425.063 233.769 422.922C233.769 420.608 233.001 419.054 231.464 418.259C230.601 417.81 229.305 417.586 227.579 417.586H218.306V427.843H227.346C229.141 427.843 230.488 427.636 231.386 427.221ZM287.258 431.029H279.694C279.556 429.976 279.202 429.026 278.632 428.18C277.803 427.04 276.517 426.47 274.773 426.47C272.286 426.47 270.585 427.705 269.67 430.174C269.186 431.487 268.945 433.231 268.945 435.407C268.945 437.479 269.186 439.145 269.67 440.406C270.551 442.754 272.208 443.928 274.643 443.928C276.37 443.928 277.596 443.462 278.321 442.53C279.047 441.597 279.487 440.388 279.642 438.903H287.18C287.007 441.148 286.196 443.272 284.745 445.275C282.431 448.504 279.003 450.119 274.462 450.119C269.92 450.119 266.579 448.772 264.438 446.078C262.296 443.384 261.226 439.888 261.226 435.588C261.226 430.735 262.409 426.962 264.774 424.269C267.14 421.575 270.404 420.228 274.565 420.228C278.105 420.228 280.998 421.022 283.243 422.611C285.505 424.199 286.843 427.006 287.258 431.029ZM315.906 424.476C318.289 427.463 319.48 430.994 319.48 435.07C319.48 439.214 318.289 442.763 315.906 445.716C313.523 448.651 309.905 450.119 305.053 450.119C300.2 450.119 296.582 448.651 294.199 445.716C291.816 442.763 290.625 439.214 290.625 435.07C290.625 430.994 291.816 427.463 294.199 424.476C296.582 421.488 300.2 419.995 305.053 419.995C309.905 419.995 313.523 421.488 315.906 424.476ZM305.027 426.237C302.868 426.237 301.202 427.006 300.028 428.542C298.871 430.062 298.292 432.238 298.292 435.07C298.292 437.902 298.871 440.086 300.028 441.623C301.202 443.16 302.868 443.928 305.027 443.928C307.185 443.928 308.843 443.16 310 441.623C311.157 440.086 311.735 437.902 311.735 435.07C311.735 432.238 311.157 430.062 310 428.542C308.843 427.006 307.185 426.237 305.027 426.237ZM350.485 411.007V449.135H343.31V445.224C342.257 446.899 341.057 448.116 339.71 448.876C338.363 449.636 336.688 450.015 334.685 450.015C331.387 450.015 328.606 448.686 326.344 446.026C324.099 443.35 322.977 439.922 322.977 435.743C322.977 430.925 324.082 427.135 326.292 424.372C328.52 421.609 331.49 420.228 335.203 420.228C336.912 420.228 338.432 420.608 339.762 421.367C341.091 422.11 342.171 423.146 342.999 424.476V411.007H350.485ZM330.592 435.199C330.592 437.807 331.11 439.888 332.146 441.442C333.165 443.013 334.719 443.799 336.809 443.799C338.898 443.799 340.487 443.022 341.575 441.468C342.663 439.914 343.207 437.902 343.207 435.432C343.207 431.979 342.335 429.509 340.591 428.024C339.52 427.126 338.277 426.677 336.861 426.677C334.702 426.677 333.113 427.498 332.095 429.138C331.093 430.761 330.592 432.782 330.592 435.199ZM381.387 440.846C381.197 442.521 380.325 444.222 378.771 445.949C376.353 448.694 372.969 450.067 368.617 450.067C365.025 450.067 361.856 448.91 359.111 446.596C356.365 444.282 354.992 440.518 354.992 435.303C354.992 430.416 356.227 426.669 358.696 424.061C361.183 421.454 364.403 420.15 368.358 420.15C370.706 420.15 372.822 420.59 374.704 421.471C376.586 422.352 378.14 423.742 379.366 425.641C380.472 427.316 381.188 429.259 381.516 431.469C381.706 432.764 381.784 434.629 381.749 437.064H362.426C362.53 439.896 363.419 441.882 365.094 443.022C366.113 443.73 367.339 444.084 368.772 444.084C370.292 444.084 371.527 443.652 372.476 442.789C372.994 442.322 373.452 441.675 373.849 440.846H381.387ZM374.082 432.195C373.961 430.243 373.366 428.767 372.295 427.765C371.242 426.747 369.929 426.237 368.358 426.237C366.648 426.237 365.319 426.772 364.369 427.843C363.436 428.914 362.849 430.364 362.608 432.195H374.082Z" fill="#C2C2C2"/>
</svg>
