<svg width="550" height="1000" viewBox="0 0 550 1000" fill="none" xmlns="http://www.w3.org/2000/svg">
<rect x="28" y="253" width="494" height="494" rx="9.88" fill="white"/>
<path d="M388.621 287.58H487.421V386.38" stroke="#C2C2C2" stroke-width="19.76"/>
<path d="M161.382 287.58H62.5818V386.38" stroke="#C2C2C2" stroke-width="19.76"/>
<path d="M388.621 712.42H487.421V613.62" stroke="#C2C2C2" stroke-width="19.76"/>
<path d="M161.382 712.42H62.5818V613.62" stroke="#C2C2C2" stroke-width="19.76"/>
<path d="M157.545 459.961L149.369 436.166L140.68 459.961H157.545ZM145.556 428.174H153.805L173.347 482.033H165.355L159.892 465.901H138.59L132.76 482.033H125.281L145.556 428.174ZM183.283 462.858C183.283 467.062 184.175 470.582 185.96 473.417C187.744 476.253 190.604 477.67 194.539 477.67C197.594 477.67 200.1 476.362 202.055 473.747C204.035 471.107 205.025 467.331 205.025 462.418C205.025 457.456 204.011 453.79 201.982 451.419C199.953 449.023 197.448 447.826 194.466 447.826C191.142 447.826 188.441 449.097 186.363 451.639C184.31 454.181 183.283 457.92 183.283 462.858ZM193.219 442.069C196.226 442.069 198.743 442.705 200.772 443.976C201.945 444.709 203.277 445.992 204.768 447.826V427.99H211.111V482.033H205.172V476.57C203.632 478.99 201.811 480.738 199.709 481.813C197.607 482.889 195.199 483.426 192.486 483.426C188.111 483.426 184.322 481.593 181.12 477.927C177.918 474.236 176.317 469.335 176.317 463.225C176.317 457.505 177.771 452.555 180.68 448.376C183.613 444.171 187.793 442.069 193.219 442.069ZM225.08 462.858C225.08 467.062 225.972 470.582 227.757 473.417C229.541 476.253 232.401 477.67 236.336 477.67C239.392 477.67 241.897 476.362 243.852 473.747C245.832 471.107 246.822 467.331 246.822 462.418C246.822 457.456 245.808 453.79 243.779 451.419C241.75 449.023 239.245 447.826 236.263 447.826C232.939 447.826 230.238 449.097 228.16 451.639C226.107 454.181 225.08 457.92 225.08 462.858ZM235.016 442.069C238.023 442.069 240.54 442.705 242.569 443.976C243.742 444.709 245.074 445.992 246.565 447.826V427.99H252.908V482.033H246.969V476.57C245.429 478.99 243.608 480.738 241.506 481.813C239.404 482.889 236.996 483.426 234.283 483.426C229.908 483.426 226.119 481.593 222.917 477.927C219.715 474.236 218.114 469.335 218.114 463.225C218.114 457.505 219.568 452.555 222.477 448.376C225.41 444.171 229.59 442.069 235.016 442.069ZM308.124 442.766H315.421C314.492 445.284 312.426 451.028 309.224 459.998C306.829 466.744 304.825 472.244 303.211 476.497C299.398 486.518 296.71 492.629 295.145 494.829C293.581 497.029 290.892 498.129 287.079 498.129C286.15 498.129 285.429 498.092 284.916 498.019C284.427 497.945 283.816 497.811 283.083 497.615V491.603C284.232 491.92 285.063 492.116 285.576 492.189C286.089 492.262 286.541 492.299 286.933 492.299C288.155 492.299 289.047 492.091 289.609 491.676C290.196 491.285 290.685 490.796 291.076 490.209C291.198 490.014 291.638 489.012 292.396 487.203C293.153 485.394 293.703 484.05 294.045 483.17L279.526 442.766H287.006L297.528 474.737L308.124 442.766ZM336.722 477.78C341.098 477.78 344.092 476.13 345.705 472.831C347.343 469.506 348.162 465.815 348.162 461.758C348.162 458.092 347.575 455.11 346.402 452.812C344.544 449.194 341.342 447.386 336.796 447.386C332.763 447.386 329.83 448.926 327.996 452.005C326.163 455.085 325.247 458.8 325.247 463.151C325.247 467.331 326.163 470.814 327.996 473.6C329.83 476.387 332.738 477.78 336.722 477.78ZM336.979 441.629C342.039 441.629 346.316 443.316 349.811 446.689C353.307 450.062 355.054 455.024 355.054 461.575C355.054 467.905 353.515 473.136 350.435 477.267C347.355 481.398 342.576 483.463 336.099 483.463C330.697 483.463 326.408 481.642 323.23 478C320.052 474.334 318.464 469.421 318.464 463.261C318.464 456.662 320.138 451.406 323.487 447.496C326.835 443.585 331.333 441.629 336.979 441.629ZM369.537 442.766V468.834C369.537 470.838 369.854 472.476 370.49 473.747C371.663 476.094 373.851 477.267 377.053 477.267C381.648 477.267 384.777 475.214 386.439 471.107C387.343 468.907 387.795 465.889 387.795 462.051V442.766H394.395V482.033H388.162L388.235 476.24C387.38 477.731 386.317 478.99 385.046 480.017C382.528 482.07 379.473 483.096 375.88 483.096C370.282 483.096 366.469 481.227 364.44 477.487C363.34 475.483 362.791 472.806 362.791 469.457V442.766H369.537ZM404.918 442.766H411.187V449.549C411.7 448.229 412.959 446.628 414.963 444.746C416.968 442.839 419.278 441.886 421.893 441.886C422.015 441.886 422.223 441.898 422.516 441.923C422.81 441.947 423.311 441.996 424.019 442.069V449.036C423.628 448.962 423.262 448.913 422.92 448.889C422.602 448.864 422.247 448.852 421.856 448.852C418.532 448.852 415.978 449.928 414.194 452.079C412.409 454.205 411.517 456.662 411.517 459.448V482.033H404.918V442.766Z" fill="#C2C2C2"/>
<path d="M158.207 571.022C155.788 571.828 152.891 572.232 149.518 572.232C142.479 572.232 136.661 570.13 132.066 565.926C126.493 560.866 123.707 553.435 123.707 543.634C123.707 533.759 126.566 526.292 132.286 521.232C136.954 517.101 142.76 515.036 149.701 515.036C156.692 515.036 162.558 517.223 167.3 521.599C172.775 526.658 175.513 533.734 175.513 542.827C175.513 547.642 174.926 551.675 173.753 554.926C172.8 558.031 171.394 560.609 169.537 562.662L175.769 568.492L169.867 574.652L163.34 568.492C161.36 569.69 159.65 570.533 158.207 571.022ZM155.788 561.269L150.325 556.063L156.154 549.977L161.617 555.183C162.473 553.423 163.071 551.883 163.414 550.563C163.951 548.583 164.22 546.274 164.22 543.634C164.22 537.572 162.974 532.891 160.481 529.591C158.012 526.267 154.394 524.605 149.628 524.605C145.155 524.605 141.586 526.194 138.922 529.371C136.258 532.549 134.926 537.303 134.926 543.634C134.926 551.04 136.832 556.344 140.645 559.546C143.114 561.624 146.072 562.662 149.518 562.662C150.813 562.662 152.06 562.504 153.258 562.186C153.918 562.015 154.761 561.709 155.788 561.269ZM207.117 549.537H195.458V570.729H184.422V516.686H210.93C214.719 516.759 217.628 517.223 219.656 518.079C221.71 518.934 223.445 520.193 224.863 521.855C226.036 523.224 226.965 524.74 227.649 526.402C228.334 528.064 228.676 529.958 228.676 532.085C228.676 534.651 228.028 537.181 226.733 539.674C225.437 542.143 223.298 543.89 220.316 544.917C222.809 545.919 224.569 547.349 225.596 549.207C226.647 551.04 227.172 553.851 227.172 557.639V561.269C227.172 563.738 227.27 565.412 227.466 566.292C227.759 567.685 228.444 568.712 229.519 569.372V570.729H217.09C216.748 569.531 216.503 568.565 216.357 567.832C216.063 566.317 215.904 564.764 215.88 563.176L215.807 558.153C215.758 554.706 215.122 552.409 213.9 551.26C212.702 550.111 210.441 549.537 207.117 549.537ZM213.973 539.711C216.222 538.684 217.347 536.655 217.347 533.624C217.347 530.349 216.259 528.149 214.083 527.025C212.861 526.389 211.028 526.072 208.584 526.072H195.458V540.591H208.254C210.796 540.591 212.702 540.297 213.973 539.711ZM293.058 545.1H282.352C282.156 543.609 281.655 542.265 280.849 541.067C279.675 539.454 277.854 538.647 275.386 538.647C271.866 538.647 269.458 540.395 268.163 543.89C267.479 545.748 267.136 548.217 267.136 551.297C267.136 554.23 267.479 556.588 268.163 558.373C269.409 561.697 271.756 563.359 275.202 563.359C277.647 563.359 279.382 562.699 280.409 561.379C281.435 560.059 282.059 558.348 282.279 556.246H292.948C292.703 559.424 291.555 562.43 289.501 565.266C286.226 569.836 281.374 572.122 274.946 572.122C268.517 572.122 263.788 570.215 260.757 566.402C257.726 562.589 256.21 557.639 256.21 551.553C256.21 544.685 257.885 539.344 261.233 535.531C264.582 531.718 269.202 529.811 275.092 529.811C280.103 529.811 284.197 530.936 287.375 533.185C290.577 535.433 292.471 539.405 293.058 545.1ZM333.608 535.824C336.981 540.053 338.668 545.051 338.668 550.82C338.668 556.686 336.981 561.709 333.608 565.889C330.235 570.044 325.114 572.122 318.246 572.122C311.378 572.122 306.257 570.044 302.884 565.889C299.511 561.709 297.824 556.686 297.824 550.82C297.824 545.051 299.511 540.053 302.884 535.824C306.257 531.596 311.378 529.481 318.246 529.481C325.114 529.481 330.235 531.596 333.608 535.824ZM318.209 538.317C315.154 538.317 312.795 539.405 311.133 541.581C309.496 543.732 308.677 546.811 308.677 550.82C308.677 554.829 309.496 557.921 311.133 560.096C312.795 562.271 315.154 563.359 318.209 563.359C321.265 563.359 323.611 562.271 325.249 560.096C326.887 557.921 327.705 554.829 327.705 550.82C327.705 546.811 326.887 543.732 325.249 541.581C323.611 539.405 321.265 538.317 318.209 538.317ZM382.555 516.759V570.729H372.399V565.192C370.908 567.563 369.209 569.286 367.303 570.362C365.396 571.437 363.025 571.975 360.19 571.975C355.521 571.975 351.586 570.093 348.384 566.329C345.206 562.54 343.618 557.688 343.618 551.773C343.618 544.954 345.182 539.589 348.311 535.678C351.464 531.767 355.668 529.811 360.923 529.811C363.343 529.811 365.494 530.349 367.376 531.425C369.258 532.476 370.786 533.942 371.959 535.824V516.759H382.555ZM354.397 551.003C354.397 554.694 355.13 557.639 356.597 559.839C358.039 562.064 360.239 563.176 363.196 563.176C366.154 563.176 368.402 562.076 369.942 559.876C371.482 557.676 372.252 554.829 372.252 551.333C372.252 546.445 371.018 542.949 368.549 540.847C367.034 539.576 365.274 538.941 363.269 538.941C360.214 538.941 357.965 540.102 356.523 542.424C355.106 544.721 354.397 547.581 354.397 551.003ZM426.295 558.996C426.026 561.367 424.792 563.775 422.592 566.219C419.17 570.105 414.379 572.048 408.22 572.048C403.136 572.048 398.65 570.411 394.764 567.135C390.878 563.86 388.934 558.532 388.934 551.15C388.934 544.233 390.682 538.929 394.177 535.238C397.697 531.547 402.256 529.701 407.853 529.701C411.177 529.701 414.171 530.325 416.836 531.571C419.5 532.818 421.7 534.786 423.435 537.474C425 539.845 426.014 542.595 426.478 545.724C426.747 547.557 426.857 550.197 426.808 553.643H399.457C399.604 557.652 400.862 560.463 403.233 562.076C404.675 563.078 406.411 563.579 408.44 563.579C410.591 563.579 412.338 562.968 413.683 561.746C414.416 561.086 415.064 560.169 415.626 558.996H426.295ZM415.956 546.75C415.785 543.988 414.941 541.898 413.426 540.481C411.935 539.039 410.077 538.317 407.853 538.317C405.433 538.317 403.551 539.075 402.207 540.591C400.887 542.106 400.056 544.159 399.714 546.75H415.956Z" fill="#C2C2C2"/>
<path d="M125 249H44C32.9543 249 24 257.954 24 269L24 731C24 742.046 32.9543 751 44 751H506C517.046 751 526 742.118 526 731.072C526 662.905 526 434.136 526 268.983C526 257.937 517.046 249 506 249L425 249" stroke="#333333" stroke-width="20" stroke-linecap="round"/>
<path d="M181.968 257.112C181.968 255.425 181.37 254.124 180.175 253.21C178.997 252.296 176.861 251.373 173.768 250.441C170.674 249.51 168.213 248.473 166.385 247.33C162.887 245.133 161.138 242.268 161.138 238.734C161.138 235.641 162.395 233.092 164.908 231.088C167.439 229.084 170.718 228.082 174.743 228.082C177.415 228.082 179.797 228.574 181.889 229.559C183.98 230.543 185.624 231.949 186.819 233.777C188.015 235.588 188.612 237.601 188.612 239.815H181.968C181.968 237.812 181.335 236.247 180.069 235.122C178.821 233.979 177.028 233.408 174.69 233.408C172.511 233.408 170.814 233.874 169.602 234.806C168.406 235.737 167.809 237.038 167.809 238.708C167.809 240.114 168.459 241.292 169.76 242.241C171.061 243.173 173.205 244.087 176.193 244.983C179.182 245.862 181.581 246.873 183.392 248.016C185.202 249.141 186.529 250.441 187.373 251.918C188.217 253.377 188.639 255.091 188.639 257.06C188.639 260.259 187.408 262.808 184.947 264.706C182.504 266.587 179.182 267.527 174.98 267.527C172.203 267.527 169.646 267.018 167.308 265.998C164.987 264.961 163.177 263.537 161.876 261.727C160.593 259.916 159.951 257.807 159.951 255.398H166.622C166.622 257.578 167.343 259.266 168.784 260.461C170.226 261.656 172.291 262.254 174.98 262.254C177.301 262.254 179.041 261.788 180.201 260.856C181.379 259.907 181.968 258.659 181.968 257.112ZM223.786 254.502C223.399 258.598 221.888 261.797 219.251 264.1C216.614 266.385 213.107 267.527 208.73 267.527C205.672 267.527 202.974 266.807 200.636 265.365C198.315 263.906 196.522 261.841 195.257 259.169C193.991 256.497 193.332 253.395 193.279 249.861V246.275C193.279 242.654 193.921 239.464 195.204 236.704C196.487 233.944 198.324 231.817 200.715 230.323C203.123 228.829 205.9 228.082 209.047 228.082C213.283 228.082 216.693 229.233 219.277 231.536C221.861 233.839 223.364 237.091 223.786 241.292H217.142C216.825 238.532 216.017 236.546 214.716 235.333C213.433 234.103 211.543 233.487 209.047 233.487C206.146 233.487 203.914 234.551 202.35 236.678C200.803 238.787 200.012 241.89 199.977 245.985V249.387C199.977 253.535 200.715 256.699 202.191 258.879C203.686 261.059 205.865 262.148 208.73 262.148C211.35 262.148 213.318 261.56 214.637 260.382C215.955 259.204 216.79 257.244 217.142 254.502H223.786ZM251.261 258.062H236.39L233.278 267H226.344L240.846 228.609H246.831L261.359 267H254.398L251.261 258.062ZM238.262 252.683H249.389L243.825 236.757L238.262 252.683ZM296.19 267H289.52L272.407 239.763V267H265.736V228.609H272.407L289.572 255.952V228.609H296.19V267ZM326.17 228.609L337.244 258.035L348.292 228.609H356.914V267H350.27V254.344L350.929 237.416L339.591 267H334.818L323.507 237.442L324.166 254.344V267H317.521V228.609H326.17ZM387.263 249.861H371.495V261.674H389.926V267H364.824V228.609H389.741V233.988H371.495V244.588H387.263V249.861Z" fill="black"/>
</svg>
