<svg width="550" height="1000" viewBox="0 0 550 1000" fill="none" xmlns="http://www.w3.org/2000/svg">
<g filter="url(#filter0_i_237:379)">
<path d="M20 270.1C20 261.761 25.8549 251.62 33.0772 247.45L446.951 8.5C455.081 3.80559 461.673 7.61116 461.673 17L461.673 252.466C461.673 265.11 450.144 279.985 440.355 279.972L27.2183 279.433C22.7938 279.427 20 275.815 20 270.1Z" fill="#333333"/>
</g>
<path d="M20 269.051C20 255.244 31.1929 244.051 45 244.051H461.673V275H20V269.051Z" fill="#DDDDDD"/>
<rect x="20" y="255" width="510" height="743" rx="17" fill="#333333"/>
<path d="M170.589 797.789L183.919 833.209L197.217 797.789H207.596V844H199.598V828.766L200.391 808.39L186.744 844H180.999L167.383 808.421L168.177 828.766V844H160.179V797.789H170.589ZM243.555 833.241H225.655L221.91 844H213.562L231.019 797.789H238.223L255.711 844H247.332L243.555 833.241ZM227.908 826.766H241.302L234.605 807.596L227.908 826.766ZM274.246 824.037L269.009 829.591V844H260.979V797.789H269.009V819.466L273.453 813.976L286.973 797.789H296.685L279.515 818.26L297.669 844H288.147L274.246 824.037ZM328.995 823.37H310.015V837.589H332.2V844H301.985V797.789H331.978V804.264H310.015V817.022H328.995V823.37ZM380.792 833.241H362.891L359.146 844H350.799L368.255 797.789H375.459L392.947 844H384.568L380.792 833.241ZM365.145 826.766H378.538L371.841 807.596L365.145 826.766ZM85.562 905.195H76.6118V923H68.582V876.789H84.832C90.1641 876.789 94.2795 877.985 97.1782 880.375C100.077 882.766 101.526 886.226 101.526 890.754C101.526 893.843 100.775 896.435 99.2729 898.53C97.7918 900.603 95.7183 902.201 93.0522 903.322L103.431 922.587V923H94.8296L85.562 905.195ZM76.6118 898.752H84.8638C87.5721 898.752 89.688 898.075 91.2114 896.721C92.7349 895.345 93.4966 893.473 93.4966 891.103C93.4966 888.627 92.7878 886.713 91.3701 885.358C89.9736 884.004 87.8789 883.306 85.0859 883.264H76.6118V898.752ZM136.153 902.37H117.173V916.589H139.358V923H109.144V876.789H139.136V883.264H117.173V896.022H136.153V902.37ZM170.049 911.098C170.049 909.067 169.33 907.501 167.891 906.401C166.473 905.301 163.903 904.19 160.179 903.068C156.455 901.947 153.493 900.699 151.292 899.323C147.081 896.678 144.976 893.229 144.976 888.977C144.976 885.253 146.489 882.185 149.515 879.772C152.562 877.36 156.508 876.154 161.353 876.154C164.569 876.154 167.436 876.747 169.954 877.932C172.472 879.117 174.45 880.809 175.889 883.01C177.328 885.189 178.047 887.612 178.047 890.278H170.049C170.049 887.866 169.288 885.983 167.764 884.628C166.262 883.253 164.104 882.565 161.29 882.565C158.666 882.565 156.624 883.126 155.164 884.248C153.725 885.369 153.006 886.935 153.006 888.945C153.006 890.638 153.789 892.055 155.354 893.198C156.92 894.319 159.502 895.419 163.099 896.499C166.696 897.556 169.584 898.773 171.763 900.148C173.943 901.503 175.54 903.068 176.556 904.846C177.571 906.602 178.079 908.665 178.079 911.035C178.079 914.886 176.598 917.954 173.636 920.239C170.695 922.503 166.696 923.635 161.639 923.635C158.296 923.635 155.217 923.021 152.403 921.794C149.61 920.546 147.431 918.832 145.865 916.652C144.32 914.473 143.548 911.934 143.548 909.035H151.578C151.578 911.659 152.445 913.69 154.18 915.129C155.915 916.568 158.401 917.287 161.639 917.287C164.432 917.287 166.526 916.726 167.923 915.605C169.34 914.462 170.049 912.96 170.049 911.098ZM212.134 902.37H193.155V916.589H215.34V923H185.125V876.789H215.118V883.264H193.155V896.022H212.134V902.37ZM238.858 905.195H229.908V923H221.878V876.789H238.128C243.46 876.789 247.575 877.985 250.474 880.375C253.373 882.766 254.822 886.226 254.822 890.754C254.822 893.843 254.071 896.435 252.569 898.53C251.088 900.603 249.014 902.201 246.348 903.322L256.727 922.587V923H248.125L238.858 905.195ZM229.908 898.752H238.16C240.868 898.752 242.984 898.075 244.507 896.721C246.031 895.345 246.792 893.473 246.792 891.103C246.792 888.627 246.084 886.713 244.666 885.358C243.27 884.004 241.175 883.306 238.382 883.264H229.908V898.752ZM278.086 912.939L289.83 876.789H298.653L282.022 923H274.246L257.679 876.789H266.47L278.086 912.939ZM327.344 912.241H309.444L305.699 923H297.352L314.808 876.789H322.012L339.5 923H331.121L327.344 912.241ZM311.697 905.766H325.091L318.394 886.596L311.697 905.766ZM374.349 883.264H359.939V923H351.973V883.264H337.691V876.789H374.349V883.264ZM388.917 923H380.918V876.789H388.917V923ZM435.667 901.101C435.667 905.629 434.884 909.606 433.318 913.034C431.753 916.441 429.51 919.064 426.59 920.905C423.691 922.725 420.348 923.635 416.561 923.635C412.815 923.635 409.472 922.725 406.531 920.905C403.611 919.064 401.347 916.451 399.739 913.066C398.152 909.681 397.348 905.777 397.327 901.354V898.752C397.327 894.245 398.121 890.267 399.708 886.818C401.316 883.369 403.569 880.735 406.468 878.916C409.388 877.075 412.731 876.154 416.497 876.154C420.263 876.154 423.596 877.064 426.495 878.884C429.415 880.682 431.668 883.285 433.255 886.691C434.842 890.077 435.646 894.023 435.667 898.53V901.101ZM427.637 898.688C427.637 893.568 426.664 889.643 424.717 886.914C422.792 884.184 420.052 882.819 416.497 882.819C413.027 882.819 410.308 884.184 408.34 886.914C406.394 889.622 405.399 893.462 405.357 898.435V901.101C405.357 906.179 406.341 910.104 408.309 912.875C410.298 915.647 413.048 917.033 416.561 917.033C420.115 917.033 422.845 915.679 424.749 912.971C426.674 910.262 427.637 906.306 427.637 901.101V898.688ZM480.323 923H472.293L451.695 890.214V923H443.665V876.789H451.695L472.356 909.702V876.789H480.323V923Z" fill="white"/>
<rect x="40" y="275" width="470" height="470" rx="9.38" fill="white"/>
<path d="M383.099 307.9H477.099V401.9" stroke="#C2C2C2" stroke-width="18.76"/>
<path d="M166.898 307.9H72.8984V401.9" stroke="#C2C2C2" stroke-width="18.76"/>
<path d="M383.099 712.1H477.099V618.1" stroke="#C2C2C2" stroke-width="18.76"/>
<path d="M166.898 712.1H72.8984V618.1" stroke="#C2C2C2" stroke-width="18.76"/>
<path d="M163.49 471.205L155.727 448.615L147.478 471.205H163.49ZM152.107 441.026H159.939L178.492 492.16H170.904L165.717 476.844H145.494L139.959 492.16H132.858L152.107 441.026ZM187.925 473.955C187.925 477.947 188.772 481.288 190.466 483.98C192.16 486.672 194.875 488.018 198.612 488.018C201.512 488.018 203.891 486.776 205.747 484.293C207.627 481.787 208.567 478.202 208.567 473.538C208.567 468.827 207.604 465.346 205.678 463.095C203.752 460.821 201.373 459.684 198.542 459.684C195.386 459.684 192.822 460.89 190.849 463.304C188.9 465.717 187.925 469.268 187.925 473.955ZM197.358 454.219C200.213 454.219 202.603 454.822 204.529 456.029C205.643 456.725 206.908 457.943 208.323 459.684V440.852H214.345V492.16H208.706V486.974C207.244 489.271 205.515 490.93 203.52 491.951C201.524 492.972 199.238 493.483 196.662 493.483C192.508 493.483 188.912 491.742 185.872 488.262C182.832 484.758 181.312 480.105 181.312 474.303C181.312 468.873 182.692 464.174 185.454 460.206C188.239 456.214 192.207 454.219 197.358 454.219ZM227.607 473.955C227.607 477.947 228.454 481.288 230.148 483.98C231.842 486.672 234.557 488.018 238.293 488.018C241.194 488.018 243.573 486.776 245.429 484.293C247.309 481.787 248.249 478.202 248.249 473.538C248.249 468.827 247.286 465.346 245.359 463.095C243.433 460.821 241.055 459.684 238.224 459.684C235.068 459.684 232.503 460.89 230.531 463.304C228.582 465.717 227.607 469.268 227.607 473.955ZM237.04 454.219C239.894 454.219 242.285 454.822 244.211 456.029C245.325 456.725 246.589 457.943 248.005 459.684V440.852H254.027V492.16H248.388V486.974C246.926 489.271 245.197 490.93 243.201 491.951C241.206 492.972 238.92 493.483 236.344 493.483C232.19 493.483 228.593 491.742 225.553 488.262C222.513 484.758 220.993 480.105 220.993 474.303C220.993 468.873 222.374 464.174 225.136 460.206C227.92 456.214 231.889 454.219 237.04 454.219ZM306.449 454.88H313.375C312.494 457.27 310.533 462.724 307.493 471.24C305.219 477.645 303.316 482.866 301.784 486.904C298.164 496.418 295.611 502.22 294.126 504.308C292.641 506.397 290.088 507.441 286.468 507.441C285.587 507.441 284.902 507.406 284.415 507.337C283.951 507.267 283.37 507.139 282.674 506.954V501.245C283.765 501.547 284.554 501.733 285.041 501.802C285.529 501.872 285.958 501.907 286.329 501.907C287.489 501.907 288.336 501.709 288.87 501.315C289.427 500.944 289.891 500.479 290.263 499.922C290.379 499.737 290.796 498.785 291.516 497.068C292.235 495.351 292.757 494.075 293.082 493.239L279.298 454.88H286.399L296.389 485.233L306.449 454.88ZM333.599 488.122C337.753 488.122 340.596 486.556 342.127 483.423C343.682 480.267 344.46 476.763 344.46 472.911C344.46 469.43 343.903 466.599 342.789 464.418C341.025 460.983 337.985 459.266 333.669 459.266C329.84 459.266 327.055 460.728 325.315 463.652C323.574 466.576 322.704 470.103 322.704 474.234C322.704 478.202 323.574 481.509 325.315 484.154C327.055 486.8 329.817 488.122 333.599 488.122ZM333.843 453.801C338.646 453.801 342.707 455.402 346.026 458.605C349.344 461.807 351.004 466.518 351.004 472.737C351.004 478.747 349.542 483.713 346.618 487.635C343.694 491.557 339.157 493.518 333.007 493.518C327.879 493.518 323.806 491.789 320.79 488.331C317.773 484.85 316.265 480.186 316.265 474.338C316.265 468.073 317.854 463.083 321.033 459.37C324.213 455.658 328.482 453.801 333.843 453.801ZM364.753 454.88V479.629C364.753 481.532 365.055 483.087 365.658 484.293C366.772 486.521 368.849 487.635 371.889 487.635C376.251 487.635 379.222 485.686 380.8 481.787C381.658 479.699 382.088 476.833 382.088 473.189V454.88H388.353V492.16H382.436L382.505 486.66C381.693 488.076 380.684 489.271 379.477 490.246C377.087 492.195 374.186 493.17 370.775 493.17C365.461 493.17 361.841 491.394 359.915 487.844C358.87 485.941 358.348 483.4 358.348 480.221V454.88H364.753ZM398.343 454.88H404.295V461.32C404.783 460.067 405.978 458.547 407.881 456.76C409.784 454.95 411.977 454.045 414.46 454.045C414.576 454.045 414.773 454.056 415.051 454.08C415.33 454.103 415.806 454.149 416.478 454.219V460.832C416.107 460.763 415.759 460.716 415.434 460.693C415.133 460.67 414.796 460.658 414.425 460.658C411.269 460.658 408.844 461.679 407.15 463.722C405.456 465.74 404.609 468.073 404.609 470.718V492.16H398.343V454.88Z" fill="#C2C2C2"/>
<path d="M164.117 576.825C161.82 577.591 159.07 577.974 155.867 577.974C149.184 577.974 143.661 575.978 139.299 571.987C134.008 567.183 131.362 560.129 131.362 550.823C131.362 541.448 134.077 534.359 139.507 529.555C143.94 525.634 149.451 523.673 156.041 523.673C162.678 523.673 168.248 525.75 172.75 529.903C177.948 534.707 180.547 541.425 180.547 550.058C180.547 554.629 179.99 558.458 178.876 561.544C177.971 564.491 176.637 566.94 174.873 568.889L180.79 574.424L175.186 580.271L168.99 574.424C167.111 575.561 165.486 576.361 164.117 576.825ZM161.82 567.566L156.633 562.623L162.168 556.845L167.354 561.788C168.166 560.117 168.735 558.655 169.06 557.402C169.57 555.522 169.826 553.33 169.826 550.823C169.826 545.068 168.642 540.624 166.275 537.492C163.931 534.336 160.497 532.758 155.972 532.758C151.725 532.758 148.337 534.266 145.808 537.283C143.278 540.3 142.014 544.813 142.014 550.823C142.014 557.855 143.824 562.89 147.444 565.93C149.788 567.903 152.595 568.889 155.867 568.889C157.097 568.889 158.281 568.738 159.418 568.436C160.044 568.274 160.845 567.984 161.82 567.566ZM210.552 556.428H199.483V576.547H189.005V525.239H214.172C217.769 525.309 220.53 525.75 222.456 526.562C224.406 527.374 226.053 528.569 227.399 530.147C228.513 531.447 229.395 532.885 230.045 534.463C230.694 536.041 231.019 537.84 231.019 539.859C231.019 542.295 230.404 544.697 229.174 547.064C227.944 549.408 225.914 551.067 223.083 552.042C225.45 552.993 227.121 554.351 228.095 556.114C229.093 557.855 229.592 560.523 229.592 564.12V567.566C229.592 569.91 229.685 571.5 229.871 572.335C230.149 573.658 230.799 574.632 231.82 575.259V576.547H220.02C219.695 575.41 219.463 574.493 219.324 573.797C219.045 572.358 218.894 570.885 218.871 569.376L218.801 564.608C218.755 561.336 218.152 559.154 216.991 558.064C215.854 556.973 213.708 556.428 210.552 556.428ZM217.061 547.099C219.196 546.124 220.263 544.198 220.263 541.321C220.263 538.211 219.231 536.122 217.165 535.055C216.005 534.452 214.265 534.15 211.944 534.15H199.483V547.934H211.631C214.044 547.934 215.854 547.656 217.061 547.099ZM292.143 552.216H281.979C281.793 550.8 281.318 549.524 280.552 548.387C279.438 546.855 277.709 546.089 275.365 546.089C272.024 546.089 269.738 547.749 268.508 551.067C267.858 552.831 267.533 555.174 267.533 558.098C267.533 560.883 267.858 563.122 268.508 564.816C269.692 567.972 271.919 569.55 275.191 569.55C277.512 569.55 279.159 568.924 280.134 567.671C281.109 566.418 281.701 564.793 281.909 562.797H292.039C291.807 565.814 290.716 568.669 288.767 571.36C285.657 575.7 281.051 577.87 274.948 577.87C268.845 577.87 264.354 576.06 261.477 572.439C258.599 568.819 257.16 564.12 257.16 558.342C257.16 551.821 258.75 546.751 261.929 543.131C265.108 539.511 269.494 537.7 275.087 537.7C279.844 537.7 283.731 538.768 286.748 540.903C289.788 543.038 291.586 546.809 292.143 552.216ZM330.641 543.409C333.844 547.424 335.445 552.169 335.445 557.646C335.445 563.215 333.844 567.984 330.641 571.952C327.439 575.897 322.577 577.87 316.057 577.87C309.536 577.87 304.674 575.897 301.472 571.952C298.269 567.984 296.668 563.215 296.668 557.646C296.668 552.169 298.269 547.424 301.472 543.409C304.674 539.395 309.536 537.387 316.057 537.387C322.577 537.387 327.439 539.395 330.641 543.409ZM316.022 545.776C313.121 545.776 310.882 546.809 309.304 548.874C307.749 550.916 306.972 553.84 306.972 557.646C306.972 561.452 307.749 564.387 309.304 566.452C310.882 568.518 313.121 569.55 316.022 569.55C318.923 569.55 321.15 568.518 322.705 566.452C324.26 564.387 325.037 561.452 325.037 557.646C325.037 553.84 324.26 550.916 322.705 548.874C321.15 546.809 318.923 545.776 316.022 545.776ZM377.111 525.309V576.547H367.469V571.291C366.053 573.542 364.441 575.178 362.63 576.199C360.82 577.22 358.569 577.73 355.878 577.73C351.445 577.73 347.709 575.944 344.669 572.37C341.653 568.773 340.144 564.167 340.144 558.551C340.144 552.076 341.629 546.983 344.6 543.27C347.593 539.557 351.585 537.7 356.574 537.7C358.871 537.7 360.913 538.211 362.7 539.232C364.487 540.23 365.937 541.622 367.051 543.409V525.309H377.111ZM350.378 557.82C350.378 561.324 351.074 564.12 352.466 566.209C353.836 568.32 355.924 569.376 358.732 569.376C361.54 569.376 363.675 568.332 365.137 566.244C366.599 564.155 367.33 561.452 367.33 558.133C367.33 553.492 366.158 550.174 363.814 548.178C362.375 546.971 360.704 546.368 358.802 546.368C355.901 546.368 353.766 547.47 352.397 549.675C351.051 551.856 350.378 554.571 350.378 557.82ZM418.638 565.408C418.382 567.659 417.21 569.945 415.122 572.265C411.873 575.955 407.325 577.8 401.477 577.8C396.65 577.8 392.392 576.245 388.702 573.136C385.012 570.026 383.168 564.967 383.168 557.959C383.168 551.392 384.827 546.356 388.145 542.852C391.487 539.348 395.815 537.596 401.129 537.596C404.285 537.596 407.127 538.188 409.657 539.371C412.186 540.555 414.275 542.423 415.922 544.975C417.408 547.226 418.371 549.837 418.812 552.807C419.067 554.548 419.171 557.054 419.125 560.326H393.158C393.297 564.132 394.492 566.8 396.743 568.332C398.112 569.283 399.76 569.759 401.686 569.759C403.728 569.759 405.387 569.179 406.663 568.019C407.36 567.392 407.974 566.522 408.508 565.408H418.638ZM408.822 553.782C408.659 551.16 407.858 549.176 406.42 547.83C405.004 546.461 403.241 545.776 401.129 545.776C398.831 545.776 397.045 546.495 395.768 547.934C394.515 549.373 393.726 551.322 393.401 553.782H408.822Z" fill="#C2C2C2"/>
<defs>
<filter id="filter0_i_237:379" x="20" y="-6.50977" width="441.673" height="286.482" filterUnits="userSpaceOnUse" color-interpolation-filters="sRGB">
<feFlood flood-opacity="0" result="BackgroundImageFix"/>
<feBlend mode="normal" in="SourceGraphic" in2="BackgroundImageFix" result="shape"/>
<feColorMatrix in="SourceAlpha" type="matrix" values="0 0 0 0 0 0 0 0 0 0 0 0 0 0 0 0 0 0 127 0" result="hardAlpha"/>
<feOffset dy="-31"/>
<feGaussianBlur stdDeviation="6.5"/>
<feComposite in2="hardAlpha" operator="arithmetic" k2="-1" k3="1"/>
<feColorMatrix type="matrix" values="0 0 0 0 0 0 0 0 0 0 0 0 0 0 0 0 0 0 0.11 0"/>
<feBlend mode="normal" in2="shape" result="effect1_innerShadow_237:379"/>
</filter>
</defs>
</svg>
