<?xml version="1.0" encoding="UTF-8" standalone="no"?>
<svg
   xmlns:dc="http://purl.org/dc/elements/1.1/"
   xmlns:cc="http://creativecommons.org/ns#"
   xmlns:rdf="http://www.w3.org/1999/02/22-rdf-syntax-ns#"
   xmlns:svg="http://www.w3.org/2000/svg"
   xmlns="http://www.w3.org/2000/svg"
   xmlns:sodipodi="http://sodipodi.sourceforge.net/DTD/sodipodi-0.dtd"
   xmlns:inkscape="http://www.inkscape.org/namespaces/inkscape"
   version="1.1"
   id="svg2"
   xml:space="preserve"
   width="666.66669"
   height="666.66669"
   viewBox="0 0 666.66669 666.66669"
   sodipodi:docname="restaurant-qr-code-frame-8.eps"><metadata
     id="metadata8"><rdf:RDF><cc:Work
         rdf:about=""><dc:format>image/svg+xml</dc:format><dc:type
           rdf:resource="http://purl.org/dc/dcmitype/StillImage" /></cc:Work></rdf:RDF></metadata><defs
     id="defs6" /><sodipodi:namedview
     pagecolor="#ffffff"
     bordercolor="#666666"
     borderopacity="1"
     objecttolerance="10"
     gridtolerance="10"
     guidetolerance="10"
     inkscape:pageopacity="0"
     inkscape:pageshadow="2"
     inkscape:window-width="640"
     inkscape:window-height="480"
     id="namedview4" /><g
     id="g10"
     inkscape:groupmode="layer"
     inkscape:label="ink_ext_XXXXXX"
     transform="matrix(1.3333333,0,0,-1.3333333,0,666.66667)"><g
       id="g12"
       transform="scale(0.1)"><path
         d="M 2514.61,695.559 H 551.914 c -129.812,0 -235.039,105.222 -235.039,235.043 V 2893.29 c 0,129.81 105.227,235.04 235.039,235.04 H 2514.61 c 129.8,0 235.04,-105.23 235.04,-235.04 V 930.602 c 0,-129.821 -105.24,-235.043 -235.04,-235.043"
         style="fill:#ffffff;fill-opacity:1;fill-rule:nonzero;stroke:none"
         id="path14" /><path
         d="m 4520.38,3611.34 c 0,-475.21 -385.22,-860.44 -860.43,-860.44 -475.2,0 -860.44,385.23 -860.44,860.44 0,475.2 385.24,860.43 860.44,860.43 475.21,0 860.43,-385.23 860.43,-860.43"
         style="fill:#2a2a2b;fill-opacity:1;fill-rule:nonzero;stroke:none"
         id="path16" /><path
         d="m 3659.95,2650.9 c -529.59,0 -960.44,430.85 -960.44,960.44 0,85.14 11.19,167.7 32.09,246.36 H 462.09 C 240.02,3857.7 60,3677.68 60,3455.62 V 692.73 C 60,470.66 240.02,290.641 462.09,290.641 h 3157.76 c 222.06,0 402.08,180.019 402.08,402.089 v 2029.06 c -111.77,-45.65 -233.97,-70.89 -361.98,-70.89"
         style="fill:#2a2a2b;fill-opacity:1;fill-rule:nonzero;stroke:none"
         id="path18" /><path
         d="m 3659.95,2750.9 c 129.27,0 251.87,28.84 361.98,80.13 v 624.59 c 0,222.06 -180.02,402.08 -402.08,402.08 h -784.22 c -23.38,-78.1 -36.12,-160.76 -36.12,-246.36 0,-474.45 386,-860.44 860.44,-860.44"
         style="fill:#2a2a2b;fill-opacity:1;fill-rule:nonzero;stroke:none"
         id="path20" /><path
         d="m 3070.09,859.012 24.37,29.187 c 16.87,-13.918 34.54,-22.758 55.97,-22.758 16.86,0 27.04,6.688 27.04,18.207 0,10.442 -6.43,15.793 -37.75,23.832 -37.77,9.641 -62.13,20.09 -62.13,57.84 0,34.02 27.31,56.51 65.6,56.51 27.32,0 50.62,-8.57 69.63,-23.83 l -21.42,-31.07 c -16.61,11.519 -32.94,18.48 -48.73,18.48 -15.8,0 -24.11,-7.23 -24.11,-16.871 0,-12.32 8.03,-16.328 40.43,-24.629 38.03,-9.922 59.46,-23.582 59.46,-56.781 0,-37.231 -28.39,-58.109 -68.83,-58.109 -28.38,0 -57.03,9.91 -79.53,29.992"
         style="fill:#ffffff;fill-opacity:1;fill-rule:nonzero;stroke:none"
         id="path22" /><path
         d="m 3243.11,903.191 c 0,40.981 31.32,74.719 75.24,74.719 27.05,0 43.65,-10.18 57.04,-25.18 l -23.83,-24.101 c -8.84,8.312 -17.41,14.199 -33.47,14.199 -20.36,0 -34.82,-17.937 -34.82,-39.637 0,-21.953 14.19,-39.632 36.42,-39.632 13.66,0 23.03,5.89 32.94,15.273 l 23.83,-24.102 c -13.92,-15.269 -29.99,-26.238 -58.65,-26.238 -43.11,0 -74.7,33.199 -74.7,74.699"
         style="fill:#ffffff;fill-opacity:1;fill-rule:nonzero;stroke:none"
         id="path24" /><path
         d="m 3487.88,882.301 v 7.238 c -6.96,3.211 -16.06,5.352 -25.98,5.352 -17.4,0 -28.11,-6.961 -28.11,-20.352 0,-10.98 9.11,-17.398 22.23,-17.398 19.01,0 31.86,10.441 31.86,25.16 z m -93.46,-8.821 c 0,31.321 23.84,45.79 57.85,45.79 14.46,0 24.91,-2.411 35.08,-5.899 v 2.41 c 0,16.879 -10.45,26.25 -30.8,26.25 -15.52,0 -26.51,-2.953 -39.63,-7.769 l -10.17,31.058 c 15.79,6.969 31.33,11.52 55.69,11.52 22.23,0 38.3,-5.891 48.48,-16.07 10.71,-10.711 15.53,-26.508 15.53,-45.79 v -83.281 h -39.37 v 15.531 c -9.9,-10.98 -23.56,-18.21 -43.38,-18.21 -27.05,0 -49.28,15.531 -49.28,44.46"
         style="fill:#ffffff;fill-opacity:1;fill-rule:nonzero;stroke:none"
         id="path26" /><path
         d="m 3561.55,975.23 h 40.71 v -20.351 c 9.37,12.051 21.42,23.031 42.04,23.031 30.8,0 48.74,-20.351 48.74,-53.289 v -92.922 h -40.71 v 80.071 c 0,19.269 -9.11,29.191 -24.63,29.191 -15.54,0 -25.44,-9.922 -25.44,-29.191 v -80.071 h -40.71 V 975.23"
         style="fill:#ffffff;fill-opacity:1;fill-rule:nonzero;stroke:none"
         id="path28" /><path
         d="m 3309.79,740.879 h 40.71 v -20.348 c 9.37,12.051 21.69,23.028 42.3,23.028 18.75,0 32.94,-8.297 40.44,-22.758 12.59,14.73 27.59,22.758 47.13,22.758 30.26,0 48.48,-18.207 48.48,-52.758 V 597.34 h -40.71 v 80.07 c 0,19.289 -8.57,29.192 -23.83,29.192 -15.27,0 -24.64,-9.903 -24.64,-29.192 v -80.07 h -40.71 v 80.07 c 0,19.289 -8.56,29.192 -23.82,29.192 -15.27,0 -24.64,-9.903 -24.64,-29.192 v -80.07 h -40.71 v 143.539"
         style="fill:#ffffff;fill-opacity:1;fill-rule:nonzero;stroke:none"
         id="path30" /><path
         d="m 3658.49,680.359 c -2.42,18.211 -13.12,30.532 -30.26,30.532 -16.87,0 -27.85,-12.051 -31.06,-30.532 z m -101.22,-11.507 c 0,40.957 29.19,74.707 70.96,74.707 47.93,0 69.9,-37.219 69.9,-77.93 0,-3.207 -0.28,-6.957 -0.54,-10.707 h -99.89 c 4.02,-18.473 16.87,-28.113 35.08,-28.113 13.66,0 23.57,4.273 34.82,14.722 l 23.29,-20.621 c -13.39,-16.601 -32.67,-26.781 -58.64,-26.781 -43.12,0 -74.98,30.262 -74.98,74.723"
         style="fill:#ffffff;fill-opacity:1;fill-rule:nonzero;stroke:none"
         id="path32" /><path
         d="m 2895.4,534.801 h 73.43 l -99.81,122.57 99.81,122.57 h -73.43 l -99.8,-122.57 99.8,-122.57"
         style="fill:#ffffff;fill-opacity:1;fill-rule:nonzero;stroke:none"
         id="path34" /><path
         d="m 3114.12,687.609 h -261.3 v -60.468 h 261.3 v 60.468"
         style="fill:#ffffff;fill-opacity:1;fill-rule:nonzero;stroke:none"
         id="path36" /><path
         d="m 3663.75,3684.69 c 10.59,-25.41 40.37,-37.65 65.82,-27.07 25.27,10.51 37.65,40.56 27.12,65.87 -10.46,25.16 -40.67,37.56 -65.92,27.06 -25.32,-10.54 -37.6,-40.46 -27.02,-65.86 z m 129.5,-165.45 c -24.97,-11.57 -36.08,-41.84 -24.52,-66.8 11.58,-25.04 41.76,-36.14 66.75,-24.57 24.88,11.5 36.13,42 24.64,66.8 -11.51,24.82 -42.08,36.06 -66.87,24.57 z m -186.41,-83.67 c 25.35,10.01 38.33,39.98 28.32,65.41 -9.95,25.27 -40.06,38.28 -65.47,28.26 -25.44,-10.02 -38.31,-39.85 -28.22,-65.41 10.07,-25.5 39.79,-38.35 65.37,-28.26 z m -233.47,-155.41 c -3.07,286.98 205.17,557.76 460.62,641.61 4.34,-9.6 8.92,-19.71 13.49,-29.83 89.33,-197.64 178.68,-395.26 267.97,-592.92 27.69,-61.3 4.43,-94.28 -62.03,-87.71 -217.71,21.5 -435.4,43.14 -653.1,64.82 -9.14,0.91 -18.19,2.7 -26.95,4.03"
         style="fill:#ffffff;fill-opacity:1;fill-rule:nonzero;stroke:none"
         id="path38" /><path
         d="m 3267.29,3289.51 c -48.23,4.72 -95.38,8.79 -142.39,14.1 -42.55,4.82 -56.79,22.84 -52,66.13 20.67,186.67 87.98,355.01 201.69,504.33 99.37,130.5 223.75,230.75 372.09,300.91 44.55,21.07 67.14,12.18 87.72,-32.95 18.33,-40.17 36.41,-80.46 55.67,-123.07 -319.44,-138.35 -491,-381.94 -522.78,-729.45"
         style="fill:#ffffff;fill-opacity:1;fill-rule:nonzero;stroke:none"
         id="path40" /><path
         d="m 3606.84,3435.57 c -25.58,-10.09 -55.3,2.76 -65.37,28.26 -10.09,25.56 2.78,55.39 28.22,65.41 25.41,10.02 55.52,-2.99 65.47,-28.26 10.01,-25.43 -2.97,-55.4 -28.32,-65.41"
         style="fill:#2a2a2b;fill-opacity:1;fill-rule:nonzero;stroke:none"
         id="path42" /><path
         d="m 3793.25,3519.24 c 24.79,11.49 55.36,0.25 66.87,-24.57 11.49,-24.8 0.24,-55.3 -24.64,-66.8 -24.99,-11.57 -55.17,-0.47 -66.75,24.57 -11.56,24.96 -0.45,55.23 24.52,66.8"
         style="fill:#2a2a2b;fill-opacity:1;fill-rule:nonzero;stroke:none"
         id="path44" /><path
         d="m 3663.75,3684.69 c -10.58,25.4 1.7,55.32 27.02,65.86 25.25,10.5 55.46,-1.9 65.92,-27.06 10.53,-25.31 -1.85,-55.36 -27.12,-65.87 -25.45,-10.58 -55.23,1.66 -65.82,27.07"
         style="fill:#2a2a2b;fill-opacity:1;fill-rule:nonzero;stroke:none"
         id="path46" /><path
         d="M 2730.26,763.129 H 376.738 V 3116.67 H 2730.26 V 763.129"
         style="fill:#ffffff;fill-opacity:1;fill-rule:nonzero;stroke:none"
         id="path48" /><path
         d="M 2555.31,941.219 H 551.688 V 2944.84 H 2555.31 V 941.219"
         style="fill:#ffffff;fill-opacity:1;fill-rule:nonzero;stroke:none"
         id="path50" /><path
         d="m 2511.05,2464.77 h 88.52 v 524.34 h -524.34 v -88.52 h 435.82 v -435.82"
         style="fill:#a6a7a7;fill-opacity:1;fill-rule:nonzero;stroke:none"
         id="path52" /><path
         d="m 595.945,2464.77 v 435.82 h 435.825 v 88.52 H 507.434 v -524.34 h 88.511"
         style="fill:#a6a7a7;fill-opacity:1;fill-rule:nonzero;stroke:none"
         id="path54" /><path
         d="M 595.945,1421.3 H 507.434 V 896.961 H 1031.77 V 985.48 H 595.945 v 435.82"
         style="fill:#a6a7a7;fill-opacity:1;fill-rule:nonzero;stroke:none"
         id="path56" /><path
         d="M 2511.05,1421.3 V 985.48 h -435.82 v -88.519 h 524.34 V 1421.3 h -88.52"
         style="fill:#a6a7a7;fill-opacity:1;fill-rule:nonzero;stroke:none"
         id="path58" /><path
         d="m 906.418,2137.89 -65.141,143.36 -65.484,-143.36 z m -73.637,163.54 h 17.699 l 115.411,-249.56 h -20.176 l -31.516,69.38 H 767.996 l -31.504,-69.38 h -19.121 l 115.41,249.56"
         style="fill:#a6a7a7;fill-opacity:1;fill-rule:nonzero;stroke:none"
         id="path60" /><path
         d="m 1157.1,2142.49 c 0,46.38 -36.1,77.52 -73.63,77.52 -39.3,0 -70.8,-28.67 -70.8,-77.87 0,-47.44 32.92,-77.88 70.8,-77.88 37.53,0 73.63,31.5 73.63,78.23 z m -163.194,-0.35 c 0,58.75 44.244,94.51 87.794,94.51 36.1,0 59.47,-20.53 74.34,-43.19 v 116.82 h 17.35 v -258.41 h -17.35 v 40.35 c -15.58,-23.71 -38.59,-44.6 -74.34,-44.6 -43.55,0 -87.794,35.05 -87.794,94.52"
         style="fill:#a6a7a7;fill-opacity:1;fill-rule:nonzero;stroke:none"
         id="path62" /><path
         d="m 1390.78,2142.49 c 0,46.38 -36.1,77.52 -73.63,77.52 -39.3,0 -70.8,-28.67 -70.8,-77.87 0,-47.44 32.92,-77.88 70.8,-77.88 37.53,0 73.63,31.5 73.63,78.23 z m -163.19,-0.35 c 0,58.75 44.25,94.51 87.79,94.51 36.1,0 59.47,-20.53 74.34,-43.19 v 116.82 h 17.35 v -258.41 h -17.35 v 40.35 c -15.58,-23.71 -38.59,-44.6 -74.34,-44.6 -43.54,0 -87.79,35.05 -87.79,94.52"
         style="fill:#a6a7a7;fill-opacity:1;fill-rule:nonzero;stroke:none"
         id="path64" /><path
         d="m 1565.36,2001.95 6.02,15.22 c 9.56,-4.6 17.34,-6.72 30.8,-6.72 18.76,0 31.15,10.97 44.6,42.48 l -86.73,179.47 h 20.17 l 75.05,-161.42 65.14,161.42 h 19.12 l -78.23,-186.91 c -15.94,-37.87 -34.35,-51.33 -60.19,-51.33 -13.81,0 -23.72,2.48 -35.75,7.79"
         style="fill:#a6a7a7;fill-opacity:1;fill-rule:nonzero;stroke:none"
         id="path66" /><path
         d="m 1931.08,2142.14 c 0,43.53 -33.63,78.23 -74.34,78.23 -40.71,0 -73.63,-35.05 -73.63,-78.23 0,-43.55 32.56,-78.24 74.34,-78.24 40,0 73.63,35.05 73.63,78.24 z m -166.73,0 c 0,50.61 39.29,94.51 93.1,94.51 53.45,0 92.39,-43.19 92.39,-94.51 0,-50.63 -39.29,-94.52 -93.1,-94.52 -53.46,0 -92.39,43.18 -92.39,94.52"
         style="fill:#a6a7a7;fill-opacity:1;fill-rule:nonzero;stroke:none"
         id="path68" /><path
         d="m 1999.8,2121.95 v 110.45 h 17.35 v -107.25 c 0,-37.18 20.89,-61.61 57.34,-61.61 35.4,0 62.67,26.91 62.67,64.44 v 104.42 h 17.34 v -180.53 h -17.34 v 33.63 c -12.04,-21.24 -32.22,-37.88 -65.14,-37.88 -45.67,0 -72.22,31.15 -72.22,74.33"
         style="fill:#a6a7a7;fill-opacity:1;fill-rule:nonzero;stroke:none"
         id="path70" /><path
         d="m 2220.38,2232.4 h 17.34 v -51.33 c 14.16,32.22 44.26,55.58 80.01,54.16 v -19.11 h -1.76 c -41.78,0 -78.25,-31.5 -78.25,-90.27 v -73.98 h -17.34 v 180.53"
         style="fill:#a6a7a7;fill-opacity:1;fill-rule:nonzero;stroke:none"
         id="path72" /><path
         d="m 900.398,1679.73 -40.347,34.33 34.683,38.95 40.715,-36.82 c 4.602,10.27 6.731,21.59 6.731,34.69 0,42.48 -31.157,77.88 -75.051,77.88 -43.899,0 -74.348,-34.69 -74.348,-77.88 0,-42.48 31.157,-77.88 75.051,-77.88 12.039,0 23.02,2.48 32.566,6.73 z m 40.364,-35.76 c -20.891,-13.45 -46.028,-21.24 -73.633,-21.24 -76.465,0 -131.336,57 -131.336,128.15 0,70.45 55.574,128.15 132.039,128.15 76.465,0 131.34,-56.99 131.34,-128.15 0,-25.84 -7.785,-50.62 -21.945,-71.15 l 25.483,-21.6 -34.69,-38.58 -27.258,24.42"
         style="fill:#a6a7a7;fill-opacity:1;fill-rule:nonzero;stroke:none"
         id="path74" /><path
         d="m 1157.46,1754.42 c 26.55,0 41.78,14.16 41.78,35.76 0,23.36 -16.29,35.4 -42.83,35.4 h -54.17 v -71.16 z m -109.74,120.37 h 113.29 c 31.5,0 55.92,-8.85 72.21,-25.14 13.81,-13.81 21.24,-33.27 21.24,-57.35 0,-40.01 -21.59,-65.13 -53.1,-76.82 l 60.53,-88.5 h -63.72 l -53.8,79.3 h -42.13 v -79.3 h -54.52 v 247.81"
         style="fill:#a6a7a7;fill-opacity:1;fill-rule:nonzero;stroke:none"
         id="path76" /><path
         d="m 1398.96,1750.88 c 0,70.45 53.1,128.15 129.2,128.15 46.73,0 72.93,-17.7 95.94,-40.36 l -32.57,-37.52 c -19.11,17.35 -35.4,27.61 -63.72,27.61 -41.77,0 -71.86,-34.69 -71.86,-77.88 0,-42.48 29.38,-77.88 71.86,-77.88 28.32,0 45.67,11.33 65.14,29.03 l 34.7,-37.17 c -25.49,-27.26 -53.81,-42.13 -101.61,-42.13 -72.92,0 -127.08,56.29 -127.08,128.15"
         style="fill:#a6a7a7;fill-opacity:1;fill-rule:nonzero;stroke:none"
         id="path78" /><path
         d="m 1805.04,1721.5 c 0,27.96 -20.18,52.4 -49.91,52.4 -30.8,0 -49.21,-23.72 -49.21,-52.4 0,-27.96 20.18,-52.39 49.92,-52.39 30.79,0 49.2,23.71 49.2,52.39 z m -152.22,0 c 0,54.52 43.9,98.76 103.02,98.76 58.76,0 102.3,-43.53 102.3,-98.76 0,-54.52 -43.89,-98.77 -103.01,-98.77 -58.76,0 -102.31,43.55 -102.31,98.77"
         style="fill:#a6a7a7;fill-opacity:1;fill-rule:nonzero;stroke:none"
         id="path80" /><path
         d="m 2034.83,1722.21 c 0,31.5 -20.88,52.39 -46.02,52.39 -25.14,0 -46.38,-20.53 -46.38,-53.1 0,-31.51 21.24,-52.39 46.38,-52.39 25.14,0 46.02,20.88 46.02,53.1 z m -146.21,0 c 0,63.37 41.43,98.05 86.38,98.05 28.68,0 46.38,-13.09 59.12,-28.32 v 93.46 h 53.81 v -258.42 h -53.81 v 27.26 c -13.09,-17.7 -31.15,-30.8 -59.12,-30.8 -44.25,0 -86.38,34.69 -86.38,98.77"
         style="fill:#a6a7a7;fill-opacity:1;fill-rule:nonzero;stroke:none"
         id="path82" /><path
         d="m 2260.72,1736.72 c -3.18,24.07 -17.34,40.36 -40,40.36 -22.3,0 -36.81,-15.93 -41.06,-40.36 z m -133.81,-15.22 c 0,54.16 38.59,98.76 93.81,98.76 63.37,0 92.4,-49.2 92.4,-103 0,-4.25 -0.36,-9.21 -0.71,-14.16 h -132.04 c 5.3,-24.44 22.3,-37.18 46.37,-37.18 18.05,0 31.15,5.66 46.02,19.47 l 30.8,-27.26 c -17.7,-21.95 -43.19,-35.4 -77.52,-35.4 -57,0 -99.13,40 -99.13,98.77"
         style="fill:#a6a7a7;fill-opacity:1;fill-rule:nonzero;stroke:none"
         id="path84" /></g></g></svg>
