<svg width="550" height="1000" viewBox="0 0 550 1000" fill="none" xmlns="http://www.w3.org/2000/svg">
<path fill-rule="evenodd" clip-rule="evenodd" d="M505.5 75H45.5L13.1345 304.501C10.1034 317.748 8.15432 331.379 7.3798 345.307L7 348H7.24486C7.08217 351.647 7 355.315 7 359C7 482.109 98.6874 584.842 220.633 608.75C222.717 616.386 229.703 622 238 622H256.216C256.641 639.465 257.069 655.722 257.476 671.182C259.388 743.853 260.837 798.909 259.333 879H172C147.147 879 127 899.147 127 924H423C423 899.147 402.853 879 378 879H291.58C289.504 792.646 291.26 735.456 293.747 654.471L293.747 654.457C294.066 644.067 294.397 633.285 294.734 622H312C320.297 622 327.283 616.386 329.367 608.75C451.313 584.842 543 482.109 543 359C543 355.315 542.918 351.647 542.755 348H543L542.613 345.186C541.87 331.938 540.064 318.959 537.275 306.324L505.5 75Z" fill="#333333"/>
<mask id="path-2-inside-1_237:319" fill="white">
<path fill-rule="evenodd" clip-rule="evenodd" d="M505.5 75H45.5001L34.3174 154.296C127.179 143.599 202.905 151.196 278.255 158.755C352.967 166.251 427.311 173.709 517.624 163.26L505.5 75Z"/>
</mask>
<path fill-rule="evenodd" clip-rule="evenodd" d="M505.5 75H45.5001L34.3174 154.296C127.179 143.599 202.905 151.196 278.255 158.755C352.967 166.251 427.311 173.709 517.624 163.26L505.5 75Z" fill="white"/>
<path d="M45.5001 75V74H44.6312L44.5099 74.8604L45.5001 75ZM505.5 75L506.491 74.8639L506.372 74H505.5V75ZM34.3174 154.296L33.3272 154.156L33.1465 155.437L34.4318 155.289L34.3174 154.296ZM278.255 158.755L278.155 159.75L278.155 159.75L278.255 158.755ZM517.624 163.26L517.739 164.254L518.753 164.136L518.614 163.124L517.624 163.26ZM45.5001 76H505.5V74H45.5001V76ZM35.3076 154.435L46.4903 75.1396L44.5099 74.8604L33.3272 154.156L35.3076 154.435ZM34.4318 155.289C127.175 144.606 202.804 152.191 278.155 159.75L278.354 157.76C203.006 150.201 127.183 142.592 34.203 153.302L34.4318 155.289ZM278.155 159.75C352.865 167.245 427.306 174.716 517.739 164.254L517.509 162.267C427.315 172.702 353.069 165.256 278.354 157.76L278.155 159.75ZM504.509 75.1361L516.633 163.396L518.614 163.124L506.491 74.8639L504.509 75.1361Z" fill="#333333" mask="url(#path-2-inside-1_237:319)"/>
<path d="M157.541 120.807C157.541 124.568 156.891 127.873 155.59 130.721C154.289 133.551 152.426 135.73 150 137.26C147.592 138.771 144.814 139.527 141.668 139.527C138.557 139.527 135.779 138.771 133.336 137.26C130.91 135.73 129.029 133.56 127.693 130.747C126.375 127.935 125.707 124.691 125.689 121.018V118.855C125.689 115.111 126.349 111.807 127.667 108.941C129.003 106.076 130.875 103.888 133.283 102.376C135.709 100.847 138.486 100.082 141.615 100.082C144.744 100.082 147.513 100.838 149.921 102.35C152.347 103.844 154.219 106.006 155.537 108.836C156.855 111.648 157.523 114.927 157.541 118.671V120.807ZM150.87 118.803C150.87 114.549 150.062 111.288 148.444 109.021C146.845 106.753 144.568 105.619 141.615 105.619C138.732 105.619 136.474 106.753 134.839 109.021C133.222 111.271 132.396 114.461 132.36 118.592V120.807C132.36 125.025 133.178 128.286 134.812 130.589C136.465 132.892 138.75 134.043 141.668 134.043C144.621 134.043 146.889 132.918 148.471 130.668C150.07 128.418 150.87 125.131 150.87 120.807V118.803ZM170.856 124.735V139H164.186V100.609H178.872C183.161 100.609 186.562 101.726 189.076 103.958C191.607 106.19 192.873 109.144 192.873 112.817C192.873 116.579 191.634 119.506 189.155 121.598C186.694 123.689 183.24 124.735 178.793 124.735H170.856ZM170.856 119.383H178.872C181.245 119.383 183.056 118.829 184.304 117.722C185.552 116.597 186.176 114.979 186.176 112.87C186.176 110.796 185.543 109.144 184.277 107.913C183.012 106.665 181.271 106.023 179.057 105.988H170.856V119.383ZM221.165 121.861H205.397V133.674H223.828V139H198.727V100.609H223.644V105.988H205.397V116.588H221.165V121.861ZM259.714 139H253.043L235.931 111.763V139H229.26V100.609H235.931L253.096 127.952V100.609H259.714V139ZM289.693 100.609L300.768 130.035L311.815 100.609H320.438V139H313.793V126.344L314.452 109.416L303.114 139H298.342L287.03 109.442L287.689 126.344V139H281.045V100.609H289.693ZM350.786 121.861H335.019V133.674H353.449V139H328.348V100.609H353.265V105.988H335.019V116.588H350.786V121.861ZM389.335 139H382.664L365.552 111.763V139H358.881V100.609H365.552L382.717 127.952V100.609H389.335V139ZM425.3 100.609V126.265C425.3 130.343 423.99 133.577 421.371 135.968C418.77 138.341 415.298 139.527 410.956 139.527C406.562 139.527 403.072 138.358 400.488 136.021C397.904 133.665 396.612 130.404 396.612 126.238V100.609H403.257V126.291C403.257 128.857 403.907 130.817 405.208 132.171C406.509 133.524 408.425 134.201 410.956 134.201C416.089 134.201 418.655 131.494 418.655 126.08V100.609H425.3Z" fill="black"/>
<circle cx="102" cy="472" r="33" fill="white"/>
<circle cx="461" cy="282" r="25" fill="white"/>
<circle cx="471" cy="209" r="15" fill="white"/>
<circle cx="436" cy="173" r="11" fill="white"/>
<rect x="123" y="209" width="319" height="319" rx="6.38" fill="white"/>
<path d="M355.87 231.33H419.67V295.13" stroke="#C2C2C2" stroke-width="12.76"/>
<path d="M209.13 231.33H145.33V295.13" stroke="#C2C2C2" stroke-width="12.76"/>
<path d="M355.87 505.67H419.67V441.87" stroke="#C2C2C2" stroke-width="12.76"/>
<path d="M209.13 505.67H145.33V441.87" stroke="#C2C2C2" stroke-width="12.76"/>
<path d="M206.654 342.38L201.374 327.014L195.763 342.38H206.654ZM198.912 321.853H204.239L216.858 356.633H211.697L208.169 346.215H194.413L190.649 356.633H185.819L198.912 321.853ZM223.274 344.25C223.274 346.965 223.85 349.238 225.003 351.069C226.155 352.9 228.001 353.815 230.543 353.815C232.516 353.815 234.133 352.971 235.396 351.282C236.675 349.577 237.314 347.139 237.314 343.966C237.314 340.762 236.659 338.395 235.349 336.864C234.039 335.317 232.421 334.543 230.495 334.543C228.349 334.543 226.605 335.364 225.263 337.006C223.937 338.647 223.274 341.062 223.274 344.25ZM229.69 330.826C231.632 330.826 233.257 331.237 234.568 332.057C235.325 332.531 236.185 333.36 237.148 334.543V321.735H241.244V356.633H237.409V353.105C236.414 354.668 235.238 355.796 233.881 356.491C232.524 357.185 230.969 357.532 229.217 357.532C226.391 357.532 223.945 356.349 221.877 353.981C219.81 351.598 218.776 348.433 218.776 344.487C218.776 340.794 219.715 337.597 221.593 334.898C223.487 332.184 226.186 330.826 229.69 330.826ZM250.265 344.25C250.265 346.965 250.841 349.238 251.993 351.069C253.145 352.9 254.992 353.815 257.533 353.815C259.506 353.815 261.124 352.971 262.387 351.282C263.665 349.577 264.304 347.139 264.304 343.966C264.304 340.762 263.649 338.395 262.339 336.864C261.029 335.317 259.411 334.543 257.486 334.543C255.339 334.543 253.595 335.364 252.253 337.006C250.927 338.647 250.265 341.062 250.265 344.25ZM256.681 330.826C258.622 330.826 260.248 331.237 261.558 332.057C262.316 332.531 263.176 333.36 264.139 334.543V321.735H268.234V356.633H264.399V353.105C263.405 354.668 262.229 355.796 260.871 356.491C259.514 357.185 257.959 357.532 256.207 357.532C253.382 357.532 250.935 356.349 248.868 353.981C246.8 351.598 245.766 348.433 245.766 344.487C245.766 340.794 246.705 337.597 248.584 334.898C250.478 332.184 253.177 330.826 256.681 330.826ZM303.89 331.276H308.602C308.002 332.902 306.668 336.611 304.6 342.404C303.054 346.76 301.759 350.311 300.718 353.058C298.255 359.529 296.519 363.475 295.509 364.896C294.499 366.316 292.763 367.026 290.3 367.026C289.701 367.026 289.235 367.003 288.903 366.955C288.588 366.908 288.193 366.821 287.72 366.695V362.812C288.462 363.017 288.998 363.144 289.33 363.191C289.661 363.238 289.953 363.262 290.206 363.262C290.995 363.262 291.571 363.128 291.934 362.86C292.313 362.607 292.628 362.291 292.881 361.913C292.96 361.786 293.244 361.139 293.733 359.971C294.223 358.803 294.578 357.935 294.799 357.367L285.423 331.276H290.253L297.048 351.921L303.89 331.276ZM322.357 353.886C325.183 353.886 327.116 352.821 328.158 350.69C329.215 348.544 329.744 346.16 329.744 343.54C329.744 341.173 329.365 339.247 328.608 337.763C327.408 335.427 325.34 334.259 322.405 334.259C319.8 334.259 317.906 335.254 316.722 337.242C315.539 339.231 314.947 341.63 314.947 344.44C314.947 347.139 315.539 349.388 316.722 351.187C317.906 352.987 319.785 353.886 322.357 353.886ZM322.523 330.542C325.79 330.542 328.552 331.631 330.81 333.809C333.067 335.988 334.195 339.192 334.195 343.422C334.195 347.51 333.201 350.887 331.212 353.555C329.223 356.222 326.138 357.556 321.955 357.556C318.467 357.556 315.697 356.38 313.645 354.028C311.593 351.661 310.567 348.488 310.567 344.511C310.567 340.249 311.648 336.856 313.81 334.33C315.973 331.805 318.877 330.542 322.523 330.542ZM343.547 331.276V348.11C343.547 349.404 343.752 350.461 344.163 351.282C344.92 352.797 346.333 353.555 348.401 353.555C351.368 353.555 353.388 352.229 354.462 349.577C355.046 348.157 355.338 346.208 355.338 343.73V331.276H359.599V356.633H355.574L355.622 352.892C355.069 353.855 354.383 354.668 353.562 355.331C351.936 356.656 349.963 357.319 347.643 357.319C344.029 357.319 341.566 356.112 340.256 353.697C339.546 352.403 339.191 350.674 339.191 348.512V331.276H343.547ZM366.394 331.276H370.443V335.656C370.774 334.804 371.587 333.77 372.881 332.555C374.176 331.323 375.667 330.708 377.356 330.708C377.435 330.708 377.569 330.716 377.759 330.732C377.948 330.747 378.272 330.779 378.729 330.826V335.325C378.477 335.277 378.24 335.246 378.019 335.23C377.814 335.214 377.585 335.206 377.332 335.206C375.186 335.206 373.536 335.901 372.384 337.29C371.232 338.663 370.656 340.249 370.656 342.049V356.633H366.394V331.276Z" fill="#C2C2C2"/>
<path d="M207.081 414.098C205.519 414.618 203.648 414.879 201.47 414.879C196.924 414.879 193.168 413.521 190.201 410.807C186.602 407.539 184.802 402.741 184.802 396.412C184.802 390.035 186.649 385.213 190.343 381.946C193.357 379.278 197.106 377.945 201.589 377.945C206.103 377.945 209.891 379.357 212.953 382.183C216.489 385.45 218.256 390.019 218.256 395.891C218.256 399 217.878 401.605 217.12 403.704C216.504 405.708 215.597 407.374 214.397 408.7L218.422 412.464L214.61 416.442L210.396 412.464C209.118 413.237 208.013 413.782 207.081 414.098ZM205.519 407.8L201.991 404.438L205.756 400.508L209.283 403.87C209.836 402.733 210.222 401.739 210.443 400.887C210.791 399.608 210.964 398.116 210.964 396.412C210.964 392.497 210.159 389.475 208.549 387.344C206.955 385.197 204.619 384.124 201.541 384.124C198.653 384.124 196.348 385.15 194.628 387.202C192.908 389.254 192.047 392.324 192.047 396.412C192.047 401.194 193.278 404.619 195.741 406.687C197.335 408.029 199.245 408.7 201.47 408.7C202.307 408.7 203.112 408.597 203.885 408.392C204.311 408.281 204.856 408.084 205.519 407.8ZM238.665 400.224H231.136V413.908H224.01V379.01H241.127C243.574 379.057 245.452 379.357 246.762 379.91C248.088 380.462 249.209 381.275 250.124 382.348C250.882 383.232 251.481 384.211 251.923 385.284C252.365 386.357 252.586 387.581 252.586 388.954C252.586 390.611 252.168 392.245 251.331 393.855C250.495 395.449 249.114 396.578 247.188 397.24C248.798 397.888 249.935 398.811 250.597 400.011C251.276 401.194 251.616 403.009 251.616 405.456V407.8C251.616 409.394 251.679 410.475 251.805 411.043C251.994 411.943 252.436 412.606 253.131 413.032V413.908H245.105C244.884 413.135 244.726 412.511 244.631 412.038C244.442 411.059 244.339 410.057 244.323 409.031L244.276 405.787C244.244 403.562 243.834 402.078 243.045 401.336C242.272 400.595 240.811 400.224 238.665 400.224ZM243.092 393.878C244.544 393.216 245.27 391.906 245.27 389.948C245.27 387.833 244.568 386.413 243.163 385.687C242.374 385.276 241.19 385.071 239.612 385.071H231.136V394.447H239.399C241.04 394.447 242.272 394.257 243.092 393.878ZM294.161 397.359H287.248C287.121 396.396 286.798 395.528 286.277 394.754C285.519 393.713 284.343 393.192 282.749 393.192C280.476 393.192 278.922 394.32 278.085 396.578C277.643 397.777 277.422 399.371 277.422 401.36C277.422 403.254 277.643 404.777 278.085 405.929C278.89 408.076 280.405 409.149 282.631 409.149C284.209 409.149 285.33 408.723 285.993 407.871C286.656 407.019 287.058 405.914 287.2 404.556H294.09C293.932 406.608 293.19 408.55 291.864 410.381C289.749 413.332 286.616 414.808 282.465 414.808C278.314 414.808 275.26 413.577 273.303 411.114C271.345 408.652 270.367 405.456 270.367 401.526C270.367 397.091 271.448 393.642 273.61 391.179C275.773 388.717 278.756 387.486 282.56 387.486C285.795 387.486 288.439 388.212 290.491 389.664C292.559 391.116 293.782 393.681 294.161 397.359ZM320.346 391.369C322.525 394.099 323.614 397.327 323.614 401.052C323.614 404.84 322.525 408.084 320.346 410.783C318.168 413.466 314.861 414.808 310.426 414.808C305.991 414.808 302.684 413.466 300.506 410.783C298.328 408.084 297.239 404.84 297.239 401.052C297.239 397.327 298.328 394.099 300.506 391.369C302.684 388.638 305.991 387.273 310.426 387.273C314.861 387.273 318.168 388.638 320.346 391.369ZM310.403 392.979C308.43 392.979 306.906 393.681 305.833 395.086C304.776 396.475 304.247 398.464 304.247 401.052C304.247 403.641 304.776 405.637 305.833 407.042C306.906 408.447 308.43 409.149 310.403 409.149C312.375 409.149 313.891 408.447 314.948 407.042C316.006 405.637 316.535 403.641 316.535 401.052C316.535 398.464 316.006 396.475 314.948 395.086C313.891 393.681 312.375 392.979 310.403 392.979ZM351.954 379.057V413.908H345.395V410.333C344.432 411.864 343.336 412.977 342.104 413.671C340.873 414.366 339.342 414.713 337.511 414.713C334.497 414.713 331.955 413.498 329.888 411.067C327.836 408.621 326.81 405.488 326.81 401.668C326.81 397.264 327.82 393.8 329.84 391.274C331.876 388.749 334.591 387.486 337.985 387.486C339.547 387.486 340.936 387.833 342.152 388.528C343.367 389.206 344.354 390.154 345.111 391.369V379.057H351.954ZM333.771 401.171C333.771 403.554 334.244 405.456 335.191 406.876C336.122 408.313 337.543 409.031 339.453 409.031C341.363 409.031 342.815 408.321 343.809 406.9C344.803 405.48 345.301 403.641 345.301 401.384C345.301 398.227 344.504 395.97 342.909 394.612C341.931 393.792 340.794 393.381 339.5 393.381C337.527 393.381 336.075 394.131 335.144 395.631C334.228 397.114 333.771 398.961 333.771 401.171ZM380.199 406.332C380.025 407.863 379.228 409.418 377.807 410.996C375.598 413.506 372.504 414.761 368.527 414.761C365.244 414.761 362.347 413.703 359.838 411.588C357.328 409.473 356.073 406.032 356.073 401.265C356.073 396.799 357.202 393.373 359.459 390.99C361.732 388.607 364.675 387.415 368.29 387.415C370.436 387.415 372.37 387.817 374.09 388.622C375.811 389.427 377.231 390.698 378.352 392.434C379.362 393.965 380.017 395.741 380.317 397.761C380.491 398.945 380.562 400.65 380.53 402.875H362.868C362.963 405.464 363.776 407.279 365.307 408.321C366.238 408.968 367.359 409.291 368.669 409.291C370.058 409.291 371.186 408.897 372.054 408.108C372.528 407.681 372.946 407.09 373.309 406.332H380.199ZM373.522 398.424C373.412 396.641 372.867 395.291 371.889 394.376C370.926 393.444 369.726 392.979 368.29 392.979C366.727 392.979 365.512 393.468 364.644 394.447C363.791 395.425 363.255 396.751 363.034 398.424H373.522Z" fill="#C2C2C2"/>
</svg>
