<?xml version="1.0" encoding="UTF-8" standalone="no"?>
<svg
   xmlns:dc="http://purl.org/dc/elements/1.1/"
   xmlns:cc="http://creativecommons.org/ns#"
   xmlns:rdf="http://www.w3.org/1999/02/22-rdf-syntax-ns#"
   xmlns:svg="http://www.w3.org/2000/svg"
   xmlns="http://www.w3.org/2000/svg"
   xmlns:sodipodi="http://sodipodi.sourceforge.net/DTD/sodipodi-0.dtd"
   xmlns:inkscape="http://www.inkscape.org/namespaces/inkscape"
   version="1.1"
   id="svg2"
   xml:space="preserve"
   width="666.66669"
   height="666.66669"
   viewBox="0 0 666.66669 666.66669"
   sodipodi:docname="restaurant-qr-code-frame-9.eps"><metadata
     id="metadata8"><rdf:RDF><cc:Work
         rdf:about=""><dc:format>image/svg+xml</dc:format><dc:type
           rdf:resource="http://purl.org/dc/dcmitype/StillImage" /></cc:Work></rdf:RDF></metadata><defs
     id="defs6" /><sodipodi:namedview
     pagecolor="#ffffff"
     bordercolor="#666666"
     borderopacity="1"
     objecttolerance="10"
     gridtolerance="10"
     guidetolerance="10"
     inkscape:pageopacity="0"
     inkscape:pageshadow="2"
     inkscape:window-width="640"
     inkscape:window-height="480"
     id="namedview4" /><g
     id="g10"
     inkscape:groupmode="layer"
     inkscape:label="ink_ext_XXXXXX"
     transform="matrix(1.3333333,0,0,-1.3333333,0,666.66667)"><g
       id="g12"
       transform="scale(0.1)"><path
         d="M 5000,774.711 H 0 V 3645.91 H 5000 V 774.711"
         style="fill:#2a2a2b;fill-opacity:1;fill-rule:nonzero;stroke:none"
         id="path14" /><path
         d="M 2681.75,1090 H 1010.08 c -110.564,0 -200.193,89.63 -200.193,200.19 v 1671.68 c 0,110.55 89.629,200.18 200.193,200.18 h 1671.67 c 110.56,0 200.19,-89.63 200.19,-200.18 V 1290.19 c 0,-110.56 -89.63,-200.19 -200.19,-200.19"
         style="fill:#ffffff;fill-opacity:1;fill-rule:nonzero;stroke:none"
         id="path16" /><path
         d="m 288.883,2875.79 22.316,26.54 c 20.219,-17.49 40.426,-27.45 66.672,-27.45 22.926,0 37.406,10.57 37.406,27.16 0,15.08 -8.445,23.22 -47.664,32.58 -44.945,10.56 -70.289,23.83 -70.289,63.35 0,36.2 30.172,61.24 72.102,61.24 30.769,0 55.203,-9.36 76.625,-26.55 l -19.914,-28.06 c -19.004,14.18 -38.008,21.73 -57.313,21.73 -21.722,0 -34.39,-11.16 -34.39,-25.65 0,-16.29 9.652,-23.53 50.074,-33.18 44.648,-10.86 67.875,-26.85 67.875,-62.45 0,-39.51 -31.07,-63.05 -75.414,-63.05 -32.281,0 -62.75,11.16 -88.086,33.79"
         style="fill:#ffffff;fill-opacity:1;fill-rule:nonzero;stroke:none"
         id="path18" /><path
         d="m 278.926,2648.94 c 0,60.02 44.945,109.19 108.902,109.19 38.914,0 62.445,-13.57 82.656,-32.88 l -23.836,-27.45 c -16.886,15.7 -34.988,26.25 -59.125,26.25 -40.418,0 -69.679,-33.18 -69.679,-75.11 0,-41.33 29.261,-75.12 69.679,-75.12 25.95,0 42.54,10.55 60.637,27.45 l 23.832,-24.13 c -22.019,-22.93 -46.152,-37.4 -85.676,-37.4 -61.535,0 -107.39,47.96 -107.39,109.2"
         style="fill:#ffffff;fill-opacity:1;fill-rule:nonzero;stroke:none"
         id="path20" /><path
         d="m 408.344,2325.55 -36.504,84.46 -36.199,-84.46 z m -53.094,128.81 h 34.391 l 92.914,-212.68 h -39.219 l -21.418,50.99 h -99.852 l -21.718,-50.99 h -38.012 l 92.914,212.68"
         style="fill:#ffffff;fill-opacity:1;fill-rule:nonzero;stroke:none"
         id="path22" /><path
         d="m 280.434,2151.18 h 34.39 l 113.125,-146 v 146 h 36.504 v -211.17 h -31.074 l -116.441,150.23 v -150.23 h -36.504 v 211.17"
         style="fill:#ffffff;fill-opacity:1;fill-rule:nonzero;stroke:none"
         id="path24" /><path
         d="m 268.668,1720.22 h 39.52 l 64.253,-99.84 64.254,99.84 h 39.52 v -211.16 h -37.106 v 151.44 l -66.668,-99.55 h -1.207 l -66.062,98.94 v -150.83 h -36.504 v 211.16"
         style="fill:#ffffff;fill-opacity:1;fill-rule:nonzero;stroke:none"
         id="path26" /><path
         d="m 298.535,1418.55 h 156.567 v -33.18 H 335.641 v -54.9 h 105.886 v -33.18 H 335.641 v -56.71 h 120.968 v -33.19 H 298.535 v 211.16"
         style="fill:#ffffff;fill-opacity:1;fill-rule:nonzero;stroke:none"
         id="path28" /><path
         d="m 3963.54,1990.38 c 0,83.23 0.15,142.15 -0.07,201.06 -0.09,24.95 -12.45,38.38 -36.9,34.59 -22.79,-3.54 -46.29,-9.75 -66.61,-20.3 -33.95,-17.62 -55.91,-48.48 -73.62,-81.74 -32.78,-61.51 -49.12,-128.02 -57.9,-196.67 -5.76,-45.05 -6.17,-46.37 35.48,-64.91 19.52,-8.69 21.79,-19.92 19.63,-38.85 -8.09,-70.79 -14.5,-141.78 -21.43,-212.71 -2.61,-26.74 6.88,-48.88 22.74,-70.46 28.63,-38.95 150.28,-38.77 179.75,0.92 20.28,27.32 24.06,55.93 20.48,87.68 -14.43,128.17 -28.37,256.36 -21.55,361.39 z m -506.36,118.18 c 0,28.96 0.2,56.18 -0.06,83.38 -0.21,21.73 -12.02,35.09 -30.09,34.85 -18.01,-0.24 -28.99,-13.52 -29.41,-35.56 -2.2,-116.01 -2.2,-116.02 49.41,-219.23 1.93,-3.88 4.58,-7.54 5.76,-11.62 1.69,-5.78 3.49,-11.92 3.21,-17.82 -1.01,-20.42 -2.96,-40.8 -4.44,-61.2 -6.62,-91.52 -13.85,-182.99 -19.57,-274.56 -3.24,-51.93 36.63,-93.38 88.59,-94.62 16.11,-0.38 32.24,-0.26 48.37,-0.07 56.98,0.65 96.25,43.62 92.05,100.45 -6.95,93.97 -12.42,188.08 -21.37,281.87 -3.85,40.42 0.53,76.75 22.71,111.22 10.67,16.58 18.29,35.14 26.79,53.05 2.87,6.04 5.87,12.78 5.96,19.25 0.56,39.68 0.74,79.38 0.11,119.06 -0.28,17.75 -13.15,29.7 -29.37,29.78 -17.57,0.09 -29.55,-12.78 -29.82,-33.2 -0.37,-28.26 -0.09,-56.53 -0.09,-84.29 -21.42,0 -40.24,0 -59.59,0 0,27.54 0.09,53.56 -0.02,79.6 -0.11,23.83 -10.55,37.36 -28.95,37.89 -19.1,0.55 -30.48,-13.5 -30.57,-38.1 -0.11,-26.46 -0.03,-52.92 -0.03,-80.13 -20.43,0 -38.79,0 -59.58,0 z m -96.46,564.52 c 207.71,0 414.83,0 622.74,0 -4.36,-14.67 -10.02,-28.84 -12.68,-43.55 -9.7,-53.68 13.87,-105.9 59.49,-134.26 44.8,-27.86 102.07,-26.8 145.32,5.13 44.88,33.14 88.39,68.16 132.53,102.34 3.35,2.6 6.85,5.01 13.83,10.09 -3.82,-14.2 -6.39,-24.59 -9.43,-34.84 -34.08,-115.21 -68.6,-230.28 -101.98,-345.7 -5.43,-18.76 -8.3,-38.95 -8.34,-58.49 -0.54,-261.82 -0.36,-523.63 -0.36,-785.45 0,-7.41 0,-14.83 0,-23.73 -327.23,0 -653.78,0 -982.93,0 0,6.05 0,12.61 0,19.15 0,262.43 -0.13,524.86 0.3,787.29 0.02,15.84 2.61,32.2 7.05,47.43 42.48,145.66 85.6,291.13 128.57,436.65 1.75,5.9 3.83,11.69 5.89,17.94"
         style="fill:#ffffff;fill-opacity:1;fill-rule:nonzero;stroke:none"
         id="path30" /><path
         d="m 4647.17,2852.43 c -22.67,0 -44.31,0.24 -65.94,-0.06 -31.35,-0.43 -49.69,-17.93 -51.77,-48.85 -4.05,-60.19 -45.76,-103.29 -105.41,-98.94 -59.84,4.37 -107.46,-12.12 -151.36,-52.71 -38.57,-35.67 -82.5,-65.56 -124.31,-97.68 -35.52,-27.29 -76.61,-24.7 -103.22,5.96 -26.16,30.1 -23,70.21 8.35,101.65 64.84,65.02 129.81,129.92 194.79,194.8 10.34,10.33 16.89,21.66 10.64,36.58 -6.12,14.62 -18.04,19.48 -33.03,18.85 -4.34,-0.18 -8.69,-0.02 -13.03,-0.02 -134.02,0 -268.05,0 -402.07,0 -6.81,0 -13.62,0 -24.53,0 6.56,4.54 9.92,7.35 13.69,9.41 57.62,31.54 114.86,63.81 173.22,93.93 16.52,8.53 36.3,15.01 54.62,15.11 203.51,1.05 407.03,0.67 610.55,0.65 2.46,0 4.91,-0.3 8.81,-0.55 0,-58.63 0,-117.14 0,-178.13"
         style="fill:#ffffff;fill-opacity:1;fill-rule:nonzero;stroke:none"
         id="path32" /><path
         d="m 4382.74,2590.12 c 22.76,-77.12 45.53,-154.25 68.29,-231.38 3.68,-12.47 6.61,-25.22 11.15,-37.38 31.92,-85.45 39.79,-173.51 38.47,-264.52 -3.02,-208.44 -0.96,-416.95 -0.96,-625.42 0,-6.82 0,-13.63 0,-25.66 -12.06,11.93 -21.42,20.94 -30.52,30.22 -19.53,19.87 -46.23,36.81 -56.26,60.72 -9.77,23.26 -2.54,53.71 -2.55,81 -0.04,181.79 -0.02,363.6 -0.04,545.4 0,6.2 0.62,12.56 -0.55,18.56 -3.13,15.99 -13.17,25.58 -29.65,25.31 -16.43,-0.25 -26.25,-10.02 -28.93,-26.12 -1.01,-6.05 -0.41,-12.38 -0.41,-18.58 -0.02,-203.52 -0.11,-407.04 0.22,-610.55 0.02,-12.07 -3.21,-20.73 -11.97,-29.23 -24.92,-24.17 -48.88,-49.32 -75.79,-76.7 -0.87,8.05 -1.77,12.52 -1.77,16.99 -0.07,251.92 -0.1,503.83 0.1,755.75 0.01,9.79 1.09,19.97 3.84,29.33 36.61,124.81 73.61,249.49 110.54,374.21 0.82,2.77 1.94,5.47 2.91,8.19 1.3,-0.05 2.59,-0.09 3.88,-0.14"
         style="fill:#ffffff;fill-opacity:1;fill-rule:nonzero;stroke:none"
         id="path34" /><path
         d="m 4158.23,2851.36 c -38.77,-38.83 -74.91,-75.41 -111.68,-111.35 -4.18,-4.09 -11.87,-6.44 -17.94,-6.45 -237.48,-0.32 -474.95,-0.18 -712.42,-0.46 -13.91,-0.02 -22.25,6.36 -27.77,17.69 -13.62,27.95 -13.64,56.16 -0.03,84.12 5.51,11.33 13.82,17.74 27.74,17.73 277.16,-0.28 554.31,-0.21 831.47,-0.25 2.32,0 4.64,-0.44 10.63,-1.03"
         style="fill:#ffffff;fill-opacity:1;fill-rule:nonzero;stroke:none"
         id="path36" /><path
         d="m 4886.12,3089.37 c 0,-108.92 0,-216.59 0,-325.27 -58.83,0 -116.88,0 -176.43,0 0,107.7 0,215.8 0,325.27 57.9,0 116.38,0 176.43,0"
         style="fill:#ffffff;fill-opacity:1;fill-rule:nonzero;stroke:none"
         id="path38" /><path
         d="m 4309.79,1364.62 c 23.59,23.26 47.6,46.92 70,69.01 21.89,-21.96 46.12,-46.27 68.79,-69.01 -43.59,0 -91.82,0 -138.79,0"
         style="fill:#ffffff;fill-opacity:1;fill-rule:nonzero;stroke:none"
         id="path40" /><path
         d="m 3616.85,2047.19 c -47.67,0 -92.92,0 -140.61,0 9.1,-18.23 16.73,-35.04 25.94,-50.94 2.33,-4.02 9.59,-7.05 14.72,-7.27 19.79,-0.83 39.66,-0.83 59.45,0.01 5.11,0.22 12.32,3.33 14.65,7.38 9.19,15.9 16.81,32.68 25.85,50.82 z m -102.2,-119.07 c -2.22,-32.05 -4.31,-63.45 -6.6,-94.85 -5.47,-74.84 -11.16,-149.67 -16.45,-224.51 -1.72,-24.24 10.47,-36.68 35.29,-37.07 12.41,-0.21 24.82,-0.14 37.23,-0.02 27.97,0.24 39.21,12.77 37.17,40.62 -4.84,66.19 -9.43,132.39 -14.23,198.57 -2.82,38.82 -5.84,77.64 -8.84,117.26 -21.55,0 -41.7,0 -63.57,0 z m -57.47,180.44 c 20.79,0 39.15,0 59.58,0 0,27.21 -0.08,53.67 0.03,80.13 0.09,24.6 11.47,38.65 30.57,38.1 18.4,-0.53 28.84,-14.06 28.95,-37.89 0.11,-26.04 0.02,-52.06 0.02,-79.6 19.35,0 38.17,0 59.59,0 0,27.76 -0.28,56.03 0.09,84.29 0.27,20.42 12.25,33.29 29.82,33.2 16.22,-0.08 29.09,-12.03 29.37,-29.78 0.63,-39.68 0.45,-79.38 -0.11,-119.06 -0.09,-6.47 -3.09,-13.21 -5.96,-19.25 -8.5,-17.91 -16.12,-36.47 -26.79,-53.05 -22.18,-34.47 -26.56,-70.8 -22.71,-111.22 8.95,-93.79 14.42,-187.9 21.37,-281.87 4.2,-56.83 -35.07,-99.8 -92.05,-100.45 -16.13,-0.19 -32.26,-0.31 -48.37,0.07 -51.96,1.24 -91.83,42.69 -88.59,94.62 5.72,91.57 12.95,183.04 19.57,274.56 1.48,20.4 3.43,40.78 4.44,61.2 0.28,5.9 -1.52,12.04 -3.21,17.82 -1.18,4.08 -3.83,7.74 -5.76,11.62 -51.61,103.21 -51.61,103.22 -49.41,219.23 0.42,22.04 11.4,35.32 29.41,35.56 18.07,0.24 29.88,-13.12 30.09,-34.85 0.26,-27.2 0.06,-54.42 0.06,-83.38"
         style="fill:#2a2a2b;fill-opacity:1;fill-rule:nonzero;stroke:none"
         id="path42" /><path
         d="m 3841.42,1809.3 c -6.69,-68.13 -13.63,-134.5 -19.54,-200.96 -2.23,-25.04 9.43,-36.29 34.86,-36.66 11.76,-0.18 23.52,-0.19 35.27,0 25.24,0.41 36.32,11.71 34.5,37.04 -2.21,30.84 -5.48,61.61 -8.59,92.37 -3.63,36.04 -7.58,72.04 -11.42,108.21 -22.33,0 -42.6,0 -65.08,0 z m 61.66,351.78 c -30.2,-12.29 -47.65,-35.12 -61.85,-60.5 -29.78,-53.19 -43.01,-111.64 -52.71,-171.16 -1.76,-10.72 2.75,-15.12 11.67,-19.55 18.86,-9.35 41.57,-14.76 45.64,-39.25 20.11,0 38.46,0 57.25,0 0,96.79 0,192.47 0,290.46 z m 60.46,-170.7 c -6.82,-105.03 7.12,-233.22 21.55,-361.39 3.58,-31.75 -0.2,-60.36 -20.48,-87.68 -29.47,-39.69 -151.12,-39.87 -179.75,-0.92 -15.86,21.58 -25.35,43.72 -22.74,70.46 6.93,70.93 13.34,141.92 21.43,212.71 2.16,18.93 -0.11,30.16 -19.63,38.85 -41.65,18.54 -41.24,19.86 -35.48,64.91 8.78,68.65 25.12,135.16 57.9,196.67 17.71,33.26 39.67,64.12 73.62,81.74 20.32,10.55 43.82,16.76 66.61,20.3 24.45,3.79 36.81,-9.64 36.9,-34.59 0.22,-58.91 0.07,-117.83 0.07,-201.06"
         style="fill:#2a2a2b;fill-opacity:1;fill-rule:nonzero;stroke:none"
         id="path44" /><path
         d="m 3514.65,1928.12 c 21.87,0 42.02,0 63.57,0 3,-39.62 6.02,-78.44 8.84,-117.26 4.8,-66.18 9.39,-132.38 14.23,-198.57 2.04,-27.85 -9.2,-40.38 -37.17,-40.62 -12.41,-0.12 -24.82,-0.19 -37.23,0.02 -24.82,0.39 -37.01,12.83 -35.29,37.07 5.29,74.84 10.98,149.67 16.45,224.51 2.29,31.4 4.38,62.8 6.6,94.85"
         style="fill:#ffffff;fill-opacity:1;fill-rule:nonzero;stroke:none"
         id="path46" /><path
         d="m 3616.85,2047.19 c -9.04,-18.14 -16.66,-34.92 -25.85,-50.82 -2.33,-4.05 -9.54,-7.16 -14.65,-7.38 -19.79,-0.84 -39.66,-0.84 -59.45,-0.01 -5.13,0.22 -12.39,3.25 -14.72,7.27 -9.21,15.9 -16.84,32.71 -25.94,50.94 47.69,0 92.94,0 140.61,0"
         style="fill:#ffffff;fill-opacity:1;fill-rule:nonzero;stroke:none"
         id="path48" /><path
         d="m 3903.08,2161.08 c 0,-97.99 0,-193.67 0,-290.46 -18.79,0 -37.14,0 -57.25,0 -4.07,24.49 -26.78,29.9 -45.64,39.25 -8.92,4.43 -13.43,8.83 -11.67,19.55 9.7,59.52 22.93,117.97 52.71,171.16 14.2,25.38 31.65,48.21 61.85,60.5"
         style="fill:#ffffff;fill-opacity:1;fill-rule:nonzero;stroke:none"
         id="path50" /><path
         d="m 3841.42,1809.3 c 22.48,0 42.75,0 65.08,0 3.84,-36.17 7.79,-72.17 11.42,-108.21 3.11,-30.76 6.38,-61.53 8.59,-92.37 1.82,-25.33 -9.26,-36.63 -34.5,-37.04 -11.75,-0.19 -23.51,-0.18 -35.27,0 -25.43,0.37 -37.09,11.62 -34.86,36.66 5.91,66.46 12.85,132.83 19.54,200.96"
         style="fill:#ffffff;fill-opacity:1;fill-rule:nonzero;stroke:none"
         id="path52" /><path
         d="M 2753.37,1218.56 H 938.457 V 3033.49 H 2753.37 V 1218.56"
         style="fill:#ffffff;fill-opacity:1;fill-rule:nonzero;stroke:none"
         id="path54" /><path
         d="M 2618.46,1355.9 H 1073.37 V 2900.99 H 2618.46 V 1355.9"
         style="fill:#ffffff;fill-opacity:1;fill-rule:nonzero;stroke:none"
         id="path56" /><path
         d="m 2584.33,2530.77 h 68.26 v 404.35 h -404.34 v -68.26 h 336.08 v -336.09"
         style="fill:#a6a7a7;fill-opacity:1;fill-rule:nonzero;stroke:none"
         id="path58" /><path
         d="m 1107.5,2530.77 v 336.09 h 336.08 v 68.26 h -404.34 v -404.35 h 68.26"
         style="fill:#a6a7a7;fill-opacity:1;fill-rule:nonzero;stroke:none"
         id="path60" /><path
         d="m 1107.5,1726.1 h -68.26 v -404.33 h 404.34 v 68.26 H 1107.5 v 336.07"
         style="fill:#a6a7a7;fill-opacity:1;fill-rule:nonzero;stroke:none"
         id="path62" /><path
         d="m 2584.33,1726.1 v -336.07 h -336.08 v -68.26 h 404.34 v 404.33 h -68.26"
         style="fill:#a6a7a7;fill-opacity:1;fill-rule:nonzero;stroke:none"
         id="path64" /><path
         d="m 1346.91,2278.7 -50.23,110.56 -50.5,-110.56 z m -56.78,126.11 h 13.65 l 88.99,-192.45 h -15.56 l -24.29,53.51 h -112.75 l -24.29,-53.51 h -14.74 l 88.99,192.45"
         style="fill:#a6a7a7;fill-opacity:1;fill-rule:nonzero;stroke:none"
         id="path66" /><path
         d="m 1540.22,2282.25 c 0,35.76 -27.84,59.78 -56.78,59.78 -30.3,0 -54.6,-22.11 -54.6,-60.06 0,-36.58 25.39,-60.06 54.6,-60.06 28.94,0 56.78,24.3 56.78,60.34 z m -125.84,-0.28 c 0,45.32 34.12,72.89 67.7,72.89 27.84,0 45.85,-15.84 57.32,-33.31 v 90.09 h 13.38 v -199.28 h -13.38 v 31.13 c -12.01,-18.29 -29.75,-34.4 -57.32,-34.4 -33.58,0 -67.7,27.02 -67.7,72.88"
         style="fill:#a6a7a7;fill-opacity:1;fill-rule:nonzero;stroke:none"
         id="path68" /><path
         d="m 1720.42,2282.25 c 0,35.76 -27.84,59.78 -56.77,59.78 -30.31,0 -54.6,-22.11 -54.6,-60.06 0,-36.58 25.39,-60.06 54.6,-60.06 28.93,0 56.77,24.3 56.77,60.34 z m -125.84,-0.28 c 0,45.32 34.13,72.89 67.7,72.89 27.85,0 45.86,-15.84 57.32,-33.31 v 90.09 h 13.38 v -199.28 h -13.38 v 31.13 c -12,-18.29 -29.75,-34.4 -57.32,-34.4 -33.57,0 -67.7,27.02 -67.7,72.88"
         style="fill:#a6a7a7;fill-opacity:1;fill-rule:nonzero;stroke:none"
         id="path70" /><path
         d="m 1855.06,2173.88 4.64,11.74 c 7.37,-3.56 13.38,-5.2 23.75,-5.2 14.47,0 24.02,8.47 34.39,32.76 l -66.88,138.4 h 15.56 l 57.87,-124.48 50.23,124.48 h 14.75 l -60.33,-144.13 c -12.29,-29.21 -26.48,-39.58 -46.41,-39.58 -10.65,0 -18.29,1.91 -27.57,6.01"
         style="fill:#a6a7a7;fill-opacity:1;fill-rule:nonzero;stroke:none"
         id="path72" /><path
         d="m 2137.08,2281.97 c 0,33.58 -25.93,60.33 -57.32,60.33 -31.4,0 -56.78,-27.03 -56.78,-60.33 0,-33.57 25.11,-60.33 57.32,-60.33 30.85,0 56.78,27.03 56.78,60.33 z m -128.57,0 c 0,39.04 30.3,72.89 71.79,72.89 41.22,0 71.25,-33.31 71.25,-72.89 0,-39.03 -30.3,-72.88 -71.79,-72.88 -41.22,0 -71.25,33.3 -71.25,72.88"
         style="fill:#a6a7a7;fill-opacity:1;fill-rule:nonzero;stroke:none"
         id="path74" /><path
         d="m 2190.08,2266.42 v 85.16 h 13.38 v -82.71 c 0,-28.66 16.1,-47.5 44.22,-47.5 27.3,0 48.32,20.75 48.32,49.68 v 80.53 h 13.37 V 2212.36 H 2296 v 25.94 c -9.29,-16.39 -24.85,-29.21 -50.23,-29.21 -35.22,0 -55.69,24.02 -55.69,57.33"
         style="fill:#a6a7a7;fill-opacity:1;fill-rule:nonzero;stroke:none"
         id="path76" /><path
         d="m 2360.18,2351.58 h 13.38 V 2312 c 10.92,24.85 34.12,42.86 61.69,41.77 v -14.75 h -1.36 c -32.22,0 -60.33,-24.29 -60.33,-69.61 v -57.05 h -13.38 v 139.22"
         style="fill:#a6a7a7;fill-opacity:1;fill-rule:nonzero;stroke:none"
         id="path78" /><path
         d="m 1342.27,1925.39 -31.12,26.48 26.76,30.02 31.39,-28.38 c 3.55,7.92 5.18,16.65 5.18,26.75 0,32.76 -24.02,60.05 -57.87,60.05 -33.85,0 -57.32,-26.75 -57.32,-60.05 0,-32.76 24.02,-60.05 57.87,-60.05 9.28,0 17.74,1.91 25.11,5.18 z m 31.12,-27.57 c -16.1,-10.37 -35.48,-16.37 -56.78,-16.37 -58.96,0 -101.27,43.94 -101.27,98.81 0,54.32 42.85,98.82 101.82,98.82 58.96,0 101.27,-43.95 101.27,-98.82 0,-19.93 -6,-39.04 -16.92,-54.87 l 19.65,-16.65 -26.75,-29.76 -21.02,18.84"
         style="fill:#a6a7a7;fill-opacity:1;fill-rule:nonzero;stroke:none"
         id="path80" /><path
         d="m 1540.5,1982.99 c 20.48,0 32.21,10.92 32.21,27.57 0,18.01 -12.55,27.3 -33.03,27.3 h -41.76 v -54.87 z m -84.62,92.81 h 87.35 c 24.3,0 43.13,-6.83 55.69,-19.37 10.65,-10.66 16.38,-25.67 16.38,-44.23 0,-30.85 -16.65,-50.23 -40.95,-59.24 l 46.68,-68.24 h -49.14 l -41.48,61.15 h -32.49 v -61.15 h -42.04 v 191.08"
         style="fill:#a6a7a7;fill-opacity:1;fill-rule:nonzero;stroke:none"
         id="path82" /><path
         d="m 1726.73,1980.26 c 0,54.32 40.95,98.82 99.64,98.82 36.03,0 56.23,-13.65 73.98,-31.12 l -25.12,-28.94 c -14.74,13.38 -27.3,21.29 -49.13,21.29 -32.21,0 -55.42,-26.75 -55.42,-60.05 0,-32.76 22.66,-60.05 55.42,-60.05 21.83,0 35.21,8.73 50.23,22.38 l 26.75,-28.66 c -19.66,-21.02 -41.49,-32.48 -78.35,-32.48 -56.23,0 -98,43.39 -98,98.81"
         style="fill:#a6a7a7;fill-opacity:1;fill-rule:nonzero;stroke:none"
         id="path84" /><path
         d="m 2039.89,1957.6 c 0,21.57 -15.56,40.41 -38.49,40.41 -23.75,0 -37.95,-18.29 -37.95,-40.41 0,-21.56 15.56,-40.4 38.49,-40.4 23.75,0 37.95,18.29 37.95,40.4 z m -117.39,0 c 0,42.04 33.85,76.16 79.44,76.16 45.32,0 78.89,-33.57 78.89,-76.16 0,-42.03 -33.85,-76.15 -79.43,-76.15 -45.32,0 -78.9,33.57 -78.9,76.15"
         style="fill:#a6a7a7;fill-opacity:1;fill-rule:nonzero;stroke:none"
         id="path86" /><path
         d="m 2217.08,1958.14 c 0,24.3 -16.1,40.4 -35.48,40.4 -19.38,0 -35.76,-15.83 -35.76,-40.94 0,-24.29 16.38,-40.4 35.76,-40.4 19.38,0 35.48,16.11 35.48,40.94 z m -112.73,0 c 0,48.87 31.93,75.62 66.6,75.62 22.11,0 35.76,-10.1 45.59,-21.84 v 72.07 h 41.49 v -199.27 h -41.49 v 21.01 c -10.1,-13.64 -24.02,-23.75 -45.59,-23.75 -34.12,0 -66.6,26.76 -66.6,76.16"
         style="fill:#a6a7a7;fill-opacity:1;fill-rule:nonzero;stroke:none"
         id="path88" /><path
         d="m 2391.28,1969.34 c -2.46,18.56 -13.37,31.12 -30.85,31.12 -17.19,0 -28.38,-12.29 -31.66,-31.12 z M 2288.1,1957.6 c 0,41.77 29.75,76.16 72.33,76.16 48.87,0 71.25,-37.94 71.25,-79.43 0,-3.28 -0.27,-7.1 -0.54,-10.92 h -101.82 c 4.09,-18.84 17.19,-28.66 35.76,-28.66 13.92,0 24.02,4.36 35.48,15.01 l 23.75,-21.02 c -13.65,-16.92 -33.3,-27.29 -59.78,-27.29 -43.95,0 -76.43,30.84 -76.43,76.15"
         style="fill:#a6a7a7;fill-opacity:1;fill-rule:nonzero;stroke:none"
         id="path90" /></g></g></svg>
