<svg width="550" height="1000" viewBox="0 0 550 1000" fill="none" xmlns="http://www.w3.org/2000/svg">
<rect x="20" y="333" width="510" height="512" rx="17" fill="#333333"/>
<path fill-rule="evenodd" clip-rule="evenodd" d="M37 155C27.6112 155 20 162.611 20 172V245C20 254.389 27.6112 262 37 262H359.602L359.246 262.355L394.578 297.687C398.874 301.983 405.839 301.983 410.134 297.687L445.466 262.355L445.111 262H513C522.389 262 530 254.389 530 245V172C530 162.611 522.389 155 513 155H37Z" fill="#333333"/>
<path d="M150.1 213.408C150.1 212.283 149.701 211.416 148.904 210.807C148.119 210.197 146.695 209.582 144.633 208.961C142.57 208.34 140.93 207.648 139.711 206.887C137.379 205.422 136.213 203.512 136.213 201.156C136.213 199.094 137.051 197.395 138.727 196.059C140.414 194.723 142.6 194.055 145.283 194.055C147.064 194.055 148.652 194.383 150.047 195.039C151.441 195.695 152.537 196.633 153.334 197.852C154.131 199.059 154.529 200.4 154.529 201.877H150.1C150.1 200.541 149.678 199.498 148.834 198.748C148.002 197.986 146.807 197.605 145.248 197.605C143.795 197.605 142.664 197.916 141.855 198.537C141.059 199.158 140.66 200.025 140.66 201.139C140.66 202.076 141.094 202.861 141.961 203.494C142.828 204.115 144.258 204.725 146.25 205.322C148.242 205.908 149.842 206.582 151.049 207.344C152.256 208.094 153.141 208.961 153.703 209.945C154.266 210.918 154.547 212.061 154.547 213.373C154.547 215.506 153.727 217.205 152.086 218.471C150.457 219.725 148.242 220.352 145.441 220.352C143.59 220.352 141.885 220.012 140.326 219.332C138.779 218.641 137.572 217.691 136.705 216.484C135.85 215.277 135.422 213.871 135.422 212.266H139.869C139.869 213.719 140.35 214.844 141.311 215.641C142.271 216.438 143.648 216.836 145.441 216.836C146.988 216.836 148.148 216.525 148.922 215.904C149.707 215.271 150.1 214.439 150.1 213.408ZM177.979 211.668C177.721 214.398 176.713 216.531 174.955 218.066C173.197 219.59 170.859 220.352 167.941 220.352C165.902 220.352 164.104 219.871 162.545 218.91C160.998 217.938 159.803 216.561 158.959 214.779C158.115 212.998 157.676 210.93 157.641 208.574V206.184C157.641 203.77 158.068 201.643 158.924 199.803C159.779 197.963 161.004 196.545 162.598 195.549C164.203 194.553 166.055 194.055 168.152 194.055C170.977 194.055 173.25 194.822 174.973 196.357C176.695 197.893 177.697 200.061 177.979 202.861H173.549C173.338 201.021 172.799 199.697 171.932 198.889C171.076 198.068 169.816 197.658 168.152 197.658C166.219 197.658 164.73 198.367 163.688 199.785C162.656 201.191 162.129 203.26 162.105 205.99V208.258C162.105 211.023 162.598 213.133 163.582 214.586C164.578 216.039 166.031 216.766 167.941 216.766C169.688 216.766 171 216.373 171.879 215.588C172.758 214.803 173.314 213.496 173.549 211.668H177.979ZM196.295 214.041H186.381L184.307 220H179.684L189.352 194.406H193.342L203.027 220H198.387L196.295 214.041ZM187.629 210.455H195.047L191.338 199.838L187.629 210.455ZM226.248 220H221.801L210.393 201.842V220H205.945V194.406H210.393L221.836 212.635V194.406H226.248V220ZM255.217 209.154H244.916V220H240.469V194.406H256.729V197.992H244.916V205.604H255.217V209.154ZM280.688 207.871C280.688 210.379 280.254 212.582 279.387 214.48C278.52 216.367 277.277 217.82 275.66 218.84C274.055 219.848 272.203 220.352 270.105 220.352C268.031 220.352 266.18 219.848 264.551 218.84C262.934 217.82 261.68 216.373 260.789 214.498C259.91 212.623 259.465 210.461 259.453 208.012V206.57C259.453 204.074 259.893 201.871 260.771 199.961C261.662 198.051 262.91 196.592 264.516 195.584C266.133 194.564 267.984 194.055 270.07 194.055C272.156 194.055 274.002 194.559 275.607 195.566C277.225 196.562 278.473 198.004 279.352 199.891C280.23 201.766 280.676 203.951 280.688 206.447V207.871ZM276.24 206.535C276.24 203.699 275.701 201.525 274.623 200.014C273.557 198.502 272.039 197.746 270.07 197.746C268.148 197.746 266.643 198.502 265.553 200.014C264.475 201.514 263.924 203.641 263.9 206.395V207.871C263.9 210.684 264.445 212.857 265.535 214.393C266.637 215.928 268.16 216.695 270.105 216.695C272.074 216.695 273.586 215.945 274.641 214.445C275.707 212.945 276.24 210.754 276.24 207.871V206.535ZM294.521 210.139H289.564V220H285.117V194.406H294.117C297.07 194.406 299.35 195.068 300.955 196.393C302.561 197.717 303.363 199.633 303.363 202.141C303.363 203.852 302.947 205.287 302.115 206.447C301.295 207.596 300.146 208.48 298.67 209.102L304.418 219.771V220H299.654L294.521 210.139ZM289.564 206.57H294.135C295.635 206.57 296.807 206.195 297.65 205.445C298.494 204.684 298.916 203.646 298.916 202.334C298.916 200.963 298.523 199.902 297.738 199.152C296.965 198.402 295.805 198.016 294.258 197.992H289.564V206.57ZM322.312 194.406L329.695 214.023L337.061 194.406H342.809V220H338.379V211.562L338.818 200.277L331.26 220H328.078L320.537 200.295L320.977 211.562V220H316.547V194.406H322.312ZM363.041 208.574H352.529V216.449H364.816V220H348.082V194.406H364.693V197.992H352.529V205.059H363.041V208.574ZM388.74 220H384.293L372.885 201.842V220H368.438V194.406H372.885L384.328 212.635V194.406H388.74V220ZM412.717 194.406V211.51C412.717 214.229 411.844 216.385 410.098 217.979C408.363 219.561 406.049 220.352 403.154 220.352C400.225 220.352 397.898 219.572 396.176 218.014C394.453 216.443 393.592 214.27 393.592 211.492V194.406H398.021V211.527C398.021 213.238 398.455 214.545 399.322 215.447C400.189 216.35 401.467 216.801 403.154 216.801C406.576 216.801 408.287 214.996 408.287 211.387V194.406H412.717Z" fill="white"/>
<rect x="40" y="354" width="470" height="470" rx="9.36" fill="white"/>
<path d="M383.101 386.898H477.101V480.898" stroke="#C2C2C2" stroke-width="18.72"/>
<path d="M166.9 386.898H72.9004V480.898" stroke="#C2C2C2" stroke-width="18.72"/>
<path d="M383.101 791.1H477.101V697.1" stroke="#C2C2C2" stroke-width="18.72"/>
<path d="M166.9 791.1H72.9004V697.1" stroke="#C2C2C2" stroke-width="18.72"/>
<path d="M163.725 550.25L155.98 527.707L147.748 550.25H163.725ZM152.367 520.135H160.183L178.696 571.16H171.124L165.949 555.877H145.768L140.245 571.16H133.159L152.367 520.135ZM188.109 552.994C188.109 556.977 188.954 560.311 190.645 562.998C192.335 565.684 195.044 567.027 198.772 567.027C201.667 567.027 204.041 565.788 205.893 563.31C207.769 560.809 208.707 557.232 208.707 552.577C208.707 547.877 207.746 544.403 205.824 542.157C203.902 539.888 201.528 538.753 198.703 538.753C195.554 538.753 192.995 539.957 191.027 542.365C189.082 544.774 188.109 548.317 188.109 552.994ZM197.522 533.3C200.37 533.3 202.755 533.902 204.677 535.106C205.789 535.801 207.051 537.016 208.463 538.753V519.962H214.472V571.16H208.845V565.985C207.387 568.277 205.661 569.933 203.67 570.952C201.679 571.971 199.398 572.48 196.827 572.48C192.682 572.48 189.093 570.743 186.06 567.27C183.026 563.773 181.51 559.13 181.51 553.341C181.51 547.923 182.887 543.234 185.643 539.274C188.422 535.291 192.381 533.3 197.522 533.3ZM227.706 552.994C227.706 556.977 228.551 560.311 230.242 562.998C231.932 565.684 234.642 567.027 238.37 567.027C241.264 567.027 243.638 565.788 245.49 563.31C247.366 560.809 248.304 557.232 248.304 552.577C248.304 547.877 247.343 544.403 245.421 542.157C243.499 539.888 241.125 538.753 238.3 538.753C235.151 538.753 232.592 539.957 230.624 542.365C228.679 544.774 227.706 548.317 227.706 552.994ZM237.119 533.3C239.967 533.3 242.353 533.902 244.275 535.106C245.386 535.801 246.648 537.016 248.061 538.753V519.962H254.07V571.16H248.443V565.985C246.984 568.277 245.259 569.933 243.267 570.952C241.276 571.971 238.995 572.48 236.425 572.48C232.28 572.48 228.69 570.743 225.657 567.27C222.623 563.773 221.107 559.13 221.107 553.341C221.107 547.923 222.484 543.234 225.24 539.274C228.019 535.291 231.979 533.3 237.119 533.3ZM306.38 533.96H313.292C312.412 536.345 310.455 541.786 307.422 550.285C305.152 556.676 303.253 561.886 301.725 565.915C298.113 575.409 295.566 581.198 294.084 583.282C292.602 585.367 290.054 586.409 286.442 586.409C285.562 586.409 284.879 586.374 284.393 586.304C283.93 586.235 283.351 586.108 282.656 585.922V580.226C283.744 580.527 284.532 580.712 285.018 580.782C285.504 580.851 285.933 580.886 286.303 580.886C287.461 580.886 288.306 580.689 288.839 580.295C289.394 579.925 289.858 579.462 290.228 578.906C290.344 578.721 290.761 577.771 291.479 576.058C292.196 574.344 292.717 573.071 293.042 572.237L279.287 533.96H286.373L296.341 564.248L306.38 533.96ZM333.472 567.131C337.617 567.131 340.454 565.568 341.982 562.442C343.534 559.293 344.31 555.796 344.31 551.952C344.31 548.479 343.754 545.654 342.642 543.477C340.882 540.05 337.849 538.336 333.542 538.336C329.721 538.336 326.942 539.795 325.206 542.713C323.469 545.63 322.601 549.15 322.601 553.272C322.601 557.232 323.469 560.531 325.206 563.171C326.942 565.811 329.698 567.131 333.472 567.131ZM333.716 532.883C338.509 532.883 342.561 534.481 345.873 537.676C349.184 540.872 350.84 545.572 350.84 551.778C350.84 557.776 349.381 562.731 346.463 566.645C343.545 570.558 339.018 572.515 332.882 572.515C327.764 572.515 323.7 570.79 320.69 567.339C317.68 563.866 316.175 559.212 316.175 553.376C316.175 547.124 317.761 542.145 320.933 538.44C324.106 534.735 328.366 532.883 333.716 532.883ZM364.56 533.96V558.656C364.56 560.555 364.861 562.106 365.463 563.31C366.574 565.533 368.647 566.645 371.68 566.645C376.034 566.645 378.998 564.7 380.572 560.809C381.429 558.725 381.857 555.865 381.857 552.23V533.96H388.11V571.16H382.205L382.274 565.672C381.464 567.085 380.456 568.277 379.252 569.25C376.867 571.195 373.973 572.167 370.569 572.167C365.266 572.167 361.654 570.396 359.732 566.853C358.69 564.954 358.169 562.419 358.169 559.246V533.96H364.56ZM398.078 533.96H404.018V540.385C404.504 539.135 405.697 537.618 407.596 535.835C409.494 534.029 411.683 533.126 414.16 533.126C414.276 533.126 414.473 533.138 414.751 533.161C415.029 533.184 415.503 533.23 416.175 533.3V539.899C415.804 539.83 415.457 539.783 415.133 539.76C414.832 539.737 414.496 539.726 414.126 539.726C410.976 539.726 408.557 540.744 406.866 542.782C405.176 544.797 404.331 547.124 404.331 549.764V571.16H398.078V533.96Z" fill="#C2C2C2"/>
<path d="M164.353 655.827C162.061 656.591 159.317 656.973 156.121 656.973C149.452 656.973 143.941 654.981 139.588 650.999C134.308 646.205 131.668 639.166 131.668 629.88C131.668 620.525 134.378 613.451 139.796 608.657C144.219 604.744 149.719 602.787 156.295 602.787C162.918 602.787 168.475 604.86 172.968 609.005C178.155 613.798 180.748 620.502 180.748 629.116C180.748 633.678 180.192 637.499 179.081 640.578C178.178 643.519 176.846 645.962 175.086 647.907L180.991 653.43L175.399 659.265L169.216 653.43C167.341 654.565 165.72 655.364 164.353 655.827ZM162.061 646.587L156.886 641.655L162.408 635.889L167.584 640.821C168.394 639.154 168.962 637.695 169.286 636.445C169.795 634.569 170.05 632.381 170.05 629.88C170.05 624.137 168.869 619.703 166.507 616.577C164.168 613.428 160.741 611.853 156.226 611.853C151.988 611.853 148.607 613.358 146.083 616.368C143.559 619.379 142.297 623.883 142.297 629.88C142.297 636.896 144.103 641.921 147.716 644.955C150.054 646.923 152.856 647.907 156.121 647.907C157.349 647.907 158.53 647.757 159.664 647.456C160.29 647.294 161.088 647.004 162.061 646.587ZM210.689 635.472H199.644V655.549H189.189V604.35H214.302C217.891 604.42 220.646 604.86 222.568 605.67C224.513 606.481 226.158 607.673 227.501 609.248C228.612 610.545 229.492 611.98 230.14 613.555C230.789 615.13 231.113 616.924 231.113 618.939C231.113 621.37 230.499 623.767 229.272 626.129C228.045 628.468 226.019 630.123 223.194 631.096C225.555 632.045 227.223 633.4 228.195 635.16C229.191 636.896 229.689 639.559 229.689 643.149V646.587C229.689 648.926 229.781 650.512 229.967 651.346C230.245 652.666 230.893 653.638 231.912 654.264V655.549H220.137C219.813 654.414 219.581 653.499 219.442 652.805C219.164 651.369 219.014 649.899 218.991 648.394L218.921 643.635C218.875 640.37 218.273 638.193 217.115 637.105C215.98 636.017 213.838 635.472 210.689 635.472ZM217.184 626.164C219.315 625.191 220.38 623.269 220.38 620.398C220.38 617.295 219.35 615.211 217.289 614.145C216.131 613.543 214.394 613.242 212.079 613.242H199.644V626.997H211.766C214.174 626.997 215.98 626.719 217.184 626.164ZM292.107 631.269H281.964C281.779 629.857 281.304 628.583 280.54 627.449C279.428 625.92 277.703 625.156 275.365 625.156C272.03 625.156 269.749 626.812 268.522 630.123C267.874 631.883 267.549 634.222 267.549 637.14C267.549 639.918 267.874 642.153 268.522 643.843C269.703 646.993 271.926 648.567 275.191 648.567C277.507 648.567 279.151 647.942 280.123 646.692C281.096 645.441 281.686 643.82 281.895 641.829H292.002C291.771 644.839 290.682 647.687 288.737 650.373C285.634 654.704 281.038 656.869 274.948 656.869C268.858 656.869 264.377 655.063 261.506 651.45C258.634 647.838 257.198 643.149 257.198 637.383C257.198 630.876 258.785 625.816 261.957 622.204C265.129 618.591 269.506 616.785 275.087 616.785C279.834 616.785 283.712 617.85 286.723 619.981C289.756 622.111 291.551 625.874 292.107 631.269ZM330.523 622.482C333.718 626.488 335.316 631.223 335.316 636.688C335.316 642.246 333.718 647.004 330.523 650.964C327.327 654.9 322.476 656.869 315.969 656.869C309.462 656.869 304.611 654.9 301.415 650.964C298.22 647.004 296.622 642.246 296.622 636.688C296.622 631.223 298.22 626.488 301.415 622.482C304.611 618.476 309.462 616.473 315.969 616.473C322.476 616.473 327.327 618.476 330.523 622.482ZM315.934 624.844C313.04 624.844 310.805 625.874 309.231 627.935C307.679 629.973 306.903 632.89 306.903 636.688C306.903 640.486 307.679 643.415 309.231 645.476C310.805 647.537 313.04 648.567 315.934 648.567C318.829 648.567 321.052 647.537 322.603 645.476C324.155 643.415 324.93 640.486 324.93 636.688C324.93 632.89 324.155 629.973 322.603 627.935C321.052 625.874 318.829 624.844 315.934 624.844ZM376.893 604.42V655.549H367.272V650.304C365.859 652.55 364.25 654.183 362.444 655.201C360.637 656.22 358.391 656.73 355.705 656.73C351.282 656.73 347.554 654.947 344.521 651.381C341.51 647.791 340.005 643.195 340.005 637.591C340.005 631.131 341.487 626.048 344.451 622.343C347.438 618.638 351.421 616.785 356.4 616.785C358.692 616.785 360.73 617.295 362.513 618.314C364.296 619.309 365.743 620.699 366.855 622.482V604.42H376.893ZM350.217 636.862C350.217 640.358 350.912 643.149 352.301 645.233C353.667 647.34 355.751 648.394 358.553 648.394C361.355 648.394 363.486 647.352 364.945 645.267C366.403 643.183 367.133 640.486 367.133 637.174C367.133 632.543 365.963 629.232 363.625 627.24C362.189 626.036 360.522 625.434 358.623 625.434C355.728 625.434 353.598 626.534 352.232 628.734C350.889 630.911 350.217 633.62 350.217 636.862ZM418.331 644.434C418.077 646.68 416.907 648.961 414.823 651.276C411.581 654.958 407.043 656.799 401.207 656.799C396.391 656.799 392.142 655.248 388.46 652.145C384.778 649.042 382.937 643.994 382.937 637.001C382.937 630.447 384.593 625.423 387.904 621.926C391.238 618.429 395.557 616.681 400.86 616.681C404.009 616.681 406.846 617.272 409.37 618.453C411.894 619.633 413.978 621.498 415.622 624.045C417.104 626.291 418.065 628.896 418.505 631.86C418.76 633.597 418.864 636.098 418.818 639.363H392.906C393.045 643.16 394.237 645.823 396.483 647.352C397.85 648.301 399.494 648.776 401.416 648.776C403.453 648.776 405.109 648.197 406.383 647.039C407.077 646.414 407.691 645.545 408.224 644.434H418.331ZM408.536 632.833C408.374 630.216 407.575 628.236 406.139 626.893C404.727 625.527 402.967 624.844 400.86 624.844C398.567 624.844 396.784 625.561 395.511 626.997C394.26 628.433 393.473 630.378 393.149 632.833H408.536Z" fill="#C2C2C2"/>
</svg>
