<?xml version="1.0" encoding="UTF-8" standalone="no"?>
<svg
   xmlns:dc="http://purl.org/dc/elements/1.1/"
   xmlns:cc="http://creativecommons.org/ns#"
   xmlns:rdf="http://www.w3.org/1999/02/22-rdf-syntax-ns#"
   xmlns:svg="http://www.w3.org/2000/svg"
   xmlns="http://www.w3.org/2000/svg"
   xmlns:sodipodi="http://sodipodi.sourceforge.net/DTD/sodipodi-0.dtd"
   xmlns:inkscape="http://www.inkscape.org/namespaces/inkscape"
   version="1.1"
   id="svg2"
   xml:space="preserve"
   width="666.66669"
   height="666.66669"
   viewBox="0 0 666.66669 666.66669"
   sodipodi:docname="restaurant-qr-code-frame-10.eps"><metadata
     id="metadata8"><rdf:RDF><cc:Work
         rdf:about=""><dc:format>image/svg+xml</dc:format><dc:type
           rdf:resource="http://purl.org/dc/dcmitype/StillImage" /></cc:Work></rdf:RDF></metadata><defs
     id="defs6" /><sodipodi:namedview
     pagecolor="#ffffff"
     bordercolor="#666666"
     borderopacity="1"
     objecttolerance="10"
     gridtolerance="10"
     guidetolerance="10"
     inkscape:pageopacity="0"
     inkscape:pageshadow="2"
     inkscape:window-width="640"
     inkscape:window-height="480"
     id="namedview4" /><g
     id="g10"
     inkscape:groupmode="layer"
     inkscape:label="ink_ext_XXXXXX"
     transform="matrix(1.3333333,0,0,-1.3333333,0,666.66667)"><g
       id="g12"
       transform="scale(0.1)"><path
         d="M 4186.88,0 H 751.469 v 2190.24 c 0,150.41 121.933,272.35 272.351,272.35 h 2890.72 c 150.41,0 272.34,-121.94 272.34,-272.35 V 0"
         style="fill:#2a2a2b;fill-opacity:1;fill-rule:nonzero;stroke:none"
         id="path14" /><path
         d="m 1971.92,3949.29 -136.39,207.6 h 83.11 v 116.36 c 0.05,6.39 -0.12,11.35 0.12,18.9 l 1.02,18.8 3.2,20.73 c 1.68,6.8 3.37,13.61 5.29,20.34 16.73,53.66 55.84,99.29 105.98,124.25 24.99,12.58 52.64,20.01 80.48,21.74 15.51,0.97 23.69,0.49 34.64,0.6 h 31.27 162.38 43.49 10.88 c 0.85,-0.05 1.92,0.12 2.6,-0.1 v -2.73 -5.43 -21.74 -87 -145.52 -1357 -36.6 h -106.56 v 36.6 1357 104.7 38.12 9.53 2.38 1.19 c -0.3,0.09 -0.76,0.02 -1.14,0.05 h -4.76 -19.06 -87.83 -31.27 c -9.91,-0.04 -22.6,0.16 -27.9,-0.4 -13.76,-0.86 -27.15,-4.47 -39.4,-10.61 -24.58,-12.18 -44.03,-34.85 -52.14,-60.98 l -2.59,-9.93 -1.57,-10.18 -0.46,-9.32 c -0.22,-4.53 -0.06,-11.68 -0.11,-17.39 v -116.36 h 83.11 l -136.39,-207.6"
         style="fill:#2a2a2b;fill-opacity:1;fill-rule:nonzero;stroke:none"
         id="path16" /><path
         d="m 2690.28,4211.45 45.87,54.94 c 31.75,-26.21 65.01,-42.84 105.33,-42.84 31.75,0 50.91,12.59 50.91,34.26 0,19.66 -12.1,29.74 -71.06,44.87 -71.07,18.14 -116.94,37.79 -116.94,108.86 0,64.01 51.41,106.34 123.49,106.34 51.41,0 95.25,-16.13 131.04,-44.85 l -40.33,-58.47 c -31.25,21.67 -61.99,34.78 -91.72,34.78 -29.74,0 -45.37,-13.61 -45.37,-31.75 0,-23.19 15.13,-30.75 76.12,-46.37 71.56,-18.65 111.88,-44.35 111.88,-106.85 0,-70.05 -53.43,-109.37 -129.53,-109.37 -53.42,0 -107.35,18.65 -149.69,56.45"
         style="fill:#2a2a2b;fill-opacity:1;fill-rule:nonzero;stroke:none"
         id="path18" /><path
         d="m 3021.42,4336.45 c 0,100.29 75.59,182.44 183.95,182.44 66.52,0 103.83,-25.2 136.58,-57.45 l -46.36,-53.43 c -27.22,24.7 -50.4,39.31 -90.73,39.31 -59.47,0 -102.3,-49.39 -102.3,-110.87 0,-60.49 41.82,-110.89 102.3,-110.89 40.33,0 65.02,16.13 92.74,41.33 l 49.39,-52.93 c -36.29,-38.79 -76.6,-59.96 -144.65,-59.96 -103.81,0 -180.92,80.13 -180.92,182.45"
         style="fill:#2a2a2b;fill-opacity:1;fill-rule:nonzero;stroke:none"
         id="path20" /><path
         d="m 3611.59,4307.71 -46.87,114.41 -46.87,-114.41 z m -81.65,207.65 h 71.57 l 151.2,-355.32 h -81.15 l -32.25,79.13 h -149.18 l -32.26,-79.13 h -79.13 l 151.2,355.32"
         style="fill:#2a2a2b;fill-opacity:1;fill-rule:nonzero;stroke:none"
         id="path22" /><path
         d="m 3807.14,4512.84 h 71.56 l 165.31,-217.22 v 217.22 h 76.62 v -352.8 h -66.03 l -170.85,224.28 v -224.28 h -76.61 v 352.8"
         style="fill:#2a2a2b;fill-opacity:1;fill-rule:nonzero;stroke:none"
         id="path24" /><path
         d="m 2690.28,3565.82 45.87,54.94 c 31.75,-26.21 65.01,-42.84 105.33,-42.84 31.75,0 50.91,12.6 50.91,34.27 0,19.66 -12.1,29.73 -71.07,44.86 -71.06,18.15 -116.93,37.79 -116.93,108.86 0,64.01 51.41,106.34 123.49,106.34 51.4,0 95.25,-16.13 131.03,-44.85 l -40.32,-58.47 c -31.25,21.68 -61.99,34.78 -91.72,34.78 -29.74,0 -45.37,-13.61 -45.37,-31.76 0,-23.18 15.13,-30.74 76.11,-46.36 71.57,-18.65 111.89,-44.36 111.89,-106.85 0,-70.05 -53.43,-109.37 -129.53,-109.37 -53.42,0 -107.35,18.66 -149.69,56.45"
         style="fill:#2a2a2b;fill-opacity:1;fill-rule:nonzero;stroke:none"
         id="path26" /><path
         d="m 3021.41,3690.82 c 0,100.29 75.6,182.44 183.96,182.44 66.52,0 103.82,-25.19 136.58,-57.46 l -46.36,-53.42 c -27.22,24.69 -50.4,39.32 -90.73,39.32 -59.47,0 -102.31,-49.4 -102.31,-110.88 0,-60.49 41.83,-110.89 102.31,-110.89 40.33,0 65.02,16.12 92.74,41.33 l 49.39,-52.92 c -36.29,-38.81 -76.6,-59.98 -144.65,-59.98 -103.82,0 -180.93,80.14 -180.93,182.46"
         style="fill:#2a2a2b;fill-opacity:1;fill-rule:nonzero;stroke:none"
         id="path28" /><path
         d="m 3611.59,3662.09 -46.87,114.4 -46.87,-114.4 z m -81.65,207.64 h 71.57 l 151.2,-355.32 h -81.15 l -32.25,79.13 h -149.18 l -32.26,-79.13 h -79.13 l 151.2,355.32"
         style="fill:#2a2a2b;fill-opacity:1;fill-rule:nonzero;stroke:none"
         id="path30" /><path
         d="m 3807.13,3867.21 h 71.57 l 165.31,-217.22 v 217.22 h 76.61 v -352.8 h -66.02 l -170.85,224.28 v -224.28 h -76.62 v 352.8"
         style="fill:#2a2a2b;fill-opacity:1;fill-rule:nonzero;stroke:none"
         id="path32" /><path
         d="m 2690.28,2912.2 45.87,54.94 c 31.75,-26.21 65.01,-42.84 105.33,-42.84 31.75,0 50.91,12.59 50.91,34.26 0,19.66 -12.1,29.74 -71.07,44.87 -71.06,18.14 -116.93,37.79 -116.93,108.86 0,64.01 51.41,106.34 123.49,106.34 51.4,0 95.25,-16.13 131.03,-44.85 l -40.32,-58.47 c -31.25,21.67 -61.99,34.78 -91.72,34.78 -29.74,0 -45.37,-13.61 -45.37,-31.75 0,-23.18 15.13,-30.75 76.11,-46.37 71.57,-18.65 111.89,-44.35 111.89,-106.85 0,-70.05 -53.43,-109.37 -129.53,-109.37 -53.42,0 -107.35,18.65 -149.69,56.45"
         style="fill:#2a2a2b;fill-opacity:1;fill-rule:nonzero;stroke:none"
         id="path34" /><path
         d="m 3021.41,3037.2 c 0,100.29 75.6,182.44 183.96,182.44 66.52,0 103.82,-25.2 136.58,-57.45 l -46.36,-53.43 c -27.22,24.7 -50.4,39.32 -90.73,39.32 -59.47,0 -102.31,-49.4 -102.31,-110.88 0,-60.49 41.83,-110.89 102.31,-110.89 40.33,0 65.02,16.13 92.74,41.33 l 49.39,-52.92 c -36.29,-38.8 -76.6,-59.97 -144.65,-59.97 -103.82,0 -180.93,80.13 -180.93,182.45"
         style="fill:#2a2a2b;fill-opacity:1;fill-rule:nonzero;stroke:none"
         id="path36" /><path
         d="m 3611.59,3008.47 -46.87,114.4 -46.87,-114.4 z m -81.65,207.64 h 71.57 l 151.2,-355.32 h -81.15 l -32.25,79.13 h -149.18 l -32.26,-79.13 h -79.13 l 151.2,355.32"
         style="fill:#2a2a2b;fill-opacity:1;fill-rule:nonzero;stroke:none"
         id="path38" /><path
         d="m 3807.13,3213.59 h 71.57 l 165.31,-217.22 v 217.22 h 76.61 v -352.8 h -66.02 l -170.85,224.28 v -224.28 h -76.62 v 352.8"
         style="fill:#2a2a2b;fill-opacity:1;fill-rule:nonzero;stroke:none"
         id="path40" /><path
         d="M 1919.95,2084.79 H 572.809 c -89.098,0 -161.325,72.23 -161.325,161.32 v 1347.14 c 0,89.1 72.227,161.33 161.325,161.33 H 1919.95 c 89.09,0 161.32,-72.23 161.32,-161.33 V 2246.11 c 0,-89.09 -72.23,-161.32 -161.32,-161.32"
         style="fill:#ffffff;fill-opacity:1;fill-rule:nonzero;stroke:none"
         id="path42" /><path
         d="M 1919.95,2084.79 H 572.809 c -89.098,0 -161.325,72.23 -161.325,161.32 v 1347.14 c 0,89.1 72.227,161.33 161.325,161.33 H 1919.95 c 89.09,0 161.32,-72.23 161.32,-161.33 V 2246.11 c 0,-89.09 -72.23,-161.32 -161.32,-161.32 z"
         style="fill:none;stroke:#2a2a2b;stroke-width:70;stroke-linecap:butt;stroke-linejoin:miter;stroke-miterlimit:10;stroke-dasharray:none;stroke-opacity:1"
         id="path44" /><path
         d="M 1945.93,2220.13 H 546.824 V 3619.24 H 1945.93 V 2220.13"
         style="fill:#ffffff;fill-opacity:1;fill-rule:nonzero;stroke:none"
         id="path46" /><path
         d="M 1841.92,2326 H 650.828 V 3517.09 H 1841.92 V 2326"
         style="fill:#ffffff;fill-opacity:1;fill-rule:nonzero;stroke:none"
         id="path48" /><path
         d="m 1815.62,3231.7 h 52.61 v 311.71 h -311.7 v -52.63 h 259.09 V 3231.7"
         style="fill:#a6a7a7;fill-opacity:1;fill-rule:nonzero;stroke:none"
         id="path50" /><path
         d="m 677.141,3231.7 v 259.08 h 259.082 v 52.63 H 624.52 V 3231.7 h 52.621"
         style="fill:#a6a7a7;fill-opacity:1;fill-rule:nonzero;stroke:none"
         id="path52" /><path
         d="M 677.141,2611.39 H 624.52 v -311.7 h 311.703 v 52.61 H 677.141 v 259.09"
         style="fill:#a6a7a7;fill-opacity:1;fill-rule:nonzero;stroke:none"
         id="path54" /><path
         d="M 1815.62,2611.39 V 2352.3 h -259.09 v -52.61 h 311.7 v 311.7 h -52.61"
         style="fill:#a6a7a7;fill-opacity:1;fill-rule:nonzero;stroke:none"
         id="path56" /><path
         d="m 861.684,3037.37 -38.715,85.22 -38.926,-85.22 z m -43.762,97.22 h 10.516 l 68.597,-148.35 h -11.992 l -18.73,41.24 h -86.899 l -18.73,-41.24 H 749.32 l 68.602,148.35"
         style="fill:#a6a7a7;fill-opacity:1;fill-rule:nonzero;stroke:none"
         id="path58" /><path
         d="m 1010.71,3040.11 c 0,27.57 -21.464,46.08 -43.769,46.08 -23.351,0 -42.078,-17.05 -42.078,-46.3 0,-28.19 19.567,-46.29 42.078,-46.29 22.305,0 43.769,18.73 43.769,46.51 z m -96.999,-0.22 c 0,34.93 26.301,56.18 52.184,56.18 21.46,0 35.355,-12.19 44.185,-25.66 v 69.43 h 10.31 v -153.6 h -10.31 v 23.98 c -9.26,-14.09 -22.935,-26.51 -44.185,-26.51 -25.883,0 -52.184,20.84 -52.184,56.18"
         style="fill:#a6a7a7;fill-opacity:1;fill-rule:nonzero;stroke:none"
         id="path60" /><path
         d="m 1149.63,3040.11 c 0,27.57 -21.47,46.08 -43.77,46.08 -23.36,0 -42.08,-17.05 -42.08,-46.3 0,-28.19 19.56,-46.29 42.08,-46.29 22.3,0 43.77,18.73 43.77,46.51 z m -97,-0.22 c 0,34.93 26.3,56.18 52.18,56.18 21.46,0 35.35,-12.19 44.19,-25.66 v 69.43 h 10.31 v -153.6 H 1149 v 23.98 c -9.26,-14.09 -22.94,-26.51 -44.19,-26.51 -25.88,0 -52.18,20.84 -52.18,56.18"
         style="fill:#a6a7a7;fill-opacity:1;fill-rule:nonzero;stroke:none"
         id="path62" /><path
         d="m 1253.42,2956.57 3.58,9.05 c 5.68,-2.74 10.31,-4 18.31,-4 11.15,0 18.51,6.52 26.51,25.25 l -51.55,106.68 h 11.99 l 44.61,-95.94 38.72,95.94 h 11.36 l -46.51,-111.1 c -9.46,-22.51 -20.41,-30.51 -35.76,-30.51 -8.21,0 -14.1,1.48 -21.26,4.63"
         style="fill:#a6a7a7;fill-opacity:1;fill-rule:nonzero;stroke:none"
         id="path64" /><path
         d="m 1470.82,3039.89 c 0,25.89 -19.99,46.51 -44.19,46.51 -24.2,0 -43.77,-20.83 -43.77,-46.51 0,-25.88 19.36,-46.49 44.19,-46.49 23.78,0 43.77,20.83 43.77,46.49 z m -99.11,0 c 0,30.1 23.36,56.18 55.34,56.18 31.77,0 54.92,-25.66 54.92,-56.18 0,-30.09 -23.36,-56.18 -55.34,-56.18 -31.77,0 -54.92,25.67 -54.92,56.18"
         style="fill:#a6a7a7;fill-opacity:1;fill-rule:nonzero;stroke:none"
         id="path66" /><path
         d="m 1511.68,3027.9 v 65.65 h 10.31 v -63.76 c 0,-22.08 12.42,-36.61 34.09,-36.61 21.04,0 37.25,16 37.25,38.3 v 62.07 h 10.31 v -107.31 h -10.31 v 19.99 c -7.16,-12.63 -19.15,-22.52 -38.72,-22.52 -27.14,0 -42.93,18.53 -42.93,44.19"
         style="fill:#a6a7a7;fill-opacity:1;fill-rule:nonzero;stroke:none"
         id="path68" /><path
         d="m 1642.81,3093.55 h 10.31 v -30.5 c 8.42,19.14 26.3,33.02 47.55,32.18 v -11.35 h -1.05 c -24.83,0 -46.5,-18.73 -46.5,-53.67 v -43.97 h -10.31 v 107.31"
         style="fill:#a6a7a7;fill-opacity:1;fill-rule:nonzero;stroke:none"
         id="path70" /><path
         d="m 858.121,2765.01 -23.988,20.42 20.617,23.14 24.199,-21.88 c 2.735,6.1 4,12.83 4,20.61 0,25.26 -18.519,46.3 -44.609,46.3 -26.094,0 -44.192,-20.62 -44.192,-46.3 0,-25.24 18.52,-46.28 44.614,-46.28 7.152,0 13.676,1.47 19.359,3.99 z m 23.984,-21.25 c -12.414,-8 -27.355,-12.63 -43.765,-12.63 -45.449,0 -78.067,33.88 -78.067,76.17 0,41.88 33.04,76.18 78.489,76.18 45.449,0 78.062,-33.88 78.062,-76.18 0,-15.36 -4.629,-30.08 -13.047,-42.29 l 15.153,-12.83 -20.625,-22.93 -16.2,14.51"
         style="fill:#a6a7a7;fill-opacity:1;fill-rule:nonzero;stroke:none"
         id="path72" /><path
         d="m 1010.94,2809.41 c 15.78,0 24.83,8.42 24.83,21.25 0,13.89 -9.68,21.05 -25.46,21.05 h -32.201 v -42.3 z m -65.233,71.55 h 67.333 c 18.73,0 33.25,-5.27 42.93,-14.94 8.2,-8.21 12.62,-19.78 12.62,-34.1 0,-23.77 -12.83,-38.71 -31.56,-45.65 l 35.98,-52.61 h -37.87 l -31.99,47.13 h -25.041 v -47.13 h -32.402 v 147.3"
         style="fill:#a6a7a7;fill-opacity:1;fill-rule:nonzero;stroke:none"
         id="path74" /><path
         d="m 1154.51,2807.3 c 0,41.88 31.56,76.18 76.8,76.18 27.78,0 43.35,-10.52 57.02,-23.99 l -19.36,-22.3 c -11.36,10.31 -21.04,16.41 -37.87,16.41 -24.83,0 -42.72,-20.62 -42.72,-46.3 0,-25.24 17.47,-46.28 42.72,-46.28 16.83,0 27.14,6.73 38.71,17.25 l 20.63,-22.09 c -15.15,-16.21 -31.99,-25.05 -60.39,-25.05 -43.35,0 -75.54,33.46 -75.54,76.17"
         style="fill:#a6a7a7;fill-opacity:1;fill-rule:nonzero;stroke:none"
         id="path76" /><path
         d="m 1395.9,2789.84 c 0,16.62 -11.99,31.15 -29.66,31.15 -18.31,0 -29.25,-14.11 -29.25,-31.15 0,-16.62 11.99,-31.14 29.67,-31.14 18.3,0 29.24,14.1 29.24,31.14 z m -90.48,0 c 0,32.41 26.1,58.71 61.24,58.71 34.93,0 60.81,-25.88 60.81,-58.71 0,-32.4 -26.09,-58.71 -61.23,-58.71 -34.94,0 -60.82,25.89 -60.82,58.71"
         style="fill:#a6a7a7;fill-opacity:1;fill-rule:nonzero;stroke:none"
         id="path78" /><path
         d="m 1532.51,2790.26 c 0,18.73 -12.42,31.15 -27.35,31.15 -14.95,0 -27.57,-12.21 -27.57,-31.57 0,-18.73 12.62,-31.14 27.57,-31.14 14.93,0 27.35,12.41 27.35,31.56 z m -86.9,0 c 0,37.67 24.61,58.29 51.34,58.29 17.04,0 27.56,-7.79 35.14,-16.83 v 55.55 h 31.98 v -153.61 h -31.98 v 16.2 c -7.79,-10.51 -18.52,-18.3 -35.14,-18.3 -26.31,0 -51.34,20.62 -51.34,58.7"
         style="fill:#a6a7a7;fill-opacity:1;fill-rule:nonzero;stroke:none"
         id="path80" /><path
         d="m 1666.8,2798.9 c -1.89,14.3 -10.31,23.98 -23.78,23.98 -13.25,0 -21.88,-9.47 -24.41,-23.98 z m -79.54,-9.06 c 0,32.2 22.94,58.71 55.76,58.71 37.67,0 54.92,-29.24 54.92,-61.24 0,-2.52 -0.21,-5.46 -0.42,-8.4 h -78.49 c 3.16,-14.53 13.26,-22.1 27.57,-22.1 10.73,0 18.52,3.37 27.36,11.57 l 18.3,-16.2 c -10.52,-13.05 -25.67,-21.05 -46.08,-21.05 -33.88,0 -58.92,23.78 -58.92,58.71"
         style="fill:#a6a7a7;fill-opacity:1;fill-rule:nonzero;stroke:none"
         id="path82" /><path
         d="m 1624.56,243.969 c -0.53,49.562 -1.08,99.121 -1.58,148.672 -0.09,9.398 -0.01,18.808 -0.01,30.269 -48.29,0 -94.84,0 -142.96,0 0,84.621 0,167.18 0,251.5 670.53,0 1341.58,0 2013.93,0 0,-82.64 0,-165.238 0,-249.879 -47.15,0 -93.72,0 -144.15,0 0,-61.519 0,-121.031 0,-180.562 -72.05,0 -144.11,0 -216.16,0 0,59.453 0,118.902 0,178.32 -432.47,0 -862.86,0 -1292.91,0 0,-60.398 0,-119.348 0,-178.32 -72.05,0 -144.1,0 -216.16,0"
         style="fill:#ffffff;fill-opacity:1;fill-rule:nonzero;stroke:none"
         id="path84" /><path
         d="m 1787.17,855.922 c 0,0.047 0,0.098 0,0.137 21.07,0 42.2,-1.02 63.2,0.211 49.48,2.89 78.13,46.089 60.84,92.062 -19.58,52.078 -40.04,103.828 -60.62,155.518 -11.13,27.92 -34.58,43.6 -62.84,43.53 -28.38,-0.07 -50.95,-15.8 -62.22,-44.07 -20.1,-50.43 -40.25,-100.83 -59.76,-151.478 -19.4,-50.371 10.18,-94.25 64.3,-95.82 19.02,-0.563 38.06,-0.09 57.1,-0.09 z m -1.53,-143.133 c -70.64,0 -141.34,-1.738 -211.92,0.422 -94.88,2.91 -157.37,104.23 -119.63,191.16 3.77,8.688 8.54,16.981 13.33,25.168 64.43,110.101 128.83,220.231 193.49,330.211 62.74,106.71 191.48,106.44 254.39,-0.56 65.69,-111.73 131.65,-223.31 196.41,-335.581 50.31,-87.23 5,-189.109 -91.93,-208.597 -13.17,-2.653 -27.01,-2.524 -40.55,-2.582 -64.53,-0.239 -129.06,-0.11 -193.59,-0.11 0,0.16 0,0.321 0,0.469"
         style="fill:#ffffff;fill-opacity:1;fill-rule:nonzero;stroke:none"
         id="path86" /><path
         d="m 2665.55,1041.1 c 3.09,55.17 -12.57,104.19 -47.21,147.5 -60.03,75.08 -171.95,84.39 -243.02,19.79 -73.75,-67.04 -89.66,-178.15 -37.81,-264.081 38.76,-64.25 111.31,-98.438 179.83,-84.989 79.47,15.59 144.04,89.66 148.21,181.78 z m -501.87,13.83 c -6.46,161.76 96.79,287.07 228.73,326.76 201.2,60.53 403.18,-80.16 417.86,-289.82 7.39,-105.448 -13.32,-202.44 -90.27,-279.698 -92.97,-93.34 -205.61,-123.922 -330.93,-83.774 -125.92,40.34 -199.74,130.582 -222.37,261.543 -1.28,7.348 -2.65,14.769 -2.89,22.199 -0.46,14.25 -0.13,28.52 -0.13,42.79"
         style="fill:#ffffff;fill-opacity:1;fill-rule:nonzero;stroke:none"
         id="path88" /><path
         d="m 3386.77,1054.95 c 0,51.64 0.23,103.27 -0.06,154.9 -0.27,48.35 -29.33,77.98 -77.07,78.14 -92.4,0.3 -184.8,0.3 -277.19,0 -47.77,-0.16 -77.47,-29.7 -77.66,-77.86 -0.42,-103.95 -0.41,-207.89 -0.01,-311.841 0.18,-48.098 29.55,-78.059 77.41,-78.367 92.39,-0.59 184.8,-0.551 277.19,-0.012 48.1,0.289 77.05,30.051 77.32,78.11 0.31,52.3 0.07,104.62 0.07,156.93 z m -539.57,-0.62 c 0,74.08 -0.17,148.16 0.05,222.23 0.21,75.74 42.92,119.06 118.55,119.26 136.6,0.37 273.2,0.34 409.81,0.02 75.51,-0.19 119.31,-43.58 119.51,-118.8 0.39,-148.83 0.43,-297.669 -0.02,-446.501 -0.23,-74.18 -44.34,-118.008 -118,-118.148 -137.29,-0.231 -274.57,-0.211 -411.85,0 -74.42,0.121 -117.69,43.32 -117.98,117.668 -0.3,74.75 -0.07,149.511 -0.07,224.271"
         style="fill:#ffffff;fill-opacity:1;fill-rule:nonzero;stroke:none"
         id="path90" /><path
         d="m 2561.25,1769.44 c 90.73,27.6 181.49,55.12 272.2,82.81 188.14,57.4 376.26,114.91 564.41,172.3 7.11,2.17 14.38,4.68 21.71,5.15 18.48,1.18 31.62,-7.32 37.04,-25.2 5.14,-17.01 -0.5,-31.19 -15.83,-39.96 -8.7,-4.97 -18.68,-7.97 -28.36,-10.93 -352.27,-107.54 -704.58,-214.92 -1056.81,-322.6 -10.82,-3.31 -21.57,-8.3 -31,-14.55 -104.7,-69.42 -209.11,-139.29 -313.69,-208.9 -22.8,-15.18 -43.8,-13.89 -56.26,2.8 -13.82,18.49 -8.89,39.82 13.99,55.45 33.63,23 67.77,45.24 101.65,67.88 6.1,4.08 11.95,8.52 16.59,15.67 -42.63,-12.98 -85.26,-25.96 -127.9,-38.95 -32.6,-9.93 -52.69,-3.78 -59.91,18.4 -7.5,23.02 5.82,40.16 39.45,50.46 117.39,35.93 234.84,71.66 352.14,107.91 11.45,3.53 22.79,8.87 32.76,15.52 305.81,203.59 611.45,407.46 917.15,611.23 7.88,5.24 15.9,10.49 24.46,14.44 17.43,8.04 32.57,2.75 42.79,-12.27 10.25,-15.06 9.14,-31.17 -4.05,-44.61 -6.11,-6.22 -13.64,-11.16 -20.95,-16.03 -234.46,-156.38 -468.97,-312.67 -703.46,-469 -6.69,-4.46 -13.26,-9.11 -19.89,-13.67 0.59,-1.11 1.18,-2.22 1.77,-3.35"
         style="fill:#ffffff;fill-opacity:1;fill-rule:nonzero;stroke:none"
         id="path92" /><path
         d="m 2488.41,1111.38 c 15.76,-6.12 33.47,-9.92 47.69,-19.12 30.77,-19.94 30.27,-56.87 -0.35,-77.21 -29.62,-19.679 -61.3,-19.999 -92.46,-3.41 -16.25,8.65 -27.63,21.98 -27.8,41.84 -0.17,20.7 11.27,34.83 28.64,43.2 13.14,6.34 27.85,9.4 44.28,14.7"
         style="fill:#ffffff;fill-opacity:1;fill-rule:nonzero;stroke:none"
         id="path94" /><path
         d="m 3207.79,1000.57 c -27.42,0.76 -46.45,29.82 -31.95,50.68 13.63,19.59 32.29,36.25 50.89,51.58 12.09,9.96 29.6,7.51 38.51,-4.55 7.39,-10 14.72,-30.44 9.75,-37.24 -15.92,-21.75 -37.4,-39.5 -57.2,-58.31 -2.47,-2.34 -7.74,-1.73 -10,-2.16"
         style="fill:#ffffff;fill-opacity:1;fill-rule:nonzero;stroke:none"
         id="path96" /><path
         d="m 3133.73,1179.35 c 27.93,0.11 47.28,-29.64 31.75,-51.26 -13.91,-19.38 -32.02,-36.91 -51.58,-50.51 -7.88,-5.48 -26.16,-1.54 -36.81,3.84 -13.92,7.02 -19.57,25.68 -11.14,36.97 16.21,21.73 37.41,39.78 57.03,58.87 2.4,2.33 7.78,1.59 10.75,2.09"
         style="fill:#ffffff;fill-opacity:1;fill-rule:nonzero;stroke:none"
         id="path98" /><path
         d="m 3170.46,964.93 c -0.6,-27.301 -29.76,-46.469 -50.5,-31.821 -19.98,14.121 -38.09,32.743 -51.84,52.922 -5.44,7.981 -0.96,29.039 6.5,37.649 6.82,7.86 28.73,13.63 35.33,8.71 21.7,-16.21 39.64,-37.519 58.53,-57.351 2.31,-2.418 1.58,-7.75 1.98,-10.109"
         style="fill:#ffffff;fill-opacity:1;fill-rule:nonzero;stroke:none"
         id="path100" /></g></g></svg>
