<svg width="550" height="1000" viewBox="0 0 550 1000" fill="none" xmlns="http://www.w3.org/2000/svg">
<path fill-rule="evenodd" clip-rule="evenodd" d="M505.5 304H45.5L13.1345 533.501C10.1034 546.748 8.15432 560.379 7.3798 574.307L7 577H7.24486C7.08217 580.647 7 584.315 7 588C7 728.833 126.988 843 275 843C423.012 843 543 728.833 543 588C543 584.315 542.918 580.647 542.755 577H543L542.613 574.186C541.87 560.938 540.064 547.959 537.275 535.324L505.5 304Z" fill="#333333"/>
<mask id="path-2-inside-1_237:336" fill="white">
<path fill-rule="evenodd" clip-rule="evenodd" d="M505.5 304H45.5001L34.3174 383.296C127.179 372.599 202.905 380.196 278.255 387.755C352.967 395.251 427.311 402.709 517.624 392.26L505.5 304Z"/>
</mask>
<path fill-rule="evenodd" clip-rule="evenodd" d="M505.5 304H45.5001L34.3174 383.296C127.179 372.599 202.905 380.196 278.255 387.755C352.967 395.251 427.311 402.709 517.624 392.26L505.5 304Z" fill="white"/>
<path d="M45.5001 304V303H44.6312L44.5099 303.86L45.5001 304ZM505.5 304L506.491 303.864L506.372 303H505.5V304ZM34.3174 383.296L33.3272 383.156L33.1465 384.437L34.4318 384.289L34.3174 383.296ZM278.255 387.755L278.155 388.75L278.155 388.75L278.255 387.755ZM517.624 392.26L517.739 393.254L518.753 393.136L518.614 392.124L517.624 392.26ZM45.5001 305H505.5V303H45.5001V305ZM35.3076 383.435L46.4903 304.14L44.5099 303.86L33.3272 383.156L35.3076 383.435ZM34.4318 384.289C127.175 373.606 202.804 381.191 278.155 388.75L278.354 386.76C203.006 379.201 127.183 371.592 34.203 382.302L34.4318 384.289ZM278.155 388.75C352.865 396.245 427.306 403.716 517.739 393.254L517.509 391.267C427.315 401.702 353.069 394.256 278.354 386.76L278.155 388.75ZM504.509 304.136L516.633 392.396L518.614 392.124L506.491 303.864L504.509 304.136Z" fill="#333333" mask="url(#path-2-inside-1_237:336)"/>
<path d="M157.541 349.807C157.541 353.568 156.891 356.873 155.59 359.721C154.289 362.551 152.426 364.73 150 366.26C147.592 367.771 144.814 368.527 141.668 368.527C138.557 368.527 135.779 367.771 133.336 366.26C130.91 364.73 129.029 362.56 127.693 359.747C126.375 356.935 125.707 353.691 125.689 350.018V347.855C125.689 344.111 126.349 340.807 127.667 337.941C129.003 335.076 130.875 332.888 133.283 331.376C135.709 329.847 138.486 329.082 141.615 329.082C144.744 329.082 147.513 329.838 149.921 331.35C152.347 332.844 154.219 335.006 155.537 337.836C156.855 340.648 157.523 343.927 157.541 347.671V349.807ZM150.87 347.803C150.87 343.549 150.062 340.288 148.444 338.021C146.845 335.753 144.568 334.619 141.615 334.619C138.732 334.619 136.474 335.753 134.839 338.021C133.222 340.271 132.396 343.461 132.36 347.592V349.807C132.36 354.025 133.178 357.286 134.812 359.589C136.465 361.892 138.75 363.043 141.668 363.043C144.621 363.043 146.889 361.918 148.471 359.668C150.07 357.418 150.87 354.131 150.87 349.807V347.803ZM170.856 353.735V368H164.186V329.609H178.872C183.161 329.609 186.562 330.726 189.076 332.958C191.607 335.19 192.873 338.144 192.873 341.817C192.873 345.579 191.634 348.506 189.155 350.598C186.694 352.689 183.24 353.735 178.793 353.735H170.856ZM170.856 348.383H178.872C181.245 348.383 183.056 347.829 184.304 346.722C185.552 345.597 186.176 343.979 186.176 341.87C186.176 339.796 185.543 338.144 184.277 336.913C183.012 335.665 181.271 335.023 179.057 334.988H170.856V348.383ZM221.165 350.861H205.397V362.674H223.828V368H198.727V329.609H223.644V334.988H205.397V345.588H221.165V350.861ZM259.714 368H253.043L235.931 340.763V368H229.26V329.609H235.931L253.096 356.952V329.609H259.714V368ZM289.693 329.609L300.768 359.035L311.815 329.609H320.438V368H313.793V355.344L314.452 338.416L303.114 368H298.342L287.03 338.442L287.689 355.344V368H281.045V329.609H289.693ZM350.786 350.861H335.019V362.674H353.449V368H328.348V329.609H353.265V334.988H335.019V345.588H350.786V350.861ZM389.335 368H382.664L365.552 340.763V368H358.881V329.609H365.552L382.717 356.952V329.609H389.335V368ZM425.3 329.609V355.265C425.3 359.343 423.99 362.577 421.371 364.968C418.77 367.341 415.298 368.527 410.956 368.527C406.562 368.527 403.072 367.358 400.488 365.021C397.904 362.665 396.612 359.404 396.612 355.238V329.609H403.257V355.291C403.257 357.857 403.907 359.817 405.208 361.171C406.509 362.524 408.425 363.201 410.956 363.201C416.089 363.201 418.655 360.494 418.655 355.08V329.609H425.3Z" fill="black"/>
<circle cx="404" cy="772" r="25" fill="white"/>
<circle cx="444" cy="690" r="15" fill="white"/>
<circle cx="433" cy="587" r="11" fill="white"/>
<rect x="7" y="833" width="536" height="10" rx="5" fill="#333333"/>
<mask id="path-9-inside-2_237:336" fill="white">
<path d="M31.8249 373.175C23.0033 364.354 16.0056 353.881 11.2314 342.355C6.45724 330.829 4 318.476 4 306L99 306L31.8249 373.175Z"/>
</mask>
<path d="M31.8249 373.175C23.0033 364.354 16.0056 353.881 11.2314 342.355C6.45724 330.829 4 318.476 4 306L99 306L31.8249 373.175Z" fill="#333333" stroke="white" stroke-width="2" mask="url(#path-9-inside-2_237:336)"/>
<mask id="path-10-inside-3_237:336" fill="white">
<path d="M4 306C4 280.804 14.0089 256.641 31.8249 238.825L99 306L4 306Z"/>
</mask>
<path d="M4 306C4 280.804 14.0089 256.641 31.8249 238.825L99 306L4 306Z" fill="#333333" stroke="white" stroke-width="2" mask="url(#path-10-inside-3_237:336)"/>
<mask id="path-11-inside-4_237:336" fill="white">
<path d="M31.8249 238.825C40.6464 230.003 51.1191 223.006 62.6451 218.231C74.171 213.457 86.5244 211 99 211L99 306L31.8249 238.825Z"/>
</mask>
<path d="M31.8249 238.825C40.6464 230.003 51.1191 223.006 62.6451 218.231C74.171 213.457 86.5244 211 99 211L99 306L31.8249 238.825Z" fill="#333333" stroke="white" stroke-width="2" mask="url(#path-11-inside-4_237:336)"/>
<mask id="path-12-inside-5_237:336" fill="white">
<path d="M99 211C111.476 211 123.829 213.457 135.355 218.231C146.881 223.006 157.354 230.003 166.175 238.825L99 306L99 211Z"/>
</mask>
<path d="M99 211C111.476 211 123.829 213.457 135.355 218.231C146.881 223.006 157.354 230.003 166.175 238.825L99 306L99 211Z" fill="#333333" stroke="white" stroke-width="2" mask="url(#path-12-inside-5_237:336)"/>
<mask id="path-13-inside-6_237:336" fill="white">
<path d="M166.175 238.825C174.997 247.646 181.994 258.119 186.769 269.645C191.543 281.171 194 293.524 194 306L99 306L166.175 238.825Z"/>
</mask>
<path d="M166.175 238.825C174.997 247.646 181.994 258.119 186.769 269.645C191.543 281.171 194 293.524 194 306L99 306L166.175 238.825Z" fill="#333333" stroke="white" stroke-width="2" mask="url(#path-13-inside-6_237:336)"/>
<mask id="path-14-inside-7_237:336" fill="white">
<path d="M99 401C73.8044 401 49.6408 390.991 31.8249 373.175L99 306L99 401Z"/>
</mask>
<path d="M99 401C73.8044 401 49.6408 390.991 31.8249 373.175L99 306L99 401Z" fill="#333333" stroke="white" stroke-width="2" mask="url(#path-14-inside-7_237:336)"/>
<rect x="136" y="451" width="293" height="293" rx="5.86" fill="white"/>
<path d="M349.89 471.51H408.49V530.11" stroke="#C2C2C2" stroke-width="11.72"/>
<path d="M215.109 471.51H156.509V530.11" stroke="#C2C2C2" stroke-width="11.72"/>
<path d="M349.89 723.49H408.49V664.89" stroke="#C2C2C2" stroke-width="11.72"/>
<path d="M215.109 723.49H156.509V664.89" stroke="#C2C2C2" stroke-width="11.72"/>
<path d="M212.836 573.014L207.986 558.901L202.832 573.014H212.836ZM205.725 554.16H210.617L222.208 586.105H217.467L214.227 576.537H201.593L198.135 586.105H193.699L205.725 554.16ZM228.101 574.732C228.101 577.226 228.63 579.313 229.689 580.995C230.747 582.677 232.443 583.518 234.777 583.518C236.59 583.518 238.075 582.742 239.235 581.191C240.41 579.625 240.997 577.385 240.997 574.471C240.997 571.528 240.395 569.354 239.192 567.947C237.989 566.527 236.503 565.816 234.734 565.816C232.762 565.816 231.16 566.57 229.928 568.078C228.71 569.586 228.101 571.804 228.101 574.732ZM233.994 562.402C235.778 562.402 237.271 562.779 238.474 563.533C239.17 563.968 239.96 564.729 240.844 565.816V554.052H244.607V586.105H241.084V582.865C240.17 584.301 239.09 585.337 237.844 585.975C236.597 586.613 235.169 586.932 233.56 586.932C230.965 586.932 228.717 585.845 226.818 583.67C224.919 581.481 223.97 578.574 223.97 574.95C223.97 571.557 224.832 568.622 226.557 566.143C228.297 563.649 230.776 562.402 233.994 562.402ZM252.892 574.732C252.892 577.226 253.421 579.313 254.479 580.995C255.538 582.677 257.234 583.518 259.568 583.518C261.38 583.518 262.866 582.742 264.026 581.191C265.2 579.625 265.787 577.385 265.787 574.471C265.787 571.528 265.186 569.354 263.982 567.947C262.779 566.527 261.293 565.816 259.524 565.816C257.553 565.816 255.951 566.57 254.719 568.078C253.501 569.586 252.892 571.804 252.892 574.732ZM258.785 562.402C260.568 562.402 262.061 562.779 263.265 563.533C263.961 563.968 264.751 564.729 265.635 565.816V554.052H269.397V586.105H265.874V582.865C264.961 584.301 263.881 585.337 262.634 585.975C261.387 586.613 259.959 586.932 258.35 586.932C255.755 586.932 253.508 585.845 251.609 583.67C249.71 581.481 248.76 578.574 248.76 574.95C248.76 571.557 249.623 568.622 251.348 566.143C253.088 563.649 255.567 562.402 258.785 562.402ZM302.147 562.815H306.474C305.923 564.309 304.698 567.716 302.799 573.036C301.378 577.037 300.19 580.299 299.233 582.822C296.971 588.766 295.376 592.39 294.449 593.695C293.521 595 291.926 595.652 289.664 595.652C289.114 595.652 288.686 595.63 288.381 595.587C288.092 595.543 287.729 595.464 287.294 595.348V591.781C287.976 591.97 288.468 592.086 288.773 592.129C289.077 592.173 289.346 592.194 289.577 592.194C290.302 592.194 290.832 592.071 291.165 591.825C291.513 591.593 291.803 591.303 292.035 590.955C292.107 590.839 292.368 590.244 292.818 589.172C293.267 588.099 293.593 587.302 293.796 586.78L285.185 562.815H289.621L295.862 581.778L302.147 562.815ZM319.109 583.583C321.704 583.583 323.48 582.604 324.436 580.647C325.408 578.676 325.893 576.486 325.893 574.08C325.893 571.905 325.546 570.137 324.85 568.774C323.748 566.628 321.849 565.555 319.152 565.555C316.76 565.555 315.02 566.469 313.933 568.295C312.846 570.122 312.302 572.326 312.302 574.906C312.302 577.385 312.846 579.451 313.933 581.104C315.02 582.757 316.746 583.583 319.109 583.583ZM319.261 562.141C322.262 562.141 324.799 563.142 326.872 565.142C328.945 567.143 329.982 570.086 329.982 573.971C329.982 577.726 329.068 580.828 327.242 583.278C325.415 585.729 322.581 586.954 318.739 586.954C315.535 586.954 312.991 585.874 311.106 583.713C309.221 581.539 308.279 578.625 308.279 574.971C308.279 571.057 309.272 567.94 311.258 565.621C313.244 563.301 315.912 562.141 319.261 562.141ZM338.571 562.815V578.277C338.571 579.466 338.76 580.437 339.137 581.191C339.833 582.583 341.13 583.278 343.029 583.278C345.755 583.278 347.611 582.061 348.596 579.625C349.133 578.32 349.401 576.53 349.401 574.254V562.815H353.315V586.105H349.618L349.662 582.67C349.155 583.554 348.524 584.301 347.77 584.909C346.277 586.127 344.465 586.736 342.334 586.736C339.014 586.736 336.752 585.627 335.549 583.409C334.896 582.22 334.57 580.633 334.57 578.647V562.815H338.571ZM359.556 562.815H363.275V566.838C363.579 566.056 364.326 565.106 365.515 563.99C366.704 562.859 368.074 562.293 369.625 562.293C369.697 562.293 369.821 562.301 369.995 562.315C370.169 562.33 370.466 562.359 370.886 562.402V566.534C370.654 566.49 370.437 566.461 370.234 566.447C370.045 566.433 369.835 566.425 369.603 566.425C367.631 566.425 366.116 567.063 365.058 568.339C364 569.6 363.471 571.057 363.471 572.71V586.105H359.556V562.815Z" fill="#C2C2C2"/>
<path d="M213.228 638.887C211.793 639.365 210.075 639.604 208.075 639.604C203.899 639.604 200.449 638.358 197.723 635.864C194.418 632.863 192.765 628.456 192.765 622.643C192.765 616.786 194.462 612.357 197.854 609.356C200.623 606.906 204.066 605.681 208.183 605.681C212.33 605.681 215.809 606.978 218.621 609.573C221.869 612.574 223.493 616.771 223.493 622.164C223.493 625.02 223.145 627.412 222.449 629.34C221.883 631.181 221.05 632.711 219.948 633.929L223.645 637.386L220.144 641.04L216.273 637.386C215.099 638.097 214.084 638.597 213.228 638.887ZM211.793 633.102L208.553 630.014L212.011 626.405L215.251 629.493C215.758 628.449 216.113 627.535 216.316 626.753C216.635 625.578 216.795 624.208 216.795 622.643C216.795 619.047 216.055 616.271 214.577 614.314C213.112 612.342 210.967 611.356 208.14 611.356C205.487 611.356 203.37 612.299 201.79 614.183C200.21 616.068 199.42 618.888 199.42 622.643C199.42 627.035 200.55 630.181 202.812 632.08C204.276 633.313 206.03 633.929 208.075 633.929C208.843 633.929 209.582 633.835 210.293 633.646C210.684 633.545 211.184 633.363 211.793 633.102ZM242.238 626.144H235.322V638.713H228.777V606.659H244.499C246.746 606.703 248.472 606.978 249.675 607.486C250.893 607.993 251.922 608.74 252.763 609.725C253.459 610.537 254.01 611.436 254.416 612.422C254.821 613.408 255.024 614.531 255.024 615.793C255.024 617.315 254.64 618.815 253.872 620.294C253.104 621.758 251.835 622.795 250.066 623.404C251.545 623.998 252.589 624.846 253.198 625.948C253.821 627.035 254.133 628.702 254.133 630.95V633.102C254.133 634.567 254.191 635.56 254.307 636.082C254.481 636.908 254.887 637.517 255.525 637.908V638.713H248.153C247.95 638.003 247.805 637.43 247.718 636.995C247.544 636.096 247.45 635.176 247.435 634.233L247.392 631.254C247.363 629.21 246.986 627.847 246.261 627.166C245.55 626.484 244.209 626.144 242.238 626.144ZM246.304 620.316C247.638 619.707 248.305 618.504 248.305 616.706C248.305 614.763 247.66 613.458 246.369 612.792C245.645 612.415 244.557 612.226 243.108 612.226H235.322V620.838H242.912C244.42 620.838 245.55 620.664 246.304 620.316ZM293.211 623.512H286.861C286.745 622.628 286.448 621.831 285.969 621.12C285.273 620.163 284.193 619.685 282.729 619.685C280.641 619.685 279.213 620.722 278.445 622.795C278.039 623.897 277.836 625.361 277.836 627.187C277.836 628.927 278.039 630.326 278.445 631.384C279.184 633.356 280.576 634.342 282.62 634.342C284.07 634.342 285.099 633.95 285.708 633.168C286.317 632.385 286.687 631.37 286.817 630.123H293.145C293 632.008 292.319 633.791 291.101 635.473C289.159 638.184 286.281 639.539 282.468 639.539C278.655 639.539 275.85 638.408 274.052 636.147C272.255 633.885 271.356 630.95 271.356 627.34C271.356 623.266 272.349 620.098 274.335 617.837C276.321 615.575 279.061 614.444 282.555 614.444C285.527 614.444 287.955 615.111 289.84 616.445C291.739 617.779 292.863 620.134 293.211 623.512ZM317.262 618.011C319.262 620.519 320.263 623.483 320.263 626.905C320.263 630.384 319.262 633.363 317.262 635.842C315.261 638.307 312.224 639.539 308.15 639.539C304.076 639.539 301.039 638.307 299.039 635.842C297.038 633.363 296.038 630.384 296.038 626.905C296.038 623.483 297.038 620.519 299.039 618.011C301.039 615.503 304.076 614.249 308.15 614.249C312.224 614.249 315.261 615.503 317.262 618.011ZM308.128 619.489C306.316 619.489 304.917 620.134 303.931 621.425C302.96 622.701 302.474 624.527 302.474 626.905C302.474 629.282 302.96 631.116 303.931 632.407C304.917 633.697 306.316 634.342 308.128 634.342C309.941 634.342 311.332 633.697 312.304 632.407C313.275 631.116 313.761 629.282 313.761 626.905C313.761 624.527 313.275 622.701 312.304 621.425C311.332 620.134 309.941 619.489 308.128 619.489ZM346.293 606.703V638.713H340.269V635.429C339.385 636.835 338.377 637.858 337.246 638.495C336.116 639.133 334.709 639.452 333.028 639.452C330.259 639.452 327.925 638.336 326.025 636.103C324.141 633.856 323.198 630.979 323.198 627.47C323.198 623.425 324.126 620.243 325.982 617.924C327.852 615.604 330.346 614.444 333.463 614.444C334.898 614.444 336.174 614.763 337.29 615.401C338.406 616.024 339.312 616.894 340.008 618.011V606.703H346.293ZM329.592 627.013C329.592 629.203 330.027 630.95 330.897 632.254C331.752 633.574 333.057 634.233 334.811 634.233C336.565 634.233 337.899 633.581 338.812 632.276C339.725 630.971 340.182 629.282 340.182 627.209C340.182 624.31 339.45 622.237 337.986 620.99C337.087 620.236 336.043 619.859 334.854 619.859C333.042 619.859 331.708 620.548 330.853 621.925C330.012 623.288 329.592 624.984 329.592 627.013ZM372.236 631.754C372.076 633.16 371.344 634.588 370.04 636.038C368.01 638.343 365.168 639.496 361.515 639.496C358.5 639.496 355.839 638.524 353.534 636.582C351.229 634.639 350.077 631.479 350.077 627.1C350.077 622.998 351.113 619.852 353.186 617.663C355.274 615.474 357.978 614.379 361.298 614.379C363.269 614.379 365.045 614.749 366.625 615.488C368.206 616.227 369.51 617.394 370.54 618.989C371.468 620.395 372.069 622.026 372.345 623.882C372.504 624.969 372.569 626.535 372.54 628.579H356.318C356.405 630.957 357.151 632.624 358.558 633.581C359.413 634.175 360.442 634.472 361.646 634.472C362.921 634.472 363.958 634.11 364.755 633.385C365.19 632.994 365.574 632.45 365.908 631.754H372.236ZM366.103 624.491C366.002 622.853 365.502 621.613 364.603 620.772C363.719 619.917 362.617 619.489 361.298 619.489C359.862 619.489 358.746 619.939 357.949 620.838C357.166 621.736 356.673 622.954 356.47 624.491H366.103Z" fill="#C2C2C2"/>
</svg>
