<svg width="1000" height="1000" viewBox="0 0 1000 1000" fill="none" xmlns="http://www.w3.org/2000/svg">
<rect x="186.239" y="3.55526" width="784.253" height="784.253" fill="white" stroke="black" stroke-width="6.88949"/>
<path d="M744.199 86.2266H888.228V230.256" stroke="#C2C2C2" stroke-width="27.3677"/>
<path d="M412.938 86.2266H268.908V230.256" stroke="#C2C2C2" stroke-width="27.3677"/>
<path d="M744.199 705.545H888.228V561.516" stroke="#C2C2C2" stroke-width="27.3677"/>
<path d="M412.938 705.545H268.908V561.516" stroke="#C2C2C2" stroke-width="27.3677"/>
<path d="M415.879 333.446L404.555 300.49L392.52 333.446H415.879ZM399.274 289.42H410.7L437.765 364.016H426.695L419.129 341.672H389.626L381.552 364.016H371.193L399.274 289.42ZM451.527 337.458C451.527 343.281 452.762 348.155 455.233 352.082C457.705 356.009 461.666 357.973 467.116 357.973C471.348 357.973 474.818 356.162 477.526 352.539C480.268 348.883 481.639 343.653 481.639 336.848C481.639 329.976 480.234 324.898 477.424 321.614C474.614 318.297 471.145 316.638 467.014 316.638C462.41 316.638 458.67 318.398 455.792 321.919C452.948 325.44 451.527 330.619 451.527 337.458ZM465.288 308.666C469.452 308.666 472.939 309.546 475.749 311.306C477.374 312.322 479.219 314.099 481.284 316.638V289.166H490.068V364.016H481.842V356.449C479.709 359.801 477.187 362.221 474.276 363.711C471.365 365.2 468.03 365.945 464.272 365.945C458.213 365.945 452.965 363.406 448.531 358.328C444.096 353.216 441.878 346.429 441.878 337.966C441.878 330.044 443.893 323.189 447.921 317.4C451.984 311.577 457.772 308.666 465.288 308.666ZM509.416 337.458C509.416 343.281 510.651 348.155 513.123 352.082C515.594 356.009 519.555 357.973 525.005 357.973C529.237 357.973 532.707 356.162 535.415 352.539C538.157 348.883 539.528 343.653 539.528 336.848C539.528 329.976 538.123 324.898 535.313 321.614C532.504 318.297 529.034 316.638 524.903 316.638C520.299 316.638 516.559 318.398 513.681 321.919C510.837 325.44 509.416 330.619 509.416 337.458ZM523.177 308.666C527.341 308.666 530.828 309.546 533.638 311.306C535.263 312.322 537.108 314.099 539.173 316.638V289.166H547.958V364.016H539.731V356.449C537.598 359.801 535.076 362.221 532.165 363.711C529.254 365.2 525.919 365.945 522.161 365.945C516.102 365.945 510.854 363.406 506.42 358.328C501.985 353.216 499.767 346.429 499.767 337.966C499.767 330.044 501.782 323.189 505.81 317.4C509.873 311.577 515.662 308.666 523.177 308.666ZM624.432 309.63H634.537C633.251 313.117 630.39 321.073 625.955 333.497C622.638 342.84 619.862 350.457 617.628 356.348C612.346 370.228 608.623 378.691 606.456 381.738C604.289 384.785 600.566 386.308 595.284 386.308C593.998 386.308 592.999 386.257 592.288 386.156C591.611 386.054 590.765 385.868 589.749 385.597V377.269C591.341 377.709 592.492 377.98 593.202 378.082C593.913 378.183 594.54 378.234 595.081 378.234C596.774 378.234 598.01 377.946 598.788 377.371C599.601 376.829 600.278 376.152 600.819 375.34C600.989 375.069 601.598 373.681 602.648 371.176C603.697 368.67 604.459 366.809 604.933 365.59L584.824 309.63H595.183L609.757 353.91L624.432 309.63ZM664.04 358.125C670.1 358.125 674.247 355.84 676.481 351.27C678.75 346.666 679.884 341.554 679.884 335.934C679.884 330.856 679.071 326.726 677.446 323.544C674.873 318.534 670.439 316.029 664.142 316.029C658.556 316.029 654.494 318.161 651.955 322.427C649.416 326.692 648.146 331.838 648.146 337.864C648.146 343.653 649.416 348.477 651.955 352.336C654.494 356.196 658.522 358.125 664.04 358.125ZM664.396 308.056C671.403 308.056 677.328 310.392 682.169 315.064C687.01 319.736 689.43 326.608 689.43 335.68C689.43 344.448 687.298 351.693 683.032 357.414C678.767 363.135 672.148 365.996 663.177 365.996C655.696 365.996 649.754 363.474 645.353 358.43C640.952 353.352 638.752 346.547 638.752 338.016C638.752 328.876 641.071 321.597 645.709 316.181C650.347 310.764 656.576 308.056 664.396 308.056ZM709.488 309.63V345.735C709.488 348.511 709.928 350.779 710.809 352.539C712.434 355.789 715.464 357.414 719.898 357.414C726.263 357.414 730.596 354.571 732.898 348.883C734.151 345.836 734.777 341.656 734.777 336.341V309.63H743.917V364.016H735.285L735.386 355.992C734.201 358.057 732.729 359.801 730.968 361.223C727.481 364.066 723.25 365.488 718.273 365.488C710.521 365.488 705.24 362.898 702.43 357.719C700.907 354.943 700.145 351.236 700.145 346.598V309.63H709.488ZM758.491 309.63H767.174V319.025C767.885 317.197 769.629 314.979 772.405 312.372C775.181 309.732 778.38 308.412 782.002 308.412C782.171 308.412 782.459 308.429 782.865 308.462C783.272 308.496 783.966 308.564 784.947 308.666V318.314C784.406 318.212 783.898 318.144 783.424 318.111C782.984 318.077 782.493 318.06 781.951 318.06C777.347 318.06 773.81 319.549 771.338 322.528C768.867 325.474 767.631 328.876 767.631 332.735V364.016H758.491V309.63Z" fill="#C2C2C2"/>
<path d="M416.796 493.729C413.445 494.846 409.433 495.404 404.762 495.404C395.012 495.404 386.955 492.493 380.59 486.67C372.872 479.662 369.013 469.371 369.013 455.796C369.013 442.119 372.973 431.777 380.895 424.769C387.361 419.048 395.401 416.188 405.016 416.188C414.698 416.188 422.822 419.217 429.39 425.277C436.973 432.285 440.765 442.085 440.765 454.679C440.765 461.348 439.952 466.934 438.327 471.436C437.007 475.735 435.06 479.307 432.487 482.151L441.12 490.225L432.944 498.756L423.906 490.225C421.164 491.884 418.794 493.051 416.796 493.729ZM413.445 480.221L405.879 473.01L413.953 464.581L421.519 471.792C422.704 469.354 423.533 467.221 424.007 465.393C424.752 462.651 425.124 459.452 425.124 455.796C425.124 447.4 423.398 440.917 419.945 436.347C416.526 431.743 411.515 429.441 404.914 429.441C398.719 429.441 393.776 431.642 390.086 436.043C386.396 440.443 384.551 447.028 384.551 455.796C384.551 466.053 387.192 473.4 392.473 477.834C395.892 480.712 399.988 482.151 404.762 482.151C406.556 482.151 408.282 481.931 409.941 481.491C410.855 481.254 412.023 480.83 413.445 480.221ZM484.537 463.971H468.389V493.322H453.104V418.473H489.818C495.065 418.574 499.094 419.217 501.904 420.402C504.747 421.587 507.151 423.331 509.114 425.633C510.739 427.528 512.026 429.627 512.974 431.929C513.921 434.231 514.395 436.855 514.395 439.8C514.395 443.355 513.498 446.859 511.704 450.312C509.91 453.731 506.948 456.151 502.818 457.573C506.271 458.961 508.708 460.942 510.13 463.514C511.586 466.053 512.313 469.947 512.313 475.194V480.221C512.313 483.64 512.449 485.959 512.72 487.178C513.126 489.108 514.074 490.529 515.563 491.443V493.322H498.349C497.875 491.663 497.536 490.326 497.333 489.311C496.927 487.212 496.707 485.062 496.673 482.862L496.572 475.905C496.504 471.131 495.624 467.949 493.931 466.358C492.272 464.767 489.141 463.971 484.537 463.971ZM494.033 450.362C497.147 448.941 498.704 446.131 498.704 441.933C498.704 437.397 497.198 434.35 494.185 432.793C492.492 431.912 489.953 431.472 486.568 431.472H468.389V451.581H486.111C489.632 451.581 492.272 451.175 494.033 450.362ZM603.565 457.827H588.737C588.466 455.762 587.772 453.9 586.655 452.241C585.03 450.007 582.508 448.89 579.089 448.89C574.214 448.89 570.88 451.31 569.085 456.151C568.137 458.724 567.664 462.143 567.664 466.409C567.664 470.471 568.137 473.738 569.085 476.209C570.812 480.813 574.062 483.116 578.835 483.116C582.22 483.116 584.624 482.201 586.046 480.373C587.468 478.545 588.331 476.176 588.636 473.264H603.413C603.074 477.665 601.483 481.829 598.639 485.756C594.103 492.087 587.383 495.252 578.48 495.252C569.576 495.252 563.026 492.611 558.828 487.33C554.63 482.049 552.531 475.194 552.531 466.764C552.531 457.252 554.85 449.855 559.488 444.574C564.126 439.292 570.524 436.652 578.683 436.652C585.623 436.652 591.293 438.209 595.694 441.324C600.129 444.438 602.752 449.939 603.565 457.827ZM659.727 444.98C664.399 450.836 666.735 457.759 666.735 465.749C666.735 473.874 664.399 480.83 659.727 486.619C655.056 492.374 647.963 495.252 638.451 495.252C628.938 495.252 621.846 492.374 617.174 486.619C612.502 480.83 610.166 473.874 610.166 465.749C610.166 457.759 612.502 450.836 617.174 444.98C621.846 439.123 628.938 436.195 638.451 436.195C647.963 436.195 655.056 439.123 659.727 444.98ZM638.4 448.433C634.168 448.433 630.901 449.939 628.599 452.952C626.331 455.931 625.197 460.197 625.197 465.749C625.197 471.301 626.331 475.583 628.599 478.596C630.901 481.609 634.168 483.116 638.4 483.116C642.632 483.116 645.881 481.609 648.15 478.596C650.418 475.583 651.552 471.301 651.552 465.749C651.552 460.197 650.418 455.931 648.15 452.952C645.881 449.939 642.632 448.433 638.4 448.433ZM727.519 418.574V493.322H713.453V485.655C711.388 488.938 709.035 491.325 706.394 492.814C703.754 494.304 700.47 495.049 696.543 495.049C690.077 495.049 684.627 492.442 680.192 487.229C675.791 481.981 673.59 475.262 673.59 467.069C673.59 457.624 675.757 450.193 680.09 444.777C684.457 439.36 690.28 436.652 697.558 436.652C700.91 436.652 703.889 437.397 706.496 438.886C709.102 440.342 711.218 442.373 712.843 444.98V418.574H727.519ZM688.52 466.003C688.52 471.115 689.535 475.194 691.566 478.241C693.564 481.321 696.611 482.862 700.707 482.862C704.803 482.862 707.918 481.338 710.05 478.291C712.183 475.245 713.249 471.301 713.249 466.46C713.249 459.689 711.54 454.848 708.121 451.937C706.022 450.176 703.584 449.296 700.808 449.296C696.577 449.296 693.462 450.904 691.465 454.12C689.501 457.302 688.52 461.263 688.52 466.003ZM788.099 477.073C787.727 480.356 786.017 483.691 782.97 487.076C778.231 492.459 771.596 495.15 763.065 495.15C756.023 495.15 749.811 492.882 744.428 488.346C739.046 483.809 736.354 476.429 736.354 466.206C736.354 456.625 738.775 449.279 743.616 444.167C748.491 439.055 754.804 436.5 762.557 436.5C767.161 436.5 771.308 437.363 774.998 439.089C778.688 440.816 781.735 443.541 784.138 447.265C786.305 450.549 787.71 454.357 788.353 458.69C788.725 461.229 788.878 464.886 788.81 469.659H750.928C751.131 475.211 752.875 479.104 756.158 481.338C758.156 482.726 760.559 483.42 763.369 483.42C766.348 483.42 768.769 482.574 770.631 480.881C771.646 479.967 772.543 478.698 773.322 477.073H788.099ZM773.779 460.112C773.542 456.287 772.374 453.392 770.275 451.429C768.21 449.432 765.637 448.433 762.557 448.433C759.205 448.433 756.599 449.482 754.737 451.581C752.909 453.68 751.758 456.524 751.284 460.112H773.779Z" fill="#C2C2C2"/>
<path fill-rule="evenodd" clip-rule="evenodd" d="M187.76 785.508V626.326C187.76 625.3 186.517 624.789 185.795 625.519L28.1822 785.017C27.8549 785.348 27.7842 785.784 27.9012 786.161C27.8293 786.311 27.7891 786.479 27.7891 786.656V979.562C27.7891 987.172 33.9582 993.341 41.5681 993.341H959.018C966.628 993.341 972.797 987.172 972.797 979.562V785.508H187.76Z" fill="#333333"/>
<path d="M187.76 785.508H186.038V787.23H187.76V785.508ZM185.795 625.519L187.02 626.73L187.02 626.73L185.795 625.519ZM28.1822 785.017L26.9571 783.806L26.9571 783.806L28.1822 785.017ZM27.9012 786.161L29.4545 786.905L29.7465 786.295L29.546 785.65L27.9012 786.161ZM972.797 785.508H974.52V783.786H972.797V785.508ZM189.483 785.508V626.326H186.038V785.508H189.483ZM189.483 626.326C189.483 623.761 186.373 622.484 184.57 624.309L187.02 626.73C186.66 627.095 186.038 626.839 186.038 626.326H189.483ZM184.57 624.309L26.9571 783.806L29.4074 786.227L187.02 626.73L184.57 624.309ZM26.9571 783.806C26.1454 784.627 25.9671 785.74 26.2563 786.672L29.546 785.65C29.5721 785.734 29.5809 785.836 29.5564 785.946C29.5304 786.063 29.4726 786.161 29.4074 786.227L26.9571 783.806ZM29.5114 786.656C29.5114 786.742 29.4915 786.828 29.4545 786.905L26.3478 785.417C26.1671 785.794 26.0667 786.216 26.0667 786.656H29.5114ZM29.5114 979.562V786.656H26.0667V979.562H29.5114ZM41.5681 991.619C34.9094 991.619 29.5114 986.221 29.5114 979.562H26.0667C26.0667 988.123 33.0069 995.063 41.5681 995.063V991.619ZM959.018 991.619H41.5681V995.063H959.018V991.619ZM971.075 979.562C971.075 986.221 965.677 991.619 959.018 991.619V995.063C967.579 995.063 974.52 988.123 974.52 979.562H971.075ZM971.075 785.508V979.562H974.52V785.508H971.075ZM187.76 787.23H972.797V783.786H187.76V787.23Z" fill="#333333"/>
<path d="M29.7698 780.914L189.688 780.97V783.76H27L29.7698 780.914Z" fill="white"/>
<path d="M265.69 903.724C265.69 901.32 264.839 899.466 263.136 898.164C261.458 896.862 258.415 895.547 254.008 894.22C249.6 892.893 246.094 891.415 243.489 889.787C238.506 886.657 236.014 882.575 236.014 877.541C236.014 873.134 237.805 869.502 241.386 866.647C244.992 863.792 249.663 862.365 255.397 862.365C259.204 862.365 262.597 863.066 265.577 864.469C268.558 865.871 270.899 867.874 272.602 870.479C274.305 873.058 275.156 875.926 275.156 879.081H265.69C265.69 876.226 264.789 873.998 262.985 872.395C261.207 870.767 258.653 869.953 255.322 869.953C252.217 869.953 249.8 870.617 248.072 871.944C246.369 873.271 245.518 875.124 245.518 877.504C245.518 879.507 246.444 881.185 248.298 882.537C250.151 883.865 253.206 885.167 257.463 886.444C261.721 887.696 265.139 889.136 267.719 890.764C270.298 892.367 272.189 894.22 273.391 896.324C274.593 898.402 275.194 900.844 275.194 903.649C275.194 908.206 273.441 911.838 269.935 914.542C266.454 917.222 261.721 918.562 255.735 918.562C251.779 918.562 248.135 917.836 244.804 916.383C241.498 914.906 238.919 912.877 237.066 910.298C235.238 907.718 234.324 904.713 234.324 901.282H243.827C243.827 904.387 244.854 906.792 246.908 908.494C248.961 910.197 251.904 911.049 255.735 911.049C259.041 911.049 261.52 910.385 263.173 909.058C264.851 907.706 265.69 905.928 265.69 903.724ZM325.268 900.005C324.717 905.84 322.563 910.398 318.807 913.678C315.05 916.934 310.054 918.562 303.818 918.562C299.461 918.562 295.617 917.535 292.286 915.482C288.98 913.403 286.426 910.46 284.623 906.654C282.82 902.847 281.881 898.427 281.805 893.393V888.285C281.805 883.126 282.72 878.58 284.548 874.649C286.376 870.717 288.993 867.687 292.399 865.558C295.83 863.429 299.786 862.365 304.269 862.365C310.305 862.365 315.163 864.005 318.844 867.286C322.526 870.567 324.667 875.2 325.268 881.185H315.802C315.351 877.253 314.199 874.423 312.346 872.695C310.517 870.942 307.825 870.066 304.269 870.066C300.137 870.066 296.957 871.581 294.728 874.611C292.524 877.616 291.397 882.036 291.347 887.871V892.717C291.347 898.627 292.399 903.135 294.502 906.241C296.631 909.346 299.736 910.899 303.818 910.899C307.55 910.899 310.355 910.06 312.233 908.382C314.111 906.704 315.301 903.912 315.802 900.005H325.268ZM364.41 905.076H343.224L338.791 917.811H328.912L349.572 863.116H358.099L378.798 917.811H368.881L364.41 905.076ZM345.891 897.413H361.743L353.817 874.724L345.891 897.413ZM428.421 917.811H418.917L394.537 879.006V917.811H385.033V863.116H394.537L418.992 902.071V863.116H428.421V917.811ZM496.075 870.779H479.02V917.811H469.592V870.779H452.687V863.116H496.075V870.779ZM545.886 891.891C545.886 897.25 544.959 901.958 543.106 906.015C541.253 910.047 538.598 913.153 535.142 915.331C531.711 917.485 527.754 918.562 523.272 918.562C518.839 918.562 514.882 917.485 511.401 915.331C507.945 913.153 505.266 910.06 503.362 906.053C501.484 902.046 500.532 897.425 500.507 892.191V889.111C500.507 883.777 501.447 879.069 503.325 874.987C505.228 870.905 507.895 867.787 511.326 865.633C514.782 863.454 518.739 862.365 523.197 862.365C527.654 862.365 531.599 863.442 535.029 865.596C538.485 867.724 541.152 870.805 543.031 874.836C544.909 878.843 545.861 883.514 545.886 888.848V891.891ZM536.382 889.036C536.382 882.976 535.23 878.33 532.926 875.099C530.647 871.869 527.404 870.254 523.197 870.254C519.089 870.254 515.871 871.869 513.542 875.099C511.238 878.305 510.061 882.85 510.011 888.735V891.891C510.011 897.901 511.176 902.547 513.505 905.827C515.859 909.108 519.114 910.748 523.272 910.748C527.479 910.748 530.709 909.146 532.963 905.94C535.242 902.735 536.382 898.051 536.382 891.891V889.036ZM603.097 903.724C603.097 901.32 602.245 899.466 600.542 898.164C598.864 896.862 595.822 895.547 591.414 894.22C587.007 892.893 583.5 891.415 580.896 889.787C575.912 886.657 573.421 882.575 573.421 877.541C573.421 873.134 575.211 869.502 578.792 866.647C582.399 863.792 587.069 862.365 592.804 862.365C596.611 862.365 600.004 863.066 602.984 864.469C605.964 865.871 608.306 867.874 610.009 870.479C611.712 873.058 612.563 875.926 612.563 879.081H603.097C603.097 876.226 602.195 873.998 600.392 872.395C598.614 870.767 596.06 869.953 592.729 869.953C589.624 869.953 587.207 870.617 585.479 871.944C583.776 873.271 582.924 875.124 582.924 877.504C582.924 879.507 583.851 881.185 585.704 882.537C587.557 883.865 590.613 885.167 594.87 886.444C599.127 887.696 602.546 889.136 605.125 890.764C607.705 892.367 609.595 894.22 610.798 896.324C612 898.402 612.601 900.844 612.601 903.649C612.601 908.206 610.848 911.838 607.342 914.542C603.861 917.222 599.127 918.562 593.142 918.562C589.185 918.562 585.541 917.836 582.211 916.383C578.905 914.906 576.326 912.877 574.472 910.298C572.644 907.718 571.73 904.713 571.73 901.282H581.234C581.234 904.387 582.261 906.792 584.314 908.494C586.368 910.197 589.31 911.049 593.142 911.049C596.448 911.049 598.927 910.385 600.58 909.058C602.258 907.706 603.097 905.928 603.097 903.724ZM652.908 893.393H630.444V910.222H656.702V917.811H620.94V863.116H656.439V870.779H630.444V885.881H652.908V893.393ZM707.827 917.811H698.323L673.944 879.006V917.811H664.44V863.116H673.944L698.399 902.071V863.116H707.827V917.811ZM719.059 917.811V863.116H735.212C740.045 863.116 744.328 864.193 748.059 866.347C751.816 868.501 754.721 871.556 756.774 875.513C758.828 879.469 759.854 884.002 759.854 889.111V891.853C759.854 897.037 758.815 901.595 756.737 905.527C754.683 909.459 751.74 912.489 747.909 914.618C744.102 916.746 739.732 917.811 734.799 917.811H719.059ZM728.563 870.779V910.222H734.761C739.745 910.222 743.564 908.67 746.218 905.564C748.898 902.434 750.263 897.951 750.313 892.116V889.074C750.313 883.138 749.023 878.605 746.444 875.475C743.864 872.345 740.12 870.779 735.212 870.779H728.563ZM788.479 917.811V863.116H807.224C813.409 863.116 818.117 864.356 821.348 866.835C824.578 869.314 826.194 873.008 826.194 877.917C826.194 880.421 825.518 882.675 824.165 884.678C822.813 886.682 820.835 888.235 818.23 889.336C821.185 890.138 823.464 891.653 825.067 893.882C826.695 896.086 827.509 898.74 827.509 901.846C827.509 906.979 825.856 910.924 822.55 913.678C819.269 916.433 814.561 917.811 808.426 917.811H788.479ZM797.983 893.131V910.222H808.538C811.518 910.222 813.848 909.484 815.525 908.006C817.203 906.529 818.042 904.475 818.042 901.846C818.042 896.161 815.137 893.256 809.327 893.131H797.983ZM797.983 886.143H807.299C810.254 886.143 812.558 885.48 814.211 884.153C815.889 882.8 816.727 880.897 816.727 878.443C816.727 875.738 815.951 873.785 814.398 872.583C812.871 871.381 810.479 870.779 807.224 870.779H797.983V886.143ZM875.479 870.779H858.424V917.811H848.996V870.779H832.091V863.116H875.479V870.779ZM923.374 900.005C922.823 905.84 920.669 910.398 916.913 913.678C913.156 916.934 908.16 918.562 901.924 918.562C897.567 918.562 893.723 917.535 890.392 915.482C887.086 913.403 884.532 910.46 882.729 906.654C880.926 902.847 879.987 898.427 879.911 893.393V888.285C879.911 883.126 880.826 878.58 882.654 874.649C884.482 870.717 887.099 867.687 890.505 865.558C893.936 863.429 897.892 862.365 902.375 862.365C908.411 862.365 913.269 864.005 916.95 867.286C920.632 870.567 922.773 875.2 923.374 881.185H913.908C913.457 877.253 912.305 874.423 910.452 872.695C908.623 870.942 905.931 870.066 902.375 870.066C898.243 870.066 895.063 871.581 892.834 874.611C890.63 877.616 889.503 882.036 889.453 887.871V892.717C889.453 898.627 890.505 903.135 892.608 906.241C894.737 909.346 897.842 910.899 901.924 910.899C905.656 910.899 908.461 910.06 910.339 908.382C912.217 906.704 913.407 903.912 913.908 900.005H923.374Z" fill="white"/>
</svg>
