<svg width="1000" height="1001" viewBox="0 0 1000 1001" fill="none" xmlns="http://www.w3.org/2000/svg">
<g clip-path="url(#clip0_288_1613)">
<path d="M488.467 916.827C493.322 926.162 506.678 926.162 511.533 916.827L958.638 57.2489C963.139 48.5946 956.859 38.25 947.104 38.25H52.8956C43.1406 38.25 36.861 48.5946 41.3624 57.2489L488.467 916.827Z" fill="#333333"/>
<path d="M525.718 937.658L985.032 56.1507C995.092 36.8441 981.084 13.75 959.314 13.75H40.686C18.9158 13.75 4.90809 36.844 14.9679 56.1506L474.282 937.658C485.119 958.457 514.881 958.457 525.718 937.658Z" stroke="black" stroke-width="12"/>
<rect x="195" y="184" width="609" height="609" rx="8.87417" fill="white"/>
<path d="M632.391 243.775H747.957V359.341" stroke="#C2C2C2" stroke-width="21.9593"/>
<path d="M366.59 243.775H251.024V359.341" stroke="#C2C2C2" stroke-width="21.9593"/>
<path d="M632.391 740.705H747.957V625.139" stroke="#C2C2C2" stroke-width="21.9593"/>
<path d="M366.59 740.705H251.024V625.139" stroke="#C2C2C2" stroke-width="21.9593"/>
<path d="M368.944 442.319L359.858 415.876L350.202 442.319H368.944ZM355.621 406.994H364.788L386.505 466.848H377.623L371.552 448.92H347.879L341.401 466.848H333.089L355.621 406.994ZM397.547 445.538C397.547 450.21 398.539 454.122 400.521 457.273C402.504 460.424 405.682 461.999 410.056 461.999C413.451 461.999 416.235 460.546 418.408 457.639C420.609 454.706 421.709 450.509 421.709 445.049C421.709 439.535 420.581 435.461 418.327 432.826C416.072 430.164 413.288 428.833 409.974 428.833C406.28 428.833 403.279 430.245 400.97 433.07C398.688 435.895 397.547 440.051 397.547 445.538ZM408.589 422.436C411.93 422.436 414.728 423.142 416.982 424.555C418.286 425.369 419.767 426.796 421.424 428.833V406.79H428.472V466.848H421.872V460.777C420.16 463.466 418.137 465.408 415.801 466.603C413.465 467.798 410.789 468.396 407.774 468.396C402.912 468.396 398.702 466.359 395.143 462.284C391.585 458.183 389.806 452.736 389.806 445.946C389.806 439.589 391.422 434.089 394.654 429.444C397.914 424.772 402.559 422.436 408.589 422.436ZM443.996 445.538C443.996 450.21 444.988 454.122 446.971 457.273C448.953 460.424 452.132 461.999 456.505 461.999C459.9 461.999 462.684 460.546 464.857 457.639C467.058 454.706 468.158 450.509 468.158 445.049C468.158 439.535 467.031 435.461 464.776 432.826C462.521 430.164 459.737 428.833 456.423 428.833C452.729 428.833 449.728 430.245 447.419 433.07C445.137 435.895 443.996 440.051 443.996 445.538ZM455.038 422.436C458.379 422.436 461.177 423.142 463.431 424.555C464.735 425.369 466.216 426.796 467.873 428.833V406.79H474.921V466.848H468.321V460.777C466.609 463.466 464.586 465.408 462.25 466.603C459.914 467.798 457.238 468.396 454.223 468.396C449.361 468.396 445.151 466.359 441.592 462.284C438.034 458.183 436.255 452.736 436.255 445.946C436.255 439.589 437.871 434.089 441.103 429.444C444.363 424.772 449.008 422.436 455.038 422.436ZM536.283 423.21H544.391C543.359 426.008 541.064 432.391 537.505 442.36C534.843 449.857 532.616 455.969 530.823 460.695C526.586 471.832 523.598 478.623 521.859 481.068C520.121 483.512 517.133 484.735 512.896 484.735C511.863 484.735 511.062 484.694 510.492 484.612C509.948 484.531 509.269 484.381 508.454 484.164V477.482C509.731 477.835 510.655 478.052 511.225 478.134C511.795 478.215 512.298 478.256 512.733 478.256C514.091 478.256 515.082 478.025 515.707 477.564C516.359 477.129 516.902 476.586 517.337 475.934C517.473 475.716 517.961 474.603 518.804 472.593C519.646 470.583 520.257 469.089 520.637 468.111L504.502 423.21H512.814L524.508 458.739L536.283 423.21ZM568.064 462.121C572.926 462.121 576.254 460.288 578.046 456.621C579.866 452.927 580.776 448.825 580.776 444.316C580.776 440.241 580.124 436.927 578.821 434.374C576.756 430.354 573.198 428.344 568.145 428.344C563.664 428.344 560.404 430.055 558.367 433.478C556.33 436.9 555.311 441.029 555.311 445.864C555.311 450.509 556.33 454.38 558.367 457.476C560.404 460.573 563.636 462.121 568.064 462.121ZM568.349 421.947C573.972 421.947 578.726 423.821 582.61 427.57C586.494 431.318 588.436 436.832 588.436 444.112C588.436 451.147 586.725 456.96 583.303 461.551C579.88 466.141 574.57 468.437 567.371 468.437C561.368 468.437 556.601 466.413 553.07 462.366C549.539 458.291 547.773 452.831 547.773 445.986C547.773 438.652 549.634 432.812 553.355 428.466C557.076 424.12 562.075 421.947 568.349 421.947ZM604.531 423.21V452.18C604.531 454.407 604.884 456.227 605.59 457.639C606.894 460.247 609.325 461.551 612.883 461.551C617.99 461.551 621.467 459.269 623.314 454.706C624.319 452.261 624.821 448.906 624.821 444.642V423.21H632.156V466.848H625.229L625.31 460.41C624.36 462.067 623.178 463.466 621.766 464.607C618.968 466.888 615.572 468.029 611.579 468.029C605.359 468.029 601.122 465.951 598.867 461.795C597.645 459.568 597.034 456.594 597.034 452.872V423.21H604.531ZM643.849 423.21H650.817V430.748C651.387 429.281 652.786 427.502 655.013 425.41C657.241 423.291 659.808 422.232 662.714 422.232C662.85 422.232 663.081 422.246 663.407 422.273C663.733 422.3 664.29 422.354 665.077 422.436V430.177C664.643 430.096 664.235 430.042 663.855 430.014C663.502 429.987 663.108 429.974 662.673 429.974C658.979 429.974 656.141 431.169 654.158 433.559C652.175 435.922 651.183 438.652 651.183 441.749V466.848H643.849V423.21Z" fill="#C2C2C2"/>
<path d="M369.681 570.926C366.992 571.822 363.773 572.27 360.024 572.27C352.201 572.27 345.737 569.934 340.63 565.262C334.437 559.639 331.34 551.382 331.34 540.489C331.34 529.515 334.518 521.217 340.874 515.594C346.063 511.004 352.514 508.708 360.228 508.708C367.997 508.708 374.516 511.139 379.786 516.002C385.87 521.624 388.912 529.488 388.912 539.593C388.912 544.944 388.261 549.426 386.957 553.039C385.897 556.488 384.335 559.354 382.271 561.636L389.198 568.114L382.638 574.959L375.385 568.114C373.185 569.445 371.284 570.382 369.681 570.926ZM366.992 560.087L360.921 554.302L367.399 547.538L373.47 553.324C374.421 551.368 375.086 549.657 375.467 548.19C376.064 545.99 376.363 543.423 376.363 540.489C376.363 533.753 374.978 528.551 372.207 524.884C369.464 521.19 365.443 519.343 360.147 519.343C355.176 519.343 351.21 521.108 348.249 524.64C345.288 528.171 343.808 533.454 343.808 540.489C343.808 548.72 345.927 554.614 350.164 558.172C352.908 560.481 356.194 561.636 360.024 561.636C361.464 561.636 362.849 561.459 364.18 561.106C364.914 560.916 365.851 560.576 366.992 560.087ZM424.034 547.049H411.078V570.6H398.813V510.542H428.272C432.482 510.623 435.715 511.139 437.969 512.09C440.251 513.041 442.179 514.44 443.755 516.287C445.059 517.808 446.091 519.492 446.851 521.339C447.612 523.186 447.992 525.291 447.992 527.655C447.992 530.507 447.273 533.318 445.833 536.089C444.393 538.832 442.016 540.774 438.703 541.915C441.473 543.029 443.429 544.618 444.57 546.682C445.738 548.72 446.322 551.843 446.322 556.054V560.087C446.322 562.831 446.43 564.692 446.648 565.669C446.974 567.218 447.734 568.359 448.929 569.092V570.6H435.117C434.737 569.269 434.465 568.196 434.302 567.381C433.976 565.697 433.8 563.972 433.772 562.206L433.691 556.624C433.637 552.794 432.93 550.241 431.572 548.964C430.241 547.687 427.729 547.049 424.034 547.049ZM431.654 536.13C434.153 534.989 435.402 532.734 435.402 529.366C435.402 525.726 434.193 523.281 431.776 522.032C430.418 521.326 428.381 520.972 425.664 520.972H411.078V537.107H425.298C428.122 537.107 430.241 536.781 431.654 536.13ZM519.54 542.119H507.643C507.425 540.462 506.869 538.968 505.972 537.637C504.668 535.844 502.645 534.948 499.901 534.948C495.99 534.948 493.314 536.89 491.874 540.774C491.114 542.839 490.734 545.582 490.734 549.005C490.734 552.264 491.114 554.886 491.874 556.869C493.26 560.563 495.867 562.41 499.697 562.41C502.414 562.41 504.342 561.677 505.483 560.21C506.624 558.743 507.317 556.841 507.561 554.505H519.418C519.146 558.037 517.87 561.378 515.588 564.529C511.948 569.608 506.556 572.148 499.412 572.148C492.268 572.148 487.012 570.029 483.644 565.792C480.276 561.554 478.592 556.054 478.592 549.29C478.592 541.657 480.452 535.722 484.174 531.485C487.895 527.247 493.029 525.128 499.575 525.128C505.144 525.128 509.694 526.378 513.225 528.877C516.783 531.376 518.888 535.79 519.54 542.119ZM564.604 531.811C568.352 536.51 570.227 542.065 570.227 548.475C570.227 554.994 568.352 560.576 564.604 565.221C560.855 569.839 555.165 572.148 547.532 572.148C539.899 572.148 534.208 569.839 530.46 565.221C526.711 560.576 524.837 554.994 524.837 548.475C524.837 542.065 526.711 536.51 530.46 531.811C534.208 527.111 539.899 524.762 547.532 524.762C555.165 524.762 560.855 527.111 564.604 531.811ZM547.491 534.581C544.096 534.581 541.474 535.79 539.627 538.208C537.807 540.598 536.897 544.02 536.897 548.475C536.897 552.93 537.807 556.366 539.627 558.784C541.474 561.201 544.096 562.41 547.491 562.41C550.886 562.41 553.494 561.201 555.314 558.784C557.134 556.366 558.044 552.93 558.044 548.475C558.044 544.02 557.134 540.598 555.314 538.208C553.494 535.79 550.886 534.581 547.491 534.581ZM618.998 510.623V570.6H607.712V564.447C606.055 567.082 604.167 568.997 602.048 570.192C599.93 571.387 597.295 571.985 594.144 571.985C588.956 571.985 584.582 569.893 581.024 565.71C577.493 561.5 575.727 556.108 575.727 549.535C575.727 541.956 577.466 535.994 580.943 531.648C584.447 527.301 589.119 525.128 594.959 525.128C597.648 525.128 600.038 525.726 602.13 526.921C604.221 528.089 605.919 529.719 607.223 531.811V510.623H618.998ZM587.706 548.679C587.706 552.781 588.521 556.054 590.151 558.498C591.753 560.97 594.198 562.206 597.485 562.206C600.772 562.206 603.271 560.984 604.982 558.539C606.693 556.094 607.549 552.93 607.549 549.046C607.549 543.613 606.177 539.729 603.434 537.393C601.75 535.98 599.794 535.274 597.566 535.274C594.171 535.274 591.672 536.564 590.069 539.145C588.494 541.698 587.706 544.876 587.706 548.679ZM667.607 557.561C667.308 560.196 665.936 562.872 663.491 565.588C659.689 569.907 654.365 572.066 647.519 572.066C641.87 572.066 636.885 570.246 632.566 566.607C628.247 562.967 626.088 557.045 626.088 548.842C626.088 541.155 628.03 535.26 631.914 531.159C635.826 527.057 640.892 525.006 647.112 525.006C650.806 525.006 654.134 525.699 657.095 527.084C660.055 528.47 662.5 530.656 664.429 533.644C666.167 536.279 667.294 539.335 667.81 542.812C668.109 544.849 668.231 547.783 668.177 551.613H637.781C637.944 556.067 639.343 559.191 641.978 560.984C643.581 562.098 645.509 562.654 647.764 562.654C650.154 562.654 652.096 561.975 653.59 560.617C654.405 559.884 655.125 558.865 655.75 557.561H667.607ZM656.117 543.953C655.926 540.883 654.989 538.561 653.305 536.985C651.648 535.383 649.584 534.581 647.112 534.581C644.423 534.581 642.331 535.423 640.837 537.107C639.371 538.792 638.447 541.073 638.067 543.953H656.117Z" fill="#C2C2C2"/>
<path d="M233.158 126.646C233.158 124.057 232.241 122.062 230.408 120.66C228.601 119.257 225.324 117.842 220.578 116.412C215.832 114.983 212.057 113.392 209.253 111.64C203.886 108.269 201.203 103.873 201.203 98.4531C201.203 93.7071 203.131 89.7971 206.988 86.7229C210.871 83.6488 215.9 82.1118 222.075 82.1118C226.174 82.1118 229.828 82.8668 233.037 84.3769C236.246 85.887 238.767 88.0443 240.601 90.8487C242.434 93.6262 243.351 96.7138 243.351 100.112H233.158C233.158 97.0374 232.187 94.6375 230.246 92.9116C228.331 91.1588 225.581 90.2825 221.994 90.2825C218.65 90.2825 216.048 90.9971 214.188 92.4263C212.354 93.8554 211.437 95.8509 211.437 98.4127C211.437 100.57 212.435 102.377 214.43 103.833C216.426 105.262 219.716 106.664 224.3 108.04C228.884 109.388 232.565 110.938 235.342 112.691C238.12 114.417 240.156 116.412 241.45 118.678C242.744 120.916 243.392 123.545 243.392 126.565C243.392 131.473 241.504 135.383 237.729 138.295C233.981 141.181 228.884 142.623 222.439 142.623C218.178 142.623 214.255 141.841 210.668 140.277C207.109 138.686 204.331 136.502 202.336 133.725C200.367 130.947 199.383 127.711 199.383 124.017H209.617C209.617 127.361 210.722 129.949 212.934 131.783C215.145 133.617 218.313 134.534 222.439 134.534C225.999 134.534 228.668 133.819 230.448 132.39C232.255 130.934 233.158 129.019 233.158 126.646ZM269.4 134.776C271.854 134.776 273.89 134.062 275.508 132.633C277.126 131.203 277.989 129.437 278.097 127.334H287.36C287.252 130.057 286.402 132.606 284.811 134.979C283.22 137.325 281.063 139.185 278.34 140.561C275.616 141.936 272.677 142.623 269.522 142.623C263.4 142.623 258.547 140.641 254.96 136.677C251.374 132.713 249.58 127.239 249.58 120.255V119.244C249.58 112.583 251.36 107.258 254.92 103.267C258.479 99.2486 263.333 97.2397 269.481 97.2397C274.686 97.2397 278.919 98.7633 282.182 101.81C285.472 104.831 287.198 108.808 287.36 113.743H278.097C277.989 111.235 277.126 109.172 275.508 107.554C273.917 105.936 271.881 105.127 269.4 105.127C266.218 105.127 263.764 106.287 262.039 108.606C260.313 110.898 259.436 114.39 259.409 119.082V120.66C259.409 125.406 260.259 128.952 261.958 131.298C263.684 133.617 266.164 134.776 269.4 134.776ZM320.932 141.814C320.501 140.979 320.123 139.617 319.8 137.729C316.672 140.992 312.843 142.623 308.312 142.623C303.917 142.623 300.33 141.37 297.553 138.862C294.775 136.354 293.387 133.253 293.387 129.558C293.387 124.893 295.112 121.32 298.564 118.839C302.043 116.332 307.004 115.078 313.449 115.078H319.476V112.206C319.476 109.941 318.842 108.134 317.575 106.786C316.308 105.41 314.38 104.723 311.791 104.723C309.553 104.723 307.719 105.289 306.29 106.422C304.861 107.527 304.146 108.943 304.146 110.669H294.317C294.317 108.269 295.112 106.031 296.703 103.954C298.294 101.851 300.452 100.206 303.175 99.0194C305.926 97.8329 308.986 97.2397 312.357 97.2397C317.481 97.2397 321.566 98.534 324.613 101.123C327.66 103.685 329.224 107.298 329.305 111.963V131.702C329.305 135.639 329.858 138.781 330.964 141.127V141.814H320.932ZM310.132 134.736C312.074 134.736 313.894 134.264 315.593 133.32C317.319 132.376 318.613 131.109 319.476 129.518V121.266H314.177C310.537 121.266 307.8 121.9 305.966 123.167C304.133 124.435 303.216 126.228 303.216 128.547C303.216 130.435 303.836 131.945 305.076 133.077C306.344 134.183 308.029 134.736 310.132 134.736ZM348.721 98.0487L349.004 103.105C352.24 99.1947 356.487 97.2397 361.745 97.2397C370.86 97.2397 375.498 102.458 375.66 112.893V141.814H365.831V113.46C365.831 110.682 365.224 108.633 364.011 107.311C362.824 105.963 360.869 105.289 358.145 105.289C354.181 105.289 351.229 107.082 349.287 110.669V141.814H339.458V98.0487H348.721ZM418.657 87.4106V98.0487H426.383V105.329H418.657V129.761C418.657 131.433 418.981 132.646 419.628 133.401C420.302 134.129 421.489 134.493 423.187 134.493C424.32 134.493 425.466 134.358 426.626 134.089V141.693C424.387 142.313 422.23 142.623 420.154 142.623C412.603 142.623 408.828 138.457 408.828 130.125V105.329H401.628V98.0487H408.828V87.4106H418.657ZM430.873 119.527C430.873 115.239 431.722 111.383 433.421 107.959C435.12 104.507 437.506 101.864 440.58 100.031C443.655 98.17 447.187 97.2397 451.178 97.2397C457.084 97.2397 461.87 99.1408 465.537 102.943C469.232 106.745 471.227 111.788 471.524 118.071L471.564 120.376C471.564 124.691 470.728 128.547 469.057 131.945C467.412 135.343 465.039 137.972 461.938 139.832C458.863 141.693 455.304 142.623 451.259 142.623C445.084 142.623 440.136 140.574 436.414 136.475C432.72 132.349 430.873 126.862 430.873 120.012V119.527ZM440.702 120.376C440.702 124.88 441.632 128.412 443.493 130.974C445.353 133.509 447.942 134.776 451.259 134.776C454.576 134.776 457.151 133.482 458.985 130.893C460.845 128.304 461.776 124.516 461.776 119.527C461.776 115.105 460.818 111.599 458.904 109.01C457.016 106.422 454.441 105.127 451.178 105.127C447.969 105.127 445.421 106.408 443.533 108.97C441.646 111.505 440.702 115.307 440.702 120.376ZM538.912 120.376C538.912 127.172 537.388 132.579 534.341 136.597C531.321 140.614 527.155 142.623 521.842 142.623C516.719 142.623 512.728 140.776 509.87 137.082L509.384 141.814H500.485V79.6848H510.314V102.255C513.146 98.9116 516.962 97.2397 521.762 97.2397C527.101 97.2397 531.294 99.2217 534.341 103.186C537.388 107.15 538.912 112.691 538.912 119.81V120.376ZM529.083 119.527C529.083 114.781 528.247 111.222 526.575 108.849C524.903 106.476 522.476 105.289 519.294 105.289C515.034 105.289 512.04 107.15 510.314 110.871V128.911C512.067 132.713 515.087 134.615 519.375 134.615C522.449 134.615 524.822 133.468 526.494 131.176C528.166 128.884 529.029 125.419 529.083 120.781V119.527ZM573.698 137.527C570.813 140.925 566.714 142.623 561.402 142.623C556.656 142.623 553.056 141.235 550.602 138.457C548.175 135.68 546.961 131.662 546.961 126.403V98.0487H556.79V126.282C556.79 131.837 559.096 134.615 563.707 134.615C568.48 134.615 571.703 132.902 573.374 129.478V98.0487H583.204V141.814H573.941L573.698 137.527ZM608.525 127.738L617.423 98.0487H627.9L610.507 148.448C607.837 155.81 603.307 159.491 596.916 159.491C595.487 159.491 593.909 159.248 592.183 158.763V151.158L594.044 151.28C596.525 151.28 598.385 150.821 599.626 149.904C600.893 149.014 601.891 147.504 602.619 145.374L604.035 141.612L588.664 98.0487H599.262L608.525 127.738ZM655.162 141.814V82.9207H675.346C682.007 82.9207 687.077 84.2556 690.555 86.9252C694.034 89.5948 695.773 93.5723 695.773 98.8576C695.773 101.554 695.045 103.981 693.589 106.138C692.133 108.296 690.002 109.968 687.198 111.154C690.38 112.017 692.834 113.648 694.56 116.048C696.312 118.421 697.189 121.28 697.189 124.624C697.189 130.152 695.409 134.399 691.849 137.365C688.317 140.331 683.247 141.814 676.641 141.814H655.162ZM665.396 115.239V133.644H676.762C679.971 133.644 682.479 132.848 684.286 131.257C686.092 129.666 686.996 127.455 686.996 124.624C686.996 118.502 683.868 115.374 677.611 115.239H665.396ZM665.396 107.716H675.427C678.609 107.716 681.09 107.001 682.87 105.572C684.677 104.116 685.58 102.067 685.58 99.4239C685.58 96.5116 684.744 94.4083 683.072 93.1139C681.427 91.8195 678.852 91.1723 675.346 91.1723H665.396V107.716ZM748.842 91.1723H730.478V141.814H720.326V91.1723H702.124V82.9207H748.842V91.1723ZM800.415 122.642C799.821 128.925 797.502 133.833 793.457 137.365C789.412 140.871 784.033 142.623 777.318 142.623C772.626 142.623 768.487 141.518 764.9 139.307C761.341 137.068 758.59 133.9 756.649 129.801C754.707 125.702 753.696 120.943 753.615 115.523V110.022C753.615 104.467 754.599 99.5722 756.568 95.3386C758.536 91.1049 761.354 87.842 765.022 85.5499C768.716 83.2578 772.977 82.1118 777.804 82.1118C784.302 82.1118 789.534 83.878 793.498 87.4106C797.462 90.9431 799.767 95.9318 800.415 102.377H790.221C789.736 98.143 788.496 95.0959 786.5 93.2352C784.532 91.3476 781.633 90.4038 777.804 90.4038C773.354 90.4038 769.929 92.0352 767.53 95.2981C765.156 98.534 763.943 103.294 763.889 109.577V114.795C763.889 121.159 765.022 126.012 767.287 129.356C769.579 132.7 772.923 134.372 777.318 134.372C781.336 134.372 784.356 133.468 786.379 131.662C788.401 129.855 789.682 126.848 790.221 122.642H800.415Z" fill="white"/>
<path d="M488.441 843.573C488.755 847.508 491.865 850.573 497.442 850.936V853.84H499.917V850.915C505.692 850.511 509.066 847.425 509.066 842.946C509.066 838.874 506.484 836.775 501.868 835.686L499.917 835.224V827.316C502.392 827.597 503.968 828.95 504.347 830.822H508.687C508.373 827.031 505.123 824.066 499.917 823.744V820.84H497.442V823.806C492.513 824.288 489.151 827.254 489.151 831.449C489.151 835.162 491.651 837.521 495.805 838.491L497.442 838.895V847.285C494.905 846.902 493.226 845.511 492.847 843.573H488.441V843.573ZM497.422 834.638C494.988 834.073 493.668 832.922 493.668 831.189C493.668 829.251 495.091 827.799 497.442 827.374V834.634H497.422V834.638ZM500.276 839.559C503.234 840.244 504.599 841.353 504.599 843.313C504.599 845.549 502.9 847.083 499.917 847.364V839.477L500.276 839.559V839.559Z" fill="white"/>
<path d="M499 866.875C491.342 866.875 483.997 863.833 478.582 858.418C473.167 853.003 470.125 845.658 470.125 838C470.125 830.342 473.167 822.997 478.582 817.582C483.997 812.167 491.342 809.125 499 809.125C506.658 809.125 514.003 812.167 519.418 817.582C524.833 822.997 527.875 830.342 527.875 838C527.875 845.658 524.833 853.003 519.418 858.418C514.003 863.833 506.658 866.875 499 866.875ZM499 871C507.752 871 516.146 867.523 522.335 861.335C528.523 855.146 532 846.752 532 838C532 829.248 528.523 820.854 522.335 814.665C516.146 808.477 507.752 805 499 805C490.248 805 481.854 808.477 475.665 814.665C469.477 820.854 466 829.248 466 838C466 846.752 469.477 855.146 475.665 861.335C481.854 867.523 490.248 871 499 871V871Z" fill="white"/>
<path d="M499 860.688C492.983 860.688 487.212 858.297 482.958 854.042C478.703 849.788 476.312 844.017 476.312 838C476.312 831.983 478.703 826.212 482.958 821.958C487.212 817.703 492.983 815.312 499 815.312C505.017 815.312 510.788 817.703 515.042 821.958C519.297 826.212 521.688 831.983 521.688 838C521.688 844.017 519.297 849.788 515.042 854.042C510.788 858.297 505.017 860.688 499 860.688ZM499 862.75C502.25 862.75 505.469 862.11 508.471 860.866C511.474 859.622 514.203 857.799 516.501 855.501C518.799 853.203 520.622 850.474 521.866 847.471C523.11 844.469 523.75 841.25 523.75 838C523.75 834.75 523.11 831.531 521.866 828.529C520.622 825.526 518.799 822.797 516.501 820.499C514.203 818.201 511.474 816.378 508.471 815.134C505.469 813.89 502.25 813.25 499 813.25C492.436 813.25 486.141 815.858 481.499 820.499C476.858 825.141 474.25 831.436 474.25 838C474.25 844.564 476.858 850.859 481.499 855.501C486.141 860.142 492.436 862.75 499 862.75V862.75Z" fill="white"/>
</g>
<defs>
<clipPath id="clip0_288_1613">
<rect width="1000" height="1000" fill="white" transform="translate(0 0.484375)"/>
</clipPath>
</defs>
</svg>
