<svg width="1000" height="1000" viewBox="0 0 1000 1000" fill="none" xmlns="http://www.w3.org/2000/svg">
<g clip-path="url(#clip0_279_209)">
<path d="M488.467 57.173C493.322 47.8382 506.678 47.8382 511.533 57.173L958.638 916.751C963.139 925.405 956.859 935.75 947.104 935.75H52.8956C43.1406 935.75 36.861 925.405 41.3624 916.751L488.467 57.173Z" fill="#333333"/>
<path d="M525.718 36.3424L985.032 917.849C995.092 937.156 981.084 960.25 959.314 960.25H40.686C18.9158 960.25 4.90809 937.156 14.9679 917.849L474.282 36.3424C485.119 15.5432 514.881 15.5432 525.718 36.3424Z" stroke="black" stroke-width="12"/>
<rect x="169" y="131" width="661" height="661" rx="9.6319" fill="white"/>
<path d="M643.734 195.879H769.168V321.313" stroke="#C2C2C2" stroke-width="23.8343"/>
<path d="M355.238 195.879H229.805V321.313" stroke="#C2C2C2" stroke-width="23.8343"/>
<path d="M643.734 735.24H769.168V609.806" stroke="#C2C2C2" stroke-width="23.8343"/>
<path d="M355.238 735.24H229.805V609.806" stroke="#C2C2C2" stroke-width="23.8343"/>
<path d="M357.797 411.057L347.935 382.356L337.454 411.057H357.797ZM343.336 372.715H353.286L376.858 437.68H367.217L360.627 418.221H334.933L327.902 437.68H318.88L343.336 372.715ZM388.842 414.551C388.842 419.622 389.918 423.867 392.071 427.287C394.223 430.707 397.672 432.417 402.419 432.417C406.104 432.417 409.126 430.84 411.485 427.685C413.873 424.501 415.067 419.946 415.067 414.02C415.067 408.035 413.843 403.613 411.396 400.753C408.949 397.864 405.927 396.419 402.331 396.419C398.321 396.419 395.063 397.952 392.557 401.018C390.081 404.084 388.842 408.595 388.842 414.551ZM400.827 389.476C404.453 389.476 407.49 390.242 409.937 391.775C411.352 392.66 412.959 394.208 414.757 396.419V372.494H422.408V437.68H415.244V431.09C413.386 434.009 411.19 436.117 408.655 437.414C406.119 438.712 403.215 439.36 399.942 439.36C394.665 439.36 390.095 437.149 386.233 432.727C382.371 428.275 380.44 422.364 380.44 414.993C380.44 408.094 382.194 402.124 385.702 397.082C389.24 392.011 394.282 389.476 400.827 389.476ZM439.257 414.551C439.257 419.622 440.334 423.867 442.486 427.287C444.638 430.707 448.087 432.417 452.834 432.417C456.519 432.417 459.541 430.84 461.9 427.685C464.288 424.501 465.482 419.946 465.482 414.02C465.482 408.035 464.259 403.613 461.812 400.753C459.365 397.864 456.343 396.419 452.746 396.419C448.736 396.419 445.478 397.952 442.972 401.018C440.496 404.084 439.257 408.595 439.257 414.551ZM451.242 389.476C454.868 389.476 457.905 390.242 460.352 391.775C461.767 392.66 463.374 394.208 465.173 396.419V372.494H472.823V437.68H465.659V431.09C463.802 434.009 461.605 436.117 459.07 437.414C456.534 438.712 453.63 439.36 450.358 439.36C445.08 439.36 440.51 437.149 436.648 432.727C432.786 428.275 430.855 422.364 430.855 414.993C430.855 408.094 432.609 402.124 436.118 397.082C439.655 392.011 444.697 389.476 451.242 389.476ZM539.424 390.316H548.225C547.105 393.353 544.613 400.281 540.751 411.101C537.862 419.238 535.444 425.872 533.498 431.002C528.899 443.09 525.656 450.46 523.769 453.114C521.882 455.767 518.639 457.094 514.04 457.094C512.92 457.094 512.05 457.05 511.431 456.961C510.841 456.873 510.104 456.711 509.219 456.475V449.222C510.605 449.605 511.608 449.841 512.227 449.93C512.846 450.018 513.391 450.062 513.863 450.062C515.337 450.062 516.413 449.812 517.091 449.311C517.799 448.839 518.389 448.249 518.86 447.542C519.008 447.306 519.538 446.097 520.452 443.915C521.366 441.734 522.03 440.112 522.442 439.051L504.93 390.316H513.951L526.644 428.879L539.424 390.316ZM573.919 432.55C579.196 432.55 582.808 430.56 584.754 426.58C586.729 422.57 587.717 418.118 587.717 413.224C587.717 408.802 587.009 405.205 585.594 402.433C583.353 398.07 579.491 395.888 574.007 395.888C569.143 395.888 565.605 397.746 563.394 401.46C561.182 405.175 560.077 409.657 560.077 414.904C560.077 419.946 561.182 424.147 563.394 427.508C565.605 430.869 569.113 432.55 573.919 432.55ZM574.228 388.945C580.331 388.945 585.491 390.979 589.707 395.048C593.923 399.117 596.031 405.101 596.031 413.003C596.031 420.639 594.173 426.948 590.459 431.931C586.744 436.913 580.98 439.404 573.167 439.404C566.651 439.404 561.477 437.208 557.645 432.815C553.812 428.393 551.895 422.467 551.895 415.037C551.895 407.077 553.915 400.738 557.954 396.021C561.993 391.304 567.418 388.945 574.228 388.945ZM613.499 390.316V421.759C613.499 424.177 613.883 426.152 614.649 427.685C616.064 430.515 618.703 431.931 622.565 431.931C628.108 431.931 631.882 429.454 633.886 424.501C634.977 421.848 635.523 418.206 635.523 413.578V390.316H643.483V437.68H635.965L636.053 430.692C635.021 432.491 633.739 434.009 632.206 435.247C629.169 437.724 625.484 438.962 621.15 438.962C614.398 438.962 609.799 436.707 607.352 432.196C606.025 429.778 605.362 426.55 605.362 422.511V390.316H613.499ZM656.175 390.316H663.737V398.497C664.357 396.905 665.875 394.974 668.292 392.704C670.71 390.404 673.496 389.255 676.651 389.255C676.798 389.255 677.049 389.269 677.403 389.299C677.756 389.328 678.361 389.387 679.216 389.476V397.878C678.744 397.79 678.302 397.731 677.889 397.701C677.506 397.672 677.078 397.657 676.607 397.657C672.597 397.657 669.516 398.954 667.364 401.549C665.212 404.114 664.135 407.077 664.135 410.438V437.68H656.175V390.316Z" fill="#C2C2C2"/>
<path d="M358.596 550.645C355.677 551.618 352.184 552.104 348.115 552.104C339.624 552.104 332.607 549.569 327.065 544.498C320.343 538.395 316.982 529.432 316.982 517.61C316.982 505.699 320.431 496.692 327.33 490.589C332.961 485.606 339.963 483.115 348.336 483.115C356.768 483.115 363.844 485.754 369.564 491.031C376.168 497.134 379.47 505.669 379.47 516.637C379.47 522.445 378.762 527.309 377.347 531.231C376.197 534.975 374.502 538.085 372.261 540.562L379.779 547.593L372.659 555.023L364.788 547.593C362.399 549.038 360.336 550.055 358.596 550.645ZM355.677 538.881L349.088 532.601L356.12 525.26L362.709 531.54C363.741 529.417 364.463 527.56 364.876 525.968C365.525 523.58 365.849 520.794 365.849 517.61C365.849 510.298 364.345 504.652 361.338 500.672C358.36 496.662 353.997 494.657 348.248 494.657C342.853 494.657 338.548 496.574 335.334 500.407C332.121 504.239 330.514 509.974 330.514 517.61C330.514 526.543 332.814 532.941 337.413 536.803C340.391 539.309 343.958 540.562 348.115 540.562C349.678 540.562 351.181 540.37 352.626 539.987C353.422 539.78 354.439 539.412 355.677 538.881ZM417.591 524.73H403.528V550.291H390.216V485.105H422.19C426.76 485.194 430.268 485.754 432.715 486.786C435.192 487.818 437.285 489.336 438.995 491.341C440.41 492.992 441.531 494.82 442.356 496.824C443.182 498.829 443.594 501.114 443.594 503.679C443.594 506.775 442.813 509.826 441.25 512.833C439.688 515.811 437.108 517.919 433.511 519.157C436.519 520.366 438.641 522.091 439.88 524.332C441.147 526.543 441.781 529.933 441.781 534.503V538.881C441.781 541.859 441.899 543.879 442.135 544.94C442.489 546.62 443.314 547.859 444.611 548.655V550.291H429.62C429.207 548.846 428.912 547.682 428.735 546.797C428.381 544.969 428.19 543.097 428.16 541.181L428.072 535.122C428.013 530.965 427.246 528.194 425.772 526.808C424.328 525.422 421.6 524.73 417.591 524.73ZM425.861 512.878C428.573 511.639 429.929 509.192 429.929 505.537C429.929 501.586 428.617 498.932 425.993 497.576C424.519 496.81 422.308 496.426 419.36 496.426H403.528V513.939H418.962C422.028 513.939 424.328 513.585 425.861 512.878ZM521.251 519.379H508.338C508.102 517.58 507.498 515.959 506.525 514.514C505.11 512.568 502.913 511.595 499.935 511.595C495.69 511.595 492.786 513.703 491.223 517.919C490.398 520.16 489.985 523.138 489.985 526.852C489.985 530.39 490.398 533.235 491.223 535.388C492.727 539.397 495.557 541.402 499.714 541.402C502.663 541.402 504.756 540.606 505.994 539.014C507.232 537.422 507.984 535.358 508.25 532.823H521.119C520.824 536.655 519.438 540.282 516.962 543.702C513.011 549.215 507.159 551.972 499.405 551.972C491.651 551.972 485.946 549.672 482.29 545.073C478.634 540.473 476.806 534.503 476.806 527.162C476.806 518.877 478.826 512.435 482.865 507.836C486.904 503.237 492.476 500.937 499.582 500.937C505.626 500.937 510.564 502.293 514.397 505.006C518.259 507.718 520.544 512.509 521.251 519.379ZM570.163 508.19C574.231 513.29 576.266 519.32 576.266 526.277C576.266 533.353 574.231 539.412 570.163 544.453C566.094 549.466 559.918 551.972 551.633 551.972C543.349 551.972 537.172 549.466 533.103 544.453C529.035 539.412 527 533.353 527 526.277C527 519.32 529.035 513.29 533.103 508.19C537.172 503.089 543.349 500.539 551.633 500.539C559.918 500.539 566.094 503.089 570.163 508.19ZM551.589 511.197C547.904 511.197 545.058 512.509 543.054 515.133C541.078 517.728 540.091 521.442 540.091 526.277C540.091 531.113 541.078 534.842 543.054 537.466C545.058 540.09 547.904 541.402 551.589 541.402C555.274 541.402 558.105 540.09 560.08 537.466C562.055 534.842 563.043 531.113 563.043 526.277C563.043 521.442 562.055 517.728 560.08 515.133C558.105 512.509 555.274 511.197 551.589 511.197ZM629.202 485.194V550.291H616.952V543.613C615.153 546.473 613.104 548.552 610.805 549.849C608.505 551.146 605.645 551.795 602.225 551.795C596.594 551.795 591.847 549.524 587.985 544.984C584.152 540.414 582.236 534.562 582.236 527.427C582.236 519.202 584.123 512.73 587.897 508.013C591.7 503.296 596.771 500.937 603.11 500.937C606.028 500.937 608.623 501.586 610.893 502.883C613.163 504.151 615.006 505.92 616.421 508.19V485.194H629.202ZM595.238 526.499C595.238 530.95 596.122 534.503 597.891 537.157C599.631 539.839 602.284 541.181 605.851 541.181C609.419 541.181 612.131 539.854 613.989 537.201C615.846 534.547 616.775 531.113 616.775 526.897C616.775 521 615.286 516.784 612.308 514.249C610.48 512.716 608.357 511.949 605.94 511.949C602.255 511.949 599.542 513.349 597.803 516.15C596.093 518.922 595.238 522.371 595.238 526.499ZM681.961 536.139C681.636 538.999 680.147 541.903 677.494 544.851C673.367 549.539 667.588 551.883 660.158 551.883C654.026 551.883 648.616 549.908 643.928 545.957C639.24 542.006 636.897 535.579 636.897 526.676C636.897 518.332 639.005 511.934 643.221 507.482C647.466 503.031 652.965 500.805 659.716 500.805C663.726 500.805 667.337 501.556 670.551 503.06C673.765 504.564 676.418 506.937 678.511 510.18C680.398 513.04 681.622 516.357 682.182 520.13C682.506 522.342 682.639 525.526 682.58 529.683H649.589C649.766 534.518 651.284 537.908 654.144 539.854C655.883 541.063 657.977 541.667 660.424 541.667C663.018 541.667 665.126 540.93 666.748 539.456C667.632 538.66 668.413 537.555 669.092 536.139H681.961ZM669.49 521.369C669.283 518.037 668.266 515.516 666.438 513.806C664.64 512.067 662.399 511.197 659.716 511.197C656.797 511.197 654.527 512.111 652.906 513.939C651.314 515.767 650.311 518.243 649.898 521.369H669.49Z" fill="#C2C2C2"/>
<path d="M214.246 875.887C214.246 873.137 213.272 871.017 211.324 869.527C209.405 868.038 205.924 866.534 200.883 865.016C195.841 863.497 191.831 861.807 188.852 859.945C183.151 856.365 180.301 851.695 180.301 845.938C180.301 840.896 182.349 836.742 186.445 833.477C190.57 830.211 195.913 828.578 202.473 828.578C206.827 828.578 210.708 829.38 214.117 830.984C217.526 832.589 220.204 834.88 222.152 837.859C224.1 840.81 225.074 844.09 225.074 847.699H214.246C214.246 844.434 213.215 841.884 211.152 840.051C209.118 838.189 206.197 837.258 202.387 837.258C198.835 837.258 196.07 838.017 194.094 839.535C192.146 841.053 191.172 843.173 191.172 845.895C191.172 848.186 192.232 850.105 194.352 851.652C196.471 853.171 199.966 854.66 204.836 856.121C209.706 857.553 213.616 859.201 216.566 861.062C219.517 862.896 221.68 865.016 223.055 867.422C224.43 869.799 225.117 872.592 225.117 875.801C225.117 881.014 223.112 885.168 219.102 888.262C215.12 891.327 209.706 892.859 202.859 892.859C198.333 892.859 194.165 892.029 190.355 890.367C186.574 888.677 183.624 886.357 181.504 883.406C179.413 880.456 178.367 877.018 178.367 873.094H189.238C189.238 876.646 190.413 879.396 192.762 881.344C195.111 883.292 198.477 884.266 202.859 884.266C206.641 884.266 209.477 883.507 211.367 881.988C213.286 880.441 214.246 878.408 214.246 875.887ZM252.746 884.523C255.353 884.523 257.516 883.764 259.234 882.246C260.953 880.728 261.87 878.852 261.984 876.617H271.824C271.71 879.51 270.807 882.217 269.117 884.738C267.427 887.23 265.135 889.207 262.242 890.668C259.349 892.129 256.227 892.859 252.875 892.859C246.372 892.859 241.216 890.754 237.406 886.543C233.596 882.332 231.691 876.517 231.691 869.098V868.023C231.691 860.948 233.582 855.29 237.363 851.051C241.145 846.783 246.301 844.648 252.832 844.648C258.361 844.648 262.858 846.267 266.324 849.504C269.819 852.712 271.652 856.938 271.824 862.18H261.984C261.87 859.516 260.953 857.324 259.234 855.605C257.544 853.887 255.382 853.027 252.746 853.027C249.366 853.027 246.759 854.259 244.926 856.723C243.092 859.158 242.161 862.867 242.133 867.852V869.527C242.133 874.569 243.035 878.336 244.84 880.828C246.673 883.292 249.309 884.523 252.746 884.523ZM307.488 892C307.03 891.112 306.629 889.665 306.285 887.66C302.962 891.126 298.895 892.859 294.082 892.859C289.413 892.859 285.603 891.527 282.652 888.863C279.702 886.199 278.227 882.905 278.227 878.98C278.227 874.025 280.06 870.229 283.727 867.594C287.422 864.93 292.693 863.598 299.539 863.598H305.941V860.547C305.941 858.141 305.268 856.221 303.922 854.789C302.576 853.328 300.527 852.598 297.777 852.598C295.4 852.598 293.452 853.199 291.934 854.402C290.415 855.577 289.656 857.081 289.656 858.914H279.215C279.215 856.365 280.06 853.987 281.75 851.781C283.44 849.547 285.732 847.799 288.625 846.539C291.547 845.279 294.798 844.648 298.379 844.648C303.822 844.648 308.161 846.023 311.398 848.773C314.635 851.495 316.297 855.333 316.383 860.289V881.258C316.383 885.44 316.97 888.777 318.145 891.27V892H307.488ZM296.016 884.48C298.078 884.48 300.012 883.979 301.816 882.977C303.65 881.974 305.025 880.628 305.941 878.938V870.172H300.312C296.445 870.172 293.538 870.845 291.59 872.191C289.642 873.538 288.668 875.443 288.668 877.906C288.668 879.911 289.327 881.516 290.645 882.719C291.991 883.893 293.781 884.48 296.016 884.48ZM337.008 845.508L337.309 850.879C340.746 846.725 345.258 844.648 350.844 844.648C360.526 844.648 365.453 850.191 365.625 861.277V892H355.184V861.879C355.184 858.928 354.539 856.751 353.25 855.348C351.99 853.915 349.913 853.199 347.02 853.199C342.809 853.199 339.672 855.104 337.609 858.914V892H327.168V845.508H337.008ZM411.301 834.207V845.508H419.508V853.242H411.301V879.195C411.301 880.971 411.645 882.26 412.332 883.062C413.048 883.836 414.309 884.223 416.113 884.223C417.316 884.223 418.534 884.079 419.766 883.793V891.871C417.388 892.53 415.096 892.859 412.891 892.859C404.87 892.859 400.859 888.434 400.859 879.582V853.242H393.211V845.508H400.859V834.207H411.301ZM424.277 868.324C424.277 863.77 425.18 859.673 426.984 856.035C428.789 852.368 431.324 849.561 434.59 847.613C437.855 845.637 441.608 844.648 445.848 844.648C452.121 844.648 457.206 846.668 461.102 850.707C465.026 854.746 467.146 860.103 467.461 866.777L467.504 869.227C467.504 873.81 466.616 877.906 464.84 881.516C463.092 885.125 460.572 887.918 457.277 889.895C454.012 891.871 450.23 892.859 445.934 892.859C439.374 892.859 434.117 890.682 430.164 886.328C426.24 881.945 424.277 876.116 424.277 868.84V868.324ZM434.719 869.227C434.719 874.01 435.707 877.763 437.684 880.484C439.66 883.177 442.41 884.523 445.934 884.523C449.457 884.523 452.193 883.148 454.141 880.398C456.117 877.648 457.105 873.624 457.105 868.324C457.105 863.626 456.089 859.902 454.055 857.152C452.049 854.402 449.314 853.027 445.848 853.027C442.439 853.027 439.732 854.388 437.727 857.109C435.721 859.802 434.719 863.841 434.719 869.227ZM539.047 869.227C539.047 876.445 537.428 882.189 534.191 886.457C530.983 890.725 526.557 892.859 520.914 892.859C515.471 892.859 511.232 890.897 508.195 886.973L507.68 892H498.227V826H508.668V849.977C511.676 846.424 515.729 844.648 520.828 844.648C526.5 844.648 530.954 846.754 534.191 850.965C537.428 855.176 539.047 861.062 539.047 868.625V869.227ZM528.605 868.324C528.605 863.283 527.717 859.501 525.941 856.98C524.165 854.46 521.587 853.199 518.207 853.199C513.681 853.199 510.501 855.176 508.668 859.129V878.293C510.53 882.332 513.738 884.352 518.293 884.352C521.559 884.352 524.079 883.134 525.855 880.699C527.632 878.264 528.548 874.583 528.605 869.656V868.324ZM576 887.445C572.935 891.055 568.581 892.859 562.938 892.859C557.896 892.859 554.072 891.384 551.465 888.434C548.887 885.483 547.598 881.215 547.598 875.629V845.508H558.039V875.5C558.039 881.401 560.488 884.352 565.387 884.352C570.457 884.352 573.88 882.533 575.656 878.895V845.508H586.098V892H576.258L576 887.445ZM612.996 877.047L622.449 845.508H633.578L615.102 899.047C612.266 906.867 607.453 910.777 600.664 910.777C599.146 910.777 597.47 910.52 595.637 910.004V901.926L597.613 902.055C600.249 902.055 602.225 901.568 603.543 900.594C604.889 899.648 605.949 898.044 606.723 895.781L608.227 891.785L591.898 845.508H603.156L612.996 877.047ZM699.105 864.07H673.41V883.32H703.445V892H662.539V829.438H703.145V838.203H673.41V855.477H699.105V864.07ZM758.359 838.203H738.852V892H728.066V838.203H708.73V829.438H758.359V838.203ZM816.281 892H805.453V864.199H777.48V892H766.609V829.438H777.48V855.477H805.453V829.438H816.281V892Z" fill="white"/>
</g>
<defs>
<clipPath id="clip0_279_209">
<rect width="1000" height="1000" fill="white"/>
</clipPath>
</defs>
</svg>
