<svg width="1000" height="1000" viewBox="0 0 1000 1000" fill="none" xmlns="http://www.w3.org/2000/svg">
<rect y="269.76" width="663.755" height="663.755" fill="#333333"/>
<rect x="669" y="508" width="41" height="187" fill="#333333"/>
<path d="M986.355 601.638L715.34 927.815L715.34 275.46L986.355 601.638Z" fill="#333333"/>
<rect x="34" y="303.637" width="596" height="596" rx="8.68474" fill="white"/>
<path d="M462.055 362.137H575.154V475.236" stroke="#C2C2C2" stroke-width="21.4905"/>
<path d="M201.926 362.137H88.8267V475.236" stroke="#C2C2C2" stroke-width="21.4905"/>
<path d="M462.055 848.459H575.154V735.36" stroke="#C2C2C2" stroke-width="21.4905"/>
<path d="M201.926 848.459H88.8267V735.36" stroke="#C2C2C2" stroke-width="21.4905"/>
<path d="M204.231 557.023L195.339 531.144L185.889 557.023H204.231ZM191.192 522.451H200.164L221.417 581.027H212.724L206.783 563.482H183.616L177.276 581.027H169.141L191.192 522.451ZM232.223 560.173C232.223 564.745 233.194 568.573 235.134 571.657C237.075 574.74 240.185 576.282 244.465 576.282C247.788 576.282 250.513 574.86 252.639 572.016C254.793 569.145 255.869 565.037 255.869 559.694C255.869 554.298 254.766 550.31 252.56 547.732C250.353 545.127 247.628 543.824 244.385 543.824C240.77 543.824 237.832 545.206 235.573 547.971C233.34 550.736 232.223 554.803 232.223 560.173ZM243.029 537.564C246.299 537.564 249.037 538.255 251.244 539.637C252.52 540.435 253.968 541.83 255.59 543.824V522.252H262.488V581.027H256.029V575.086C254.354 577.718 252.373 579.618 250.087 580.788C247.801 581.958 245.183 582.543 242.232 582.543C237.474 582.543 233.353 580.549 229.871 576.561C226.388 572.547 224.647 567.217 224.647 560.571C224.647 554.351 226.229 548.968 229.392 544.422C232.582 539.85 237.128 537.564 243.029 537.564ZM277.681 560.173C277.681 564.745 278.651 568.573 280.592 571.657C282.532 574.74 285.643 576.282 289.922 576.282C293.245 576.282 295.97 574.86 298.097 572.016C300.25 569.145 301.327 565.037 301.327 559.694C301.327 554.298 300.223 550.31 298.017 547.732C295.811 545.127 293.086 543.824 289.843 543.824C286.227 543.824 283.29 545.206 281.03 547.971C278.797 550.736 277.681 554.803 277.681 560.173ZM288.487 537.564C291.757 537.564 294.495 538.255 296.701 539.637C297.977 540.435 299.426 541.83 301.048 543.824V522.252H307.946V581.027H301.486V575.086C299.811 577.718 297.831 579.618 295.545 580.788C293.259 581.958 290.64 582.543 287.689 582.543C282.931 582.543 278.811 580.549 275.328 576.561C271.846 572.547 270.105 567.217 270.105 560.571C270.105 554.351 271.686 548.968 274.85 544.422C278.04 539.85 282.585 537.564 288.487 537.564ZM367.998 538.321H375.933C374.923 541.059 372.676 547.306 369.194 557.062C366.589 564.399 364.409 570.381 362.654 575.006C358.507 585.905 355.583 592.551 353.882 594.944C352.181 597.336 349.256 598.532 345.109 598.532C344.099 598.532 343.315 598.493 342.757 598.413C342.225 598.333 341.561 598.187 340.763 597.974V591.435C342.013 591.78 342.916 591.993 343.475 592.073C344.033 592.152 344.525 592.192 344.95 592.192C346.279 592.192 347.249 591.966 347.861 591.514C348.499 591.089 349.031 590.557 349.456 589.919C349.589 589.707 350.067 588.617 350.891 586.65C351.715 584.683 352.314 583.22 352.686 582.263L336.895 538.321H345.03L356.474 573.092L367.998 538.321ZM399.1 576.402C403.859 576.402 407.115 574.607 408.87 571.019C410.651 567.403 411.541 563.389 411.541 558.976C411.541 554.989 410.903 551.746 409.627 549.247C407.607 545.313 404.125 543.345 399.18 543.345C394.794 543.345 391.604 545.02 389.61 548.37C387.616 551.719 386.619 555.76 386.619 560.492C386.619 565.037 387.616 568.826 389.61 571.856C391.604 574.887 394.767 576.402 399.1 576.402ZM399.379 537.085C404.882 537.085 409.534 538.919 413.336 542.588C417.137 546.256 419.038 551.653 419.038 558.777C419.038 565.662 417.363 571.351 414.014 575.844C410.664 580.336 405.467 582.582 398.422 582.582C392.547 582.582 387.882 580.602 384.426 576.641C380.97 572.654 379.242 567.31 379.242 560.611C379.242 553.434 381.063 547.718 384.705 543.465C388.347 539.212 393.239 537.085 399.379 537.085ZM434.788 538.321V566.672C434.788 568.852 435.134 570.633 435.825 572.016C437.101 574.568 439.48 575.844 442.963 575.844C447.96 575.844 451.363 573.611 453.171 569.145C454.154 566.752 454.646 563.469 454.646 559.295V538.321H461.824V581.027H455.045L455.125 574.727C454.194 576.349 453.038 577.718 451.656 578.834C448.917 581.067 445.595 582.184 441.687 582.184C435.599 582.184 431.452 580.15 429.246 576.083C428.05 573.903 427.451 570.992 427.451 567.35V538.321H434.788ZM473.268 538.321H480.086V545.698C480.645 544.263 482.014 542.521 484.194 540.474C486.373 538.401 488.885 537.364 491.73 537.364C491.863 537.364 492.089 537.377 492.408 537.404C492.727 537.431 493.272 537.484 494.043 537.564V545.14C493.617 545.06 493.219 545.007 492.846 544.98C492.501 544.954 492.115 544.94 491.69 544.94C488.075 544.94 485.297 546.11 483.356 548.449C481.416 550.762 480.445 553.434 480.445 556.464V581.027H473.268V538.321Z" fill="#C2C2C2"/>
<path d="M204.954 682.883C202.322 683.761 199.172 684.199 195.504 684.199C187.848 684.199 181.521 681.913 176.523 677.341C170.462 671.838 167.432 663.757 167.432 653.097C167.432 642.357 170.542 634.236 176.762 628.733C181.84 624.241 188.153 621.994 195.703 621.994C203.306 621.994 209.686 624.374 214.843 629.132C220.798 634.635 223.775 642.331 223.775 652.22C223.775 657.456 223.137 661.843 221.861 665.378C220.824 668.754 219.296 671.559 217.275 673.792L224.054 680.132L217.634 686.831L210.537 680.132C208.383 681.435 206.522 682.352 204.954 682.883ZM202.322 672.277L196.381 666.614L202.721 659.995L208.662 665.657C209.593 663.743 210.244 662.069 210.616 660.633C211.201 658.48 211.494 655.968 211.494 653.097C211.494 646.504 210.138 641.413 207.426 637.825C204.741 634.209 200.807 632.402 195.623 632.402C190.759 632.402 186.877 634.13 183.98 637.585C181.082 641.041 179.633 646.212 179.633 653.097C179.633 661.152 181.707 666.92 185.854 670.403C188.539 672.662 191.755 673.792 195.504 673.792C196.913 673.792 198.268 673.619 199.571 673.274C200.289 673.087 201.206 672.755 202.322 672.277ZM258.147 659.517H245.467V682.564H233.465V623.789H262.294C266.415 623.868 269.578 624.374 271.785 625.304C274.018 626.234 275.905 627.603 277.447 629.411C278.723 630.9 279.733 632.548 280.477 634.356C281.222 636.163 281.594 638.223 281.594 640.536C281.594 643.327 280.889 646.079 279.48 648.79C278.072 651.475 275.745 653.376 272.502 654.492C275.214 655.582 277.128 657.137 278.244 659.158C279.387 661.152 279.959 664.209 279.959 668.329V672.277C279.959 674.962 280.065 676.783 280.278 677.74C280.597 679.255 281.341 680.371 282.511 681.089V682.564H268.993C268.621 681.262 268.355 680.212 268.196 679.414C267.877 677.766 267.704 676.078 267.677 674.35L267.598 668.887C267.545 665.139 266.853 662.64 265.524 661.391C264.222 660.141 261.763 659.517 258.147 659.517ZM265.604 648.83C268.05 647.714 269.272 645.507 269.272 642.211C269.272 638.649 268.089 636.256 265.724 635.033C264.394 634.342 262.401 633.997 259.742 633.997H245.467V649.787H259.383C262.148 649.787 264.222 649.468 265.604 648.83ZM351.614 654.692H339.971C339.758 653.07 339.213 651.608 338.336 650.306C337.06 648.551 335.079 647.674 332.395 647.674C328.567 647.674 325.948 649.575 324.539 653.376C323.795 655.396 323.423 658.081 323.423 661.431C323.423 664.621 323.795 667.186 324.539 669.127C325.895 672.742 328.447 674.55 332.195 674.55C334.854 674.55 336.741 673.832 337.857 672.396C338.974 670.961 339.652 669.1 339.891 666.814H351.495C351.229 670.27 349.979 673.539 347.746 676.623C344.184 681.594 338.907 684.08 331.916 684.08C324.925 684.08 319.781 682.006 316.484 677.859C313.188 673.712 311.54 668.329 311.54 661.71C311.54 654.24 313.361 648.431 317.003 644.284C320.645 640.137 325.669 638.064 332.076 638.064C337.525 638.064 341.978 639.287 345.434 641.732C348.916 644.178 350.976 648.498 351.614 654.692ZM395.716 644.603C399.385 649.202 401.219 654.639 401.219 660.912C401.219 667.292 399.385 672.755 395.716 677.301C392.048 681.82 386.478 684.08 379.008 684.08C371.539 684.08 365.969 681.82 362.301 677.301C358.632 672.755 356.798 667.292 356.798 660.912C356.798 654.639 358.632 649.202 362.301 644.603C365.969 640.005 371.539 637.705 379.008 637.705C386.478 637.705 392.048 640.005 395.716 644.603ZM378.969 647.315C375.646 647.315 373.08 648.498 371.273 650.864C369.492 653.203 368.601 656.553 368.601 660.912C368.601 665.272 369.492 668.635 371.273 671.001C373.08 673.367 375.646 674.55 378.969 674.55C382.292 674.55 384.844 673.367 386.625 671.001C388.406 668.635 389.296 665.272 389.296 660.912C389.296 656.553 388.406 653.203 386.625 650.864C384.844 648.498 382.292 647.315 378.969 647.315ZM448.949 623.868V682.564H437.904V676.543C436.282 679.122 434.435 680.996 432.361 682.166C430.288 683.335 427.709 683.92 424.626 683.92C419.548 683.92 415.268 681.873 411.786 677.779C408.33 673.659 406.602 668.382 406.602 661.949C406.602 654.532 408.303 648.697 411.706 644.444C415.135 640.191 419.708 638.064 425.423 638.064C428.055 638.064 430.394 638.649 432.441 639.818C434.488 640.962 436.149 642.557 437.425 644.603V623.868H448.949ZM418.325 661.112C418.325 665.126 419.123 668.329 420.718 670.722C422.286 673.141 424.679 674.35 427.895 674.35C431.112 674.35 433.558 673.154 435.232 670.761C436.907 668.369 437.744 665.272 437.744 661.471C437.744 656.154 436.402 652.352 433.717 650.066C432.069 648.684 430.155 647.993 427.975 647.993C424.652 647.993 422.206 649.256 420.638 651.781C419.096 654.28 418.325 657.39 418.325 661.112ZM496.52 669.804C496.228 672.383 494.885 675.001 492.493 677.66C488.771 681.887 483.561 684 476.862 684C471.332 684 466.454 682.219 462.228 678.657C458.001 675.095 455.887 669.299 455.887 661.271C455.887 653.748 457.788 647.98 461.59 643.965C465.418 639.951 470.375 637.944 476.463 637.944C480.078 637.944 483.335 638.622 486.232 639.978C489.13 641.334 491.522 643.474 493.41 646.398C495.111 648.976 496.214 651.967 496.72 655.37C497.012 657.363 497.132 660.234 497.078 663.983H467.332C467.491 668.342 468.86 671.399 471.439 673.154C473.007 674.244 474.895 674.789 477.101 674.789C479.44 674.789 481.341 674.124 482.803 672.795C483.601 672.077 484.305 671.08 484.917 669.804H496.52ZM485.275 656.486C485.089 653.482 484.172 651.209 482.524 649.668C480.902 648.099 478.882 647.315 476.463 647.315C473.831 647.315 471.784 648.139 470.322 649.787C468.887 651.435 467.983 653.668 467.611 656.486H485.275Z" fill="#C2C2C2"/>
<path d="M37.4432 202.678C37.4432 200.063 36.5171 198.047 34.6648 196.63C32.8397 195.214 29.5301 193.784 24.7359 192.34C19.9417 190.896 16.1282 189.289 13.2952 187.519C7.87452 184.114 5.16417 179.674 5.16417 174.199C5.16417 169.404 7.11181 165.455 11.0071 162.349C14.9296 159.244 20.0098 157.691 26.2477 157.691C30.3882 157.691 34.0791 158.454 37.3207 159.979C40.5622 161.505 43.1091 163.684 44.9614 166.517C46.8137 169.323 47.7399 172.442 47.7399 175.874H37.4432C37.4432 172.768 36.4626 170.344 34.5014 168.601C32.5673 166.83 29.7889 165.945 26.166 165.945C22.7883 165.945 20.1596 166.667 18.2801 168.11C16.4278 169.554 15.5016 171.57 15.5016 174.158C15.5016 176.337 16.5095 178.162 18.5253 179.633C20.541 181.077 23.8642 182.493 28.495 183.882C33.1257 185.244 36.844 186.811 39.6497 188.581C42.4554 190.324 44.512 192.34 45.8195 194.628C47.127 196.889 47.7807 199.545 47.7807 202.596C47.7807 207.554 45.8739 211.503 42.0604 214.445C38.2741 217.36 33.1257 218.817 26.6155 218.817C22.3116 218.817 18.3482 218.027 14.7253 216.447C11.1297 214.84 8.32398 212.634 6.30824 209.828C4.31974 207.022 3.32549 203.754 3.32549 200.022H13.663C13.663 203.4 14.7798 206.015 17.0135 207.867C19.2471 209.719 22.4478 210.645 26.6155 210.645C30.2111 210.645 32.9078 209.923 34.7057 208.48C36.5307 207.009 37.4432 205.075 37.4432 202.678ZM74.0534 210.89C76.5322 210.89 78.5888 210.169 80.2232 208.725C81.8576 207.281 82.7293 205.497 82.8382 203.372H92.1951C92.0861 206.123 91.2281 208.698 89.6209 211.095C88.0138 213.465 85.8346 215.344 83.0834 216.733C80.3322 218.123 77.3631 218.817 74.176 218.817C67.9926 218.817 63.0894 216.815 59.4666 212.811C55.8437 208.807 54.0322 203.277 54.0322 196.222V195.2C54.0322 188.472 55.8301 183.092 59.4257 179.061C63.0213 175.002 67.9245 172.973 74.1352 172.973C79.3924 172.973 83.6691 174.512 86.9651 177.59C90.2883 180.641 92.0317 184.659 92.1951 189.643H82.8382C82.7293 187.11 81.8576 185.026 80.2232 183.392C78.6161 181.758 76.5595 180.94 74.0534 180.94C70.8391 180.94 68.3603 182.112 66.617 184.454C64.8736 186.77 63.9884 190.297 63.9611 195.037V196.63C63.9611 201.425 64.8192 205.007 66.5353 207.377C68.2786 209.719 70.7847 210.89 74.0534 210.89ZM126.109 218C125.673 217.156 125.291 215.78 124.964 213.873C121.805 217.169 117.937 218.817 113.36 218.817C108.92 218.817 105.297 217.551 102.492 215.017C99.686 212.484 98.2832 209.351 98.2832 205.62C98.2832 200.907 100.027 197.298 103.513 194.792C107.027 192.258 112.039 190.992 118.55 190.992H124.638V188.091C124.638 185.803 123.997 183.978 122.717 182.616C121.437 181.226 119.489 180.532 116.874 180.532C114.613 180.532 112.761 181.104 111.317 182.248C109.874 183.365 109.152 184.795 109.152 186.538H99.2229C99.2229 184.114 100.027 181.853 101.634 179.755C103.241 177.631 105.42 175.969 108.171 174.771C110.95 173.572 114.041 172.973 117.446 172.973C122.622 172.973 126.749 174.28 129.827 176.895C132.905 179.483 134.485 183.133 134.566 187.846V207.785C134.566 211.762 135.125 214.936 136.242 217.305V218H126.109ZM115.199 210.85C117.16 210.85 118.999 210.373 120.715 209.419C122.458 208.466 123.766 207.186 124.638 205.579V197.243H119.285C115.608 197.243 112.843 197.883 110.99 199.164C109.138 200.444 108.212 202.255 108.212 204.598C108.212 206.505 108.839 208.03 110.092 209.174C111.372 210.291 113.074 210.85 115.199 210.85ZM154.179 173.79L154.465 178.897C157.734 174.948 162.024 172.973 167.336 172.973C176.543 172.973 181.228 178.244 181.392 188.785V218H171.463V189.357C171.463 186.552 170.85 184.482 169.624 183.147C168.425 181.785 166.451 181.104 163.699 181.104C159.695 181.104 156.712 182.915 154.751 186.538V218H144.822V173.79H154.179ZM224.825 163.044V173.79H232.629V181.145H224.825V205.824C224.825 207.513 225.152 208.738 225.806 209.501C226.487 210.237 227.685 210.604 229.402 210.604C230.546 210.604 231.703 210.468 232.875 210.196V217.877C230.614 218.504 228.435 218.817 226.337 218.817C218.71 218.817 214.896 214.609 214.896 206.192V181.145H207.623V173.79H214.896V163.044H224.825ZM237.165 195.486C237.165 191.155 238.023 187.26 239.739 183.801C241.455 180.314 243.866 177.644 246.971 175.792C250.077 173.913 253.645 172.973 257.676 172.973C263.642 172.973 268.477 174.893 272.182 178.734C275.913 182.575 277.929 187.669 278.229 194.015L278.27 196.344C278.27 200.703 277.425 204.598 275.736 208.03C274.075 211.462 271.678 214.118 268.545 215.998C265.44 217.877 261.844 218.817 257.758 218.817C251.52 218.817 246.522 216.747 242.763 212.607C239.031 208.439 237.165 202.896 237.165 195.977V195.486ZM247.094 196.344C247.094 200.893 248.034 204.462 249.913 207.05C251.793 209.61 254.408 210.89 257.758 210.89C261.109 210.89 263.71 209.583 265.562 206.968C267.442 204.353 268.382 200.526 268.382 195.486C268.382 191.019 267.415 187.478 265.481 184.863C263.574 182.248 260.972 180.94 257.676 180.94C254.435 180.94 251.861 182.234 249.954 184.822C248.047 187.383 247.094 191.223 247.094 196.344ZM332.286 205.987C332.286 204.217 331.551 202.868 330.08 201.942C328.636 201.016 326.225 200.199 322.847 199.491C319.47 198.782 316.65 197.883 314.39 196.794C309.432 194.397 306.953 190.924 306.953 186.375C306.953 182.561 308.56 179.374 311.775 176.814C314.989 174.253 319.075 172.973 324.032 172.973C329.317 172.973 333.58 174.28 336.821 176.895C340.09 179.51 341.725 182.902 341.725 187.069H331.796C331.796 185.163 331.087 183.583 329.671 182.33C328.255 181.049 326.375 180.409 324.032 180.409C321.853 180.409 320.069 180.913 318.68 181.921C317.318 182.929 316.637 184.277 316.637 185.966C316.637 187.492 317.277 188.676 318.557 189.521C319.837 190.365 322.425 191.223 326.321 192.095C330.216 192.939 333.267 193.961 335.473 195.159C337.707 196.331 339.355 197.747 340.417 199.409C341.507 201.071 342.051 203.086 342.051 205.456C342.051 209.433 340.403 212.661 337.107 215.14C333.811 217.591 329.494 218.817 324.155 218.817C320.532 218.817 317.304 218.163 314.471 216.856C311.638 215.548 309.432 213.751 307.852 211.462C306.272 209.174 305.482 206.709 305.482 204.067H315.125C315.261 206.409 316.146 208.221 317.781 209.501C319.415 210.754 321.581 211.381 324.278 211.381C326.893 211.381 328.881 210.89 330.243 209.91C331.605 208.902 332.286 207.594 332.286 205.987ZM370.204 218.817C363.911 218.817 358.804 216.842 354.881 212.893C350.986 208.916 349.038 203.631 349.038 197.039V195.813C349.038 191.4 349.883 187.464 351.572 184.005C353.288 180.518 355.685 177.808 358.763 175.874C361.841 173.94 365.273 172.973 369.06 172.973C375.08 172.973 379.724 174.893 382.993 178.734C386.289 182.575 387.937 188.009 387.937 195.037V199.041H359.049C359.349 202.691 360.561 205.579 362.686 207.703C364.838 209.828 367.534 210.89 370.776 210.89C375.325 210.89 379.029 209.052 381.89 205.374L387.242 210.482C385.472 213.124 383.102 215.181 380.133 216.652C377.191 218.095 373.881 218.817 370.204 218.817ZM369.019 180.94C366.295 180.94 364.088 181.894 362.4 183.801C360.738 185.707 359.676 188.363 359.213 191.768H378.13V191.033C377.913 187.709 377.027 185.203 375.475 183.515C373.922 181.798 371.77 180.94 369.019 180.94ZM404.894 173.79L405.18 178.897C408.448 174.948 412.739 172.973 418.05 172.973C427.257 172.973 431.943 178.244 432.106 188.785V218H422.177V189.357C422.177 186.552 421.564 184.482 420.338 183.147C419.14 181.785 417.165 181.104 414.414 181.104C410.41 181.104 407.427 182.915 405.466 186.538V218H395.537V173.79H404.894ZM440.4 195.568C440.4 188.758 441.98 183.297 445.14 179.183C448.3 175.043 452.536 172.973 457.848 172.973C462.533 172.973 466.319 174.607 469.206 177.876V155.24H479.135V218H470.146L469.656 213.424C466.687 217.019 462.723 218.817 457.766 218.817C452.59 218.817 448.395 216.733 445.181 212.566C441.994 208.398 440.4 202.732 440.4 195.568ZM450.329 196.426C450.329 200.921 451.187 204.435 452.904 206.968C454.647 209.474 457.112 210.727 460.299 210.727C464.358 210.727 467.327 208.916 469.206 205.293V186.416C467.381 182.874 464.44 181.104 460.381 181.104C457.167 181.104 454.688 182.384 452.944 184.945C451.201 187.478 450.329 191.305 450.329 196.426ZM546.063 191.441H521.629V209.746H550.19V218H511.292V158.508H549.904V166.844H521.629V183.269H546.063V191.441ZM602.409 166.844H583.859V218H573.603V166.844H555.216V158.508H602.409V166.844ZM657.488 218H647.191V191.564H620.591V218H610.254V158.508H620.591V183.269H647.191V158.508H657.488V218Z" fill="#333333"/>
<rect x="1" y="229" width="663" height="11" fill="#333333"/>
</svg>
