<svg width="1000" height="1000" viewBox="0 0 1000 1000" fill="none" xmlns="http://www.w3.org/2000/svg">
<rect x="90.5" y="34.5" width="799" height="156" rx="78" fill="white" stroke="black" stroke-width="11"/>
<circle cx="493" cy="603" r="388.5" fill="white" stroke="#333333" stroke-width="17"/>
<rect x="245" y="355" width="496" height="496" rx="7.22757" fill="white"/>
<path d="M601.234 403.686H695.357V497.808" stroke="#C2C2C2" stroke-width="17.8847"/>
<path d="M384.75 403.686H290.627V497.808" stroke="#C2C2C2" stroke-width="17.8847"/>
<path d="M601.234 808.41H695.357V714.287" stroke="#C2C2C2" stroke-width="17.8847"/>
<path d="M384.75 808.41H290.627V714.287" stroke="#C2C2C2" stroke-width="17.8847"/>
<path d="M386.669 565.121L379.268 543.584L371.404 565.121H386.669ZM375.817 536.35H383.284L400.971 585.098H393.737L388.792 570.496H369.512L364.236 585.098H357.466L375.817 536.35ZM409.964 567.742C409.964 571.547 410.772 574.733 412.387 577.299C414.002 579.866 416.59 581.149 420.152 581.149C422.917 581.149 425.185 579.965 426.955 577.598C428.747 575.209 429.643 571.791 429.643 567.344C429.643 562.853 428.725 559.534 426.888 557.389C425.052 555.22 422.784 554.136 420.085 554.136C417.077 554.136 414.632 555.287 412.752 557.588C410.893 559.888 409.964 563.273 409.964 567.742ZM418.957 548.926C421.678 548.926 423.957 549.502 425.793 550.652C426.855 551.316 428.061 552.477 429.41 554.136V536.184H435.151V585.098H429.775V580.153C428.382 582.343 426.733 583.925 424.831 584.899C422.928 585.872 420.749 586.359 418.294 586.359C414.333 586.359 410.904 584.699 408.006 581.381C405.108 578.04 403.659 573.605 403.659 568.074C403.659 562.897 404.975 558.417 407.608 554.634C410.263 550.829 414.046 548.926 418.957 548.926ZM447.795 567.742C447.795 571.547 448.602 574.733 450.217 577.299C451.832 579.866 454.42 581.149 457.982 581.149C460.748 581.149 463.015 579.965 464.785 577.598C466.577 575.209 467.473 571.791 467.473 567.344C467.473 562.853 466.555 559.534 464.719 557.389C462.883 555.22 460.615 554.136 457.916 554.136C454.907 554.136 452.463 555.287 450.582 557.588C448.724 559.888 447.795 563.273 447.795 567.742ZM456.788 548.926C459.509 548.926 461.787 549.502 463.624 550.652C464.686 551.316 465.891 552.477 467.241 554.136V536.184H472.982V585.098H467.606V580.153C466.212 582.343 464.564 583.925 462.661 584.899C460.759 585.872 458.58 586.359 456.124 586.359C452.164 586.359 448.735 584.699 445.837 581.381C442.939 578.04 441.49 573.605 441.49 568.074C441.49 562.897 442.806 558.417 445.438 554.634C448.093 550.829 451.876 548.926 456.788 548.926ZM522.958 549.557H529.561C528.721 551.836 526.851 557.035 523.953 565.154C521.785 571.26 519.971 576.237 518.511 580.087C515.06 589.157 512.626 594.688 511.21 596.679C509.794 598.67 507.361 599.666 503.91 599.666C503.069 599.666 502.416 599.633 501.952 599.566C501.509 599.5 500.956 599.378 500.293 599.201V593.759C501.332 594.046 502.085 594.223 502.549 594.29C503.014 594.356 503.423 594.389 503.777 594.389C504.883 594.389 505.691 594.201 506.199 593.825C506.73 593.471 507.173 593.029 507.527 592.498C507.637 592.321 508.036 591.414 508.721 589.777C509.407 588.14 509.905 586.923 510.215 586.126L497.074 549.557H503.843L513.367 578.494L522.958 549.557ZM548.842 581.248C552.802 581.248 555.512 579.755 556.972 576.768C558.454 573.76 559.195 570.419 559.195 566.747C559.195 563.428 558.664 560.729 557.602 558.65C555.921 555.375 553.023 553.738 548.908 553.738C545.258 553.738 542.603 555.132 540.944 557.919C539.285 560.707 538.455 564.07 538.455 568.008C538.455 571.791 539.285 574.943 540.944 577.465C542.603 579.987 545.236 581.248 548.842 581.248ZM549.074 548.528C553.653 548.528 557.525 550.055 560.689 553.108C563.852 556.161 565.434 560.652 565.434 566.581C565.434 572.311 564.04 577.045 561.253 580.784C558.465 584.522 554.14 586.392 548.278 586.392C543.388 586.392 539.506 584.744 536.63 581.447C533.754 578.129 532.316 573.682 532.316 568.107C532.316 562.134 533.831 557.377 536.862 553.838C539.893 550.298 543.964 548.528 549.074 548.528ZM578.542 549.557V573.151C578.542 574.965 578.829 576.448 579.405 577.598C580.467 579.722 582.447 580.784 585.345 580.784C589.504 580.784 592.336 578.925 593.84 575.209C594.658 573.218 595.068 570.485 595.068 567.012V549.557H601.041V585.098H595.4L595.466 579.854C594.692 581.204 593.729 582.343 592.579 583.273C590.3 585.131 587.535 586.06 584.283 586.06C579.217 586.06 575.765 584.368 573.929 580.983C572.934 579.169 572.436 576.746 572.436 573.715V549.557H578.542ZM610.565 549.557H616.24V555.696C616.704 554.501 617.843 553.052 619.658 551.349C621.472 549.623 623.562 548.761 625.929 548.761C626.04 548.761 626.228 548.772 626.494 548.794C626.759 548.816 627.213 548.86 627.854 548.926V555.232C627.5 555.165 627.168 555.121 626.859 555.099C626.571 555.077 626.25 555.066 625.896 555.066C622.888 555.066 620.576 556.039 618.961 557.986C617.346 559.911 616.538 562.134 616.538 564.656V585.098H610.565V549.557Z" fill="#C2C2C2"/>
<path d="M387.271 669.863C385.081 670.593 382.459 670.958 379.406 670.958C373.035 670.958 367.77 669.056 363.61 665.25C358.566 660.671 356.044 653.946 356.044 645.074C356.044 636.137 358.633 629.378 363.81 624.798C368.035 621.06 373.289 619.19 379.572 619.19C385.899 619.19 391.209 621.17 395.501 625.13C400.456 629.71 402.934 636.114 402.934 644.344C402.934 648.702 402.403 652.353 401.341 655.295C400.479 658.105 399.206 660.439 397.525 662.297L403.166 667.573L397.824 673.148L391.917 667.573C390.125 668.657 388.576 669.421 387.271 669.863ZM385.081 661.036L380.136 656.324L385.413 650.815L390.357 655.527C391.132 653.935 391.674 652.541 391.983 651.346C392.47 649.554 392.713 647.464 392.713 645.074C392.713 639.588 391.585 635.351 389.328 632.365C387.094 629.356 383.82 627.851 379.506 627.851C375.457 627.851 372.227 629.289 369.816 632.165C367.405 635.041 366.199 639.344 366.199 645.074C366.199 651.778 367.924 656.578 371.376 659.476C373.61 661.357 376.287 662.297 379.406 662.297C380.579 662.297 381.707 662.153 382.791 661.866C383.388 661.711 384.152 661.434 385.081 661.036ZM431.539 650.417H420.987V669.598H410.998V620.684H434.99C438.42 620.75 441.052 621.17 442.888 621.945C444.747 622.719 446.317 623.858 447.601 625.363C448.663 626.602 449.503 627.973 450.123 629.477C450.742 630.982 451.052 632.696 451.052 634.621C451.052 636.944 450.466 639.234 449.293 641.49C448.121 643.725 446.185 645.307 443.486 646.236C445.742 647.143 447.335 648.437 448.264 650.118C449.216 651.778 449.691 654.322 449.691 657.751V661.036C449.691 663.27 449.78 664.786 449.957 665.582C450.222 666.843 450.842 667.773 451.815 668.37V669.598H440.565C440.256 668.514 440.035 667.64 439.902 666.976C439.636 665.604 439.493 664.2 439.47 662.762L439.404 658.215C439.36 655.096 438.785 653.016 437.678 651.977C436.594 650.937 434.548 650.417 431.539 650.417ZM437.745 641.524C439.78 640.594 440.798 638.758 440.798 636.015C440.798 633.05 439.813 631.059 437.844 630.042C436.738 629.466 435.079 629.179 432.867 629.179H420.987V642.32H432.568C434.869 642.32 436.594 642.054 437.745 641.524ZM509.324 646.402H499.634C499.457 645.052 499.004 643.835 498.273 642.751C497.212 641.291 495.563 640.561 493.329 640.561C490.143 640.561 487.964 642.143 486.792 645.307C486.172 646.988 485.862 649.222 485.862 652.01C485.862 654.665 486.172 656.799 486.792 658.414C487.92 661.423 490.044 662.928 493.163 662.928C495.375 662.928 496.946 662.33 497.875 661.136C498.804 659.941 499.369 658.392 499.568 656.49H509.224C509.003 659.366 507.963 662.087 506.105 664.653C503.141 668.79 498.749 670.859 492.931 670.859C487.112 670.859 482.832 669.133 480.088 665.682C477.345 662.231 475.973 657.751 475.973 652.242C475.973 646.026 477.489 641.192 480.52 637.74C483.551 634.289 487.732 632.564 493.063 632.564C497.599 632.564 501.304 633.581 504.18 635.617C507.078 637.652 508.793 641.247 509.324 646.402ZM546.026 638.006C549.079 641.833 550.606 646.357 550.606 651.578C550.606 656.888 549.079 661.434 546.026 665.217C542.973 668.978 538.338 670.859 532.122 670.859C525.905 670.859 521.27 668.978 518.217 665.217C515.164 661.434 513.638 656.888 513.638 651.578C513.638 646.357 515.164 641.833 518.217 638.006C521.27 634.179 525.905 632.265 532.122 632.265C538.338 632.265 542.973 634.179 546.026 638.006ZM532.089 640.262C529.323 640.262 527.188 641.247 525.684 643.216C524.202 645.163 523.461 647.95 523.461 651.578C523.461 655.207 524.202 658.005 525.684 659.974C527.188 661.943 529.323 662.928 532.089 662.928C534.854 662.928 536.978 661.943 538.46 659.974C539.942 658.005 540.683 655.207 540.683 651.578C540.683 647.95 539.942 645.163 538.46 643.216C536.978 641.247 534.854 640.262 532.089 640.262ZM590.327 620.75V669.598H581.135V664.587C579.786 666.733 578.248 668.292 576.523 669.266C574.797 670.239 572.651 670.726 570.085 670.726C565.859 670.726 562.298 669.022 559.399 665.616C556.523 662.186 555.085 657.795 555.085 652.441C555.085 646.269 556.501 641.413 559.333 637.873C562.187 634.334 565.992 632.564 570.749 632.564C572.939 632.564 574.886 633.05 576.589 634.024C578.293 634.975 579.675 636.302 580.737 638.006V620.75H590.327ZM564.842 651.744C564.842 655.085 565.505 657.751 566.833 659.742C568.138 661.755 570.129 662.762 572.806 662.762C575.483 662.762 577.518 661.766 578.912 659.775C580.306 657.784 581.003 655.207 581.003 652.043C581.003 647.618 579.885 644.455 577.651 642.552C576.279 641.402 574.686 640.827 572.872 640.827C570.107 640.827 568.072 641.877 566.766 643.979C565.483 646.059 564.842 648.647 564.842 651.744ZM629.917 658.979C629.673 661.125 628.556 663.304 626.565 665.516C623.468 669.034 619.132 670.792 613.557 670.792C608.955 670.792 604.896 669.31 601.378 666.346C597.86 663.381 596.102 658.558 596.102 651.877C596.102 645.616 597.683 640.816 600.847 637.475C604.033 634.134 608.159 632.464 613.225 632.464C616.234 632.464 618.944 633.028 621.355 634.157C623.767 635.285 625.758 637.066 627.328 639.499C628.744 641.645 629.662 644.134 630.083 646.966C630.326 648.625 630.426 651.014 630.381 654.134H605.626C605.758 657.762 606.898 660.306 609.044 661.766C610.349 662.673 611.92 663.127 613.756 663.127C615.703 663.127 617.284 662.574 618.501 661.467C619.165 660.87 619.751 660.04 620.26 658.979H629.917ZM620.559 647.895C620.404 645.395 619.641 643.504 618.269 642.22C616.919 640.915 615.238 640.262 613.225 640.262C611.035 640.262 609.331 640.948 608.114 642.32C606.92 643.692 606.168 645.55 605.858 647.895H620.559Z" fill="#C2C2C2"/>
<path d="M184.581 123.556C184.581 121.432 183.829 119.795 182.325 118.644C180.843 117.494 178.155 116.333 174.261 115.16C170.367 113.988 167.27 112.682 164.969 111.244C160.567 108.479 158.365 104.873 158.365 100.426C158.365 96.5325 159.947 93.3246 163.111 90.8026C166.297 88.2806 170.423 87.0196 175.489 87.0196C178.851 87.0196 181.849 87.639 184.482 88.8779C187.114 90.1168 189.183 91.8866 190.687 94.1874C192.192 96.4661 192.944 98.9992 192.944 101.787H184.581C184.581 99.2647 183.785 97.2957 182.192 95.8798C180.621 94.4418 178.365 93.7228 175.422 93.7228C172.679 93.7228 170.544 94.3091 169.018 95.4816C167.513 96.6541 166.761 98.2913 166.761 100.393C166.761 102.163 167.58 103.645 169.217 104.84C170.854 106.012 173.553 107.163 177.314 108.291C181.075 109.397 184.095 110.669 186.373 112.107C188.652 113.523 190.322 115.16 191.384 117.018C192.446 118.855 192.977 121.012 192.977 123.489C192.977 127.516 191.428 130.724 188.331 133.113C185.256 135.48 181.075 136.664 175.787 136.664C172.292 136.664 169.073 136.022 166.131 134.739C163.21 133.434 160.932 131.642 159.295 129.363C157.68 127.084 156.872 124.43 156.872 121.399H165.268C165.268 124.142 166.175 126.266 167.989 127.77C169.803 129.275 172.403 130.027 175.787 130.027C178.708 130.027 180.898 129.441 182.358 128.268C183.84 127.073 184.581 125.503 184.581 123.556ZM214.315 130.226C216.328 130.226 217.998 129.64 219.326 128.467C220.653 127.295 221.361 125.846 221.449 124.12H229.049C228.96 126.354 228.263 128.445 226.958 130.392C225.653 132.317 223.883 133.843 221.648 134.971C219.414 136.1 217.003 136.664 214.414 136.664C209.392 136.664 205.41 135.038 202.468 131.786C199.525 128.533 198.054 124.042 198.054 118.313V117.483C198.054 112.019 199.514 107.649 202.435 104.375C205.355 101.079 209.337 99.4306 214.381 99.4306C218.651 99.4306 222.124 100.681 224.801 103.18C227.5 105.658 228.916 108.921 229.049 112.97H221.449C221.361 110.912 220.653 109.22 219.326 107.893C218.02 106.565 216.35 105.902 214.315 105.902C211.704 105.902 209.691 106.853 208.275 108.755C206.859 110.636 206.14 113.501 206.118 117.35V118.644C206.118 122.538 206.815 125.447 208.209 127.372C209.625 129.275 211.66 130.226 214.315 130.226ZM256.592 136C256.238 135.314 255.928 134.197 255.663 132.648C253.096 135.325 249.955 136.664 246.238 136.664C242.632 136.664 239.69 135.635 237.411 133.578C235.132 131.52 233.993 128.976 233.993 125.945C233.993 122.118 235.409 119.186 238.241 117.151C241.095 115.094 245.165 114.065 250.453 114.065H255.397V111.709C255.397 109.851 254.877 108.368 253.838 107.262C252.798 106.134 251.216 105.57 249.092 105.57C247.256 105.57 245.752 106.034 244.579 106.963C243.407 107.871 242.82 109.032 242.82 110.448H234.756C234.756 108.479 235.409 106.643 236.714 104.939C238.02 103.214 239.789 101.864 242.024 100.891C244.28 99.9173 246.791 99.4306 249.557 99.4306C253.76 99.4306 257.112 100.492 259.612 102.616C262.112 104.718 263.395 107.682 263.461 111.51V127.704C263.461 130.934 263.915 133.511 264.822 135.436V136H256.592ZM247.732 130.193C249.324 130.193 250.818 129.806 252.211 129.031C253.627 128.257 254.689 127.217 255.397 125.912V119.142H251.05C248.063 119.142 245.818 119.662 244.314 120.702C242.809 121.742 242.057 123.213 242.057 125.115C242.057 126.664 242.566 127.903 243.584 128.832C244.623 129.739 246.006 130.193 247.732 130.193ZM279.39 100.094L279.622 104.242C282.277 101.035 285.761 99.4306 290.075 99.4306C297.553 99.4306 301.358 103.711 301.491 112.273V136H293.427V112.738C293.427 110.459 292.929 108.778 291.933 107.694C290.96 106.587 289.356 106.034 287.122 106.034C283.87 106.034 281.447 107.506 279.854 110.448V136H271.79V100.094H279.39ZM336.766 91.3667V100.094H343.104V106.068H336.766V126.111C336.766 127.483 337.031 128.478 337.562 129.098C338.115 129.695 339.089 129.994 340.482 129.994C341.412 129.994 342.352 129.883 343.303 129.662V135.9C341.467 136.409 339.697 136.664 337.994 136.664C331.799 136.664 328.702 133.246 328.702 126.41V106.068H322.795V100.094H328.702V91.3667H336.766ZM346.788 117.715C346.788 114.198 347.484 111.034 348.878 108.225C350.272 105.393 352.23 103.225 354.752 101.72C357.274 100.194 360.172 99.4306 363.446 99.4306C368.291 99.4306 372.218 100.99 375.227 104.11C378.258 107.229 379.895 111.366 380.138 116.521L380.171 118.412C380.171 121.952 379.485 125.115 378.114 127.903C376.764 130.69 374.817 132.847 372.273 134.374C369.751 135.9 366.831 136.664 363.513 136.664C358.446 136.664 354.387 134.982 351.334 131.62C348.303 128.235 346.788 123.733 346.788 118.114V117.715ZM354.851 118.412C354.851 122.107 355.615 125.005 357.141 127.107C358.668 129.186 360.791 130.226 363.513 130.226C366.234 130.226 368.346 129.164 369.851 127.04C371.377 124.916 372.141 121.808 372.141 117.715C372.141 114.087 371.355 111.211 369.784 109.087C368.236 106.963 366.123 105.902 363.446 105.902C360.814 105.902 358.723 106.952 357.174 109.054C355.626 111.134 354.851 114.253 354.851 118.412ZM435.424 118.412C435.424 123.987 434.174 128.423 431.674 131.719C429.196 135.016 425.778 136.664 421.42 136.664C417.216 136.664 413.942 135.148 411.597 132.117L411.199 136H403.898V85.0285H411.962V103.545C414.285 100.802 417.415 99.4306 421.353 99.4306C425.734 99.4306 429.174 101.057 431.674 104.309C434.174 107.561 435.424 112.107 435.424 117.948V118.412ZM427.36 117.715C427.36 113.822 426.674 110.901 425.302 108.955C423.931 107.008 421.94 106.034 419.329 106.034C415.834 106.034 413.378 107.561 411.962 110.614V125.414C413.4 128.533 415.878 130.093 419.395 130.093C421.917 130.093 423.864 129.153 425.236 127.272C426.608 125.392 427.315 122.549 427.36 118.744V117.715ZM463.962 132.482C461.595 135.27 458.232 136.664 453.874 136.664C449.981 136.664 447.027 135.524 445.014 133.246C443.023 130.967 442.027 127.671 442.027 123.357V100.094H450.091V123.257C450.091 127.814 451.983 130.093 455.766 130.093C459.682 130.093 462.325 128.688 463.697 125.879V100.094H471.761V136H464.161L463.962 132.482ZM492.534 124.452L499.835 100.094H508.43L494.16 141.442C491.97 147.482 488.253 150.502 483.01 150.502C481.838 150.502 480.544 150.303 479.128 149.904V143.666L480.654 143.765C482.689 143.765 484.216 143.389 485.234 142.637C486.273 141.907 487.092 140.668 487.689 138.92L488.851 135.834L476.241 100.094H484.935L492.534 124.452ZM530.796 136V87.6833H547.355C552.82 87.6833 556.979 88.7783 559.833 90.9685C562.686 93.1587 564.113 96.4219 564.113 100.758C564.113 102.97 563.516 104.961 562.321 106.731C561.127 108.501 559.379 109.873 557.078 110.846C559.689 111.554 561.702 112.892 563.118 114.861C564.556 116.808 565.275 119.153 565.275 121.897C565.275 126.432 563.815 129.916 560.894 132.35C557.996 134.783 553.837 136 548.417 136H530.796ZM539.192 114.198V129.297H548.517C551.149 129.297 553.207 128.644 554.689 127.339C556.171 126.034 556.912 124.219 556.912 121.897C556.912 116.875 554.346 114.308 549.213 114.198H539.192ZM539.192 108.025H547.422C550.032 108.025 552.067 107.439 553.527 106.267C555.01 105.072 555.751 103.391 555.751 101.223C555.751 98.8333 555.065 97.1077 553.693 96.0458C552.344 94.9839 550.231 94.4529 547.355 94.4529H539.192V108.025ZM607.652 94.4529H592.586V136H584.256V94.4529H569.323V87.6833H607.652V94.4529ZM649.962 120.271C649.475 125.425 647.573 129.452 644.254 132.35C640.936 135.226 636.522 136.664 631.013 136.664C627.164 136.664 623.768 135.757 620.826 133.943C617.906 132.106 615.649 129.507 614.056 126.144C612.463 122.781 611.634 118.877 611.567 114.43V109.917C611.567 105.36 612.375 101.344 613.99 97.8709C615.605 94.3976 617.917 91.7207 620.925 89.8402C623.956 87.9598 627.452 87.0196 631.412 87.0196C636.743 87.0196 641.035 88.4686 644.287 91.3667C647.539 94.2649 649.431 98.3576 649.962 103.645H641.599C641.201 100.172 640.183 97.6718 638.546 96.1453C636.931 94.5967 634.553 93.8224 631.412 93.8224C627.761 93.8224 624.952 95.1608 622.983 97.8377C621.036 100.492 620.04 104.397 619.996 109.552V113.833C619.996 119.054 620.925 123.036 622.784 125.779C624.664 128.522 627.407 129.894 631.013 129.894C634.31 129.894 636.788 129.153 638.447 127.671C640.106 126.188 641.157 123.722 641.599 120.271H649.962Z" fill="#333333"/>
<ellipse cx="773" cy="147" rx="53" ry="21" fill="white" stroke="#333333" stroke-width="8"/>
<ellipse cx="773" cy="124" rx="53" ry="21" fill="white" stroke="#333333" stroke-width="8"/>
<ellipse cx="773" cy="101" rx="53" ry="21" fill="white" stroke="#333333" stroke-width="8"/>
<ellipse cx="773" cy="78" rx="53" ry="21" fill="white" stroke="#333333" stroke-width="8"/>
<path d="M720 76L720 146" stroke="#333333" stroke-width="8"/>
<path d="M826 76V146" stroke="#333333" stroke-width="8"/>
</svg>
