<svg width="1000" height="1000" viewBox="0 0 1000 1000" fill="none" xmlns="http://www.w3.org/2000/svg">
<rect x="1" y="1" width="677" height="677" rx="60" fill="#333333"/>
<rect x="321" y="321" width="677" height="677" rx="60" fill="#333333"/>
<rect x="148.5" y="148.5" width="696" height="696" rx="69.5" fill="white" stroke="#333333" stroke-width="19"/>
<path d="M643.734 233.879H769.168V359.313" stroke="#C2C2C2" stroke-width="23.8343"/>
<path d="M355.238 233.879H229.805V359.313" stroke="#C2C2C2" stroke-width="23.8343"/>
<path d="M643.734 773.24H769.168V647.806" stroke="#C2C2C2" stroke-width="23.8343"/>
<path d="M355.238 773.24H229.805V647.806" stroke="#C2C2C2" stroke-width="23.8343"/>
<path d="M357.797 449.057L347.935 420.356L337.454 449.057H357.797ZM343.336 410.715H353.286L376.858 475.68H367.217L360.627 456.221H334.933L327.902 475.68H318.88L343.336 410.715ZM388.842 452.551C388.842 457.622 389.918 461.867 392.071 465.287C394.223 468.707 397.672 470.417 402.419 470.417C406.104 470.417 409.126 468.84 411.485 465.685C413.873 462.501 415.067 457.946 415.067 452.02C415.067 446.035 413.843 441.613 411.396 438.753C408.949 435.864 405.927 434.419 402.331 434.419C398.321 434.419 395.063 435.952 392.557 439.018C390.081 442.084 388.842 446.595 388.842 452.551ZM400.827 427.476C404.453 427.476 407.49 428.242 409.937 429.775C411.352 430.66 412.959 432.208 414.757 434.419V410.494H422.408V475.68H415.244V469.09C413.386 472.009 411.19 474.117 408.655 475.414C406.119 476.712 403.215 477.36 399.942 477.36C394.665 477.36 390.095 475.149 386.233 470.727C382.371 466.275 380.44 460.364 380.44 452.993C380.44 446.094 382.194 440.124 385.702 435.082C389.24 430.011 394.282 427.476 400.827 427.476ZM439.257 452.551C439.257 457.622 440.334 461.867 442.486 465.287C444.638 468.707 448.087 470.417 452.834 470.417C456.519 470.417 459.541 468.84 461.9 465.685C464.288 462.501 465.482 457.946 465.482 452.02C465.482 446.035 464.259 441.613 461.812 438.753C459.365 435.864 456.343 434.419 452.746 434.419C448.736 434.419 445.478 435.952 442.972 439.018C440.496 442.084 439.257 446.595 439.257 452.551ZM451.242 427.476C454.868 427.476 457.905 428.242 460.352 429.775C461.767 430.66 463.374 432.208 465.173 434.419V410.494H472.823V475.68H465.659V469.09C463.802 472.009 461.605 474.117 459.07 475.414C456.534 476.712 453.63 477.36 450.358 477.36C445.08 477.36 440.51 475.149 436.648 470.727C432.786 466.275 430.855 460.364 430.855 452.993C430.855 446.094 432.609 440.124 436.118 435.082C439.655 430.011 444.697 427.476 451.242 427.476ZM539.424 428.316H548.225C547.105 431.353 544.613 438.281 540.751 449.101C537.862 457.238 535.444 463.872 533.498 469.002C528.899 481.09 525.656 488.46 523.769 491.114C521.882 493.767 518.639 495.094 514.04 495.094C512.92 495.094 512.05 495.05 511.431 494.961C510.841 494.873 510.104 494.711 509.219 494.475V487.222C510.605 487.605 511.608 487.841 512.227 487.93C512.846 488.018 513.391 488.062 513.863 488.062C515.337 488.062 516.413 487.812 517.091 487.311C517.799 486.839 518.389 486.249 518.86 485.542C519.008 485.306 519.538 484.097 520.452 481.915C521.366 479.734 522.03 478.112 522.442 477.051L504.93 428.316H513.951L526.644 466.879L539.424 428.316ZM573.919 470.55C579.196 470.55 582.808 468.56 584.754 464.58C586.729 460.57 587.717 456.118 587.717 451.224C587.717 446.802 587.009 443.205 585.594 440.433C583.353 436.07 579.491 433.888 574.007 433.888C569.143 433.888 565.605 435.746 563.394 439.46C561.182 443.175 560.077 447.657 560.077 452.904C560.077 457.946 561.182 462.147 563.394 465.508C565.605 468.869 569.113 470.55 573.919 470.55ZM574.228 426.945C580.331 426.945 585.491 428.979 589.707 433.048C593.923 437.117 596.031 443.101 596.031 451.003C596.031 458.639 594.173 464.948 590.459 469.931C586.744 474.913 580.98 477.404 573.167 477.404C566.651 477.404 561.477 475.208 557.645 470.815C553.812 466.393 551.895 460.467 551.895 453.037C551.895 445.077 553.915 438.738 557.954 434.021C561.993 429.304 567.418 426.945 574.228 426.945ZM613.499 428.316V459.759C613.499 462.177 613.883 464.152 614.649 465.685C616.064 468.515 618.703 469.931 622.565 469.931C628.108 469.931 631.882 467.454 633.886 462.501C634.977 459.848 635.523 456.206 635.523 451.578V428.316H643.483V475.68H635.965L636.053 468.692C635.021 470.491 633.739 472.009 632.206 473.247C629.169 475.724 625.484 476.962 621.15 476.962C614.398 476.962 609.799 474.707 607.352 470.196C606.025 467.778 605.362 464.55 605.362 460.511V428.316H613.499ZM656.175 428.316H663.737V436.497C664.357 434.905 665.875 432.974 668.292 430.704C670.71 428.404 673.496 427.255 676.651 427.255C676.798 427.255 677.049 427.269 677.403 427.299C677.756 427.328 678.361 427.387 679.216 427.476V435.878C678.744 435.79 678.302 435.731 677.889 435.701C677.506 435.672 677.078 435.657 676.607 435.657C672.597 435.657 669.516 436.954 667.364 439.549C665.212 442.114 664.135 445.077 664.135 448.438V475.68H656.175V428.316Z" fill="#C2C2C2"/>
<path d="M358.596 588.645C355.677 589.618 352.184 590.104 348.115 590.104C339.624 590.104 332.607 587.569 327.065 582.498C320.343 576.395 316.982 567.432 316.982 555.61C316.982 543.699 320.431 534.692 327.33 528.589C332.961 523.606 339.963 521.115 348.336 521.115C356.768 521.115 363.844 523.754 369.564 529.031C376.168 535.134 379.47 543.669 379.47 554.637C379.47 560.445 378.762 565.309 377.347 569.231C376.197 572.975 374.502 576.085 372.261 578.562L379.779 585.593L372.659 593.023L364.788 585.593C362.399 587.038 360.336 588.055 358.596 588.645ZM355.677 576.881L349.088 570.601L356.12 563.26L362.709 569.54C363.741 567.417 364.463 565.56 364.876 563.968C365.525 561.58 365.849 558.794 365.849 555.61C365.849 548.298 364.345 542.652 361.338 538.672C358.36 534.662 353.997 532.657 348.248 532.657C342.853 532.657 338.548 534.574 335.334 538.407C332.121 542.239 330.514 547.974 330.514 555.61C330.514 564.543 332.814 570.941 337.413 574.803C340.391 577.309 343.958 578.562 348.115 578.562C349.678 578.562 351.181 578.37 352.626 577.987C353.422 577.78 354.439 577.412 355.677 576.881ZM417.591 562.73H403.528V588.291H390.216V523.105H422.19C426.76 523.194 430.268 523.754 432.715 524.786C435.192 525.818 437.285 527.336 438.995 529.341C440.41 530.992 441.531 532.82 442.356 534.824C443.182 536.829 443.594 539.114 443.594 541.679C443.594 544.775 442.813 547.826 441.25 550.833C439.688 553.811 437.108 555.919 433.511 557.157C436.519 558.366 438.641 560.091 439.88 562.332C441.147 564.543 441.781 567.933 441.781 572.503V576.881C441.781 579.859 441.899 581.879 442.135 582.94C442.489 584.62 443.314 585.859 444.611 586.655V588.291H429.62C429.207 586.846 428.912 585.682 428.735 584.797C428.381 582.969 428.19 581.097 428.16 579.181L428.072 573.122C428.013 568.965 427.246 566.194 425.772 564.808C424.328 563.422 421.6 562.73 417.591 562.73ZM425.861 550.878C428.573 549.639 429.929 547.192 429.929 543.537C429.929 539.586 428.617 536.932 425.993 535.576C424.519 534.81 422.308 534.426 419.36 534.426H403.528V551.939H418.962C422.028 551.939 424.328 551.585 425.861 550.878ZM521.251 557.379H508.338C508.102 555.58 507.498 553.959 506.525 552.514C505.11 550.568 502.913 549.595 499.935 549.595C495.69 549.595 492.786 551.703 491.223 555.919C490.398 558.16 489.985 561.138 489.985 564.852C489.985 568.39 490.398 571.235 491.223 573.388C492.727 577.397 495.557 579.402 499.714 579.402C502.663 579.402 504.756 578.606 505.994 577.014C507.232 575.422 507.984 573.358 508.25 570.823H521.119C520.824 574.655 519.438 578.282 516.962 581.702C513.011 587.215 507.159 589.972 499.405 589.972C491.651 589.972 485.946 587.672 482.29 583.073C478.634 578.473 476.806 572.503 476.806 565.162C476.806 556.877 478.826 550.435 482.865 545.836C486.904 541.237 492.476 538.937 499.582 538.937C505.626 538.937 510.564 540.293 514.397 543.006C518.259 545.718 520.544 550.509 521.251 557.379ZM570.163 546.19C574.231 551.29 576.266 557.32 576.266 564.277C576.266 571.353 574.231 577.412 570.163 582.453C566.094 587.466 559.918 589.972 551.633 589.972C543.349 589.972 537.172 587.466 533.103 582.453C529.035 577.412 527 571.353 527 564.277C527 557.32 529.035 551.29 533.103 546.19C537.172 541.089 543.349 538.539 551.633 538.539C559.918 538.539 566.094 541.089 570.163 546.19ZM551.589 549.197C547.904 549.197 545.058 550.509 543.054 553.133C541.078 555.728 540.091 559.442 540.091 564.277C540.091 569.113 541.078 572.842 543.054 575.466C545.058 578.09 547.904 579.402 551.589 579.402C555.274 579.402 558.105 578.09 560.08 575.466C562.055 572.842 563.043 569.113 563.043 564.277C563.043 559.442 562.055 555.728 560.08 553.133C558.105 550.509 555.274 549.197 551.589 549.197ZM629.202 523.194V588.291H616.952V581.613C615.153 584.473 613.104 586.552 610.805 587.849C608.505 589.146 605.645 589.795 602.225 589.795C596.594 589.795 591.847 587.524 587.985 582.984C584.152 578.414 582.236 572.562 582.236 565.427C582.236 557.202 584.123 550.73 587.897 546.013C591.7 541.296 596.771 538.937 603.11 538.937C606.028 538.937 608.623 539.586 610.893 540.883C613.163 542.151 615.006 543.92 616.421 546.19V523.194H629.202ZM595.238 564.499C595.238 568.95 596.122 572.503 597.891 575.157C599.631 577.839 602.284 579.181 605.851 579.181C609.419 579.181 612.131 577.854 613.989 575.201C615.846 572.547 616.775 569.113 616.775 564.897C616.775 559 615.286 554.784 612.308 552.249C610.48 550.716 608.357 549.949 605.94 549.949C602.255 549.949 599.542 551.349 597.803 554.15C596.093 556.922 595.238 560.371 595.238 564.499ZM681.961 574.139C681.636 576.999 680.147 579.903 677.494 582.851C673.367 587.539 667.588 589.883 660.158 589.883C654.026 589.883 648.616 587.908 643.928 583.957C639.24 580.006 636.897 573.579 636.897 564.676C636.897 556.332 639.005 549.934 643.221 545.482C647.466 541.031 652.965 538.805 659.716 538.805C663.726 538.805 667.337 539.556 670.551 541.06C673.765 542.564 676.418 544.937 678.511 548.18C680.398 551.04 681.622 554.357 682.182 558.13C682.506 560.342 682.639 563.526 682.58 567.683H649.589C649.766 572.518 651.284 575.908 654.144 577.854C655.883 579.063 657.977 579.667 660.424 579.667C663.018 579.667 665.126 578.93 666.748 577.456C667.632 576.66 668.413 575.555 669.092 574.139H681.961ZM669.49 559.369C669.283 556.037 668.266 553.516 666.438 551.806C664.64 550.067 662.399 549.197 659.716 549.197C656.797 549.197 654.527 550.111 652.906 551.939C651.314 553.767 650.311 556.243 649.898 559.369H669.49Z" fill="#C2C2C2"/>
<path d="M385.209 926.732C385.209 924.638 384.468 923.024 382.985 921.89C381.524 920.756 378.874 919.611 375.035 918.455C371.197 917.299 368.143 916.012 365.875 914.595C361.535 911.868 359.365 908.313 359.365 903.93C359.365 900.091 360.924 896.929 364.043 894.442C367.184 891.956 371.251 890.713 376.246 890.713C379.561 890.713 382.516 891.324 385.111 892.545C387.707 893.766 389.746 895.511 391.229 897.779C392.712 900.026 393.454 902.523 393.454 905.271H385.209C385.209 902.785 384.424 900.844 382.854 899.448C381.306 898.03 379.081 897.321 376.18 897.321C373.476 897.321 371.371 897.899 369.866 899.055C368.383 900.211 367.642 901.825 367.642 903.897C367.642 905.642 368.449 907.103 370.062 908.281C371.676 909.437 374.337 910.571 378.045 911.683C381.753 912.774 384.73 914.028 386.976 915.445C389.222 916.841 390.869 918.455 391.916 920.287C392.963 922.097 393.486 924.224 393.486 926.667C393.486 930.636 391.96 933.798 388.906 936.154C385.875 938.487 381.753 939.654 376.54 939.654C373.094 939.654 369.921 939.022 367.02 937.757C364.141 936.47 361.895 934.703 360.281 932.457C358.689 930.211 357.893 927.593 357.893 924.605H366.169C366.169 927.31 367.064 929.404 368.852 930.887C370.64 932.37 373.203 933.111 376.54 933.111C379.419 933.111 381.578 932.533 383.018 931.377C384.479 930.2 385.209 928.651 385.209 926.732ZM437.095 923.493C436.615 928.575 434.74 932.544 431.468 935.401C428.197 938.237 423.846 939.654 418.415 939.654C414.62 939.654 411.272 938.76 408.372 936.972C405.493 935.161 403.268 932.599 401.698 929.284C400.127 925.969 399.31 922.119 399.244 917.735V913.286C399.244 908.793 400.04 904.835 401.632 901.411C403.224 897.986 405.504 895.347 408.47 893.494C411.458 891.64 414.904 890.713 418.808 890.713C424.064 890.713 428.295 892.141 431.501 894.999C434.707 897.856 436.572 901.89 437.095 907.103H428.851C428.458 903.679 427.455 901.214 425.841 899.709C424.249 898.183 421.905 897.419 418.808 897.419C415.209 897.419 412.439 898.739 410.498 901.378C408.579 903.995 407.597 907.845 407.554 912.926V917.146C407.554 922.294 408.47 926.219 410.302 928.924C412.156 931.628 414.86 932.98 418.415 932.98C421.665 932.98 424.107 932.25 425.743 930.789C427.379 929.327 428.415 926.896 428.851 923.493H437.095ZM471.184 927.91H452.733L448.873 939H440.269L458.262 891.367H465.688L483.714 939H475.077L471.184 927.91ZM455.056 921.236H468.861L461.958 901.476L455.056 921.236ZM526.93 939H518.653L497.421 905.206V939H489.145V891.367H497.421L518.719 925.292V891.367H526.93V939ZM585.85 898.041H570.997V939H562.786V898.041H548.064V891.367H585.85V898.041ZM629.229 916.427C629.229 921.094 628.423 925.194 626.809 928.728C625.195 932.239 622.883 934.943 619.873 936.841C616.885 938.716 613.439 939.654 609.535 939.654C605.675 939.654 602.229 938.716 599.197 936.841C596.188 934.943 593.854 932.25 592.196 928.76C590.561 925.271 589.732 921.247 589.71 916.688V914.006C589.71 909.36 590.528 905.26 592.164 901.705C593.821 898.15 596.144 895.435 599.132 893.559C602.142 891.662 605.588 890.713 609.47 890.713C613.352 890.713 616.787 891.651 619.775 893.526C622.785 895.38 625.107 898.063 626.743 901.574C628.379 905.064 629.208 909.131 629.229 913.777V916.427ZM620.953 913.94C620.953 908.662 619.949 904.617 617.943 901.803C615.958 898.99 613.134 897.583 609.47 897.583C605.893 897.583 603.09 898.99 601.062 901.803C599.056 904.595 598.03 908.553 597.987 913.679V916.427C597.987 921.661 599.001 925.707 601.029 928.564C603.079 931.421 605.915 932.85 609.535 932.85C613.199 932.85 616.013 931.454 617.976 928.662C619.96 925.87 620.953 921.792 620.953 916.427V913.94ZM679.054 926.732C679.054 924.638 678.313 923.024 676.83 921.89C675.368 920.756 672.718 919.611 668.88 918.455C665.041 917.299 661.988 916.012 659.72 914.595C655.38 911.868 653.209 908.313 653.209 903.93C653.209 900.091 654.769 896.929 657.888 894.442C661.028 891.956 665.096 890.713 670.09 890.713C673.405 890.713 676.361 891.324 678.956 892.545C681.551 893.766 683.591 895.511 685.074 897.779C686.557 900.026 687.298 902.523 687.298 905.271H679.054C679.054 902.785 678.269 900.844 676.699 899.448C675.15 898.03 672.926 897.321 670.025 897.321C667.32 897.321 665.216 897.899 663.711 899.055C662.228 900.211 661.486 901.825 661.486 903.897C661.486 905.642 662.293 907.103 663.907 908.281C665.521 909.437 668.182 910.571 671.89 911.683C675.597 912.774 678.574 914.028 680.821 915.445C683.067 916.841 684.714 918.455 685.761 920.287C686.808 922.097 687.331 924.224 687.331 926.667C687.331 930.636 685.804 933.798 682.751 936.154C679.719 938.487 675.597 939.654 670.385 939.654C666.939 939.654 663.765 939.022 660.865 937.757C657.986 936.47 655.739 934.703 654.125 932.457C652.533 930.211 651.737 927.593 651.737 924.605H660.014C660.014 927.31 660.908 929.404 662.697 930.887C664.485 932.37 667.048 933.111 670.385 933.111C673.264 933.111 675.423 932.533 676.862 931.377C678.324 930.2 679.054 928.651 679.054 926.732ZM722.434 917.735H702.871V932.392H725.738V939H694.594V891.367H725.509V898.041H702.871V911.192H722.434V917.735ZM770.263 939H761.986L740.754 905.206V939H732.478V891.367H740.754L762.052 925.292V891.367H770.263V939ZM780.045 939V891.367H794.112C798.322 891.367 802.051 892.305 805.301 894.181C808.572 896.056 811.102 898.717 812.891 902.163C814.679 905.609 815.573 909.557 815.573 914.006V916.394C815.573 920.909 814.668 924.878 812.858 928.302C811.069 931.726 808.507 934.365 805.17 936.219C801.855 938.073 798.049 939 793.752 939H780.045ZM788.322 898.041V932.392H793.72C798.06 932.392 801.386 931.039 803.698 928.335C806.031 925.609 807.22 921.705 807.264 916.623V913.973C807.264 908.804 806.14 904.857 803.894 902.13C801.648 899.404 798.387 898.041 794.112 898.041H788.322ZM868.342 917.735H848.779V932.392H871.646V939H840.502V891.367H871.417V898.041H848.779V911.192H868.342V917.735ZM913.456 898.041H898.604V939H890.392V898.041H875.67V891.367H913.456V898.041ZM957.556 939H949.312V917.833H928.014V939H919.737V891.367H928.014V911.192H949.312V891.367H957.556V939Z" fill="white"/>
</svg>
