<svg width="1000" height="1000" viewBox="0 0 1000 1000" fill="none" xmlns="http://www.w3.org/2000/svg">
<g clip-path="url(#clip0_288_1375)">
<mask id="path-1-inside-1_288_1375" fill="white">
<rect x="100.91" width="798.265" height="798.265" rx="10.846"/>
</mask>
<rect x="100.91" width="798.265" height="798.265" rx="10.846" fill="white" stroke="#333333" stroke-width="28.1996" mask="url(#path-1-inside-1_288_1375)"/>
<mask id="path-2-inside-2_288_1375" fill="white">
<rect x="99.8242" y="830.803" width="798.265" height="169.197" rx="10.846"/>
</mask>
<rect x="99.8242" y="830.803" width="798.265" height="169.197" rx="10.846" fill="white" stroke="#333333" stroke-width="26.0304" mask="url(#path-2-inside-2_288_1375)"/>
<rect x="141.043" y="40.1289" width="716.92" height="716.92" rx="10.4467" fill="white"/>
<path d="M655.941 110.496H791.987V246.541" stroke="#C2C2C2" stroke-width="25.8507"/>
<path d="M343.039 110.496H206.994V246.541" stroke="#C2C2C2" stroke-width="25.8507"/>
<path d="M655.941 695.486H791.987V559.441" stroke="#C2C2C2" stroke-width="25.8507"/>
<path d="M343.039 695.486H206.994V559.441" stroke="#C2C2C2" stroke-width="25.8507"/>
<path d="M345.811 344.111L335.115 312.982L323.747 344.111H345.811ZM330.126 302.526H340.918L366.484 372.986H356.027L348.881 351.882H321.013L313.387 372.986H303.602L330.126 302.526ZM379.482 347.901C379.482 353.401 380.65 358.005 382.984 361.715C385.318 365.424 389.059 367.278 394.208 367.278C398.205 367.278 401.482 365.568 404.041 362.146C406.631 358.693 407.926 353.752 407.926 347.325C407.926 340.834 406.599 336.037 403.945 332.935C401.291 329.802 398.013 328.235 394.112 328.235C389.763 328.235 386.229 329.898 383.511 333.223C380.825 336.549 379.482 341.441 379.482 347.901ZM392.481 320.704C396.414 320.704 399.708 321.536 402.362 323.199C403.897 324.158 405.639 325.837 407.59 328.235V302.286H415.888V372.986H408.118V365.84C406.103 369.005 403.721 371.292 400.971 372.699C398.221 374.106 395.071 374.809 391.522 374.809C385.798 374.809 380.841 372.411 376.652 367.614C372.463 362.786 370.369 356.374 370.369 348.38C370.369 340.898 372.272 334.422 376.077 328.954C379.914 323.454 385.382 320.704 392.481 320.704ZM434.163 347.901C434.163 353.401 435.33 358.005 437.664 361.715C439.998 365.424 443.74 367.278 448.888 367.278C452.885 367.278 456.163 365.568 458.721 362.146C461.311 358.693 462.606 353.752 462.606 347.325C462.606 340.834 461.279 336.037 458.625 332.935C455.971 329.802 452.693 328.235 448.792 328.235C444.443 328.235 440.91 329.898 438.192 333.223C435.506 336.549 434.163 341.441 434.163 347.901ZM447.161 320.704C451.094 320.704 454.388 321.536 457.042 323.199C458.577 324.158 460.32 325.837 462.27 328.235V302.286H470.568V372.986H462.798V365.84C460.783 369.005 458.401 371.292 455.651 372.699C452.901 374.106 449.751 374.809 446.202 374.809C440.478 374.809 435.522 372.411 431.333 367.614C427.144 362.786 425.049 356.374 425.049 348.38C425.049 340.898 426.952 334.422 430.757 328.954C434.594 323.454 440.062 320.704 447.161 320.704ZM542.803 321.616H552.349C551.133 324.909 548.431 332.424 544.242 344.159C541.109 352.985 538.487 360.18 536.376 365.744C531.388 378.854 527.87 386.848 525.824 389.726C523.777 392.604 520.26 394.043 515.272 394.043C514.056 394.043 513.113 393.995 512.442 393.899C511.802 393.803 511.003 393.627 510.043 393.371V385.505C511.546 385.921 512.633 386.177 513.305 386.273C513.976 386.369 514.568 386.417 515.08 386.417C516.679 386.417 517.846 386.145 518.581 385.601C519.349 385.09 519.988 384.45 520.5 383.683C520.66 383.427 521.235 382.116 522.226 379.749C523.218 377.383 523.937 375.624 524.385 374.473L505.391 321.616H515.176L528.942 363.441L542.803 321.616ZM580.216 367.422C585.94 367.422 589.857 365.264 591.968 360.947C594.11 356.598 595.181 351.77 595.181 346.462C595.181 341.665 594.414 337.764 592.879 334.758C590.449 330.026 586.26 327.659 580.312 327.659C575.036 327.659 571.199 329.674 568.801 333.703C566.402 337.732 565.203 342.592 565.203 348.284C565.203 353.752 566.402 358.309 568.801 361.954C571.199 365.6 575.004 367.422 580.216 367.422ZM580.552 320.129C587.171 320.129 592.767 322.335 597.34 326.748C601.912 331.161 604.199 337.652 604.199 346.222C604.199 354.504 602.184 361.347 598.155 366.751C594.126 372.155 587.875 374.857 579.401 374.857C572.334 374.857 566.722 372.475 562.565 367.71C558.408 362.914 556.33 356.486 556.33 348.428C556.33 339.794 558.52 332.919 562.901 327.803C567.282 322.687 573.165 320.129 580.552 320.129ZM623.145 321.616V355.719C623.145 358.341 623.561 360.483 624.392 362.146C625.927 365.216 628.789 366.751 632.978 366.751C638.989 366.751 643.082 364.065 645.257 358.693C646.44 355.815 647.032 351.866 647.032 346.845V321.616H655.665V372.986H647.511L647.607 365.408C646.488 367.358 645.097 369.005 643.434 370.348C640.141 373.034 636.144 374.377 631.443 374.377C624.12 374.377 619.132 371.931 616.478 367.039C615.039 364.417 614.319 360.915 614.319 356.534V321.616H623.145ZM669.431 321.616H677.633V330.489C678.305 328.763 679.952 326.668 682.574 324.206C685.196 321.712 688.218 320.465 691.639 320.465C691.799 320.465 692.071 320.481 692.455 320.513C692.838 320.545 693.494 320.608 694.421 320.704V329.818C693.909 329.722 693.43 329.658 692.982 329.626C692.566 329.594 692.103 329.578 691.591 329.578C687.242 329.578 683.901 330.985 681.566 333.799C679.232 336.581 678.065 339.794 678.065 343.44V372.986H669.431V321.616Z" fill="#C2C2C2"/>
<path d="M346.68 495.507C343.514 496.562 339.725 497.09 335.312 497.09C326.103 497.09 318.492 494.34 312.481 488.84C305.19 482.22 301.545 472.5 301.545 459.677C301.545 446.758 305.286 436.989 312.768 430.37C318.876 424.966 326.47 422.264 335.552 422.264C344.697 422.264 352.372 425.126 358.575 430.85C365.738 437.469 369.319 446.726 369.319 458.622C369.319 464.921 368.552 470.197 367.017 474.45C365.77 478.511 363.931 481.885 361.501 484.571L369.655 492.197L361.933 500.255L353.395 492.197C350.805 493.764 348.566 494.867 346.68 495.507ZM343.514 482.748L336.367 475.937L343.994 467.975L351.14 474.786C352.26 472.484 353.043 470.469 353.491 468.742C354.194 466.152 354.546 463.13 354.546 459.677C354.546 451.747 352.915 445.623 349.653 441.306C346.424 436.957 341.691 434.783 335.456 434.783C329.604 434.783 324.935 436.861 321.45 441.018C317.965 445.175 316.222 451.395 316.222 459.677C316.222 469.366 318.716 476.305 323.704 480.494C326.934 483.212 330.803 484.571 335.312 484.571C337.007 484.571 338.638 484.363 340.204 483.947C341.068 483.723 342.171 483.324 343.514 482.748ZM410.665 467.399H395.412V495.123H380.975V424.423H415.653C420.61 424.518 424.415 425.126 427.069 426.245C429.755 427.364 432.026 429.011 433.88 431.186C435.415 432.976 436.63 434.959 437.526 437.133C438.421 439.308 438.869 441.786 438.869 444.568C438.869 447.925 438.021 451.235 436.326 454.497C434.632 457.726 431.834 460.013 427.933 461.356C431.194 462.667 433.496 464.537 434.839 466.968C436.214 469.366 436.902 473.043 436.902 478V482.748C436.902 485.978 437.03 488.168 437.286 489.319C437.669 491.142 438.565 492.485 439.972 493.348V495.123H423.712C423.264 493.556 422.944 492.293 422.752 491.334C422.369 489.351 422.161 487.321 422.129 485.242L422.033 478.671C421.969 474.162 421.137 471.156 419.539 469.654C417.972 468.151 415.014 467.399 410.665 467.399ZM419.635 454.545C422.576 453.202 424.047 450.547 424.047 446.582C424.047 442.298 422.624 439.42 419.778 437.949C418.18 437.117 415.781 436.702 412.584 436.702H395.412V455.696H412.152C415.478 455.696 417.972 455.312 419.635 454.545ZM523.095 461.595H509.089C508.834 459.645 508.178 457.886 507.123 456.319C505.588 454.209 503.206 453.154 499.976 453.154C495.371 453.154 492.222 455.44 490.527 460.013C489.632 462.443 489.184 465.672 489.184 469.702C489.184 473.539 489.632 476.625 490.527 478.959C492.158 483.308 495.228 485.482 499.736 485.482C502.934 485.482 505.204 484.619 506.547 482.892C507.89 481.165 508.706 478.927 508.993 476.177H522.951C522.632 480.334 521.129 484.267 518.443 487.976C514.158 493.956 507.81 496.946 499.4 496.946C490.991 496.946 484.803 494.452 480.838 489.463C476.873 484.475 474.89 478 474.89 470.037C474.89 461.052 477.081 454.065 481.462 449.077C485.842 444.088 491.886 441.594 499.592 441.594C506.148 441.594 511.504 443.065 515.661 446.007C519.85 448.949 522.328 454.145 523.095 461.595ZM576.145 449.46C580.557 454.992 582.764 461.532 582.764 469.078C582.764 476.752 580.557 483.324 576.145 488.792C571.732 494.228 565.033 496.946 556.047 496.946C547.062 496.946 540.363 494.228 535.95 488.792C531.537 483.324 529.331 476.752 529.331 469.078C529.331 461.532 531.537 454.992 535.95 449.46C540.363 443.928 547.062 441.162 556.047 441.162C565.033 441.162 571.732 443.928 576.145 449.46ZM555.999 452.722C552.002 452.722 548.916 454.145 546.742 456.991C544.6 459.805 543.528 463.834 543.528 469.078C543.528 474.322 544.6 478.367 546.742 481.213C548.916 484.059 552.002 485.482 555.999 485.482C559.996 485.482 563.066 484.059 565.209 481.213C567.351 478.367 568.422 474.322 568.422 469.078C568.422 463.834 567.351 459.805 565.209 456.991C563.066 454.145 559.996 452.722 555.999 452.722ZM640.178 424.518V495.123H626.892V487.88C624.941 490.982 622.719 493.236 620.224 494.643C617.73 496.05 614.629 496.754 610.919 496.754C604.812 496.754 599.663 494.292 595.475 489.367C591.318 484.411 589.239 478.063 589.239 470.325C589.239 461.404 591.286 454.385 595.379 449.268C599.504 444.152 605.004 441.594 611.879 441.594C615.044 441.594 617.858 442.298 620.32 443.704C622.783 445.079 624.781 446.998 626.316 449.46V424.518H640.178ZM603.341 469.318C603.341 474.146 604.3 478 606.219 480.877C608.105 483.787 610.983 485.242 614.852 485.242C618.722 485.242 621.663 483.803 623.678 480.925C625.693 478.047 626.7 474.322 626.7 469.75C626.7 463.354 625.085 458.782 621.855 456.032C619.873 454.369 617.57 453.537 614.948 453.537C610.951 453.537 608.009 455.056 606.123 458.094C604.268 461.1 603.341 464.841 603.341 469.318ZM697.4 479.774C697.049 482.876 695.434 486.026 692.556 489.223C688.079 494.308 681.812 496.85 673.754 496.85C667.102 496.85 661.235 494.707 656.15 490.422C651.066 486.138 648.524 479.167 648.524 469.51C648.524 460.46 650.81 453.521 655.383 448.693C659.988 443.864 665.951 441.45 673.274 441.45C677.623 441.45 681.54 442.266 685.025 443.896C688.511 445.527 691.389 448.101 693.659 451.619C695.706 454.72 697.033 458.318 697.64 462.411C697.992 464.809 698.136 468.263 698.072 472.771H662.29C662.482 478.016 664.129 481.693 667.23 483.803C669.117 485.114 671.387 485.77 674.041 485.77C676.855 485.77 679.142 484.97 680.9 483.372C681.86 482.508 682.707 481.309 683.442 479.774H697.4ZM683.874 463.754C683.65 460.141 682.547 457.407 680.565 455.552C678.614 453.665 676.184 452.722 673.274 452.722C670.108 452.722 667.646 453.713 665.887 455.696C664.161 457.678 663.073 460.364 662.626 463.754H683.874Z" fill="#C2C2C2"/>
<path d="M811.245 914.075L794.589 930.731L766.861 914.143C766.696 914.05 766.542 913.939 766.402 913.813C764.308 911.844 765.137 908.198 768.005 907.19L845.301 880.019L818.131 957.316C817.136 960.153 813.558 960.992 811.575 958.986C811.402 958.802 811.257 958.595 811.144 958.369L801.632 940.592" stroke="#333333" stroke-width="7.96864" stroke-linecap="round" stroke-linejoin="round"/>
<path d="M173.323 930.396C173.323 928.14 172.524 926.402 170.927 925.18C169.353 923.959 166.498 922.726 162.364 921.481C158.23 920.236 154.941 918.85 152.498 917.323C147.823 914.386 145.486 910.557 145.486 905.835C145.486 901.701 147.165 898.295 150.524 895.617C153.907 892.939 158.288 891.6 163.668 891.6C167.238 891.6 170.422 892.257 173.217 893.573C176.012 894.888 178.209 896.768 179.806 899.211C181.404 901.63 182.202 904.32 182.202 907.28H173.323C173.323 904.602 172.477 902.511 170.786 901.008C169.118 899.481 166.722 898.718 163.597 898.718C160.684 898.718 158.417 899.34 156.797 900.585C155.199 901.83 154.4 903.568 154.4 905.8C154.4 907.679 155.27 909.253 157.008 910.522C158.746 911.767 161.612 912.988 165.606 914.187C169.599 915.361 172.806 916.712 175.225 918.239C177.645 919.742 179.419 921.481 180.546 923.454C181.674 925.404 182.238 927.694 182.238 930.325C182.238 934.6 180.593 938.007 177.304 940.544C174.039 943.057 169.599 944.314 163.985 944.314C160.273 944.314 156.855 943.633 153.731 942.27C150.63 940.884 148.211 938.982 146.472 936.562C144.757 934.142 143.9 931.323 143.9 928.105H152.815C152.815 931.018 153.778 933.273 155.704 934.871C157.631 936.468 160.391 937.267 163.985 937.267C167.086 937.267 169.411 936.644 170.962 935.399C172.536 934.131 173.323 932.463 173.323 930.396ZM204.895 937.478C207.033 937.478 208.806 936.856 210.216 935.611C211.625 934.366 212.377 932.827 212.471 930.995H220.54C220.446 933.367 219.706 935.587 218.32 937.654C216.934 939.698 215.055 941.319 212.682 942.517C210.31 943.715 207.749 944.314 205.001 944.314C199.668 944.314 195.44 942.588 192.315 939.134C189.191 935.681 187.629 930.912 187.629 924.828V923.947C187.629 918.145 189.179 913.505 192.28 910.029C195.381 906.528 199.609 904.778 204.965 904.778C209.499 904.778 213.187 906.106 216.03 908.76C218.896 911.391 220.399 914.856 220.54 919.155H212.471C212.377 916.97 211.625 915.173 210.216 913.764C208.83 912.354 207.056 911.649 204.895 911.649C202.123 911.649 199.985 912.66 198.482 914.68C196.978 916.677 196.215 919.719 196.191 923.806V925.18C196.191 929.315 196.931 932.404 198.411 934.448C199.915 936.468 202.076 937.478 204.895 937.478ZM249.787 943.609C249.411 942.881 249.082 941.695 248.8 940.05C246.075 942.893 242.739 944.314 238.793 944.314C234.964 944.314 231.839 943.222 229.42 941.037C227 938.852 225.79 936.151 225.79 932.933C225.79 928.869 227.294 925.756 230.301 923.595C233.331 921.41 237.654 920.318 243.268 920.318H248.518V917.816C248.518 915.843 247.966 914.269 246.862 913.094C245.758 911.896 244.078 911.297 241.823 911.297C239.873 911.297 238.276 911.79 237.031 912.777C235.786 913.74 235.163 914.974 235.163 916.477H226.601C226.601 914.386 227.294 912.436 228.68 910.628C230.066 908.795 231.945 907.362 234.318 906.329C236.714 905.295 239.38 904.778 242.317 904.778C246.78 904.778 250.339 905.906 252.993 908.161C255.648 910.393 257.01 913.541 257.081 917.605V934.8C257.081 938.23 257.562 940.967 258.526 943.01V943.609H249.787ZM240.379 937.443C242.07 937.443 243.656 937.032 245.136 936.21C246.639 935.387 247.767 934.283 248.518 932.897V925.709H243.902C240.731 925.709 238.347 926.261 236.749 927.365C235.152 928.469 234.353 930.031 234.353 932.052C234.353 933.696 234.893 935.012 235.974 935.998C237.078 936.961 238.546 937.443 240.379 937.443ZM273.995 905.483L274.241 909.888C277.06 906.481 280.76 904.778 285.341 904.778C293.281 904.778 297.321 909.324 297.462 918.415V943.609H288.9V918.908C288.9 916.489 288.371 914.703 287.314 913.552C286.28 912.378 284.577 911.79 282.205 911.79C278.752 911.79 276.179 913.353 274.488 916.477V943.609H265.925V905.483H273.995ZM334.919 896.216V905.483H341.649V911.826H334.919V933.109C334.919 934.565 335.201 935.622 335.765 936.28C336.352 936.914 337.386 937.231 338.866 937.231C339.852 937.231 340.851 937.114 341.861 936.879V943.504C339.911 944.044 338.032 944.314 336.223 944.314C329.645 944.314 326.357 940.685 326.357 933.426V911.826H320.084V905.483H326.357V896.216H334.919ZM345.561 924.194C345.561 920.459 346.301 917.099 347.781 914.116C349.261 911.109 351.34 908.807 354.018 907.21C356.696 905.589 359.773 904.778 363.25 904.778C368.394 904.778 372.564 906.434 375.759 909.747C378.977 913.059 380.715 917.452 380.974 922.925L381.009 924.934C381.009 928.692 380.281 932.052 378.824 935.012C377.391 937.971 375.324 940.262 372.623 941.883C369.945 943.504 366.844 944.314 363.32 944.314C357.941 944.314 353.63 942.529 350.388 938.958C347.17 935.364 345.561 930.583 345.561 924.617V924.194ZM354.123 924.934C354.123 928.857 354.934 931.934 356.555 934.166C358.176 936.374 360.431 937.478 363.32 937.478C366.21 937.478 368.453 936.351 370.05 934.095C371.671 931.84 372.482 928.54 372.482 924.194C372.482 920.341 371.648 917.287 369.98 915.032C368.336 912.777 366.092 911.649 363.25 911.649C360.454 911.649 358.234 912.765 356.59 914.997C354.946 917.205 354.123 920.517 354.123 924.934ZM427.592 933.25C427.592 931.723 426.958 930.56 425.689 929.761C424.444 928.963 422.365 928.258 419.453 927.647C416.54 927.036 414.108 926.261 412.159 925.321C407.883 923.254 405.745 920.259 405.745 916.336C405.745 913.047 407.131 910.299 409.903 908.091C412.675 905.882 416.199 904.778 420.474 904.778C425.032 904.778 428.708 905.906 431.504 908.161C434.323 910.416 435.732 913.341 435.732 916.935H427.169C427.169 915.291 426.559 913.928 425.337 912.848C424.116 911.743 422.495 911.191 420.474 911.191C418.595 911.191 417.056 911.626 415.858 912.495C414.684 913.364 414.097 914.527 414.097 915.984C414.097 917.299 414.649 918.321 415.753 919.049C416.857 919.777 419.088 920.517 422.448 921.269C425.807 921.997 428.438 922.878 430.341 923.912C432.267 924.922 433.688 926.144 434.604 927.577C435.544 929.01 436.014 930.748 436.014 932.792C436.014 936.221 434.593 939.005 431.75 941.143C428.908 943.257 425.184 944.314 420.58 944.314C417.456 944.314 414.672 943.75 412.229 942.623C409.786 941.495 407.883 939.945 406.521 937.971C405.158 935.998 404.477 933.872 404.477 931.594H412.793C412.91 933.614 413.674 935.176 415.083 936.28C416.493 937.361 418.36 937.901 420.686 937.901C422.941 937.901 424.656 937.478 425.83 936.632C427.005 935.763 427.592 934.636 427.592 933.25ZM460.292 944.314C454.866 944.314 450.461 942.611 447.078 939.205C443.719 935.775 442.039 931.218 442.039 925.533V924.476C442.039 920.67 442.768 917.276 444.224 914.292C445.704 911.285 447.771 908.948 450.426 907.28C453.08 905.612 456.04 904.778 459.305 904.778C464.497 904.778 468.502 906.434 471.321 909.747C474.164 913.059 475.585 917.745 475.585 923.806V927.259H450.672C450.931 930.407 451.976 932.897 453.809 934.73C455.664 936.562 457.99 937.478 460.785 937.478C464.708 937.478 467.903 935.892 470.37 932.721L474.986 937.126C473.459 939.404 471.415 941.178 468.855 942.447C466.318 943.692 463.463 944.314 460.292 944.314ZM459.27 911.649C456.921 911.649 455.018 912.472 453.562 914.116C452.129 915.76 451.213 918.051 450.813 920.987H467.128V920.353C466.94 917.487 466.177 915.326 464.838 913.869C463.499 912.389 461.643 911.649 459.27 911.649ZM490.208 905.483L490.455 909.888C493.274 906.481 496.974 904.778 501.555 904.778C509.495 904.778 513.535 909.324 513.676 918.415V943.609H505.114V918.908C505.114 916.489 504.585 914.703 503.528 913.552C502.494 912.378 500.791 911.79 498.418 911.79C494.965 911.79 492.393 913.353 490.702 916.477V943.609H482.139V905.483H490.208ZM520.829 924.264C520.829 918.391 522.192 913.681 524.917 910.134C527.642 906.564 531.295 904.778 535.875 904.778C539.916 904.778 543.181 906.188 545.671 909.007V889.485H554.234V943.609H546.482L546.059 939.663C543.498 942.764 540.08 944.314 535.805 944.314C531.342 944.314 527.724 942.517 524.952 938.923C522.203 935.329 520.829 930.443 520.829 924.264ZM529.392 925.004C529.392 928.88 530.132 931.911 531.612 934.095C533.115 936.257 535.241 937.337 537.99 937.337C541.49 937.337 544.05 935.775 545.671 932.651V916.371C544.097 913.317 541.56 911.79 538.06 911.79C535.288 911.79 533.15 912.895 531.647 915.103C530.143 917.287 529.392 920.588 529.392 925.004ZM581.965 943.609V892.304H599.548C605.351 892.304 609.767 893.467 612.798 895.793C615.828 898.119 617.343 901.583 617.343 906.188C617.343 908.537 616.709 910.651 615.44 912.53C614.172 914.41 612.316 915.866 609.873 916.9C612.645 917.652 614.783 919.073 616.286 921.163C617.813 923.231 618.576 925.721 618.576 928.634C618.576 933.449 617.026 937.149 613.925 939.733C610.848 942.317 606.431 943.609 600.676 943.609H581.965ZM590.88 920.459V936.492H600.782C603.577 936.492 605.762 935.799 607.336 934.413C608.91 933.027 609.697 931.1 609.697 928.634C609.697 923.301 606.972 920.576 601.522 920.459H590.88ZM590.88 913.905H599.619C602.391 913.905 604.552 913.282 606.103 912.037C607.676 910.769 608.463 908.983 608.463 906.681C608.463 904.144 607.735 902.312 606.279 901.184C604.846 900.057 602.602 899.493 599.548 899.493H590.88V913.905ZM663.574 899.493H647.576V943.609H638.732V899.493H622.875V892.304H663.574V899.493ZM708.501 926.907C707.984 932.381 705.964 936.656 702.44 939.733C698.917 942.787 694.23 944.314 688.381 944.314C684.293 944.314 680.687 943.351 677.563 941.425C674.462 939.475 672.066 936.715 670.375 933.144C668.683 929.573 667.802 925.427 667.732 920.705V915.913C667.732 911.074 668.589 906.81 670.304 903.122C672.019 899.434 674.474 896.592 677.669 894.595C680.887 892.598 684.599 891.6 688.804 891.6C694.465 891.6 699.022 893.138 702.475 896.216C705.929 899.293 707.937 903.639 708.501 909.253H699.621C699.198 905.565 698.118 902.911 696.379 901.29C694.665 899.645 692.139 898.823 688.804 898.823C684.927 898.823 681.944 900.244 679.853 903.087C677.786 905.906 676.729 910.052 676.682 915.526V920.071C676.682 925.615 677.669 929.843 679.642 932.756C681.639 935.669 684.552 937.126 688.381 937.126C691.881 937.126 694.512 936.339 696.274 934.765C698.036 933.191 699.151 930.572 699.621 926.907H708.501Z" fill="black"/>
</g>
<defs>
<clipPath id="clip0_288_1375">
<rect width="1000" height="1000" fill="white"/>
</clipPath>
</defs>
</svg>
