<svg width="1000" height="1000" viewBox="0 0 1000 1000" fill="none" xmlns="http://www.w3.org/2000/svg">
<g clip-path="url(#clip0_277_74)">
<rect y="2" width="858" height="998" fill="#333333"/>
<circle cx="858" cy="181" r="126" fill="white" stroke="white" stroke-width="12"/>
<rect x="42" y="59" width="661" height="661" rx="9.6319" fill="white"/>
<path d="M516.734 123.879H642.168V249.313" stroke="#C2C2C2" stroke-width="23.8343"/>
<path d="M228.238 123.879H102.805V249.313" stroke="#C2C2C2" stroke-width="23.8343"/>
<path d="M516.734 663.24H642.168V537.806" stroke="#C2C2C2" stroke-width="23.8343"/>
<path d="M228.238 663.24H102.805V537.806" stroke="#C2C2C2" stroke-width="23.8343"/>
<path d="M230.797 339.057L220.935 310.356L210.454 339.057H230.797ZM216.336 300.715H226.286L249.858 365.68H240.217L233.627 346.221H207.933L200.902 365.68H191.88L216.336 300.715ZM261.842 342.551C261.842 347.622 262.918 351.867 265.071 355.287C267.223 358.707 270.672 360.417 275.419 360.417C279.104 360.417 282.126 358.84 284.485 355.685C286.873 352.501 288.067 347.946 288.067 342.02C288.067 336.035 286.843 331.613 284.396 328.753C281.949 325.864 278.927 324.419 275.331 324.419C271.321 324.419 268.063 325.952 265.557 329.018C263.081 332.084 261.842 336.595 261.842 342.551ZM273.827 317.476C277.453 317.476 280.49 318.242 282.937 319.775C284.352 320.66 285.959 322.208 287.757 324.419V300.494H295.408V365.68H288.244V359.09C286.386 362.009 284.19 364.117 281.655 365.414C279.119 366.712 276.215 367.36 272.942 367.36C267.665 367.36 263.095 365.149 259.233 360.727C255.371 356.275 253.44 350.364 253.44 342.993C253.44 336.094 255.194 330.124 258.702 325.082C262.24 320.011 267.282 317.476 273.827 317.476ZM312.257 342.551C312.257 347.622 313.334 351.867 315.486 355.287C317.638 358.707 321.087 360.417 325.834 360.417C329.519 360.417 332.541 358.84 334.9 355.685C337.288 352.501 338.482 347.946 338.482 342.02C338.482 336.035 337.259 331.613 334.812 328.753C332.365 325.864 329.343 324.419 325.746 324.419C321.736 324.419 318.478 325.952 315.972 329.018C313.496 332.084 312.257 336.595 312.257 342.551ZM324.242 317.476C327.868 317.476 330.905 318.242 333.352 319.775C334.767 320.66 336.374 322.208 338.173 324.419V300.494H345.823V365.68H338.659V359.09C336.802 362.009 334.605 364.117 332.07 365.414C329.534 366.712 326.63 367.36 323.358 367.36C318.08 367.36 313.51 365.149 309.648 360.727C305.786 356.275 303.855 350.364 303.855 342.993C303.855 336.094 305.609 330.124 309.118 325.082C312.655 320.011 317.697 317.476 324.242 317.476ZM412.424 318.316H421.225C420.105 321.353 417.613 328.281 413.751 339.101C410.862 347.238 408.444 353.872 406.498 359.002C401.899 371.09 398.656 378.46 396.769 381.114C394.882 383.767 391.639 385.094 387.04 385.094C385.92 385.094 385.05 385.05 384.431 384.961C383.841 384.873 383.104 384.711 382.219 384.475V377.222C383.605 377.605 384.608 377.841 385.227 377.93C385.846 378.018 386.391 378.062 386.863 378.062C388.337 378.062 389.413 377.812 390.091 377.311C390.799 376.839 391.389 376.249 391.86 375.542C392.008 375.306 392.538 374.097 393.452 371.915C394.366 369.734 395.03 368.112 395.442 367.051L377.93 318.316H386.951L399.644 356.879L412.424 318.316ZM446.919 360.55C452.196 360.55 455.808 358.56 457.754 354.58C459.729 350.57 460.717 346.118 460.717 341.224C460.717 336.802 460.009 333.205 458.594 330.433C456.353 326.07 452.491 323.888 447.007 323.888C442.143 323.888 438.605 325.746 436.394 329.46C434.182 333.175 433.077 337.657 433.077 342.904C433.077 347.946 434.182 352.147 436.394 355.508C438.605 358.869 442.113 360.55 446.919 360.55ZM447.228 316.945C453.331 316.945 458.491 318.979 462.707 323.048C466.923 327.117 469.031 333.101 469.031 341.003C469.031 348.639 467.173 354.948 463.459 359.931C459.744 364.913 453.98 367.404 446.167 367.404C439.651 367.404 434.477 365.208 430.645 360.815C426.812 356.393 424.895 350.467 424.895 343.037C424.895 335.077 426.915 328.738 430.954 324.021C434.993 319.304 440.418 316.945 447.228 316.945ZM486.499 318.316V349.759C486.499 352.177 486.883 354.152 487.649 355.685C489.064 358.515 491.703 359.931 495.565 359.931C501.108 359.931 504.882 357.454 506.886 352.501C507.977 349.848 508.523 346.206 508.523 341.578V318.316H516.483V365.68H508.965L509.053 358.692C508.021 360.491 506.739 362.009 505.206 363.247C502.169 365.724 498.484 366.962 494.15 366.962C487.398 366.962 482.799 364.707 480.352 360.196C479.025 357.778 478.362 354.55 478.362 350.511V318.316H486.499ZM529.175 318.316H536.737V326.497C537.357 324.905 538.875 322.974 541.292 320.704C543.71 318.404 546.496 317.255 549.651 317.255C549.798 317.255 550.049 317.269 550.403 317.299C550.756 317.328 551.361 317.387 552.216 317.476V325.878C551.744 325.79 551.302 325.731 550.889 325.701C550.506 325.672 550.078 325.657 549.607 325.657C545.597 325.657 542.516 326.954 540.364 329.549C538.212 332.114 537.135 335.077 537.135 338.438V365.68H529.175V318.316Z" fill="#C2C2C2"/>
<path d="M231.596 478.645C228.677 479.618 225.184 480.104 221.115 480.104C212.624 480.104 205.607 477.569 200.065 472.498C193.343 466.395 189.982 457.432 189.982 445.61C189.982 433.699 193.431 424.692 200.33 418.589C205.961 413.606 212.963 411.115 221.336 411.115C229.768 411.115 236.844 413.754 242.564 419.031C249.168 425.134 252.47 433.669 252.47 444.637C252.47 450.445 251.762 455.309 250.347 459.231C249.197 462.975 247.502 466.085 245.261 468.562L252.779 475.593L245.659 483.023L237.788 475.593C235.399 477.038 233.336 478.055 231.596 478.645ZM228.677 466.881L222.088 460.601L229.12 453.26L235.709 459.54C236.741 457.417 237.463 455.56 237.876 453.968C238.525 451.58 238.849 448.794 238.849 445.61C238.849 438.298 237.345 432.652 234.338 428.672C231.36 424.662 226.997 422.657 221.248 422.657C215.853 422.657 211.548 424.574 208.334 428.407C205.121 432.239 203.514 437.974 203.514 445.61C203.514 454.543 205.814 460.941 210.413 464.803C213.391 467.309 216.958 468.562 221.115 468.562C222.678 468.562 224.181 468.37 225.626 467.987C226.422 467.78 227.439 467.412 228.677 466.881ZM290.591 452.73H276.528V478.291H263.216V413.105H295.19C299.76 413.194 303.268 413.754 305.715 414.786C308.192 415.818 310.285 417.336 311.995 419.341C313.41 420.992 314.531 422.82 315.356 424.824C316.182 426.829 316.594 429.114 316.594 431.679C316.594 434.775 315.813 437.826 314.25 440.833C312.688 443.811 310.108 445.919 306.511 447.157C309.519 448.366 311.641 450.091 312.88 452.332C314.147 454.543 314.781 457.933 314.781 462.503V466.881C314.781 469.859 314.899 471.879 315.135 472.94C315.489 474.62 316.314 475.859 317.611 476.655V478.291H302.62C302.207 476.846 301.912 475.682 301.735 474.797C301.381 472.969 301.19 471.097 301.16 469.181L301.072 463.122C301.013 458.965 300.246 456.194 298.772 454.808C297.328 453.422 294.6 452.73 290.591 452.73ZM298.861 440.878C301.573 439.639 302.929 437.192 302.929 433.537C302.929 429.586 301.617 426.932 298.993 425.576C297.519 424.81 295.308 424.426 292.36 424.426H276.528V441.939H291.962C295.028 441.939 297.328 441.585 298.861 440.878ZM394.251 447.379H381.338C381.102 445.58 380.498 443.959 379.525 442.514C378.11 440.568 375.913 439.595 372.935 439.595C368.69 439.595 365.786 441.703 364.223 445.919C363.398 448.16 362.985 451.138 362.985 454.852C362.985 458.39 363.398 461.235 364.223 463.388C365.727 467.397 368.557 469.402 372.714 469.402C375.663 469.402 377.756 468.606 378.994 467.014C380.232 465.422 380.984 463.358 381.25 460.823H394.119C393.824 464.655 392.438 468.282 389.962 471.702C386.011 477.215 380.159 479.972 372.405 479.972C364.651 479.972 358.946 477.672 355.29 473.073C351.634 468.473 349.806 462.503 349.806 455.162C349.806 446.877 351.826 440.435 355.865 435.836C359.904 431.237 365.476 428.937 372.582 428.937C378.626 428.937 383.564 430.293 387.397 433.006C391.259 435.718 393.544 440.509 394.251 447.379ZM443.163 436.19C447.231 441.29 449.266 447.32 449.266 454.277C449.266 461.353 447.231 467.412 443.163 472.453C439.094 477.466 432.918 479.972 424.633 479.972C416.349 479.972 410.172 477.466 406.103 472.453C402.035 467.412 400 461.353 400 454.277C400 447.32 402.035 441.29 406.103 436.19C410.172 431.089 416.349 428.539 424.633 428.539C432.918 428.539 439.094 431.089 443.163 436.19ZM424.589 439.197C420.904 439.197 418.058 440.509 416.054 443.133C414.078 445.728 413.091 449.442 413.091 454.277C413.091 459.113 414.078 462.842 416.054 465.466C418.058 468.09 420.904 469.402 424.589 469.402C428.274 469.402 431.105 468.09 433.08 465.466C435.055 462.842 436.043 459.113 436.043 454.277C436.043 449.442 435.055 445.728 433.08 443.133C431.105 440.509 428.274 439.197 424.589 439.197ZM502.202 413.194V478.291H489.952V471.613C488.153 474.473 486.104 476.552 483.805 477.849C481.505 479.146 478.645 479.795 475.225 479.795C469.594 479.795 464.847 477.524 460.985 472.984C457.152 468.414 455.236 462.562 455.236 455.427C455.236 447.202 457.123 440.73 460.897 436.013C464.7 431.296 469.771 428.937 476.11 428.937C479.028 428.937 481.623 429.586 483.893 430.883C486.163 432.151 488.006 433.92 489.421 436.19V413.194H502.202ZM468.238 454.499C468.238 458.95 469.122 462.503 470.891 465.157C472.631 467.839 475.284 469.181 478.851 469.181C482.419 469.181 485.131 467.854 486.989 465.201C488.846 462.547 489.775 459.113 489.775 454.897C489.775 449 488.286 444.784 485.308 442.249C483.48 440.716 481.357 439.949 478.94 439.949C475.255 439.949 472.542 441.349 470.803 444.15C469.093 446.922 468.238 450.371 468.238 454.499ZM554.961 464.139C554.636 466.999 553.147 469.903 550.494 472.851C546.367 477.539 540.588 479.883 533.158 479.883C527.026 479.883 521.616 477.908 516.928 473.957C512.24 470.006 509.897 463.579 509.897 454.676C509.897 446.332 512.005 439.934 516.221 435.482C520.466 431.031 525.965 428.805 532.716 428.805C536.726 428.805 540.337 429.556 543.551 431.06C546.765 432.564 549.418 434.937 551.511 438.18C553.398 441.04 554.622 444.357 555.182 448.13C555.506 450.342 555.639 453.526 555.58 457.683H522.589C522.766 462.518 524.284 465.908 527.144 467.854C528.883 469.063 530.977 469.667 533.424 469.667C536.018 469.667 538.126 468.93 539.748 467.456C540.632 466.66 541.413 465.555 542.092 464.139H554.961ZM542.49 449.369C542.283 446.037 541.266 443.516 539.438 441.806C537.64 440.067 535.399 439.197 532.716 439.197C529.797 439.197 527.527 440.111 525.906 441.939C524.314 443.767 523.311 446.243 522.898 449.369H542.49Z" fill="#C2C2C2"/>
<path d="M82.4569 880.513C82.4569 877.699 81.4604 875.53 79.4672 874.006C77.5034 872.482 73.9422 870.943 68.7835 869.389C63.6249 867.836 59.5214 866.107 56.4731 864.201C50.6403 860.538 47.7239 855.76 47.7239 849.869C47.7239 844.71 49.8196 840.46 54.011 837.118C58.2317 833.777 63.6981 832.106 70.4103 832.106C74.8655 832.106 78.8371 832.927 82.325 834.568C85.813 836.21 88.5535 838.555 90.5466 841.603C92.5398 844.622 93.5363 847.978 93.5363 851.671H82.4569C82.4569 848.33 81.4017 845.721 79.2914 843.845C77.2103 841.94 74.2206 840.987 70.3223 840.987C66.6878 840.987 63.8593 841.764 61.8369 843.318C59.8438 844.871 58.8472 847.04 58.8472 849.825C58.8472 852.169 59.9317 854.133 62.1007 855.716C64.2697 857.269 67.8456 858.794 72.8284 860.288C77.8112 861.754 81.8121 863.439 84.8311 865.345C87.8501 867.22 90.063 869.389 91.4699 871.852C92.8768 874.284 93.5803 877.142 93.5803 880.425C93.5803 885.759 91.5286 890.009 87.4251 893.175C83.3509 896.311 77.8112 897.879 70.806 897.879C66.1749 897.879 61.9102 897.029 58.0119 895.329C54.1429 893.6 51.1239 891.226 48.9549 888.207C46.8152 885.188 45.7454 881.671 45.7454 877.655H56.8688C56.8688 881.29 58.0705 884.103 60.474 886.096C62.8774 888.09 66.3214 889.086 70.806 889.086C74.675 889.086 77.5767 888.309 79.5112 886.756C81.475 885.173 82.4569 883.092 82.4569 880.513ZM121.85 889.35C124.518 889.35 126.731 888.573 128.489 887.02C130.248 885.466 131.186 883.546 131.303 881.26H141.371C141.254 884.221 140.331 886.99 138.601 889.57C136.872 892.12 134.527 894.142 131.567 895.637C128.606 897.132 125.412 897.879 121.982 897.879C115.329 897.879 110.053 895.725 106.155 891.416C102.256 887.108 100.307 881.158 100.307 873.566V872.467C100.307 865.227 102.242 859.438 106.111 855.1C109.98 850.733 115.255 848.55 121.938 848.55C127.595 848.55 132.197 850.206 135.744 853.518C139.319 856.801 141.195 861.124 141.371 866.488H131.303C131.186 863.762 130.248 861.52 128.489 859.761C126.76 858.002 124.547 857.123 121.85 857.123C118.392 857.123 115.724 858.383 113.849 860.904C111.973 863.395 111.02 867.191 110.991 872.291V874.006C110.991 879.164 111.914 883.019 113.761 885.569C115.637 888.09 118.333 889.35 121.85 889.35ZM177.863 897C177.394 896.091 176.984 894.611 176.632 892.559C173.232 896.106 169.07 897.879 164.146 897.879C159.368 897.879 155.47 896.516 152.451 893.79C149.432 891.065 147.922 887.694 147.922 883.678C147.922 878.608 149.798 874.724 153.55 872.027C157.331 869.301 162.724 867.939 169.729 867.939H176.28V864.817C176.28 862.355 175.591 860.391 174.214 858.926C172.836 857.431 170.74 856.683 167.927 856.683C165.494 856.683 163.501 857.299 161.947 858.53C160.394 859.732 159.617 861.27 159.617 863.146H148.933C148.933 860.538 149.798 858.105 151.527 855.848C153.257 853.562 155.602 851.774 158.562 850.484C161.552 849.194 164.878 848.55 168.542 848.55C174.111 848.55 178.552 849.956 181.864 852.77C185.176 855.555 186.876 859.482 186.964 864.553V886.009C186.964 890.288 187.565 893.703 188.766 896.253V897H177.863ZM166.124 889.306C168.234 889.306 170.213 888.793 172.059 887.767C173.935 886.741 175.342 885.364 176.28 883.634V874.665H170.521C166.564 874.665 163.589 875.354 161.596 876.732C159.602 878.109 158.606 880.058 158.606 882.579C158.606 884.631 159.28 886.272 160.628 887.503C162.006 888.705 163.838 889.306 166.124 889.306ZM208.068 849.429L208.375 854.925C211.893 850.675 216.509 848.55 222.225 848.55C232.132 848.55 237.173 854.221 237.349 865.564V897H226.665V866.18C226.665 863.161 226.006 860.933 224.687 859.497C223.397 858.032 221.272 857.299 218.312 857.299C214.003 857.299 210.793 859.248 208.683 863.146V897H197.999V849.429H208.068ZM284.085 837.866V849.429H292.482V857.343H284.085V883.898C284.085 885.715 284.436 887.034 285.14 887.855C285.873 888.646 287.162 889.042 289.009 889.042C290.24 889.042 291.485 888.896 292.746 888.603V896.868C290.313 897.542 287.968 897.879 285.711 897.879C277.504 897.879 273.401 893.351 273.401 884.294V857.343H265.575V849.429H273.401V837.866H284.085ZM297.362 872.775C297.362 868.114 298.286 863.923 300.132 860.201C301.979 856.449 304.573 853.576 307.914 851.583C311.255 849.561 315.095 848.55 319.433 848.55C325.852 848.55 331.055 850.616 335.041 854.749C339.057 858.882 341.226 864.363 341.548 871.192L341.592 873.698C341.592 878.388 340.683 882.579 338.866 886.272C337.078 889.965 334.499 892.823 331.128 894.846C327.787 896.868 323.918 897.879 319.521 897.879C312.809 897.879 307.43 895.652 303.386 891.197C299.37 886.712 297.362 880.747 297.362 873.302V872.775ZM308.046 873.698C308.046 878.593 309.057 882.433 311.08 885.217C313.102 887.972 315.916 889.35 319.521 889.35C323.126 889.35 325.925 887.943 327.919 885.129C329.941 882.315 330.952 878.197 330.952 872.775C330.952 867.968 329.912 864.157 327.831 861.344C325.779 858.53 322.98 857.123 319.433 857.123C315.945 857.123 313.175 858.515 311.124 861.3C309.072 864.055 308.046 868.188 308.046 873.698ZM414.795 873.698C414.795 881.084 413.139 886.961 409.827 891.328C406.544 895.696 402.016 897.879 396.242 897.879C390.673 897.879 386.335 895.872 383.228 891.856L382.7 897H373.028V829.468H383.711V854.001C386.789 850.367 390.936 848.55 396.154 848.55C401.957 848.55 406.515 850.704 409.827 855.013C413.139 859.321 414.795 865.345 414.795 873.083V873.698ZM404.111 872.775C404.111 867.616 403.203 863.747 401.386 861.168C399.568 858.588 396.93 857.299 393.472 857.299C388.841 857.299 385.587 859.321 383.711 863.366V882.975C385.616 887.108 388.899 889.174 393.56 889.174C396.901 889.174 399.48 887.928 401.298 885.437C403.115 882.946 404.053 879.179 404.111 874.138V872.775ZM452.606 892.34C449.47 896.033 445.014 897.879 439.24 897.879C434.082 897.879 430.169 896.37 427.501 893.351C424.863 890.332 423.544 885.965 423.544 880.249V849.429H434.228V880.117C434.228 886.155 436.734 889.174 441.746 889.174C446.934 889.174 450.437 887.313 452.254 883.59V849.429H462.938V897H452.87L452.606 892.34ZM490.461 881.7L500.133 849.429H511.52L492.615 904.21C489.713 912.212 484.789 916.213 477.842 916.213C476.289 916.213 474.574 915.949 472.698 915.422V907.156L474.721 907.288C477.417 907.288 479.44 906.79 480.788 905.793C482.166 904.826 483.25 903.185 484.042 900.869L485.58 896.78L468.873 849.429H480.392L490.461 881.7ZM541.153 897V832.986H563.092C570.332 832.986 575.842 834.437 579.623 837.338C583.404 840.24 585.295 844.563 585.295 850.308C585.295 853.239 584.504 855.877 582.921 858.222C581.338 860.567 579.023 862.384 575.974 863.674C579.433 864.612 582.1 866.385 583.976 868.994C585.881 871.573 586.834 874.68 586.834 878.314C586.834 884.323 584.899 888.94 581.03 892.164C577.191 895.388 571.68 897 564.499 897H541.153ZM552.277 868.114V888.119H564.631C568.119 888.119 570.845 887.254 572.809 885.525C574.772 883.796 575.754 881.392 575.754 878.314C575.754 871.661 572.354 868.261 565.554 868.114H552.277ZM552.277 859.937H563.18C566.639 859.937 569.335 859.16 571.27 857.607C573.234 856.024 574.216 853.796 574.216 850.924C574.216 847.758 573.307 845.472 571.49 844.065C569.702 842.658 566.903 841.955 563.092 841.955H552.277V859.937ZM642.978 841.955H623.018V897H611.982V841.955H592.198V832.986H642.978V841.955ZM699.035 876.16C698.39 882.99 695.869 888.324 691.473 892.164C687.076 895.974 681.229 897.879 673.93 897.879C668.83 897.879 664.331 896.678 660.433 894.274C656.564 891.841 653.574 888.397 651.464 883.942C649.353 879.487 648.254 874.314 648.166 868.422V862.443C648.166 856.405 649.236 851.085 651.376 846.483C653.515 841.881 656.578 838.335 660.565 835.843C664.58 833.352 669.211 832.106 674.458 832.106C681.522 832.106 687.208 834.026 691.517 837.866C695.825 841.706 698.331 847.128 699.035 854.133H687.955C687.428 849.531 686.08 846.219 683.911 844.197C681.771 842.145 678.62 841.119 674.458 841.119C669.622 841.119 665.899 842.893 663.291 846.439C660.711 849.956 659.392 855.13 659.334 861.959V867.631C659.334 874.548 660.565 879.824 663.027 883.459C665.518 887.093 669.153 888.91 673.93 888.91C678.298 888.91 681.58 887.928 683.779 885.965C685.977 884.001 687.369 880.733 687.955 876.16H699.035Z" fill="white"/>
<g clip-path="url(#clip1_277_74)">
<path d="M831.978 300.055C766.223 285.683 724.573 220.734 738.944 154.979C753.316 89.2232 818.264 47.573 884.02 61.9446C949.775 76.3161 991.426 141.265 977.054 207.02C962.682 272.776 897.734 314.426 831.978 300.055ZM840.11 262.85C848.555 264.696 857.232 265.235 865.836 264.426C866.736 264.365 867.615 264.124 868.42 263.717C869.226 263.311 869.942 262.748 870.526 262.061C871.111 261.374 871.552 260.577 871.824 259.717C872.095 258.857 872.192 257.951 872.109 257.053C872.025 256.154 871.763 255.282 871.337 254.487C870.912 253.691 870.331 252.989 869.63 252.422C868.929 251.854 868.122 251.433 867.255 251.182C866.389 250.931 865.481 250.856 864.585 250.961C857.364 251.636 850.082 251.188 842.998 249.635C805.154 241.363 781.093 203.843 789.364 165.999C797.635 128.154 835.155 104.093 873 112.364C910.845 120.636 934.906 158.156 926.634 196C925.268 202.251 923.057 208.301 920.058 213.961C919.217 215.546 919.041 217.4 919.567 219.115C920.094 220.831 921.28 222.267 922.865 223.107C924.451 223.948 926.305 224.124 928.02 223.598C929.736 223.072 931.172 221.885 932.012 220.3C935.592 213.551 938.22 206.345 939.849 198.889C949.71 153.774 921.003 109.009 875.888 99.1492C830.774 89.289 786.014 117.974 776.149 163.11C766.284 208.247 794.973 252.985 840.11 262.85ZM883.155 186.295C880.765 183.266 877.462 181.089 873.736 180.089C876.869 178.742 879.478 176.411 881.167 173.449C882.805 170.594 883.651 167.365 883.635 164.087C883.622 159.67 882.098 155.391 879.315 151.962C877.937 150.303 876.243 148.934 874.332 147.934C872.319 146.886 870.077 146.356 867.808 146.391L863.436 146.387C862.839 146.389 862.265 146.154 861.841 145.734C861.417 145.314 861.177 144.743 861.173 144.146L861.158 138.935C861.155 138.338 860.915 137.767 860.49 137.347C860.066 136.926 859.493 136.692 858.896 136.694L853.615 136.709C853.019 136.708 852.448 136.942 852.025 137.361C851.602 137.78 851.361 138.349 851.356 138.944L851.378 144.196C851.379 144.492 851.321 144.785 851.209 145.059C851.096 145.333 850.931 145.582 850.722 145.792C850.513 146.002 850.265 146.169 849.992 146.283C849.719 146.397 849.426 146.456 849.13 146.457L834.83 146.497C833.372 146.499 831.975 147.08 830.945 148.112C829.915 149.144 829.338 150.543 829.339 152.001L829.484 210.194C829.486 211.652 830.068 213.05 831.1 214.079C832.132 215.109 833.531 215.687 834.989 215.685L849.29 215.638C849.586 215.637 849.88 215.694 850.153 215.807C850.427 215.92 850.676 216.085 850.886 216.294C851.096 216.502 851.263 216.751 851.377 217.024C851.491 217.297 851.55 217.59 851.551 217.886L851.567 223.09C851.568 223.386 851.627 223.679 851.741 223.952C851.856 224.225 852.022 224.473 852.232 224.682C852.442 224.891 852.691 225.056 852.965 225.169C853.239 225.281 853.532 225.339 853.828 225.338L859.11 225.323C859.406 225.322 859.699 225.263 859.972 225.149C860.245 225.035 860.493 224.868 860.702 224.658C860.911 224.448 861.076 224.199 861.189 223.926C861.301 223.652 861.359 223.358 861.358 223.062L861.342 217.82C861.34 217.228 861.571 216.66 861.984 216.237C862.397 215.814 862.96 215.57 863.552 215.558L865.533 215.516C868.716 215.51 869.411 215.217 872.244 214.456C874.915 213.787 877.45 212.661 879.738 211.128C881.842 209.709 883.565 207.817 884.797 205.607C886.069 203.211 886.704 200.519 886.626 197.805C886.622 193.118 885.465 189.279 883.155 186.295ZM845.347 165.581C845.346 164.123 845.924 162.724 846.953 161.692C847.983 160.659 849.381 160.078 850.839 160.076L861.605 160.043C862.42 160.029 863.229 160.186 863.98 160.503C864.731 160.82 865.408 161.291 865.966 161.885C867.178 163.117 867.777 164.87 867.778 167.147C867.785 169.612 867.114 171.437 865.751 172.605C864.465 173.752 862.8 174.383 861.076 174.375L850.896 174.403C850.173 174.405 849.457 174.264 848.789 173.989C848.121 173.713 847.513 173.309 847.001 172.799C846.489 172.289 846.083 171.683 845.806 171.016C845.528 170.348 845.385 169.633 845.384 168.91L845.347 165.581ZM868.308 199.968C867.635 200.647 866.83 201.18 865.942 201.534C865.055 201.889 864.104 202.057 863.148 202.029L850.909 202.059C849.451 202.061 848.052 201.483 847.02 200.454C845.988 199.424 845.407 198.026 845.404 196.568L845.391 192.457C845.389 190.999 845.967 189.6 846.997 188.567C848.026 187.535 849.424 186.954 850.882 186.952L863.801 186.914C864.701 186.9 865.592 187.095 866.404 187.483C867.216 187.872 867.927 188.444 868.481 189.153C869.735 190.69 870.397 192.621 870.345 194.605C870.391 195.59 870.235 196.574 869.888 197.497C869.54 198.42 869.007 199.262 868.323 199.971L868.308 199.968Z" fill="#333333"/>
</g>
</g>
<defs>
<clipPath id="clip0_277_74">
<rect width="1000" height="1000" fill="white"/>
</clipPath>
<clipPath id="clip1_277_74">
<rect width="243.731" height="243.731" fill="white" transform="translate(764.965 35.9238) rotate(12.3287)"/>
</clipPath>
</defs>
</svg>
