<svg width="1000" height="1000" viewBox="0 0 1000 1000" fill="none" xmlns="http://www.w3.org/2000/svg">
<rect x="232" y="121" width="536" height="536" rx="5.15942" fill="white"/>
<path d="M623.279 158.52H730.479V265.72" stroke="#C2C2C2" stroke-width="21.44"/>
<path d="M376.719 158.52H269.519V265.72" stroke="#C2C2C2" stroke-width="21.44"/>
<path d="M623.279 619.479H730.479V512.279" stroke="#C2C2C2" stroke-width="21.44"/>
<path d="M376.719 619.479H269.519V512.279" stroke="#C2C2C2" stroke-width="21.44"/>
<path d="M372.56 345.858L363.688 320.04L354.26 345.858H372.56ZM359.551 311.368H368.502L389.705 369.807H381.033L375.106 352.303H351.993L345.667 369.807H337.552L359.551 311.368ZM400.486 349.001C400.486 353.563 401.454 357.382 403.39 360.458C405.326 363.534 408.429 365.073 412.699 365.073C416.014 365.073 418.732 363.654 420.854 360.816C423.002 357.952 424.076 353.854 424.076 348.524C424.076 343.14 422.976 339.162 420.774 336.589C418.573 333.99 415.855 332.691 412.619 332.691C409.012 332.691 406.082 334.07 403.828 336.828C401.6 339.586 400.486 343.644 400.486 349.001ZM411.267 326.445C414.529 326.445 417.26 327.135 419.462 328.514C420.735 329.309 422.18 330.702 423.798 332.691V311.169H430.68V369.807H424.235V363.879C422.565 366.505 420.589 368.401 418.308 369.568C416.027 370.735 413.415 371.318 410.471 371.318C405.724 371.318 401.613 369.329 398.139 365.351C394.665 361.346 392.928 356.029 392.928 349.399C392.928 343.193 394.505 337.823 397.661 333.287C400.844 328.726 405.379 326.445 411.267 326.445ZM445.837 349.001C445.837 353.563 446.805 357.382 448.741 360.458C450.677 363.534 453.78 365.073 458.049 365.073C461.365 365.073 464.083 363.654 466.205 360.816C468.353 357.952 469.427 353.854 469.427 348.524C469.427 343.14 468.326 339.162 466.125 336.589C463.924 333.99 461.205 332.691 457.97 332.691C454.363 332.691 451.432 334.07 449.178 336.828C446.95 339.586 445.837 343.644 445.837 349.001ZM456.617 326.445C459.879 326.445 462.611 327.135 464.812 328.514C466.085 329.309 467.531 330.702 469.148 332.691V311.169H476.031V369.807H469.586V363.879C467.915 366.505 465.939 368.401 463.659 369.568C461.378 370.735 458.765 371.318 455.822 371.318C451.074 371.318 446.964 369.329 443.489 365.351C440.015 361.346 438.278 356.029 438.278 349.399C438.278 343.193 439.856 337.823 443.012 333.287C446.195 328.726 450.73 326.445 456.617 326.445ZM535.941 327.201H543.858C542.85 329.933 540.609 336.165 537.135 345.898C534.535 353.218 532.361 359.185 530.61 363.8C526.473 374.673 523.556 381.303 521.859 383.69C520.161 386.077 517.244 387.271 513.107 387.271C512.099 387.271 511.316 387.231 510.76 387.151C510.229 387.072 509.566 386.926 508.77 386.714V380.19C510.017 380.534 510.919 380.746 511.476 380.826C512.033 380.906 512.523 380.945 512.948 380.945C514.274 380.945 515.242 380.72 515.852 380.269C516.488 379.845 517.018 379.314 517.443 378.678C517.575 378.466 518.053 377.378 518.875 375.416C519.697 373.453 520.294 371.995 520.665 371.04L504.912 327.201H513.027L524.444 361.89L535.941 327.201ZM566.97 365.192C571.718 365.192 574.967 363.402 576.717 359.822C578.494 356.215 579.382 352.21 579.382 347.808C579.382 343.829 578.746 340.594 577.473 338.101C575.457 334.176 571.983 332.213 567.05 332.213C562.674 332.213 559.492 333.884 557.503 337.226C555.513 340.567 554.519 344.599 554.519 349.319C554.519 353.854 555.513 357.634 557.503 360.657C559.492 363.68 562.648 365.192 566.97 365.192ZM567.249 325.968C572.739 325.968 577.38 327.798 581.172 331.458C584.965 335.117 586.861 340.501 586.861 347.609C586.861 354.478 585.19 360.153 581.849 364.635C578.507 369.117 573.322 371.358 566.294 371.358C560.433 371.358 555.779 369.382 552.331 365.431C548.883 361.453 547.159 356.122 547.159 349.439C547.159 342.278 548.976 336.576 552.609 332.333C556.243 328.089 561.123 325.968 567.249 325.968ZM602.575 327.201V355.485C602.575 357.66 602.919 359.437 603.609 360.816C604.882 363.362 607.256 364.635 610.73 364.635C615.716 364.635 619.11 362.407 620.914 357.952C621.895 355.565 622.386 352.29 622.386 348.126V327.201H629.546V369.807H622.784L622.863 363.521C621.935 365.139 620.781 366.505 619.402 367.619C616.671 369.846 613.355 370.96 609.457 370.96C603.384 370.96 599.246 368.931 597.045 364.874C595.852 362.699 595.255 359.795 595.255 356.162V327.201H602.575ZM640.964 327.201H647.766V334.56C648.323 333.128 649.689 331.391 651.864 329.349C654.038 327.28 656.545 326.246 659.382 326.246C659.515 326.246 659.74 326.259 660.059 326.286C660.377 326.312 660.921 326.366 661.69 326.445V334.004C661.265 333.924 660.867 333.871 660.496 333.844C660.151 333.818 659.767 333.805 659.343 333.805C655.736 333.805 652.964 334.972 651.028 337.305C649.092 339.613 648.124 342.278 648.124 345.301V369.807H640.964V327.201Z" fill="#C2C2C2"/>
<path d="M373.279 466.363C370.654 467.238 367.511 467.676 363.851 467.676C356.213 467.676 349.901 465.395 344.915 460.834C338.868 455.344 335.845 447.281 335.845 436.647C335.845 425.932 338.948 417.83 345.154 412.34C350.219 407.858 356.518 405.617 364.05 405.617C371.635 405.617 378 407.991 383.145 412.738C389.086 418.228 392.056 425.906 392.056 435.771C392.056 440.996 391.419 445.372 390.146 448.899C389.112 452.267 387.587 455.065 385.572 457.293L392.334 463.618L385.93 470.302L378.849 463.618C376.7 464.918 374.844 465.833 373.279 466.363ZM370.654 455.781L364.726 450.132L371.051 443.529L376.979 449.178C377.907 447.268 378.557 445.597 378.928 444.165C379.512 442.017 379.803 439.511 379.803 436.647C379.803 430.069 378.451 424.991 375.746 421.41C373.067 417.804 369.142 416 363.97 416C359.117 416 355.245 417.724 352.354 421.172C349.463 424.619 348.018 429.778 348.018 436.647C348.018 444.682 350.087 450.437 354.224 453.912C356.903 456.166 360.112 457.293 363.851 457.293C365.257 457.293 366.609 457.121 367.909 456.776C368.625 456.59 369.54 456.259 370.654 455.781ZM426.347 443.051H413.697V466.045H401.723V407.407H430.485C434.595 407.487 437.751 407.991 439.953 408.919C442.18 409.847 444.063 411.213 445.601 413.017C446.874 414.502 447.882 416.146 448.625 417.949C449.367 419.753 449.739 421.808 449.739 424.115C449.739 426.9 449.036 429.645 447.63 432.35C446.225 435.029 443.904 436.925 440.669 438.039C443.374 439.126 445.283 440.678 446.397 442.693C447.537 444.682 448.108 447.732 448.108 451.843V455.781C448.108 458.46 448.214 460.277 448.426 461.231C448.744 462.743 449.487 463.857 450.654 464.573V466.045H437.168C436.797 464.745 436.531 463.698 436.372 462.902C436.054 461.258 435.882 459.574 435.855 457.85L435.775 452.4C435.722 448.661 435.033 446.168 433.707 444.921C432.407 443.675 429.954 443.051 426.347 443.051ZM433.786 432.39C436.226 431.276 437.446 429.075 437.446 425.786C437.446 422.233 436.266 419.846 433.906 418.626C432.58 417.936 430.591 417.591 427.939 417.591H413.697V433.345H427.581C430.339 433.345 432.407 433.026 433.786 432.39ZM519.595 438.238H507.978C507.766 436.62 507.223 435.161 506.347 433.862C505.074 432.112 503.099 431.236 500.42 431.236C496.601 431.236 493.989 433.133 492.583 436.925C491.841 438.941 491.469 441.619 491.469 444.961C491.469 448.143 491.841 450.703 492.583 452.639C493.936 456.245 496.482 458.049 500.221 458.049C502.873 458.049 504.756 457.333 505.87 455.901C506.984 454.469 507.66 452.612 507.899 450.331H519.475C519.21 453.779 517.964 457.041 515.736 460.118C512.182 465.077 506.918 467.557 499.943 467.557C492.968 467.557 487.836 465.488 484.547 461.351C481.259 457.213 479.614 451.843 479.614 445.239C479.614 437.787 481.431 431.992 485.064 427.855C488.698 423.718 493.71 421.649 500.102 421.649C505.539 421.649 509.981 422.869 513.428 425.309C516.903 427.749 518.958 432.058 519.595 438.238ZM563.593 428.173C567.253 432.761 569.082 438.185 569.082 444.444C569.082 450.809 567.253 456.259 563.593 460.794C559.933 465.302 554.377 467.557 546.924 467.557C539.472 467.557 533.916 465.302 530.256 460.794C526.596 456.259 524.766 450.809 524.766 444.444C524.766 438.185 526.596 432.761 530.256 428.173C533.916 423.585 539.472 421.291 546.924 421.291C554.377 421.291 559.933 423.585 563.593 428.173ZM546.885 430.878C543.569 430.878 541.01 432.058 539.207 434.419C537.43 436.753 536.541 440.094 536.541 444.444C536.541 448.793 537.43 452.148 539.207 454.508C541.01 456.869 543.569 458.049 546.885 458.049C550.2 458.049 552.746 456.869 554.523 454.508C556.299 452.148 557.188 448.793 557.188 444.444C557.188 440.094 556.299 436.753 554.523 434.419C552.746 432.058 550.2 430.878 546.885 430.878ZM616.701 407.487V466.045H605.681V460.038C604.063 462.61 602.22 464.48 600.152 465.647C598.083 466.814 595.51 467.397 592.434 467.397C587.369 467.397 583.099 465.355 579.624 461.271C576.177 457.16 574.453 451.896 574.453 445.478C574.453 438.079 576.15 432.257 579.545 428.014C582.966 423.771 587.528 421.649 593.23 421.649C595.855 421.649 598.189 422.233 600.231 423.399C602.273 424.54 603.931 426.131 605.204 428.173V407.487H616.701ZM586.149 444.643C586.149 448.647 586.944 451.843 588.535 454.23C590.1 456.643 592.487 457.85 595.696 457.85C598.905 457.85 601.345 456.657 603.016 454.27C604.687 451.883 605.522 448.793 605.522 445.001C605.522 439.696 604.183 435.904 601.504 433.623C599.86 432.244 597.95 431.555 595.776 431.555C592.461 431.555 590.021 432.814 588.456 435.334C586.918 437.827 586.149 440.93 586.149 444.643ZM664.16 453.315C663.868 455.887 662.529 458.5 660.142 461.152C656.429 465.369 651.231 467.477 644.547 467.477C639.031 467.477 634.165 465.7 629.948 462.146C625.731 458.593 623.623 452.811 623.623 444.802C623.623 437.296 625.519 431.541 629.311 427.537C633.13 423.532 638.076 421.53 644.15 421.53C647.756 421.53 651.005 422.206 653.896 423.559C656.787 424.911 659.174 427.046 661.057 429.963C662.754 432.536 663.855 435.519 664.359 438.914C664.65 440.903 664.77 443.767 664.717 447.507H635.04C635.199 451.856 636.565 454.906 639.137 456.657C640.702 457.744 642.585 458.288 644.786 458.288C647.12 458.288 649.016 457.625 650.475 456.299C651.27 455.582 651.973 454.588 652.583 453.315H664.16ZM652.941 440.028C652.756 437.031 651.841 434.764 650.196 433.225C648.579 431.661 646.563 430.878 644.15 430.878C641.524 430.878 639.482 431.7 638.023 433.345C636.591 434.989 635.69 437.217 635.318 440.028H652.941Z" fill="#C2C2C2"/>
<path d="M0 111.111V1000L266.667 800C285.889 785.556 309.278 777.778 333.333 777.778H888.889C918.357 777.778 946.619 766.071 967.456 745.234C988.294 724.397 1000 696.135 1000 666.667V111.111C1000 81.6426 988.294 53.3811 967.456 32.5437C946.619 11.7063 918.357 0 888.889 0H111.111C81.6426 0 53.3811 11.7063 32.5437 32.5437C11.7063 53.3811 0 81.6426 0 111.111V111.111ZM111.111 777.778V111.111H888.889V666.667H296.333C272.282 666.602 248.869 674.406 229.667 688.889L111.111 777.778Z" fill="#333333"/>
<path d="M291.562 811.58C298.008 806.663 305.891 804 313.999 804H978C990.15 804 1000 813.85 1000 826V963C1000 983.435 983.435 1000 963 1000H44.5L291.562 811.58Z" fill="#333333"/>
<path d="M335.777 914C335.777 911.781 334.991 910.07 333.419 908.869C331.871 907.667 329.063 906.453 324.995 905.229C320.927 904.004 317.692 902.64 315.288 901.138C310.689 898.249 308.389 894.481 308.389 889.836C308.389 885.768 310.042 882.417 313.347 879.782C316.675 877.147 320.985 875.83 326.278 875.83C329.791 875.83 332.923 876.477 335.673 877.771C338.423 879.066 340.584 880.915 342.156 883.318C343.727 885.699 344.513 888.345 344.513 891.257H335.777C335.777 888.623 334.945 886.566 333.281 885.086C331.64 883.584 329.282 882.833 326.208 882.833C323.343 882.833 321.112 883.445 319.518 884.67C317.946 885.895 317.16 887.606 317.16 889.801C317.16 891.65 318.015 893.199 319.726 894.447C321.436 895.672 324.256 896.874 328.185 898.052C332.114 899.208 335.268 900.537 337.649 902.039C340.029 903.518 341.774 905.229 342.884 907.17C343.993 909.088 344.548 911.342 344.548 913.93C344.548 918.137 342.93 921.488 339.694 923.984C336.482 926.457 332.114 927.693 326.59 927.693C322.938 927.693 319.575 927.023 316.501 925.683C313.451 924.319 311.07 922.447 309.36 920.066C307.673 917.686 306.829 914.912 306.829 911.746H315.6C315.6 914.612 316.548 916.831 318.443 918.402C320.338 919.974 323.054 920.76 326.59 920.76C329.641 920.76 331.929 920.147 333.454 918.922C335.003 917.674 335.777 916.033 335.777 914ZM381.747 904.466H361.015V919.997H385.248V927H352.244V876.523H385.005V883.596H361.015V897.532H381.747V904.466ZM432.431 927H423.66L401.161 891.188V927H392.39V876.523H401.161L423.729 912.474V876.523H432.431V927ZM442.797 927V876.523H457.704C462.165 876.523 466.117 877.517 469.561 879.505C473.027 881.493 475.708 884.312 477.604 887.964C479.499 891.616 480.446 895.799 480.446 900.514V903.044C480.446 907.829 479.487 912.035 477.569 915.664C475.674 919.292 472.958 922.089 469.422 924.053C465.909 926.018 461.876 927 457.323 927H442.797ZM451.568 883.596V919.997H457.288C461.887 919.997 465.412 918.564 467.862 915.698C470.335 912.809 471.594 908.672 471.641 903.287V900.479C471.641 895.001 470.45 890.818 468.07 887.929C465.689 885.04 462.234 883.596 457.704 883.596H451.568ZM535.118 915.248H515.565L511.474 927H502.356L521.424 876.523H529.293L548.396 927H539.243L535.118 915.248ZM518.026 908.175H532.656L525.341 887.236L518.026 908.175ZM583.202 876.523L597.763 915.213L612.289 876.523H623.625V927H614.889V910.359L615.755 888.103L600.848 927H594.573L579.701 888.137L580.567 910.359V927H571.831V876.523H583.202ZM663.528 904.466H642.796V919.997H667.029V927H634.025V876.523H666.787V883.596H642.796V897.532H663.528V904.466ZM700.553 914C700.553 911.781 699.767 910.07 698.196 908.869C696.647 907.667 693.839 906.453 689.771 905.229C685.704 904.004 682.468 902.64 680.064 901.138C675.465 898.249 673.166 894.481 673.166 889.836C673.166 885.768 674.818 882.417 678.123 879.782C681.451 877.147 685.762 875.83 691.054 875.83C694.567 875.83 697.699 876.477 700.449 877.771C703.2 879.066 705.361 880.915 706.932 883.318C708.504 885.699 709.29 888.345 709.29 891.257H700.553C700.553 888.623 699.721 886.566 698.057 885.086C696.416 883.584 694.059 882.833 690.985 882.833C688.119 882.833 685.889 883.445 684.294 884.67C682.722 885.895 681.937 887.606 681.937 889.801C681.937 891.65 682.792 893.199 684.502 894.447C686.212 895.672 689.032 896.874 692.961 898.052C696.89 899.208 700.045 900.537 702.425 902.039C704.806 903.518 706.551 905.229 707.66 907.17C708.77 909.088 709.324 911.342 709.324 913.93C709.324 918.137 707.706 921.488 704.471 923.984C701.258 926.457 696.89 927.693 691.366 927.693C687.715 927.693 684.352 927.023 681.278 925.683C678.227 924.319 675.847 922.447 674.136 920.066C672.449 917.686 671.605 914.912 671.605 911.746H680.376C680.376 914.612 681.324 916.831 683.219 918.402C685.114 919.974 687.83 920.76 691.366 920.76C694.417 920.76 696.705 920.147 698.23 918.922C699.779 917.674 700.553 916.033 700.553 914ZM743.403 914C743.403 911.781 742.617 910.07 741.045 908.869C739.497 907.667 736.689 906.453 732.621 905.229C728.553 904.004 725.318 902.64 722.914 901.138C718.315 898.249 716.015 894.481 716.015 889.836C716.015 885.768 717.668 882.417 720.973 879.782C724.301 877.147 728.611 875.83 733.904 875.83C737.417 875.83 740.549 876.477 743.299 877.771C746.049 879.066 748.21 880.915 749.782 883.318C751.353 885.699 752.139 888.345 752.139 891.257H743.403C743.403 888.623 742.571 886.566 740.907 885.086C739.266 883.584 736.908 882.833 733.834 882.833C730.969 882.833 728.738 883.445 727.144 884.67C725.572 885.895 724.786 887.606 724.786 889.801C724.786 891.65 725.641 893.199 727.352 894.447C729.062 895.672 731.882 896.874 735.811 898.052C739.74 899.208 742.894 900.537 745.275 902.039C747.655 903.518 749.4 905.229 750.51 907.17C751.619 909.088 752.174 911.342 752.174 913.93C752.174 918.137 750.556 921.488 747.32 923.984C744.108 926.457 739.74 927.693 734.216 927.693C730.564 927.693 727.201 927.023 724.127 925.683C721.077 924.319 718.696 922.447 716.986 920.066C715.299 917.686 714.455 914.912 714.455 911.746H723.226C723.226 914.612 724.174 916.831 726.069 918.402C727.964 919.974 730.68 920.76 734.216 920.76C737.267 920.76 739.555 920.147 741.08 918.922C742.629 917.674 743.403 916.033 743.403 914ZM788.125 915.248H768.572L764.481 927H755.363L774.431 876.523H782.3L801.402 927H792.25L788.125 915.248ZM771.033 908.175H785.663L778.348 887.236L771.033 908.175ZM845.084 920.448C843.258 922.828 840.727 924.631 837.492 925.856C834.256 927.081 830.581 927.693 826.467 927.693C822.238 927.693 818.494 926.734 815.235 924.816C811.976 922.898 809.457 920.159 807.677 916.6C805.921 913.017 805.008 908.846 804.938 904.084V900.132C804.938 892.505 806.764 886.554 810.416 882.278C814.068 877.979 819.164 875.83 825.705 875.83C831.321 875.83 835.781 877.217 839.086 879.99C842.391 882.764 844.379 886.762 845.049 891.985H836.452C835.481 885.907 831.956 882.868 825.878 882.868C821.949 882.868 818.956 884.289 816.899 887.132C814.865 889.951 813.813 894.1 813.744 899.578V903.46C813.744 908.915 814.888 913.156 817.176 916.184C819.487 919.188 822.688 920.69 826.779 920.69C831.263 920.69 834.452 919.674 836.348 917.64V907.759H825.947V901.103H845.084V920.448ZM884.224 904.466H863.493V919.997H887.726V927H854.722V876.523H887.483V883.596H863.493V897.532H884.224V904.466Z" fill="white"/>
</svg>
