<svg width="1000" height="1000" viewBox="0 0 1000 1000" fill="none" xmlns="http://www.w3.org/2000/svg">
<rect x="101" width="798" height="798" rx="14" fill="#333333"/>
<rect x="144" y="43" width="712" height="712" rx="6" fill="white"/>
<path d="M663.76 92.8379H806.16V235.238" stroke="#C2C2C2" stroke-width="28.48"/>
<path d="M336.238 92.8379H193.838V235.238" stroke="#C2C2C2" stroke-width="28.48"/>
<path d="M663.76 705.156H806.16V562.756" stroke="#C2C2C2" stroke-width="28.48"/>
<path d="M336.238 705.156H193.838V562.756" stroke="#C2C2C2" stroke-width="28.48"/>
<path d="M330.713 340.723L318.929 306.428L306.405 340.723H330.713ZM313.433 294.908H325.323L353.489 372.535H341.969L334.095 349.284H303.393L294.991 372.535H284.211L313.433 294.908ZM367.81 344.898C367.81 350.957 369.095 356.03 371.667 360.117C374.239 364.203 378.361 366.247 384.033 366.247C388.436 366.247 392.047 364.362 394.866 360.592C397.719 356.788 399.146 351.345 399.146 344.264C399.146 337.112 397.684 331.828 394.76 328.411C391.836 324.958 388.225 323.232 383.927 323.232C379.136 323.232 375.243 325.064 372.248 328.728C369.289 332.392 367.81 337.782 367.81 344.898ZM382.13 314.935C386.463 314.935 390.092 315.851 393.016 317.683C394.707 318.74 396.627 320.59 398.776 323.232V294.643H407.918V372.535H399.357V364.661C397.138 368.149 394.513 370.668 391.484 372.218C388.454 373.768 384.984 374.543 381.073 374.543C374.767 374.543 369.307 371.901 364.692 366.617C360.077 361.297 357.769 354.234 357.769 345.426C357.769 337.183 359.865 330.049 364.058 324.025C368.285 317.965 374.309 314.935 382.13 314.935ZM428.051 344.898C428.051 350.957 429.337 356.03 431.909 360.117C434.481 364.203 438.603 366.247 444.275 366.247C448.678 366.247 452.289 364.362 455.107 360.592C457.961 356.788 459.388 351.345 459.388 344.264C459.388 337.112 457.926 331.828 455.002 328.411C452.078 324.958 448.467 323.232 444.169 323.232C439.378 323.232 435.485 325.064 432.49 328.728C429.531 332.392 428.051 337.782 428.051 344.898ZM442.372 314.935C446.705 314.935 450.334 315.851 453.258 317.683C454.949 318.74 456.869 320.59 459.018 323.232V294.643H468.16V372.535H459.599V364.661C457.38 368.149 454.755 370.668 451.725 372.218C448.696 373.768 445.226 374.543 441.315 374.543C435.009 374.543 429.549 371.901 424.934 366.617C420.319 361.297 418.011 354.234 418.011 345.426C418.011 337.183 420.107 330.049 424.3 324.025C428.527 317.965 434.551 314.935 442.372 314.935ZM547.743 315.939H558.258C556.92 319.568 553.943 327.847 549.328 340.776C545.875 350.499 542.987 358.426 540.662 364.556C535.166 379 531.291 387.807 529.036 390.978C526.781 394.148 522.906 395.734 517.41 395.734C516.072 395.734 515.032 395.681 514.292 395.575C513.588 395.469 512.707 395.276 511.65 394.994V386.327C513.306 386.785 514.504 387.067 515.244 387.173C515.983 387.279 516.635 387.331 517.199 387.331C518.96 387.331 520.246 387.032 521.056 386.433C521.902 385.869 522.607 385.165 523.17 384.319C523.346 384.037 523.981 382.593 525.073 379.986C526.165 377.379 526.957 375.442 527.451 374.173L506.524 315.939H517.305L532.471 362.019L547.743 315.939ZM588.961 366.405C595.267 366.405 599.582 364.027 601.907 359.271C604.268 354.48 605.448 349.161 605.448 343.313C605.448 338.028 604.602 333.73 602.911 330.419C600.234 325.205 595.619 322.598 589.066 322.598C583.254 322.598 579.026 324.817 576.384 329.256C573.742 333.695 572.421 339.05 572.421 345.321C572.421 351.345 573.742 356.365 576.384 360.381C579.026 364.397 583.218 366.405 588.961 366.405ZM589.331 314.301C596.623 314.301 602.788 316.732 607.826 321.594C612.864 326.455 615.383 333.607 615.383 343.048C615.383 352.173 613.163 359.712 608.724 365.665C604.285 371.619 597.398 374.596 588.062 374.596C580.277 374.596 574.094 371.971 569.514 366.722C564.934 361.438 562.645 354.357 562.645 345.479C562.645 335.967 565.058 328.393 569.884 322.756C574.711 317.12 581.193 314.301 589.331 314.301ZM636.256 315.939V353.511C636.256 356.4 636.714 358.761 637.63 360.592C639.321 363.974 642.474 365.665 647.089 365.665C653.712 365.665 658.221 362.706 660.617 356.788C661.92 353.617 662.572 349.266 662.572 343.735V315.939H672.084V372.535H663.1L663.206 364.186C661.973 366.335 660.441 368.149 658.609 369.629C654.98 372.588 650.577 374.068 645.398 374.068C637.33 374.068 631.835 371.373 628.911 365.983C627.325 363.094 626.533 359.236 626.533 354.41V315.939H636.256ZM687.25 315.939H696.286V325.716C697.026 323.813 698.84 321.506 701.729 318.793C704.618 316.045 707.947 314.671 711.717 314.671C711.893 314.671 712.192 314.689 712.615 314.724C713.038 314.759 713.76 314.83 714.782 314.935V324.976C714.218 324.87 713.69 324.8 713.196 324.764C712.738 324.729 712.228 324.712 711.664 324.712C706.873 324.712 703.191 326.262 700.62 329.362C698.048 332.427 696.762 335.967 696.762 339.983V372.535H687.25V315.939Z" fill="#C2C2C2"/>
<path d="M331.669 500.798C328.181 501.96 324.007 502.542 319.145 502.542C308.999 502.542 300.615 499.512 293.992 493.452C285.959 486.16 281.943 475.45 281.943 461.323C281.943 447.091 286.065 436.328 294.309 429.036C301.037 423.082 309.404 420.105 319.409 420.105C329.485 420.105 337.94 423.258 344.774 429.564C352.666 436.857 356.611 447.056 356.611 460.161C356.611 467.101 355.766 472.914 354.075 477.599C352.701 482.073 350.675 485.79 347.998 488.749L356.981 497.152L348.473 506.029L339.067 497.152C336.214 498.878 333.748 500.093 331.669 500.798ZM328.181 486.741L320.308 479.237L328.71 470.465L336.584 477.969C337.817 475.433 338.68 473.213 339.173 471.311C339.948 468.457 340.336 465.128 340.336 461.323C340.336 452.587 338.539 445.84 334.945 441.084C331.387 436.293 326.173 433.898 319.304 433.898C312.857 433.898 307.713 436.187 303.873 440.767C300.033 445.347 298.113 452.199 298.113 461.323C298.113 471.998 300.861 479.643 306.357 484.258C309.915 487.252 314.178 488.749 319.145 488.749C321.012 488.749 322.809 488.52 324.535 488.062C325.486 487.816 326.702 487.375 328.181 486.741ZM402.163 469.831H385.358V500.375H369.452V422.483H407.658C413.119 422.589 417.311 423.258 420.235 424.491C423.195 425.724 425.696 427.539 427.739 429.934C429.43 431.907 430.769 434.091 431.755 436.487C432.742 438.882 433.235 441.613 433.235 444.678C433.235 448.377 432.301 452.023 430.434 455.616C428.567 459.174 425.484 461.693 421.186 463.173C424.78 464.617 427.316 466.678 428.796 469.356C430.311 471.998 431.068 476.049 431.068 481.51V486.741C431.068 490.299 431.209 492.713 431.491 493.981C431.914 495.989 432.9 497.469 434.45 498.42V500.375H416.536C416.043 498.649 415.691 497.257 415.479 496.2C415.057 494.016 414.828 491.779 414.792 489.489L414.687 482.25C414.616 477.282 413.7 473.971 411.939 472.315C410.213 470.659 406.954 469.831 402.163 469.831ZM412.045 455.669C415.286 454.19 416.906 451.266 416.906 446.897C416.906 442.176 415.338 439.006 412.203 437.385C410.442 436.469 407.799 436.011 404.276 436.011H385.358V456.937H403.801C407.465 456.937 410.213 456.515 412.045 455.669ZM526.029 463.437H510.598C510.316 461.288 509.594 459.351 508.432 457.624C506.741 455.299 504.116 454.137 500.558 454.137C495.485 454.137 492.015 456.656 490.148 461.693C489.161 464.371 488.668 467.929 488.668 472.368C488.668 476.595 489.161 479.995 490.148 482.567C491.944 487.358 495.326 489.753 500.294 489.753C503.817 489.753 506.318 488.802 507.797 486.9C509.277 484.997 510.175 482.531 510.492 479.502H525.87C525.518 484.082 523.862 488.415 520.903 492.501C516.182 499.089 509.189 502.383 499.924 502.383C490.658 502.383 483.842 499.635 479.473 494.139C475.105 488.644 472.921 481.51 472.921 472.738C472.921 462.838 475.334 455.141 480.16 449.645C484.987 444.149 491.645 441.401 500.135 441.401C507.357 441.401 513.258 443.022 517.838 446.263C522.453 449.504 525.183 455.229 526.029 463.437ZM584.474 450.068C589.335 456.162 591.766 463.367 591.766 471.681C591.766 480.136 589.335 487.375 584.474 493.4C579.612 499.389 572.232 502.383 562.332 502.383C552.433 502.383 545.052 499.389 540.191 493.4C535.329 487.375 532.898 480.136 532.898 471.681C532.898 463.367 535.329 456.162 540.191 450.068C545.052 443.973 552.433 440.926 562.332 440.926C572.232 440.926 579.612 443.973 584.474 450.068ZM562.279 453.661C557.876 453.661 554.476 455.229 552.08 458.364C549.72 461.464 548.54 465.903 548.54 471.681C548.54 477.458 549.72 481.915 552.08 485.05C554.476 488.186 557.876 489.753 562.279 489.753C566.683 489.753 570.065 488.186 572.425 485.05C574.786 481.915 575.966 477.458 575.966 471.681C575.966 465.903 574.786 461.464 572.425 458.364C570.065 455.229 566.683 453.661 562.279 453.661ZM655.02 422.589V500.375H640.382V492.396C638.233 495.813 635.785 498.296 633.037 499.847C630.289 501.397 626.872 502.172 622.785 502.172C616.057 502.172 610.385 499.459 605.77 494.034C601.19 488.573 598.9 481.58 598.9 473.055C598.9 463.226 601.155 455.493 605.664 449.856C610.209 444.22 616.268 441.401 623.842 441.401C627.33 441.401 630.43 442.176 633.143 443.726C635.855 445.241 638.057 447.355 639.748 450.068V422.589H655.02ZM614.436 471.945C614.436 477.265 615.493 481.51 617.607 484.68C619.685 487.886 622.856 489.489 627.119 489.489C631.381 489.489 634.622 487.904 636.842 484.733C639.061 481.563 640.171 477.458 640.171 472.421C640.171 465.375 638.392 460.337 634.834 457.307C632.65 455.475 630.113 454.559 627.224 454.559C622.821 454.559 619.58 456.233 617.501 459.58C615.458 462.891 614.436 467.013 614.436 471.945ZM718.063 483.465C717.675 486.882 715.896 490.352 712.725 493.875C707.793 499.477 700.888 502.277 692.011 502.277C684.683 502.277 678.219 499.917 672.617 495.196C667.016 490.476 664.215 482.796 664.215 472.156C664.215 462.187 666.734 454.542 671.772 449.222C676.845 443.903 683.415 441.243 691.482 441.243C696.273 441.243 700.589 442.141 704.429 443.938C708.269 445.735 711.44 448.571 713.941 452.446C716.196 455.863 717.658 459.826 718.327 464.336C718.714 466.978 718.873 470.782 718.803 475.75H679.381C679.592 481.527 681.407 485.579 684.824 487.904C686.903 489.348 689.404 490.07 692.328 490.07C695.428 490.07 697.947 489.19 699.884 487.428C700.941 486.477 701.875 485.156 702.685 483.465H718.063ZM703.161 465.815C702.914 461.834 701.699 458.822 699.515 456.779C697.366 454.7 694.688 453.661 691.482 453.661C687.995 453.661 685.282 454.753 683.344 456.937C681.442 459.122 680.244 462.081 679.751 465.815H703.161Z" fill="#C2C2C2"/>
<path d="M899 871C899 843.386 876.614 821 849 821H151C123.386 821 101 843.386 101 871V975C101 975.552 101.448 976 102 976H849C876.614 976 899 953.614 899 926V871Z" fill="#333333"/>
<path d="M184.777 910C184.777 907.781 183.991 906.07 182.419 904.869C180.871 903.667 178.063 902.453 173.995 901.229C169.927 900.004 166.692 898.64 164.288 897.138C159.689 894.249 157.389 890.481 157.389 885.836C157.389 881.768 159.042 878.417 162.347 875.782C165.675 873.147 169.985 871.83 175.278 871.83C178.791 871.83 181.923 872.477 184.673 873.771C187.423 875.066 189.584 876.915 191.156 879.318C192.727 881.699 193.513 884.345 193.513 887.257H184.777C184.777 884.623 183.945 882.566 182.281 881.086C180.64 879.584 178.282 878.833 175.208 878.833C172.343 878.833 170.112 879.445 168.518 880.67C166.946 881.895 166.16 883.606 166.16 885.801C166.16 887.65 167.015 889.199 168.726 890.447C170.436 891.672 173.256 892.874 177.185 894.052C181.114 895.208 184.268 896.537 186.649 898.039C189.029 899.518 190.774 901.229 191.884 903.17C192.993 905.088 193.548 907.342 193.548 909.93C193.548 914.137 191.93 917.488 188.694 919.984C185.482 922.457 181.114 923.693 175.59 923.693C171.938 923.693 168.575 923.023 165.501 921.683C162.451 920.319 160.07 918.447 158.36 916.066C156.673 913.686 155.829 910.912 155.829 907.746H164.6C164.6 910.612 165.548 912.831 167.443 914.402C169.338 915.974 172.054 916.76 175.59 916.76C178.641 916.76 180.929 916.147 182.454 914.922C184.003 913.674 184.777 912.033 184.777 910ZM230.747 900.466H210.015V915.997H234.248V923H201.244V872.523H234.005V879.596H210.015V893.532H230.747V900.466ZM281.431 923H272.66L250.161 887.188V923H241.39V872.523H250.161L272.729 908.474V872.523H281.431V923ZM291.797 923V872.523H306.704C311.165 872.523 315.117 873.517 318.561 875.505C322.027 877.493 324.708 880.312 326.604 883.964C328.499 887.616 329.446 891.799 329.446 896.514V899.044C329.446 903.829 328.487 908.035 326.569 911.664C324.674 915.292 321.958 918.089 318.422 920.053C314.909 922.018 310.876 923 306.323 923H291.797ZM300.568 879.596V915.997H306.288C310.887 915.997 314.412 914.564 316.862 911.698C319.335 908.809 320.594 904.672 320.641 899.287V896.479C320.641 891.001 319.45 886.818 317.07 883.929C314.689 881.04 311.234 879.596 306.704 879.596H300.568ZM384.118 911.248H364.565L360.474 923H351.356L370.424 872.523H378.293L397.396 923H388.243L384.118 911.248ZM367.026 904.175H381.656L374.341 883.236L367.026 904.175ZM432.202 872.523L446.763 911.213L461.289 872.523H472.625V923H463.889V906.359L464.755 884.103L449.848 923H443.573L428.701 884.137L429.567 906.359V923H420.831V872.523H432.202ZM512.528 900.466H491.796V915.997H516.029V923H483.025V872.523H515.787V879.596H491.796V893.532H512.528V900.466ZM549.553 910C549.553 907.781 548.767 906.07 547.196 904.869C545.647 903.667 542.839 902.453 538.771 901.229C534.704 900.004 531.468 898.64 529.064 897.138C524.465 894.249 522.166 890.481 522.166 885.836C522.166 881.768 523.818 878.417 527.123 875.782C530.451 873.147 534.762 871.83 540.054 871.83C543.567 871.83 546.699 872.477 549.449 873.771C552.2 875.066 554.361 876.915 555.932 879.318C557.504 881.699 558.29 884.345 558.29 887.257H549.553C549.553 884.623 548.721 882.566 547.057 881.086C545.416 879.584 543.059 878.833 539.985 878.833C537.119 878.833 534.889 879.445 533.294 880.67C531.722 881.895 530.937 883.606 530.937 885.801C530.937 887.65 531.792 889.199 533.502 890.447C535.212 891.672 538.032 892.874 541.961 894.052C545.89 895.208 549.045 896.537 551.425 898.039C553.806 899.518 555.551 901.229 556.66 903.17C557.77 905.088 558.324 907.342 558.324 909.93C558.324 914.137 556.706 917.488 553.471 919.984C550.258 922.457 545.89 923.693 540.366 923.693C536.715 923.693 533.352 923.023 530.278 921.683C527.227 920.319 524.847 918.447 523.136 916.066C521.449 913.686 520.605 910.912 520.605 907.746H529.376C529.376 910.612 530.324 912.831 532.219 914.402C534.114 915.974 536.83 916.76 540.366 916.76C543.417 916.76 545.705 916.147 547.23 914.922C548.779 913.674 549.553 912.033 549.553 910ZM592.403 910C592.403 907.781 591.617 906.07 590.045 904.869C588.497 903.667 585.689 902.453 581.621 901.229C577.553 900.004 574.318 898.64 571.914 897.138C567.315 894.249 565.015 890.481 565.015 885.836C565.015 881.768 566.668 878.417 569.973 875.782C573.301 873.147 577.611 871.83 582.904 871.83C586.417 871.83 589.549 872.477 592.299 873.771C595.049 875.066 597.21 876.915 598.782 879.318C600.353 881.699 601.139 884.345 601.139 887.257H592.403C592.403 884.623 591.571 882.566 589.907 881.086C588.266 879.584 585.908 878.833 582.834 878.833C579.969 878.833 577.738 879.445 576.144 880.67C574.572 881.895 573.786 883.606 573.786 885.801C573.786 887.65 574.641 889.199 576.352 890.447C578.062 891.672 580.882 892.874 584.811 894.052C588.74 895.208 591.894 896.537 594.275 898.039C596.655 899.518 598.4 901.229 599.51 903.17C600.619 905.088 601.174 907.342 601.174 909.93C601.174 914.137 599.556 917.488 596.32 919.984C593.108 922.457 588.74 923.693 583.216 923.693C579.564 923.693 576.201 923.023 573.127 921.683C570.077 920.319 567.696 918.447 565.986 916.066C564.299 913.686 563.455 910.912 563.455 907.746H572.226C572.226 910.612 573.174 912.831 575.069 914.402C576.964 915.974 579.68 916.76 583.216 916.76C586.267 916.76 588.555 916.147 590.08 914.922C591.629 913.674 592.403 912.033 592.403 910ZM637.125 911.248H617.572L613.481 923H604.363L623.431 872.523H631.3L650.402 923H641.25L637.125 911.248ZM620.033 904.175H634.663L627.348 883.236L620.033 904.175ZM694.084 916.448C692.258 918.828 689.727 920.631 686.492 921.856C683.256 923.081 679.581 923.693 675.467 923.693C671.238 923.693 667.494 922.734 664.235 920.816C660.976 918.898 658.457 916.159 656.677 912.6C654.921 909.017 654.008 904.846 653.938 900.084V896.132C653.938 888.505 655.764 882.554 659.416 878.278C663.068 873.979 668.164 871.83 674.705 871.83C680.321 871.83 684.781 873.217 688.086 875.99C691.391 878.764 693.379 882.762 694.049 887.985H685.452C684.481 881.907 680.956 878.868 674.878 878.868C670.949 878.868 667.956 880.289 665.899 883.132C663.865 885.951 662.813 890.1 662.744 895.578V899.46C662.744 904.915 663.888 909.156 666.176 912.184C668.487 915.188 671.688 916.69 675.779 916.69C680.263 916.69 683.452 915.674 685.348 913.64V903.759H674.947V897.103H694.084V916.448ZM733.224 900.466H712.493V915.997H736.726V923H703.722V872.523H736.483V879.596H712.493V893.532H733.224V900.466Z" fill="white"/>
<path d="M804.334 888.334H797.223V895.445H804.334V888.334Z" fill="white"/>
<path d="M811.443 888.334H818.554V895.445H811.443V888.334Z" fill="white"/>
<path d="M832.777 888.334H825.666V895.445H832.777V888.334Z" fill="white"/>
<path d="M783 874.111V931L800.067 918.2C801.297 917.276 802.794 916.778 804.333 916.778H839.889C841.775 916.778 843.584 916.029 844.917 914.695C846.251 913.361 847 911.553 847 909.667V874.111C847 872.225 846.251 870.416 844.917 869.083C843.584 867.749 841.775 867 839.889 867H790.111C788.225 867 786.416 867.749 785.083 869.083C783.749 870.416 783 872.225 783 874.111ZM790.111 916.778V874.111H839.889V909.667H801.965C800.426 909.663 798.928 910.162 797.699 911.089L790.111 916.778Z" fill="white"/>
</svg>
