<svg width="1000" height="1000" viewBox="0 0 1000 1000" fill="none" xmlns="http://www.w3.org/2000/svg">
<path d="M937 232.489V29C937 27.3431 935.657 26 934 26H66C64.3431 26 63 27.3432 63 29V897C63 898.657 64.3432 900 66 900H934C935.657 900 937 898.657 937 897V693.511" stroke="#333333" stroke-width="50" stroke-linecap="round"/>
<path fill-rule="evenodd" clip-rule="evenodd" d="M979 345H964V349C964 351.209 962.209 353 960 353H912C909.791 353 908 351.209 908 349V345H893C886.925 345 882 349.925 882 356V570C882 576.075 886.925 581 893 581H979C985.075 581 990 576.075 990 570V356C990 349.925 985.075 345 979 345ZM893 337C882.507 337 874 345.507 874 356V570C874 580.493 882.507 589 893 589H979C989.493 589 998 580.493 998 570V356C998 345.507 989.493 337 979 337H893ZM936 558C930.477 558 926 562.477 926 568C926 573.523 930.477 578 936 578C941.523 578 946 573.523 946 568C946 562.477 941.523 558 936 558Z" fill="#333333"/>
<rect x="144" y="73" width="712" height="712" rx="6.85356" fill="white"/>
<path d="M663.76 122.838H806.16V265.238" stroke="#C2C2C2" stroke-width="28.48"/>
<path d="M336.238 122.838H193.838V265.238" stroke="#C2C2C2" stroke-width="28.48"/>
<path d="M663.76 735.156H806.16V592.756" stroke="#C2C2C2" stroke-width="28.48"/>
<path d="M336.238 735.156H193.838V592.756" stroke="#C2C2C2" stroke-width="28.48"/>
<path d="M330.713 370.723L318.929 336.428L306.405 370.723H330.713ZM313.433 324.908H325.323L353.489 402.535H341.969L334.095 379.284H303.393L294.991 402.535H284.211L313.433 324.908ZM367.81 374.898C367.81 380.957 369.095 386.03 371.667 390.117C374.239 394.203 378.361 396.247 384.033 396.247C388.436 396.247 392.047 394.362 394.866 390.592C397.719 386.788 399.146 381.345 399.146 374.264C399.146 367.112 397.684 361.828 394.76 358.411C391.836 354.958 388.225 353.232 383.927 353.232C379.136 353.232 375.243 355.064 372.248 358.728C369.289 362.392 367.81 367.782 367.81 374.898ZM382.13 344.935C386.463 344.935 390.092 345.851 393.016 347.683C394.707 348.74 396.627 350.59 398.776 353.232V324.643H407.918V402.535H399.357V394.661C397.138 398.149 394.513 400.668 391.484 402.218C388.454 403.768 384.984 404.543 381.073 404.543C374.767 404.543 369.307 401.901 364.692 396.617C360.077 391.297 357.769 384.234 357.769 375.426C357.769 367.183 359.865 360.049 364.058 354.025C368.285 347.965 374.309 344.935 382.13 344.935ZM428.051 374.898C428.051 380.957 429.337 386.03 431.909 390.117C434.481 394.203 438.603 396.247 444.275 396.247C448.678 396.247 452.289 394.362 455.107 390.592C457.961 386.788 459.388 381.345 459.388 374.264C459.388 367.112 457.926 361.828 455.002 358.411C452.078 354.958 448.467 353.232 444.169 353.232C439.378 353.232 435.485 355.064 432.49 358.728C429.531 362.392 428.051 367.782 428.051 374.898ZM442.372 344.935C446.705 344.935 450.334 345.851 453.258 347.683C454.949 348.74 456.869 350.59 459.018 353.232V324.643H468.16V402.535H459.599V394.661C457.38 398.149 454.755 400.668 451.725 402.218C448.696 403.768 445.226 404.543 441.315 404.543C435.009 404.543 429.549 401.901 424.934 396.617C420.319 391.297 418.011 384.234 418.011 375.426C418.011 367.183 420.107 360.049 424.3 354.025C428.527 347.965 434.551 344.935 442.372 344.935ZM547.743 345.939H558.258C556.92 349.568 553.943 357.847 549.328 370.776C545.875 380.499 542.987 388.426 540.662 394.556C535.166 409 531.291 417.807 529.036 420.978C526.781 424.148 522.906 425.734 517.41 425.734C516.072 425.734 515.032 425.681 514.292 425.575C513.588 425.469 512.707 425.276 511.65 424.994V416.327C513.306 416.785 514.504 417.067 515.244 417.173C515.983 417.279 516.635 417.331 517.199 417.331C518.96 417.331 520.246 417.032 521.056 416.433C521.902 415.869 522.607 415.165 523.17 414.319C523.346 414.037 523.981 412.593 525.073 409.986C526.165 407.379 526.957 405.442 527.451 404.173L506.524 345.939H517.305L532.471 392.019L547.743 345.939ZM588.961 396.405C595.267 396.405 599.582 394.027 601.907 389.271C604.268 384.48 605.448 379.161 605.448 373.313C605.448 368.028 604.602 363.73 602.911 360.419C600.234 355.205 595.619 352.598 589.066 352.598C583.254 352.598 579.026 354.817 576.384 359.256C573.742 363.695 572.421 369.05 572.421 375.321C572.421 381.345 573.742 386.365 576.384 390.381C579.026 394.397 583.218 396.405 588.961 396.405ZM589.331 344.301C596.623 344.301 602.788 346.732 607.826 351.594C612.864 356.455 615.383 363.607 615.383 373.048C615.383 382.173 613.163 389.712 608.724 395.665C604.285 401.619 597.398 404.596 588.062 404.596C580.277 404.596 574.094 401.971 569.514 396.722C564.934 391.438 562.645 384.357 562.645 375.479C562.645 365.967 565.058 358.393 569.884 352.756C574.711 347.12 581.193 344.301 589.331 344.301ZM636.256 345.939V383.511C636.256 386.4 636.714 388.761 637.63 390.592C639.321 393.974 642.474 395.665 647.089 395.665C653.712 395.665 658.221 392.706 660.617 386.788C661.92 383.617 662.572 379.266 662.572 373.735V345.939H672.084V402.535H663.1L663.206 394.186C661.973 396.335 660.441 398.149 658.609 399.629C654.98 402.588 650.577 404.068 645.398 404.068C637.33 404.068 631.835 401.373 628.911 395.983C627.325 393.094 626.533 389.236 626.533 384.41V345.939H636.256ZM687.25 345.939H696.286V355.716C697.026 353.813 698.84 351.506 701.729 348.793C704.618 346.045 707.947 344.671 711.717 344.671C711.893 344.671 712.192 344.689 712.615 344.724C713.038 344.759 713.76 344.83 714.782 344.935V354.976C714.218 354.87 713.69 354.8 713.196 354.764C712.738 354.729 712.228 354.712 711.664 354.712C706.873 354.712 703.191 356.262 700.62 359.362C698.048 362.427 696.762 365.967 696.762 369.983V402.535H687.25V345.939Z" fill="#C2C2C2"/>
<path d="M331.669 530.798C328.181 531.96 324.007 532.542 319.145 532.542C308.999 532.542 300.615 529.512 293.992 523.452C285.959 516.16 281.943 505.45 281.943 491.323C281.943 477.091 286.065 466.328 294.309 459.036C301.037 453.082 309.404 450.105 319.409 450.105C329.485 450.105 337.94 453.258 344.774 459.564C352.666 466.857 356.611 477.056 356.611 490.161C356.611 497.101 355.766 502.914 354.075 507.599C352.701 512.073 350.675 515.79 347.998 518.749L356.981 527.152L348.473 536.029L339.067 527.152C336.214 528.878 333.748 530.093 331.669 530.798ZM328.181 516.741L320.308 509.237L328.71 500.465L336.584 507.969C337.817 505.433 338.68 503.213 339.173 501.311C339.948 498.457 340.336 495.128 340.336 491.323C340.336 482.587 338.539 475.84 334.945 471.084C331.387 466.293 326.173 463.898 319.304 463.898C312.857 463.898 307.713 466.187 303.873 470.767C300.033 475.347 298.113 482.199 298.113 491.323C298.113 501.998 300.861 509.643 306.357 514.258C309.915 517.252 314.178 518.749 319.145 518.749C321.012 518.749 322.809 518.52 324.535 518.062C325.486 517.816 326.702 517.375 328.181 516.741ZM402.163 499.831H385.358V530.375H369.452V452.483H407.658C413.119 452.589 417.311 453.258 420.235 454.491C423.195 455.724 425.696 457.539 427.739 459.934C429.43 461.907 430.769 464.091 431.755 466.487C432.742 468.882 433.235 471.613 433.235 474.678C433.235 478.377 432.301 482.023 430.434 485.616C428.567 489.174 425.484 491.693 421.186 493.173C424.78 494.617 427.316 496.678 428.796 499.356C430.311 501.998 431.068 506.049 431.068 511.51V516.741C431.068 520.299 431.209 522.713 431.491 523.981C431.914 525.989 432.9 527.469 434.45 528.42V530.375H416.536C416.043 528.649 415.691 527.257 415.479 526.2C415.057 524.016 414.828 521.779 414.792 519.489L414.687 512.25C414.616 507.282 413.7 503.971 411.939 502.315C410.213 500.659 406.954 499.831 402.163 499.831ZM412.045 485.669C415.286 484.19 416.906 481.266 416.906 476.897C416.906 472.176 415.338 469.006 412.203 467.385C410.442 466.469 407.799 466.011 404.276 466.011H385.358V486.937H403.801C407.465 486.937 410.213 486.515 412.045 485.669ZM526.029 493.437H510.598C510.316 491.288 509.594 489.351 508.432 487.624C506.741 485.299 504.116 484.137 500.558 484.137C495.485 484.137 492.015 486.656 490.148 491.693C489.161 494.371 488.668 497.929 488.668 502.368C488.668 506.595 489.161 509.995 490.148 512.567C491.944 517.358 495.326 519.753 500.294 519.753C503.817 519.753 506.318 518.802 507.797 516.9C509.277 514.997 510.175 512.531 510.492 509.502H525.87C525.518 514.082 523.862 518.415 520.903 522.501C516.182 529.089 509.189 532.383 499.924 532.383C490.658 532.383 483.842 529.635 479.473 524.139C475.105 518.644 472.921 511.51 472.921 502.738C472.921 492.838 475.334 485.141 480.16 479.645C484.987 474.149 491.645 471.401 500.135 471.401C507.357 471.401 513.258 473.022 517.838 476.263C522.453 479.504 525.183 485.229 526.029 493.437ZM584.474 480.068C589.335 486.162 591.766 493.367 591.766 501.681C591.766 510.136 589.335 517.375 584.474 523.4C579.612 529.389 572.232 532.383 562.332 532.383C552.433 532.383 545.052 529.389 540.191 523.4C535.329 517.375 532.898 510.136 532.898 501.681C532.898 493.367 535.329 486.162 540.191 480.068C545.052 473.973 552.433 470.926 562.332 470.926C572.232 470.926 579.612 473.973 584.474 480.068ZM562.279 483.661C557.876 483.661 554.476 485.229 552.08 488.364C549.72 491.464 548.54 495.903 548.54 501.681C548.54 507.458 549.72 511.915 552.08 515.05C554.476 518.186 557.876 519.753 562.279 519.753C566.683 519.753 570.065 518.186 572.425 515.05C574.786 511.915 575.966 507.458 575.966 501.681C575.966 495.903 574.786 491.464 572.425 488.364C570.065 485.229 566.683 483.661 562.279 483.661ZM655.02 452.589V530.375H640.382V522.396C638.233 525.813 635.785 528.296 633.037 529.847C630.289 531.397 626.872 532.172 622.785 532.172C616.057 532.172 610.385 529.459 605.77 524.034C601.19 518.573 598.9 511.58 598.9 503.055C598.9 493.226 601.155 485.493 605.664 479.856C610.209 474.22 616.268 471.401 623.842 471.401C627.33 471.401 630.43 472.176 633.143 473.726C635.855 475.241 638.057 477.355 639.748 480.068V452.589H655.02ZM614.436 501.945C614.436 507.265 615.493 511.51 617.607 514.68C619.685 517.886 622.856 519.489 627.119 519.489C631.381 519.489 634.622 517.904 636.842 514.733C639.061 511.563 640.171 507.458 640.171 502.421C640.171 495.375 638.392 490.337 634.834 487.307C632.65 485.475 630.113 484.559 627.224 484.559C622.821 484.559 619.58 486.233 617.501 489.58C615.458 492.891 614.436 497.013 614.436 501.945ZM718.063 513.465C717.675 516.882 715.896 520.352 712.725 523.875C707.793 529.477 700.888 532.277 692.011 532.277C684.683 532.277 678.219 529.917 672.617 525.196C667.016 520.476 664.215 512.796 664.215 502.156C664.215 492.187 666.734 484.542 671.772 479.222C676.845 473.903 683.415 471.243 691.482 471.243C696.273 471.243 700.589 472.141 704.429 473.938C708.269 475.735 711.44 478.571 713.941 482.446C716.196 485.863 717.658 489.826 718.327 494.336C718.714 496.978 718.873 500.782 718.803 505.75H679.381C679.592 511.527 681.407 515.579 684.824 517.904C686.903 519.348 689.404 520.07 692.328 520.07C695.428 520.07 697.947 519.19 699.884 517.428C700.941 516.477 701.875 515.156 702.685 513.465H718.063ZM703.161 495.815C702.914 491.834 701.699 488.822 699.515 486.779C697.366 484.7 694.688 483.661 691.482 483.661C687.995 483.661 685.282 484.753 683.344 486.937C681.442 489.122 680.244 492.081 679.751 495.815H703.161Z" fill="#C2C2C2"/>
<rect x="159" y="822" width="682" height="156" rx="67" fill="white" stroke="#333333" stroke-width="25"/>
<path d="M237.777 911C237.777 908.781 236.991 907.07 235.419 905.869C233.871 904.667 231.063 903.453 226.995 902.229C222.927 901.004 219.692 899.64 217.288 898.138C212.689 895.249 210.389 891.481 210.389 886.836C210.389 882.768 212.042 879.417 215.347 876.782C218.675 874.147 222.985 872.83 228.278 872.83C231.791 872.83 234.923 873.477 237.673 874.771C240.423 876.066 242.584 877.915 244.156 880.318C245.727 882.699 246.513 885.345 246.513 888.257H237.777C237.777 885.623 236.945 883.566 235.281 882.086C233.64 880.584 231.282 879.833 228.208 879.833C225.343 879.833 223.112 880.445 221.518 881.67C219.946 882.895 219.16 884.606 219.16 886.801C219.16 888.65 220.015 890.199 221.726 891.447C223.436 892.672 226.256 893.874 230.185 895.052C234.114 896.208 237.268 897.537 239.649 899.039C242.029 900.518 243.774 902.229 244.884 904.17C245.993 906.088 246.548 908.342 246.548 910.93C246.548 915.137 244.93 918.488 241.694 920.984C238.482 923.457 234.114 924.693 228.59 924.693C224.938 924.693 221.575 924.023 218.501 922.683C215.451 921.319 213.07 919.447 211.36 917.066C209.673 914.686 208.829 911.912 208.829 908.746H217.6C217.6 911.612 218.548 913.831 220.443 915.402C222.338 916.974 225.054 917.76 228.59 917.76C231.641 917.76 233.929 917.147 235.454 915.922C237.003 914.674 237.777 913.033 237.777 911ZM283.747 901.466H263.015V916.997H287.248V924H254.244V873.523H287.005V880.596H263.015V894.532H283.747V901.466ZM334.431 924H325.66L303.161 888.188V924H294.39V873.523H303.161L325.729 909.474V873.523H334.431V924ZM344.797 924V873.523H359.704C364.165 873.523 368.117 874.517 371.561 876.505C375.027 878.493 377.708 881.312 379.604 884.964C381.499 888.616 382.446 892.799 382.446 897.514V900.044C382.446 904.829 381.487 909.035 379.569 912.664C377.674 916.292 374.958 919.089 371.422 921.053C367.909 923.018 363.876 924 359.323 924H344.797ZM353.568 880.596V916.997H359.288C363.887 916.997 367.412 915.564 369.862 912.698C372.335 909.809 373.594 905.672 373.641 900.287V897.479C373.641 892.001 372.45 887.818 370.07 884.929C367.689 882.04 364.234 880.596 359.704 880.596H353.568ZM437.118 912.248H417.565L413.474 924H404.356L423.424 873.523H431.293L450.396 924H441.243L437.118 912.248ZM420.026 905.175H434.656L427.341 884.236L420.026 905.175ZM485.202 873.523L499.763 912.213L514.289 873.523H525.625V924H516.889V907.359L517.755 885.103L502.848 924H496.573L481.701 885.137L482.567 907.359V924H473.831V873.523H485.202ZM565.528 901.466H544.796V916.997H569.029V924H536.025V873.523H568.787V880.596H544.796V894.532H565.528V901.466ZM602.553 911C602.553 908.781 601.767 907.07 600.196 905.869C598.647 904.667 595.839 903.453 591.771 902.229C587.704 901.004 584.468 899.64 582.064 898.138C577.465 895.249 575.166 891.481 575.166 886.836C575.166 882.768 576.818 879.417 580.123 876.782C583.451 874.147 587.762 872.83 593.054 872.83C596.567 872.83 599.699 873.477 602.449 874.771C605.2 876.066 607.361 877.915 608.932 880.318C610.504 882.699 611.29 885.345 611.29 888.257H602.553C602.553 885.623 601.721 883.566 600.057 882.086C598.416 880.584 596.059 879.833 592.985 879.833C590.119 879.833 587.889 880.445 586.294 881.67C584.722 882.895 583.937 884.606 583.937 886.801C583.937 888.65 584.792 890.199 586.502 891.447C588.212 892.672 591.032 893.874 594.961 895.052C598.89 896.208 602.045 897.537 604.425 899.039C606.806 900.518 608.551 902.229 609.66 904.17C610.77 906.088 611.324 908.342 611.324 910.93C611.324 915.137 609.706 918.488 606.471 920.984C603.258 923.457 598.89 924.693 593.366 924.693C589.715 924.693 586.352 924.023 583.278 922.683C580.227 921.319 577.847 919.447 576.136 917.066C574.449 914.686 573.605 911.912 573.605 908.746H582.376C582.376 911.612 583.324 913.831 585.219 915.402C587.114 916.974 589.83 917.76 593.366 917.76C596.417 917.76 598.705 917.147 600.23 915.922C601.779 914.674 602.553 913.033 602.553 911ZM645.403 911C645.403 908.781 644.617 907.07 643.045 905.869C641.497 904.667 638.689 903.453 634.621 902.229C630.553 901.004 627.318 899.64 624.914 898.138C620.315 895.249 618.015 891.481 618.015 886.836C618.015 882.768 619.668 879.417 622.973 876.782C626.301 874.147 630.611 872.83 635.904 872.83C639.417 872.83 642.549 873.477 645.299 874.771C648.049 876.066 650.21 877.915 651.782 880.318C653.353 882.699 654.139 885.345 654.139 888.257H645.403C645.403 885.623 644.571 883.566 642.907 882.086C641.266 880.584 638.908 879.833 635.834 879.833C632.969 879.833 630.738 880.445 629.144 881.67C627.572 882.895 626.786 884.606 626.786 886.801C626.786 888.65 627.641 890.199 629.352 891.447C631.062 892.672 633.882 893.874 637.811 895.052C641.74 896.208 644.894 897.537 647.275 899.039C649.655 900.518 651.4 902.229 652.51 904.17C653.619 906.088 654.174 908.342 654.174 910.93C654.174 915.137 652.556 918.488 649.32 920.984C646.108 923.457 641.74 924.693 636.216 924.693C632.564 924.693 629.201 924.023 626.127 922.683C623.077 921.319 620.696 919.447 618.986 917.066C617.299 914.686 616.455 911.912 616.455 908.746H625.226C625.226 911.612 626.174 913.831 628.069 915.402C629.964 916.974 632.68 917.76 636.216 917.76C639.267 917.76 641.555 917.147 643.08 915.922C644.629 914.674 645.403 913.033 645.403 911ZM690.125 912.248H670.572L666.481 924H657.363L676.431 873.523H684.3L703.402 924H694.25L690.125 912.248ZM673.033 905.175H687.663L680.348 884.236L673.033 905.175ZM747.084 917.448C745.258 919.828 742.727 921.631 739.492 922.856C736.256 924.081 732.581 924.693 728.467 924.693C724.238 924.693 720.494 923.734 717.235 921.816C713.976 919.898 711.457 917.159 709.677 913.6C707.921 910.017 707.008 905.846 706.938 901.084V897.132C706.938 889.505 708.764 883.554 712.416 879.278C716.068 874.979 721.164 872.83 727.705 872.83C733.321 872.83 737.781 874.217 741.086 876.99C744.391 879.764 746.379 883.762 747.049 888.985H738.452C737.481 882.907 733.956 879.868 727.878 879.868C723.949 879.868 720.956 881.289 718.899 884.132C716.865 886.951 715.813 891.1 715.744 896.578V900.46C715.744 905.915 716.888 910.156 719.176 913.184C721.487 916.188 724.688 917.69 728.779 917.69C733.263 917.69 736.452 916.674 738.348 914.64V904.759H727.947V898.103H747.084V917.448ZM786.224 901.466H765.493V916.997H789.726V924H756.722V873.523H789.483V880.596H765.493V894.532H786.224V901.466Z" fill="#333333"/>
</svg>
