<svg width="1000" height="1000" viewBox="0 0 1000 1000" fill="none" xmlns="http://www.w3.org/2000/svg">
<circle cx="500" cy="534" r="399.5" stroke="#333333" stroke-width="15" stroke-dasharray="20 20"/>
<circle cx="500" cy="534" r="365" fill="#333333"/>
<rect x="269" y="303" width="462" height="462" rx="4.44711" fill="white"/>
<path d="M606.26 335.34H698.66V427.74" stroke="#C2C2C2" stroke-width="18.48"/>
<path d="M393.74 335.34H301.34V427.74" stroke="#C2C2C2" stroke-width="18.48"/>
<path d="M606.26 732.658H698.66V640.258" stroke="#C2C2C2" stroke-width="18.48"/>
<path d="M393.74 732.658H301.34V640.258" stroke="#C2C2C2" stroke-width="18.48"/>
<path d="M390.154 495.893L382.507 473.64L374.381 495.893H390.154ZM378.941 466.165H386.656L404.932 516.535H397.457L392.348 501.448H372.426L366.974 516.535H359.979L378.941 466.165ZM414.225 498.602C414.225 502.534 415.059 505.826 416.728 508.477C418.397 511.129 421.071 512.455 424.751 512.455C427.609 512.455 429.952 511.232 431.781 508.786C433.632 506.317 434.558 502.785 434.558 498.191C434.558 493.55 433.609 490.121 431.712 487.904C429.815 485.664 427.472 484.543 424.683 484.543C421.574 484.543 419.048 485.732 417.105 488.11C415.185 490.487 414.225 493.984 414.225 498.602ZM423.517 479.16C426.329 479.16 428.683 479.754 430.581 480.943C431.678 481.629 432.924 482.829 434.318 484.543V465.993H440.25V516.535H434.695V511.426C433.255 513.689 431.552 515.324 429.586 516.329C427.62 517.335 425.369 517.838 422.831 517.838C418.739 517.838 415.196 516.124 412.202 512.695C409.207 509.243 407.71 504.66 407.71 498.945C407.71 493.596 409.07 488.967 411.79 485.058C414.533 481.126 418.442 479.16 423.517 479.16ZM453.314 498.602C453.314 502.534 454.149 505.826 455.817 508.477C457.486 511.129 460.161 512.455 463.841 512.455C466.698 512.455 469.041 511.232 470.87 508.786C472.722 506.317 473.648 502.785 473.648 498.191C473.648 493.55 472.699 490.121 470.802 487.904C468.904 485.664 466.561 484.543 463.772 484.543C460.663 484.543 458.138 485.732 456.194 488.11C454.274 490.487 453.314 493.984 453.314 498.602ZM462.607 479.16C465.418 479.16 467.773 479.754 469.67 480.943C470.767 481.629 472.013 482.829 473.408 484.543V465.993H479.34V516.535H473.785V511.426C472.345 513.689 470.642 515.324 468.676 516.329C466.71 517.335 464.458 517.838 461.921 517.838C457.829 517.838 454.286 516.124 451.291 512.695C448.297 509.243 446.799 504.66 446.799 498.945C446.799 493.596 448.159 488.967 450.88 485.058C453.623 481.126 457.532 479.16 462.607 479.16ZM530.979 479.812H537.802C536.934 482.166 535.002 487.538 532.008 495.927C529.767 502.237 527.893 507.38 526.384 511.358C522.818 520.73 520.304 526.445 518.841 528.502C517.378 530.559 514.863 531.588 511.297 531.588C510.428 531.588 509.754 531.554 509.274 531.485C508.817 531.417 508.245 531.291 507.559 531.108V525.485C508.634 525.782 509.411 525.965 509.891 526.033C510.371 526.102 510.794 526.136 511.16 526.136C512.303 526.136 513.137 525.942 513.663 525.553C514.212 525.187 514.669 524.73 515.035 524.182C515.149 523.999 515.56 523.062 516.269 521.37C516.978 519.678 517.492 518.421 517.812 517.598L504.233 479.812H511.228L521.069 509.712L530.979 479.812ZM557.724 512.558C561.816 512.558 564.616 511.015 566.125 507.929C567.657 504.82 568.423 501.368 568.423 497.573C568.423 494.144 567.874 491.356 566.777 489.207C565.039 485.824 562.045 484.132 557.793 484.132C554.021 484.132 551.278 485.572 549.564 488.452C547.849 491.333 546.992 494.807 546.992 498.876C546.992 502.785 547.849 506.043 549.564 508.649C551.278 511.255 553.998 512.558 557.724 512.558ZM557.964 478.749C562.696 478.749 566.697 480.326 569.966 483.481C573.234 486.635 574.869 491.276 574.869 497.402C574.869 503.322 573.429 508.214 570.548 512.078C567.668 515.941 563.199 517.872 557.141 517.872C552.09 517.872 548.078 516.169 545.106 512.763C542.134 509.334 540.648 504.74 540.648 498.979C540.648 492.807 542.214 487.892 545.346 484.235C548.478 480.577 552.684 478.749 557.964 478.749ZM588.413 479.812V504.191C588.413 506.066 588.71 507.597 589.305 508.786C590.402 510.98 592.448 512.078 595.442 512.078C599.74 512.078 602.666 510.157 604.22 506.317C605.066 504.26 605.489 501.437 605.489 497.848V479.812H611.661V516.535H605.832L605.901 511.117C605.1 512.512 604.106 513.689 602.917 514.649C600.563 516.569 597.705 517.53 594.345 517.53C589.11 517.53 585.544 515.781 583.647 512.283C582.618 510.409 582.104 507.906 582.104 504.774V479.812H588.413ZM621.502 479.812H627.365V486.155C627.846 484.921 629.023 483.423 630.897 481.663C632.772 479.88 634.932 478.989 637.378 478.989C637.492 478.989 637.686 479 637.961 479.023C638.235 479.046 638.704 479.092 639.367 479.16V485.675C639.001 485.606 638.658 485.561 638.338 485.538C638.041 485.515 637.709 485.504 637.344 485.504C634.235 485.504 631.846 486.509 630.177 488.521C628.508 490.51 627.674 492.807 627.674 495.413V516.535H621.502V479.812Z" fill="#C2C2C2"/>
<path d="M390.775 599.761C388.512 600.515 385.803 600.892 382.648 600.892C376.065 600.892 370.624 598.926 366.327 594.994C361.115 590.263 358.509 583.313 358.509 574.147C358.509 564.912 361.183 557.928 366.532 553.196C370.898 549.333 376.328 547.401 382.82 547.401C389.357 547.401 394.844 549.447 399.278 553.539C404.399 558.271 406.959 564.889 406.959 573.392C406.959 577.896 406.41 581.667 405.313 584.708C404.422 587.611 403.107 590.023 401.37 591.943L407.199 597.395L401.679 603.155L395.575 597.395C393.724 598.515 392.123 599.303 390.775 599.761ZM388.512 590.64L383.403 585.771L388.854 580.079L393.964 584.948C394.764 583.302 395.324 581.862 395.644 580.627C396.147 578.776 396.398 576.616 396.398 574.147C396.398 568.478 395.232 564.1 392.901 561.014C390.592 557.905 387.209 556.351 382.751 556.351C378.568 556.351 375.23 557.837 372.739 560.808C370.247 563.78 369.001 568.226 369.001 574.147C369.001 581.073 370.784 586.034 374.35 589.028C376.659 590.971 379.425 591.943 382.648 591.943C383.86 591.943 385.026 591.794 386.146 591.497C386.763 591.337 387.552 591.051 388.512 590.64ZM436.516 579.667H425.612V599.486H415.291V548.944H440.082C443.626 549.013 446.346 549.447 448.243 550.247C450.163 551.047 451.786 552.225 453.112 553.779C454.209 555.059 455.078 556.476 455.718 558.031C456.358 559.585 456.678 561.357 456.678 563.346C456.678 565.746 456.072 568.112 454.861 570.443C453.649 572.752 451.649 574.387 448.86 575.347C451.192 576.284 452.838 577.621 453.798 579.359C454.781 581.073 455.272 583.702 455.272 587.245V590.64C455.272 592.949 455.364 594.514 455.547 595.337C455.821 596.64 456.461 597.6 457.467 598.218V599.486H445.843C445.523 598.366 445.294 597.463 445.157 596.777C444.883 595.36 444.734 593.909 444.711 592.423L444.643 587.725C444.597 584.502 444.003 582.353 442.86 581.279C441.74 580.204 439.625 579.667 436.516 579.667ZM442.928 570.478C445.031 569.518 446.083 567.62 446.083 564.786C446.083 561.723 445.066 559.665 443.031 558.614C441.888 558.019 440.174 557.722 437.888 557.722H425.612V571.301H437.579C439.957 571.301 441.74 571.026 442.928 570.478ZM516.89 575.518H506.877C506.695 574.124 506.226 572.867 505.472 571.746C504.374 570.238 502.671 569.483 500.363 569.483C497.071 569.483 494.819 571.118 493.608 574.387C492.968 576.124 492.647 578.433 492.647 581.313C492.647 584.056 492.968 586.262 493.608 587.931C494.773 591.04 496.968 592.594 500.191 592.594C502.477 592.594 504.1 591.977 505.06 590.743C506.02 589.508 506.603 587.908 506.809 585.942H516.787C516.558 588.914 515.484 591.726 513.564 594.377C510.501 598.652 505.963 600.789 499.951 600.789C493.939 600.789 489.516 599.006 486.681 595.44C483.847 591.874 482.429 587.245 482.429 581.553C482.429 575.13 483.995 570.135 487.127 566.569C490.259 563.003 494.579 561.22 500.088 561.22C504.774 561.22 508.603 562.271 511.575 564.374C514.57 566.477 516.341 570.192 516.89 575.518ZM554.814 566.843C557.968 570.798 559.545 575.473 559.545 580.867C559.545 586.354 557.968 591.051 554.814 594.96C551.659 598.846 546.87 600.789 540.446 600.789C534.023 600.789 529.234 598.846 526.079 594.96C522.925 591.051 521.347 586.354 521.347 580.867C521.347 575.473 522.925 570.798 526.079 566.843C529.234 562.888 534.023 560.911 540.446 560.911C546.87 560.911 551.659 562.888 554.814 566.843ZM540.412 569.175C537.555 569.175 535.349 570.192 533.794 572.227C532.263 574.238 531.497 577.118 531.497 580.867C531.497 584.616 532.263 587.508 533.794 589.543C535.349 591.577 537.555 592.594 540.412 592.594C543.27 592.594 545.464 591.577 546.996 589.543C548.527 587.508 549.293 584.616 549.293 580.867C549.293 577.118 548.527 574.238 546.996 572.227C545.464 570.192 543.27 569.175 540.412 569.175ZM600.589 549.013V599.486H591.091V594.309C589.697 596.526 588.108 598.138 586.325 599.143C584.542 600.149 582.325 600.652 579.673 600.652C575.307 600.652 571.627 598.892 568.632 595.372C565.66 591.828 564.174 587.291 564.174 581.759C564.174 575.381 565.637 570.363 568.563 566.706C571.512 563.048 575.444 561.22 580.359 561.22C582.622 561.22 584.634 561.723 586.394 562.728C588.154 563.711 589.583 565.083 590.68 566.843V549.013H600.589ZM574.255 581.039C574.255 584.491 574.941 587.245 576.313 589.302C577.661 591.383 579.719 592.423 582.485 592.423C585.251 592.423 587.354 591.394 588.794 589.337C590.234 587.279 590.954 584.616 590.954 581.347C590.954 576.776 589.8 573.507 587.491 571.541C586.074 570.352 584.428 569.758 582.553 569.758C579.696 569.758 577.593 570.844 576.244 573.015C574.918 575.164 574.255 577.839 574.255 581.039ZM641.496 588.514C641.245 590.731 640.09 592.983 638.033 595.269C634.833 598.903 630.352 600.721 624.592 600.721C619.837 600.721 615.642 599.189 612.008 596.126C608.373 593.063 606.556 588.08 606.556 581.176C606.556 574.707 608.19 569.746 611.459 566.295C614.751 562.843 619.014 561.117 624.249 561.117C627.358 561.117 630.158 561.7 632.65 562.866C635.141 564.031 637.199 565.872 638.822 568.386C640.285 570.604 641.233 573.175 641.668 576.101C641.919 577.816 642.022 580.284 641.976 583.508H616.397C616.534 587.257 617.711 589.885 619.928 591.394C621.277 592.331 622.9 592.8 624.798 592.8C626.809 592.8 628.444 592.228 629.701 591.086C630.387 590.468 630.992 589.611 631.518 588.514H641.496ZM631.827 577.061C631.667 574.478 630.878 572.524 629.461 571.198C628.066 569.849 626.329 569.175 624.249 569.175C621.986 569.175 620.226 569.883 618.968 571.301C617.734 572.718 616.957 574.638 616.637 577.061H631.827Z" fill="#C2C2C2"/>
<path d="M125.575 334.928C123.202 334.933 120.87 334.313 118.577 333.068L122.822 325.252C125.376 326.639 127.811 326.868 130.128 325.939C132.446 325.011 134.46 322.97 136.171 319.818C137.647 317.099 138.205 314.757 137.847 312.789C137.489 310.821 136.404 309.345 134.591 308.361C132.614 307.288 130.712 307.154 128.886 307.963C127.06 308.772 124.618 310.694 121.558 313.726C118.498 316.759 115.718 318.983 113.216 320.398C108.416 323.1 103.946 323.326 99.8056 321.078C96.1806 319.11 93.9946 316.01 93.2506 311.779C92.5076 307.549 93.4167 303.076 95.9777 298.359C97.6767 295.228 99.7686 292.751 102.253 290.926C104.737 289.101 107.427 288.065 110.32 287.822C113.212 287.579 115.955 288.161 118.55 289.57L114.323 297.357C111.975 296.083 109.737 295.821 107.609 296.572C105.481 297.324 103.672 299.069 102.185 301.808C100.798 304.363 100.269 306.641 100.595 308.644C100.921 310.648 102.062 312.182 104.019 313.244C105.667 314.139 107.455 314.123 109.384 313.197C111.314 312.271 113.749 310.339 116.691 307.402C119.632 304.465 122.341 302.297 124.822 300.896C127.302 299.496 129.67 298.77 131.927 298.715C134.184 298.66 136.466 299.257 138.773 300.51C142.522 302.545 144.724 305.6 145.378 309.676C146.032 313.751 145.023 318.251 142.351 323.174C140.584 326.428 138.358 329.093 135.671 331.168C132.984 333.243 130.169 334.462 127.226 334.824C126.674 334.892 126.123 334.926 125.575 334.928ZM862.947 333.799L846.499 304.648L891.081 279.496L907.406 308.432L901.159 311.955L889.206 290.767L876.896 297.711L887.228 316.021L881.103 319.476L870.773 301.166L857.056 308.906L869.13 330.308L862.947 333.799ZM150.161 293.687C148.998 293.688 147.81 293.586 146.595 293.383C142.707 292.731 138.809 291.088 134.904 288.453L130.982 285.719C127.02 282.959 124.019 279.826 121.978 276.318C119.937 272.811 119.012 269.176 119.206 265.412C119.4 261.648 120.697 258.046 123.095 254.603C126.324 249.969 130.182 247.115 134.671 246.043C139.16 244.971 143.863 245.806 148.781 248.547L143.716 255.816C140.456 254.059 137.664 253.42 135.343 253.902C133.022 254.385 130.911 255.992 129.009 258.723C126.798 261.896 126.258 265.141 127.39 268.457C128.522 271.773 131.315 275.012 135.769 278.172L139.49 280.764C144.028 283.925 148.055 285.524 151.572 285.56C155.088 285.597 157.939 284.049 160.122 280.914C162.119 278.049 162.976 275.445 162.693 273.105C162.409 270.765 160.899 268.357 158.167 265.883L163.232 258.613C167.418 262.158 169.761 266.248 170.261 270.881C170.761 275.514 169.343 280.225 166.007 285.014C163.676 288.36 160.83 290.754 157.468 292.197C155.157 293.189 152.721 293.686 150.161 293.687ZM846.833 292.367C843.792 292.274 840.809 291.26 837.884 289.322C834.959 287.385 832.278 284.722 829.841 281.336C827.336 277.855 825.907 274.205 825.556 270.387C825.205 266.568 825.975 262.873 827.866 259.303C829.758 255.732 832.643 252.508 836.521 249.631L839.775 247.289C846.052 242.771 852.038 240.747 857.73 241.213C863.422 241.679 868.205 244.603 872.079 249.986C875.406 254.609 876.906 259.102 876.581 263.465C876.256 267.828 874.142 271.833 870.24 275.478L865.148 268.402C869.576 264.003 869.989 259.302 866.388 254.299C864.061 251.065 861.127 249.444 857.585 249.437C854.043 249.431 849.996 251.021 845.447 254.209L842.251 256.51C837.762 259.741 834.958 263.195 833.837 266.875C832.717 270.554 833.367 274.076 835.79 277.443C838.446 281.134 841.173 283.158 843.97 283.514L852.103 277.66L845.941 269.1L851.419 265.156L862.755 280.908L846.833 292.367ZM178.906 265.357L153.394 216.951L158.683 210.976L209.851 230.398L203.7 237.35L192.003 232.582L178.861 247.43L185.034 258.435L178.906 265.357ZM815.017 259.717L808.743 252.877L814.697 241.738L801.294 227.127L789.706 232.125L783.456 225.312L834.249 204.959L839.644 210.84L815.017 259.717ZM175.144 240.807L184.978 229.697L164.161 221.178L175.144 240.807ZM818.294 235.051L828.929 215.23L808.267 224.117L818.294 235.051ZM214.115 226.389L180.159 188.086L186.816 182.185L228.126 194.283L203.941 167.004L210.544 161.15L244.501 199.453L237.845 205.353L196.681 193.312L220.771 220.488L214.115 226.389ZM780.036 217.676C779.784 217.674 779.528 217.666 779.271 217.65C775.151 217.401 770.98 215.436 766.757 211.756C763.966 209.323 761.85 206.568 760.409 203.494C758.969 200.42 758.393 197.409 758.681 194.457C758.969 191.505 760.167 188.819 762.277 186.398L768.982 192.242C767.072 194.433 766.318 196.76 766.72 199.225C767.121 201.689 768.675 204.099 771.378 206.455C773.71 208.488 775.875 209.544 777.874 209.623C779.873 209.702 781.55 208.965 782.906 207.41C784.384 205.714 784.926 203.886 784.534 201.928C784.143 199.969 782.8 197.166 780.507 193.519C778.214 189.873 776.648 186.676 775.812 183.926C774.221 178.653 774.974 174.239 778.07 170.687C780.78 167.578 784.281 166.122 788.572 166.318C792.862 166.514 797.031 168.376 801.077 171.902C803.763 174.243 805.726 176.824 806.966 179.646C808.206 182.468 808.628 185.317 808.236 188.193C807.843 191.069 806.678 193.619 804.738 195.846L798.058 190.023C799.813 188.009 800.556 185.883 800.286 183.642C800.016 181.402 798.707 179.257 796.357 177.209C794.166 175.299 792.059 174.284 790.032 174.166C788.006 174.047 786.261 174.827 784.798 176.506C783.566 177.919 783.192 179.669 783.675 181.754C784.159 183.839 785.514 186.636 787.74 190.146C789.965 193.657 791.491 196.774 792.318 199.5C793.144 202.226 793.338 204.696 792.9 206.91C792.462 209.125 791.38 211.222 789.656 213.201C787.028 216.216 783.822 217.706 780.036 217.676ZM744.958 189.514C741.065 189.492 736.968 187.976 732.665 184.965C729.631 182.841 727.236 180.328 725.478 177.424C723.72 174.52 722.827 171.587 722.8 168.621C722.773 165.655 723.68 162.857 725.521 160.226L732.808 165.326C731.141 167.707 730.639 170.102 731.3 172.51C731.961 174.917 733.759 177.149 736.697 179.205C739.231 180.979 741.498 181.8 743.493 181.666C745.489 181.532 747.078 180.619 748.261 178.93C749.551 177.086 749.897 175.212 749.3 173.307C748.703 171.401 747.071 168.756 744.404 165.373C741.736 161.99 739.84 158.976 738.716 156.33C736.575 151.255 736.855 146.789 739.556 142.93C741.921 139.55 745.249 137.729 749.536 137.469C753.824 137.208 758.165 138.618 762.562 141.695C765.481 143.738 767.707 146.095 769.24 148.769C770.772 151.444 771.496 154.233 771.411 157.135C771.326 160.036 770.437 162.696 768.743 165.115L761.484 160.035C763.016 157.846 763.529 155.652 763.023 153.453C762.517 151.254 760.987 149.26 758.433 147.473C756.052 145.806 753.847 145.022 751.82 145.119C749.792 145.216 748.141 146.176 746.865 148C745.789 149.536 745.602 151.316 746.304 153.338C747.006 155.36 748.65 157.998 751.236 161.252C753.821 164.506 755.67 167.444 756.781 170.066C757.892 172.689 758.346 175.125 758.146 177.373C757.945 179.621 757.094 181.822 755.589 183.973C753.143 187.467 749.859 189.308 745.736 189.498C745.478 189.51 745.218 189.515 744.958 189.514ZM275.97 177.168L252.154 140.152L238.849 148.711L234.968 142.68L269.116 120.709L272.997 126.74L259.573 135.377L283.39 172.392L275.97 177.168ZM712.669 170.457L683.415 154.197L708.282 109.455L737.322 125.596L733.837 131.863L712.573 120.045L705.706 132.398L724.083 142.611L720.667 148.758L702.29 138.545L694.64 152.31L716.118 164.248L712.669 170.457ZM310.681 155.172C309.97 155.178 309.256 155.146 308.542 155.074C304.734 154.691 301.208 153.208 297.962 150.627C294.717 148.046 292.001 144.565 289.814 140.182L288.54 137.596C286.333 133.118 285.177 128.775 285.075 124.566C284.973 120.357 285.919 116.63 287.913 113.387C289.907 110.143 292.775 107.6 296.517 105.756C300.259 103.911 304.018 103.174 307.794 103.547C311.571 103.919 315.08 105.403 318.32 108C321.56 110.597 324.294 114.128 326.523 118.596L327.781 121.15C329.998 125.649 331.166 129.979 331.284 134.141C331.403 138.302 330.466 142.005 328.472 145.248C326.478 148.491 323.598 151.041 319.835 152.896C316.812 154.387 313.762 155.145 310.681 155.172ZM674.179 149.025L665.95 145.746L672.197 130.07L681.37 109.43L652.724 140.475L646.812 138.119L647.392 95.926L639.866 117.183L633.618 132.861L625.388 129.58L644.339 82.029L655.052 86.299L654.241 128.213L682.452 97.219L693.13 101.476L674.179 149.025ZM311.431 147.603C313.134 147.62 314.858 147.198 316.603 146.338C320.135 144.597 322.187 141.912 322.763 138.283C323.339 134.654 322.353 130.255 319.804 125.084L318.622 122.687C316.114 117.6 313.23 114.174 309.97 112.41C306.71 110.647 303.312 110.636 299.781 112.377C296.333 114.077 294.303 116.756 293.691 120.416C293.078 124.076 293.969 128.387 296.363 133.348L297.667 135.996C300.154 141.041 303.061 144.455 306.384 146.24C308.046 147.133 309.728 147.587 311.431 147.603ZM372.64 130.078C371.787 130.072 370.938 130.019 370.095 129.92C366.724 129.523 363.859 128.424 361.503 126.623C359.147 124.822 357.496 122.387 356.552 119.318L365.054 116.703C365.909 119.481 367.489 121.348 369.794 122.307C372.1 123.265 374.966 123.217 378.394 122.162C381.351 121.252 383.39 119.969 384.511 118.312C385.632 116.656 385.889 114.842 385.282 112.871C384.621 110.72 383.354 109.295 381.484 108.596C379.613 107.896 376.524 107.558 372.216 107.584C367.908 107.61 364.365 107.253 361.587 106.514C356.268 105.085 352.916 102.12 351.531 97.617C350.318 93.674 350.926 89.931 353.355 86.389C355.784 82.846 359.563 80.285 364.693 78.707C368.098 77.659 371.327 77.353 374.378 77.787C377.43 78.221 380.073 79.363 382.31 81.213C384.547 83.063 386.1 85.4 386.968 88.223L378.499 90.828C377.714 88.274 376.297 86.52 374.251 85.568C372.205 84.616 369.693 84.599 366.714 85.516C363.936 86.37 361.963 87.628 360.794 89.287C359.625 90.946 359.366 92.839 360.021 94.967C360.572 96.759 361.862 98.001 363.888 98.689C365.914 99.378 369.005 99.7 373.161 99.66C377.318 99.62 380.773 99.968 383.525 100.703C386.277 101.438 388.477 102.575 390.128 104.115C391.779 105.655 392.991 107.678 393.763 110.187C395.017 114.264 394.452 117.988 392.068 121.357C389.684 124.727 385.814 127.236 380.46 128.883C377.806 129.699 375.2 130.097 372.64 130.078ZM602.462 123.058L593.361 121.238L591.599 108.73L572.156 104.838L565.749 115.711L556.683 113.894L585.691 67.498L593.515 69.064L602.462 123.058ZM405.306 121.146L395.419 70.922L428.017 64.506L429.402 71.543L405.532 76.242L408.261 90.109L428.89 86.049L430.247 92.947L409.62 97.008L412.661 112.461L436.773 107.715L438.144 114.682L405.306 121.146ZM445.341 113.572L441.171 62.555L450.036 61.83L475.816 96.303L472.847 59.967L481.642 59.248L485.812 110.266L476.947 110.99L451.247 76.652L454.206 112.848L445.341 113.572ZM511.941 110.723C511.656 110.72 511.37 110.712 511.081 110.701L496.361 110.152L498.269 59L513.376 59.564C517.896 59.733 521.87 60.89 525.296 63.035C528.723 65.18 531.326 68.138 533.109 71.91C534.891 75.682 535.693 79.956 535.515 84.734L535.419 87.299C535.238 92.147 534.114 96.375 532.044 99.98C529.975 103.585 527.118 106.316 523.472 108.174C520.054 109.915 516.21 110.765 511.941 110.723ZM512.173 103.619C516.422 103.606 519.766 102.277 522.206 99.631C524.809 96.808 526.237 92.668 526.488 87.213L526.593 84.367C526.8 78.816 525.752 74.531 523.448 71.514C521.145 68.496 517.699 66.902 513.109 66.73L506.89 66.5L505.515 103.389L511.31 103.603C511.601 103.614 511.89 103.62 512.173 103.619ZM590.558 101.209L587.452 78.932L576.011 98.297L590.558 101.209Z" fill="#333333"/>
</svg>
