<svg width="1544" height="1000" viewBox="0 0 1544 1000" fill="none" xmlns="http://www.w3.org/2000/svg">
<g clip-path="url(#clip0_285_713)">
<path d="M93 685.93H133C135.75 685.93 138 688.18 138 690.93V720.93C138 723.68 135.75 725.93 133 725.93H93C90.25 725.93 88 723.68 88 720.93V690.93C88 688.18 90.25 685.93 93 685.93Z" stroke="#333333" stroke-width="5" stroke-linecap="round" stroke-linejoin="round"/>
<path d="M138 690.93L113 708.43L88 690.93" stroke="#333333" stroke-width="5" stroke-linecap="round" stroke-linejoin="round"/>
<path d="M111.936 593.758C117.432 593.758 121.903 589.01 121.903 583.172C121.903 577.334 117.432 572.586 111.936 572.586C106.439 572.586 101.969 577.334 101.969 583.172C101.969 589.01 106.439 593.758 111.936 593.758ZM111.936 577.879C114.684 577.879 116.919 580.253 116.919 583.172C116.919 586.091 114.684 588.465 111.936 588.465C109.187 588.465 106.952 586.091 106.952 583.172C106.952 580.253 109.187 577.879 111.936 577.879Z" fill="#333333"/>
<path d="M110.489 614.438C110.91 614.758 111.416 614.93 111.934 614.93C112.452 614.93 112.957 614.758 113.379 614.438C114.137 613.869 131.94 600.216 131.868 583.172C131.868 571.498 122.925 562 111.934 562C100.943 562 92.0002 571.498 92.0002 583.159C91.928 600.216 109.731 613.869 110.489 614.438ZM111.934 567.293C120.179 567.293 126.884 574.415 126.884 583.185C126.937 594.93 115.951 605.477 111.934 608.936C107.92 605.474 96.9313 594.925 96.9837 583.172C96.9837 574.415 103.689 567.293 111.934 567.293Z" fill="#333333"/>
<path d="M1 0H2000L1998.5 181C1228.5 -55 780 465 0.5 349.5L1 0Z" fill="#333333"/>
<path d="M1999 1000.48H0L1.5 819.484C771.5 1055.48 1220 535.484 1999.5 650.984L1999 1000.48Z" fill="#333333"/>
<rect x="823" y="169" width="661" height="661" rx="9.6319" fill="white"/>
<path d="M1297.73 233.879H1423.17V359.313" stroke="#C2C2C2" stroke-width="23.8343"/>
<path d="M1009.24 233.879H883.805V359.313" stroke="#C2C2C2" stroke-width="23.8343"/>
<path d="M1297.73 773.24H1423.17V647.806" stroke="#C2C2C2" stroke-width="23.8343"/>
<path d="M1009.24 773.24H883.805V647.806" stroke="#C2C2C2" stroke-width="23.8343"/>
<path d="M1011.8 449.057L1001.94 420.356L991.454 449.057H1011.8ZM997.336 410.715H1007.29L1030.86 475.68H1021.22L1014.63 456.221H988.933L981.902 475.68H972.88L997.336 410.715ZM1042.84 452.551C1042.84 457.622 1043.92 461.867 1046.07 465.287C1048.22 468.707 1051.67 470.417 1056.42 470.417C1060.1 470.417 1063.13 468.84 1065.48 465.685C1067.87 462.501 1069.07 457.946 1069.07 452.02C1069.07 446.035 1067.84 441.613 1065.4 438.753C1062.95 435.864 1059.93 434.419 1056.33 434.419C1052.32 434.419 1049.06 435.952 1046.56 439.018C1044.08 442.084 1042.84 446.595 1042.84 452.551ZM1054.83 427.476C1058.45 427.476 1061.49 428.242 1063.94 429.775C1065.35 430.66 1066.96 432.208 1068.76 434.419V410.494H1076.41V475.68H1069.24V469.09C1067.39 472.009 1065.19 474.117 1062.65 475.414C1060.12 476.712 1057.22 477.36 1053.94 477.36C1048.67 477.36 1044.1 475.149 1040.23 470.727C1036.37 466.275 1034.44 460.364 1034.44 452.993C1034.44 446.094 1036.19 440.124 1039.7 435.082C1043.24 430.011 1048.28 427.476 1054.83 427.476ZM1093.26 452.551C1093.26 457.622 1094.33 461.867 1096.49 465.287C1098.64 468.707 1102.09 470.417 1106.83 470.417C1110.52 470.417 1113.54 468.84 1115.9 465.685C1118.29 462.501 1119.48 457.946 1119.48 452.02C1119.48 446.035 1118.26 441.613 1115.81 438.753C1113.36 435.864 1110.34 434.419 1106.75 434.419C1102.74 434.419 1099.48 435.952 1096.97 439.018C1094.5 442.084 1093.26 446.595 1093.26 452.551ZM1105.24 427.476C1108.87 427.476 1111.91 428.242 1114.35 429.775C1115.77 430.66 1117.37 432.208 1119.17 434.419V410.494H1126.82V475.68H1119.66V469.09C1117.8 472.009 1115.61 474.117 1113.07 475.414C1110.53 476.712 1107.63 477.36 1104.36 477.36C1099.08 477.36 1094.51 475.149 1090.65 470.727C1086.79 466.275 1084.85 460.364 1084.85 452.993C1084.85 446.094 1086.61 440.124 1090.12 435.082C1093.66 430.011 1098.7 427.476 1105.24 427.476ZM1193.42 428.316H1202.22C1201.1 431.353 1198.61 438.281 1194.75 449.101C1191.86 457.238 1189.44 463.872 1187.5 469.002C1182.9 481.09 1179.66 488.46 1177.77 491.114C1175.88 493.767 1172.64 495.094 1168.04 495.094C1166.92 495.094 1166.05 495.05 1165.43 494.961C1164.84 494.873 1164.1 494.711 1163.22 494.475V487.222C1164.61 487.605 1165.61 487.841 1166.23 487.93C1166.85 488.018 1167.39 488.062 1167.86 488.062C1169.34 488.062 1170.41 487.812 1171.09 487.311C1171.8 486.839 1172.39 486.249 1172.86 485.542C1173.01 485.306 1173.54 484.097 1174.45 481.915C1175.37 479.734 1176.03 478.112 1176.44 477.051L1158.93 428.316H1167.95L1180.64 466.879L1193.42 428.316ZM1227.92 470.55C1233.2 470.55 1236.81 468.56 1238.75 464.58C1240.73 460.57 1241.72 456.118 1241.72 451.224C1241.72 446.802 1241.01 443.205 1239.59 440.433C1237.35 436.07 1233.49 433.888 1228.01 433.888C1223.14 433.888 1219.6 435.746 1217.39 439.46C1215.18 443.175 1214.08 447.657 1214.08 452.904C1214.08 457.946 1215.18 462.147 1217.39 465.508C1219.6 468.869 1223.11 470.55 1227.92 470.55ZM1228.23 426.945C1234.33 426.945 1239.49 428.979 1243.71 433.048C1247.92 437.117 1250.03 443.101 1250.03 451.003C1250.03 458.639 1248.17 464.948 1244.46 469.931C1240.74 474.913 1234.98 477.404 1227.17 477.404C1220.65 477.404 1215.48 475.208 1211.64 470.815C1207.81 466.393 1205.9 460.467 1205.9 453.037C1205.9 445.077 1207.92 438.738 1211.95 434.021C1215.99 429.304 1221.42 426.945 1228.23 426.945ZM1267.5 428.316V459.759C1267.5 462.177 1267.88 464.152 1268.65 465.685C1270.06 468.515 1272.7 469.931 1276.57 469.931C1282.11 469.931 1285.88 467.454 1287.89 462.501C1288.98 459.848 1289.52 456.206 1289.52 451.578V428.316H1297.48V475.68H1289.96L1290.05 468.692C1289.02 470.491 1287.74 472.009 1286.21 473.247C1283.17 475.724 1279.48 476.962 1275.15 476.962C1268.4 476.962 1263.8 474.707 1261.35 470.196C1260.03 467.778 1259.36 464.55 1259.36 460.511V428.316H1267.5ZM1310.18 428.316H1317.74V436.497C1318.36 434.905 1319.87 432.974 1322.29 430.704C1324.71 428.404 1327.5 427.255 1330.65 427.255C1330.8 427.255 1331.05 427.269 1331.4 427.299C1331.76 427.328 1332.36 427.387 1333.22 427.476V435.878C1332.74 435.79 1332.3 435.731 1331.89 435.701C1331.51 435.672 1331.08 435.657 1330.61 435.657C1326.6 435.657 1323.52 436.954 1321.36 439.549C1319.21 442.114 1318.14 445.077 1318.14 448.438V475.68H1310.18V428.316Z" fill="#C2C2C2"/>
<path d="M1012.6 588.645C1009.68 589.618 1006.18 590.104 1002.12 590.104C993.624 590.104 986.607 587.569 981.065 582.498C974.343 576.395 970.982 567.432 970.982 555.61C970.982 543.699 974.431 534.692 981.33 528.589C986.961 523.606 993.963 521.115 1002.34 521.115C1010.77 521.115 1017.84 523.754 1023.56 529.031C1030.17 535.134 1033.47 543.669 1033.47 554.637C1033.47 560.445 1032.76 565.309 1031.35 569.231C1030.2 572.975 1028.5 576.085 1026.26 578.562L1033.78 585.593L1026.66 593.023L1018.79 585.593C1016.4 587.038 1014.34 588.055 1012.6 588.645ZM1009.68 576.881L1003.09 570.601L1010.12 563.26L1016.71 569.54C1017.74 567.417 1018.46 565.56 1018.88 563.968C1019.52 561.58 1019.85 558.794 1019.85 555.61C1019.85 548.298 1018.35 542.652 1015.34 538.672C1012.36 534.662 1008 532.657 1002.25 532.657C996.853 532.657 992.548 534.574 989.334 538.407C986.121 542.239 984.514 547.974 984.514 555.61C984.514 564.543 986.814 570.941 991.413 574.803C994.391 577.309 997.958 578.562 1002.12 578.562C1003.68 578.562 1005.18 578.37 1006.63 577.987C1007.42 577.78 1008.44 577.412 1009.68 576.881ZM1071.59 562.73H1057.53V588.291H1044.22V523.105H1076.19C1080.76 523.194 1084.27 523.754 1086.72 524.786C1089.19 525.818 1091.29 527.336 1093 529.341C1094.41 530.992 1095.53 532.82 1096.36 534.824C1097.18 536.829 1097.59 539.114 1097.59 541.679C1097.59 544.775 1096.81 547.826 1095.25 550.833C1093.69 553.811 1091.11 555.919 1087.51 557.157C1090.52 558.366 1092.64 560.091 1093.88 562.332C1095.15 564.543 1095.78 567.933 1095.78 572.503V576.881C1095.78 579.859 1095.9 581.879 1096.13 582.94C1096.49 584.62 1097.31 585.859 1098.61 586.655V588.291H1083.62C1083.21 586.846 1082.91 585.682 1082.74 584.797C1082.38 582.969 1082.19 581.097 1082.16 579.181L1082.07 573.122C1082.01 568.965 1081.25 566.194 1079.77 564.808C1078.33 563.422 1075.6 562.73 1071.59 562.73ZM1079.86 550.878C1082.57 549.639 1083.93 547.192 1083.93 543.537C1083.93 539.586 1082.62 536.932 1079.99 535.576C1078.52 534.81 1076.31 534.426 1073.36 534.426H1057.53V551.939H1072.96C1076.03 551.939 1078.33 551.585 1079.86 550.878ZM1175.25 557.379H1162.34C1162.1 555.58 1161.5 553.959 1160.52 552.514C1159.11 550.568 1156.91 549.595 1153.94 549.595C1149.69 549.595 1146.79 551.703 1145.22 555.919C1144.4 558.16 1143.99 561.138 1143.99 564.852C1143.99 568.39 1144.4 571.235 1145.22 573.388C1146.73 577.397 1149.56 579.402 1153.71 579.402C1156.66 579.402 1158.76 578.606 1159.99 577.014C1161.23 575.422 1161.98 573.358 1162.25 570.823H1175.12C1174.82 574.655 1173.44 578.282 1170.96 581.702C1167.01 587.215 1161.16 589.972 1153.4 589.972C1145.65 589.972 1139.95 587.672 1136.29 583.073C1132.63 578.473 1130.81 572.503 1130.81 565.162C1130.81 556.877 1132.83 550.435 1136.87 545.836C1140.9 541.237 1146.48 538.937 1153.58 538.937C1159.63 538.937 1164.56 540.293 1168.4 543.006C1172.26 545.718 1174.54 550.509 1175.25 557.379ZM1224.16 546.19C1228.23 551.29 1230.27 557.32 1230.27 564.277C1230.27 571.353 1228.23 577.412 1224.16 582.453C1220.09 587.466 1213.92 589.972 1205.63 589.972C1197.35 589.972 1191.17 587.466 1187.1 582.453C1183.03 577.412 1181 571.353 1181 564.277C1181 557.32 1183.03 551.29 1187.1 546.19C1191.17 541.089 1197.35 538.539 1205.63 538.539C1213.92 538.539 1220.09 541.089 1224.16 546.19ZM1205.59 549.197C1201.9 549.197 1199.06 550.509 1197.05 553.133C1195.08 555.728 1194.09 559.442 1194.09 564.277C1194.09 569.113 1195.08 572.842 1197.05 575.466C1199.06 578.09 1201.9 579.402 1205.59 579.402C1209.27 579.402 1212.1 578.09 1214.08 575.466C1216.06 572.842 1217.04 569.113 1217.04 564.277C1217.04 559.442 1216.06 555.728 1214.08 553.133C1212.1 550.509 1209.27 549.197 1205.59 549.197ZM1283.2 523.194V588.291H1270.95V581.613C1269.15 584.473 1267.1 586.552 1264.8 587.849C1262.5 589.146 1259.65 589.795 1256.23 589.795C1250.59 589.795 1245.85 587.524 1241.99 582.984C1238.15 578.414 1236.24 572.562 1236.24 565.427C1236.24 557.202 1238.12 550.73 1241.9 546.013C1245.7 541.296 1250.77 538.937 1257.11 538.937C1260.03 538.937 1262.62 539.586 1264.89 540.883C1267.16 542.151 1269.01 543.92 1270.42 546.19V523.194H1283.2ZM1249.24 564.499C1249.24 568.95 1250.12 572.503 1251.89 575.157C1253.63 577.839 1256.28 579.181 1259.85 579.181C1263.42 579.181 1266.13 577.854 1267.99 575.201C1269.85 572.547 1270.77 569.113 1270.77 564.897C1270.77 559 1269.29 554.784 1266.31 552.249C1264.48 550.716 1262.36 549.949 1259.94 549.949C1256.25 549.949 1253.54 551.349 1251.8 554.15C1250.09 556.922 1249.24 560.371 1249.24 564.499ZM1335.96 574.139C1335.64 576.999 1334.15 579.903 1331.49 582.851C1327.37 587.539 1321.59 589.883 1314.16 589.883C1308.03 589.883 1302.62 587.908 1297.93 583.957C1293.24 580.006 1290.9 573.579 1290.9 564.676C1290.9 556.332 1293 549.934 1297.22 545.482C1301.47 541.031 1306.96 538.805 1313.72 538.805C1317.73 538.805 1321.34 539.556 1324.55 541.06C1327.76 542.564 1330.42 544.937 1332.51 548.18C1334.4 551.04 1335.62 554.357 1336.18 558.13C1336.51 560.342 1336.64 563.526 1336.58 567.683H1303.59C1303.77 572.518 1305.28 575.908 1308.14 577.854C1309.88 579.063 1311.98 579.667 1314.42 579.667C1317.02 579.667 1319.13 578.93 1320.75 577.456C1321.63 576.66 1322.41 575.555 1323.09 574.139H1335.96ZM1323.49 559.369C1323.28 556.037 1322.27 553.516 1320.44 551.806C1318.64 550.067 1316.4 549.197 1313.72 549.197C1310.8 549.197 1308.53 550.111 1306.91 551.939C1305.31 553.767 1304.31 556.243 1303.9 559.369H1323.49Z" fill="#C2C2C2"/>
<path d="M124.396 151.985C124.396 149.423 123.488 147.448 121.673 146.06C119.884 144.672 116.641 143.27 111.943 141.855C107.245 140.441 103.508 138.866 100.732 137.131C95.4206 133.794 92.7646 129.443 92.7646 124.078C92.7646 119.38 94.6732 115.51 98.4902 112.467C102.334 109.424 107.312 107.902 113.425 107.902C117.482 107.902 121.099 108.65 124.275 110.145C127.452 111.639 129.948 113.775 131.763 116.551C133.578 119.3 134.485 122.356 134.485 125.72H124.396C124.396 122.677 123.435 120.301 121.513 118.593C119.618 116.858 116.895 115.99 113.345 115.99C110.035 115.99 107.459 116.698 105.617 118.112C103.802 119.527 102.895 121.502 102.895 124.038C102.895 126.174 103.882 127.962 105.857 129.403C107.833 130.818 111.089 132.206 115.627 133.567C120.165 134.902 123.808 136.437 126.558 138.172C129.307 139.88 131.322 141.855 132.604 144.098C133.885 146.313 134.525 148.916 134.525 151.905C134.525 156.763 132.657 160.634 128.92 163.517C125.21 166.373 120.165 167.801 113.785 167.801C109.568 167.801 105.684 167.027 102.134 165.479C98.6104 163.904 95.861 161.742 93.8857 158.992C91.9372 156.243 90.9629 153.04 90.9629 149.383H101.093C101.093 152.693 102.187 155.255 104.376 157.07C106.565 158.885 109.701 159.793 113.785 159.793C117.309 159.793 119.951 159.086 121.713 157.671C123.501 156.229 124.396 154.334 124.396 151.985ZM160.271 160.033C162.7 160.033 164.715 159.326 166.316 157.911C167.918 156.496 168.772 154.748 168.879 152.666H178.048C177.941 155.362 177.1 157.884 175.525 160.233C173.951 162.556 171.815 164.397 169.119 165.759C166.423 167.12 163.514 167.801 160.391 167.801C154.331 167.801 149.527 165.839 145.977 161.915C142.426 157.991 140.651 152.573 140.651 145.659V144.658C140.651 138.065 142.413 132.793 145.937 128.843C149.46 124.866 154.265 122.877 160.351 122.877C165.502 122.877 169.693 124.385 172.923 127.401C176.179 130.391 177.888 134.328 178.048 139.213H168.879C168.772 136.73 167.918 134.688 166.316 133.087C164.742 131.485 162.726 130.685 160.271 130.685C157.121 130.685 154.692 131.832 152.983 134.128C151.275 136.397 150.408 139.854 150.381 144.498V146.06C150.381 150.757 151.222 154.268 152.903 156.59C154.612 158.885 157.067 160.033 160.271 160.033ZM211.28 167C210.853 166.173 210.479 164.825 210.159 162.956C207.063 166.186 203.272 167.801 198.788 167.801C194.437 167.801 190.887 166.56 188.138 164.077C185.388 161.595 184.014 158.525 184.014 154.868C184.014 150.25 185.722 146.714 189.139 144.258C192.582 141.775 197.493 140.534 203.873 140.534H209.839V137.691C209.839 135.449 209.212 133.661 207.957 132.326C206.702 130.965 204.794 130.284 202.231 130.284C200.016 130.284 198.201 130.845 196.786 131.966C195.371 133.06 194.664 134.462 194.664 136.17H184.935C184.935 133.794 185.722 131.579 187.297 129.523C188.872 127.441 191.007 125.813 193.703 124.639C196.426 123.464 199.455 122.877 202.792 122.877C207.864 122.877 211.908 124.158 214.924 126.721C217.94 129.257 219.488 132.833 219.568 137.451V156.99C219.568 160.887 220.116 163.997 221.21 166.319V167H211.28ZM200.59 159.993C202.512 159.993 204.313 159.526 205.995 158.592C207.703 157.658 208.985 156.403 209.839 154.828V146.66H204.594C200.99 146.66 198.281 147.287 196.466 148.542C194.651 149.797 193.743 151.572 193.743 153.867C193.743 155.736 194.357 157.23 195.585 158.352C196.84 159.446 198.508 159.993 200.59 159.993ZM238.787 123.678L239.067 128.683C242.271 124.812 246.475 122.877 251.68 122.877C260.702 122.877 265.293 128.042 265.453 138.372V167H255.724V138.933C255.724 136.183 255.123 134.155 253.922 132.847C252.747 131.512 250.812 130.845 248.116 130.845C244.192 130.845 241.27 132.62 239.348 136.17V167H229.618V123.678H238.787ZM308.015 113.147V123.678H315.662V130.885H308.015V155.068C308.015 156.723 308.335 157.924 308.976 158.672C309.643 159.393 310.817 159.753 312.499 159.753C313.62 159.753 314.755 159.619 315.902 159.353V166.88C313.687 167.494 311.551 167.801 309.496 167.801C302.022 167.801 298.285 163.677 298.285 155.429V130.885H291.158V123.678H298.285V113.147H308.015ZM320.106 144.938C320.106 140.694 320.947 136.877 322.629 133.487C324.311 130.071 326.673 127.455 329.716 125.64C332.759 123.798 336.256 122.877 340.206 122.877C346.052 122.877 350.79 124.759 354.42 128.522C358.077 132.286 360.052 137.278 360.346 143.497L360.386 145.779C360.386 150.05 359.558 153.867 357.903 157.23C356.275 160.594 353.926 163.196 350.856 165.038C347.813 166.88 344.29 167.801 340.286 167.801C334.174 167.801 329.275 165.772 325.592 161.715C321.935 157.631 320.106 152.199 320.106 145.419V144.938ZM329.836 145.779C329.836 150.237 330.757 153.734 332.599 156.27C334.44 158.779 337.003 160.033 340.286 160.033C343.569 160.033 346.118 158.752 347.934 156.189C349.775 153.627 350.696 149.877 350.696 144.938C350.696 140.561 349.749 137.091 347.854 134.528C345.985 131.966 343.436 130.685 340.206 130.685C337.03 130.685 334.507 131.952 332.639 134.488C330.77 136.997 329.836 140.761 329.836 145.779ZM387.212 144.938C387.212 140.694 388.053 136.877 389.734 133.487C391.416 130.071 393.778 127.455 396.821 125.64C399.864 123.798 403.361 122.877 407.312 122.877C413.157 122.877 417.895 124.759 421.525 128.522C425.182 132.286 427.158 137.278 427.451 143.497L427.491 145.779C427.491 150.05 426.664 153.867 425.009 157.23C423.381 160.594 421.032 163.196 417.962 165.038C414.919 166.88 411.396 167.801 407.392 167.801C401.279 167.801 396.381 165.772 392.697 161.715C389.04 157.631 387.212 152.199 387.212 145.419V144.938ZM396.941 145.779C396.941 150.237 397.862 153.734 399.704 156.27C401.546 158.779 404.108 160.033 407.392 160.033C410.675 160.033 413.224 158.752 415.039 156.189C416.881 153.627 417.802 149.877 417.802 144.938C417.802 140.561 416.854 137.091 414.959 134.528C413.09 131.966 410.541 130.685 407.312 130.685C404.135 130.685 401.613 131.952 399.744 134.488C397.876 136.997 396.941 140.761 396.941 145.779ZM473.656 145.779C473.656 152.479 472.135 157.831 469.092 161.835C466.049 165.812 461.965 167.801 456.84 167.801C452.089 167.801 448.285 166.239 445.429 163.116V183.656H435.699V123.678H444.668L445.068 128.082C447.924 124.612 451.808 122.877 456.72 122.877C462.005 122.877 466.142 124.852 469.132 128.803C472.148 132.727 473.656 138.185 473.656 145.179V145.779ZM463.967 144.938C463.967 140.614 463.099 137.184 461.364 134.648C459.656 132.113 457.2 130.845 453.997 130.845C450.02 130.845 447.164 132.486 445.429 135.77V154.988C447.19 158.352 450.073 160.033 454.077 160.033C457.174 160.033 459.589 158.792 461.324 156.31C463.086 153.8 463.967 150.01 463.967 144.938ZM501.003 167.801C494.837 167.801 489.832 165.866 485.988 161.995C482.171 158.098 480.263 152.92 480.263 146.46V145.259C480.263 140.935 481.09 137.077 482.745 133.688C484.427 130.271 486.776 127.615 489.792 125.72C492.808 123.825 496.172 122.877 499.882 122.877C505.781 122.877 510.332 124.759 513.535 128.522C516.765 132.286 518.38 137.611 518.38 144.498V148.422H490.072C490.366 151.999 491.554 154.828 493.636 156.91C495.744 158.992 498.387 160.033 501.563 160.033C506.021 160.033 509.651 158.231 512.454 154.628L517.699 159.633C515.964 162.222 513.642 164.237 510.732 165.679C507.85 167.093 504.606 167.801 501.003 167.801ZM499.842 130.685C497.173 130.685 495.01 131.619 493.355 133.487C491.727 135.356 490.686 137.958 490.232 141.295H508.771V140.574C508.557 137.318 507.689 134.862 506.168 133.207C504.646 131.525 502.538 130.685 499.842 130.685ZM534.996 123.678L535.276 128.683C538.479 124.812 542.684 122.877 547.889 122.877C556.911 122.877 561.502 128.042 561.662 138.372V167H551.933V138.933C551.933 136.183 551.332 134.155 550.131 132.847C548.956 131.512 547.021 130.845 544.325 130.845C540.401 130.845 537.479 132.62 535.557 136.17V167H525.827V123.678H534.996ZM110.782 249.033C113.211 249.033 115.227 248.326 116.828 246.911C118.43 245.496 119.284 243.748 119.391 241.666H128.56C128.453 244.362 127.612 246.884 126.037 249.233C124.462 251.556 122.327 253.397 119.631 254.759C116.935 256.12 114.025 256.801 110.902 256.801C104.843 256.801 100.038 254.839 96.4883 250.915C92.9382 246.991 91.1631 241.573 91.1631 234.659V233.658C91.1631 227.065 92.9248 221.793 96.4482 217.843C99.9717 213.866 104.776 211.877 110.862 211.877C116.014 211.877 120.205 213.385 123.435 216.401C126.691 219.391 128.399 223.328 128.56 228.213H119.391C119.284 225.73 118.43 223.688 116.828 222.087C115.253 220.485 113.238 219.685 110.782 219.685C107.632 219.685 105.203 220.832 103.495 223.128C101.787 225.397 100.919 228.854 100.893 233.498V235.06C100.893 239.757 101.733 243.268 103.415 245.59C105.123 247.885 107.579 249.033 110.782 249.033ZM134.085 233.938C134.085 229.694 134.926 225.877 136.607 222.487C138.289 219.071 140.651 216.455 143.694 214.64C146.737 212.798 150.234 211.877 154.185 211.877C160.03 211.877 164.768 213.759 168.398 217.522C172.055 221.286 174.031 226.278 174.324 232.497L174.364 234.779C174.364 239.05 173.537 242.867 171.882 246.23C170.254 249.594 167.905 252.196 164.835 254.038C161.792 255.88 158.269 256.801 154.265 256.801C148.152 256.801 143.254 254.772 139.57 250.715C135.913 246.631 134.085 241.199 134.085 234.419V233.938ZM143.814 234.779C143.814 239.237 144.735 242.734 146.577 245.27C148.419 247.779 150.981 249.033 154.265 249.033C157.548 249.033 160.097 247.752 161.912 245.189C163.754 242.627 164.675 238.877 164.675 233.938C164.675 229.561 163.727 226.091 161.832 223.528C159.964 220.966 157.414 219.685 154.185 219.685C151.008 219.685 148.486 220.952 146.617 223.488C144.749 225.997 143.814 229.761 143.814 234.779ZM191.621 212.678L191.901 217.683C195.104 213.812 199.309 211.877 204.514 211.877C213.536 211.877 218.127 217.042 218.287 227.372V256H208.558V227.933C208.558 225.183 207.957 223.155 206.756 221.847C205.581 220.512 203.646 219.845 200.95 219.845C197.026 219.845 194.104 221.62 192.182 225.17V256H182.452V212.678H191.621ZM240.429 202.147V212.678H248.076V219.885H240.429V244.068C240.429 245.723 240.749 246.924 241.39 247.672C242.057 248.393 243.231 248.753 244.913 248.753C246.034 248.753 247.169 248.619 248.316 248.353V255.88C246.101 256.494 243.965 256.801 241.91 256.801C234.436 256.801 230.699 252.677 230.699 244.429V219.885H223.572V212.678H230.699V202.147H240.429ZM281.429 256C281.002 255.173 280.628 253.825 280.308 251.956C277.211 255.186 273.421 256.801 268.937 256.801C264.586 256.801 261.035 255.56 258.286 253.077C255.537 250.595 254.162 247.525 254.162 243.868C254.162 239.25 255.87 235.714 259.287 233.258C262.73 230.775 267.642 229.534 274.021 229.534H279.987V226.691C279.987 224.449 279.36 222.661 278.105 221.326C276.851 219.965 274.942 219.284 272.38 219.284C270.164 219.284 268.349 219.845 266.935 220.966C265.52 222.06 264.812 223.462 264.812 225.17H255.083C255.083 222.794 255.87 220.579 257.445 218.523C259.02 216.441 261.156 214.813 263.852 213.639C266.574 212.464 269.604 211.877 272.94 211.877C278.012 211.877 282.056 213.158 285.072 215.721C288.089 218.257 289.637 221.833 289.717 226.451V245.99C289.717 249.887 290.264 252.997 291.358 255.319V256H281.429ZM270.738 248.993C272.66 248.993 274.462 248.526 276.144 247.592C277.852 246.658 279.133 245.403 279.987 243.828V235.66H274.742C271.139 235.66 268.429 236.287 266.614 237.542C264.799 238.797 263.892 240.572 263.892 242.867C263.892 244.736 264.506 246.23 265.733 247.352C266.988 248.446 268.656 248.993 270.738 248.993ZM317.704 249.033C320.133 249.033 322.148 248.326 323.75 246.911C325.352 245.496 326.206 243.748 326.312 241.666H335.481C335.375 244.362 334.534 246.884 332.959 249.233C331.384 251.556 329.249 253.397 326.553 254.759C323.857 256.12 320.947 256.801 317.824 256.801C311.765 256.801 306.96 254.839 303.41 250.915C299.86 246.991 298.085 241.573 298.085 234.659V233.658C298.085 227.065 299.847 221.793 303.37 217.843C306.894 213.866 311.698 211.877 317.784 211.877C322.936 211.877 327.127 213.385 330.356 216.401C333.613 219.391 335.321 223.328 335.481 228.213H326.312C326.206 225.73 325.352 223.688 323.75 222.087C322.175 220.485 320.16 219.685 317.704 219.685C314.554 219.685 312.125 220.832 310.417 223.128C308.709 225.397 307.841 228.854 307.814 233.498V235.06C307.814 239.757 308.655 243.268 310.337 245.59C312.045 247.885 314.501 249.033 317.704 249.033ZM355.021 202.147V212.678H362.668V219.885H355.021V244.068C355.021 245.723 355.341 246.924 355.981 247.672C356.649 248.393 357.823 248.753 359.505 248.753C360.626 248.753 361.76 248.619 362.908 248.353V255.88C360.693 256.494 358.557 256.801 356.502 256.801C349.028 256.801 345.291 252.677 345.291 244.429V219.885H338.164V212.678H345.291V202.147H355.021ZM394.419 244.229C394.419 242.493 393.698 241.172 392.257 240.265C390.842 239.357 388.48 238.556 385.17 237.862C381.86 237.168 379.097 236.287 376.882 235.22C372.024 232.871 369.595 229.467 369.595 225.01C369.595 221.273 371.17 218.15 374.319 215.641C377.469 213.132 381.473 211.877 386.331 211.877C391.509 211.877 395.687 213.158 398.863 215.721C402.066 218.283 403.668 221.606 403.668 225.69H393.938C393.938 223.822 393.244 222.274 391.856 221.046C390.468 219.791 388.627 219.164 386.331 219.164C384.196 219.164 382.447 219.658 381.086 220.646C379.751 221.633 379.084 222.954 379.084 224.609C379.084 226.104 379.711 227.265 380.966 228.093C382.22 228.92 384.756 229.761 388.573 230.615C392.39 231.443 395.38 232.444 397.542 233.618C399.731 234.766 401.346 236.154 402.387 237.782C403.454 239.41 403.988 241.386 403.988 243.708C403.988 247.605 402.373 250.768 399.144 253.197C395.914 255.6 391.683 256.801 386.451 256.801C382.901 256.801 379.738 256.16 376.962 254.879C374.186 253.598 372.024 251.836 370.476 249.594C368.927 247.352 368.153 244.936 368.153 242.347H377.603C377.736 244.642 378.604 246.417 380.205 247.672C381.807 248.9 383.929 249.514 386.571 249.514C389.134 249.514 391.082 249.033 392.417 248.072C393.752 247.085 394.419 245.803 394.419 244.229Z" fill="white"/>
<path fill-rule="evenodd" clip-rule="evenodd" d="M126 436H122.856V438.197C122.856 438.719 122.432 439.143 121.91 439.143H104.946C104.424 439.143 104 438.719 104 438.197V436H99C97.8954 436 97 436.895 97 438V494.095C97 495.2 97.8954 496.095 99 496.095H126C127.105 496.095 128 495.2 128 494.095V438C128 436.895 127.105 436 126 436ZM99 432C95.6863 432 93 434.686 93 438V494.095C93 497.409 95.6863 500.095 99 500.095H126C129.314 500.095 132 497.409 132 494.095V438C132 434.686 129.314 432 126 432H99ZM112.808 486C110.757 486 109.094 487.663 109.094 489.714C109.094 491.766 110.757 493.429 112.808 493.429C114.859 493.429 116.522 491.766 116.522 489.714C116.522 487.663 114.859 486 112.808 486Z" fill="#333333"/>
<path d="M205.342 469.249V484H200.374V446.32H214.271C218.394 446.32 221.62 447.373 223.949 449.478C226.296 451.582 227.469 454.369 227.469 457.836C227.469 461.494 226.321 464.315 224.027 466.299C221.75 468.266 218.48 469.249 214.219 469.249H205.342ZM205.342 465.186H214.271C216.927 465.186 218.963 464.565 220.378 463.323C221.793 462.063 222.5 460.252 222.5 457.888C222.5 455.645 221.793 453.851 220.378 452.505C218.963 451.16 217.022 450.461 214.555 450.409H205.342V465.186ZM237.846 459.389C239.968 456.784 242.729 455.481 246.127 455.481C252.045 455.481 255.03 458.82 255.082 465.497V484H250.294V465.471C250.277 463.452 249.811 461.96 248.896 460.994C247.999 460.028 246.593 459.544 244.678 459.544C243.125 459.544 241.763 459.958 240.589 460.787C239.416 461.615 238.502 462.702 237.846 464.047V484H233.059V444.25H237.846V459.389ZM260.982 469.741C260.982 466.998 261.517 464.53 262.586 462.339C263.673 460.148 265.174 458.458 267.089 457.267C269.022 456.077 271.221 455.481 273.688 455.481C277.501 455.481 280.581 456.801 282.927 459.441C285.291 462.081 286.473 465.591 286.473 469.974V470.31C286.473 473.036 285.946 475.486 284.894 477.66C283.859 479.816 282.367 481.498 280.417 482.706C278.485 483.914 276.259 484.518 273.74 484.518C269.945 484.518 266.865 483.198 264.501 480.558C262.155 477.918 260.982 474.425 260.982 470.077V469.741ZM265.795 470.31C265.795 473.416 266.511 475.909 267.943 477.789C269.393 479.67 271.325 480.61 273.74 480.61C276.173 480.61 278.105 479.661 279.537 477.763C280.969 475.848 281.685 473.174 281.685 469.741C281.685 466.67 280.952 464.185 279.485 462.288C278.036 460.373 276.104 459.415 273.688 459.415C271.325 459.415 269.418 460.355 267.969 462.236C266.52 464.116 265.795 466.808 265.795 470.31ZM297.005 455.999L297.161 459.519C299.3 456.827 302.095 455.481 305.545 455.481C311.463 455.481 314.448 458.82 314.5 465.497V484H309.712V465.471C309.695 463.452 309.229 461.96 308.314 460.994C307.417 460.028 306.011 459.544 304.096 459.544C302.543 459.544 301.181 459.958 300.007 460.787C298.834 461.615 297.92 462.702 297.264 464.047V484H292.477V455.999H297.005ZM333.339 484.518C329.544 484.518 326.456 483.275 324.075 480.791C321.694 478.289 320.503 474.951 320.503 470.776V469.896C320.503 467.118 321.03 464.643 322.082 462.469C323.152 460.278 324.635 458.57 326.533 457.345C328.448 456.103 330.519 455.481 332.744 455.481C336.384 455.481 339.214 456.681 341.232 459.079C343.251 461.477 344.26 464.91 344.26 469.378V471.371H325.291C325.36 474.132 326.162 476.366 327.698 478.074C329.25 479.764 331.217 480.61 333.598 480.61C335.289 480.61 336.721 480.265 337.894 479.575C339.067 478.885 340.094 477.97 340.974 476.832L343.898 479.109C341.552 482.715 338.032 484.518 333.339 484.518ZM332.744 459.415C330.812 459.415 329.19 460.122 327.879 461.537C326.568 462.935 325.757 464.901 325.446 467.438H339.473V467.075C339.335 464.643 338.679 462.762 337.506 461.434C336.333 460.088 334.745 459.415 332.744 459.415Z" fill="#333333"/>
<path d="M221.18 596.166H205.394L201.849 606H196.725L211.113 568.32H215.461L229.875 606H224.777L221.18 596.166ZM206.895 592.077H219.705L213.287 574.454L206.895 592.077ZM233.033 591.767C233.033 587.471 234.051 584.02 236.086 581.415C238.122 578.793 240.788 577.481 244.083 577.481C247.361 577.481 249.958 578.603 251.873 580.846V566.25H256.66V606H252.261L252.028 602.998C250.113 605.344 247.447 606.518 244.031 606.518C240.788 606.518 238.139 605.189 236.086 602.532C234.051 599.875 233.033 596.408 233.033 592.129V591.767ZM237.82 592.31C237.82 595.485 238.476 597.969 239.787 599.763C241.098 601.557 242.91 602.455 245.222 602.455C248.258 602.455 250.475 601.092 251.873 598.366V585.504C250.441 582.864 248.241 581.544 245.273 581.544C242.927 581.544 241.098 582.45 239.787 584.262C238.476 586.073 237.82 588.756 237.82 592.31ZM262.949 591.767C262.949 587.471 263.967 584.02 266.002 581.415C268.038 578.793 270.704 577.481 273.999 577.481C277.277 577.481 279.874 578.603 281.789 580.846V566.25H286.576V606H282.177L281.944 602.998C280.029 605.344 277.363 606.518 273.947 606.518C270.704 606.518 268.056 605.189 266.002 602.532C263.967 599.875 262.949 596.408 262.949 592.129V591.767ZM267.736 592.31C267.736 595.485 268.392 597.969 269.703 599.763C271.014 601.557 272.826 602.455 275.138 602.455C278.174 602.455 280.391 601.092 281.789 598.366V585.504C280.357 582.864 278.157 581.544 275.189 581.544C272.843 581.544 271.014 582.45 269.703 584.262C268.392 586.073 267.736 588.756 267.736 592.31ZM307.564 582.295C306.839 582.174 306.054 582.114 305.209 582.114C302.069 582.114 299.938 583.451 298.817 586.125V606H294.029V577.999H298.688L298.765 581.234C300.335 578.732 302.561 577.481 305.442 577.481C306.374 577.481 307.081 577.602 307.564 577.844V582.295ZM323.091 606.518C319.296 606.518 316.208 605.275 313.827 602.791C311.446 600.289 310.255 596.951 310.255 592.776V591.896C310.255 589.118 310.782 586.643 311.834 584.469C312.904 582.278 314.387 580.57 316.285 579.345C318.2 578.103 320.271 577.481 322.496 577.481C326.136 577.481 328.966 578.681 330.984 581.079C333.003 583.477 334.012 586.91 334.012 591.378V593.371H315.043C315.112 596.132 315.914 598.366 317.45 600.074C319.002 601.764 320.969 602.61 323.35 602.61C325.041 602.61 326.473 602.265 327.646 601.575C328.819 600.885 329.846 599.97 330.726 598.832L333.65 601.109C331.304 604.715 327.784 606.518 323.091 606.518ZM322.496 581.415C320.564 581.415 318.942 582.122 317.631 583.537C316.32 584.935 315.509 586.901 315.198 589.438H329.225V589.075C329.087 586.643 328.431 584.762 327.258 583.434C326.085 582.088 324.497 581.415 322.496 581.415ZM355.88 598.573C355.88 597.279 355.388 596.278 354.405 595.571C353.439 594.846 351.739 594.225 349.307 593.708C346.891 593.19 344.968 592.569 343.536 591.844C342.121 591.12 341.069 590.257 340.378 589.256C339.706 588.256 339.369 587.065 339.369 585.685C339.369 583.39 340.335 581.45 342.268 579.862C344.217 578.275 346.701 577.481 349.721 577.481C352.895 577.481 355.466 578.301 357.433 579.94C359.417 581.579 360.409 583.675 360.409 586.229H355.595C355.595 584.917 355.035 583.787 353.913 582.838C352.809 581.889 351.411 581.415 349.721 581.415C347.978 581.415 346.615 581.795 345.632 582.554C344.648 583.313 344.157 584.305 344.157 585.53C344.157 586.686 344.614 587.557 345.528 588.144C346.443 588.73 348.09 589.291 350.471 589.826C352.869 590.361 354.81 590.999 356.294 591.741C357.778 592.483 358.873 593.38 359.581 594.432C360.305 595.467 360.667 596.735 360.667 598.236C360.667 600.738 359.667 602.748 357.666 604.266C355.664 605.767 353.068 606.518 349.876 606.518C347.633 606.518 345.649 606.121 343.924 605.327C342.199 604.534 340.844 603.429 339.861 602.015C338.895 600.583 338.412 599.039 338.412 597.382H343.199C343.285 598.987 343.924 600.264 345.114 601.212C346.322 602.144 347.909 602.61 349.876 602.61C351.688 602.61 353.137 602.248 354.224 601.523C355.328 600.781 355.88 599.798 355.88 598.573ZM383.208 598.573C383.208 597.279 382.716 596.278 381.733 595.571C380.767 594.846 379.067 594.225 376.635 593.708C374.219 593.19 372.296 592.569 370.864 591.844C369.449 591.12 368.397 590.257 367.707 589.256C367.034 588.256 366.697 587.065 366.697 585.685C366.697 583.39 367.663 581.45 369.596 579.862C371.545 578.275 374.03 577.481 377.049 577.481C380.223 577.481 382.794 578.301 384.761 579.94C386.745 581.579 387.737 583.675 387.737 586.229H382.923C382.923 584.917 382.363 583.787 381.241 582.838C380.137 581.889 378.74 581.415 377.049 581.415C375.306 581.415 373.943 581.795 372.96 582.554C371.977 583.313 371.485 584.305 371.485 585.53C371.485 586.686 371.942 587.557 372.856 588.144C373.771 588.73 375.418 589.291 377.799 589.826C380.197 590.361 382.138 590.999 383.622 591.741C385.106 592.483 386.201 593.38 386.909 594.432C387.633 595.467 387.996 596.735 387.996 598.236C387.996 600.738 386.995 602.748 384.994 604.266C382.992 605.767 380.396 606.518 377.204 606.518C374.961 606.518 372.977 606.121 371.252 605.327C369.527 604.534 368.172 603.429 367.189 602.015C366.223 600.583 365.74 599.039 365.74 597.382H370.527C370.614 598.987 371.252 600.264 372.442 601.212C373.65 602.144 375.237 602.61 377.204 602.61C379.016 602.61 380.465 602.248 381.552 601.523C382.656 600.781 383.208 599.798 383.208 598.573Z" fill="#333333"/>
<path d="M221.672 706.583H205.342V719.937H224.312V724H200.374V686.32H224.053V690.409H205.342V702.521H221.672V706.583ZM234.249 695.999L234.378 699.104C236.431 696.689 239.201 695.481 242.686 695.481C246.602 695.481 249.267 696.982 250.682 699.984C251.614 698.639 252.821 697.552 254.305 696.724C255.806 695.896 257.575 695.481 259.61 695.481C265.752 695.481 268.875 698.734 268.979 705.238V724H264.191V705.522C264.191 703.521 263.734 702.029 262.819 701.045C261.905 700.045 260.369 699.544 258.213 699.544C256.436 699.544 254.961 700.079 253.788 701.149C252.614 702.201 251.933 703.625 251.743 705.419V724H246.93V705.652C246.93 701.58 244.937 699.544 240.952 699.544C237.812 699.544 235.664 700.882 234.508 703.556V724H229.72V695.999H234.249ZM293.512 724C293.236 723.448 293.011 722.465 292.839 721.05C290.613 723.362 287.956 724.518 284.868 724.518C282.108 724.518 279.839 723.741 278.062 722.188C276.302 720.618 275.422 718.634 275.422 716.236C275.422 713.321 276.527 711.061 278.735 709.456C280.96 707.834 284.083 707.023 288.103 707.023H292.761V704.824C292.761 703.15 292.261 701.822 291.26 700.838C290.26 699.838 288.785 699.337 286.835 699.337C285.127 699.337 283.695 699.769 282.539 700.631C281.383 701.494 280.805 702.538 280.805 703.763H275.992C275.992 702.365 276.483 701.02 277.467 699.726C278.467 698.414 279.813 697.379 281.504 696.62C283.212 695.861 285.084 695.481 287.12 695.481C290.346 695.481 292.873 696.292 294.702 697.914C296.531 699.519 297.48 701.736 297.549 704.565V717.453C297.549 720.023 297.877 722.068 298.532 723.586V724H293.512ZM285.567 720.351C287.068 720.351 288.491 719.963 289.837 719.187C291.183 718.41 292.157 717.401 292.761 716.159V710.414H289.009C283.143 710.414 280.21 712.13 280.21 715.563C280.21 717.064 280.71 718.238 281.711 719.083C282.712 719.928 283.997 720.351 285.567 720.351ZM310.255 724H305.468V695.999H310.255V724ZM305.08 688.572C305.08 687.795 305.312 687.14 305.778 686.605C306.261 686.07 306.969 685.803 307.9 685.803C308.832 685.803 309.539 686.07 310.022 686.605C310.506 687.14 310.747 687.795 310.747 688.572C310.747 689.348 310.506 689.995 310.022 690.513C309.539 691.03 308.832 691.289 307.9 691.289C306.969 691.289 306.261 691.03 305.778 690.513C305.312 689.995 305.08 689.348 305.08 688.572ZM323.143 724H318.355V684.25H323.143V724Z" fill="#333333"/>
</g>
<defs>
<clipPath id="clip0_285_713">
<rect width="1544" height="1000" fill="white"/>
</clipPath>
</defs>
</svg>
