<svg width="1000" height="1000" viewBox="0 0 1000 1000" fill="none" xmlns="http://www.w3.org/2000/svg">
<path d="M15.9235 983.042C62.868 608.699 61.3567 394.087 15.8691 15.8409C398.192 60.2202 611.798 59.8797 982.701 15.9111C917.632 389.821 919.085 605.159 982.714 982.897C602.776 928.784 395.836 933.439 15.9235 983.042Z" stroke="#333333" stroke-width="12"/>
<path d="M62.9231 936.043C105.251 598.214 103.888 404.189 62.8687 62.8405C407.884 102.857 601 102.553 935.702 62.9106C877.035 400.335 878.344 595.03 935.714 935.897C592.865 887.114 405.747 891.311 62.9231 936.043Z" fill="#333333" stroke="#333333" stroke-width="12"/>
<rect x="193" y="128" width="613" height="613" fill="white"/>
<path d="M633.258 188.168H749.583V304.493" stroke="#C2C2C2" stroke-width="22.1035"/>
<path d="M365.711 188.168H249.386V304.493" stroke="#C2C2C2" stroke-width="22.1035"/>
<path d="M633.258 688.363H749.583V572.038" stroke="#C2C2C2" stroke-width="22.1035"/>
<path d="M365.711 688.363H249.386V572.038" stroke="#C2C2C2" stroke-width="22.1035"/>
<path d="M368.088 387.529L358.942 360.912L349.222 387.529H368.088ZM354.677 351.972H363.904L385.764 412.219H376.823L370.712 394.173H346.884L340.363 412.219H331.997L354.677 351.972ZM396.878 390.769C396.878 395.472 397.876 399.409 399.872 402.581C401.868 405.752 405.067 407.338 409.469 407.338C412.887 407.338 415.689 405.875 417.877 402.95C420.091 399.997 421.199 395.773 421.199 390.277C421.199 384.727 420.064 380.626 417.795 377.973C415.525 375.294 412.723 373.954 409.387 373.954C405.669 373.954 402.647 375.376 400.323 378.219C398.027 381.063 396.878 385.246 396.878 390.769ZM407.993 367.515C411.356 367.515 414.172 368.226 416.441 369.648C417.754 370.468 419.244 371.904 420.912 373.954V351.766H428.007V412.219H421.363V406.108C419.64 408.815 417.603 410.77 415.252 411.973C412.901 413.176 410.207 413.777 407.172 413.777C402.278 413.777 398.04 411.727 394.459 407.625C390.877 403.497 389.086 398.015 389.086 391.179C389.086 384.781 390.713 379.245 393.967 374.569C397.247 369.867 401.923 367.515 407.993 367.515ZM443.633 390.769C443.633 395.472 444.63 399.409 446.626 402.581C448.622 405.752 451.821 407.338 456.223 407.338C459.641 407.338 462.444 405.875 464.631 402.95C466.846 399.997 467.953 395.773 467.953 390.277C467.953 384.727 466.818 380.626 464.549 377.973C462.279 375.294 459.477 373.954 456.141 373.954C452.423 373.954 449.402 375.376 447.078 378.219C444.781 381.063 443.633 385.246 443.633 390.769ZM454.747 367.515C458.11 367.515 460.926 368.226 463.195 369.648C464.508 370.468 465.998 371.904 467.666 373.954V351.766H474.761V412.219H468.117V406.108C466.394 408.815 464.357 410.77 462.006 411.973C459.655 413.176 456.962 413.777 453.927 413.777C449.032 413.777 444.795 411.727 441.213 407.625C437.631 403.497 435.84 398.015 435.84 391.179C435.84 384.781 437.467 379.245 440.721 374.569C444.002 369.867 448.677 367.515 454.747 367.515ZM536.526 368.294H544.687C543.648 371.111 541.338 377.536 537.756 387.57C535.076 395.117 532.834 401.268 531.03 406.026C526.765 417.236 523.757 424.071 522.007 426.532C520.257 428.993 517.25 430.223 512.984 430.223C511.946 430.223 511.139 430.182 510.565 430.1C510.018 430.018 509.334 429.868 508.514 429.649V422.923C509.799 423.278 510.729 423.497 511.303 423.579C511.877 423.661 512.383 423.702 512.82 423.702C514.188 423.702 515.185 423.47 515.814 423.005C516.471 422.568 517.017 422.021 517.455 421.365C517.592 421.146 518.084 420.025 518.931 418.001C519.779 415.978 520.394 414.474 520.777 413.49L504.536 368.294H512.902L524.673 404.057L536.526 368.294ZM568.515 407.461C573.409 407.461 576.759 405.616 578.563 401.925C580.395 398.206 581.311 394.078 581.311 389.539C581.311 385.438 580.655 382.102 579.343 379.532C577.265 375.485 573.683 373.462 568.597 373.462C564.086 373.462 560.805 375.185 558.754 378.63C556.704 382.075 555.678 386.231 555.678 391.097C555.678 395.773 556.704 399.669 558.754 402.786C560.805 405.903 564.059 407.461 568.515 407.461ZM568.802 367.023C574.462 367.023 579.247 368.91 583.157 372.683C587.067 376.456 589.021 382.006 589.021 389.334C589.021 396.415 587.299 402.266 583.854 406.887C580.409 411.508 575.064 413.818 567.818 413.818C561.776 413.818 556.977 411.781 553.423 407.707C549.868 403.606 548.091 398.11 548.091 391.22C548.091 383.838 549.964 377.96 553.71 373.585C557.456 369.21 562.486 367.023 568.802 367.023ZM605.221 368.294V397.454C605.221 399.696 605.577 401.528 606.288 402.95C607.6 405.575 610.047 406.887 613.629 406.887C618.769 406.887 622.269 404.59 624.128 399.997C625.14 397.536 625.646 394.16 625.646 389.867V368.294H633.028V412.219H626.056L626.138 405.739C625.181 407.407 623.991 408.815 622.57 409.963C619.753 412.26 616.336 413.408 612.316 413.408C606.055 413.408 601.79 411.316 599.521 407.133C598.29 404.891 597.675 401.897 597.675 398.151V368.294H605.221ZM644.798 368.294H651.811V375.882C652.386 374.405 653.794 372.614 656.036 370.509C658.278 368.376 660.862 367.31 663.787 367.31C663.924 367.31 664.156 367.324 664.484 367.351C664.812 367.379 665.373 367.433 666.166 367.515V375.308C665.728 375.226 665.318 375.171 664.935 375.144C664.58 375.116 664.184 375.103 663.746 375.103C660.028 375.103 657.17 376.306 655.174 378.712C653.179 381.09 652.181 383.838 652.181 386.955V412.219H644.798V368.294Z" fill="#C2C2C2"/>
<path d="M368.829 516.98C366.122 517.883 362.882 518.334 359.109 518.334C351.234 518.334 344.727 515.982 339.587 511.28C333.353 505.62 330.236 497.308 330.236 486.344C330.236 475.298 333.435 466.945 339.833 461.286C345.055 456.665 351.549 454.355 359.314 454.355C367.133 454.355 373.695 456.802 379 461.696C385.124 467.355 388.186 475.271 388.186 485.442C388.186 490.828 387.53 495.34 386.218 498.976C385.151 502.448 383.579 505.333 381.501 507.63L388.473 514.151L381.87 521.041L374.57 514.151C372.356 515.49 370.442 516.434 368.829 516.98ZM366.122 506.071L360.011 500.247L366.532 493.439L372.643 499.263C373.6 497.294 374.27 495.572 374.652 494.096C375.254 491.881 375.555 489.297 375.555 486.344C375.555 479.563 374.16 474.328 371.371 470.636C368.61 466.918 364.563 465.059 359.232 465.059C354.228 465.059 350.236 466.836 347.256 470.39C344.276 473.945 342.786 479.263 342.786 486.344C342.786 494.629 344.918 500.562 349.184 504.144C351.945 506.468 355.253 507.63 359.109 507.63C360.558 507.63 361.952 507.452 363.292 507.096C364.03 506.905 364.973 506.563 366.122 506.071ZM423.539 492.947H410.497V516.652H398.152V456.2H427.804C432.042 456.282 435.296 456.802 437.565 457.759C439.862 458.716 441.803 460.124 443.389 461.983C444.701 463.514 445.74 465.209 446.506 467.068C447.272 468.928 447.654 471.047 447.654 473.425C447.654 476.296 446.93 479.126 445.481 481.915C444.032 484.676 441.639 486.631 438.304 487.78C441.092 488.901 443.061 490.5 444.209 492.578C445.385 494.629 445.973 497.773 445.973 502.011V506.071C445.973 508.833 446.082 510.706 446.301 511.69C446.629 513.248 447.395 514.397 448.598 515.135V516.652H434.694C434.312 515.313 434.038 514.233 433.874 513.412C433.546 511.717 433.368 509.981 433.341 508.204L433.259 502.585C433.204 498.73 432.493 496.16 431.126 494.875C429.787 493.59 427.258 492.947 423.539 492.947ZM431.208 481.956C433.724 480.808 434.982 478.538 434.982 475.148C434.982 471.484 433.765 469.023 431.331 467.766C429.964 467.055 427.914 466.699 425.18 466.699H410.497V482.94H424.81C427.654 482.94 429.787 482.612 431.208 481.956ZM519.672 487.985H507.697C507.478 486.317 506.917 484.813 506.015 483.473C504.703 481.669 502.666 480.766 499.904 480.766C495.967 480.766 493.274 482.721 491.825 486.631C491.059 488.709 490.676 491.471 490.676 494.916C490.676 498.197 491.059 500.835 491.825 502.831C493.219 506.55 495.844 508.409 499.699 508.409C502.433 508.409 504.374 507.671 505.523 506.194C506.671 504.718 507.368 502.804 507.614 500.452H519.549C519.276 504.007 517.991 507.37 515.694 510.541C512.03 515.654 506.603 518.211 499.412 518.211C492.221 518.211 486.931 516.078 483.54 511.813C480.15 507.548 478.455 502.011 478.455 495.203C478.455 487.52 480.328 481.546 484.073 477.28C487.819 473.015 492.987 470.883 499.576 470.883C505.181 470.883 509.761 472.14 513.315 474.656C516.897 477.171 519.016 481.614 519.672 487.985ZM565.032 477.609C568.805 482.339 570.692 487.93 570.692 494.383C570.692 500.945 568.805 506.563 565.032 511.239C561.259 515.887 555.531 518.211 547.848 518.211C540.165 518.211 534.437 515.887 530.663 511.239C526.89 506.563 525.004 500.945 525.004 494.383C525.004 487.93 526.89 482.339 530.663 477.609C534.437 472.878 540.165 470.513 547.848 470.513C555.531 470.513 561.259 472.878 565.032 477.609ZM547.807 480.397C544.389 480.397 541.75 481.614 539.891 484.047C538.059 486.454 537.143 489.899 537.143 494.383C537.143 498.867 538.059 502.325 539.891 504.759C541.75 507.192 544.389 508.409 547.807 508.409C551.224 508.409 553.849 507.192 555.681 504.759C557.513 502.325 558.429 498.867 558.429 494.383C558.429 489.899 557.513 486.454 555.681 484.047C553.849 481.614 551.224 480.397 547.807 480.397ZM619.783 456.282V516.652H608.423V510.459C606.755 513.112 604.855 515.039 602.722 516.242C600.59 517.445 597.937 518.047 594.766 518.047C589.544 518.047 585.142 515.941 581.56 511.731C578.005 507.493 576.228 502.066 576.228 495.449C576.228 487.821 577.978 481.819 581.478 477.444C585.005 473.07 589.708 470.883 595.586 470.883C598.293 470.883 600.699 471.484 602.804 472.687C604.91 473.863 606.618 475.503 607.931 477.609V456.282H619.783ZM588.286 494.588C588.286 498.716 589.106 502.011 590.747 504.472C592.36 506.96 594.82 508.204 598.129 508.204C601.437 508.204 603.953 506.973 605.675 504.513C607.398 502.052 608.259 498.867 608.259 494.957C608.259 489.488 606.878 485.579 604.117 483.227C602.421 481.805 600.453 481.095 598.211 481.095C594.793 481.095 592.278 482.393 590.665 484.991C589.079 487.561 588.286 490.76 588.286 494.588ZM668.711 503.528C668.41 506.181 667.03 508.874 664.569 511.608C660.741 515.955 655.382 518.129 648.492 518.129C642.805 518.129 637.788 516.297 633.44 512.633C629.093 508.969 626.92 503.009 626.92 494.752C626.92 487.014 628.874 481.081 632.784 476.952C636.721 472.824 641.821 470.759 648.082 470.759C651.8 470.759 655.15 471.457 658.13 472.851C661.11 474.246 663.571 476.447 665.512 479.454C667.262 482.106 668.397 485.182 668.916 488.682C669.217 490.733 669.34 493.685 669.285 497.541H638.69C638.854 502.025 640.262 505.169 642.914 506.973C644.528 508.094 646.469 508.655 648.738 508.655C651.144 508.655 653.099 507.971 654.603 506.604C655.423 505.866 656.148 504.841 656.777 503.528H668.711ZM657.146 489.83C656.954 486.741 656.011 484.403 654.316 482.817C652.648 481.204 650.57 480.397 648.082 480.397C645.375 480.397 643.27 481.245 641.766 482.94C640.29 484.635 639.36 486.932 638.977 489.83H657.146Z" fill="#C2C2C2"/>
<path d="M180.039 835.436C180.039 833.72 179.434 832.408 178.223 831.5C177.012 830.572 174.832 829.603 171.684 828.594C168.535 827.564 166.043 826.555 164.206 825.566C159.201 822.862 156.698 819.219 156.698 814.638C156.698 812.256 157.364 810.137 158.696 808.28C160.049 806.403 161.976 804.94 164.479 803.891C167.001 802.841 169.827 802.316 172.955 802.316C176.104 802.316 178.909 802.892 181.371 804.042C183.833 805.172 185.741 806.777 187.093 808.855C188.465 810.934 189.151 813.296 189.151 815.939H180.069C180.069 813.921 179.434 812.357 178.162 811.247C176.891 810.117 175.104 809.552 172.804 809.552C170.584 809.552 168.858 810.026 167.627 810.975C166.396 811.903 165.78 813.134 165.78 814.668C165.78 816.101 166.497 817.302 167.93 818.271C169.383 819.239 171.512 820.147 174.317 820.995C179.484 822.549 183.248 824.477 185.609 826.777C187.971 829.078 189.151 831.944 189.151 835.375C189.151 839.189 187.708 842.187 184.822 844.366C181.936 846.526 178.051 847.605 173.167 847.605C169.776 847.605 166.688 846.99 163.903 845.759C161.118 844.507 158.989 842.802 157.516 840.643C156.062 838.483 155.336 835.98 155.336 833.135H164.448C164.448 837.999 167.354 840.431 173.167 840.431C175.326 840.431 177.012 839.997 178.223 839.129C179.434 838.241 180.039 837.01 180.039 835.436ZM229.93 832.317C229.587 837.06 227.831 840.794 224.662 843.519C221.514 846.243 217.356 847.605 212.189 847.605C206.538 847.605 202.088 845.708 198.839 841.914C195.61 838.1 193.995 832.872 193.995 826.232V823.538C193.995 819.3 194.742 815.566 196.235 812.337C197.729 809.108 199.858 806.635 202.623 804.92C205.408 803.184 208.637 802.316 212.311 802.316C217.396 802.316 221.493 803.679 224.602 806.403C227.71 809.128 229.506 812.952 229.99 817.877H220.908C220.686 815.031 219.889 812.973 218.517 811.701C217.164 810.41 215.096 809.764 212.311 809.764C209.283 809.764 207.013 810.854 205.499 813.033C204.006 815.193 203.239 818.553 203.198 823.114V826.444C203.198 831.207 203.915 834.689 205.348 836.889C206.801 839.089 209.081 840.188 212.189 840.188C214.995 840.188 217.084 839.553 218.456 838.281C219.849 836.99 220.646 835.002 220.848 832.317H229.93ZM260.778 837.918H244.854L241.827 847H232.17L248.578 802.922H256.994L273.493 847H263.836L260.778 837.918ZM247.307 830.562H258.326L252.786 814.062L247.307 830.562ZM313.454 847H304.372L286.692 817.998V847H277.61V802.922H286.692L304.402 831.984V802.922H313.454V847ZM368.188 810.278H354.687V847H345.604V810.278H332.284V802.922H368.188V810.278ZM408.755 825.96C408.755 830.299 407.988 834.104 406.454 837.373C404.92 840.643 402.72 843.165 399.854 844.941C397.009 846.717 393.739 847.605 390.046 847.605C386.393 847.605 383.133 846.728 380.268 844.972C377.402 843.216 375.182 840.713 373.607 837.464C372.033 834.194 371.236 830.44 371.216 826.202V824.022C371.216 819.683 371.993 815.869 373.547 812.579C375.121 809.269 377.331 806.736 380.177 804.98C383.043 803.204 386.312 802.316 389.985 802.316C393.659 802.316 396.918 803.204 399.764 804.98C402.63 806.736 404.84 809.269 406.394 812.579C407.968 815.869 408.755 819.673 408.755 823.992V825.96ZM399.552 823.962C399.552 819.34 398.724 815.828 397.069 813.427C395.414 811.025 393.053 809.824 389.985 809.824C386.938 809.824 384.587 811.015 382.932 813.396C381.277 815.758 380.439 819.229 380.419 823.811V825.96C380.419 830.461 381.246 833.952 382.901 836.435C384.556 838.917 386.938 840.158 390.046 840.158C393.093 840.158 395.435 838.967 397.069 836.586C398.704 834.184 399.532 830.693 399.552 826.111V823.962ZM455.679 837.918H439.755L436.728 847H427.07L443.479 802.922H451.895L468.394 847H458.736L455.679 837.918ZM442.207 830.562H453.227L447.687 814.062L442.207 830.562ZM472.511 847V802.922H486.073C489.948 802.922 493.41 803.8 496.457 805.556C499.525 807.291 501.916 809.774 503.632 813.003C505.347 816.212 506.205 819.865 506.205 823.962V825.99C506.205 830.087 505.357 833.73 503.662 836.919C501.987 840.108 499.616 842.58 496.548 844.336C493.48 846.092 490.019 846.98 486.164 847H472.511ZM481.593 810.278V839.704H485.982C489.535 839.704 492.249 838.544 494.126 836.223C496.003 833.902 496.962 830.582 497.002 826.263V823.932C497.002 819.451 496.074 816.061 494.217 813.76C492.36 811.439 489.646 810.278 486.073 810.278H481.593ZM512.835 847V802.922H526.397C530.272 802.922 533.734 803.8 536.781 805.556C539.849 807.291 542.241 809.774 543.956 813.003C545.672 816.212 546.529 819.865 546.529 823.962V825.99C546.529 830.087 545.682 833.73 543.986 836.919C542.311 840.108 539.94 842.58 536.872 844.336C533.804 846.092 530.343 846.98 526.488 847H512.835ZM521.917 810.278V839.704H526.307C529.859 839.704 532.573 838.544 534.45 836.223C536.327 833.902 537.286 830.582 537.326 826.263V823.932C537.326 819.451 536.398 816.061 534.541 813.76C532.684 811.439 529.97 810.278 526.397 810.278H521.917ZM603.201 832.317C602.858 837.06 601.102 840.794 597.934 843.519C594.785 846.243 590.628 847.605 585.461 847.605C579.81 847.605 575.36 845.708 572.11 841.914C568.881 838.1 567.267 832.872 567.267 826.232V823.538C567.267 819.3 568.013 815.566 569.507 812.337C571 809.108 573.13 806.635 575.895 804.92C578.68 803.184 581.909 802.316 585.582 802.316C590.668 802.316 594.765 803.679 597.873 806.403C600.981 809.128 602.777 812.952 603.262 817.877H594.18C593.958 815.031 593.16 812.973 591.788 811.701C590.436 810.41 588.367 809.764 585.582 809.764C582.555 809.764 580.284 810.854 578.771 813.033C577.277 815.193 576.51 818.553 576.47 823.114V826.444C576.47 831.207 577.186 834.689 578.619 836.889C580.072 839.089 582.353 840.188 585.461 840.188C588.266 840.188 590.355 839.553 591.728 838.281C593.12 836.99 593.917 835.002 594.119 832.317H603.201ZM645.372 825.96C645.372 830.299 644.605 834.104 643.071 837.373C641.537 840.643 639.338 843.165 636.472 844.941C633.626 846.717 630.356 847.605 626.663 847.605C623.01 847.605 619.751 846.728 616.885 844.972C614.019 843.216 611.799 840.713 610.225 837.464C608.65 834.194 607.853 830.44 607.833 826.202V824.022C607.833 819.683 608.61 815.869 610.164 812.579C611.738 809.269 613.948 806.736 616.794 804.98C619.66 803.204 622.929 802.316 626.603 802.316C630.276 802.316 633.535 803.204 636.381 804.98C639.247 806.736 641.457 809.269 643.011 812.579C644.585 815.869 645.372 819.673 645.372 823.992V825.96ZM636.169 823.962C636.169 819.34 635.341 815.828 633.687 813.427C632.032 811.025 629.67 809.824 626.603 809.824C623.555 809.824 621.204 811.015 619.549 813.396C617.894 815.758 617.056 819.229 617.036 823.811V825.96C617.036 830.461 617.864 833.952 619.519 836.435C621.174 838.917 623.555 840.158 626.663 840.158C629.711 840.158 632.052 838.967 633.687 836.586C635.321 834.184 636.149 830.693 636.169 826.111V823.962ZM687.815 847H678.733L661.054 817.998V847H651.972V802.922H661.054L678.764 831.984V802.922H687.815V847ZM728.019 810.278H714.517V847H705.435V810.278H692.114V802.922H728.019V810.278ZM754.478 837.918H738.554L735.526 847H725.869L742.277 802.922H750.693L767.192 847H757.535L754.478 837.918ZM741.006 830.562H752.025L746.485 814.062L741.006 830.562ZM805.246 832.317C804.903 837.06 803.147 840.794 799.979 843.519C796.83 846.243 792.673 847.605 787.506 847.605C781.855 847.605 777.405 845.708 774.155 841.914C770.926 838.1 769.312 832.872 769.312 826.232V823.538C769.312 819.3 770.058 815.566 771.552 812.337C773.045 809.108 775.174 806.635 777.939 804.92C780.725 803.184 783.954 802.316 787.627 802.316C792.713 802.316 796.81 803.679 799.918 806.403C803.026 809.128 804.822 812.952 805.307 817.877H796.225C796.003 815.031 795.205 812.973 793.833 811.701C792.481 810.41 790.412 809.764 787.627 809.764C784.6 809.764 782.329 810.854 780.815 813.033C779.322 815.193 778.555 818.553 778.515 823.114V826.444C778.515 831.207 779.231 834.689 780.664 836.889C782.117 839.089 784.398 840.188 787.506 840.188C790.311 840.188 792.4 839.553 793.772 838.281C795.165 836.99 795.962 835.002 796.164 832.317H805.246ZM843.481 810.278H829.979V847H820.897V810.278H807.577V802.922H843.481V810.278Z" fill="white"/>
</svg>
