<svg width="1000" height="1000" viewBox="0 0 1000 1000" fill="none" xmlns="http://www.w3.org/2000/svg">
<g clip-path="url(#clip0_288_1550)">
<rect x="7.5" y="583.5" width="455" height="711" rx="40.7409" transform="rotate(-90 7.5 583.5)" fill="white" stroke="#333333" stroke-width="15"/>
<path d="M736.5 9.49999L1060.5 7.84375C1045.67 26.2665 1012.23 76.2586 998.808 93.7118C985.384 111.165 965.492 125.71 957.223 130.8C852.41 181.221 639.082 282.892 624.545 287.153C599.739 294.423 574.667 278.333 574.667 278.333C574.667 278.333 559.064 269.861 548.134 249.992C535.732 227.448 545.023 202.794 552.319 188.978C567.639 166.433 601.929 149.127 657.375 120.62C712.821 92.1125 733.825 32.2862 736.5 9.49999C728.325 8.61025 719.367 7.64681 709.829 6.67046C659.149 7.21123 582.922 36.2774 555.973 125.169L444.999 125.5C443.001 95.5 444.5 25.5 473.963 11.8029C520.344 -9.7591 633.607 -1.13187 709.829 6.67046C719.932 6.56264 729.02 7.58849 736.5 9.49999Z" fill="white"/>
<path d="M736.5 9.49999L1060.5 7.84375C1045.67 26.2665 1012.23 76.2586 998.808 93.7118C985.384 111.165 965.492 125.71 957.223 130.8C852.41 181.221 639.082 282.892 624.545 287.153C599.739 294.423 574.667 278.333 574.667 278.333C574.667 278.333 559.064 269.861 548.134 249.992C535.732 227.448 545.023 202.794 552.319 188.978C567.639 166.433 601.929 149.127 657.375 120.62C712.821 92.1125 733.825 32.2862 736.5 9.49999ZM736.5 9.49999C691.5 -2 588.294 18.5566 555.973 125.169L444.999 125.5C443.001 95.5 444.5 25.5 473.963 11.8029C526.148 -12.4572 663 1.5 736.5 9.49999Z" stroke="#333333" stroke-width="20.5024"/>
<rect x="199" y="192" width="328" height="328" fill="white"/>
<path d="M434.574 224.197H496.817V286.44" stroke="#C2C2C2" stroke-width="11.827"/>
<path d="M291.414 224.197H229.172V286.44" stroke="#C2C2C2" stroke-width="11.827"/>
<path d="M434.574 491.84H496.817V429.597" stroke="#C2C2C2" stroke-width="11.827"/>
<path d="M291.414 491.84H229.172V429.597" stroke="#C2C2C2" stroke-width="11.827"/>
<path d="M292.687 331.272L287.794 317.03L282.593 331.272H292.687ZM285.511 312.246H290.449L302.145 344.482H297.362L294.092 334.827H281.342L277.853 344.482H273.376L285.511 312.246ZM308.092 333.005C308.092 335.522 308.626 337.628 309.694 339.325C310.762 341.022 312.474 341.871 314.829 341.871C316.658 341.871 318.158 341.088 319.328 339.523C320.513 337.943 321.106 335.683 321.106 332.742C321.106 329.772 320.499 327.578 319.284 326.159C318.07 324.725 316.57 324.008 314.786 324.008C312.796 324.008 311.179 324.769 309.936 326.29C308.707 327.812 308.092 330.05 308.092 333.005ZM314.039 320.563C315.839 320.563 317.346 320.943 318.56 321.704C319.262 322.143 320.06 322.911 320.952 324.008V312.136H324.748V344.482H321.193V341.213C320.272 342.661 319.182 343.707 317.924 344.351C316.666 344.994 315.224 345.316 313.601 345.316C310.982 345.316 308.714 344.219 306.798 342.025C304.881 339.816 303.923 336.882 303.923 333.225C303.923 329.801 304.793 326.839 306.534 324.337C308.29 321.821 310.792 320.563 314.039 320.563ZM333.109 333.005C333.109 335.522 333.643 337.628 334.711 339.325C335.779 341.022 337.491 341.871 339.846 341.871C341.675 341.871 343.175 341.088 344.345 339.523C345.53 337.943 346.123 335.683 346.123 332.742C346.123 329.772 345.515 327.578 344.301 326.159C343.087 324.725 341.587 324.008 339.802 324.008C337.813 324.008 336.196 324.769 334.953 326.29C333.724 327.812 333.109 330.05 333.109 333.005ZM339.056 320.563C340.856 320.563 342.363 320.943 343.577 321.704C344.279 322.143 345.077 322.911 345.969 324.008V312.136H349.765V344.482H346.21V341.213C345.289 342.661 344.199 343.707 342.941 344.351C341.682 344.994 340.241 345.316 338.617 345.316C335.999 345.316 333.731 344.219 331.815 342.025C329.898 339.816 328.94 336.882 328.94 333.225C328.94 329.801 329.81 326.839 331.551 324.337C333.307 321.821 335.809 320.563 339.056 320.563ZM382.814 320.98H387.181C386.625 322.487 385.389 325.925 383.472 331.294C382.039 335.332 380.839 338.623 379.873 341.169C377.591 347.167 375.982 350.824 375.046 352.141C374.109 353.458 372.5 354.116 370.218 354.116C369.662 354.116 369.23 354.094 368.923 354.05C368.63 354.006 368.265 353.926 367.826 353.809V350.21C368.513 350.4 369.011 350.517 369.318 350.561C369.625 350.605 369.896 350.627 370.13 350.627C370.861 350.627 371.395 350.503 371.732 350.254C372.083 350.02 372.376 349.727 372.61 349.376C372.683 349.259 372.946 348.659 373.4 347.577C373.853 346.494 374.182 345.689 374.387 345.163L365.697 320.98H370.174L376.472 340.115L382.814 320.98ZM399.931 341.937C402.55 341.937 404.342 340.949 405.307 338.974C406.287 336.985 406.778 334.776 406.778 332.347C406.778 330.153 406.426 328.368 405.724 326.993C404.612 324.827 402.696 323.745 399.975 323.745C397.561 323.745 395.805 324.666 394.708 326.51C393.611 328.353 393.062 330.577 393.062 333.181C393.062 335.683 393.611 337.767 394.708 339.435C395.805 341.103 397.546 341.937 399.931 341.937ZM400.084 320.299C403.113 320.299 405.673 321.309 407.765 323.328C409.857 325.347 410.903 328.317 410.903 332.237C410.903 336.026 409.981 339.157 408.138 341.63C406.295 344.102 403.435 345.338 399.558 345.338C396.325 345.338 393.757 344.248 391.855 342.069C389.953 339.874 389.002 336.933 389.002 333.247C389.002 329.297 390.005 326.151 392.009 323.811C394.013 321.47 396.705 320.299 400.084 320.299ZM419.571 320.98V336.582C419.571 337.782 419.761 338.762 420.142 339.523C420.844 340.927 422.153 341.63 424.07 341.63C426.82 341.63 428.693 340.401 429.688 337.943C430.229 336.626 430.5 334.819 430.5 332.523V320.98H434.45V344.482H430.719L430.763 341.015C430.251 341.908 429.615 342.661 428.854 343.275C427.347 344.504 425.518 345.119 423.368 345.119C420.017 345.119 417.735 344 416.521 341.761C415.863 340.562 415.533 338.96 415.533 336.955V320.98H419.571ZM440.748 320.98H444.5V325.039C444.808 324.249 445.561 323.291 446.761 322.165C447.96 321.024 449.343 320.453 450.908 320.453C450.981 320.453 451.106 320.46 451.281 320.475C451.457 320.49 451.757 320.519 452.181 320.563V324.732C451.947 324.688 451.727 324.659 451.523 324.644C451.332 324.63 451.12 324.623 450.886 324.623C448.897 324.623 447.368 325.266 446.3 326.554C445.232 327.826 444.698 329.297 444.698 330.965V344.482H440.748V320.98Z" fill="#C2C2C2"/>
<path d="M293.082 400.537C291.634 401.02 289.9 401.261 287.881 401.261C283.668 401.261 280.186 400.003 277.436 397.487C274.1 394.458 272.432 390.011 272.432 384.144C272.432 378.234 274.144 373.764 277.567 370.736C280.362 368.264 283.836 367.027 287.991 367.027C292.175 367.027 295.686 368.337 298.525 370.956C301.802 373.984 303.44 378.219 303.44 383.661C303.44 386.544 303.089 388.957 302.387 390.903C301.816 392.761 300.975 394.305 299.863 395.534L303.594 399.023L300.061 402.709L296.155 399.023C294.97 399.74 293.945 400.244 293.082 400.537ZM291.634 394.7L288.364 391.583L291.853 387.941L295.123 391.057C295.635 390.003 295.994 389.082 296.198 388.292C296.52 387.107 296.681 385.724 296.681 384.144C296.681 380.516 295.935 377.714 294.443 375.739C292.965 373.75 290.8 372.755 287.947 372.755C285.27 372.755 283.134 373.706 281.539 375.608C279.945 377.51 279.147 380.355 279.147 384.144C279.147 388.577 280.289 391.752 282.571 393.668C284.048 394.912 285.819 395.534 287.881 395.534C288.657 395.534 289.403 395.438 290.12 395.248C290.515 395.146 291.02 394.963 291.634 394.7ZM322.356 387.677H315.378V400.361H308.773V368.015H324.639C326.906 368.059 328.647 368.337 329.862 368.849C331.09 369.361 332.129 370.114 332.978 371.109C333.68 371.928 334.236 372.835 334.645 373.83C335.055 374.825 335.26 375.959 335.26 377.232C335.26 378.768 334.872 380.282 334.097 381.774C333.321 383.252 332.041 384.298 330.257 384.912C331.749 385.512 332.802 386.368 333.417 387.48C334.046 388.577 334.36 390.259 334.36 392.527V394.7C334.36 396.177 334.419 397.179 334.536 397.706C334.711 398.54 335.121 399.154 335.765 399.549V400.361H328.325C328.121 399.644 327.974 399.067 327.886 398.628C327.711 397.721 327.616 396.792 327.601 395.841L327.557 392.834C327.528 390.772 327.148 389.396 326.416 388.709C325.699 388.021 324.346 387.677 322.356 387.677ZM326.46 381.796C327.806 381.182 328.479 379.967 328.479 378.153C328.479 376.193 327.828 374.876 326.526 374.203C325.794 373.823 324.697 373.633 323.234 373.633H315.378V382.323H323.037C324.558 382.323 325.699 382.147 326.46 381.796ZM373.795 385.022H367.387C367.27 384.13 366.97 383.325 366.487 382.608C365.785 381.643 364.695 381.16 363.217 381.16C361.111 381.16 359.67 382.206 358.894 384.298C358.485 385.41 358.28 386.887 358.28 388.731C358.28 390.486 358.485 391.898 358.894 392.966C359.64 394.956 361.045 395.95 363.108 395.95C364.571 395.95 365.609 395.555 366.224 394.765C366.838 393.975 367.211 392.951 367.343 391.693H373.729C373.583 393.595 372.895 395.395 371.666 397.092C369.706 399.827 366.802 401.195 362.954 401.195C359.106 401.195 356.276 400.054 354.461 397.772C352.647 395.49 351.74 392.527 351.74 388.884C351.74 384.773 352.742 381.577 354.747 379.294C356.751 377.012 359.516 375.871 363.042 375.871C366.041 375.871 368.491 376.544 370.393 377.89C372.31 379.236 373.444 381.613 373.795 385.022ZM398.065 379.47C400.084 382.001 401.094 384.993 401.094 388.445C401.094 391.957 400.084 394.963 398.065 397.465C396.047 399.952 392.982 401.195 388.871 401.195C384.76 401.195 381.695 399.952 379.676 397.465C377.657 394.963 376.647 391.957 376.647 388.445C376.647 384.993 377.657 382.001 379.676 379.47C381.695 376.939 384.76 375.674 388.871 375.674C392.982 375.674 396.047 376.939 398.065 379.47ZM388.849 380.962C387.02 380.962 385.608 381.613 384.613 382.915C383.633 384.203 383.143 386.046 383.143 388.445C383.143 390.845 383.633 392.695 384.613 393.997C385.608 395.299 387.02 395.95 388.849 395.95C390.677 395.95 392.082 395.299 393.062 393.997C394.042 392.695 394.532 390.845 394.532 388.445C394.532 386.046 394.042 384.203 393.062 382.915C392.082 381.613 390.677 380.962 388.849 380.962ZM427.362 368.059V400.361H421.283V397.048C420.39 398.467 419.374 399.498 418.233 400.142C417.091 400.786 415.672 401.107 413.975 401.107C411.181 401.107 408.826 399.981 406.909 397.728C405.007 395.46 404.056 392.556 404.056 389.016C404.056 384.934 404.993 381.723 406.865 379.382C408.752 377.041 411.269 375.871 414.414 375.871C415.863 375.871 417.15 376.193 418.276 376.837C419.403 377.466 420.317 378.344 421.02 379.47V368.059H427.362ZM410.508 388.555C410.508 390.764 410.947 392.527 411.825 393.844C412.688 395.175 414.005 395.841 415.775 395.841C417.545 395.841 418.891 395.182 419.813 393.866C420.734 392.549 421.195 390.845 421.195 388.753C421.195 385.827 420.456 383.735 418.979 382.476C418.072 381.716 417.018 381.335 415.819 381.335C413.99 381.335 412.644 382.03 411.781 383.42C410.932 384.795 410.508 386.507 410.508 388.555ZM453.542 393.339C453.381 394.758 452.642 396.199 451.325 397.662C449.277 399.988 446.41 401.151 442.723 401.151C439.68 401.151 436.995 400.171 434.669 398.211C432.343 396.25 431.18 393.061 431.18 388.643C431.18 384.503 432.226 381.328 434.318 379.119C436.425 376.91 439.153 375.805 442.503 375.805C444.493 375.805 446.285 376.178 447.88 376.924C449.474 377.671 450.791 378.848 451.83 380.458C452.766 381.877 453.373 383.522 453.651 385.395C453.812 386.492 453.878 388.072 453.849 390.135H437.478C437.566 392.534 438.319 394.217 439.738 395.182C440.601 395.782 441.64 396.082 442.854 396.082C444.142 396.082 445.188 395.716 445.993 394.985C446.431 394.59 446.819 394.041 447.156 393.339H453.542ZM447.353 386.01C447.251 384.356 446.746 383.106 445.839 382.257C444.947 381.394 443.835 380.962 442.503 380.962C441.055 380.962 439.929 381.416 439.124 382.323C438.334 383.23 437.836 384.459 437.632 386.01H447.353Z" fill="#C2C2C2"/>
<path d="M133.059 643.676C133.059 642.426 132.616 641.462 131.73 640.785C130.858 640.108 129.276 639.424 126.984 638.734C124.693 638.044 122.87 637.276 121.516 636.43C118.924 634.802 117.629 632.68 117.629 630.062C117.629 627.771 118.56 625.883 120.422 624.398C122.297 622.914 124.725 622.172 127.707 622.172C129.686 622.172 131.451 622.536 133 623.266C134.549 623.995 135.767 625.036 136.652 626.391C137.538 627.732 137.98 629.223 137.98 630.863H133.059C133.059 629.379 132.59 628.22 131.652 627.387C130.728 626.54 129.4 626.117 127.668 626.117C126.053 626.117 124.797 626.462 123.898 627.152C123.013 627.842 122.57 628.806 122.57 630.043C122.57 631.085 123.052 631.957 124.016 632.66C124.979 633.35 126.568 634.027 128.781 634.691C130.995 635.342 132.772 636.091 134.113 636.938C135.454 637.771 136.438 638.734 137.062 639.828C137.688 640.909 138 642.178 138 643.637C138 646.007 137.089 647.895 135.266 649.301C133.456 650.694 130.995 651.391 127.883 651.391C125.826 651.391 123.931 651.013 122.199 650.258C120.48 649.49 119.139 648.435 118.176 647.094C117.225 645.753 116.75 644.19 116.75 642.406H121.691C121.691 644.021 122.225 645.271 123.293 646.156C124.361 647.042 125.891 647.484 127.883 647.484C129.602 647.484 130.891 647.139 131.75 646.449C132.622 645.746 133.059 644.822 133.059 643.676ZM150.559 647.602C151.743 647.602 152.727 647.257 153.508 646.566C154.289 645.876 154.706 645.023 154.758 644.008H159.23C159.178 645.323 158.768 646.553 158 647.699C157.232 648.832 156.19 649.73 154.875 650.395C153.56 651.059 152.141 651.391 150.617 651.391C147.661 651.391 145.318 650.434 143.586 648.52C141.854 646.605 140.988 643.962 140.988 640.59V640.102C140.988 636.885 141.848 634.314 143.566 632.387C145.285 630.447 147.629 629.477 150.598 629.477C153.111 629.477 155.155 630.212 156.73 631.684C158.319 633.142 159.152 635.062 159.23 637.445H154.758C154.706 636.234 154.289 635.238 153.508 634.457C152.74 633.676 151.757 633.285 150.559 633.285C149.022 633.285 147.837 633.845 147.004 634.965C146.171 636.072 145.747 637.758 145.734 640.023V640.785C145.734 643.077 146.145 644.789 146.965 645.922C147.798 647.042 148.996 647.602 150.559 647.602ZM175.441 651C175.233 650.596 175.051 649.939 174.895 649.027C173.384 650.603 171.535 651.391 169.348 651.391C167.225 651.391 165.493 650.785 164.152 649.574C162.811 648.363 162.141 646.866 162.141 645.082C162.141 642.829 162.974 641.104 164.641 639.906C166.32 638.695 168.716 638.09 171.828 638.09H174.738V636.703C174.738 635.609 174.432 634.737 173.82 634.086C173.208 633.422 172.277 633.09 171.027 633.09C169.947 633.09 169.061 633.363 168.371 633.91C167.681 634.444 167.336 635.128 167.336 635.961H162.59C162.59 634.802 162.974 633.721 163.742 632.719C164.51 631.703 165.552 630.909 166.867 630.336C168.195 629.763 169.673 629.477 171.301 629.477C173.775 629.477 175.747 630.102 177.219 631.352C178.69 632.589 179.445 634.333 179.484 636.586V646.117C179.484 648.018 179.751 649.535 180.285 650.668V651H175.441ZM170.227 647.582C171.164 647.582 172.043 647.354 172.863 646.898C173.697 646.443 174.322 645.831 174.738 645.062V641.078H172.18C170.422 641.078 169.1 641.384 168.215 641.996C167.329 642.608 166.887 643.474 166.887 644.594C166.887 645.505 167.186 646.234 167.785 646.781C168.397 647.315 169.211 647.582 170.227 647.582ZM188.859 629.867L188.996 632.309C190.559 630.421 192.609 629.477 195.148 629.477C199.549 629.477 201.789 631.996 201.867 637.035V651H197.121V637.309C197.121 635.967 196.828 634.978 196.242 634.34C195.669 633.689 194.725 633.363 193.41 633.363C191.496 633.363 190.07 634.229 189.133 635.961V651H184.387V629.867H188.859ZM222.629 624.73V629.867H226.359V633.383H222.629V645.18C222.629 645.987 222.785 646.573 223.098 646.938C223.423 647.289 223.996 647.465 224.816 647.465C225.363 647.465 225.917 647.4 226.477 647.27V650.941C225.396 651.241 224.354 651.391 223.352 651.391C219.706 651.391 217.883 649.379 217.883 645.355V633.383H214.406V629.867H217.883V624.73H222.629ZM228.527 640.238C228.527 638.168 228.938 636.306 229.758 634.652C230.578 632.986 231.73 631.71 233.215 630.824C234.699 629.926 236.405 629.477 238.332 629.477C241.184 629.477 243.495 630.395 245.266 632.23C247.049 634.066 248.013 636.501 248.156 639.535L248.176 640.648C248.176 642.732 247.772 644.594 246.965 646.234C246.171 647.875 245.025 649.145 243.527 650.043C242.043 650.941 240.324 651.391 238.371 651.391C235.389 651.391 233 650.401 231.203 648.422C229.419 646.43 228.527 643.78 228.527 640.473V640.238ZM233.273 640.648C233.273 642.823 233.723 644.529 234.621 645.766C235.52 646.99 236.77 647.602 238.371 647.602C239.973 647.602 241.216 646.977 242.102 645.727C243 644.477 243.449 642.647 243.449 640.238C243.449 638.103 242.987 636.41 242.062 635.16C241.151 633.91 239.908 633.285 238.332 633.285C236.783 633.285 235.552 633.904 234.641 635.141C233.729 636.365 233.273 638.201 233.273 640.648ZM273.215 634.203C272.59 634.099 271.945 634.047 271.281 634.047C269.107 634.047 267.642 634.88 266.887 636.547V651H262.141V629.867H266.672L266.789 632.23C267.935 630.395 269.523 629.477 271.555 629.477C272.232 629.477 272.792 629.568 273.234 629.75L273.215 634.203ZM285.129 651.391C282.121 651.391 279.68 650.447 277.805 648.559C275.943 646.658 275.012 644.132 275.012 640.98V640.395C275.012 638.285 275.415 636.404 276.223 634.75C277.043 633.083 278.189 631.788 279.66 630.863C281.132 629.939 282.772 629.477 284.582 629.477C287.46 629.477 289.68 630.395 291.242 632.23C292.818 634.066 293.605 636.664 293.605 640.023V641.938H279.797C279.94 643.682 280.52 645.062 281.535 646.078C282.564 647.094 283.853 647.602 285.402 647.602C287.577 647.602 289.348 646.723 290.715 644.965L293.273 647.406C292.427 648.669 291.294 649.652 289.875 650.355C288.469 651.046 286.887 651.391 285.129 651.391ZM284.562 633.285C283.26 633.285 282.206 633.741 281.398 634.652C280.604 635.564 280.096 636.833 279.875 638.461H288.918V638.109C288.814 636.521 288.391 635.323 287.648 634.516C286.906 633.695 285.878 633.285 284.562 633.285ZM304.484 644.984L308.957 629.867H313.859L306.535 651H302.414L295.031 629.867H299.953L304.484 644.984ZM321.887 651H317.141V629.867H321.887V651ZM316.848 624.379C316.848 623.65 317.076 623.044 317.531 622.562C318 622.081 318.664 621.84 319.523 621.84C320.383 621.84 321.047 622.081 321.516 622.562C321.984 623.044 322.219 623.65 322.219 624.379C322.219 625.095 321.984 625.694 321.516 626.176C321.047 626.645 320.383 626.879 319.523 626.879C318.664 626.879 318 626.645 317.531 626.176C317.076 625.694 316.848 625.095 316.848 624.379ZM336.379 651.391C333.371 651.391 330.93 650.447 329.055 648.559C327.193 646.658 326.262 644.132 326.262 640.98V640.395C326.262 638.285 326.665 636.404 327.473 634.75C328.293 633.083 329.439 631.788 330.91 630.863C332.382 629.939 334.022 629.477 335.832 629.477C338.71 629.477 340.93 630.395 342.492 632.23C344.068 634.066 344.855 636.664 344.855 640.023V641.938H331.047C331.19 643.682 331.77 645.062 332.785 646.078C333.814 647.094 335.103 647.602 336.652 647.602C338.827 647.602 340.598 646.723 341.965 644.965L344.523 647.406C343.677 648.669 342.544 649.652 341.125 650.355C339.719 651.046 338.137 651.391 336.379 651.391ZM335.812 633.285C334.51 633.285 333.456 633.741 332.648 634.652C331.854 635.564 331.346 636.833 331.125 638.461H340.168V638.109C340.064 636.521 339.641 635.323 338.898 634.516C338.156 633.695 337.128 633.285 335.812 633.285ZM367.121 644.457L370.48 629.867H375.109L369.348 651H365.441L360.91 636.488L356.457 651H352.551L346.77 629.867H351.398L354.816 644.301L359.152 629.867H362.727L367.121 644.457ZM387.355 640.238C387.355 638.168 387.766 636.306 388.586 634.652C389.406 632.986 390.559 631.71 392.043 630.824C393.527 629.926 395.233 629.477 397.16 629.477C400.012 629.477 402.323 630.395 404.094 632.23C405.878 634.066 406.841 636.501 406.984 639.535L407.004 640.648C407.004 642.732 406.6 644.594 405.793 646.234C404.999 647.875 403.853 649.145 402.355 650.043C400.871 650.941 399.152 651.391 397.199 651.391C394.217 651.391 391.828 650.401 390.031 648.422C388.247 646.43 387.355 643.78 387.355 640.473V640.238ZM392.102 640.648C392.102 642.823 392.551 644.529 393.449 645.766C394.348 646.99 395.598 647.602 397.199 647.602C398.801 647.602 400.044 646.977 400.93 645.727C401.828 644.477 402.277 642.647 402.277 640.238C402.277 638.103 401.815 636.41 400.891 635.16C399.979 633.91 398.736 633.285 397.16 633.285C395.611 633.285 394.38 633.904 393.469 635.141C392.557 636.365 392.102 638.201 392.102 640.648ZM423.82 648.93C422.427 650.57 420.448 651.391 417.883 651.391C415.591 651.391 413.853 650.72 412.668 649.379C411.496 648.038 410.91 646.098 410.91 643.559V629.867H415.656V643.5C415.656 646.182 416.77 647.523 418.996 647.523C421.301 647.523 422.857 646.697 423.664 645.043V629.867H428.41V651H423.938L423.82 648.93ZM444.309 634.203C443.684 634.099 443.039 634.047 442.375 634.047C440.201 634.047 438.736 634.88 437.98 636.547V651H433.234V629.867H437.766L437.883 632.23C439.029 630.395 440.617 629.477 442.648 629.477C443.326 629.477 443.885 629.568 444.328 629.75L444.309 634.203ZM465.949 647.602C467.134 647.602 468.117 647.257 468.898 646.566C469.68 645.876 470.096 645.023 470.148 644.008H474.621C474.569 645.323 474.159 646.553 473.391 647.699C472.622 648.832 471.581 649.73 470.266 650.395C468.951 651.059 467.531 651.391 466.008 651.391C463.052 651.391 460.708 650.434 458.977 648.52C457.245 646.605 456.379 643.962 456.379 640.59V640.102C456.379 636.885 457.238 634.314 458.957 632.387C460.676 630.447 463.02 629.477 465.988 629.477C468.501 629.477 470.546 630.212 472.121 631.684C473.71 633.142 474.543 635.062 474.621 637.445H470.148C470.096 636.234 469.68 635.238 468.898 634.457C468.13 633.676 467.147 633.285 465.949 633.285C464.413 633.285 463.228 633.845 462.395 634.965C461.561 636.072 461.138 637.758 461.125 640.023V640.785C461.125 643.077 461.535 644.789 462.355 645.922C463.189 647.042 464.387 647.602 465.949 647.602ZM477.316 640.238C477.316 638.168 477.727 636.306 478.547 634.652C479.367 632.986 480.52 631.71 482.004 630.824C483.488 629.926 485.194 629.477 487.121 629.477C489.973 629.477 492.284 630.395 494.055 632.23C495.839 634.066 496.802 636.501 496.945 639.535L496.965 640.648C496.965 642.732 496.561 644.594 495.754 646.234C494.96 647.875 493.814 649.145 492.316 650.043C490.832 650.941 489.113 651.391 487.16 651.391C484.178 651.391 481.789 650.401 479.992 648.422C478.208 646.43 477.316 643.78 477.316 640.473V640.238ZM482.062 640.648C482.062 642.823 482.512 644.529 483.41 645.766C484.309 646.99 485.559 647.602 487.16 647.602C488.762 647.602 490.005 646.977 490.891 645.727C491.789 644.477 492.238 642.647 492.238 640.238C492.238 638.103 491.776 636.41 490.852 635.16C489.94 633.91 488.697 633.285 487.121 633.285C485.572 633.285 484.341 633.904 483.43 635.141C482.518 636.365 482.062 638.201 482.062 640.648ZM505.383 629.867L505.52 632.309C507.082 630.421 509.133 629.477 511.672 629.477C516.073 629.477 518.312 631.996 518.391 637.035V651H513.645V637.309C513.645 635.967 513.352 634.978 512.766 634.34C512.193 633.689 511.249 633.363 509.934 633.363C508.02 633.363 506.594 634.229 505.656 635.961V651H500.91V629.867H505.383ZM529.191 624.73V629.867H532.922V633.383H529.191V645.18C529.191 645.987 529.348 646.573 529.66 646.938C529.986 647.289 530.559 647.465 531.379 647.465C531.926 647.465 532.479 647.4 533.039 647.27V650.941C531.958 651.241 530.917 651.391 529.914 651.391C526.268 651.391 524.445 649.379 524.445 645.355V633.383H520.969V629.867H524.445V624.73H529.191ZM549.191 651C548.983 650.596 548.801 649.939 548.645 649.027C547.134 650.603 545.285 651.391 543.098 651.391C540.975 651.391 539.243 650.785 537.902 649.574C536.561 648.363 535.891 646.866 535.891 645.082C535.891 642.829 536.724 641.104 538.391 639.906C540.07 638.695 542.466 638.09 545.578 638.09H548.488V636.703C548.488 635.609 548.182 634.737 547.57 634.086C546.958 633.422 546.027 633.09 544.777 633.09C543.697 633.09 542.811 633.363 542.121 633.91C541.431 634.444 541.086 635.128 541.086 635.961H536.34C536.34 634.802 536.724 633.721 537.492 632.719C538.26 631.703 539.302 630.909 540.617 630.336C541.945 629.763 543.423 629.477 545.051 629.477C547.525 629.477 549.497 630.102 550.969 631.352C552.44 632.589 553.195 634.333 553.234 636.586V646.117C553.234 648.018 553.501 649.535 554.035 650.668V651H549.191ZM543.977 647.582C544.914 647.582 545.793 647.354 546.613 646.898C547.447 646.443 548.072 645.831 548.488 645.062V641.078H545.93C544.172 641.078 542.85 641.384 541.965 641.996C541.079 642.608 540.637 643.474 540.637 644.594C540.637 645.505 540.936 646.234 541.535 646.781C542.147 647.315 542.961 647.582 543.977 647.582ZM566.887 647.602C568.072 647.602 569.055 647.257 569.836 646.566C570.617 645.876 571.034 645.023 571.086 644.008H575.559C575.507 645.323 575.096 646.553 574.328 647.699C573.56 648.832 572.518 649.73 571.203 650.395C569.888 651.059 568.469 651.391 566.945 651.391C563.99 651.391 561.646 650.434 559.914 648.52C558.182 646.605 557.316 643.962 557.316 640.59V640.102C557.316 636.885 558.176 634.314 559.895 632.387C561.613 630.447 563.957 629.477 566.926 629.477C569.439 629.477 571.483 630.212 573.059 631.684C574.647 633.142 575.48 635.062 575.559 637.445H571.086C571.034 636.234 570.617 635.238 569.836 634.457C569.068 633.676 568.085 633.285 566.887 633.285C565.35 633.285 564.165 633.845 563.332 634.965C562.499 636.072 562.076 637.758 562.062 640.023V640.785C562.062 643.077 562.473 644.789 563.293 645.922C564.126 647.042 565.324 647.602 566.887 647.602ZM585.09 624.73V629.867H588.82V633.383H585.09V645.18C585.09 645.987 585.246 646.573 585.559 646.938C585.884 647.289 586.457 647.465 587.277 647.465C587.824 647.465 588.378 647.4 588.938 647.27V650.941C587.857 651.241 586.815 651.391 585.812 651.391C582.167 651.391 580.344 649.379 580.344 645.355V633.383H576.867V629.867H580.344V624.73H585.09ZM604.309 645.258C604.309 644.411 603.957 643.767 603.254 643.324C602.564 642.882 601.411 642.491 599.797 642.152C598.182 641.814 596.835 641.384 595.754 640.863C593.384 639.717 592.199 638.057 592.199 635.883C592.199 634.06 592.967 632.536 594.504 631.312C596.04 630.089 597.993 629.477 600.363 629.477C602.889 629.477 604.927 630.102 606.477 631.352C608.039 632.602 608.82 634.223 608.82 636.215H604.074C604.074 635.303 603.736 634.548 603.059 633.949C602.382 633.337 601.483 633.031 600.363 633.031C599.322 633.031 598.469 633.272 597.805 633.754C597.154 634.236 596.828 634.88 596.828 635.688C596.828 636.417 597.134 636.983 597.746 637.387C598.358 637.79 599.595 638.201 601.457 638.617C603.319 639.021 604.777 639.509 605.832 640.082C606.9 640.642 607.688 641.319 608.195 642.113C608.716 642.908 608.977 643.871 608.977 645.004C608.977 646.905 608.189 648.448 606.613 649.633C605.038 650.805 602.974 651.391 600.422 651.391C598.69 651.391 597.147 651.078 595.793 650.453C594.439 649.828 593.384 648.969 592.629 647.875C591.874 646.781 591.496 645.603 591.496 644.34H596.105C596.171 645.46 596.594 646.326 597.375 646.938C598.156 647.536 599.191 647.836 600.48 647.836C601.73 647.836 602.681 647.602 603.332 647.133C603.983 646.651 604.309 646.026 604.309 645.258Z" fill="black"/>
</g>
<defs>
<clipPath id="clip0_288_1550">
<rect width="1000" height="1000" fill="white"/>
</clipPath>
</defs>
</svg>
