<svg width="1000" height="1000" viewBox="0 0 1000 1000" fill="none" xmlns="http://www.w3.org/2000/svg">
<rect x="117" width="765" height="761" rx="40" fill="#333333"/>
<rect x="108" y="803" width="783" height="197" rx="40" fill="#333333"/>
<rect x="169" y="50" width="661" height="661" rx="9.6319" fill="white"/>
<path d="M643.734 114.879H769.168V240.313" stroke="#C2C2C2" stroke-width="23.8343"/>
<path d="M355.238 114.879H229.805V240.313" stroke="#C2C2C2" stroke-width="23.8343"/>
<path d="M643.734 654.24H769.168V528.806" stroke="#C2C2C2" stroke-width="23.8343"/>
<path d="M355.238 654.24H229.805V528.806" stroke="#C2C2C2" stroke-width="23.8343"/>
<path d="M357.797 330.057L347.935 301.356L337.454 330.057H357.797ZM343.336 291.715H353.286L376.858 356.68H367.217L360.627 337.221H334.933L327.902 356.68H318.88L343.336 291.715ZM388.842 333.551C388.842 338.622 389.918 342.867 392.071 346.287C394.223 349.707 397.672 351.417 402.419 351.417C406.104 351.417 409.126 349.84 411.485 346.685C413.873 343.501 415.067 338.946 415.067 333.02C415.067 327.035 413.843 322.613 411.396 319.753C408.949 316.864 405.927 315.419 402.331 315.419C398.321 315.419 395.063 316.952 392.557 320.018C390.081 323.084 388.842 327.595 388.842 333.551ZM400.827 308.476C404.453 308.476 407.49 309.242 409.937 310.775C411.352 311.66 412.959 313.208 414.757 315.419V291.494H422.408V356.68H415.244V350.09C413.386 353.009 411.19 355.117 408.655 356.414C406.119 357.712 403.215 358.36 399.942 358.36C394.665 358.36 390.095 356.149 386.233 351.727C382.371 347.275 380.44 341.364 380.44 333.993C380.44 327.094 382.194 321.124 385.702 316.082C389.24 311.011 394.282 308.476 400.827 308.476ZM439.257 333.551C439.257 338.622 440.334 342.867 442.486 346.287C444.638 349.707 448.087 351.417 452.834 351.417C456.519 351.417 459.541 349.84 461.9 346.685C464.288 343.501 465.482 338.946 465.482 333.02C465.482 327.035 464.259 322.613 461.812 319.753C459.365 316.864 456.343 315.419 452.746 315.419C448.736 315.419 445.478 316.952 442.972 320.018C440.496 323.084 439.257 327.595 439.257 333.551ZM451.242 308.476C454.868 308.476 457.905 309.242 460.352 310.775C461.767 311.66 463.374 313.208 465.173 315.419V291.494H472.823V356.68H465.659V350.09C463.802 353.009 461.605 355.117 459.07 356.414C456.534 357.712 453.63 358.36 450.358 358.36C445.08 358.36 440.51 356.149 436.648 351.727C432.786 347.275 430.855 341.364 430.855 333.993C430.855 327.094 432.609 321.124 436.118 316.082C439.655 311.011 444.697 308.476 451.242 308.476ZM539.424 309.316H548.225C547.105 312.353 544.613 319.281 540.751 330.101C537.862 338.238 535.444 344.872 533.498 350.002C528.899 362.09 525.656 369.46 523.769 372.114C521.882 374.767 518.639 376.094 514.04 376.094C512.92 376.094 512.05 376.05 511.431 375.961C510.841 375.873 510.104 375.711 509.219 375.475V368.222C510.605 368.605 511.608 368.841 512.227 368.93C512.846 369.018 513.391 369.062 513.863 369.062C515.337 369.062 516.413 368.812 517.091 368.311C517.799 367.839 518.389 367.249 518.86 366.542C519.008 366.306 519.538 365.097 520.452 362.915C521.366 360.734 522.03 359.112 522.442 358.051L504.93 309.316H513.951L526.644 347.879L539.424 309.316ZM573.919 351.55C579.196 351.55 582.808 349.56 584.754 345.58C586.729 341.57 587.717 337.118 587.717 332.224C587.717 327.802 587.009 324.205 585.594 321.433C583.353 317.07 579.491 314.888 574.007 314.888C569.143 314.888 565.605 316.746 563.394 320.46C561.182 324.175 560.077 328.657 560.077 333.904C560.077 338.946 561.182 343.147 563.394 346.508C565.605 349.869 569.113 351.55 573.919 351.55ZM574.228 307.945C580.331 307.945 585.491 309.979 589.707 314.048C593.923 318.117 596.031 324.101 596.031 332.003C596.031 339.639 594.173 345.948 590.459 350.931C586.744 355.913 580.98 358.404 573.167 358.404C566.651 358.404 561.477 356.208 557.645 351.815C553.812 347.393 551.895 341.467 551.895 334.037C551.895 326.077 553.915 319.738 557.954 315.021C561.993 310.304 567.418 307.945 574.228 307.945ZM613.499 309.316V340.759C613.499 343.177 613.883 345.152 614.649 346.685C616.064 349.515 618.703 350.931 622.565 350.931C628.108 350.931 631.882 348.454 633.886 343.501C634.977 340.848 635.523 337.206 635.523 332.578V309.316H643.483V356.68H635.965L636.053 349.692C635.021 351.491 633.739 353.009 632.206 354.247C629.169 356.724 625.484 357.962 621.15 357.962C614.398 357.962 609.799 355.707 607.352 351.196C606.025 348.778 605.362 345.55 605.362 341.511V309.316H613.499ZM656.175 309.316H663.737V317.497C664.357 315.905 665.875 313.974 668.292 311.704C670.71 309.404 673.496 308.255 676.651 308.255C676.798 308.255 677.049 308.269 677.403 308.299C677.756 308.328 678.361 308.387 679.216 308.476V316.878C678.744 316.79 678.302 316.731 677.889 316.701C677.506 316.672 677.078 316.657 676.607 316.657C672.597 316.657 669.516 317.954 667.364 320.549C665.212 323.114 664.135 326.077 664.135 329.438V356.68H656.175V309.316Z" fill="#C2C2C2"/>
<path d="M358.596 469.645C355.677 470.618 352.184 471.104 348.115 471.104C339.624 471.104 332.607 468.569 327.065 463.498C320.343 457.395 316.982 448.432 316.982 436.61C316.982 424.699 320.431 415.692 327.33 409.589C332.961 404.606 339.963 402.115 348.336 402.115C356.768 402.115 363.844 404.754 369.564 410.031C376.168 416.134 379.47 424.669 379.47 435.637C379.47 441.445 378.762 446.309 377.347 450.231C376.197 453.975 374.502 457.085 372.261 459.562L379.779 466.593L372.659 474.023L364.788 466.593C362.399 468.038 360.336 469.055 358.596 469.645ZM355.677 457.881L349.088 451.601L356.12 444.26L362.709 450.54C363.741 448.417 364.463 446.56 364.876 444.968C365.525 442.58 365.849 439.794 365.849 436.61C365.849 429.298 364.345 423.652 361.338 419.672C358.36 415.662 353.997 413.657 348.248 413.657C342.853 413.657 338.548 415.574 335.334 419.407C332.121 423.239 330.514 428.974 330.514 436.61C330.514 445.543 332.814 451.941 337.413 455.803C340.391 458.309 343.958 459.562 348.115 459.562C349.678 459.562 351.181 459.37 352.626 458.987C353.422 458.78 354.439 458.412 355.677 457.881ZM417.591 443.73H403.528V469.291H390.216V404.105H422.19C426.76 404.194 430.268 404.754 432.715 405.786C435.192 406.818 437.285 408.336 438.995 410.341C440.41 411.992 441.531 413.82 442.356 415.824C443.182 417.829 443.594 420.114 443.594 422.679C443.594 425.775 442.813 428.826 441.25 431.833C439.688 434.811 437.108 436.919 433.511 438.157C436.519 439.366 438.641 441.091 439.88 443.332C441.147 445.543 441.781 448.933 441.781 453.503V457.881C441.781 460.859 441.899 462.879 442.135 463.94C442.489 465.62 443.314 466.859 444.611 467.655V469.291H429.62C429.207 467.846 428.912 466.682 428.735 465.797C428.381 463.969 428.19 462.097 428.16 460.181L428.072 454.122C428.013 449.965 427.246 447.194 425.772 445.808C424.328 444.422 421.6 443.73 417.591 443.73ZM425.861 431.878C428.573 430.639 429.929 428.192 429.929 424.537C429.929 420.586 428.617 417.932 425.993 416.576C424.519 415.81 422.308 415.426 419.36 415.426H403.528V432.939H418.962C422.028 432.939 424.328 432.585 425.861 431.878ZM521.251 438.379H508.338C508.102 436.58 507.498 434.959 506.525 433.514C505.11 431.568 502.913 430.595 499.935 430.595C495.69 430.595 492.786 432.703 491.223 436.919C490.398 439.16 489.985 442.138 489.985 445.852C489.985 449.39 490.398 452.235 491.223 454.388C492.727 458.397 495.557 460.402 499.714 460.402C502.663 460.402 504.756 459.606 505.994 458.014C507.232 456.422 507.984 454.358 508.25 451.823H521.119C520.824 455.655 519.438 459.282 516.962 462.702C513.011 468.215 507.159 470.972 499.405 470.972C491.651 470.972 485.946 468.672 482.29 464.073C478.634 459.473 476.806 453.503 476.806 446.162C476.806 437.877 478.826 431.435 482.865 426.836C486.904 422.237 492.476 419.937 499.582 419.937C505.626 419.937 510.564 421.293 514.397 424.006C518.259 426.718 520.544 431.509 521.251 438.379ZM570.163 427.19C574.231 432.29 576.266 438.32 576.266 445.277C576.266 452.353 574.231 458.412 570.163 463.453C566.094 468.466 559.918 470.972 551.633 470.972C543.349 470.972 537.172 468.466 533.103 463.453C529.035 458.412 527 452.353 527 445.277C527 438.32 529.035 432.29 533.103 427.19C537.172 422.089 543.349 419.539 551.633 419.539C559.918 419.539 566.094 422.089 570.163 427.19ZM551.589 430.197C547.904 430.197 545.058 431.509 543.054 434.133C541.078 436.728 540.091 440.442 540.091 445.277C540.091 450.113 541.078 453.842 543.054 456.466C545.058 459.09 547.904 460.402 551.589 460.402C555.274 460.402 558.105 459.09 560.08 456.466C562.055 453.842 563.043 450.113 563.043 445.277C563.043 440.442 562.055 436.728 560.08 434.133C558.105 431.509 555.274 430.197 551.589 430.197ZM629.202 404.194V469.291H616.952V462.613C615.153 465.473 613.104 467.552 610.805 468.849C608.505 470.146 605.645 470.795 602.225 470.795C596.594 470.795 591.847 468.524 587.985 463.984C584.152 459.414 582.236 453.562 582.236 446.427C582.236 438.202 584.123 431.73 587.897 427.013C591.7 422.296 596.771 419.937 603.11 419.937C606.028 419.937 608.623 420.586 610.893 421.883C613.163 423.151 615.006 424.92 616.421 427.19V404.194H629.202ZM595.238 445.499C595.238 449.95 596.122 453.503 597.891 456.157C599.631 458.839 602.284 460.181 605.851 460.181C609.419 460.181 612.131 458.854 613.989 456.201C615.846 453.547 616.775 450.113 616.775 445.897C616.775 440 615.286 435.784 612.308 433.249C610.48 431.716 608.357 430.949 605.94 430.949C602.255 430.949 599.542 432.349 597.803 435.15C596.093 437.922 595.238 441.371 595.238 445.499ZM681.961 455.139C681.636 457.999 680.147 460.903 677.494 463.851C673.367 468.539 667.588 470.883 660.158 470.883C654.026 470.883 648.616 468.908 643.928 464.957C639.24 461.006 636.897 454.579 636.897 445.676C636.897 437.332 639.005 430.934 643.221 426.482C647.466 422.031 652.965 419.805 659.716 419.805C663.726 419.805 667.337 420.556 670.551 422.06C673.765 423.564 676.418 425.937 678.511 429.18C680.398 432.04 681.622 435.357 682.182 439.13C682.506 441.342 682.639 444.526 682.58 448.683H649.589C649.766 453.518 651.284 456.908 654.144 458.854C655.883 460.063 657.977 460.667 660.424 460.667C663.018 460.667 665.126 459.93 666.748 458.456C667.632 457.66 668.413 456.555 669.092 455.139H681.961ZM669.49 440.369C669.283 437.037 668.266 434.516 666.438 432.806C664.64 431.067 662.399 430.197 659.716 430.197C656.797 430.197 654.527 431.111 652.906 432.939C651.314 434.767 650.311 437.243 649.898 440.369H669.49Z" fill="#C2C2C2"/>
<path d="M212.149 920.195H185.173L179.114 937H170.358L194.946 872.61H202.376L227.008 937H218.296L212.149 920.195ZM187.737 913.208H209.628L198.661 883.091L187.737 913.208ZM232.404 912.677C232.404 905.336 234.143 899.439 237.622 894.987C241.101 890.506 245.656 888.265 251.287 888.265C256.889 888.265 261.326 890.182 264.598 894.014V869.072H272.78V937H265.262L264.864 931.87C261.591 935.88 257.036 937.884 251.199 937.884C245.656 937.884 241.13 935.614 237.622 931.074C234.143 926.534 232.404 920.608 232.404 913.296V912.677ZM240.585 913.606C240.585 919.03 241.705 923.276 243.946 926.342C246.187 929.408 249.282 930.941 253.233 930.941C258.422 930.941 262.21 928.612 264.598 923.954V901.975C262.151 897.464 258.392 895.209 253.321 895.209C249.312 895.209 246.187 896.756 243.946 899.852C241.705 902.948 240.585 907.532 240.585 913.606ZM283.526 912.677C283.526 905.336 285.266 899.439 288.745 894.987C292.224 890.506 296.779 888.265 302.41 888.265C308.011 888.265 312.449 890.182 315.721 894.014V869.072H323.903V937H316.385L315.987 931.87C312.714 935.88 308.159 937.884 302.321 937.884C296.779 937.884 292.253 935.614 288.745 931.074C285.266 926.534 283.526 920.608 283.526 913.296V912.677ZM291.708 913.606C291.708 919.03 292.828 923.276 295.069 926.342C297.309 929.408 300.405 930.941 304.356 930.941C309.545 930.941 313.333 928.612 315.721 923.954V901.975C313.274 897.464 309.515 895.209 304.444 895.209C300.434 895.209 297.309 896.756 295.069 899.852C292.828 902.948 291.708 907.532 291.708 913.606ZM378.298 931.207C381.217 931.207 383.767 930.322 385.949 928.553C388.13 926.784 389.339 924.573 389.575 921.92H397.314C397.167 924.662 396.223 927.271 394.484 929.747C392.744 932.224 390.415 934.199 387.496 935.673C384.607 937.147 381.541 937.884 378.298 937.884C371.782 937.884 366.593 935.718 362.731 931.384C358.898 927.02 356.982 921.065 356.982 913.517V912.146C356.982 907.488 357.837 903.346 359.547 899.719C361.257 896.093 363.704 893.277 366.888 891.273C370.102 889.268 373.89 888.265 378.254 888.265C383.619 888.265 388.071 889.872 391.609 893.086C395.177 896.299 397.078 900.471 397.314 905.601H389.575C389.339 902.505 388.16 899.97 386.037 897.995C383.944 895.99 381.349 894.987 378.254 894.987C374.097 894.987 370.868 896.491 368.569 899.498C366.298 902.476 365.163 906.795 365.163 912.456V914.004C365.163 919.517 366.298 923.762 368.569 926.74C370.839 929.718 374.082 931.207 378.298 931.207ZM404.346 912.633C404.346 907.945 405.26 903.729 407.088 899.985C408.945 896.24 411.51 893.351 414.783 891.317C418.085 889.283 421.844 888.265 426.06 888.265C432.575 888.265 437.838 890.521 441.847 895.032C445.887 899.542 447.906 905.542 447.906 913.031V913.606C447.906 918.264 447.007 922.45 445.208 926.165C443.44 929.85 440.889 932.725 437.558 934.789C434.256 936.853 430.452 937.884 426.148 937.884C419.662 937.884 414.399 935.629 410.36 931.118C406.35 926.607 404.346 920.637 404.346 913.208V912.633ZM412.571 913.606C412.571 918.912 413.795 923.173 416.242 926.386C418.718 929.6 422.02 931.207 426.148 931.207C430.305 931.207 433.607 929.585 436.054 926.342C438.501 923.07 439.725 918.5 439.725 912.633C439.725 907.385 438.472 903.139 435.966 899.896C433.489 896.624 430.187 894.987 426.06 894.987C422.02 894.987 418.763 896.594 416.286 899.808C413.81 903.021 412.571 907.621 412.571 913.606ZM465.905 889.15L466.171 895.164C469.826 890.565 474.603 888.265 480.499 888.265C490.612 888.265 495.712 893.97 495.801 905.38V937H487.619V905.336C487.59 901.886 486.794 899.336 485.231 897.685C483.698 896.034 481.295 895.209 478.023 895.209C475.369 895.209 473.04 895.916 471.035 897.331C469.03 898.746 467.468 900.604 466.347 902.903V937H458.166V889.15H465.905ZM519.239 877.563V889.15H528.172V895.474H519.239V925.148C519.239 927.064 519.637 928.509 520.433 929.482C521.229 930.425 522.585 930.897 524.502 930.897C525.445 930.897 526.742 930.72 528.393 930.366V937C526.241 937.59 524.148 937.884 522.114 937.884C518.458 937.884 515.701 936.779 513.844 934.568C511.986 932.357 511.058 929.217 511.058 925.148V895.474H502.346V889.15H511.058V877.563H519.239ZM567.31 937C566.839 936.057 566.455 934.376 566.161 931.958C562.357 935.909 557.817 937.884 552.54 937.884C547.822 937.884 543.945 936.558 540.909 933.904C537.902 931.221 536.398 927.831 536.398 923.733C536.398 918.75 538.285 914.888 542.059 912.146C545.862 909.375 551.198 907.989 558.068 907.989H566.028V904.23C566.028 901.37 565.173 899.1 563.463 897.42C561.753 895.71 559.232 894.855 555.901 894.855C552.982 894.855 550.535 895.592 548.56 897.066C546.584 898.54 545.597 900.324 545.597 902.417H537.371C537.371 900.029 538.211 897.729 539.892 895.518C541.602 893.277 543.901 891.508 546.791 890.211C549.709 888.914 552.908 888.265 556.387 888.265C561.9 888.265 566.22 889.651 569.345 892.422C572.47 895.164 574.091 898.953 574.209 903.788V925.811C574.209 930.204 574.769 933.698 575.89 936.292V937H567.31ZM553.734 930.764C556.299 930.764 558.731 930.101 561.031 928.774C563.33 927.448 564.996 925.723 566.028 923.6V913.783H559.615C549.591 913.783 544.579 916.716 544.579 922.583C544.579 925.148 545.434 927.153 547.144 928.597C548.854 930.042 551.051 930.764 553.734 930.764ZM606.227 931.207C609.146 931.207 611.696 930.322 613.878 928.553C616.06 926.784 617.269 924.573 617.504 921.92H625.244C625.096 924.662 624.153 927.271 622.413 929.747C620.674 932.224 618.345 934.199 615.426 935.673C612.537 937.147 609.47 937.884 606.227 937.884C599.712 937.884 594.523 935.718 590.661 931.384C586.828 927.02 584.911 921.065 584.911 913.517V912.146C584.911 907.488 585.766 903.346 587.476 899.719C589.186 896.093 591.634 893.277 594.818 891.273C598.031 889.268 601.82 888.265 606.183 888.265C611.549 888.265 616.001 889.872 619.539 893.086C623.106 896.299 625.008 900.471 625.244 905.601H617.504C617.269 902.505 616.089 899.97 613.967 897.995C611.873 895.99 609.279 894.987 606.183 894.987C602.026 894.987 598.798 896.491 596.498 899.498C594.228 902.476 593.093 906.795 593.093 912.456V914.004C593.093 919.517 594.228 923.762 596.498 926.74C598.768 929.718 602.011 931.207 606.227 931.207ZM645.542 877.563V889.15H654.476V895.474H645.542V925.148C645.542 927.064 645.94 928.509 646.736 929.482C647.532 930.425 648.889 930.897 650.805 930.897C651.748 930.897 653.046 930.72 654.697 930.366V937C652.544 937.59 650.451 937.884 648.417 937.884C644.761 937.884 642.004 936.779 640.147 934.568C638.29 932.357 637.361 929.217 637.361 925.148V895.474H628.649V889.15H637.361V877.563H645.542Z" fill="white"/>
<path d="M804.585 937.583H733.418V927.416H804.585V937.583ZM758.835 914.301L738.501 893.968L745.669 886.8L758.835 899.915L792.334 866.416L799.501 873.634L758.835 914.301Z" fill="white"/>
</svg>
