<svg width="1000" height="1000" viewBox="0 0 1000 1000" fill="none" xmlns="http://www.w3.org/2000/svg">
<g clip-path="url(#clip0_280_441)">
<circle cx="535.083" cy="499.918" r="457.918" fill="#333333"/>
<circle cx="502.981" cy="499.53" r="408.801" stroke="white" stroke-width="26.2994"/>
<circle cx="502.981" cy="499.53" r="408.801" stroke="white" stroke-width="26.2994"/>
<circle cx="145.232" cy="671.638" r="144.26" fill="#333333" stroke="white" stroke-width="10.0556"/>
<rect x="307.668" y="250.848" width="454.051" height="454.051" rx="16.2437" fill="white"/>
<path d="M633.773 295.412H719.936V381.574" stroke="#C2C2C2" stroke-width="16.3721"/>
<path d="M435.602 295.412H349.439V381.574" stroke="#C2C2C2" stroke-width="16.3721"/>
<path d="M633.773 665.906H719.936V579.744" stroke="#C2C2C2" stroke-width="16.3721"/>
<path d="M435.602 665.906H349.439V579.744" stroke="#C2C2C2" stroke-width="16.3721"/>
<path d="M437.356 443.271L430.582 423.556L423.382 443.271H437.356ZM427.422 416.933H434.257L450.449 461.559H443.826L439.3 448.192H421.65L416.82 461.559H410.623L427.422 416.933ZM458.681 445.671C458.681 449.154 459.42 452.071 460.899 454.42C462.377 456.769 464.747 457.944 468.007 457.944C470.539 457.944 472.615 456.86 474.235 454.693C475.875 452.506 476.695 449.377 476.695 445.306C476.695 441.195 475.855 438.157 474.174 436.193C472.493 434.208 470.417 433.216 467.947 433.216C465.192 433.216 462.954 434.269 461.233 436.375C459.532 438.481 458.681 441.58 458.681 445.671ZM466.914 428.447C469.405 428.447 471.491 428.973 473.172 430.026C474.144 430.634 475.247 431.697 476.483 433.216V416.781H481.738V461.559H476.817V457.032C475.541 459.037 474.032 460.485 472.291 461.376C470.549 462.267 468.554 462.713 466.306 462.713C462.681 462.713 459.542 461.194 456.889 458.156C454.236 455.098 452.909 451.038 452.909 445.975C452.909 441.236 454.114 437.135 456.524 433.672C458.955 430.188 462.418 428.447 466.914 428.447ZM493.312 445.671C493.312 449.154 494.051 452.071 495.53 454.42C497.008 456.769 499.378 457.944 502.638 457.944C505.17 457.944 507.246 456.86 508.866 454.693C510.506 452.506 511.326 449.377 511.326 445.306C511.326 441.195 510.486 438.157 508.805 436.193C507.124 434.208 505.048 433.216 502.577 433.216C499.823 433.216 497.585 434.269 495.864 436.375C494.163 438.481 493.312 441.58 493.312 445.671ZM501.545 428.447C504.036 428.447 506.122 428.973 507.802 430.026C508.775 430.634 509.878 431.697 511.114 433.216V416.781H516.369V461.559H511.448V457.032C510.172 459.037 508.663 460.485 506.922 461.376C505.18 462.267 503.185 462.713 500.937 462.713C497.312 462.713 494.173 461.194 491.52 458.156C488.867 455.098 487.54 451.038 487.54 445.975C487.54 441.236 488.745 437.135 491.155 433.672C493.586 430.188 497.049 428.447 501.545 428.447ZM562.118 429.024H568.164C567.394 431.11 565.683 435.869 563.03 443.301C561.045 448.891 559.384 453.448 558.048 456.972C554.888 465.275 552.661 470.338 551.365 472.161C550.068 473.983 547.841 474.895 544.681 474.895C543.912 474.895 543.314 474.864 542.889 474.803C542.484 474.743 541.978 474.631 541.37 474.469V469.487C542.322 469.751 543.011 469.913 543.436 469.973C543.861 470.034 544.236 470.064 544.56 470.064C545.572 470.064 546.312 469.892 546.777 469.548C547.263 469.224 547.669 468.819 547.993 468.333C548.094 468.171 548.458 467.341 549.086 465.842C549.714 464.343 550.17 463.229 550.453 462.5L538.423 429.024H544.621L553.339 455.513L562.118 429.024ZM585.813 458.035C589.438 458.035 591.919 456.668 593.256 453.934C594.613 451.179 595.291 448.121 595.291 444.76C595.291 441.722 594.805 439.251 593.833 437.347C592.294 434.35 589.641 432.851 585.874 432.851C582.532 432.851 580.102 434.127 578.583 436.679C577.064 439.231 576.305 442.309 576.305 445.914C576.305 449.377 577.064 452.263 578.583 454.572C580.102 456.88 582.512 458.035 585.813 458.035ZM586.026 428.082C590.218 428.082 593.762 429.479 596.658 432.274C599.554 435.069 601.002 439.18 601.002 444.608C601.002 449.853 599.726 454.187 597.175 457.609C594.623 461.032 590.664 462.743 585.297 462.743C580.821 462.743 577.267 461.235 574.634 458.217C572.001 455.179 570.685 451.109 570.685 446.005C570.685 440.537 572.072 436.183 574.847 432.943C577.621 429.702 581.348 428.082 586.026 428.082ZM613.001 429.024V450.623C613.001 452.283 613.265 453.64 613.791 454.693C614.763 456.637 616.576 457.609 619.229 457.609C623.036 457.609 625.629 455.908 627.006 452.506C627.755 450.683 628.13 448.182 628.13 445.003V429.024H633.598V461.559H628.433L628.494 456.759C627.785 457.994 626.904 459.037 625.851 459.888C623.765 461.589 621.234 462.44 618.257 462.44C613.619 462.44 610.46 460.89 608.779 457.792C607.868 456.131 607.412 453.913 607.412 451.139V429.024H613.001ZM642.316 429.024H647.511V434.644C647.936 433.55 648.979 432.224 650.64 430.664C652.3 429.085 654.214 428.295 656.381 428.295C656.483 428.295 656.655 428.305 656.898 428.325C657.141 428.345 657.556 428.386 658.143 428.447V434.218C657.819 434.158 657.515 434.117 657.232 434.097C656.969 434.077 656.675 434.067 656.351 434.067C653.597 434.067 651.48 434.958 650.002 436.74C648.523 438.502 647.784 440.537 647.784 442.846V461.559H642.316V429.024Z" fill="#C2C2C2"/>
<path d="M437.903 539.153C435.898 539.821 433.498 540.156 430.703 540.156C424.871 540.156 420.051 538.414 416.244 534.931C411.626 530.738 409.317 524.582 409.317 516.461C409.317 508.279 411.687 502.092 416.426 497.9C420.294 494.477 425.104 492.766 430.855 492.766C436.647 492.766 441.508 494.579 445.437 498.204C449.973 502.396 452.241 508.259 452.241 515.793C452.241 519.782 451.755 523.124 450.783 525.817C449.993 528.389 448.829 530.526 447.29 532.227L452.454 537.057L447.563 542.161L442.156 537.057C440.516 538.049 439.098 538.748 437.903 539.153ZM435.898 531.073L431.372 526.759L436.202 521.716L440.728 526.03C441.437 524.572 441.933 523.296 442.217 522.202C442.662 520.562 442.885 518.648 442.885 516.461C442.885 511.438 441.852 507.56 439.786 504.826C437.741 502.072 434.744 500.695 430.795 500.695C427.088 500.695 424.132 502.011 421.924 504.644C419.717 507.277 418.613 511.216 418.613 516.461C418.613 522.597 420.193 526.992 423.352 529.645C425.397 531.366 427.848 532.227 430.703 532.227C431.777 532.227 432.81 532.095 433.802 531.832C434.349 531.69 435.047 531.437 435.898 531.073ZM478.427 521.352H468.767V538.91H459.623V494.133H481.587C484.726 494.194 487.136 494.579 488.817 495.287C490.518 495.996 491.956 497.039 493.13 498.416C494.102 499.55 494.872 500.806 495.439 502.183C496.006 503.56 496.29 505.13 496.29 506.892C496.29 509.018 495.753 511.114 494.679 513.18C493.606 515.225 491.834 516.673 489.363 517.524C491.429 518.354 492.887 519.539 493.738 521.078C494.609 522.597 495.044 524.926 495.044 528.065V531.073C495.044 533.118 495.125 534.505 495.287 535.234C495.53 536.389 496.097 537.239 496.988 537.786V538.91H486.69C486.407 537.918 486.204 537.118 486.083 536.51C485.839 535.255 485.708 533.969 485.688 532.652L485.627 528.491C485.586 525.635 485.06 523.731 484.047 522.779C483.055 521.828 481.182 521.352 478.427 521.352ZM484.108 513.21C485.971 512.36 486.903 510.679 486.903 508.168C486.903 505.454 486.002 503.631 484.199 502.7C483.186 502.173 481.668 501.91 479.642 501.91H468.767V513.939H479.369C481.475 513.939 483.055 513.696 484.108 513.21ZM549.633 517.676H540.763C540.601 516.441 540.186 515.327 539.517 514.334C538.545 512.998 537.037 512.329 534.991 512.329C532.075 512.329 530.08 513.777 529.007 516.673C528.44 518.213 528.156 520.258 528.156 522.81C528.156 525.24 528.44 527.194 529.007 528.673C530.039 531.427 531.984 532.804 534.839 532.804C536.864 532.804 538.302 532.257 539.153 531.164C540.003 530.07 540.52 528.653 540.702 526.911H549.542C549.34 529.544 548.388 532.035 546.687 534.384C543.973 538.171 539.953 540.065 534.627 540.065C529.3 540.065 525.382 538.485 522.87 535.326C520.359 532.166 519.103 528.065 519.103 523.022C519.103 517.332 520.491 512.907 523.265 509.747C526.04 506.588 529.867 505.008 534.748 505.008C538.9 505.008 542.292 505.94 544.925 507.803C547.578 509.666 549.147 512.957 549.633 517.676ZM583.231 509.99C586.026 513.494 587.424 517.635 587.424 522.415C587.424 527.275 586.026 531.437 583.231 534.9C580.437 538.343 576.194 540.065 570.503 540.065C564.812 540.065 560.569 538.343 557.775 534.9C554.98 531.437 553.582 527.275 553.582 522.415C553.582 517.635 554.98 513.494 557.775 509.99C560.569 506.487 564.812 504.735 570.503 504.735C576.194 504.735 580.437 506.487 583.231 509.99ZM570.473 512.056C567.941 512.056 565.987 512.957 564.61 514.76C563.253 516.542 562.574 519.094 562.574 522.415C562.574 525.736 563.253 528.298 564.61 530.101C565.987 531.903 567.941 532.804 570.473 532.804C573.004 532.804 574.948 531.903 576.305 530.101C577.662 528.298 578.34 525.736 578.34 522.415C578.34 519.094 577.662 516.542 576.305 514.76C574.948 512.957 573.004 512.056 570.473 512.056ZM623.786 494.194V538.91H615.371V534.323C614.136 536.288 612.728 537.715 611.149 538.606C609.569 539.497 607.605 539.943 605.255 539.943C601.387 539.943 598.127 538.384 595.474 535.265C592.841 532.126 591.525 528.106 591.525 523.205C591.525 517.554 592.821 513.109 595.413 509.869C598.025 506.628 601.509 505.008 605.863 505.008C607.868 505.008 609.65 505.454 611.209 506.345C612.769 507.216 614.035 508.431 615.007 509.99V494.194H623.786ZM600.456 522.567C600.456 525.625 601.063 528.065 602.278 529.888C603.473 531.731 605.296 532.652 607.746 532.652C610.197 532.652 612.06 531.741 613.336 529.918C614.612 528.096 615.25 525.736 615.25 522.84C615.25 518.79 614.227 515.894 612.182 514.152C610.926 513.099 609.468 512.572 607.807 512.572C605.276 512.572 603.412 513.534 602.218 515.458C601.043 517.362 600.456 519.732 600.456 522.567ZM660.027 529.189C659.804 531.154 658.781 533.148 656.959 535.174C654.123 538.394 650.154 540.004 645.051 540.004C640.838 540.004 637.122 538.647 633.902 535.933C630.682 533.219 629.072 528.804 629.072 522.688C629.072 516.957 630.52 512.562 633.416 509.504C636.332 506.446 640.109 504.917 644.747 504.917C647.501 504.917 649.982 505.434 652.189 506.466C654.397 507.499 656.22 509.13 657.657 511.357C658.954 513.322 659.794 515.6 660.179 518.192C660.402 519.711 660.493 521.898 660.452 524.754H637.79C637.912 528.075 638.955 530.404 640.919 531.741C642.114 532.571 643.552 532.986 645.233 532.986C647.015 532.986 648.463 532.48 649.577 531.468C650.184 530.921 650.721 530.161 651.187 529.189H660.027ZM651.46 519.043C651.319 516.754 650.62 515.023 649.364 513.848C648.129 512.653 646.59 512.056 644.747 512.056C642.742 512.056 641.182 512.684 640.069 513.939C638.975 515.195 638.286 516.896 638.003 519.043H651.46Z" fill="#C2C2C2"/>
<path d="M79.1315 681.936L85.2048 659.909H94.3298L83.3012 692.602H74.9618L63.9332 659.909H73.0582L79.1315 681.936ZM133.307 677.947C132.965 682.681 131.213 686.407 128.05 689.127C124.908 691.846 120.758 693.206 115.601 693.206C109.961 693.206 105.52 691.312 102.276 687.525C99.0535 683.718 97.442 678.501 97.442 671.874V669.185C97.442 664.955 98.1873 661.228 99.6779 658.005C101.169 654.782 103.294 652.315 106.053 650.602C108.833 648.87 112.056 648.004 115.722 648.004C120.798 648.004 124.888 649.364 127.99 652.083C131.092 654.802 132.884 658.619 133.368 663.534H124.303C124.082 660.694 123.286 658.64 121.916 657.371C120.567 656.081 118.502 655.437 115.722 655.437C112.701 655.437 110.435 656.525 108.924 658.7C107.433 660.855 106.668 664.209 106.627 668.762V672.085C106.627 676.839 107.343 680.314 108.773 682.51C110.223 684.705 112.499 685.803 115.601 685.803C118.401 685.803 120.486 685.169 121.856 683.9C123.246 682.61 124.041 680.626 124.243 677.947H133.307ZM157.631 692.602C157.228 691.816 156.936 690.839 156.755 689.671C154.639 692.027 151.89 693.206 148.506 693.206C145.303 693.206 142.644 692.279 140.529 690.426C138.434 688.573 137.387 686.236 137.387 683.416C137.387 679.951 138.666 677.292 141.224 675.439C143.802 673.586 147.519 672.649 152.373 672.629H156.392V670.756C156.392 669.245 155.999 668.037 155.214 667.13C154.448 666.224 153.229 665.77 151.558 665.77C150.087 665.77 148.929 666.123 148.083 666.828C147.257 667.533 146.844 668.5 146.844 669.729H138.112C138.112 667.835 138.696 666.083 139.864 664.471C141.033 662.86 142.684 661.601 144.82 660.694C146.955 659.768 149.352 659.304 152.011 659.304C156.039 659.304 159.232 660.322 161.589 662.356C163.966 664.37 165.154 667.211 165.154 670.877V685.048C165.175 688.15 165.608 690.497 166.454 692.088V692.602H157.631ZM150.409 686.528C151.699 686.528 152.887 686.246 153.975 685.682C155.062 685.098 155.868 684.323 156.392 683.356V677.736H153.129C148.758 677.736 146.431 679.246 146.149 682.268L146.119 682.782C146.119 683.869 146.502 684.766 147.267 685.471C148.032 686.176 149.08 686.528 150.409 686.528ZM190.233 668.097C189.045 667.936 187.997 667.855 187.091 667.855C183.787 667.855 181.622 668.973 180.594 671.209V692.602H171.862V659.909H180.111L180.353 663.806C182.105 660.805 184.532 659.304 187.635 659.304C188.601 659.304 189.508 659.435 190.354 659.697L190.233 668.097ZM192.499 676.013C192.499 670.917 193.637 666.858 195.914 663.837C198.21 660.815 201.342 659.304 205.31 659.304C208.493 659.304 211.122 660.493 213.197 662.87V646.191H221.959V692.602H214.073L213.65 689.127C211.474 691.846 208.674 693.206 205.25 693.206C201.403 693.206 198.311 691.695 195.974 688.674C193.657 685.632 192.499 681.412 192.499 676.013ZM201.231 676.648C201.231 679.71 201.765 682.056 202.833 683.688C203.9 685.32 205.451 686.135 207.486 686.135C210.185 686.135 212.089 684.997 213.197 682.721V669.819C212.109 667.543 210.226 666.405 207.546 666.405C203.336 666.405 201.231 669.819 201.231 676.648Z" fill="white"/>
</g>
<defs>
<clipPath id="clip0_280_441">
<rect width="1000" height="1000" fill="white"/>
</clipPath>
</defs>
</svg>
