<svg width="1200" height="1000" viewBox="0 0 1200 1000" fill="none" xmlns="http://www.w3.org/2000/svg">
<rect y="201" width="1200" height="600" fill="#333333"/>
<rect x="20" y="221" width="560" height="560" fill="white"/>
<rect x="35" y="235" width="530" height="530" fill="white"/>
<path d="M415.652 287.021H516.227V387.596" stroke="#C2C2C2" stroke-width="19.1107"/>
<path d="M184.328 287.021H83.7534V387.596" stroke="#C2C2C2" stroke-width="19.1107"/>
<path d="M415.652 719.492H516.227V618.917" stroke="#C2C2C2" stroke-width="19.1107"/>
<path d="M184.328 719.492H83.7534V618.917" stroke="#C2C2C2" stroke-width="19.1107"/>
<path d="M186.382 460.409L178.475 437.396L170.071 460.409H186.382ZM174.787 429.666H182.765L201.665 481.756H193.935L188.651 466.154H168.049L162.411 481.756H155.178L174.787 429.666ZM211.274 463.211C211.274 467.277 212.137 470.681 213.863 473.423C215.589 476.165 218.354 477.536 222.16 477.536C225.115 477.536 227.538 476.271 229.43 473.742C231.344 471.189 232.302 467.537 232.302 462.785C232.302 457.986 231.321 454.44 229.359 452.147C227.397 449.831 224.974 448.672 222.09 448.672C218.875 448.672 216.262 449.902 214.253 452.36C212.267 454.819 211.274 458.435 211.274 463.211ZM220.884 443.105C223.792 443.105 226.226 443.72 228.189 444.949C229.323 445.658 230.612 446.899 232.054 448.672V429.489H238.188V481.756H232.444V476.472C230.954 478.813 229.193 480.503 227.16 481.543C225.127 482.583 222.799 483.103 220.175 483.103C215.943 483.103 212.279 481.33 209.182 477.784C206.086 474.215 204.537 469.475 204.537 463.565C204.537 458.034 205.944 453.247 208.757 449.204C211.594 445.138 215.636 443.105 220.884 443.105ZM251.698 463.211C251.698 467.277 252.561 470.681 254.287 473.423C256.012 476.165 258.778 477.536 262.584 477.536C265.539 477.536 267.962 476.271 269.853 473.742C271.768 471.189 272.725 467.537 272.725 462.785C272.725 457.986 271.744 454.44 269.782 452.147C267.82 449.831 265.397 448.672 262.513 448.672C259.298 448.672 256.686 449.902 254.677 452.36C252.691 454.819 251.698 458.435 251.698 463.211ZM261.308 443.105C264.215 443.105 266.65 443.72 268.612 444.949C269.747 445.658 271.035 446.899 272.477 448.672V429.489H278.612V481.756H272.867V476.472C271.378 478.813 269.617 480.503 267.584 481.543C265.551 482.583 263.222 483.103 260.598 483.103C256.367 483.103 252.703 481.33 249.606 477.784C246.509 474.215 244.961 469.475 244.961 463.565C244.961 458.034 246.367 453.247 249.18 449.204C252.017 445.138 256.06 443.105 261.308 443.105ZM332.013 443.779H339.07C338.172 446.214 336.174 451.769 333.077 460.445C330.761 466.969 328.822 472.288 327.262 476.402C323.574 486.094 320.974 492.004 319.461 494.131C317.948 496.259 315.348 497.323 311.66 497.323C310.761 497.323 310.064 497.287 309.568 497.216C309.095 497.145 308.504 497.015 307.795 496.826V491.011C308.906 491.318 309.709 491.507 310.206 491.578C310.702 491.649 311.14 491.684 311.518 491.684C312.7 491.684 313.563 491.484 314.106 491.082C314.674 490.703 315.147 490.231 315.525 489.663C315.643 489.474 316.069 488.505 316.801 486.756C317.534 485.006 318.066 483.706 318.397 482.855L304.355 443.779H311.589L321.766 474.699L332.013 443.779ZM359.672 477.643C363.903 477.643 366.799 476.047 368.359 472.856C369.943 469.641 370.735 466.071 370.735 462.147C370.735 458.601 370.168 455.717 369.033 453.495C367.236 449.996 364.14 448.247 359.743 448.247C355.842 448.247 353.005 449.736 351.232 452.715C349.459 455.693 348.573 459.286 348.573 463.494C348.573 467.537 349.459 470.905 351.232 473.6C353.005 476.295 355.818 477.643 359.672 477.643ZM359.92 442.68C364.813 442.68 368.95 444.311 372.331 447.573C375.711 450.835 377.401 455.634 377.401 461.97C377.401 468.092 375.912 473.151 372.933 477.146C369.955 481.141 365.333 483.139 359.069 483.139C353.845 483.139 349.696 481.378 346.623 477.855C343.55 474.309 342.013 469.558 342.013 463.601C342.013 457.218 343.632 452.136 346.871 448.353C350.109 444.571 354.459 442.68 359.92 442.68ZM391.408 443.779V468.991C391.408 470.929 391.715 472.513 392.33 473.742C393.464 476.011 395.58 477.146 398.677 477.146C403.121 477.146 406.147 475.16 407.755 471.189C408.629 469.061 409.067 466.142 409.067 462.431V443.779H415.449V481.756H409.421L409.492 476.153C408.665 477.595 407.636 478.813 406.407 479.806C403.972 481.791 401.017 482.784 397.542 482.784C392.129 482.784 388.441 480.976 386.479 477.359C385.415 475.42 384.883 472.832 384.883 469.593V443.779H391.408ZM425.626 443.779H431.69V450.339C432.186 449.062 433.403 447.514 435.342 445.694C437.28 443.85 439.514 442.928 442.044 442.928C442.162 442.928 442.363 442.94 442.647 442.963C442.93 442.987 443.415 443.034 444.1 443.105V449.842C443.722 449.772 443.368 449.724 443.037 449.701C442.729 449.677 442.386 449.665 442.008 449.665C438.793 449.665 436.323 450.705 434.597 452.786C432.872 454.842 432.009 457.218 432.009 459.913V481.756H425.626V443.779Z" fill="#C2C2C2"/>
<path d="M187.02 572.333C184.68 573.113 181.878 573.503 178.616 573.503C171.808 573.503 166.182 571.47 161.738 567.404C156.348 562.51 153.653 555.324 153.653 545.844C153.653 536.294 156.419 529.072 161.95 524.179C166.465 520.184 172.08 518.186 178.794 518.186C185.554 518.186 191.228 520.302 195.814 524.533C201.109 529.427 203.757 536.27 203.757 545.064C203.757 549.721 203.19 553.622 202.055 556.766C201.133 559.768 199.774 562.262 197.977 564.248L204.005 569.886L198.296 575.843L191.984 569.886C190.07 571.044 188.415 571.86 187.02 572.333ZM184.68 562.9L179.396 557.865L185.034 551.979L190.318 557.014C191.145 555.312 191.724 553.823 192.055 552.546C192.575 550.631 192.835 548.397 192.835 545.844C192.835 539.982 191.63 535.455 189.219 532.263C186.831 529.048 183.332 527.441 178.723 527.441C174.397 527.441 170.945 528.978 168.368 532.051C165.792 535.124 164.503 539.722 164.503 545.844C164.503 553.007 166.347 558.137 170.035 561.234C172.423 563.243 175.283 564.248 178.616 564.248C179.869 564.248 181.075 564.094 182.233 563.787C182.871 563.621 183.687 563.326 184.68 562.9ZM234.323 551.553H223.047V572.049H212.373V519.782H238.011C241.675 519.853 244.488 520.302 246.45 521.129C248.436 521.957 250.114 523.174 251.485 524.782C252.62 526.105 253.518 527.571 254.18 529.179C254.842 530.786 255.173 532.618 255.173 534.675C255.173 537.157 254.546 539.604 253.294 542.015C252.041 544.402 249.972 546.093 247.088 547.085C249.499 548.055 251.201 549.438 252.194 551.234C253.211 553.007 253.719 555.726 253.719 559.39V562.9C253.719 565.288 253.814 566.907 254.003 567.758C254.286 569.106 254.948 570.099 255.988 570.737V572.049H243.968C243.637 570.89 243.4 569.957 243.259 569.248C242.975 567.782 242.821 566.281 242.798 564.744L242.727 559.886C242.679 556.553 242.065 554.331 240.883 553.22C239.724 552.109 237.538 551.553 234.323 551.553ZM240.954 542.05C243.129 541.057 244.216 539.095 244.216 536.164C244.216 532.996 243.164 530.869 241.06 529.781C239.878 529.167 238.105 528.859 235.741 528.859H223.047V542.901H235.422C237.881 542.901 239.724 542.618 240.954 542.05ZM317.439 547.263H307.085C306.896 545.821 306.412 544.521 305.632 543.362C304.497 541.802 302.736 541.022 300.348 541.022C296.944 541.022 294.615 542.712 293.363 546.093C292.701 547.889 292.37 550.277 292.37 553.255C292.37 556.092 292.701 558.373 293.363 560.099C294.568 563.314 296.838 564.922 300.171 564.922C302.535 564.922 304.213 564.283 305.206 563.007C306.199 561.73 306.802 560.075 307.014 558.042H317.333C317.097 561.116 315.986 564.023 314 566.765C310.832 571.186 306.14 573.396 299.923 573.396C293.705 573.396 289.131 571.552 286.2 567.865C283.269 564.177 281.803 559.39 281.803 553.504C281.803 546.861 283.422 541.696 286.661 538.008C289.899 534.32 294.367 532.476 300.064 532.476C304.911 532.476 308.87 533.564 311.943 535.738C315.04 537.913 316.872 541.755 317.439 547.263ZM356.657 538.292C359.92 542.381 361.551 547.215 361.551 552.794C361.551 558.468 359.92 563.326 356.657 567.368C353.395 571.387 348.443 573.396 341.8 573.396C335.157 573.396 330.205 571.387 326.943 567.368C323.68 563.326 322.049 558.468 322.049 552.794C322.049 547.215 323.68 542.381 326.943 538.292C330.205 534.202 335.157 532.157 341.8 532.157C348.443 532.157 353.395 534.202 356.657 538.292ZM341.765 540.703C338.81 540.703 336.528 541.755 334.921 543.859C333.337 545.939 332.545 548.918 332.545 552.794C332.545 556.671 333.337 559.662 334.921 561.766C336.528 563.87 338.81 564.922 341.765 564.922C344.72 564.922 346.989 563.87 348.573 561.766C350.157 559.662 350.949 556.671 350.949 552.794C350.949 548.918 350.157 545.939 348.573 543.859C346.989 541.755 344.72 540.703 341.765 540.703ZM403.996 519.853V572.049H394.173V566.694C392.731 568.988 391.089 570.654 389.245 571.694C387.401 572.734 385.108 573.254 382.366 573.254C377.85 573.254 374.044 571.434 370.948 567.794C367.874 564.13 366.338 559.437 366.338 553.716C366.338 547.121 367.851 541.932 370.877 538.15C373.926 534.367 377.992 532.476 383.075 532.476C385.415 532.476 387.495 532.996 389.316 534.036C391.136 535.053 392.613 536.471 393.748 538.292V519.853H403.996ZM376.763 552.972C376.763 556.541 377.472 559.39 378.89 561.517C380.285 563.669 382.413 564.744 385.273 564.744C388.134 564.744 390.308 563.68 391.798 561.553C393.287 559.425 394.032 556.671 394.032 553.291C394.032 548.563 392.838 545.182 390.45 543.149C388.985 541.92 387.283 541.306 385.344 541.306C382.389 541.306 380.214 542.428 378.82 544.674C377.448 546.896 376.763 549.662 376.763 552.972ZM446.299 560.702C446.039 562.995 444.845 565.323 442.717 567.687C439.408 571.446 434.774 573.325 428.817 573.325C423.9 573.325 419.562 571.742 415.804 568.574C412.045 565.406 410.166 560.253 410.166 553.114C410.166 546.424 411.856 541.294 415.236 537.724C418.64 534.155 423.049 532.37 428.463 532.37C431.678 532.37 434.573 532.973 437.15 534.178C439.727 535.384 441.854 537.287 443.533 539.887C445.046 542.18 446.027 544.84 446.476 547.866C446.736 549.639 446.842 552.192 446.795 555.525H420.342C420.484 559.402 421.702 562.12 423.995 563.68C425.389 564.65 427.068 565.134 429.03 565.134C431.11 565.134 432.8 564.543 434.101 563.361C434.81 562.723 435.436 561.837 435.98 560.702H446.299ZM436.299 548.858C436.134 546.187 435.318 544.166 433.852 542.795C432.41 541.4 430.614 540.703 428.463 540.703C426.122 540.703 424.302 541.436 423.002 542.901C421.725 544.367 420.922 546.353 420.591 548.858H436.299Z" fill="#C2C2C2"/>
<path d="M675.598 267.815C675.598 273.526 674.674 278.495 672.826 282.723C670.979 286.922 668.417 290.295 665.142 292.843L675.304 300.821L667.283 307.918L654.266 297.462C652.782 297.714 651.242 297.84 649.646 297.84C644.579 297.84 640.058 296.622 636.083 294.187C632.108 291.751 629.028 288.28 626.845 283.772C624.661 279.237 623.555 274.03 623.527 268.151V265.128C623.527 259.109 624.605 253.818 626.761 249.255C628.944 244.664 632.01 241.15 635.957 238.715C639.932 236.251 644.467 235.02 649.562 235.02C654.658 235.02 659.179 236.251 663.126 238.715C667.101 241.15 670.167 244.664 672.322 249.255C674.506 253.818 675.598 259.095 675.598 265.086V267.815ZM662.832 265.044C662.832 258.633 661.684 253.762 659.389 250.431C657.093 247.099 653.818 245.434 649.562 245.434C645.335 245.434 642.074 247.085 639.778 250.389C637.483 253.664 636.321 258.479 636.293 264.834V267.815C636.293 274.058 637.441 278.901 639.736 282.345C642.032 285.788 645.335 287.51 649.646 287.51C653.874 287.51 657.121 285.858 659.389 282.555C661.656 279.223 662.804 274.38 662.832 268.025V265.044ZM707.47 274.618H697.434V297H684.836V235.859H707.554C714.776 235.859 720.347 237.469 724.267 240.688C728.186 243.908 730.146 248.457 730.146 254.336C730.146 258.507 729.236 261.993 727.416 264.792C725.624 267.563 722.895 269.775 719.228 271.427L732.455 296.412V297H718.934L707.47 274.618ZM697.434 264.414H707.596C710.759 264.414 713.209 263.616 714.944 262.021C716.68 260.397 717.548 258.171 717.548 255.344C717.548 252.46 716.722 250.193 715.07 248.541C713.447 246.889 710.941 246.063 707.554 246.063H697.434V264.414ZM809.175 276.634C808.699 283.213 806.263 288.392 801.868 292.171C797.501 295.95 791.734 297.84 784.567 297.84C776.729 297.84 770.556 295.208 766.049 289.945C761.57 284.654 759.33 277.404 759.33 268.193V264.456C759.33 258.577 760.366 253.398 762.438 248.919C764.509 244.44 767.463 241.01 771.298 238.631C775.161 236.223 779.64 235.02 784.735 235.02C791.79 235.02 797.473 236.909 801.784 240.688C806.095 244.468 808.587 249.773 809.259 256.604H796.661C796.353 252.656 795.247 249.801 793.344 248.037C791.468 246.245 788.599 245.35 784.735 245.35C780.536 245.35 777.387 246.861 775.287 249.885C773.215 252.88 772.152 257.541 772.096 263.868V268.487C772.096 275.094 773.09 279.923 775.077 282.975C777.093 286.026 780.256 287.552 784.567 287.552C788.459 287.552 791.356 286.67 793.26 284.906C795.191 283.115 796.297 280.357 796.577 276.634H809.175ZM867.67 267.815C867.67 273.834 866.606 279.111 864.479 283.646C862.351 288.182 859.299 291.681 855.324 294.145C851.377 296.608 846.842 297.84 841.719 297.84C836.652 297.84 832.131 296.622 828.155 294.187C824.18 291.751 821.101 288.28 818.917 283.772C816.733 279.237 815.628 274.03 815.6 268.151V265.128C815.6 259.109 816.677 253.818 818.833 249.255C821.017 244.664 824.082 241.15 828.029 238.715C832.005 236.251 836.54 235.02 841.635 235.02C846.73 235.02 851.251 236.251 855.198 238.715C859.174 241.15 862.239 244.664 864.395 249.255C866.578 253.818 867.67 259.095 867.67 265.086V267.815ZM854.904 265.044C854.904 258.633 853.757 253.762 851.461 250.431C849.165 247.099 845.89 245.434 841.635 245.434C837.408 245.434 834.146 247.085 831.851 250.389C829.555 253.664 828.393 258.479 828.365 264.834V267.815C828.365 274.058 829.513 278.901 831.809 282.345C834.104 285.788 837.408 287.51 841.719 287.51C845.946 287.51 849.193 285.858 851.461 282.555C853.729 279.223 854.876 274.38 854.904 268.025V265.044ZM876.824 297V235.859H895.637C901.012 235.859 905.813 237.077 910.04 239.513C914.295 241.92 917.613 245.364 919.992 249.843C922.372 254.294 923.562 259.361 923.562 265.044V267.857C923.562 273.54 922.386 278.593 920.034 283.017C917.711 287.44 914.421 290.869 910.166 293.305C905.911 295.74 901.11 296.972 895.763 297H876.824ZM889.422 246.063V286.88H895.511C900.438 286.88 904.203 285.27 906.807 282.051C909.41 278.831 910.74 274.226 910.796 268.235V265.002C910.796 258.787 909.508 254.084 906.933 250.893C904.357 247.673 900.592 246.063 895.637 246.063H889.422ZM969.543 270.503H945.355V286.88H973.742V297H932.758V235.859H973.658V246.063H945.355V260.635H969.543V270.503Z" fill="white"/>
<path d="M625.459 371V309.859H646.875C654.294 309.859 659.921 311.287 663.756 314.143C667.591 316.97 669.509 321.127 669.509 326.614C669.509 329.61 668.739 332.255 667.199 334.551C665.66 336.818 663.518 338.484 660.774 339.548C663.91 340.332 666.373 341.913 668.165 344.293C669.985 346.673 670.895 349.584 670.895 353.027C670.895 358.906 669.019 363.357 665.268 366.381C661.516 369.404 656.169 370.944 649.227 371H625.459ZM638.057 344.377V360.88H648.849C651.816 360.88 654.126 360.18 655.777 358.78C657.457 357.353 658.297 355.393 658.297 352.901C658.297 347.302 655.399 344.461 649.604 344.377H638.057ZM638.057 335.475H647.379C653.734 335.363 656.911 332.829 656.911 327.874C656.911 325.103 656.099 323.115 654.476 321.911C652.88 320.679 650.346 320.063 646.875 320.063H638.057V335.475ZM726.66 309.859V350.13C726.66 356.821 724.561 362.112 720.361 366.003C716.19 369.894 710.479 371.84 703.229 371.84C696.09 371.84 690.421 369.95 686.222 366.171C682.022 362.392 679.881 357.199 679.797 350.592V309.859H692.395V350.214C692.395 354.217 693.346 357.143 695.25 358.99C697.182 360.81 699.841 361.72 703.229 361.72C710.311 361.72 713.909 357.996 714.021 350.55V309.859H726.66ZM768.694 354.959C768.694 352.579 767.854 350.76 766.175 349.5C764.495 348.212 761.472 346.868 757.104 345.469C752.737 344.041 749.28 342.641 746.732 341.27C739.79 337.518 736.318 332.465 736.318 326.11C736.318 322.807 737.242 319.868 739.09 317.292C740.965 314.688 743.639 312.659 747.11 311.203C750.61 309.747 754.529 309.02 758.868 309.02C763.235 309.02 767.127 309.817 770.542 311.413C773.957 312.981 776.603 315.206 778.479 318.09C780.382 320.973 781.334 324.249 781.334 327.916H768.736C768.736 325.117 767.854 322.947 766.091 321.407C764.327 319.84 761.85 319.056 758.658 319.056C755.579 319.056 753.185 319.714 751.478 321.029C749.77 322.317 748.916 324.025 748.916 326.152C748.916 328.14 749.91 329.806 751.897 331.149C753.913 332.493 756.867 333.753 760.758 334.929C767.924 337.084 773.146 339.758 776.421 342.949C779.696 346.141 781.334 350.116 781.334 354.875C781.334 360.166 779.332 364.323 775.329 367.347C771.326 370.342 765.937 371.84 759.162 371.84C754.459 371.84 750.176 370.986 746.312 369.278C742.449 367.543 739.496 365.177 737.452 362.182C735.437 359.186 734.429 355.715 734.429 351.768H747.068C747.068 358.514 751.1 361.888 759.162 361.888C762.158 361.888 764.495 361.286 766.175 360.082C767.854 358.85 768.694 357.143 768.694 354.959ZM803.296 371H790.698V309.859H803.296V371ZM864.73 371H852.133L827.609 330.771V371H815.012V309.859H827.609L852.175 350.172V309.859H864.73V371ZM912.518 344.503H888.33V360.88H916.717V371H875.732V309.859H916.633V320.063H888.33V334.635H912.518V344.503ZM955.812 354.959C955.812 352.579 954.972 350.76 953.292 349.5C951.612 348.212 948.589 346.868 944.222 345.469C939.854 344.041 936.397 342.641 933.85 341.27C926.907 337.518 923.436 332.465 923.436 326.11C923.436 322.807 924.359 319.868 926.207 317.292C928.083 314.688 930.756 312.659 934.228 311.203C937.727 309.747 941.646 309.02 945.985 309.02C950.353 309.02 954.244 309.817 957.659 311.413C961.075 312.981 963.72 315.206 965.596 318.09C967.499 320.973 968.451 324.249 968.451 327.916H955.854C955.854 325.117 954.972 322.947 953.208 321.407C951.444 319.84 948.967 319.056 945.775 319.056C942.696 319.056 940.302 319.714 938.595 321.029C936.887 322.317 936.033 324.025 936.033 326.152C936.033 328.14 937.027 329.806 939.015 331.149C941.03 332.493 943.984 333.753 947.875 334.929C955.042 337.084 960.263 339.758 963.538 342.949C966.813 346.141 968.451 350.116 968.451 354.875C968.451 360.166 966.45 364.323 962.446 367.347C958.443 370.342 953.054 371.84 946.279 371.84C941.576 371.84 937.293 370.986 933.43 369.278C929.566 367.543 926.613 365.177 924.569 362.182C922.554 359.186 921.546 355.715 921.546 351.768H934.186C934.186 358.514 938.217 361.888 946.279 361.888C949.275 361.888 951.612 361.286 953.292 360.082C954.972 358.85 955.812 357.143 955.812 354.959ZM1008.72 354.959C1008.72 352.579 1007.88 350.76 1006.2 349.5C1004.52 348.212 1001.5 346.868 997.132 345.469C992.765 344.041 989.307 342.641 986.76 341.27C979.817 337.518 976.346 332.465 976.346 326.11C976.346 322.807 977.27 319.868 979.117 317.292C980.993 314.688 983.666 312.659 987.138 311.203C990.637 309.747 994.556 309.02 998.896 309.02C1003.26 309.02 1007.15 309.817 1010.57 311.413C1013.98 312.981 1016.63 315.206 1018.51 318.09C1020.41 320.973 1021.36 324.249 1021.36 327.916H1008.76C1008.76 325.117 1007.88 322.947 1006.12 321.407C1004.35 319.84 1001.88 319.056 998.686 319.056C995.606 319.056 993.213 319.714 991.505 321.029C989.797 322.317 988.943 324.025 988.943 326.152C988.943 328.14 989.937 329.806 991.925 331.149C993.94 332.493 996.894 333.753 1000.79 334.929C1007.95 337.084 1013.17 339.758 1016.45 342.949C1019.72 346.141 1021.36 350.116 1021.36 354.875C1021.36 360.166 1019.36 364.323 1015.36 367.347C1011.35 370.342 1005.96 371.84 999.189 371.84C994.486 371.84 990.203 370.986 986.34 369.278C982.477 367.543 979.523 365.177 977.479 362.182C975.464 359.186 974.456 355.715 974.456 351.768H987.096C987.096 358.514 991.127 361.888 999.189 361.888C1002.18 361.888 1004.52 361.286 1006.2 360.082C1007.88 358.85 1008.72 357.143 1008.72 354.959Z" fill="white"/>
<path d="M673.456 424.634C672.98 431.213 670.545 436.392 666.149 440.171C661.782 443.95 656.015 445.84 648.849 445.84C641.01 445.84 634.837 443.208 630.33 437.945C625.851 432.654 623.611 425.404 623.611 416.193V412.456C623.611 406.577 624.647 401.398 626.719 396.919C628.79 392.44 631.744 389.01 635.579 386.631C639.442 384.223 643.922 383.02 649.017 383.02C656.071 383.02 661.754 384.909 666.065 388.688C670.377 392.468 672.868 397.773 673.54 404.604H660.942C660.634 400.656 659.529 397.801 657.625 396.037C655.749 394.245 652.88 393.35 649.017 393.35C644.817 393.35 641.668 394.861 639.568 397.885C637.497 400.88 636.433 405.541 636.377 411.868V416.487C636.377 423.094 637.371 427.923 639.358 430.975C641.374 434.026 644.537 435.552 648.849 435.552C652.74 435.552 655.637 434.67 657.541 432.906C659.473 431.115 660.578 428.357 660.858 424.634H673.456ZM716.246 432.402H694.158L689.959 445H676.563L699.323 383.859H710.997L733.883 445H720.487L716.246 432.402ZM697.56 422.198H712.845L705.16 399.312L697.56 422.198ZM762.228 422.618H752.191V445H739.594V383.859H762.312C769.534 383.859 775.105 385.469 779.024 388.688C782.944 391.908 784.903 396.457 784.903 402.336C784.903 406.507 783.993 409.993 782.174 412.792C780.382 415.563 777.653 417.775 773.985 419.427L787.213 444.412V445H773.691L762.228 422.618ZM752.191 412.414H762.354C765.517 412.414 767.966 411.616 769.702 410.021C771.438 408.397 772.306 406.171 772.306 403.344C772.306 400.46 771.48 398.193 769.828 396.541C768.204 394.889 765.699 394.063 762.312 394.063H752.191V412.414ZM794.52 445V383.859H813.332C818.707 383.859 823.508 385.077 827.735 387.513C831.991 389.92 835.308 393.364 837.688 397.843C840.067 402.294 841.257 407.361 841.257 413.044V415.857C841.257 421.54 840.081 426.593 837.729 431.017C835.406 435.44 832.117 438.869 827.861 441.305C823.606 443.74 818.805 444.972 813.458 445H794.52ZM807.117 394.063V434.88H813.206C818.133 434.88 821.898 433.27 824.502 430.051C827.105 426.831 828.435 422.226 828.491 416.235V413.002C828.491 406.787 827.203 402.084 824.628 398.893C822.052 395.673 818.287 394.063 813.332 394.063H807.117Z" fill="white"/>
<path d="M626.698 543.424V554H623.136V526.984H633.1C636.056 526.984 638.369 527.739 640.039 529.248C641.721 530.757 642.562 532.755 642.562 535.241C642.562 537.864 641.74 539.886 640.095 541.309C638.462 542.719 636.118 543.424 633.062 543.424H626.698ZM626.698 540.511H633.1C635.005 540.511 636.464 540.065 637.479 539.175C638.493 538.272 639 536.973 639 535.278C639 533.67 638.493 532.384 637.479 531.419C636.464 530.454 635.073 529.953 633.304 529.916H626.698V540.511ZM650.003 536.354C651.524 534.487 653.504 533.553 655.94 533.553C660.183 533.553 662.323 535.946 662.36 540.733V554H658.928V540.715C658.915 539.268 658.581 538.198 657.926 537.505C657.283 536.812 656.274 536.466 654.901 536.466C653.788 536.466 652.811 536.763 651.97 537.356C651.129 537.95 650.473 538.729 650.003 539.694V554H646.57V525.5H650.003V536.354ZM666.591 543.776C666.591 541.81 666.974 540.041 667.741 538.47C668.521 536.899 669.597 535.687 670.97 534.833C672.355 533.979 673.932 533.553 675.701 533.553C678.435 533.553 680.643 534.499 682.325 536.392C684.02 538.284 684.867 540.801 684.867 543.943V544.185C684.867 546.139 684.49 547.896 683.735 549.454C682.993 551 681.923 552.206 680.525 553.072C679.14 553.938 677.544 554.371 675.738 554.371C673.017 554.371 670.809 553.425 669.114 551.532C667.432 549.64 666.591 547.135 666.591 544.018V543.776ZM670.042 544.185C670.042 546.411 670.555 548.199 671.582 549.547C672.621 550.895 674.007 551.569 675.738 551.569C677.482 551.569 678.868 550.889 679.895 549.528C680.921 548.155 681.435 546.238 681.435 543.776C681.435 541.575 680.909 539.793 679.857 538.433C678.818 537.06 677.433 536.373 675.701 536.373C674.007 536.373 672.64 537.047 671.601 538.396C670.562 539.744 670.042 541.674 670.042 544.185ZM692.419 533.924L692.53 536.447C694.064 534.518 696.068 533.553 698.542 533.553C702.785 533.553 704.925 535.946 704.962 540.733V554H701.529V540.715C701.517 539.268 701.183 538.198 700.527 537.505C699.884 536.812 698.876 536.466 697.503 536.466C696.39 536.466 695.412 536.763 694.571 537.356C693.73 537.95 693.075 538.729 692.604 539.694V554H689.172V533.924H692.419ZM718.47 554.371C715.748 554.371 713.534 553.48 711.827 551.699C710.12 549.906 709.267 547.512 709.267 544.519V543.888C709.267 541.896 709.644 540.121 710.398 538.562C711.165 536.992 712.229 535.767 713.59 534.889C714.963 533.998 716.447 533.553 718.043 533.553C720.653 533.553 722.682 534.412 724.129 536.132C725.576 537.851 726.3 540.313 726.3 543.517V544.945H712.699C712.749 546.924 713.324 548.526 714.425 549.751C715.538 550.963 716.948 551.569 718.655 551.569C719.868 551.569 720.894 551.322 721.735 550.827C722.576 550.332 723.312 549.677 723.943 548.86L726.04 550.493C724.358 553.078 721.834 554.371 718.47 554.371ZM718.043 536.373C716.658 536.373 715.495 536.88 714.555 537.895C713.615 538.896 713.033 540.307 712.811 542.125H722.867V541.865C722.768 540.121 722.298 538.773 721.457 537.82C720.616 536.855 719.478 536.373 718.043 536.373Z" fill="white"/>
<path d="M638.054 591.949H626.735L624.193 599H620.52L630.836 571.984H633.953L644.288 599H640.633L638.054 591.949ZM627.812 589.018H636.996L632.395 576.382L627.812 589.018ZM646.552 588.795C646.552 585.715 647.282 583.241 648.741 581.373C650.201 579.493 652.112 578.553 654.475 578.553C656.825 578.553 658.687 579.357 660.06 580.965V570.5H663.492V599H660.338L660.171 596.848C658.798 598.53 656.887 599.371 654.438 599.371C652.112 599.371 650.213 598.419 648.741 596.514C647.282 594.609 646.552 592.122 646.552 589.055V588.795ZM649.984 589.185C649.984 591.461 650.454 593.242 651.395 594.528C652.335 595.815 653.633 596.458 655.291 596.458C657.468 596.458 659.058 595.481 660.06 593.526V584.305C659.033 582.412 657.456 581.466 655.328 581.466C653.646 581.466 652.335 582.115 651.395 583.414C650.454 584.713 649.984 586.636 649.984 589.185ZM668.001 588.795C668.001 585.715 668.731 583.241 670.19 581.373C671.65 579.493 673.561 578.553 675.924 578.553C678.274 578.553 680.136 579.357 681.509 580.965V570.5H684.941V599H681.787L681.62 596.848C680.247 598.53 678.336 599.371 675.887 599.371C673.561 599.371 671.662 598.419 670.19 596.514C668.731 594.609 668.001 592.122 668.001 589.055V588.795ZM671.434 589.185C671.434 591.461 671.904 593.242 672.844 594.528C673.784 595.815 675.083 596.458 676.74 596.458C678.917 596.458 680.507 595.481 681.509 593.526V584.305C680.482 582.412 678.905 581.466 676.777 581.466C675.095 581.466 673.784 582.115 672.844 583.414C671.904 584.713 671.434 586.636 671.434 589.185ZM699.989 582.004C699.47 581.917 698.907 581.874 698.301 581.874C696.049 581.874 694.522 582.833 693.718 584.75V599H690.285V578.924H693.625L693.681 581.243C694.806 579.45 696.402 578.553 698.468 578.553C699.136 578.553 699.643 578.639 699.989 578.812V582.004ZM711.122 599.371C708.401 599.371 706.187 598.48 704.479 596.699C702.772 594.906 701.919 592.512 701.919 589.519V588.888C701.919 586.896 702.296 585.121 703.051 583.562C703.818 581.992 704.882 580.767 706.242 579.889C707.615 578.998 709.1 578.553 710.695 578.553C713.305 578.553 715.334 579.412 716.781 581.132C718.229 582.851 718.952 585.313 718.952 588.517V589.945H705.352C705.401 591.924 705.976 593.526 707.077 594.751C708.19 595.963 709.601 596.569 711.308 596.569C712.52 596.569 713.547 596.322 714.388 595.827C715.229 595.332 715.965 594.677 716.596 593.86L718.692 595.493C717.01 598.078 714.487 599.371 711.122 599.371ZM710.695 581.373C709.31 581.373 708.147 581.88 707.207 582.895C706.267 583.896 705.686 585.307 705.463 587.125H715.52V586.865C715.421 585.121 714.951 583.773 714.109 582.82C713.268 581.855 712.13 581.373 710.695 581.373ZM734.631 593.675C734.631 592.747 734.278 592.03 733.573 591.522C732.881 591.003 731.662 590.558 729.918 590.187C728.186 589.815 726.807 589.37 725.78 588.851C724.766 588.331 724.011 587.713 723.517 586.995C723.034 586.278 722.793 585.424 722.793 584.435C722.793 582.789 723.486 581.398 724.871 580.26C726.269 579.122 728.05 578.553 730.215 578.553C732.491 578.553 734.334 579.14 735.744 580.315C737.167 581.491 737.878 582.993 737.878 584.824H734.427C734.427 583.884 734.025 583.074 733.221 582.394C732.429 581.713 731.427 581.373 730.215 581.373C728.965 581.373 727.988 581.645 727.283 582.189C726.578 582.734 726.226 583.445 726.226 584.323C726.226 585.152 726.553 585.777 727.209 586.197C727.865 586.618 729.046 587.02 730.753 587.403C732.472 587.787 733.864 588.244 734.928 588.776C735.992 589.308 736.777 589.951 737.284 590.706C737.804 591.448 738.063 592.357 738.063 593.434C738.063 595.227 737.346 596.668 735.911 597.757C734.476 598.833 732.615 599.371 730.326 599.371C728.718 599.371 727.296 599.087 726.059 598.518C724.822 597.949 723.851 597.157 723.146 596.143C722.453 595.116 722.106 594.009 722.106 592.821H725.539C725.601 593.972 726.059 594.887 726.912 595.567C727.778 596.235 728.916 596.569 730.326 596.569C731.625 596.569 732.664 596.31 733.443 595.79C734.235 595.258 734.631 594.553 734.631 593.675ZM754.225 593.675C754.225 592.747 753.872 592.03 753.167 591.522C752.474 591.003 751.256 590.558 749.512 590.187C747.78 589.815 746.401 589.37 745.374 588.851C744.36 588.331 743.605 587.713 743.11 586.995C742.628 586.278 742.387 585.424 742.387 584.435C742.387 582.789 743.079 581.398 744.465 580.26C745.863 579.122 747.644 578.553 749.809 578.553C752.085 578.553 753.928 579.14 755.338 580.315C756.76 581.491 757.472 582.993 757.472 584.824H754.021C754.021 583.884 753.618 583.074 752.814 582.394C752.023 581.713 751.021 581.373 749.809 581.373C748.559 581.373 747.582 581.645 746.877 582.189C746.172 582.734 745.819 583.445 745.819 584.323C745.819 585.152 746.147 585.777 746.803 586.197C747.458 586.618 748.64 587.02 750.347 587.403C752.066 587.787 753.458 588.244 754.521 588.776C755.585 589.308 756.371 589.951 756.878 590.706C757.397 591.448 757.657 592.357 757.657 593.434C757.657 595.227 756.94 596.668 755.505 597.757C754.07 598.833 752.208 599.371 749.92 599.371C748.312 599.371 746.889 599.087 745.652 598.518C744.415 597.949 743.444 597.157 742.739 596.143C742.047 595.116 741.7 594.009 741.7 592.821H745.133C745.195 593.972 745.652 594.887 746.506 595.567C747.372 596.235 748.51 596.569 749.92 596.569C751.219 596.569 752.258 596.31 753.037 595.79C753.829 595.258 754.225 594.553 754.225 593.675Z" fill="white"/>
<path d="M628.962 635.483L629.481 639.046L630.242 635.836L635.586 616.984H638.592L643.806 635.836L644.548 639.102L645.123 635.465L649.316 616.984H652.897L646.348 644H643.101L637.534 624.313L637.107 622.254L636.681 624.313L630.91 644H627.663L621.132 616.984H624.694L628.962 635.483ZM664.067 644.371C661.346 644.371 659.132 643.48 657.425 641.699C655.718 639.906 654.864 637.512 654.864 634.519V633.888C654.864 631.896 655.242 630.121 655.996 628.562C656.763 626.992 657.827 625.767 659.188 624.889C660.561 623.998 662.045 623.553 663.641 623.553C666.251 623.553 668.279 624.412 669.727 626.132C671.174 627.851 671.897 630.313 671.897 633.517V634.945H658.297C658.346 636.924 658.922 638.526 660.022 639.751C661.136 640.963 662.546 641.569 664.253 641.569C665.465 641.569 666.492 641.322 667.333 640.827C668.174 640.332 668.91 639.677 669.541 638.86L671.638 640.493C669.955 643.078 667.432 644.371 664.067 644.371ZM663.641 626.373C662.255 626.373 661.092 626.88 660.152 627.895C659.212 628.896 658.631 630.307 658.408 632.125H668.465V631.865C668.366 630.121 667.896 628.773 667.055 627.82C666.214 626.855 665.076 626.373 663.641 626.373ZM692.883 634.185C692.883 637.252 692.178 639.72 690.768 641.588C689.357 643.443 687.465 644.371 685.09 644.371C682.554 644.371 680.593 643.474 679.208 641.681L679.041 644H675.887V615.5H679.319V626.132C680.705 624.412 682.616 623.553 685.053 623.553C687.49 623.553 689.401 624.474 690.786 626.317C692.184 628.16 692.883 630.684 692.883 633.888V634.185ZM689.45 633.795C689.45 631.457 688.999 629.651 688.096 628.377C687.193 627.103 685.894 626.466 684.199 626.466C681.936 626.466 680.309 627.517 679.319 629.62V638.304C680.371 640.407 682.01 641.458 684.236 641.458C685.882 641.458 687.162 640.821 688.077 639.547C688.993 638.273 689.45 636.355 689.45 633.795ZM708.914 638.675C708.914 637.747 708.562 637.03 707.856 636.522C707.164 636.003 705.945 635.558 704.201 635.187C702.469 634.815 701.09 634.37 700.063 633.851C699.049 633.331 698.295 632.713 697.8 631.995C697.317 631.278 697.076 630.424 697.076 629.435C697.076 627.789 697.769 626.398 699.154 625.26C700.552 624.122 702.333 623.553 704.498 623.553C706.774 623.553 708.617 624.14 710.027 625.315C711.45 626.491 712.161 627.993 712.161 629.824H708.71C708.71 628.884 708.308 628.074 707.504 627.394C706.712 626.713 705.71 626.373 704.498 626.373C703.249 626.373 702.271 626.645 701.566 627.189C700.861 627.734 700.509 628.445 700.509 629.323C700.509 630.152 700.837 630.777 701.492 631.197C702.148 631.618 703.329 632.02 705.036 632.403C706.756 632.787 708.147 633.244 709.211 633.776C710.275 634.308 711.06 634.951 711.567 635.706C712.087 636.448 712.347 637.357 712.347 638.434C712.347 640.227 711.629 641.668 710.194 642.757C708.759 643.833 706.898 644.371 704.609 644.371C703.001 644.371 701.579 644.087 700.342 643.518C699.105 642.949 698.134 642.157 697.429 641.143C696.736 640.116 696.39 639.009 696.39 637.821H699.822C699.884 638.972 700.342 639.887 701.195 640.567C702.061 641.235 703.199 641.569 704.609 641.569C705.908 641.569 706.947 641.31 707.727 640.79C708.518 640.258 708.914 639.553 708.914 638.675ZM720.548 644H717.115V623.924H720.548V644ZM716.837 618.599C716.837 618.042 717.004 617.572 717.338 617.188C717.684 616.805 718.191 616.613 718.859 616.613C719.527 616.613 720.035 616.805 720.381 617.188C720.727 617.572 720.9 618.042 720.9 618.599C720.9 619.155 720.727 619.619 720.381 619.99C720.035 620.361 719.527 620.547 718.859 620.547C718.191 620.547 717.684 620.361 717.338 619.99C717.004 619.619 716.837 619.155 716.837 618.599ZM730.716 619.062V623.924H734.464V626.577H730.716V639.027C730.716 639.831 730.883 640.438 731.217 640.846C731.551 641.242 732.12 641.439 732.924 641.439C733.32 641.439 733.864 641.365 734.557 641.217V644C733.654 644.247 732.775 644.371 731.922 644.371C730.388 644.371 729.231 643.907 728.452 642.979C727.673 642.052 727.283 640.734 727.283 639.027V626.577H723.628V623.924H727.283V619.062H730.716ZM746.821 644.371C744.1 644.371 741.886 643.48 740.179 641.699C738.472 639.906 737.618 637.512 737.618 634.519V633.888C737.618 631.896 737.995 630.121 738.75 628.562C739.517 626.992 740.581 625.767 741.941 624.889C743.314 623.998 744.799 623.553 746.395 623.553C749.005 623.553 751.033 624.412 752.48 626.132C753.928 627.851 754.651 630.313 754.651 633.517V634.945H741.051C741.1 636.924 741.675 638.526 742.776 639.751C743.89 640.963 745.3 641.569 747.007 641.569C748.219 641.569 749.246 641.322 750.087 640.827C750.928 640.332 751.664 639.677 752.295 638.86L754.392 640.493C752.709 643.078 750.186 644.371 746.821 644.371ZM746.395 626.373C745.009 626.373 743.846 626.88 742.906 627.895C741.966 628.896 741.385 630.307 741.162 632.125H751.219V631.865C751.12 630.121 750.65 628.773 749.809 627.82C748.967 626.855 747.829 626.373 746.395 626.373Z" fill="white"/>
<path d="M638.406 676.513H626.698V686.087H640.299V689H623.136V661.984H640.113V664.916H626.698V673.6H638.406V676.513ZM647.424 668.924L647.517 671.15C648.989 669.419 650.974 668.553 653.473 668.553C656.281 668.553 658.192 669.629 659.206 671.781C659.874 670.816 660.74 670.037 661.804 669.443C662.88 668.85 664.148 668.553 665.607 668.553C670.011 668.553 672.25 670.884 672.324 675.548V689H668.892V675.752C668.892 674.317 668.564 673.247 667.908 672.542C667.253 671.825 666.152 671.466 664.605 671.466C663.331 671.466 662.274 671.849 661.433 672.616C660.591 673.371 660.103 674.391 659.967 675.678V689H656.516V675.845C656.516 672.925 655.087 671.466 652.229 671.466C649.978 671.466 648.438 672.424 647.609 674.342V689H644.177V668.924H647.424ZM689.914 689C689.716 688.604 689.555 687.899 689.432 686.885C687.836 688.542 685.931 689.371 683.717 689.371C681.738 689.371 680.111 688.814 678.837 687.701C677.575 686.576 676.944 685.153 676.944 683.434C676.944 681.343 677.736 679.723 679.319 678.572C680.915 677.41 683.154 676.828 686.036 676.828H689.376V675.251C689.376 674.051 689.017 673.099 688.3 672.394C687.582 671.676 686.525 671.317 685.127 671.317C683.902 671.317 682.876 671.627 682.047 672.245C681.218 672.864 680.804 673.612 680.804 674.49H677.353C677.353 673.488 677.705 672.523 678.41 671.596C679.128 670.656 680.092 669.913 681.305 669.369C682.529 668.825 683.871 668.553 685.331 668.553C687.644 668.553 689.456 669.134 690.768 670.297C692.079 671.447 692.759 673.037 692.809 675.065V684.306C692.809 686.149 693.044 687.615 693.514 688.703V689H689.914ZM684.218 686.384C685.294 686.384 686.314 686.105 687.279 685.549C688.244 684.992 688.943 684.269 689.376 683.378V679.259H686.686C682.48 679.259 680.377 680.49 680.377 682.951C680.377 684.027 680.736 684.868 681.453 685.475C682.171 686.081 683.092 686.384 684.218 686.384ZM701.919 689H698.486V668.924H701.919V689ZM698.208 663.599C698.208 663.042 698.375 662.572 698.709 662.188C699.055 661.805 699.562 661.613 700.23 661.613C700.898 661.613 701.406 661.805 701.752 662.188C702.098 662.572 702.271 663.042 702.271 663.599C702.271 664.155 702.098 664.619 701.752 664.99C701.406 665.361 700.898 665.547 700.23 665.547C699.562 665.547 699.055 665.361 698.709 664.99C698.375 664.619 698.208 664.155 698.208 663.599ZM711.159 689H707.727V660.5H711.159V689Z" fill="white"/>
</svg>
