<svg width="1000" height="1000" viewBox="0 0 1000 1000" fill="none" xmlns="http://www.w3.org/2000/svg">
<circle cx="404" cy="605" r="380" fill="#333333"/>
<rect x="164" y="335" width="479" height="479" rx="41.3255" fill="white"/>
<path d="M513.67 368.529H609.47V464.329" stroke="#C2C2C2" stroke-width="19.16"/>
<path d="M293.33 368.529H197.53V464.329" stroke="#C2C2C2" stroke-width="19.16"/>
<path d="M513.67 780.469H609.47V684.669" stroke="#C2C2C2" stroke-width="19.16"/>
<path d="M293.33 780.469H197.53V684.669" stroke="#C2C2C2" stroke-width="19.16"/>
<path d="M289.613 535.71L281.686 512.637L273.26 535.71H289.613ZM277.988 504.887H285.987L304.936 557.111H297.186L291.889 541.469H271.234L265.581 557.111H258.329L277.988 504.887ZM314.57 538.518C314.57 542.595 315.435 546.008 317.165 548.757C318.895 551.506 321.668 552.881 325.484 552.881C328.447 552.881 330.876 551.613 332.772 549.077C334.692 546.517 335.652 542.855 335.652 538.092C335.652 533.28 334.668 529.725 332.701 527.426C330.734 525.104 328.304 523.942 325.413 523.942C322.19 523.942 319.571 525.175 317.556 527.64C315.565 530.105 314.57 533.731 314.57 538.518ZM324.204 518.361C327.119 518.361 329.561 518.977 331.528 520.21C332.665 520.921 333.957 522.165 335.403 523.942V504.709H341.553V557.111H335.794V551.814C334.301 554.161 332.535 555.855 330.497 556.898C328.459 557.941 326.124 558.462 323.493 558.462C319.251 558.462 315.577 556.685 312.473 553.13C309.368 549.551 307.815 544.799 307.815 538.874C307.815 533.328 309.226 528.529 312.046 524.476C314.89 520.399 318.943 518.361 324.204 518.361ZM355.098 538.518C355.098 542.595 355.963 546.008 357.693 548.757C359.423 551.506 362.196 552.881 366.012 552.881C368.975 552.881 371.404 551.613 373.3 549.077C375.22 546.517 376.18 542.855 376.18 538.092C376.18 533.28 375.196 529.725 373.229 527.426C371.262 525.104 368.832 523.942 365.941 523.942C362.718 523.942 360.099 525.175 358.084 527.64C356.093 530.105 355.098 533.731 355.098 538.518ZM364.732 518.361C367.647 518.361 370.089 518.977 372.056 520.21C373.193 520.921 374.485 522.165 375.931 523.942V504.709H382.081V557.111H376.322V551.814C374.829 554.161 373.063 555.855 371.025 556.898C368.986 557.941 366.652 558.462 364.021 558.462C359.779 558.462 356.105 556.685 353 553.13C349.896 549.551 348.343 544.799 348.343 538.874C348.343 533.328 349.753 528.529 352.574 524.476C355.418 520.399 359.471 518.361 364.732 518.361ZM435.62 519.036H442.695C441.794 521.478 439.792 527.047 436.687 535.745C434.364 542.287 432.421 547.619 430.857 551.743C427.159 561.46 424.552 567.386 423.035 569.519C421.519 571.652 418.912 572.718 415.214 572.718C414.314 572.718 413.615 572.683 413.117 572.611C412.643 572.54 412.05 572.41 411.339 572.22V566.39C412.453 566.698 413.259 566.888 413.757 566.959C414.254 567.03 414.693 567.066 415.072 567.066C416.257 567.066 417.122 566.864 417.667 566.461C418.236 566.082 418.71 565.608 419.089 565.039C419.208 564.85 419.634 563.878 420.369 562.124C421.104 560.37 421.637 559.067 421.969 558.213L407.891 519.036H415.143L425.346 550.037L435.62 519.036ZM463.35 552.987C467.592 552.987 470.496 551.388 472.06 548.188C473.648 544.965 474.442 541.386 474.442 537.452C474.442 533.897 473.873 531.005 472.735 528.777C470.934 525.27 467.829 523.516 463.421 523.516C459.511 523.516 456.667 525.009 454.889 527.995C453.111 530.982 452.223 534.584 452.223 538.803C452.223 542.855 453.111 546.233 454.889 548.935C456.667 551.637 459.487 552.987 463.35 552.987ZM463.599 517.934C468.505 517.934 472.653 519.57 476.042 522.84C479.431 526.111 481.125 530.922 481.125 537.274C481.125 543.412 479.632 548.484 476.646 552.49C473.66 556.495 469.026 558.498 462.746 558.498C457.508 558.498 453.348 556.732 450.267 553.201C447.186 549.646 445.646 544.882 445.646 538.909C445.646 532.51 447.269 527.415 450.516 523.622C453.763 519.83 458.124 517.934 463.599 517.934ZM495.168 519.036V544.313C495.168 546.256 495.476 547.844 496.092 549.077C497.23 551.352 499.351 552.49 502.456 552.49C506.912 552.49 509.945 550.499 511.557 546.517C512.434 544.384 512.872 541.457 512.872 537.736V519.036H519.271V557.111H513.228L513.299 551.494C512.469 552.94 511.438 554.161 510.206 555.156C507.765 557.147 504.802 558.142 501.318 558.142C495.891 558.142 492.194 556.329 490.226 552.703C489.16 550.76 488.627 548.164 488.627 544.917V519.036H495.168ZM529.474 519.036H535.554V525.613C536.051 524.334 537.272 522.781 539.215 520.956C541.159 519.108 543.399 518.183 545.935 518.183C546.053 518.183 546.254 518.195 546.539 518.219C546.823 518.242 547.309 518.29 547.996 518.361V525.116C547.617 525.045 547.262 524.997 546.93 524.973C546.622 524.95 546.278 524.938 545.899 524.938C542.676 524.938 540.199 525.981 538.469 528.066C536.739 530.128 535.874 532.51 535.874 535.212V557.111H529.474V519.036Z" fill="#C2C2C2"/>
<path d="M290.256 643.4C287.909 644.182 285.101 644.573 281.83 644.573C275.004 644.573 269.364 642.535 264.908 638.458C259.504 633.552 256.802 626.347 256.802 616.843C256.802 607.268 259.575 600.028 265.121 595.122C269.648 591.116 275.277 589.114 282.008 589.114C288.786 589.114 294.474 591.235 299.072 595.477C304.381 600.383 307.036 607.244 307.036 616.061C307.036 620.73 306.467 624.641 305.329 627.793C304.405 630.803 303.042 633.303 301.241 635.294L307.284 640.947L301.561 646.919L295.233 640.947C293.313 642.108 291.654 642.926 290.256 643.4ZM287.909 633.943L282.612 628.895L288.265 622.993L293.562 628.042C294.391 626.335 294.972 624.842 295.304 623.562C295.825 621.643 296.086 619.403 296.086 616.843C296.086 610.965 294.877 606.427 292.46 603.227C290.066 600.004 286.558 598.392 281.937 598.392C277.6 598.392 274.139 599.933 271.556 603.014C268.973 606.095 267.681 610.705 267.681 616.843C267.681 624.024 269.529 629.167 273.227 632.272C275.621 634.287 278.488 635.294 281.83 635.294C283.086 635.294 284.295 635.14 285.456 634.832C286.096 634.666 286.914 634.37 287.909 633.943ZM337.68 622.567H326.375V643.115H315.674V590.713H341.378C345.051 590.784 347.872 591.235 349.839 592.064C351.83 592.894 353.512 594.114 354.887 595.726C356.025 597.053 356.925 598.523 357.589 600.134C358.252 601.746 358.584 603.583 358.584 605.645C358.584 608.133 357.956 610.586 356.7 613.004C355.444 615.397 353.37 617.092 350.479 618.087C352.896 619.059 354.603 620.446 355.598 622.247C356.617 624.024 357.127 626.75 357.127 630.424V633.943C357.127 636.337 357.221 637.96 357.411 638.814C357.695 640.165 358.359 641.16 359.402 641.8V643.115H347.35C347.018 641.954 346.781 641.018 346.639 640.307C346.355 638.837 346.201 637.332 346.177 635.792L346.106 630.921C346.058 627.58 345.442 625.352 344.257 624.238C343.096 623.124 340.904 622.567 337.68 622.567ZM344.328 613.039C346.509 612.044 347.599 610.077 347.599 607.138C347.599 603.962 346.544 601.829 344.435 600.739C343.25 600.122 341.472 599.814 339.102 599.814H326.375V613.892H338.782C341.247 613.892 343.096 613.608 344.328 613.039ZM421.011 618.265H410.631C410.441 616.82 409.955 615.516 409.173 614.355C408.035 612.79 406.27 612.008 403.876 612.008C400.463 612.008 398.129 613.703 396.872 617.092C396.209 618.893 395.877 621.287 395.877 624.273C395.877 627.117 396.209 629.404 396.872 631.135C398.081 634.358 400.356 635.97 403.698 635.97C406.068 635.97 407.751 635.33 408.746 634.05C409.742 632.77 410.346 631.111 410.559 629.073H420.905C420.668 632.154 419.554 635.069 417.563 637.818C414.387 642.25 409.683 644.466 403.449 644.466C397.216 644.466 392.63 642.618 389.691 638.92C386.752 635.223 385.283 630.424 385.283 624.522C385.283 617.862 386.906 612.684 390.153 608.986C393.4 605.289 397.88 603.441 403.591 603.441C408.45 603.441 412.42 604.531 415.501 606.711C418.606 608.892 420.443 612.743 421.011 618.265ZM460.331 609.271C463.601 613.371 465.237 618.218 465.237 623.811C465.237 629.499 463.601 634.37 460.331 638.423C457.06 642.452 452.095 644.466 445.435 644.466C438.775 644.466 433.81 642.452 430.539 638.423C427.268 634.37 425.633 629.499 425.633 623.811C425.633 618.218 427.268 613.371 430.539 609.271C433.81 605.171 438.775 603.121 445.435 603.121C452.095 603.121 457.06 605.171 460.331 609.271ZM445.399 611.688C442.437 611.688 440.15 612.743 438.538 614.852C436.95 616.938 436.156 619.924 436.156 623.811C436.156 627.698 436.95 630.696 438.538 632.806C440.15 634.915 442.437 635.97 445.399 635.97C448.362 635.97 450.637 634.915 452.225 632.806C453.813 630.696 454.607 627.698 454.607 623.811C454.607 619.924 453.813 616.938 452.225 614.852C450.637 612.743 448.362 611.688 445.399 611.688ZM507.791 590.784V643.115H497.943V637.747C496.498 640.046 494.85 641.717 493.002 642.76C491.153 643.803 488.854 644.324 486.105 644.324C481.578 644.324 477.762 642.499 474.658 638.849C471.576 635.176 470.036 630.471 470.036 624.735C470.036 618.123 471.553 612.921 474.586 609.129C477.644 605.337 481.72 603.441 486.816 603.441C489.162 603.441 491.248 603.962 493.073 605.005C494.898 606.024 496.379 607.446 497.517 609.271V590.784H507.791ZM480.488 623.989C480.488 627.568 481.199 630.424 482.621 632.557C484.019 634.713 486.152 635.792 489.02 635.792C491.888 635.792 494.068 634.725 495.561 632.592C497.054 630.459 497.801 627.698 497.801 624.309C497.801 619.569 496.604 616.18 494.21 614.141C492.741 612.909 491.035 612.293 489.091 612.293C486.129 612.293 483.948 613.418 482.55 615.67C481.175 617.898 480.488 620.671 480.488 623.989ZM550.203 631.739C549.942 634.038 548.745 636.372 546.612 638.742C543.294 642.511 538.649 644.395 532.676 644.395C527.747 644.395 523.398 642.807 519.629 639.631C515.861 636.455 513.977 631.289 513.977 624.131C513.977 617.424 515.671 612.281 519.06 608.702C522.473 605.123 526.893 603.334 532.321 603.334C535.544 603.334 538.447 603.938 541.031 605.147C543.614 606.356 545.747 608.264 547.43 610.871C548.947 613.17 549.93 615.836 550.381 618.87C550.641 620.647 550.748 623.207 550.701 626.549H524.18C524.322 630.435 525.543 633.161 527.841 634.725C529.24 635.697 530.923 636.183 532.89 636.183C534.975 636.183 536.67 635.59 537.973 634.405C538.684 633.765 539.313 632.877 539.858 631.739H550.203ZM540.178 619.865C540.012 617.187 539.194 615.16 537.725 613.786C536.279 612.388 534.478 611.688 532.321 611.688C529.975 611.688 528.15 612.423 526.846 613.892C525.566 615.362 524.76 617.353 524.429 619.865H540.178Z" fill="#C2C2C2"/>
<circle cx="524" cy="111" r="96" fill="#333333"/>
<circle cx="741" cy="207" r="96" fill="#333333"/>
<circle cx="880" cy="424" r="96" fill="#333333"/>
<path d="M878.42 472.546L877.279 471.209L878.42 472.546ZM878.42 472.546L879.56 471.209L878.42 472.546ZM857.883 445.748L857.883 445.748L858.925 447.296C858.927 447.299 858.928 447.301 858.93 447.303C864.638 455.576 870.762 463.554 877.277 471.208L857.883 445.748ZM857.883 445.748C852.081 437.135 844.5 425.754 844.5 412.249C844.505 406.529 845.962 400.905 848.733 395.902C851.504 390.899 855.5 386.681 860.346 383.643C865.192 380.605 870.729 378.846 876.44 378.532C881.692 378.242 886.933 379.183 891.747 381.271C890.638 384.447 890.219 387.813 890.505 391.143C887.523 389.057 884.035 387.756 880.364 387.401C875.228 386.903 870.086 388.29 865.897 391.302C861.708 394.315 858.756 398.747 857.593 403.774C856.43 408.801 857.134 414.08 859.574 418.626C862.013 423.173 866.023 426.677 870.855 428.487C875.688 430.296 881.013 430.287 885.839 428.461C890.665 426.635 894.663 423.117 897.087 418.562C898.83 415.287 899.675 411.636 899.573 407.976C901.013 409.099 902.582 410.056 904.248 410.826C906.792 412.001 909.518 412.719 912.302 412.951C912.046 426.148 904.628 437.254 898.954 445.721L898.948 445.729M857.883 445.748L898.948 445.729M898.948 445.729L897.905 447.309M898.948 445.729L897.905 447.309M897.905 447.309C892.197 455.579 886.075 463.555 879.562 471.208L897.905 447.309Z" stroke="white" stroke-width="3"/>
<path d="M878.391 419.575C884.58 419.575 889.597 414.558 889.597 408.37C889.597 402.181 884.58 397.164 878.391 397.164C872.202 397.164 867.186 402.181 867.186 408.37C867.186 414.558 872.202 419.575 878.391 419.575Z" fill="white"/>
<path d="M914.441 404.042C922.737 404.042 929.462 397.317 929.462 389.021C929.462 380.725 922.737 374 914.441 374C906.145 374 899.42 380.725 899.42 389.021C899.42 397.317 906.145 404.042 914.441 404.042Z" fill="white"/>
<path d="M560.817 104.549V141.968L540.744 121.762L536.899 125.633L556.617 145.51H488.982L508.072 125.633L504.145 121.817L484.454 142.325V94.7751L518.354 128.736C519.376 129.758 520.758 130.332 522.199 130.332C523.64 130.332 525.023 129.758 526.045 128.736L550.126 104.631C548.204 104.126 546.366 103.34 544.671 102.298L522.145 124.837L488.027 90.6021H535.753C535.226 88.8188 534.942 86.9717 534.908 85.1113H484.454C483.008 85.1113 481.62 85.6898 480.598 86.7195C479.575 87.7493 479 89.1459 479 90.6021V145.51C479 146.966 479.575 148.363 480.598 149.393C481.62 150.422 483.008 151.001 484.454 151.001H560.817C562.263 151.001 563.651 150.422 564.674 149.393C565.696 148.363 566.271 146.966 566.271 145.51V102.133C564.581 103.204 562.743 104.018 560.817 104.549Z" fill="white"/>
<path d="M555.365 98.454C562.896 98.454 569.001 92.3082 569.001 84.727C569.001 77.1458 562.896 71 555.365 71C547.834 71 541.729 77.1458 541.729 84.727C541.729 92.3082 547.834 98.454 555.365 98.454Z" fill="white"/>
<path fill-rule="evenodd" clip-rule="evenodd" d="M764.419 159.613H761V163.194C761 164.191 760.191 165 759.194 165H726.806C725.809 165 725 164.191 725 163.194V159.613H718.581C715.837 159.613 713.613 161.837 713.613 164.581V257.419C713.613 260.163 715.837 262.387 718.581 262.387H764.419C767.163 262.387 769.387 260.163 769.387 257.419V164.581C769.387 161.837 767.163 159.613 764.419 159.613ZM764.419 156H761H725H718.581C713.842 156 710 159.842 710 164.581V257.419C710 262.158 713.842 266 718.581 266H764.419C769.158 266 773 262.158 773 257.419V164.581C773 159.842 769.158 156 764.419 156ZM743 247C739.686 247 737 249.686 737 253C737 256.314 739.686 259 743 259C746.314 259 749 256.314 749 253C749 249.686 746.314 247 743 247Z" fill="white"/>
<path d="M770.636 176.954C779.563 176.954 786.772 169.673 786.772 160.727C786.772 151.781 779.563 144.5 770.636 144.5C761.709 144.5 754.5 151.781 754.5 160.727C754.5 169.673 761.709 176.954 770.636 176.954Z" fill="white" stroke="#333333" stroke-width="5"/>
<path d="M326.995 910.05L335.136 882.534H344.059L330.728 921H323.226L309.788 882.534H318.747L326.995 910.05ZM389.813 904.149C389.292 909.671 387.253 913.985 383.698 917.089C380.143 920.17 375.415 921.711 369.513 921.711C365.39 921.711 361.752 920.739 358.599 918.796C355.471 916.829 353.053 914.044 351.347 910.441C349.641 906.839 348.752 902.656 348.681 897.892V893.057C348.681 888.175 349.546 883.873 351.276 880.152C353.006 876.431 355.483 873.563 358.706 871.549C361.953 869.534 365.698 868.527 369.94 868.527C375.652 868.527 380.25 870.079 383.734 873.184C387.218 876.289 389.244 880.674 389.813 886.338H380.854C380.428 882.617 379.337 879.939 377.583 878.304C375.853 876.644 373.306 875.815 369.94 875.815C366.029 875.815 363.02 877.249 360.91 880.117C358.825 882.961 357.758 887.144 357.711 892.666V897.252C357.711 902.845 358.706 907.111 360.697 910.05C362.711 912.989 365.65 914.459 369.513 914.459C373.045 914.459 375.699 913.665 377.477 912.077C379.254 910.489 380.38 907.846 380.854 904.149H389.813ZM420.031 921C419.652 920.265 419.32 919.068 419.036 917.409C416.286 920.277 412.921 921.711 408.939 921.711C405.076 921.711 401.924 920.609 399.483 918.405C397.042 916.201 395.821 913.475 395.821 910.228C395.821 906.128 397.338 902.988 400.372 900.807C403.429 898.603 407.79 897.501 413.454 897.501H418.751V894.977C418.751 892.986 418.194 891.398 417.08 890.213C415.966 889.004 414.272 888.4 411.997 888.4C410.029 888.4 408.418 888.898 407.162 889.893C405.906 890.865 405.278 892.109 405.278 893.626H396.639C396.639 891.517 397.338 889.549 398.736 887.724C400.135 885.876 402.031 884.43 404.424 883.387C406.842 882.344 409.532 881.823 412.494 881.823C416.997 881.823 420.588 882.961 423.266 885.236C425.944 887.487 427.319 890.663 427.39 894.764V912.112C427.39 915.573 427.876 918.334 428.848 920.396V921H420.031ZM410.539 914.779C412.245 914.779 413.845 914.364 415.338 913.534C416.855 912.705 417.993 911.591 418.751 910.193V902.94H414.094C410.895 902.94 408.489 903.497 406.877 904.611C405.266 905.725 404.46 907.301 404.46 909.339C404.46 910.998 405.005 912.326 406.095 913.321C407.209 914.293 408.69 914.779 410.539 914.779ZM456.577 890.426C455.44 890.237 454.267 890.142 453.058 890.142C449.1 890.142 446.434 891.659 445.059 894.692V921H436.42V882.534H444.668L444.881 886.836C446.967 883.494 449.858 881.823 453.556 881.823C454.788 881.823 455.807 881.989 456.613 882.321L456.577 890.426ZM459.706 901.483C459.706 895.557 461.08 890.806 463.83 887.227C466.579 883.624 470.264 881.823 474.886 881.823C478.962 881.823 482.257 883.245 484.769 886.089V866.394H493.408V921H485.587L485.16 917.018C482.577 920.147 479.128 921.711 474.815 921.711C470.312 921.711 466.662 919.898 463.865 916.272C461.092 912.646 459.706 907.716 459.706 901.483ZM468.345 902.229C468.345 906.14 469.091 909.197 470.584 911.401C472.101 913.582 474.246 914.672 477.019 914.672C480.55 914.672 483.134 913.096 484.769 909.944V893.519C483.181 890.438 480.621 888.898 477.09 888.898C474.293 888.898 472.137 890.012 470.62 892.239C469.103 894.444 468.345 897.773 468.345 902.229Z" fill="white"/>
</svg>
