<svg width="2000" height="1000" viewBox="0 0 2000 1000" fill="none" xmlns="http://www.w3.org/2000/svg">
<rect width="2000" height="1000" fill="#333333"/>
<rect x="28.5" y="28.5" width="1943" height="943" stroke="white" stroke-width="5"/>
<circle cx="506" cy="500" r="454.5" fill="#333333" stroke="white" stroke-width="5"/>
<rect x="192" y="186" width="627" height="627" fill="white"/>
<path d="M649.711 229.889H775.111V355.289" stroke="#C2C2C2" stroke-width="25.08"/>
<path d="M361.291 229.889H235.891V355.289" stroke="#C2C2C2" stroke-width="25.08"/>
<path d="M649.711 769.107H775.111V643.707" stroke="#C2C2C2" stroke-width="25.08"/>
<path d="M361.291 769.107H235.891V643.707" stroke="#C2C2C2" stroke-width="25.08"/>
<path d="M356.425 448.64L346.048 418.439L335.019 448.64H356.425ZM341.208 408.294H351.678L376.482 476.654H366.337L359.403 456.179H332.366L324.967 476.654H315.474L341.208 408.294ZM389.093 452.316C389.093 457.652 390.225 462.12 392.49 465.719C394.754 469.317 398.384 471.117 403.379 471.117C407.257 471.117 410.437 469.457 412.919 466.137C415.431 462.787 416.688 457.994 416.688 451.758C416.688 445.46 415.4 440.807 412.826 437.797C410.251 434.757 407.071 433.237 403.286 433.237C399.067 433.237 395.639 434.85 393.002 438.077C390.396 441.303 389.093 446.05 389.093 452.316ZM401.704 425.931C405.519 425.931 408.715 426.738 411.29 428.351C412.779 429.282 414.47 430.91 416.362 433.237V408.061H424.413V476.654H416.874V469.721C414.92 472.792 412.608 475.01 409.94 476.375C407.272 477.74 404.217 478.423 400.773 478.423C395.22 478.423 390.411 476.096 386.347 471.442C382.283 466.758 380.251 460.538 380.251 452.782C380.251 445.522 382.097 439.24 385.789 433.935C389.511 428.599 394.816 425.931 401.704 425.931ZM442.143 452.316C442.143 457.652 443.275 462.12 445.54 465.719C447.804 469.317 451.434 471.117 456.429 471.117C460.307 471.117 463.487 469.457 465.969 466.137C468.482 462.787 469.738 457.994 469.738 451.758C469.738 445.46 468.451 440.807 465.876 437.797C463.301 434.757 460.121 433.237 456.336 433.237C452.117 433.237 448.689 434.85 446.052 438.077C443.446 441.303 442.143 446.05 442.143 452.316ZM454.754 425.931C458.57 425.931 461.765 426.738 464.34 428.351C465.829 429.282 467.52 430.91 469.412 433.237V408.061H477.463V476.654H469.924V469.721C467.97 472.792 465.658 475.01 462.99 476.375C460.322 477.74 457.267 478.423 453.823 478.423C448.27 478.423 443.461 476.096 439.397 471.442C435.333 466.758 433.301 460.538 433.301 452.782C433.301 445.522 435.147 439.24 438.839 433.935C442.561 428.599 447.866 425.931 454.754 425.931ZM547.545 426.815H556.805C555.626 430.011 553.005 437.301 548.941 448.687C545.901 457.249 543.357 464.229 541.309 469.627C536.469 482.347 533.057 490.103 531.071 492.895C529.086 495.687 525.673 497.083 520.834 497.083C519.655 497.083 518.74 497.037 518.088 496.944C517.468 496.851 516.692 496.68 515.761 496.432V488.8C517.219 489.203 518.274 489.451 518.926 489.545C519.577 489.638 520.151 489.684 520.647 489.684C522.199 489.684 523.331 489.42 524.045 488.893C524.789 488.397 525.41 487.776 525.906 487.032C526.061 486.783 526.619 485.511 527.581 483.216C528.543 480.92 529.241 479.214 529.675 478.097L511.247 426.815H520.741L534.096 467.394L547.545 426.815ZM583.842 471.256C589.395 471.256 593.196 469.162 595.243 464.974C597.322 460.755 598.361 456.07 598.361 450.92C598.361 446.267 597.617 442.482 596.127 439.566C593.77 434.974 589.706 432.679 583.935 432.679C578.816 432.679 575.094 434.633 572.767 438.542C570.44 442.451 569.277 447.167 569.277 452.689C569.277 457.994 570.44 462.415 572.767 465.951C575.094 469.488 578.785 471.256 583.842 471.256ZM584.168 425.373C590.59 425.373 596.019 427.513 600.455 431.794C604.892 436.076 607.11 442.373 607.11 450.688C607.11 458.723 605.155 465.362 601.246 470.605C597.337 475.848 591.272 478.469 583.051 478.469C576.195 478.469 570.75 476.158 566.717 471.535C562.684 466.882 560.668 460.646 560.668 452.828C560.668 444.452 562.793 437.782 567.043 432.818C571.293 427.854 577.002 425.373 584.168 425.373ZM625.491 426.815V459.902C625.491 462.446 625.894 464.524 626.701 466.137C628.19 469.116 630.967 470.605 635.031 470.605C640.863 470.605 644.834 467.999 646.944 462.787C648.092 459.995 648.666 456.163 648.666 451.293V426.815H657.042V476.654H649.131L649.224 469.302C648.138 471.194 646.789 472.792 645.176 474.095C641.98 476.701 638.102 478.004 633.542 478.004C626.437 478.004 621.598 475.631 619.023 470.884C617.627 468.34 616.929 464.943 616.929 460.693V426.815H625.491ZM670.398 426.815H678.355V435.424C679.007 433.749 680.604 431.717 683.148 429.328C685.692 426.908 688.624 425.698 691.943 425.698C692.098 425.698 692.362 425.714 692.734 425.745C693.107 425.776 693.743 425.838 694.642 425.931V434.773C694.146 434.68 693.681 434.618 693.246 434.587C692.843 434.555 692.393 434.54 691.897 434.54C687.678 434.54 684.436 435.905 682.171 438.635C679.906 441.334 678.774 444.452 678.774 447.989V476.654H670.398V426.815Z" fill="#C2C2C2"/>
<path d="M357.266 589.605C354.195 590.628 350.519 591.14 346.238 591.14C337.303 591.14 329.919 588.472 324.087 583.136C317.014 576.714 313.477 567.283 313.477 554.843C313.477 542.309 317.107 532.832 324.366 526.41C330.292 521.167 337.66 518.546 346.47 518.546C355.343 518.546 362.789 521.322 368.807 526.875C375.756 533.297 379.231 542.278 379.231 553.819C379.231 559.931 378.486 565.05 376.997 569.176C375.787 573.116 374.004 576.389 371.646 578.995L379.557 586.394L372.065 594.212L363.781 586.394C361.268 587.914 359.097 588.984 357.266 589.605ZM354.195 577.226L347.261 570.618L354.66 562.894L361.594 569.502C362.68 567.268 363.44 565.313 363.874 563.638C364.557 561.125 364.898 558.193 364.898 554.843C364.898 547.149 363.316 541.208 360.152 537.02C357.018 532.801 352.427 530.691 346.377 530.691C340.7 530.691 336.171 532.708 332.789 536.741C329.407 540.774 327.717 546.808 327.717 554.843C327.717 564.243 330.136 570.975 334.976 575.039C338.109 577.676 341.863 578.995 346.238 578.995C347.882 578.995 349.464 578.793 350.984 578.39C351.822 578.173 352.892 577.785 354.195 577.226ZM419.344 562.335H404.546V589.232H390.539V520.64H424.184C428.993 520.733 432.684 521.322 435.259 522.408C437.865 523.494 440.068 525.091 441.867 527.201C443.356 528.938 444.535 530.862 445.404 532.971C446.273 535.081 446.707 537.485 446.707 540.184C446.707 543.442 445.885 546.653 444.241 549.817C442.596 552.951 439.882 555.169 436.097 556.472C439.261 557.744 441.495 559.559 442.798 561.916C444.132 564.243 444.799 567.811 444.799 572.619V577.226C444.799 580.36 444.923 582.485 445.171 583.602C445.544 585.37 446.412 586.673 447.777 587.511V589.232H432.002C431.568 587.712 431.257 586.487 431.071 585.556C430.699 583.633 430.497 581.663 430.466 579.646L430.373 573.271C430.311 568.897 429.505 565.98 427.953 564.522C426.433 563.064 423.564 562.335 419.344 562.335ZM428.046 549.864C430.901 548.561 432.328 545.986 432.328 542.139C432.328 537.982 430.947 535.19 428.186 533.763C426.635 532.956 424.308 532.553 421.206 532.553H404.546V550.981H420.787C424.013 550.981 426.433 550.608 428.046 549.864ZM528.423 556.704H514.834C514.586 554.812 513.95 553.106 512.927 551.585C511.437 549.538 509.126 548.514 505.993 548.514C501.525 548.514 498.47 550.732 496.825 555.169C495.957 557.526 495.522 560.66 495.522 564.569C495.522 568.292 495.957 571.285 496.825 573.55C498.408 577.769 501.386 579.879 505.76 579.879C508.862 579.879 511.065 579.041 512.368 577.366C513.671 575.691 514.462 573.519 514.741 570.851H528.283C527.973 574.884 526.515 578.7 523.909 582.299C519.752 588.1 513.594 591.001 505.434 591.001C497.275 591.001 491.272 588.581 487.425 583.741C483.578 578.902 481.655 572.619 481.655 564.895C481.655 556.177 483.78 549.398 488.03 544.559C492.28 539.719 498.144 537.299 505.621 537.299C511.98 537.299 517.177 538.726 521.21 541.58C525.274 544.435 527.678 549.476 528.423 556.704ZM579.891 544.931C584.172 550.298 586.312 556.642 586.312 563.964C586.312 571.409 584.172 577.785 579.891 583.09C575.609 588.364 569.11 591.001 560.392 591.001C551.675 591.001 545.175 588.364 540.894 583.09C536.613 577.785 534.472 571.409 534.472 563.964C534.472 556.642 536.613 550.298 540.894 544.931C545.175 539.564 551.675 536.88 560.392 536.88C569.11 536.88 575.609 539.564 579.891 544.931ZM560.346 548.095C556.468 548.095 553.474 549.476 551.365 552.237C549.286 554.967 548.247 558.876 548.247 563.964C548.247 569.052 549.286 572.976 551.365 575.737C553.474 578.498 556.468 579.879 560.346 579.879C564.224 579.879 567.202 578.498 569.281 575.737C571.359 572.976 572.398 569.052 572.398 563.964C572.398 558.876 571.359 554.967 569.281 552.237C567.202 549.476 564.224 548.095 560.346 548.095ZM642.015 520.733V589.232H629.125V582.206C627.232 585.215 625.076 587.402 622.656 588.767C620.237 590.132 617.227 590.815 613.629 590.815C607.703 590.815 602.708 588.426 598.644 583.648C594.611 578.84 592.595 572.681 592.595 565.174C592.595 556.518 594.58 549.709 598.551 544.745C602.553 539.781 607.889 537.299 614.559 537.299C617.631 537.299 620.361 537.982 622.749 539.347C625.138 540.681 627.077 542.542 628.566 544.931V520.733H642.015ZM606.276 564.197C606.276 568.881 607.207 572.619 609.068 575.411C610.899 578.235 613.691 579.646 617.444 579.646C621.198 579.646 624.052 578.25 626.007 575.458C627.961 572.666 628.939 569.052 628.939 564.615C628.939 558.411 627.372 553.974 624.239 551.306C622.315 549.693 620.081 548.886 617.538 548.886C613.66 548.886 610.805 550.36 608.975 553.307C607.176 556.223 606.276 559.853 606.276 564.197ZM697.531 574.341C697.19 577.35 695.624 580.406 692.831 583.509C688.488 588.441 682.408 590.908 674.59 590.908C668.137 590.908 662.444 588.829 657.511 584.672C652.579 580.515 650.112 573.752 650.112 564.383C650.112 555.603 652.33 548.871 656.767 544.186C661.234 539.502 667.02 537.16 674.124 537.16C678.343 537.16 682.144 537.951 685.525 539.533C688.907 541.115 691.699 543.612 693.902 547.025C695.887 550.034 697.175 553.524 697.764 557.495C698.105 559.822 698.245 563.173 698.183 567.547H663.468C663.654 572.635 665.252 576.203 668.261 578.25C670.091 579.522 672.294 580.158 674.869 580.158C677.599 580.158 679.817 579.382 681.523 577.831C682.454 576.994 683.276 575.83 683.99 574.341H697.531ZM684.409 558.798C684.191 555.293 683.121 552.64 681.198 550.841C679.305 549.011 676.947 548.095 674.124 548.095C671.053 548.095 668.664 549.057 666.958 550.981C665.283 552.904 664.228 555.51 663.794 558.798H684.409Z" fill="#C2C2C2"/>
<rect x="1213.25" y="324.255" width="589.49" height="352.49" stroke="white" stroke-width="4.50975"/>
<path d="M1334.75 422.986C1329.93 421.6 1326.41 419.9 1324.2 417.889C1322.02 415.857 1320.92 413.357 1320.92 410.389C1320.92 407.029 1322.26 404.256 1324.94 402.068C1327.63 399.861 1331.13 398.758 1335.42 398.758C1338.35 398.758 1340.96 399.324 1343.25 400.457C1345.55 401.59 1347.33 403.152 1348.58 405.145C1349.85 407.137 1350.48 409.314 1350.48 411.678H1344.83C1344.83 409.1 1344.01 407.078 1342.37 405.613C1340.73 404.129 1338.41 403.387 1335.42 403.387C1332.65 403.387 1330.48 404.002 1328.92 405.232C1327.38 406.443 1326.61 408.133 1326.61 410.301C1326.61 412.039 1327.34 413.514 1328.8 414.725C1330.29 415.916 1332.8 417.01 1336.33 418.006C1339.89 419.002 1342.66 420.105 1344.65 421.316C1346.66 422.508 1348.15 423.904 1349.11 425.506C1350.08 427.107 1350.57 428.992 1350.57 431.16C1350.57 434.617 1349.22 437.391 1346.53 439.48C1343.83 441.551 1340.23 442.586 1335.72 442.586C1332.79 442.586 1330.05 442.029 1327.51 440.916C1324.97 439.783 1323.01 438.24 1321.62 436.287C1320.26 434.334 1319.57 432.117 1319.57 429.637H1325.23C1325.23 432.215 1326.18 434.256 1328.07 435.76C1329.98 437.244 1332.53 437.986 1335.72 437.986C1338.69 437.986 1340.96 437.381 1342.54 436.17C1344.12 434.959 1344.92 433.309 1344.92 431.219C1344.92 429.129 1344.18 427.518 1342.72 426.385C1341.25 425.232 1338.6 424.1 1334.75 422.986ZM1369.67 438.162C1371.61 438.162 1373.29 437.576 1374.74 436.404C1376.19 435.232 1376.99 433.768 1377.14 432.01H1382.27C1382.17 433.826 1381.55 435.555 1380.39 437.195C1379.24 438.836 1377.7 440.145 1375.77 441.121C1373.85 442.098 1371.82 442.586 1369.67 442.586C1365.36 442.586 1361.92 441.15 1359.36 438.279C1356.82 435.389 1355.55 431.443 1355.55 426.443V425.535C1355.55 422.449 1356.12 419.705 1357.25 417.303C1358.38 414.9 1360 413.035 1362.11 411.707C1364.24 410.379 1366.75 409.715 1369.64 409.715C1373.2 409.715 1376.15 410.779 1378.49 412.908C1380.85 415.037 1382.11 417.801 1382.27 421.199H1377.14C1376.99 419.148 1376.21 417.469 1374.8 416.16C1373.41 414.832 1371.69 414.168 1369.64 414.168C1366.89 414.168 1364.75 415.164 1363.23 417.156C1361.72 419.129 1360.97 421.99 1360.97 425.74V426.766C1360.97 430.418 1361.72 433.23 1363.23 435.203C1364.73 437.176 1366.88 438.162 1369.67 438.162ZM1407.93 442C1407.62 441.375 1407.37 440.262 1407.17 438.66C1404.65 441.277 1401.64 442.586 1398.15 442.586C1395.02 442.586 1392.46 441.707 1390.44 439.949C1388.45 438.172 1387.46 435.926 1387.46 433.211C1387.46 429.91 1388.71 427.352 1391.21 425.535C1393.72 423.699 1397.26 422.781 1401.81 422.781H1407.08V420.291C1407.08 418.396 1406.52 416.893 1405.38 415.779C1404.25 414.646 1402.58 414.08 1400.38 414.08C1398.44 414.08 1396.82 414.568 1395.51 415.545C1394.2 416.521 1393.55 417.703 1393.55 419.09H1388.1C1388.1 417.508 1388.66 415.984 1389.77 414.52C1390.9 413.035 1392.43 411.863 1394.34 411.004C1396.27 410.145 1398.39 409.715 1400.7 409.715C1404.35 409.715 1407.21 410.633 1409.28 412.469C1411.35 414.285 1412.43 416.795 1412.5 419.998V434.588C1412.5 437.498 1412.88 439.812 1413.62 441.531V442H1407.93ZM1398.94 437.869C1400.64 437.869 1402.25 437.43 1403.77 436.551C1405.3 435.672 1406.4 434.529 1407.08 433.123V426.619H1402.84C1396.2 426.619 1392.88 428.562 1392.88 432.449C1392.88 434.148 1393.44 435.477 1394.57 436.434C1395.71 437.391 1397.16 437.869 1398.94 437.869ZM1426.13 410.301L1426.3 414.285C1428.72 411.238 1431.89 409.715 1435.79 409.715C1442.49 409.715 1445.87 413.494 1445.93 421.053V442H1440.51V421.023C1440.49 418.738 1439.96 417.049 1438.93 415.955C1437.91 414.861 1436.32 414.314 1434.15 414.314C1432.4 414.314 1430.85 414.783 1429.53 415.721C1428.2 416.658 1427.16 417.889 1426.42 419.412V442H1421V410.301H1426.13ZM1476.34 402.625V410.301H1482.26V414.49H1476.34V434.148C1476.34 435.418 1476.61 436.375 1477.13 437.02C1477.66 437.645 1478.56 437.957 1479.83 437.957C1480.45 437.957 1481.31 437.84 1482.41 437.605V442C1480.98 442.391 1479.59 442.586 1478.25 442.586C1475.82 442.586 1474 441.854 1472.77 440.389C1471.54 438.924 1470.92 436.844 1470.92 434.148V414.49H1465.15V410.301H1470.92V402.625H1476.34ZM1486.6 425.857C1486.6 422.752 1487.2 419.959 1488.41 417.479C1489.64 414.998 1491.34 413.084 1493.51 411.736C1495.7 410.389 1498.19 409.715 1500.98 409.715C1505.3 409.715 1508.78 411.209 1511.44 414.197C1514.12 417.186 1515.45 421.16 1515.45 426.121V426.502C1515.45 429.588 1514.86 432.361 1513.67 434.822C1512.49 437.264 1510.8 439.168 1508.6 440.535C1506.41 441.902 1503.89 442.586 1501.04 442.586C1496.74 442.586 1493.26 441.092 1490.58 438.104C1487.92 435.115 1486.6 431.16 1486.6 426.238V425.857ZM1492.04 426.502C1492.04 430.018 1492.86 432.84 1494.48 434.969C1496.12 437.098 1498.3 438.162 1501.04 438.162C1503.79 438.162 1505.98 437.088 1507.6 434.939C1509.22 432.771 1510.03 429.744 1510.03 425.857C1510.03 422.381 1509.2 419.568 1507.54 417.42C1505.9 415.252 1503.71 414.168 1500.98 414.168C1498.3 414.168 1496.15 415.232 1494.51 417.361C1492.87 419.49 1492.04 422.537 1492.04 426.502ZM1552.46 415.164C1551.63 415.027 1550.75 414.959 1549.79 414.959C1546.23 414.959 1543.82 416.473 1542.55 419.5V442H1537.13V410.301H1542.41L1542.49 413.963C1544.27 411.131 1546.79 409.715 1550.05 409.715C1551.11 409.715 1551.91 409.852 1552.46 410.125V415.164ZM1570.03 442.586C1565.74 442.586 1562.24 441.18 1559.54 438.367C1556.85 435.535 1555.5 431.756 1555.5 427.029V426.033C1555.5 422.889 1556.1 420.086 1557.29 417.625C1558.5 415.145 1560.18 413.211 1562.33 411.824C1564.5 410.418 1566.84 409.715 1569.36 409.715C1573.48 409.715 1576.68 411.072 1578.97 413.787C1581.25 416.502 1582.4 420.389 1582.4 425.447V427.703H1560.92C1561 430.828 1561.91 433.357 1563.65 435.291C1565.4 437.205 1567.63 438.162 1570.33 438.162C1572.24 438.162 1573.86 437.771 1575.19 436.99C1576.52 436.209 1577.68 435.174 1578.68 433.885L1581.99 436.463C1579.33 440.545 1575.35 442.586 1570.03 442.586ZM1569.36 414.168C1567.17 414.168 1565.34 414.969 1563.85 416.57C1562.37 418.152 1561.45 420.379 1561.1 423.25H1576.98V422.84C1576.82 420.086 1576.08 417.957 1574.75 416.453C1573.42 414.93 1571.62 414.168 1569.36 414.168ZM1598.74 434.646L1606.6 410.301H1612.13L1600.77 442H1596.63L1585.15 410.301H1590.69L1598.74 434.646ZM1623.24 442H1617.82V410.301H1623.24V442ZM1617.38 401.893C1617.38 401.014 1617.64 400.271 1618.17 399.666C1618.71 399.061 1619.52 398.758 1620.57 398.758C1621.62 398.758 1622.43 399.061 1622.97 399.666C1623.52 400.271 1623.79 401.014 1623.79 401.893C1623.79 402.771 1623.52 403.504 1622.97 404.09C1622.43 404.676 1621.62 404.969 1620.57 404.969C1619.52 404.969 1618.71 404.676 1618.17 404.09C1617.64 403.504 1617.38 402.771 1617.38 401.893ZM1645.09 442.586C1640.79 442.586 1637.3 441.18 1634.6 438.367C1631.91 435.535 1630.56 431.756 1630.56 427.029V426.033C1630.56 422.889 1631.16 420.086 1632.35 417.625C1633.56 415.145 1635.24 413.211 1637.39 411.824C1639.55 410.418 1641.9 409.715 1644.42 409.715C1648.54 409.715 1651.74 411.072 1654.03 413.787C1656.31 416.502 1657.46 420.389 1657.46 425.447V427.703H1635.98C1636.06 430.828 1636.97 433.357 1638.71 435.291C1640.46 437.205 1642.69 438.162 1645.38 438.162C1647.3 438.162 1648.92 437.771 1650.25 436.99C1651.58 436.209 1652.74 435.174 1653.73 433.885L1657.04 436.463C1654.39 440.545 1650.4 442.586 1645.09 442.586ZM1644.42 414.168C1642.23 414.168 1640.39 414.969 1638.91 416.57C1637.43 418.152 1636.51 420.379 1636.16 423.25H1652.04V422.84C1651.88 420.086 1651.14 417.957 1649.81 416.453C1648.48 414.93 1646.68 414.168 1644.42 414.168ZM1691.82 434.529L1697.91 410.301H1703.33L1694.11 442H1689.71L1682.01 417.977L1674.51 442H1670.11L1660.91 410.301H1666.3L1672.54 434.031L1679.93 410.301H1684.29L1691.82 434.529Z" fill="white"/>
<path d="M1685.42 604.776L1684.66 603.885C1684.66 603.885 1684.66 603.884 1684.66 603.883C1678.15 596.244 1672.04 588.28 1666.34 580.022L1665.3 578.469L1665.3 578.468C1659.48 569.839 1652 558.58 1652 545.249C1652.01 539.614 1653.44 534.073 1656.17 529.144C1658.9 524.215 1662.84 520.06 1667.61 517.067C1672.39 514.073 1677.84 512.341 1683.47 512.031C1688.49 511.754 1693.5 512.619 1698.12 514.549C1697.21 517.336 1696.81 520.257 1696.94 523.168C1694.08 521.363 1690.83 520.234 1687.41 519.903C1682.16 519.394 1676.89 520.813 1672.61 523.896C1668.32 526.979 1665.3 531.516 1664.11 536.661C1662.92 541.807 1663.64 547.209 1666.13 551.863C1668.63 556.516 1672.73 560.103 1677.68 561.955C1682.63 563.807 1688.08 563.797 1693.02 561.929C1697.96 560.06 1702.05 556.459 1704.53 551.797C1706.15 548.747 1707.01 545.38 1707.08 541.977C1708.32 542.865 1709.65 543.636 1711.04 544.28C1713.49 545.413 1716.11 546.13 1718.79 546.405C1718.38 559.23 1711.16 570.058 1705.54 578.442L1705.53 578.454L1704.49 580.029C1698.79 588.284 1692.68 596.246 1686.18 603.884C1686.18 603.884 1686.18 603.885 1686.18 603.885L1685.42 604.776Z" stroke="white" stroke-width="4"/>
<path d="M1721.44 537.042C1729.74 537.042 1736.46 530.317 1736.46 522.021C1736.46 513.725 1729.74 507 1721.44 507C1713.15 507 1706.42 513.725 1706.42 522.021C1706.42 530.317 1713.15 537.042 1721.44 537.042Z" fill="white"/>
<path d="M1367.82 544.549V581.968L1347.74 561.762L1343.9 565.633L1363.62 585.51H1295.98L1315.07 565.633L1311.14 561.817L1291.45 582.325V534.775L1325.35 568.736C1326.38 569.758 1327.76 570.332 1329.2 570.332C1330.64 570.332 1332.02 569.758 1333.04 568.736L1357.13 544.631C1355.2 544.126 1353.37 543.34 1351.67 542.298L1329.14 564.837L1295.03 530.602H1342.75C1342.23 528.819 1341.94 526.972 1341.91 525.111H1291.45C1290.01 525.111 1288.62 525.69 1287.6 526.72C1286.57 527.749 1286 529.146 1286 530.602V585.51C1286 586.966 1286.57 588.363 1287.6 589.393C1288.62 590.422 1290.01 591.001 1291.45 591.001H1367.82C1369.26 591.001 1370.65 590.422 1371.67 589.393C1372.7 588.363 1373.27 586.966 1373.27 585.51V542.133C1371.58 543.204 1369.74 544.018 1367.82 544.549Z" fill="white"/>
<path d="M1362.36 538.454C1369.9 538.454 1376 532.308 1376 524.727C1376 517.146 1369.9 511 1362.36 511C1354.83 511 1348.73 517.146 1348.73 524.727C1348.73 532.308 1354.83 538.454 1362.36 538.454Z" fill="white"/>
<path fill-rule="evenodd" clip-rule="evenodd" d="M1530.42 505H1527V508.194C1527 509.191 1526.19 510 1525.19 510H1492.81C1491.81 510 1491 509.191 1491 508.194V505H1484.58C1482.05 505 1480 507.051 1480 509.581V602.419C1480 604.949 1482.05 607 1484.58 607H1530.42C1532.95 607 1535 604.949 1535 602.419V509.581C1535 507.051 1532.95 505 1530.42 505ZM1530.42 501H1527H1491H1484.58C1479.84 501 1476 504.842 1476 509.581V602.419C1476 607.158 1479.84 611 1484.58 611H1530.42C1535.16 611 1539 607.158 1539 602.419V509.581C1539 504.842 1535.16 501 1530.42 501ZM1509 591C1505.69 591 1503 593.686 1503 597C1503 600.314 1505.69 603 1509 603C1512.31 603 1515 600.314 1515 597C1515 593.686 1512.31 591 1509 591Z" fill="white"/>
<path d="M1536.64 521.954C1545.56 521.954 1552.77 514.673 1552.77 505.727C1552.77 496.781 1545.56 489.5 1536.64 489.5C1527.71 489.5 1520.5 496.781 1520.5 505.727C1520.5 514.673 1527.71 521.954 1536.64 521.954Z" fill="white" stroke="#333333" stroke-width="5"/>
<rect x="0.5" y="0.5" width="1999" height="999" stroke="#BEBEBE"/>
</svg>
