<svg width="2000" height="1000" viewBox="0 0 2000 1000" fill="none" xmlns="http://www.w3.org/2000/svg">
<rect width="2000" height="1000" fill="#333333"/>
<rect x="28.5" y="28.5" width="1943" height="943" stroke="white" stroke-width="5"/>
<path d="M506 707.5C631.089 707.5 744.456 684.51 826.645 647.234C908.606 610.061 960.5 558.195 960.5 500C960.5 441.805 908.606 389.939 826.645 352.766C744.456 315.49 631.089 292.5 506 292.5C380.911 292.5 267.544 315.49 185.355 352.766C103.394 389.939 51.5 441.805 51.5 500C51.5 558.195 103.394 610.061 185.355 647.234C267.544 684.51 380.911 707.5 506 707.5Z" fill="#333333" stroke="white" stroke-width="5"/>
<path d="M402.25 679.7C510.58 742.245 620.254 779.018 710.07 787.831C799.637 796.619 870.511 777.649 899.609 727.25C928.706 676.851 909.698 605.988 857.304 532.814C804.764 459.438 718.08 382.844 609.75 320.3C501.42 257.756 391.746 220.982 301.93 212.17C212.363 203.381 141.489 222.351 112.392 272.75C83.2939 323.149 102.302 394.013 154.697 467.186C207.236 540.562 293.92 617.156 402.25 679.7Z" fill="#333333" stroke="white" stroke-width="5"/>
<path d="M609.75 679.7C718.08 617.156 804.764 540.562 857.304 467.186C909.698 394.013 928.706 323.149 899.609 272.75C870.511 222.351 799.637 203.381 710.07 212.17C620.254 220.982 510.58 257.755 402.25 320.3C293.92 382.844 207.236 459.438 154.697 532.814C102.302 605.988 83.2939 676.851 112.392 727.25C141.489 777.649 212.363 796.619 301.93 787.831C391.746 779.018 501.42 742.245 609.75 679.7Z" fill="#333333" stroke="white" stroke-width="5"/>
<path d="M685.7 603.75C748.245 495.42 785.018 385.746 793.831 295.93C802.619 206.363 783.649 135.489 733.25 106.391C682.851 77.2937 611.988 96.3023 538.814 148.696C465.438 201.236 388.844 287.92 326.3 396.25C263.756 504.58 226.982 614.254 218.17 704.07C209.381 793.637 228.351 864.511 278.75 893.608C329.149 922.706 400.013 903.698 473.186 851.303C546.562 798.764 623.156 712.08 685.7 603.75Z" fill="#333333" stroke="white" stroke-width="5"/>
<path d="M685.7 396.25C623.156 287.92 546.562 201.236 473.186 148.696C400.013 96.3022 329.149 77.2937 278.75 106.391C228.351 135.489 209.381 206.363 218.169 295.93C226.982 385.746 263.755 495.42 326.3 603.75C388.844 712.08 465.438 798.764 538.814 851.303C611.988 903.698 682.851 922.706 733.25 893.608C783.649 864.511 802.619 793.637 793.831 704.07C785.018 614.254 748.245 504.58 685.7 396.25Z" fill="#333333" stroke="white" stroke-width="5"/>
<path d="M713.5 500C713.5 374.911 690.51 261.544 653.234 179.355C616.061 97.3938 564.195 45.5 506 45.5C447.805 45.5 395.939 97.3939 358.766 179.355C321.49 261.544 298.5 374.911 298.5 500C298.5 625.089 321.49 738.456 358.766 820.645C395.939 902.606 447.805 954.5 506 954.5C564.195 954.5 616.061 902.606 653.234 820.645C690.51 738.456 713.5 625.089 713.5 500Z" fill="#333333" stroke="white" stroke-width="5"/>
<rect x="216" y="210" width="579" height="579" fill="white"/>
<path d="M638.672 250.529H754.472V366.329" stroke="#C2C2C2" stroke-width="23.16"/>
<path d="M372.332 250.529H256.532V366.329" stroke="#C2C2C2" stroke-width="23.16"/>
<path d="M638.672 748.469H754.472V632.669" stroke="#C2C2C2" stroke-width="23.16"/>
<path d="M372.332 748.469H256.532V632.669" stroke="#C2C2C2" stroke-width="23.16"/>
<path d="M367.836 452.041L358.254 424.151L348.069 452.041H367.836ZM353.784 414.783H363.453L386.358 477.91H376.99L370.587 459.002H345.62L338.787 477.91H330.021L353.784 414.783ZM398.003 455.435C398.003 460.363 399.049 464.488 401.14 467.812C403.232 471.135 406.583 472.796 411.196 472.796C414.777 472.796 417.713 471.264 420.005 468.198C422.326 465.104 423.486 460.678 423.486 454.92C423.486 449.104 422.297 444.807 419.919 442.028C417.541 439.22 414.605 437.817 411.11 437.817C407.214 437.817 404.048 439.306 401.613 442.286C399.206 445.265 398.003 449.648 398.003 455.435ZM409.649 431.07C413.173 431.07 416.123 431.815 418.501 433.305C419.876 434.164 421.438 435.668 423.185 437.817V414.568H430.619V477.91H423.658V471.507C421.853 474.343 419.719 476.392 417.255 477.652C414.791 478.913 411.969 479.543 408.789 479.543C403.661 479.543 399.221 477.394 395.468 473.097C391.715 468.771 389.838 463.027 389.838 455.865C389.838 449.161 391.543 443.36 394.952 438.461C398.39 433.534 403.289 431.07 409.649 431.07ZM446.992 455.435C446.992 460.363 448.038 464.488 450.129 467.812C452.22 471.135 455.572 472.796 460.185 472.796C463.766 472.796 466.702 471.264 468.994 468.198C471.315 465.104 472.475 460.678 472.475 454.92C472.475 449.104 471.286 444.807 468.908 442.028C466.53 439.22 463.594 437.817 460.099 437.817C456.203 437.817 453.037 439.306 450.602 442.286C448.195 445.265 446.992 449.648 446.992 455.435ZM458.638 431.07C462.161 431.07 465.112 431.815 467.49 433.305C468.865 434.164 470.426 435.668 472.174 437.817V414.568H479.608V477.91H472.647V471.507C470.842 474.343 468.708 476.392 466.244 477.652C463.78 478.913 460.958 479.543 457.778 479.543C452.65 479.543 448.21 477.394 444.457 473.097C440.704 468.771 438.827 463.027 438.827 455.865C438.827 449.161 440.532 443.36 443.941 438.461C447.379 433.534 452.278 431.07 458.638 431.07ZM544.325 431.886H552.877C551.788 434.837 549.367 441.57 545.614 452.084C542.807 459.991 540.458 466.436 538.567 471.421C534.098 483.167 530.946 490.329 529.113 492.908C527.279 495.486 524.128 496.775 519.659 496.775C518.57 496.775 517.725 496.732 517.123 496.646C516.55 496.56 515.834 496.403 514.975 496.174V489.126C516.321 489.498 517.295 489.728 517.897 489.814C518.499 489.9 519.029 489.942 519.487 489.942C520.919 489.942 521.965 489.699 522.624 489.212C523.312 488.754 523.884 488.181 524.343 487.493C524.486 487.264 525.002 486.089 525.89 483.969C526.778 481.849 527.423 480.274 527.824 479.242L510.806 431.886H519.573L531.906 469.359L544.325 431.886ZM577.844 472.925C582.972 472.925 586.481 470.992 588.372 467.124C590.292 463.228 591.251 458.902 591.251 454.146C591.251 449.849 590.564 446.354 589.189 443.661C587.011 439.421 583.258 437.301 577.93 437.301C573.203 437.301 569.765 439.106 567.616 442.716C565.468 446.325 564.393 450.68 564.393 455.779C564.393 460.678 565.468 464.761 567.616 468.026C569.765 471.292 573.174 472.925 577.844 472.925ZM578.145 430.554C584.075 430.554 589.088 432.531 593.185 436.485C597.282 440.438 599.33 446.254 599.33 453.931C599.33 461.351 597.525 467.482 593.916 472.324C590.306 477.165 584.705 479.586 577.113 479.586C570.782 479.586 565.754 477.452 562.03 473.183C558.306 468.886 556.443 463.128 556.443 455.908C556.443 448.173 558.406 442.014 562.331 437.43C566.256 432.846 571.527 430.554 578.145 430.554ZM616.304 431.886V462.44C616.304 464.789 616.677 466.709 617.422 468.198C618.797 470.949 621.361 472.324 625.114 472.324C630.5 472.324 634.167 469.917 636.115 465.104C637.175 462.526 637.705 458.988 637.705 454.49V431.886H645.44V477.91H638.134L638.22 471.12C637.218 472.868 635.971 474.343 634.482 475.547C631.531 477.953 627.95 479.156 623.739 479.156C617.178 479.156 612.709 476.965 610.331 472.582C609.042 470.232 608.397 467.095 608.397 463.171V431.886H616.304ZM657.773 431.886H665.121V439.836C665.723 438.289 667.198 436.413 669.547 434.207C671.897 431.972 674.604 430.855 677.669 430.855C677.813 430.855 678.056 430.869 678.4 430.898C678.744 430.927 679.331 430.984 680.162 431.07V439.235C679.703 439.149 679.274 439.092 678.873 439.063C678.5 439.034 678.085 439.02 677.626 439.02C673.73 439.02 670.736 440.28 668.645 442.801C666.554 445.294 665.508 448.173 665.508 451.439V477.91H657.773V431.886Z" fill="#C2C2C2"/>
<path d="M368.615 582.215C365.779 583.16 362.384 583.633 358.43 583.633C350.18 583.633 343.361 581.169 337.975 576.242C331.444 570.311 328.178 561.602 328.178 550.114C328.178 538.54 331.53 529.788 338.233 523.858C343.705 519.016 350.509 516.596 358.645 516.596C366.839 516.596 373.714 519.16 379.272 524.288C385.689 530.218 388.898 538.512 388.898 549.169C388.898 554.813 388.21 559.54 386.835 563.35C385.718 566.988 384.071 570.011 381.894 572.417L389.199 579.25L382.28 586.469L374.631 579.25C372.311 580.654 370.305 581.642 368.615 582.215ZM365.779 570.784L359.376 564.682L366.209 557.549L372.611 563.651C373.614 561.588 374.316 559.783 374.717 558.236C375.347 555.916 375.662 553.208 375.662 550.114C375.662 543.009 374.201 537.523 371.279 533.656C368.386 529.76 364.146 527.811 358.559 527.811C353.317 527.811 349.134 529.674 346.011 533.398C342.889 537.122 341.327 542.694 341.327 550.114C341.327 558.795 343.562 565.011 348.031 568.764C350.925 571.2 354.391 572.417 358.43 572.417C359.949 572.417 361.41 572.231 362.814 571.858C363.587 571.658 364.576 571.3 365.779 570.784ZM425.94 557.033H412.275V581.871H399.34V518.529H430.41C434.85 518.615 438.259 519.16 440.637 520.162C443.044 521.165 445.078 522.64 446.739 524.589C448.114 526.193 449.203 527.969 450.005 529.917C450.807 531.865 451.208 534.086 451.208 536.578C451.208 539.586 450.449 542.551 448.931 545.473C447.412 548.367 444.906 550.415 441.411 551.618C444.333 552.793 446.395 554.469 447.599 556.646C448.831 558.795 449.447 562.089 449.447 566.53V570.784C449.447 573.678 449.561 575.64 449.79 576.671C450.134 578.304 450.936 579.508 452.197 580.281V581.871H437.629C437.228 580.467 436.941 579.336 436.77 578.476C436.426 576.7 436.24 574.881 436.211 573.019L436.125 567.131C436.068 563.092 435.323 560.399 433.89 559.053C432.487 557.706 429.837 557.033 425.94 557.033ZM433.976 545.516C436.612 544.313 437.93 541.935 437.93 538.383C437.93 534.544 436.655 531.966 434.105 530.648C432.673 529.903 430.524 529.53 427.659 529.53H412.275V546.548H427.273C430.252 546.548 432.487 546.204 433.976 545.516ZM526.668 551.833H514.12C513.891 550.086 513.304 548.51 512.359 547.106C510.983 545.215 508.849 544.27 505.956 544.27C501.83 544.27 499.008 546.318 497.49 550.415C496.688 552.592 496.287 555.486 496.287 559.096C496.287 562.533 496.688 565.298 497.49 567.389C498.951 571.285 501.701 573.234 505.741 573.234C508.606 573.234 510.64 572.46 511.843 570.913C513.046 569.366 513.777 567.361 514.034 564.897H526.539C526.253 568.621 524.907 572.145 522.5 575.468C518.661 580.825 512.974 583.504 505.44 583.504C497.905 583.504 492.362 581.269 488.809 576.8C485.257 572.331 483.481 566.53 483.481 559.396C483.481 551.346 485.443 545.087 489.368 540.617C493.293 536.148 498.708 533.914 505.612 533.914C511.485 533.914 516.283 535.231 520.008 537.867C523.761 540.503 525.981 545.158 526.668 551.833ZM574.196 540.961C578.15 545.917 580.126 551.776 580.126 558.537C580.126 565.413 578.15 571.3 574.196 576.199C570.243 581.069 564.241 583.504 556.191 583.504C548.14 583.504 542.139 581.069 538.185 576.199C534.232 571.3 532.255 565.413 532.255 558.537C532.255 551.776 534.232 545.917 538.185 540.961C542.139 536.005 548.14 533.527 556.191 533.527C564.241 533.527 570.243 536.005 574.196 540.961ZM556.148 543.883C552.567 543.883 549.802 545.158 547.854 547.708C545.934 550.229 544.975 553.839 544.975 558.537C544.975 563.235 545.934 566.859 547.854 569.409C549.802 571.959 552.567 573.234 556.148 573.234C559.729 573.234 562.479 571.959 564.398 569.409C566.318 566.859 567.278 563.235 567.278 558.537C567.278 553.839 566.318 550.229 564.398 547.708C562.479 545.158 559.729 543.883 556.148 543.883ZM631.565 518.615V581.871H619.661V575.382C617.914 578.161 615.923 580.181 613.688 581.441C611.453 582.702 608.675 583.332 605.351 583.332C599.879 583.332 595.267 581.126 591.514 576.714C587.79 572.274 585.928 566.587 585.928 559.654C585.928 551.661 587.761 545.373 591.428 540.789C595.124 536.205 600.051 533.914 606.211 533.914C609.047 533.914 611.568 534.544 613.774 535.804C615.98 537.036 617.77 538.755 619.146 540.961V518.615H631.565ZM598.562 558.752C598.562 563.078 599.421 566.53 601.14 569.108C602.83 571.715 605.409 573.019 608.875 573.019C612.342 573.019 614.977 571.73 616.782 569.151C618.587 566.573 619.489 563.235 619.489 559.139C619.489 553.409 618.043 549.312 615.149 546.848C613.373 545.359 611.31 544.614 608.961 544.614C605.38 544.614 602.744 545.975 601.054 548.696C599.392 551.389 598.562 554.741 598.562 558.752ZM682.831 568.12C682.516 570.899 681.069 573.721 678.491 576.585C674.48 581.141 668.865 583.418 661.645 583.418C655.687 583.418 650.43 581.499 645.875 577.66C641.319 573.821 639.042 567.576 639.042 558.924C639.042 550.816 641.09 544.599 645.187 540.274C649.312 535.948 654.655 533.785 661.216 533.785C665.112 533.785 668.621 534.515 671.744 535.976C674.867 537.437 677.445 539.744 679.479 542.895C681.313 545.674 682.502 548.897 683.046 552.564C683.361 554.712 683.49 557.806 683.433 561.846H651.375C651.547 566.544 653.022 569.839 655.801 571.73C657.491 572.904 659.526 573.491 661.903 573.491C664.424 573.491 666.473 572.775 668.048 571.343C668.908 570.569 669.667 569.495 670.326 568.12H682.831ZM670.713 553.767C670.512 550.53 669.524 548.08 667.748 546.419C666 544.728 663.823 543.883 661.216 543.883C658.38 543.883 656.174 544.771 654.598 546.548C653.051 548.324 652.077 550.73 651.676 553.767H670.713Z" fill="#C2C2C2"/>
<path d="M1483 707.5C1608.09 707.5 1721.46 684.51 1803.64 647.234C1885.61 610.061 1937.5 558.195 1937.5 500C1937.5 441.805 1885.61 389.939 1803.64 352.766C1721.46 315.49 1608.09 292.5 1483 292.5C1357.91 292.5 1244.54 315.49 1162.36 352.766C1080.39 389.939 1028.5 441.805 1028.5 500C1028.5 558.195 1080.39 610.061 1162.36 647.234C1244.54 684.51 1357.91 707.5 1483 707.5Z" fill="#333333" stroke="white" stroke-width="5"/>
<path d="M1309.75 422.986C1304.93 421.6 1301.41 419.9 1299.2 417.889C1297.02 415.857 1295.92 413.357 1295.92 410.389C1295.92 407.029 1297.26 404.256 1299.94 402.068C1302.63 399.861 1306.13 398.758 1310.42 398.758C1313.35 398.758 1315.96 399.324 1318.25 400.457C1320.55 401.59 1322.33 403.152 1323.58 405.145C1324.85 407.137 1325.48 409.314 1325.48 411.678H1319.83C1319.83 409.1 1319.01 407.078 1317.37 405.613C1315.73 404.129 1313.41 403.387 1310.42 403.387C1307.65 403.387 1305.48 404.002 1303.92 405.232C1302.38 406.443 1301.61 408.133 1301.61 410.301C1301.61 412.039 1302.34 413.514 1303.8 414.725C1305.29 415.916 1307.8 417.01 1311.33 418.006C1314.89 419.002 1317.66 420.105 1319.65 421.316C1321.66 422.508 1323.15 423.904 1324.11 425.506C1325.08 427.107 1325.57 428.992 1325.57 431.16C1325.57 434.617 1324.22 437.391 1321.53 439.48C1318.83 441.551 1315.23 442.586 1310.72 442.586C1307.79 442.586 1305.05 442.029 1302.51 440.916C1299.97 439.783 1298.01 438.24 1296.62 436.287C1295.26 434.334 1294.57 432.117 1294.57 429.637H1300.23C1300.23 432.215 1301.18 434.256 1303.07 435.76C1304.98 437.244 1307.53 437.986 1310.72 437.986C1313.69 437.986 1315.96 437.381 1317.54 436.17C1319.12 434.959 1319.92 433.309 1319.92 431.219C1319.92 429.129 1319.18 427.518 1317.72 426.385C1316.25 425.232 1313.6 424.1 1309.75 422.986ZM1344.67 438.162C1346.61 438.162 1348.29 437.576 1349.74 436.404C1351.19 435.232 1351.99 433.768 1352.14 432.01H1357.27C1357.17 433.826 1356.55 435.555 1355.39 437.195C1354.24 438.836 1352.7 440.145 1350.77 441.121C1348.85 442.098 1346.82 442.586 1344.67 442.586C1340.36 442.586 1336.92 441.15 1334.36 438.279C1331.82 435.389 1330.55 431.443 1330.55 426.443V425.535C1330.55 422.449 1331.12 419.705 1332.25 417.303C1333.38 414.9 1335 413.035 1337.11 411.707C1339.24 410.379 1341.75 409.715 1344.64 409.715C1348.2 409.715 1351.15 410.779 1353.49 412.908C1355.85 415.037 1357.11 417.801 1357.27 421.199H1352.14C1351.99 419.148 1351.21 417.469 1349.8 416.16C1348.41 414.832 1346.69 414.168 1344.64 414.168C1341.89 414.168 1339.75 415.164 1338.23 417.156C1336.72 419.129 1335.97 421.99 1335.97 425.74V426.766C1335.97 430.418 1336.72 433.23 1338.23 435.203C1339.73 437.176 1341.88 438.162 1344.67 438.162ZM1382.93 442C1382.62 441.375 1382.37 440.262 1382.17 438.66C1379.65 441.277 1376.64 442.586 1373.15 442.586C1370.02 442.586 1367.46 441.707 1365.44 439.949C1363.45 438.172 1362.46 435.926 1362.46 433.211C1362.46 429.91 1363.71 427.352 1366.21 425.535C1368.72 423.699 1372.26 422.781 1376.81 422.781H1382.08V420.291C1382.08 418.396 1381.52 416.893 1380.38 415.779C1379.25 414.646 1377.58 414.08 1375.38 414.08C1373.44 414.08 1371.82 414.568 1370.51 415.545C1369.2 416.521 1368.55 417.703 1368.55 419.09H1363.1C1363.1 417.508 1363.66 415.984 1364.77 414.52C1365.9 413.035 1367.43 411.863 1369.34 411.004C1371.27 410.145 1373.39 409.715 1375.7 409.715C1379.35 409.715 1382.21 410.633 1384.28 412.469C1386.35 414.285 1387.43 416.795 1387.5 419.998V434.588C1387.5 437.498 1387.88 439.812 1388.62 441.531V442H1382.93ZM1373.94 437.869C1375.64 437.869 1377.25 437.43 1378.77 436.551C1380.3 435.672 1381.4 434.529 1382.08 433.123V426.619H1377.84C1371.2 426.619 1367.88 428.562 1367.88 432.449C1367.88 434.148 1368.44 435.477 1369.57 436.434C1370.71 437.391 1372.16 437.869 1373.94 437.869ZM1401.13 410.301L1401.3 414.285C1403.72 411.238 1406.89 409.715 1410.79 409.715C1417.49 409.715 1420.87 413.494 1420.93 421.053V442H1415.51V421.023C1415.49 418.738 1414.96 417.049 1413.93 415.955C1412.91 414.861 1411.32 414.314 1409.15 414.314C1407.4 414.314 1405.85 414.783 1404.53 415.721C1403.2 416.658 1402.16 417.889 1401.42 419.412V442H1396V410.301H1401.13ZM1451.34 402.625V410.301H1457.26V414.49H1451.34V434.148C1451.34 435.418 1451.61 436.375 1452.13 437.02C1452.66 437.645 1453.56 437.957 1454.83 437.957C1455.45 437.957 1456.31 437.84 1457.41 437.605V442C1455.98 442.391 1454.59 442.586 1453.25 442.586C1450.82 442.586 1449 441.854 1447.77 440.389C1446.54 438.924 1445.92 436.844 1445.92 434.148V414.49H1440.15V410.301H1445.92V402.625H1451.34ZM1461.6 425.857C1461.6 422.752 1462.2 419.959 1463.41 417.479C1464.64 414.998 1466.34 413.084 1468.51 411.736C1470.7 410.389 1473.19 409.715 1475.98 409.715C1480.3 409.715 1483.78 411.209 1486.44 414.197C1489.12 417.186 1490.45 421.16 1490.45 426.121V426.502C1490.45 429.588 1489.86 432.361 1488.67 434.822C1487.49 437.264 1485.8 439.168 1483.6 440.535C1481.41 441.902 1478.89 442.586 1476.04 442.586C1471.74 442.586 1468.26 441.092 1465.58 438.104C1462.92 435.115 1461.6 431.16 1461.6 426.238V425.857ZM1467.04 426.502C1467.04 430.018 1467.86 432.84 1469.48 434.969C1471.12 437.098 1473.3 438.162 1476.04 438.162C1478.79 438.162 1480.98 437.088 1482.6 434.939C1484.22 432.771 1485.03 429.744 1485.03 425.857C1485.03 422.381 1484.2 419.568 1482.54 417.42C1480.9 415.252 1478.71 414.168 1475.98 414.168C1473.3 414.168 1471.15 415.232 1469.51 417.361C1467.87 419.49 1467.04 422.537 1467.04 426.502ZM1527.46 415.164C1526.63 415.027 1525.75 414.959 1524.79 414.959C1521.23 414.959 1518.82 416.473 1517.55 419.5V442H1512.13V410.301H1517.41L1517.49 413.963C1519.27 411.131 1521.79 409.715 1525.05 409.715C1526.11 409.715 1526.91 409.852 1527.46 410.125V415.164ZM1545.03 442.586C1540.74 442.586 1537.24 441.18 1534.54 438.367C1531.85 435.535 1530.5 431.756 1530.5 427.029V426.033C1530.5 422.889 1531.1 420.086 1532.29 417.625C1533.5 415.145 1535.18 413.211 1537.33 411.824C1539.5 410.418 1541.84 409.715 1544.36 409.715C1548.48 409.715 1551.68 411.072 1553.97 413.787C1556.25 416.502 1557.4 420.389 1557.4 425.447V427.703H1535.92C1536 430.828 1536.91 433.357 1538.65 435.291C1540.4 437.205 1542.63 438.162 1545.33 438.162C1547.24 438.162 1548.86 437.771 1550.19 436.99C1551.52 436.209 1552.68 435.174 1553.68 433.885L1556.99 436.463C1554.33 440.545 1550.35 442.586 1545.03 442.586ZM1544.36 414.168C1542.17 414.168 1540.34 414.969 1538.85 416.57C1537.37 418.152 1536.45 420.379 1536.1 423.25H1551.98V422.84C1551.82 420.086 1551.08 417.957 1549.75 416.453C1548.42 414.93 1546.62 414.168 1544.36 414.168ZM1573.74 434.646L1581.6 410.301H1587.13L1575.77 442H1571.63L1560.15 410.301H1565.69L1573.74 434.646ZM1598.24 442H1592.82V410.301H1598.24V442ZM1592.38 401.893C1592.38 401.014 1592.64 400.271 1593.17 399.666C1593.71 399.061 1594.52 398.758 1595.57 398.758C1596.62 398.758 1597.43 399.061 1597.97 399.666C1598.52 400.271 1598.79 401.014 1598.79 401.893C1598.79 402.771 1598.52 403.504 1597.97 404.09C1597.43 404.676 1596.62 404.969 1595.57 404.969C1594.52 404.969 1593.71 404.676 1593.17 404.09C1592.64 403.504 1592.38 402.771 1592.38 401.893ZM1620.09 442.586C1615.79 442.586 1612.3 441.18 1609.6 438.367C1606.91 435.535 1605.56 431.756 1605.56 427.029V426.033C1605.56 422.889 1606.16 420.086 1607.35 417.625C1608.56 415.145 1610.24 413.211 1612.39 411.824C1614.55 410.418 1616.9 409.715 1619.42 409.715C1623.54 409.715 1626.74 411.072 1629.03 413.787C1631.31 416.502 1632.46 420.389 1632.46 425.447V427.703H1610.98C1611.06 430.828 1611.97 433.357 1613.71 435.291C1615.46 437.205 1617.69 438.162 1620.38 438.162C1622.3 438.162 1623.92 437.771 1625.25 436.99C1626.58 436.209 1627.74 435.174 1628.73 433.885L1632.04 436.463C1629.39 440.545 1625.4 442.586 1620.09 442.586ZM1619.42 414.168C1617.23 414.168 1615.39 414.969 1613.91 416.57C1612.43 418.152 1611.51 420.379 1611.16 423.25H1627.04V422.84C1626.88 420.086 1626.14 417.957 1624.81 416.453C1623.48 414.93 1621.68 414.168 1619.42 414.168ZM1666.82 434.529L1672.91 410.301H1678.33L1669.11 442H1664.71L1657.01 417.977L1649.51 442H1645.11L1635.91 410.301H1641.3L1647.54 434.031L1654.93 410.301H1659.29L1666.82 434.529Z" fill="white"/>
<path d="M1660.42 604.776L1659.66 603.885C1659.66 603.885 1659.66 603.884 1659.66 603.883C1653.15 596.244 1647.04 588.28 1641.34 580.022L1640.3 578.469L1640.3 578.468C1634.48 569.839 1627 558.58 1627 545.249C1627.01 539.614 1628.44 534.073 1631.17 529.144C1633.9 524.215 1637.84 520.06 1642.61 517.067C1647.39 514.073 1652.84 512.341 1658.47 512.031C1663.49 511.754 1668.5 512.619 1673.12 514.549C1672.21 517.336 1671.81 520.257 1671.94 523.168C1669.08 521.363 1665.83 520.234 1662.41 519.903C1657.16 519.394 1651.89 520.813 1647.61 523.896C1643.32 526.979 1640.3 531.516 1639.11 536.661C1637.92 541.807 1638.64 547.209 1641.13 551.863C1643.63 556.516 1647.73 560.103 1652.68 561.955C1657.63 563.807 1663.08 563.797 1668.02 561.929C1672.96 560.06 1677.05 556.459 1679.53 551.797C1681.15 548.747 1682.01 545.38 1682.08 541.977C1683.32 542.865 1684.65 543.636 1686.04 544.28C1688.49 545.413 1691.11 546.13 1693.79 546.405C1693.38 559.23 1686.16 570.058 1680.54 578.442L1680.53 578.454L1679.49 580.029C1673.79 588.284 1667.68 596.246 1661.18 603.884C1661.18 603.884 1661.18 603.885 1661.18 603.885L1660.42 604.776Z" stroke="white" stroke-width="4"/>
<path d="M1696.44 537.042C1704.74 537.042 1711.46 530.317 1711.46 522.021C1711.46 513.725 1704.74 507 1696.44 507C1688.15 507 1681.42 513.725 1681.42 522.021C1681.42 530.317 1688.15 537.042 1696.44 537.042Z" fill="white"/>
<path d="M1342.82 544.549V581.968L1322.74 561.762L1318.9 565.633L1338.62 585.51H1270.98L1290.07 565.633L1286.14 561.817L1266.45 582.325V534.775L1300.35 568.736C1301.38 569.758 1302.76 570.332 1304.2 570.332C1305.64 570.332 1307.02 569.758 1308.04 568.736L1332.13 544.631C1330.2 544.126 1328.37 543.34 1326.67 542.298L1304.14 564.837L1270.03 530.602H1317.75C1317.23 528.819 1316.94 526.972 1316.91 525.111H1266.45C1265.01 525.111 1263.62 525.69 1262.6 526.72C1261.57 527.749 1261 529.146 1261 530.602V585.51C1261 586.966 1261.57 588.363 1262.6 589.393C1263.62 590.422 1265.01 591.001 1266.45 591.001H1342.82C1344.26 591.001 1345.65 590.422 1346.67 589.393C1347.7 588.363 1348.27 586.966 1348.27 585.51V542.133C1346.58 543.204 1344.74 544.018 1342.82 544.549Z" fill="white"/>
<path d="M1337.36 538.454C1344.9 538.454 1351 532.308 1351 524.727C1351 517.146 1344.9 511 1337.36 511C1329.83 511 1323.73 517.146 1323.73 524.727C1323.73 532.308 1329.83 538.454 1337.36 538.454Z" fill="white"/>
<path fill-rule="evenodd" clip-rule="evenodd" d="M1505.42 505H1502V508.194C1502 509.191 1501.19 510 1500.19 510H1467.81C1466.81 510 1466 509.191 1466 508.194V505H1459.58C1457.05 505 1455 507.051 1455 509.581V602.419C1455 604.949 1457.05 607 1459.58 607H1505.42C1507.95 607 1510 604.949 1510 602.419V509.581C1510 507.051 1507.95 505 1505.42 505ZM1505.42 501H1502H1466H1459.58C1454.84 501 1451 504.842 1451 509.581V602.419C1451 607.158 1454.84 611 1459.58 611H1505.42C1510.16 611 1514 607.158 1514 602.419V509.581C1514 504.842 1510.16 501 1505.42 501ZM1484 591C1480.69 591 1478 593.686 1478 597C1478 600.314 1480.69 603 1484 603C1487.31 603 1490 600.314 1490 597C1490 593.686 1487.31 591 1484 591Z" fill="white"/>
<path d="M1511.64 521.954C1520.56 521.954 1527.77 514.673 1527.77 505.727C1527.77 496.781 1520.56 489.5 1511.64 489.5C1502.71 489.5 1495.5 496.781 1495.5 505.727C1495.5 514.673 1502.71 521.954 1511.64 521.954Z" fill="white" stroke="#333333" stroke-width="5"/>
<rect x="0.5" y="0.5" width="1999" height="999" stroke="#BEBEBE"/>
</svg>
