<svg width="1000" height="1000" viewBox="0 0 1000 1000" fill="none" xmlns="http://www.w3.org/2000/svg">
<rect x="186" y="344" width="627" height="627" fill="white"/>
<path d="M643.711 387.889H769.111V513.289" stroke="#C2C2C2" stroke-width="25.08"/>
<path d="M355.291 387.889H229.891V513.289" stroke="#C2C2C2" stroke-width="25.08"/>
<path d="M643.711 927.107H769.111V801.707" stroke="#C2C2C2" stroke-width="25.08"/>
<path d="M355.291 927.107H229.891V801.707" stroke="#C2C2C2" stroke-width="25.08"/>
<path d="M350.425 606.64L340.048 576.439L329.019 606.64H350.425ZM335.208 566.294H345.678L370.482 634.654H360.337L353.403 614.179H326.366L318.967 634.654H309.474L335.208 566.294ZM383.093 610.316C383.093 615.652 384.225 620.12 386.49 623.719C388.754 627.317 392.384 629.117 397.379 629.117C401.257 629.117 404.437 627.457 406.919 624.137C409.431 620.787 410.688 615.994 410.688 609.758C410.688 603.46 409.4 598.807 406.826 595.797C404.251 592.757 401.071 591.237 397.286 591.237C393.067 591.237 389.639 592.85 387.002 596.077C384.396 599.303 383.093 604.05 383.093 610.316ZM395.704 583.931C399.519 583.931 402.715 584.738 405.29 586.351C406.779 587.282 408.47 588.91 410.362 591.237V566.061H418.413V634.654H410.874V627.721C408.92 630.792 406.608 633.01 403.94 634.375C401.272 635.74 398.217 636.423 394.773 636.423C389.22 636.423 384.411 634.096 380.347 629.442C376.283 624.758 374.251 618.538 374.251 610.782C374.251 603.522 376.097 597.24 379.789 591.935C383.511 586.599 388.816 583.931 395.704 583.931ZM436.143 610.316C436.143 615.652 437.275 620.12 439.54 623.719C441.804 627.317 445.434 629.117 450.429 629.117C454.307 629.117 457.487 627.457 459.969 624.137C462.482 620.787 463.738 615.994 463.738 609.758C463.738 603.46 462.451 598.807 459.876 595.797C457.301 592.757 454.121 591.237 450.336 591.237C446.117 591.237 442.689 592.85 440.052 596.077C437.446 599.303 436.143 604.05 436.143 610.316ZM448.754 583.931C452.57 583.931 455.765 584.738 458.34 586.351C459.829 587.282 461.52 588.91 463.412 591.237V566.061H471.463V634.654H463.924V627.721C461.97 630.792 459.658 633.01 456.99 634.375C454.322 635.74 451.267 636.423 447.823 636.423C442.27 636.423 437.461 634.096 433.397 629.442C429.333 624.758 427.301 618.538 427.301 610.782C427.301 603.522 429.147 597.24 432.839 591.935C436.561 586.599 441.866 583.931 448.754 583.931ZM541.545 584.815H550.805C549.626 588.011 547.005 595.301 542.941 606.687C539.901 615.249 537.357 622.229 535.309 627.627C530.469 640.347 527.057 648.103 525.071 650.895C523.086 653.687 519.673 655.083 514.834 655.083C513.655 655.083 512.74 655.037 512.088 654.944C511.468 654.851 510.692 654.68 509.761 654.432V646.8C511.219 647.203 512.274 647.451 512.926 647.545C513.577 647.638 514.151 647.684 514.647 647.684C516.199 647.684 517.331 647.42 518.045 646.893C518.789 646.397 519.41 645.776 519.906 645.032C520.061 644.783 520.619 643.511 521.581 641.216C522.543 638.92 523.241 637.214 523.675 636.097L505.247 584.815H514.741L528.096 625.394L541.545 584.815ZM577.842 629.256C583.395 629.256 587.196 627.162 589.243 622.974C591.322 618.755 592.361 614.07 592.361 608.92C592.361 604.267 591.617 600.482 590.127 597.566C587.77 592.974 583.706 590.679 577.935 590.679C572.816 590.679 569.094 592.633 566.767 596.542C564.44 600.451 563.277 605.167 563.277 610.689C563.277 615.994 564.44 620.415 566.767 623.951C569.094 627.488 572.785 629.256 577.842 629.256ZM578.168 583.373C584.59 583.373 590.019 585.513 594.455 589.794C598.892 594.076 601.11 600.373 601.11 608.688C601.11 616.723 599.155 623.362 595.246 628.605C591.337 633.848 585.272 636.469 577.051 636.469C570.195 636.469 564.75 634.158 560.717 629.535C556.684 624.882 554.668 618.646 554.668 610.828C554.668 602.452 556.793 595.782 561.043 590.818C565.293 585.854 571.002 583.373 578.168 583.373ZM619.491 584.815V617.902C619.491 620.446 619.894 622.524 620.701 624.137C622.19 627.116 624.967 628.605 629.031 628.605C634.863 628.605 638.834 625.999 640.944 620.787C642.092 617.995 642.666 614.163 642.666 609.293V584.815H651.042V634.654H643.131L643.224 627.302C642.138 629.194 640.789 630.792 639.176 632.095C635.98 634.701 632.102 636.004 627.542 636.004C620.437 636.004 615.598 633.631 613.023 628.884C611.627 626.34 610.929 622.943 610.929 618.693V584.815H619.491ZM664.398 584.815H672.355V593.424C673.007 591.749 674.604 589.717 677.148 587.328C679.692 584.908 682.624 583.698 685.943 583.698C686.098 583.698 686.362 583.714 686.734 583.745C687.107 583.776 687.743 583.838 688.642 583.931V592.773C688.146 592.68 687.681 592.618 687.246 592.587C686.843 592.555 686.393 592.54 685.897 592.54C681.678 592.54 678.436 593.905 676.171 596.635C673.906 599.334 672.774 602.452 672.774 605.989V634.654H664.398V584.815Z" fill="#C2C2C2"/>
<path d="M351.266 747.605C348.195 748.628 344.519 749.14 340.238 749.14C331.303 749.14 323.919 746.472 318.087 741.136C311.014 734.714 307.477 725.283 307.477 712.843C307.477 700.309 311.107 690.832 318.366 684.41C324.292 679.167 331.66 676.546 340.47 676.546C349.343 676.546 356.789 679.322 362.807 684.875C369.756 691.297 373.231 700.278 373.231 711.819C373.231 717.931 372.486 723.05 370.997 727.176C369.787 731.116 368.004 734.389 365.646 736.995L373.557 744.394L366.065 752.212L357.781 744.394C355.268 745.914 353.097 746.984 351.266 747.605ZM348.195 735.226L341.261 728.618L348.66 720.894L355.594 727.502C356.68 725.268 357.44 723.313 357.874 721.638C358.557 719.125 358.898 716.193 358.898 712.843C358.898 705.149 357.316 699.208 354.152 695.02C351.018 690.801 346.427 688.691 340.377 688.691C334.7 688.691 330.171 690.708 326.789 694.741C323.407 698.774 321.717 704.808 321.717 712.843C321.717 722.243 324.136 728.975 328.976 733.039C332.109 735.676 335.863 736.995 340.238 736.995C341.882 736.995 343.464 736.793 344.984 736.39C345.822 736.173 346.892 735.785 348.195 735.226ZM413.344 720.335H398.546V747.232H384.539V678.64H418.184C422.993 678.733 426.684 679.322 429.259 680.408C431.865 681.494 434.068 683.091 435.867 685.201C437.356 686.938 438.535 688.862 439.404 690.971C440.273 693.081 440.707 695.485 440.707 698.184C440.707 701.442 439.885 704.653 438.241 707.817C436.596 710.951 433.882 713.169 430.097 714.472C433.261 715.744 435.495 717.559 436.798 719.916C438.132 722.243 438.799 725.811 438.799 730.619V735.226C438.799 738.36 438.923 740.485 439.171 741.602C439.544 743.37 440.412 744.673 441.777 745.511V747.232H426.002C425.568 745.712 425.257 744.487 425.071 743.556C424.699 741.633 424.497 739.663 424.466 737.646L424.373 731.271C424.311 726.897 423.505 723.98 421.953 722.522C420.433 721.064 417.564 720.335 413.344 720.335ZM422.046 707.864C424.901 706.561 426.328 703.986 426.328 700.139C426.328 695.982 424.947 693.19 422.186 691.763C420.635 690.956 418.308 690.553 415.206 690.553H398.546V708.981H414.787C418.013 708.981 420.433 708.608 422.046 707.864ZM522.423 714.704H508.834C508.586 712.812 507.95 711.106 506.927 709.585C505.437 707.538 503.126 706.514 499.993 706.514C495.525 706.514 492.47 708.732 490.825 713.169C489.957 715.526 489.522 718.66 489.522 722.569C489.522 726.292 489.957 729.285 490.825 731.55C492.408 735.769 495.386 737.879 499.76 737.879C502.862 737.879 505.065 737.041 506.368 735.366C507.671 733.691 508.462 731.519 508.741 728.851H522.283C521.973 732.884 520.515 736.7 517.909 740.299C513.752 746.1 507.594 749.001 499.434 749.001C491.275 749.001 485.272 746.581 481.425 741.741C477.578 736.902 475.655 730.619 475.655 722.895C475.655 714.177 477.78 707.398 482.03 702.559C486.28 697.719 492.144 695.299 499.621 695.299C505.98 695.299 511.177 696.726 515.21 699.58C519.274 702.435 521.678 707.476 522.423 714.704ZM573.891 702.931C578.172 708.298 580.312 714.642 580.312 721.964C580.312 729.409 578.172 735.785 573.891 741.09C569.609 746.364 563.11 749.001 554.392 749.001C545.675 749.001 539.175 746.364 534.894 741.09C530.613 735.785 528.472 729.409 528.472 721.964C528.472 714.642 530.613 708.298 534.894 702.931C539.175 697.564 545.675 694.88 554.392 694.88C563.11 694.88 569.609 697.564 573.891 702.931ZM554.346 706.095C550.468 706.095 547.474 707.476 545.365 710.237C543.286 712.967 542.247 716.876 542.247 721.964C542.247 727.052 543.286 730.976 545.365 733.737C547.474 736.498 550.468 737.879 554.346 737.879C558.224 737.879 561.202 736.498 563.281 733.737C565.359 730.976 566.398 727.052 566.398 721.964C566.398 716.876 565.359 712.967 563.281 710.237C561.202 707.476 558.224 706.095 554.346 706.095ZM636.015 678.733V747.232H623.125V740.206C621.232 743.215 619.076 745.402 616.656 746.767C614.237 748.132 611.227 748.815 607.629 748.815C601.703 748.815 596.708 746.426 592.644 741.648C588.611 736.84 586.595 730.681 586.595 723.174C586.595 714.518 588.58 707.709 592.551 702.745C596.553 697.781 601.889 695.299 608.559 695.299C611.631 695.299 614.361 695.982 616.749 697.347C619.138 698.681 621.077 700.542 622.566 702.931V678.733H636.015ZM600.276 722.197C600.276 726.881 601.207 730.619 603.068 733.411C604.899 736.235 607.691 737.646 611.444 737.646C615.198 737.646 618.052 736.25 620.007 733.458C621.961 730.666 622.939 727.052 622.939 722.615C622.939 716.411 621.372 711.974 618.239 709.306C616.315 707.693 614.081 706.886 611.538 706.886C607.66 706.886 604.805 708.36 602.975 711.307C601.176 714.223 600.276 717.853 600.276 722.197ZM691.531 732.341C691.19 735.35 689.624 738.406 686.831 741.509C682.488 746.441 676.408 748.908 668.59 748.908C662.137 748.908 656.444 746.829 651.511 742.672C646.579 738.515 644.112 731.752 644.112 722.383C644.112 713.603 646.33 706.871 650.767 702.186C655.234 697.502 661.02 695.16 668.124 695.16C672.343 695.16 676.144 695.951 679.525 697.533C682.907 699.115 685.699 701.612 687.902 705.025C689.887 708.034 691.175 711.524 691.764 715.495C692.105 717.822 692.245 721.173 692.183 725.547H657.468C657.654 730.635 659.252 734.203 662.261 736.25C664.091 737.522 666.294 738.158 668.869 738.158C671.599 738.158 673.817 737.382 675.523 735.831C676.454 734.994 677.276 733.83 677.99 732.341H691.531ZM678.409 716.798C678.191 713.293 677.121 710.64 675.198 708.841C673.305 707.011 670.947 706.095 668.124 706.095C665.053 706.095 662.664 707.057 660.958 708.981C659.283 710.904 658.228 713.51 657.794 716.798H678.409Z" fill="#C2C2C2"/>
<path d="M358.51 134.319C358.51 132.302 357.673 130.766 355.997 129.712C354.353 128.657 351.608 127.726 347.761 126.92C343.914 126.113 340.703 125.089 338.128 123.848C332.482 121.118 329.659 117.163 329.659 111.982C329.659 107.639 331.489 104.009 335.15 101.093C338.81 98.1764 343.464 96.7183 349.11 96.7183C355.129 96.7183 359.984 98.2074 363.676 101.186C367.399 104.164 369.26 108.026 369.26 112.773H357.952C357.952 110.601 357.145 108.802 355.532 107.375C353.919 105.917 351.778 105.188 349.11 105.188C346.628 105.188 344.596 105.762 343.014 106.909C341.463 108.057 340.687 109.593 340.687 111.516C340.687 113.254 341.416 114.603 342.875 115.565C344.333 116.527 347.28 117.504 351.716 118.497C356.153 119.458 359.627 120.622 362.14 121.987C364.684 123.321 366.561 124.934 367.771 126.827C369.012 128.719 369.632 131.015 369.632 133.714C369.632 138.243 367.755 141.919 364.002 144.743C360.248 147.535 355.33 148.931 349.25 148.931C345.124 148.931 341.447 148.186 338.221 146.697C334.995 145.208 332.482 143.16 330.682 140.554C328.883 137.948 327.983 135.141 327.983 132.132H338.966C339.121 134.8 340.129 136.863 341.99 138.321C343.852 139.748 346.318 140.461 349.389 140.461C352.368 140.461 354.632 139.903 356.184 138.786C357.735 137.638 358.51 136.149 358.51 134.319ZM400.206 139.903C403.029 139.903 405.371 139.081 407.233 137.437C409.094 135.792 410.087 133.76 410.211 131.34H420.867C420.743 134.474 419.766 137.405 417.936 140.136C416.105 142.835 413.624 144.975 410.49 146.557C407.357 148.14 403.975 148.931 400.345 148.931C393.303 148.931 387.719 146.65 383.593 142.09C379.467 137.53 377.404 131.232 377.404 123.197V122.033C377.404 114.371 379.451 108.243 383.546 103.652C387.641 99.0295 393.226 96.7183 400.299 96.7183C406.286 96.7183 411.157 98.4711 414.911 101.977C418.696 105.451 420.681 110.027 420.867 115.705H410.211C410.087 112.819 409.094 110.446 407.233 108.585C405.402 106.723 403.06 105.793 400.206 105.793C396.545 105.793 393.722 107.127 391.736 109.795C389.751 112.432 388.743 116.449 388.712 121.847V123.662C388.712 129.122 389.689 133.202 391.643 135.901C393.629 138.569 396.483 139.903 400.206 139.903ZM459.492 148C458.995 147.038 458.561 145.472 458.189 143.3C454.59 147.054 450.185 148.931 444.973 148.931C439.916 148.931 435.79 147.488 432.594 144.603C429.399 141.718 427.801 138.15 427.801 133.9C427.801 128.533 429.787 124.422 433.758 121.568C437.76 118.683 443.468 117.24 450.883 117.24H457.816V113.936C457.816 111.33 457.087 109.252 455.629 107.701C454.171 106.118 451.953 105.327 448.975 105.327C446.4 105.327 444.29 105.979 442.646 107.282C441.002 108.554 440.18 110.182 440.18 112.168H428.872C428.872 109.407 429.787 106.832 431.617 104.443C433.447 102.023 435.929 100.131 439.063 98.7658C442.227 97.4008 445.748 96.7183 449.626 96.7183C455.521 96.7183 460.221 98.2074 463.726 101.186C467.232 104.133 469.031 108.29 469.124 113.657V136.366C469.124 140.896 469.76 144.51 471.032 147.209V148H459.492ZM447.067 139.856C449.3 139.856 451.395 139.313 453.349 138.228C455.335 137.142 456.824 135.684 457.816 133.853V124.36H451.72C447.532 124.36 444.383 125.089 442.274 126.547C440.164 128.005 439.109 130.068 439.109 132.736C439.109 134.908 439.823 136.645 441.25 137.948C442.708 139.22 444.647 139.856 447.067 139.856ZM491.461 97.649L491.787 103.466C495.51 98.9675 500.396 96.7183 506.446 96.7183C516.932 96.7183 522.268 102.721 522.454 114.727V148H511.146V115.379C511.146 112.183 510.448 109.826 509.052 108.306C507.687 106.754 505.437 105.979 502.304 105.979C497.744 105.979 494.346 108.042 492.113 112.168V148H480.805V97.649H491.461ZM561.729 148V106.025H554.051V97.649H561.729V93.042C561.729 87.4578 563.281 83.1455 566.383 80.1052C569.485 77.0649 573.829 75.5448 579.413 75.5448C581.398 75.5448 583.508 75.824 585.742 76.3824L585.462 85.2241C584.221 84.9759 582.779 84.8518 581.135 84.8518C575.736 84.8518 573.037 87.6284 573.037 93.1816V97.649H583.275V106.025H573.037V148H561.729ZM589.418 122.359C589.418 117.426 590.395 112.99 592.35 109.05C594.304 105.079 597.05 102.039 600.586 99.9292C604.123 97.7886 608.187 96.7183 612.778 96.7183C619.573 96.7183 625.079 98.9054 629.298 103.28C633.549 107.654 635.844 113.455 636.186 120.684L636.232 123.336C636.232 128.3 635.27 132.736 633.347 136.645C631.455 140.554 628.724 143.579 625.157 145.72C621.62 147.86 617.525 148.931 612.872 148.931C605.767 148.931 600.074 146.573 595.793 141.857C591.543 137.111 589.418 130.798 589.418 122.918V122.359ZM600.726 123.336C600.726 128.517 601.796 132.581 603.937 135.529C606.077 138.445 609.056 139.903 612.872 139.903C616.687 139.903 619.65 138.414 621.76 135.436C623.9 132.457 624.971 128.098 624.971 122.359C624.971 117.271 623.869 113.238 621.667 110.26C619.495 107.282 616.532 105.793 612.778 105.793C609.087 105.793 606.155 107.266 603.983 110.213C601.812 113.13 600.726 117.504 600.726 123.336ZM672.157 107.98C670.668 107.732 669.133 107.607 667.55 107.607C662.369 107.607 658.879 109.593 657.08 113.564V148H645.772V97.649H656.568L656.847 103.28C659.577 98.9054 663.362 96.7183 668.202 96.7183C669.815 96.7183 671.149 96.9354 672.204 97.3698L672.157 107.98Z" fill="#333333"/>
<path d="M358.554 242.972L375.948 185.255H393.553L366.83 262H350.331L323.713 185.255H341.265L358.554 242.972ZM460.337 236.436C459.739 244.694 456.682 251.195 451.165 255.938C445.683 260.682 438.445 263.054 429.449 263.054C419.61 263.054 411.861 259.751 406.204 253.145C400.581 246.503 397.77 237.402 397.77 225.841V221.15C397.77 213.771 399.07 207.27 401.671 201.647C404.271 196.025 407.978 191.72 412.793 188.733C417.642 185.711 423.264 184.2 429.66 184.2C438.515 184.2 445.648 186.572 451.06 191.316C456.471 196.06 459.599 202.719 460.442 211.293H444.629C444.243 206.339 442.855 202.754 440.465 200.54C438.111 198.292 434.509 197.167 429.66 197.167C424.389 197.167 420.435 199.065 417.8 202.86C415.2 206.62 413.864 212.47 413.794 220.412V226.21C413.794 234.503 415.041 240.565 417.536 244.395C420.066 248.225 424.037 250.14 429.449 250.14C434.333 250.14 437.97 249.033 440.36 246.82C442.784 244.571 444.172 241.109 444.524 236.436H460.337ZM514.048 246.187H486.323L481.052 262H464.237L492.806 185.255H507.459L536.186 262H519.372L514.048 246.187ZM490.592 233.379H509.778L500.133 204.652L490.592 233.379ZM571.765 233.906H559.167V262H543.354V185.255H571.87C580.937 185.255 587.929 187.275 592.849 191.316C597.768 195.357 600.228 201.068 600.228 208.447C600.228 213.683 599.086 218.058 596.802 221.572C594.553 225.05 591.127 227.827 586.524 229.9L603.127 261.262V262H586.155L571.765 233.906ZM559.167 221.097H571.923C575.894 221.097 578.969 220.096 581.147 218.093C583.326 216.055 584.415 213.261 584.415 209.712C584.415 206.093 583.379 203.246 581.305 201.173C579.267 199.1 576.122 198.063 571.87 198.063H559.167V221.097ZM612.299 262V185.255H635.913C642.66 185.255 648.686 186.783 653.992 189.84C659.333 192.862 663.498 197.185 666.484 202.807C669.471 208.394 670.965 214.755 670.965 221.888V225.419C670.965 232.553 669.489 238.896 666.537 244.448C663.62 250 659.492 254.304 654.15 257.362C648.809 260.419 642.783 261.965 636.071 262H612.299ZM628.112 198.063V249.297H635.755C641.939 249.297 646.666 247.276 649.934 243.235C653.202 239.194 654.871 233.414 654.941 225.894V221.835C654.941 214.034 653.325 208.131 650.092 204.125C646.859 200.084 642.132 198.063 635.913 198.063H628.112Z" fill="#333333"/>
<rect x="192" y="291" width="616" height="13" fill="#333333"/>
</svg>
