<svg width="1000" height="1000" viewBox="0 0 1000 1000" fill="none" xmlns="http://www.w3.org/2000/svg">
<rect x="36" width="928" height="1000" rx="16" fill="#333333"/>
<path d="M877.032 303.754C877.29 302.753 878.71 302.753 878.968 303.754L893.027 358.254C893.118 358.607 893.393 358.882 893.746 358.973L948.246 373.032C949.247 373.29 949.247 374.71 948.246 374.968L893.746 389.027C893.393 389.118 893.118 389.393 893.027 389.746L878.968 444.246C878.71 445.247 877.29 445.247 877.032 444.246L862.973 389.746C862.882 389.393 862.607 389.118 862.254 389.027L807.754 374.968C806.753 374.71 806.753 373.29 807.754 373.032L862.254 358.973C862.607 358.882 862.882 358.607 862.973 358.254L877.032 303.754Z" fill="white"/>
<path d="M134.027 727.125C134.269 726.097 135.731 726.097 135.973 727.125L144.404 762.852C144.491 763.221 144.779 763.509 145.148 763.596L180.875 772.027C181.903 772.269 181.903 773.731 180.875 773.973L145.148 782.404C144.779 782.491 144.491 782.779 144.404 783.148L135.973 818.875C135.731 819.903 134.269 819.903 134.027 818.875L125.596 783.148C125.509 782.779 125.221 782.491 124.852 782.404L89.1246 773.973C88.0974 773.731 88.0974 772.269 89.1246 772.027L124.852 763.596C125.221 763.509 125.509 763.221 125.596 762.852L134.027 727.125Z" fill="white"/>
<path d="M115.022 116.553C115.248 115.5 116.752 115.5 116.978 116.553L124.703 152.529C124.786 152.914 125.086 153.214 125.471 153.297L161.447 161.022C162.5 161.248 162.5 162.752 161.447 162.978L125.471 170.703C125.086 170.786 124.786 171.086 124.703 171.471L116.978 207.447C116.752 208.5 115.248 208.5 115.022 207.447L107.297 171.471C107.214 171.086 106.914 170.786 106.529 170.703L70.5531 162.978C69.4997 162.752 69.4997 161.248 70.5531 161.022L106.529 153.297C106.914 153.214 107.214 152.914 107.297 152.529L115.022 116.553Z" fill="white"/>
<path d="M287.645 129.215C286.168 129.215 284.763 129.001 283.43 128.572C282.096 128.191 280.953 127.334 280.001 126C280.572 123.286 281.287 120.309 282.144 117.07C283.049 113.784 284.001 110.474 285.001 107.14C286.002 103.806 286.978 100.639 287.93 97.6388C288.931 94.5907 289.812 91.9236 290.574 89.6375C291.336 87.3514 291.931 85.6607 292.36 84.5653C292.55 84.0414 292.907 83.2555 293.431 82.2078C293.955 81.1123 294.598 80.1122 295.36 79.2073C296.122 78.3024 296.98 77.8499 297.932 77.8499C298.599 77.8499 299.266 78.088 299.932 78.5643C298.456 81.9934 296.956 85.7798 295.432 89.9233C293.955 94.0668 292.526 98.3532 291.145 102.782C289.764 107.164 288.502 111.451 287.359 115.642C286.216 119.833 285.263 123.643 284.501 127.072C285.644 127.263 286.668 127.358 287.573 127.358C290.621 127.358 293.55 126.643 296.36 125.215C299.218 123.833 301.861 121.928 304.29 119.499C306.767 117.023 308.934 114.213 310.791 111.07C312.649 107.879 314.078 104.521 315.078 100.996C316.125 97.4245 316.649 93.8763 316.649 90.3519C316.649 84.5415 315.292 80.2789 312.577 77.5642C309.863 74.8494 306.338 73.4921 302.004 73.4921C298.908 73.4921 296.122 74.1112 293.646 75.3495C291.169 76.5878 289.216 78.2547 287.788 80.3503C286.359 82.4459 285.644 84.8034 285.644 87.4229C285.644 88.4707 285.763 89.3518 286.002 90.0662C284.43 90.0662 283.311 89.6851 282.644 88.9231C282.025 88.1135 281.715 87.1609 281.715 86.0655C281.715 84.3986 282.287 82.7316 283.43 81.0647C284.62 79.3502 286.24 77.7785 288.288 76.3497C290.383 74.9209 292.788 73.7778 295.503 72.9206C298.218 72.0156 301.099 71.5632 304.147 71.5632C308.434 71.5632 311.863 72.4443 314.435 74.2065C317.054 75.921 318.959 78.2547 320.15 81.2076C321.341 84.1605 321.936 87.4705 321.936 91.1378C321.936 95.2813 321.293 99.2581 320.007 103.068C318.721 106.831 316.935 110.307 314.649 113.498C312.411 116.642 309.839 119.404 306.934 121.786C304.028 124.119 300.909 125.929 297.575 127.215C294.289 128.549 290.979 129.215 287.645 129.215ZM326.765 125.286C324.717 125.286 323.265 124.643 322.408 123.357C321.55 122.119 321.122 120.595 321.122 118.785C321.122 117.309 321.36 115.785 321.836 114.213C322.312 112.641 322.931 111.165 323.693 109.784C324.503 108.402 325.384 107.283 326.337 106.426C327.337 105.569 328.337 105.14 329.337 105.14C329.766 105.14 330.266 105.259 330.837 105.497C330.409 105.878 329.885 106.593 329.266 107.64C328.694 108.641 328.147 109.807 327.623 111.141C327.099 112.427 326.646 113.713 326.265 114.999C325.932 116.285 325.765 117.38 325.765 118.285C325.765 119.714 326.003 120.762 326.48 121.428C326.956 122.047 327.575 122.357 328.337 122.357C329.337 122.357 330.528 121.833 331.909 120.785C333.29 119.69 334.648 118.309 335.981 116.642C334.648 115.546 333.6 114.118 332.838 112.355C332.123 110.546 331.766 108.712 331.766 106.855C331.766 105.283 332.028 103.806 332.552 102.425C333.124 101.044 333.933 99.9487 334.981 99.139C336.029 98.2818 337.291 97.8531 338.767 97.8531C340.72 97.8531 342.03 98.377 342.697 99.4248C343.363 100.473 343.697 101.782 343.697 103.354C343.697 105.211 343.244 107.283 342.339 109.569C341.434 111.808 340.291 113.975 338.91 116.07C339.767 116.547 340.672 116.785 341.625 116.785C342.72 116.785 344.054 116.428 345.626 115.713C347.197 114.951 348.412 113.594 349.269 111.641L350.126 112.355C349.174 114.594 347.816 116.189 346.054 117.142C344.34 118.047 342.696 118.499 341.125 118.499C339.839 118.499 338.696 118.261 337.696 117.785C336.076 119.928 334.29 121.714 332.338 123.143C330.433 124.572 328.575 125.286 326.765 125.286ZM337.267 114.784C338.458 113.022 339.434 111.189 340.196 109.284C341.006 107.331 341.411 105.497 341.411 103.783C341.411 102.401 341.196 101.401 340.768 100.782C340.387 100.115 339.887 99.782 339.267 99.782C338.315 99.782 337.338 100.473 336.338 101.854C335.338 103.235 334.838 104.973 334.838 107.069C334.838 108.45 335.029 109.855 335.41 111.284C335.838 112.665 336.457 113.832 337.267 114.784ZM371.003 124.429C369.337 124.429 368.074 124 367.217 123.143C366.408 122.286 366.003 121.19 366.003 119.857C366.003 118.856 366.169 117.809 366.503 116.713C366.884 115.618 367.241 114.499 367.574 113.356C367.908 112.165 368.074 111.022 368.074 109.926C368.074 108.593 367.789 107.688 367.217 107.212C366.693 106.688 366.026 106.426 365.217 106.426C363.74 106.426 362.24 107.045 360.716 108.283C359.192 109.474 357.716 111.022 356.287 112.927C354.858 114.784 353.524 116.713 352.286 118.714C351.048 120.714 349.952 122.5 349 124.072C348.238 124.072 347.524 123.929 346.857 123.643C346.142 123.405 345.595 123.024 345.214 122.5C345.214 122.262 345.476 121.524 345.999 120.285C346.476 119.047 347.047 117.523 347.714 115.713C348.381 113.903 348.976 112.046 349.5 110.141C350.024 108.236 350.286 106.497 350.286 104.926C350.572 104.592 351.024 104.259 351.643 103.926C352.262 103.592 352.905 103.425 353.572 103.425C354.858 103.425 355.501 104.045 355.501 105.283C355.501 106.045 355.287 107.331 354.858 109.141C354.429 110.903 353.882 112.76 353.215 114.713C354.501 112.76 355.93 110.831 357.501 108.926C359.121 106.974 360.835 105.354 362.645 104.068C364.455 102.782 366.265 102.14 368.074 102.14C369.932 102.14 371.265 102.806 372.075 104.14C372.932 105.473 373.361 106.95 373.361 108.569C373.361 110.046 373.123 111.427 372.647 112.713C372.17 113.951 371.67 115.165 371.146 116.356C370.67 117.499 370.432 118.666 370.432 119.857C370.432 120.857 370.622 121.571 371.003 122C371.432 122.381 371.956 122.571 372.575 122.571C373.766 122.571 374.956 122.024 376.147 120.928C377.338 119.785 378.481 118.356 379.576 116.642C380.719 114.927 381.719 113.189 382.577 111.427L383.363 112.355C381.886 115.832 380.124 118.714 378.076 121C376.028 123.286 373.671 124.429 371.003 124.429ZM391.422 81.8506C391.089 81.6124 390.78 81.3267 390.494 80.9933C390.208 80.6599 390.065 80.2789 390.065 79.8502C390.065 79.2311 390.399 78.4452 391.065 77.4927C391.732 76.4926 392.423 75.4686 393.137 74.4208C393.851 73.373 394.328 72.4205 394.566 71.5632C395.042 71.5632 395.447 71.7775 395.78 72.2062C396.161 72.5872 396.352 73.0396 396.352 73.5635C396.352 74.1827 396.066 74.9685 395.495 75.921C394.923 76.8736 394.232 77.8737 393.423 78.9215C392.661 79.9693 391.994 80.9456 391.422 81.8506ZM394.814 126.286C390.575 126.286 388.455 123.929 388.455 119.214C388.455 117.118 388.837 114.546 389.599 111.498C390.408 108.402 391.408 105.235 392.599 101.997C392.123 101.901 391.67 101.83 391.242 101.782C390.813 101.687 390.408 101.568 390.027 101.425V100.139C390.408 100.187 390.861 100.234 391.385 100.282C391.908 100.33 392.504 100.377 393.171 100.425C394.171 97.8531 395.242 95.3765 396.385 92.9952C397.528 90.5662 398.648 88.423 399.743 86.5656C400.886 84.6605 401.958 83.1603 402.958 82.0649C404.006 80.9218 404.887 80.3503 405.601 80.3503C405.982 80.3503 406.315 80.4932 406.601 80.779C406.935 81.0171 407.101 81.3981 407.101 81.922C407.101 82.7316 406.601 84.0652 405.601 85.9226C404.601 87.7324 403.363 89.8995 401.886 92.4237C400.41 94.9479 398.981 97.6864 397.6 100.639H400.243C401.815 100.639 403.458 100.615 405.172 100.568C406.935 100.52 408.697 100.401 410.459 100.211V101.497C405.268 102.068 401.077 102.354 397.886 102.354H396.814C395.719 104.878 394.79 107.474 394.028 110.141C393.266 112.808 392.885 115.404 392.885 117.928C392.885 119.976 393.194 121.452 393.813 122.357C394.433 123.214 395.457 123.643 396.885 123.643C399.362 123.643 401.791 122.548 404.172 120.357C406.554 118.166 408.649 115.189 410.459 111.427L411.388 112.141C410.245 114.808 408.792 117.213 407.03 119.357C405.315 121.5 403.41 123.191 401.315 124.429C399.219 125.667 397.052 126.286 394.814 126.286ZM463.676 125.215C462.009 125.215 460.795 124.691 460.033 123.643C459.271 122.643 458.89 121.428 458.89 120C458.89 118.809 459.056 117.618 459.39 116.428C459.771 115.237 460.128 114.07 460.461 112.927C460.842 111.784 461.033 110.76 461.033 109.855C461.033 108.903 460.819 108.236 460.39 107.855C459.961 107.474 459.485 107.283 458.961 107.283C457.771 107.283 456.461 108.212 455.032 110.069C453.651 111.927 451.841 114.546 449.603 117.928C448.841 119.071 448.198 120.238 447.674 121.428C447.15 122.571 446.65 123.619 446.173 124.572C445.792 124.572 445.316 124.524 444.745 124.429C444.173 124.334 443.649 124.167 443.173 123.929C442.744 123.738 442.53 123.476 442.53 123.143C442.53 122.809 442.744 122.024 443.173 120.785C443.649 119.499 444.173 118.023 444.745 116.356C445.364 114.642 445.888 112.927 446.316 111.212C446.793 109.45 447.031 107.95 447.031 106.712C447.031 105.902 446.888 105.259 446.602 104.783C446.364 104.259 445.911 103.997 445.245 103.997C444.197 103.997 442.935 104.64 441.458 105.926C439.982 107.164 438.458 108.807 436.886 110.855C435.315 112.903 433.814 115.165 432.386 117.642C431.004 120.071 429.885 122.5 429.028 124.929C428.361 124.929 427.551 124.762 426.599 124.429C425.646 124.095 425.17 123.762 425.17 123.429C425.17 123.143 425.432 122.309 425.956 120.928C426.432 119.499 427.004 117.809 427.67 115.856C428.29 113.856 428.837 111.832 429.314 109.784C429.837 107.736 430.099 105.926 430.099 104.354C430.385 104.021 430.838 103.687 431.457 103.354C432.076 103.021 432.719 102.854 433.386 102.854C434.672 102.854 435.315 103.473 435.315 104.711C435.315 105.331 435.124 106.402 434.743 107.926C434.41 109.403 433.981 111.046 433.457 112.856C434.41 111.331 435.481 109.784 436.672 108.212C437.91 106.593 439.196 105.116 440.53 103.783C441.863 102.449 443.197 101.377 444.53 100.568C445.911 99.7106 447.245 99.2819 448.531 99.2819C450.007 99.2819 451.008 99.8296 451.531 100.925C452.103 101.973 452.389 103.235 452.389 104.711C452.389 105.902 452.246 107.164 451.96 108.498C451.722 109.784 451.436 110.998 451.103 112.141C450.769 113.237 450.46 114.118 450.174 114.784C451.174 112.975 452.27 111.236 453.46 109.569C454.699 107.855 456.032 106.474 457.461 105.426C458.89 104.33 460.414 103.783 462.033 103.783C463.557 103.783 464.605 104.235 465.176 105.14C465.796 106.045 466.105 107.117 466.105 108.355C466.105 109.593 465.891 110.95 465.462 112.427C465.034 113.903 464.581 115.332 464.105 116.713C463.676 118.094 463.462 119.285 463.462 120.285C463.462 120.904 463.605 121.476 463.891 122C464.224 122.476 464.795 122.714 465.605 122.714C466.939 122.714 468.177 122.119 469.32 120.928C470.511 119.69 471.606 118.214 472.606 116.499C473.606 114.737 474.464 113.046 475.178 111.427L476.035 112.427C475.273 114.427 474.297 116.428 473.106 118.428C471.916 120.381 470.511 122 468.891 123.286C467.32 124.572 465.581 125.215 463.676 125.215ZM487.572 92.1379C486.81 92.1379 486.119 91.9474 485.5 91.5664C484.929 91.1854 484.643 90.5901 484.643 89.7804C484.643 88.7802 485.214 87.923 486.357 87.2086C487.548 86.4465 488.715 86.0655 489.858 86.0655C490.572 86.0655 491.144 86.2322 491.572 86.5656C492.001 86.899 492.215 87.4705 492.215 88.2802C492.215 89.1851 491.715 90.0662 490.715 90.9234C489.763 91.7331 488.715 92.1379 487.572 92.1379ZM478.999 124.857C477.142 124.857 475.76 124.262 474.855 123.071C473.951 121.928 473.498 120.523 473.498 118.856C473.498 117.761 473.689 116.38 474.07 114.713C474.498 113.046 475.046 111.308 475.713 109.498C476.38 107.64 477.142 105.902 477.999 104.283C478.904 102.663 479.856 101.354 480.856 100.354C481.857 99.3057 482.833 98.7818 483.785 98.7818C484.214 98.7818 484.571 98.9247 484.857 99.2105C485.19 99.4486 485.357 99.8296 485.357 100.354C485.357 100.925 484.976 101.854 484.214 103.14C483.5 104.426 482.642 105.902 481.642 107.569C480.642 109.236 479.761 110.998 478.999 112.856C478.285 114.665 477.927 116.404 477.927 118.071C477.927 119.785 478.213 120.928 478.785 121.5C479.356 122.071 480.237 122.357 481.428 122.357C483.047 122.357 484.762 121.547 486.572 119.928C488.429 118.309 490.382 115.475 492.43 111.427L493.073 112.141C491.692 116.237 489.691 119.38 487.072 121.571C484.5 123.762 481.809 124.857 478.999 124.857ZM498.589 126.643C496.35 126.643 494.564 126.143 493.231 125.143C491.945 124.191 491.04 123 490.516 121.571C489.944 120.142 489.659 118.714 489.659 117.285C489.659 115.856 489.849 114.761 490.23 113.999C490.611 113.237 491.064 112.665 491.588 112.284C492.159 111.903 492.683 111.617 493.159 111.427C493.683 111.236 494.04 111.046 494.231 110.855C495.66 109.284 496.969 107.64 498.16 105.926C499.351 104.211 500.398 102.401 501.303 100.496V99.6391C501.303 97.8769 501.589 96.6386 502.161 95.9242C502.78 95.1622 503.423 94.7812 504.09 94.7812C504.852 94.7812 505.233 95.0908 505.233 95.7099C505.233 95.9481 505.161 96.3291 505.018 96.853C504.875 97.3769 504.804 98.0436 504.804 98.8533C504.804 100.425 505.113 102.14 505.733 103.997C506.352 105.807 506.971 107.736 507.59 109.784C508.209 111.784 508.519 113.879 508.519 116.07C508.519 117.309 508.376 118.475 508.09 119.571C509.757 119.285 511.329 118.547 512.805 117.356C514.282 116.118 515.71 114.165 517.092 111.498L517.735 112.213C516.83 114.832 515.472 116.832 513.662 118.214C511.853 119.547 509.876 120.381 507.733 120.714C506.971 122.762 505.756 124.262 504.09 125.215C502.47 126.167 500.637 126.643 498.589 126.643ZM503.589 119.499C503.685 119.023 503.756 118.523 503.804 117.999C503.851 117.475 503.875 116.856 503.875 116.142C503.875 113.903 503.589 111.689 503.018 109.498C502.494 107.259 502.042 105.164 501.661 103.211C500.565 105.021 499.398 106.759 498.16 108.426C496.969 110.046 495.826 111.403 494.731 112.498C495.445 114.022 496.541 115.451 498.017 116.785C499.541 118.118 501.399 119.023 503.589 119.499ZM498.732 124.143C499.303 124.143 500.065 123.953 501.018 123.572C501.97 123.191 502.708 122.214 503.232 120.642C501.232 120.261 499.446 119.476 497.874 118.285C496.35 117.094 495.207 115.904 494.445 114.713C493.397 114.761 492.873 115.594 492.873 117.213C492.873 118.928 493.374 120.523 494.374 122C495.421 123.429 496.874 124.143 498.732 124.143ZM523.216 126.643C520.977 126.643 519.191 126.143 517.858 125.143C516.572 124.191 515.667 123 515.143 121.571C514.572 120.142 514.286 118.714 514.286 117.285C514.286 115.856 514.476 114.761 514.857 113.999C515.238 113.237 515.691 112.665 516.215 112.284C516.786 111.903 517.31 111.617 517.786 111.427C518.31 111.236 518.668 111.046 518.858 110.855C520.287 109.284 521.597 107.64 522.787 105.926C523.978 104.211 525.026 102.401 525.931 100.496V99.6391C525.931 97.8769 526.216 96.6386 526.788 95.9242C527.407 95.1622 528.05 94.7812 528.717 94.7812C529.479 94.7812 529.86 95.0908 529.86 95.7099C529.86 95.9481 529.788 96.3291 529.645 96.853C529.503 97.3769 529.431 98.0436 529.431 98.8533C529.431 100.425 529.741 102.14 530.36 103.997C530.979 105.807 531.598 107.736 532.217 109.784C532.836 111.784 533.146 113.879 533.146 116.07C533.146 117.309 533.003 118.475 532.717 119.571C534.384 119.285 535.956 118.547 537.432 117.356C538.909 116.118 540.338 114.165 541.719 111.498L542.362 112.213C541.457 114.832 540.1 116.832 538.29 118.214C536.48 119.547 534.503 120.381 532.36 120.714C531.598 122.762 530.384 124.262 528.717 125.215C527.097 126.167 525.264 126.643 523.216 126.643ZM528.217 119.499C528.312 119.023 528.383 118.523 528.431 117.999C528.479 117.475 528.502 116.856 528.502 116.142C528.502 113.903 528.217 111.689 527.645 109.498C527.121 107.259 526.669 105.164 526.288 103.211C525.192 105.021 524.026 106.759 522.787 108.426C521.597 110.046 520.454 111.403 519.358 112.498C520.073 114.022 521.168 115.451 522.644 116.785C524.168 118.118 526.026 119.023 528.217 119.499ZM523.359 124.143C523.93 124.143 524.692 123.953 525.645 123.572C526.597 123.191 527.336 122.214 527.859 120.642C525.859 120.261 524.073 119.476 522.501 118.285C520.977 117.094 519.834 115.904 519.072 114.713C518.025 114.761 517.501 115.594 517.501 117.213C517.501 118.928 518.001 120.523 519.001 122C520.049 123.429 521.501 124.143 523.359 124.143ZM566.401 126.643C564.162 126.643 562.376 126.143 561.043 125.143C559.757 124.191 558.852 123 558.328 121.571C557.757 120.142 557.471 118.714 557.471 117.285C557.471 115.856 557.661 114.761 558.042 113.999C558.423 113.237 558.876 112.665 559.4 112.284C559.971 111.903 560.495 111.617 560.971 111.427C561.495 111.236 561.852 111.046 562.043 110.855C563.472 109.284 564.782 107.64 565.972 105.926C567.163 104.211 568.211 102.401 569.116 100.496V99.6391C569.116 97.8769 569.401 96.6386 569.973 95.9242C570.592 95.1622 571.235 94.7812 571.902 94.7812C572.664 94.7812 573.045 95.0908 573.045 95.7099C573.045 95.9481 572.973 96.3291 572.83 96.853C572.688 97.3769 572.616 98.0436 572.616 98.8533C572.616 100.425 572.926 102.14 573.545 103.997C574.164 105.807 574.783 107.736 575.402 109.784C576.021 111.784 576.331 113.879 576.331 116.07C576.331 117.309 576.188 118.475 575.902 119.571C577.569 119.285 579.141 118.547 580.617 117.356C582.094 116.118 583.523 114.165 584.904 111.498L585.547 112.213C584.642 114.832 583.284 116.832 581.475 118.214C579.665 119.547 577.688 120.381 575.545 120.714C574.783 122.762 573.569 124.262 571.902 125.215C570.282 126.167 568.449 126.643 566.401 126.643ZM571.402 119.499C571.497 119.023 571.568 118.523 571.616 117.999C571.664 117.475 571.687 116.856 571.687 116.142C571.687 113.903 571.402 111.689 570.83 109.498C570.306 107.259 569.854 105.164 569.473 103.211C568.377 105.021 567.21 106.759 565.972 108.426C564.782 110.046 563.638 111.403 562.543 112.498C563.257 114.022 564.353 115.451 565.829 116.785C567.353 118.118 569.211 119.023 571.402 119.499ZM566.544 124.143C567.115 124.143 567.877 123.953 568.83 123.572C569.782 123.191 570.521 122.214 571.044 120.642C569.044 120.261 567.258 119.476 565.686 118.285C564.162 117.094 563.019 115.904 562.257 114.713C561.21 114.761 560.686 115.594 560.686 117.213C560.686 118.928 561.186 120.523 562.186 122C563.234 123.429 564.686 124.143 566.544 124.143ZM579.026 143.003C578.645 143.003 578.288 142.789 577.955 142.36C577.574 141.979 577.288 141.551 577.097 141.074C576.907 140.646 576.812 140.384 576.812 140.288C577.478 137.955 578.145 135.859 578.812 134.002C579.431 132.192 580.074 130.311 580.741 128.358C581.36 126.453 581.979 124.214 582.598 121.643C583.217 119.023 583.86 115.785 584.527 111.927C585.194 108.069 585.861 103.283 586.527 97.5674C586.575 97.1387 586.67 96.8291 586.813 96.6386C586.956 96.4481 587.313 96.3529 587.885 96.3529C589.123 96.3529 590.004 96.7101 590.528 97.4245C591.052 98.0913 591.314 98.8295 591.314 99.6391C591.314 100.306 591.171 101.497 590.885 103.211C590.599 104.926 590.195 106.95 589.671 109.284C590.48 107.712 591.481 106.116 592.671 104.497C593.91 102.878 595.314 101.52 596.886 100.425C598.458 99.3295 600.172 98.7818 602.03 98.7818C604.125 98.7818 605.84 99.5439 607.174 101.068C608.555 102.544 609.245 104.497 609.245 106.926C609.245 108.783 608.817 110.76 607.959 112.856C607.15 114.903 605.983 116.856 604.459 118.714C602.982 120.523 601.22 122 599.172 123.143C597.124 124.286 594.862 124.857 592.385 124.857C591.147 124.857 590.147 124.715 589.385 124.429C588.623 124.143 588.242 123.857 588.242 123.572C588.242 123.381 588.409 123.262 588.742 123.214C589.123 123.214 589.552 123.214 590.028 123.214C591.933 123.214 593.743 122.762 595.457 121.857C597.22 120.904 598.791 119.666 600.172 118.142C601.554 116.618 602.625 114.927 603.387 113.07C604.197 111.212 604.602 109.379 604.602 107.569C604.602 106.045 604.268 104.759 603.602 103.711C602.982 102.616 601.958 102.068 600.53 102.068C599.291 102.068 598.053 102.473 596.815 103.283C595.624 104.045 594.481 105.045 593.386 106.283C592.338 107.474 591.385 108.736 590.528 110.069C589.718 111.355 589.099 112.522 588.671 113.57C587.813 117.142 586.956 120.571 586.099 123.857C585.241 127.191 584.408 130.192 583.598 132.859C582.836 135.573 582.146 137.788 581.527 139.503C580.86 141.217 580.312 142.265 579.883 142.646C579.645 142.884 579.36 143.003 579.026 143.003ZM619.149 126.143C616.243 126.143 614.053 125.334 612.576 123.714C611.147 122.143 610.433 120.19 610.433 117.856C610.433 115.713 610.957 113.451 612.005 111.07C613.1 108.688 614.529 106.45 616.291 104.354C618.101 102.259 620.077 100.568 622.221 99.2819C624.364 97.9484 626.483 97.2816 628.579 97.2816C629.674 97.2816 630.674 97.5674 631.579 98.1389C632.532 98.7104 633.008 99.8773 633.008 101.639C633.008 103.449 632.46 105.164 631.365 106.783C630.317 108.355 628.912 109.76 627.15 110.998C625.435 112.236 623.53 113.26 621.435 114.07C619.387 114.832 617.339 115.308 615.291 115.499C615.196 115.975 615.124 116.428 615.077 116.856C615.029 117.285 615.005 117.69 615.005 118.071C615.005 119.547 615.386 120.928 616.148 122.214C616.958 123.452 618.458 124.072 620.649 124.072C622.697 124.072 624.721 123.5 626.721 122.357C628.722 121.166 630.579 119.619 632.294 117.713C634.008 115.808 635.461 113.713 636.651 111.427L637.509 112.07C636.223 114.927 634.58 117.404 632.579 119.499C630.627 121.595 628.483 123.214 626.15 124.357C623.864 125.548 621.53 126.143 619.149 126.143ZM615.648 114.141C616.934 113.713 618.387 113.094 620.006 112.284C621.625 111.427 623.173 110.427 624.65 109.284C626.174 108.14 627.412 106.878 628.364 105.497C629.365 104.116 629.865 102.663 629.865 101.139C629.865 100.615 629.769 100.211 629.579 99.9249C629.388 99.6391 628.984 99.4962 628.364 99.4962C627.221 99.4962 626.007 99.9487 624.721 100.854C623.435 101.711 622.197 102.854 621.006 104.283C619.815 105.712 618.744 107.283 617.791 108.998C616.839 110.712 616.124 112.427 615.648 114.141ZM642.867 127.001C640.581 127.001 638.676 126.239 637.152 124.715C635.628 123.191 634.866 120.904 634.866 117.856C634.866 115.475 635.318 113.165 636.223 110.927C637.176 108.641 638.414 106.593 639.938 104.783C641.462 102.973 643.153 101.544 645.01 100.496C646.868 99.401 648.702 98.8533 650.511 98.8533C652.464 98.8533 653.798 99.4248 654.512 100.568C655.226 101.711 655.584 102.902 655.584 104.14C655.584 105.521 655.25 106.735 654.583 107.783C653.964 108.831 653.107 109.355 652.012 109.355C651.202 109.355 650.511 108.998 649.94 108.283C650.654 107.902 651.273 107.14 651.797 105.997C652.321 104.807 652.583 103.687 652.583 102.64C652.583 102.068 652.464 101.639 652.226 101.354C652.035 101.02 651.631 100.854 651.011 100.854C649.726 100.854 648.392 101.425 647.011 102.568C645.677 103.711 644.415 105.188 643.224 106.997C642.081 108.807 641.129 110.712 640.367 112.713C639.652 114.713 639.295 116.594 639.295 118.356C639.295 119.833 639.652 121.19 640.367 122.428C641.081 123.667 642.462 124.286 644.51 124.286C646.415 124.286 648.321 123.762 650.226 122.714C652.178 121.666 653.988 120.166 655.655 118.214C657.322 116.261 658.656 113.975 659.656 111.355L660.584 112.07C659.489 114.927 657.989 117.499 656.084 119.785C654.179 122.024 652.083 123.786 649.797 125.072C647.511 126.358 645.201 127.001 642.867 127.001ZM672.032 92.1379C671.27 92.1379 670.58 91.9474 669.96 91.5664C669.389 91.1854 669.103 90.5901 669.103 89.7804C669.103 88.7802 669.675 87.923 670.818 87.2086C672.008 86.4465 673.175 86.0655 674.318 86.0655C675.033 86.0655 675.604 86.2322 676.033 86.5656C676.461 86.899 676.676 87.4705 676.676 88.2802C676.676 89.1851 676.176 90.0662 675.175 90.9234C674.223 91.7331 673.175 92.1379 672.032 92.1379ZM663.459 124.857C661.602 124.857 660.221 124.262 659.316 123.071C658.411 121.928 657.958 120.523 657.958 118.856C657.958 117.761 658.149 116.38 658.53 114.713C658.959 113.046 659.506 111.308 660.173 109.498C660.84 107.64 661.602 105.902 662.459 104.283C663.364 102.663 664.317 101.354 665.317 100.354C666.317 99.3057 667.293 98.7818 668.246 98.7818C668.674 98.7818 669.032 98.9247 669.317 99.2105C669.651 99.4486 669.817 99.8296 669.817 100.354C669.817 100.925 669.436 101.854 668.674 103.14C667.96 104.426 667.103 105.902 666.103 107.569C665.102 109.236 664.221 110.998 663.459 112.856C662.745 114.665 662.388 116.404 662.388 118.071C662.388 119.785 662.673 120.928 663.245 121.5C663.817 122.071 664.698 122.357 665.888 122.357C667.508 122.357 669.222 121.547 671.032 119.928C672.889 118.309 674.842 115.475 676.89 111.427L677.533 112.141C676.152 116.237 674.152 119.38 671.532 121.571C668.96 123.762 666.269 124.857 663.459 124.857ZM678.977 126.358C677.5 126.358 676.262 125.858 675.262 124.857C674.214 123.905 673.69 122.428 673.69 120.428C673.69 118.714 674.071 116.88 674.833 114.927C675.595 112.927 676.643 110.974 677.977 109.069C679.31 107.117 680.811 105.354 682.477 103.783C684.192 102.163 685.978 100.877 687.835 99.9249C689.741 98.9723 691.622 98.4961 693.479 98.4961C695.337 98.4961 696.885 98.9962 698.123 99.9963C699.361 100.949 699.98 102.235 699.98 103.854C699.98 105.045 699.647 105.854 698.98 106.283C698.361 106.712 697.527 106.926 696.48 106.926C696.718 106.069 696.837 105.235 696.837 104.426C696.837 103.33 696.575 102.401 696.051 101.639C695.527 100.83 694.622 100.425 693.336 100.425C692.003 100.425 690.645 100.901 689.264 101.854C687.883 102.759 686.55 103.997 685.264 105.569C683.978 107.093 682.835 108.76 681.834 110.569C680.834 112.379 680.048 114.165 679.477 115.927C678.905 117.69 678.62 119.261 678.62 120.642C678.62 122.5 679.263 123.429 680.549 123.429C681.644 123.429 682.835 122.929 684.121 121.928C685.406 120.881 686.716 119.571 688.05 117.999C689.431 116.38 690.741 114.713 691.979 112.998C693.217 111.284 694.313 109.712 695.265 108.283C695.456 107.998 695.575 107.855 695.622 107.855C696.051 107.902 696.623 108.093 697.337 108.426C698.051 108.712 698.409 109.117 698.409 109.641C698.409 110.069 698.194 110.665 697.766 111.427C697.337 112.141 696.861 112.975 696.337 113.927C695.813 114.88 695.337 115.856 694.908 116.856C694.479 117.809 694.265 118.714 694.265 119.571C694.265 120.285 694.456 121 694.837 121.714C695.218 122.381 695.837 122.714 696.694 122.714C697.98 122.714 699.671 121.786 701.766 119.928C703.862 118.023 705.981 115.189 708.124 111.427L708.839 112.141C707.839 114.713 706.553 116.975 704.981 118.928C703.409 120.881 701.719 122.405 699.909 123.5C698.147 124.595 696.408 125.143 694.694 125.143C692.931 125.143 691.622 124.619 690.764 123.572C689.955 122.524 689.55 121.381 689.55 120.142C689.55 119.523 689.621 118.833 689.764 118.071C687.716 120.833 685.835 122.905 684.121 124.286C682.454 125.667 680.739 126.358 678.977 126.358ZM712.593 125.143C710.545 125.143 709.068 124.429 708.163 123C707.306 121.619 706.878 119.88 706.878 117.785C706.878 115.499 707.306 112.784 708.163 109.641C709.021 106.497 710.14 103.187 711.521 99.7106C712.95 96.2338 714.498 92.8523 716.165 89.5661C717.832 86.2322 719.499 83.2079 721.166 80.4932C722.832 77.7785 724.357 75.6115 725.738 73.9922C727.166 72.3728 728.286 71.5632 729.095 71.5632C729.619 71.5632 730.048 71.8728 730.381 72.4919C730.715 73.0634 730.977 73.7778 731.167 74.6351C731.358 75.4448 731.453 76.183 731.453 76.8498C731.453 78.1357 731.12 79.8264 730.453 81.922C729.834 83.9699 728.929 86.2798 727.738 88.8517C726.595 91.3759 725.214 93.9477 723.594 96.5672C722.023 99.139 720.284 101.616 718.379 103.997C716.522 106.378 714.545 108.426 712.45 110.141C712.164 111.427 711.926 112.689 711.735 113.927C711.593 115.118 711.521 116.261 711.521 117.356C711.521 121.023 712.569 122.857 714.664 122.857C715.95 122.857 717.213 122.286 718.451 121.143C719.737 120 720.927 118.571 722.023 116.856C723.166 115.094 724.142 113.284 724.952 111.427L726.023 111.998C724.118 116.047 722.047 119.261 719.808 121.643C717.57 123.976 715.165 125.143 712.593 125.143ZM713.093 107.712C714.76 106.045 716.379 104.14 717.951 101.997C719.522 99.8058 720.975 97.5435 722.309 95.2098C723.69 92.8761 724.904 90.6139 725.952 88.423C727 86.2322 727.809 84.2795 728.381 82.565C728.952 80.8028 729.238 79.4454 729.238 78.4929C729.238 78.0166 729.167 77.707 729.024 77.5642C728.929 77.4213 728.833 77.3498 728.738 77.3498C728.357 77.3498 727.69 77.969 726.738 79.2073C725.833 80.3979 724.761 82.0173 723.523 84.0652C722.285 86.1131 721.023 88.4468 719.737 91.0663C718.451 93.6858 717.213 96.4243 716.022 99.2819C714.879 102.14 713.902 104.949 713.093 107.712Z" fill="white"/>
<rect x="171" y="300" width="658.96" height="658.96" rx="13.1792" fill="white"/>
<path d="M652.035 346.121H783.827V477.913" stroke="#C2C2C2" stroke-width="26.3584"/>
<path d="M348.914 346.121H217.122V477.913" stroke="#C2C2C2" stroke-width="26.3584"/>
<path d="M652.035 912.824H783.827V781.032" stroke="#C2C2C2" stroke-width="26.3584"/>
<path d="M348.914 912.824H217.122V781.032" stroke="#C2C2C2" stroke-width="26.3584"/>
<path d="M343.797 575.695L332.891 543.954L321.3 575.695H343.797ZM327.804 533.292H338.808L364.876 605.137H354.214L346.927 583.618H318.512L310.736 605.137H300.759L327.804 533.292ZM378.13 579.558C378.13 585.166 379.32 589.861 381.7 593.644C384.08 597.426 387.895 599.317 393.144 599.317C397.22 599.317 400.562 597.572 403.17 594.084C405.811 590.562 407.132 585.525 407.132 578.971C407.132 572.353 405.779 567.462 403.072 564.299C400.366 561.104 397.024 559.506 393.046 559.506C388.612 559.506 385.009 561.202 382.238 564.593C379.499 567.984 378.13 572.972 378.13 579.558ZM391.384 551.828C395.394 551.828 398.752 552.676 401.459 554.371C403.024 555.349 404.801 557.061 406.789 559.506V533.048H415.25V605.137H407.327V597.85C405.273 601.077 402.844 603.409 400.04 604.843C397.236 606.278 394.025 606.995 390.406 606.995C384.569 606.995 379.515 604.55 375.244 599.659C370.973 594.736 368.837 588.199 368.837 580.047C368.837 572.418 370.777 565.815 374.657 560.24C378.57 554.632 384.145 551.828 391.384 551.828ZM433.884 579.558C433.884 585.166 435.074 589.861 437.454 593.644C439.834 597.426 443.649 599.317 448.899 599.317C452.974 599.317 456.316 597.572 458.924 594.084C461.565 590.562 462.886 585.525 462.886 578.971C462.886 572.353 461.533 567.462 458.827 564.299C456.12 561.104 452.778 559.506 448.801 559.506C444.366 559.506 440.764 561.202 437.992 564.593C435.253 567.984 433.884 572.972 433.884 579.558ZM447.138 551.828C451.148 551.828 454.507 552.676 457.213 554.371C458.778 555.349 460.555 557.061 462.544 559.506V533.048H471.005V605.137H463.082V597.85C461.027 601.077 458.598 603.409 455.794 604.843C452.99 606.278 449.779 606.995 446.16 606.995C440.323 606.995 435.27 604.55 430.998 599.659C426.727 594.736 424.592 588.199 424.592 580.047C424.592 572.418 426.532 565.815 430.412 560.24C434.324 554.632 439.9 551.828 447.138 551.828ZM544.659 552.757H554.391C553.152 556.115 550.397 563.778 546.126 575.743C542.931 584.742 540.257 592.078 538.105 597.752C533.019 611.12 529.432 619.271 527.346 622.205C525.259 625.14 521.672 626.607 516.586 626.607C515.347 626.607 514.385 626.558 513.701 626.46C513.048 626.362 512.233 626.183 511.255 625.922V617.901C512.788 618.325 513.896 618.586 514.581 618.684C515.266 618.782 515.869 618.831 516.39 618.831C518.021 618.831 519.211 618.554 519.961 617.999C520.743 617.478 521.395 616.826 521.917 616.043C522.08 615.782 522.667 614.445 523.678 612.033C524.688 609.62 525.422 607.827 525.878 606.653L506.511 552.757H516.488L530.525 595.404L544.659 552.757ZM582.806 599.463C588.643 599.463 592.637 597.263 594.789 592.861C596.973 588.427 598.065 583.503 598.065 578.091C598.065 573.2 597.283 569.223 595.718 566.158C593.24 561.332 588.969 558.919 582.904 558.919C577.524 558.919 573.612 560.974 571.166 565.082C568.721 569.19 567.498 574.146 567.498 579.95C567.498 585.525 568.721 590.171 571.166 593.888C573.612 597.605 577.492 599.463 582.806 599.463ZM583.149 551.241C589.898 551.241 595.604 553.491 600.266 557.99C604.929 562.49 607.26 569.108 607.26 577.847C607.26 586.291 605.206 593.269 601.098 598.779C596.989 604.289 590.615 607.044 581.975 607.044C574.769 607.044 569.047 604.615 564.809 599.757C560.57 594.866 558.451 588.313 558.451 580.096C558.451 571.293 560.684 564.283 565.151 559.066C569.618 553.849 575.617 551.241 583.149 551.241ZM626.578 552.757V587.53C626.578 590.204 627.002 592.388 627.85 594.084C629.415 597.214 632.333 598.779 636.604 598.779C642.734 598.779 646.907 596.04 649.125 590.562C650.331 587.628 650.934 583.601 650.934 578.482V552.757H659.737V605.137H651.423L651.521 597.409C650.38 599.398 648.962 601.077 647.266 602.447C643.908 605.186 639.832 606.555 635.039 606.555C627.573 606.555 622.486 604.061 619.78 599.072C618.313 596.399 617.579 592.828 617.579 588.362V552.757H626.578ZM673.774 552.757H682.137V561.805C682.822 560.044 684.501 557.909 687.174 555.398C689.848 552.855 692.929 551.583 696.418 551.583C696.581 551.583 696.858 551.6 697.249 551.632C697.64 551.665 698.309 551.73 699.254 551.828V561.12C698.733 561.022 698.244 560.957 697.787 560.925C697.363 560.892 696.891 560.876 696.369 560.876C691.935 560.876 688.527 562.31 686.147 565.18C683.767 568.016 682.577 571.293 682.577 575.01V605.137H673.774V552.757Z" fill="#C2C2C2"/>
<path d="M344.685 723.846C341.457 724.922 337.594 725.46 333.094 725.46C323.704 725.46 315.944 722.656 309.815 717.048C302.381 710.299 298.664 700.387 298.664 687.313C298.664 674.14 302.478 664.18 310.108 657.43C316.335 651.92 324.079 649.165 333.339 649.165C342.664 649.165 350.489 652.083 356.814 657.919C364.118 664.669 367.77 674.108 367.77 686.237C367.77 692.66 366.987 698.04 365.422 702.376C364.15 706.517 362.276 709.957 359.798 712.695L368.112 720.472L360.238 728.688L351.532 720.472C348.891 722.069 346.609 723.194 344.685 723.846ZM341.457 710.837L334.17 703.892L341.947 695.774L349.234 702.718C350.375 700.371 351.174 698.317 351.63 696.556C352.347 693.915 352.706 690.834 352.706 687.313C352.706 679.227 351.043 672.983 347.718 668.581C344.425 664.147 339.599 661.93 333.241 661.93C327.274 661.93 322.514 664.049 318.96 668.288C315.406 672.526 313.629 678.868 313.629 687.313C313.629 697.192 316.172 704.267 321.259 708.538C324.552 711.31 328.497 712.695 333.094 712.695C334.822 712.695 336.485 712.484 338.083 712.06C338.963 711.831 340.088 711.424 341.457 710.837ZM409.928 695.187H394.375V723.455H379.654V651.366H415.014C420.068 651.464 423.948 652.083 426.654 653.224C429.393 654.366 431.708 656.045 433.599 658.262C435.164 660.088 436.403 662.109 437.316 664.326C438.229 666.543 438.685 669.07 438.685 671.907C438.685 675.33 437.821 678.705 436.093 682.031C434.365 685.324 431.512 687.655 427.534 689.024C430.86 690.361 433.207 692.269 434.577 694.747C435.979 697.192 436.68 700.941 436.68 705.995V710.837C436.68 714.13 436.81 716.364 437.071 717.537C437.462 719.396 438.375 720.765 439.81 721.646V723.455H423.23C422.774 721.857 422.448 720.57 422.252 719.591C421.861 717.57 421.649 715.5 421.616 713.38L421.519 706.68C421.453 702.083 420.606 699.018 418.975 697.485C417.378 695.953 414.362 695.187 409.928 695.187ZM419.073 682.08C422.073 680.71 423.573 678.004 423.573 673.961C423.573 669.592 422.122 666.658 419.22 665.158C417.59 664.31 415.144 663.886 411.884 663.886H394.375V683.253H411.444C414.835 683.253 417.378 682.862 419.073 682.08ZM524.566 689.269H510.285C510.024 687.28 509.356 685.487 508.28 683.889C506.715 681.737 504.286 680.661 500.993 680.661C496.298 680.661 493.086 682.993 491.358 687.655C490.445 690.133 489.989 693.426 489.989 697.534C489.989 701.447 490.445 704.593 491.358 706.973C493.021 711.408 496.151 713.625 500.748 713.625C504.009 713.625 506.324 712.744 507.693 710.984C509.062 709.223 509.894 706.941 510.187 704.137H524.419C524.093 708.375 522.561 712.386 519.822 716.168C515.453 722.265 508.981 725.314 500.406 725.314C491.831 725.314 485.522 722.77 481.479 717.684C477.436 712.598 475.414 705.995 475.414 697.877C475.414 688.715 477.648 681.591 482.115 676.504C486.581 671.418 492.744 668.875 500.601 668.875C507.285 668.875 512.747 670.374 516.985 673.374C521.257 676.374 523.784 681.672 524.566 689.269ZM578.657 676.895C583.157 682.536 585.407 689.204 585.407 696.898C585.407 704.724 583.157 711.424 578.657 716.999C574.158 722.542 567.327 725.314 558.165 725.314C549.003 725.314 542.173 722.542 537.673 716.999C533.174 711.424 530.924 704.724 530.924 696.898C530.924 689.204 533.174 682.536 537.673 676.895C542.173 671.255 549.003 668.434 558.165 668.434C567.327 668.434 574.158 671.255 578.657 676.895ZM558.116 680.221C554.041 680.221 550.894 681.672 548.677 684.574C546.493 687.443 545.4 691.551 545.4 696.898C545.4 702.246 546.493 706.37 548.677 709.272C550.894 712.174 554.041 713.625 558.116 713.625C562.192 713.625 565.322 712.174 567.507 709.272C569.691 706.37 570.783 702.246 570.783 696.898C570.783 691.551 569.691 687.443 567.507 684.574C565.322 681.672 562.192 680.221 558.116 680.221ZM643.948 651.464V723.455H630.401V716.07C628.412 719.233 626.146 721.531 623.603 722.966C621.06 724.401 617.897 725.118 614.115 725.118C607.888 725.118 602.638 722.607 598.367 717.586C594.128 712.532 592.009 706.06 592.009 698.17C592.009 689.073 594.096 681.917 598.269 676.7C602.475 671.483 608.083 668.875 615.093 668.875C618.321 668.875 621.19 669.592 623.701 671.027C626.211 672.429 628.249 674.385 629.814 676.895V651.464H643.948ZM606.388 697.143C606.388 702.066 607.366 705.995 609.322 708.93C611.246 711.897 614.18 713.38 618.125 713.38C622.071 713.38 625.07 711.913 627.124 708.979C629.179 706.044 630.206 702.246 630.206 697.583C630.206 691.062 628.559 686.4 625.266 683.596C623.244 681.9 620.897 681.053 618.223 681.053C614.148 681.053 611.148 682.601 609.224 685.699C607.333 688.764 606.388 692.578 606.388 697.143ZM702.295 707.805C701.936 710.967 700.29 714.179 697.355 717.439C692.79 722.624 686.4 725.216 678.184 725.216C671.402 725.216 665.419 723.031 660.235 718.662C655.05 714.293 652.458 707.185 652.458 697.339C652.458 688.111 654.79 681.036 659.452 676.113C664.147 671.19 670.228 668.728 677.694 668.728C682.129 668.728 686.123 669.559 689.677 671.222C693.231 672.885 696.165 675.51 698.48 679.096C700.567 682.259 701.92 685.927 702.539 690.1C702.898 692.546 703.045 696.067 702.979 700.664H666.495C666.69 706.012 668.369 709.761 671.532 711.913C673.456 713.25 675.771 713.918 678.477 713.918C681.346 713.918 683.677 713.103 685.471 711.473C686.449 710.592 687.313 709.37 688.063 707.805H702.295ZM688.503 691.47C688.275 687.785 687.15 684.998 685.128 683.107C683.139 681.183 680.661 680.221 677.694 680.221C674.467 680.221 671.956 681.232 670.163 683.253C668.402 685.275 667.294 688.014 666.837 691.47H688.503Z" fill="#C2C2C2"/>
<path d="M228.255 215.884C227.627 221.256 225.638 225.407 222.29 228.337C218.964 231.244 214.534 232.698 208.999 232.698C203 232.698 198.186 230.547 194.558 226.244C190.953 221.942 189.151 216.186 189.151 208.977V204.094C189.151 199.373 189.988 195.222 191.663 191.641C193.36 188.059 195.756 185.315 198.848 183.408C201.941 181.478 205.523 180.513 209.592 180.513C214.988 180.513 219.313 182.025 222.569 185.048C225.825 188.048 227.72 192.21 228.255 197.536H221.522C220.941 193.489 219.674 190.559 217.72 188.745C215.79 186.931 213.081 186.024 209.592 186.024C205.313 186.024 201.953 187.606 199.511 190.769C197.093 193.931 195.883 198.431 195.883 204.268V209.187C195.883 214.698 197.035 219.082 199.337 222.337C201.639 225.593 204.86 227.221 208.999 227.221C212.72 227.221 215.569 226.384 217.546 224.709C219.546 223.012 220.871 220.07 221.522 215.884H228.255ZM276.463 232H269.73V208.524H244.126V232H237.429V181.211H244.126V203.047H269.73V181.211H276.463V232ZM306.985 211.454H295.055V232H288.323V181.211H305.136C310.857 181.211 315.252 182.513 318.322 185.117C321.415 187.722 322.962 191.513 322.962 196.489C322.962 199.652 322.101 202.408 320.38 204.757C318.683 207.105 316.311 208.861 313.264 210.024L325.194 231.581V232H318.008L306.985 211.454ZM295.055 205.977H305.346C308.671 205.977 311.311 205.117 313.264 203.396C315.241 201.675 316.229 199.373 316.229 196.489C316.229 193.35 315.287 190.943 313.404 189.269C311.543 187.594 308.846 186.745 305.311 186.722H295.055V205.977ZM339.566 232H332.868V181.211H339.566V232ZM366.809 209.361C361.065 207.71 356.879 205.687 354.251 203.291C351.647 200.873 350.345 197.896 350.345 194.361C350.345 190.362 351.938 187.059 355.123 184.455C358.333 181.827 362.495 180.513 367.612 180.513C371.1 180.513 374.204 181.187 376.925 182.536C379.669 183.885 381.786 185.745 383.274 188.117C384.785 190.489 385.541 193.082 385.541 195.896H378.809C378.809 192.827 377.832 190.42 375.879 188.676C373.925 186.908 371.17 186.024 367.612 186.024C364.309 186.024 361.728 186.757 359.868 188.222C358.03 189.664 357.112 191.675 357.112 194.257C357.112 196.327 357.984 198.082 359.728 199.524C361.495 200.943 364.484 202.245 368.693 203.431C372.925 204.617 376.228 205.931 378.6 207.373C380.995 208.791 382.762 210.454 383.902 212.361C385.065 214.268 385.646 216.512 385.646 219.093C385.646 223.21 384.041 226.512 380.832 229C377.623 231.465 373.332 232.698 367.96 232.698C364.472 232.698 361.216 232.035 358.193 230.709C355.17 229.361 352.833 227.523 351.182 225.198C349.554 222.872 348.74 220.233 348.74 217.279H355.472C355.472 220.349 356.6 222.779 358.856 224.57C361.135 226.337 364.17 227.221 367.96 227.221C371.495 227.221 374.204 226.5 376.088 225.058C377.972 223.616 378.914 221.651 378.914 219.163C378.914 216.675 378.041 214.756 376.297 213.407C374.553 212.035 371.39 210.687 366.809 209.361ZM429.354 186.722H413.029V232H406.366V186.722H390.076V181.211H429.354V186.722ZM445.54 181.211L462.144 222.651L478.748 181.211H487.434V232H480.736V212.221L481.364 190.873L464.69 232H459.563L442.924 190.978L443.586 212.221V232H436.889V181.211H445.54ZM527.933 218.745H506.654L501.875 232H494.969L514.364 181.211H520.224L539.654 232H532.782L527.933 218.745ZM508.678 213.233H525.945L517.294 189.478L508.678 213.233ZM561.455 209.361C555.711 207.71 551.525 205.687 548.898 203.291C546.293 200.873 544.991 197.896 544.991 194.361C544.991 190.362 546.584 187.059 549.77 184.455C552.979 181.827 557.141 180.513 562.258 180.513C565.746 180.513 568.85 181.187 571.571 182.536C574.315 183.885 576.432 185.745 577.92 188.117C579.432 190.489 580.187 193.082 580.187 195.896H573.455C573.455 192.827 572.478 190.42 570.525 188.676C568.571 186.908 565.816 186.024 562.258 186.024C558.955 186.024 556.374 186.757 554.514 188.222C552.676 189.664 551.758 191.675 551.758 194.257C551.758 196.327 552.63 198.082 554.374 199.524C556.142 200.943 559.13 202.245 563.339 203.431C567.571 204.617 570.874 205.931 573.246 207.373C575.641 208.791 577.408 210.454 578.548 212.361C579.711 214.268 580.292 216.512 580.292 219.093C580.292 223.21 578.687 226.512 575.478 229C572.269 231.465 567.978 232.698 562.606 232.698C559.118 232.698 555.862 232.035 552.839 230.709C549.816 229.361 547.479 227.523 545.828 225.198C544.2 222.872 543.386 220.233 543.386 217.279H550.118C550.118 220.349 551.246 222.779 553.502 224.57C555.781 226.337 558.816 227.221 562.606 227.221C566.141 227.221 568.85 226.5 570.734 225.058C572.618 223.616 573.56 221.651 573.56 219.163C573.56 216.675 572.688 214.756 570.943 213.407C569.199 212.035 566.037 210.687 561.455 209.361ZM645.697 208.245C645.697 213.221 644.86 217.57 643.186 221.291C641.511 224.989 639.139 227.814 636.07 229.767C633 231.721 629.419 232.698 625.326 232.698C621.326 232.698 617.779 231.721 614.686 229.767C611.594 227.791 609.187 224.989 607.466 221.361C605.768 217.71 604.896 213.489 604.85 208.698V205.036C604.85 200.152 605.698 195.838 607.396 192.094C609.094 188.35 611.489 185.49 614.582 183.513C617.698 181.513 621.256 180.513 625.256 180.513C629.326 180.513 632.907 181.501 636 183.478C639.116 185.431 641.511 188.28 643.186 192.024C644.86 195.745 645.697 200.082 645.697 205.036V208.245ZM639.035 204.966C639.035 198.943 637.825 194.327 635.407 191.117C632.988 187.885 629.605 186.269 625.256 186.269C621.024 186.269 617.686 187.885 615.245 191.117C612.826 194.327 611.582 198.792 611.512 204.512V208.245C611.512 214.082 612.733 218.675 615.175 222.024C617.64 225.349 621.024 227.012 625.326 227.012C629.651 227.012 633 225.442 635.372 222.303C637.744 219.14 638.965 214.617 639.035 208.733V204.966ZM683.754 209.57H662.441V232H655.744V181.211H687.208V186.722H662.441V204.094H683.754V209.57ZM723.242 209.57H701.928V232H695.231V181.211H726.695V186.722H701.928V204.094H723.242V209.57ZM763.427 208.524H741.416V226.523H766.985V232H734.718V181.211H766.636V186.722H741.416V203.047H763.427V208.524ZM793.949 211.454H782.019V232H775.287V181.211H792.1C797.821 181.211 802.216 182.513 805.286 185.117C808.379 187.722 809.926 191.513 809.926 196.489C809.926 199.652 809.065 202.408 807.344 204.757C805.647 207.105 803.275 208.861 800.228 210.024L812.158 231.581V232H804.972L793.949 211.454ZM782.019 205.977H792.31C795.635 205.977 798.275 205.117 800.228 203.396C802.205 201.675 803.193 199.373 803.193 196.489C803.193 193.35 802.251 190.943 800.368 189.269C798.507 187.594 795.81 186.745 792.275 186.722H782.019V205.977Z" fill="white"/>
</svg>
