<svg width="1036" height="1038" viewBox="0 0 1036 1038" fill="none" xmlns="http://www.w3.org/2000/svg">
<circle cx="539.684" cy="630.736" r="403.316" fill="#333333"/>
<mask id="path-2-outside-1_256:528" maskUnits="userSpaceOnUse" x="452.393" y="199.879" width="174" height="90" fill="black">
<rect fill="white" x="452.393" y="199.879" width="174" height="90"/>
<path fill-rule="evenodd" clip-rule="evenodd" d="M623.975 202.879H455.393V264.763H623.975V202.879ZM461.565 281.099C457.613 277.212 455.393 271.94 455.393 266.443H497.538C497.538 271.94 495.318 277.212 491.366 281.099C487.414 284.986 482.054 287.17 476.465 287.17C470.877 287.17 465.517 284.986 461.565 281.099ZM539.684 266.443C539.684 271.94 537.463 277.212 533.512 281.099C529.56 284.986 524.2 287.17 518.611 287.17C513.022 287.17 507.662 284.986 503.71 281.099C499.758 277.212 497.538 271.94 497.538 266.443H539.684ZM581.829 266.443C581.829 271.94 579.609 277.212 575.657 281.099C571.705 284.986 566.345 287.17 560.756 287.17C555.168 287.17 549.808 284.986 545.856 281.099C541.904 277.212 539.684 271.94 539.684 266.443H581.829ZM581.829 266.443H623.975C623.975 271.94 621.754 277.212 617.803 281.099C613.851 284.986 608.491 287.17 602.902 287.17C597.313 287.17 591.953 284.986 588.001 281.099C584.049 277.212 581.829 271.94 581.829 266.443Z"/>
</mask>
<path fill-rule="evenodd" clip-rule="evenodd" d="M623.975 202.879H455.393V264.763H623.975V202.879ZM461.565 281.099C457.613 277.212 455.393 271.94 455.393 266.443H497.538C497.538 271.94 495.318 277.212 491.366 281.099C487.414 284.986 482.054 287.17 476.465 287.17C470.877 287.17 465.517 284.986 461.565 281.099ZM539.684 266.443C539.684 271.94 537.463 277.212 533.512 281.099C529.56 284.986 524.2 287.17 518.611 287.17C513.022 287.17 507.662 284.986 503.71 281.099C499.758 277.212 497.538 271.94 497.538 266.443H539.684ZM581.829 266.443C581.829 271.94 579.609 277.212 575.657 281.099C571.705 284.986 566.345 287.17 560.756 287.17C555.168 287.17 549.808 284.986 545.856 281.099C541.904 277.212 539.684 271.94 539.684 266.443H581.829ZM581.829 266.443H623.975C623.975 271.94 621.754 277.212 617.803 281.099C613.851 284.986 608.491 287.17 602.902 287.17C597.313 287.17 591.953 284.986 588.001 281.099C584.049 277.212 581.829 271.94 581.829 266.443Z" fill="white"/>
<path d="M455.393 202.879V200.745H453.259V202.879H455.393ZM623.975 202.879H626.109V200.745H623.975V202.879ZM455.393 264.763H453.259V266.897H455.393V264.763ZM623.975 264.763V266.897H626.109V264.763H623.975ZM455.393 266.443V264.309H453.259V266.443H455.393ZM461.565 281.099L463.061 279.578L461.565 281.099ZM533.512 281.099L532.015 279.578L533.512 281.099ZM623.975 266.443H626.109V264.309H623.975V266.443ZM617.803 281.099L616.306 279.578H616.306L617.803 281.099ZM588.001 281.099L586.505 282.621H586.505L588.001 281.099ZM455.393 205.013H623.975V200.745H455.393V205.013ZM457.527 264.763V202.879H453.259V264.763H457.527ZM623.975 262.629H455.393V266.897H623.975V262.629ZM621.841 202.879V264.763H626.109V202.879H621.841ZM453.259 266.443C453.259 272.518 455.712 278.336 460.068 282.621L463.061 279.578C459.513 276.088 457.527 271.363 457.527 266.443H453.259ZM497.538 264.309H455.393V268.577H497.538V264.309ZM492.862 282.621C497.218 278.336 499.672 272.518 499.672 266.443H495.404C495.404 271.363 493.418 276.088 489.87 279.578L492.862 282.621ZM476.465 289.304C482.609 289.304 488.508 286.904 492.862 282.621L489.87 279.578C486.321 283.069 481.5 285.036 476.465 285.036V289.304ZM460.068 282.621C464.423 286.904 470.322 289.304 476.465 289.304V285.036C471.431 285.036 466.61 283.069 463.061 279.578L460.068 282.621ZM535.008 282.621C539.364 278.336 541.818 272.518 541.818 266.443H537.55C537.55 271.363 535.563 276.088 532.015 279.578L535.008 282.621ZM518.611 289.304C524.754 289.304 530.653 286.904 535.008 282.621L532.015 279.578C528.466 283.069 523.645 285.036 518.611 285.036V289.304ZM502.214 282.621C506.568 286.904 512.467 289.304 518.611 289.304V285.036C513.577 285.036 508.756 283.069 505.207 279.578L502.214 282.621ZM495.404 266.443C495.404 272.518 497.858 278.336 502.214 282.621L505.207 279.578C501.659 276.088 499.672 271.363 499.672 266.443H495.404ZM539.684 264.309H497.538V268.577H539.684V264.309ZM577.153 282.621C581.509 278.336 583.963 272.518 583.963 266.443H579.695C579.695 271.363 577.709 276.088 574.161 279.578L577.153 282.621ZM560.756 289.304C566.9 289.304 572.799 286.904 577.153 282.621L574.161 279.578C570.612 283.069 565.791 285.036 560.756 285.036V289.304ZM544.359 282.621C548.714 286.904 554.613 289.304 560.756 289.304V285.036C555.722 285.036 550.901 283.069 547.352 279.578L544.359 282.621ZM537.55 266.443C537.55 272.518 540.003 278.336 544.359 282.621L547.352 279.578C543.804 276.088 541.818 271.363 541.818 266.443H537.55ZM581.829 264.309H539.684V268.577H581.829V264.309ZM623.975 264.309H581.829V268.577H623.975V264.309ZM619.299 282.621C623.655 278.336 626.109 272.518 626.109 266.443H621.841C621.841 271.363 619.854 276.088 616.306 279.578L619.299 282.621ZM602.902 289.304C609.045 289.304 614.944 286.904 619.299 282.621L616.306 279.578C612.757 283.069 607.936 285.036 602.902 285.036V289.304ZM586.505 282.621C590.859 286.904 596.758 289.304 602.902 289.304V285.036C597.868 285.036 593.047 283.069 589.498 279.578L586.505 282.621ZM579.695 266.443C579.695 272.518 582.149 278.336 586.505 282.621L589.498 279.578C585.95 276.088 583.963 271.363 583.963 266.443H579.695Z" fill="white" mask="url(#path-2-outside-1_256:528)"/>
<path fill-rule="evenodd" clip-rule="evenodd" d="M488.469 156.998C470.201 156.998 455.393 171.807 455.393 190.074V257.294H455.439C455.778 265.004 457.945 272.296 461.565 277.794C465.517 283.797 470.877 287.17 476.465 287.17C482.054 287.17 487.414 283.797 491.366 277.794C494.986 272.296 497.152 265.004 497.491 257.294H497.585C497.924 265.004 500.091 272.296 503.71 277.794C507.662 283.797 513.022 287.17 518.611 287.17C524.2 287.17 529.56 283.797 533.512 277.794C537.131 272.296 539.298 265.004 539.637 257.294H539.73C540.069 265.004 542.236 272.296 545.856 277.794C549.808 283.797 555.168 287.17 560.756 287.17C566.345 287.17 571.705 283.797 575.657 277.794C579.277 272.296 581.443 265.004 581.782 257.294H581.876C582.215 265.004 584.382 272.296 588.001 277.794C591.953 283.797 597.313 287.17 602.902 287.17C608.491 287.17 613.851 283.797 617.803 277.794C621.422 272.296 623.589 265.004 623.928 257.294H623.975V255.227C623.975 255.205 623.975 255.183 623.975 255.161M623.975 255.161L623.975 190.074C623.975 171.807 609.166 156.998 590.898 156.998H488.469" fill="#333333"/>
<path d="M511.941 148.462C511.941 140.802 518.152 134.592 525.812 134.592H552.486C560.147 134.592 566.357 140.802 566.357 148.462V162.333H511.941V148.462Z" fill="#333333"/>
<rect x="288.945" y="379.996" width="501.478" height="501.478" rx="10.0296" fill="white"/>
<path d="M655.023 415.1H755.319V515.395" stroke="#C2C2C2" stroke-width="20.0591"/>
<path d="M424.344 415.1H324.048V515.395" stroke="#C2C2C2" stroke-width="20.0591"/>
<path d="M655.023 846.369H755.319V746.074" stroke="#C2C2C2" stroke-width="20.0591"/>
<path d="M424.344 846.369H324.048V746.074" stroke="#C2C2C2" stroke-width="20.0591"/>
<path d="M420.45 590.077L412.151 565.921L403.33 590.077H420.45ZM408.28 557.808H416.654L436.492 612.482H428.378L422.832 596.106H401.208L395.29 612.482H387.698L408.28 557.808ZM446.578 593.017C446.578 597.285 447.484 600.858 449.295 603.736C451.106 606.614 454.01 608.053 458.004 608.053C461.106 608.053 463.649 606.726 465.634 604.071C467.644 601.391 468.649 597.558 468.649 592.57C468.649 587.533 467.619 583.811 465.56 581.404C463.5 578.973 460.957 577.757 457.93 577.757C454.555 577.757 451.814 579.047 449.705 581.628C447.62 584.208 446.578 588.005 446.578 593.017ZM456.665 571.914C459.716 571.914 462.272 572.559 464.332 573.849C465.523 574.593 466.875 575.896 468.389 577.757V557.622H474.827V612.482H468.798V606.937C467.235 609.393 465.386 611.167 463.252 612.259C461.118 613.351 458.674 613.897 455.92 613.897C451.479 613.897 447.633 612.036 444.382 608.314C441.132 604.567 439.507 599.592 439.507 593.389C439.507 587.583 440.983 582.558 443.936 578.315C446.913 574.048 451.156 571.914 456.665 571.914ZM489.008 593.017C489.008 597.285 489.914 600.858 491.725 603.736C493.536 606.614 496.439 608.053 500.434 608.053C503.536 608.053 506.079 606.726 508.064 604.071C510.074 601.391 511.079 597.558 511.079 592.57C511.079 587.533 510.049 583.811 507.99 581.404C505.93 578.973 503.387 577.757 500.36 577.757C496.985 577.757 494.243 579.047 492.134 581.628C490.05 584.208 489.008 588.005 489.008 593.017ZM499.094 571.914C502.146 571.914 504.702 572.559 506.761 573.849C507.952 574.593 509.305 575.896 510.818 577.757V557.622H517.257V612.482H511.228V606.937C509.665 609.393 507.816 611.167 505.682 612.259C503.548 613.351 501.104 613.897 498.35 613.897C493.908 613.897 490.062 612.036 486.812 608.314C483.562 604.567 481.936 599.592 481.936 593.389C481.936 587.583 483.413 582.558 486.365 578.315C489.343 574.048 493.586 571.914 499.094 571.914ZM573.309 572.621H580.716C579.773 575.177 577.676 581.007 574.426 590.114C571.994 596.962 569.959 602.545 568.322 606.862C564.451 617.036 561.722 623.239 560.134 625.472C558.546 627.705 555.816 628.822 551.945 628.822C551.002 628.822 550.271 628.784 549.749 628.71C549.253 628.636 548.633 628.499 547.888 628.301V622.197C549.055 622.519 549.898 622.718 550.419 622.792C550.94 622.867 551.399 622.904 551.796 622.904C553.037 622.904 553.943 622.693 554.513 622.271C555.109 621.874 555.605 621.378 556.002 620.782C556.126 620.584 556.573 619.566 557.342 617.73C558.111 615.894 558.67 614.529 559.017 613.636L544.278 572.621H551.871L562.553 605.076L573.309 572.621ZM602.34 608.165C606.781 608.165 609.821 606.49 611.459 603.14C613.121 599.766 613.952 596.019 613.952 591.9C613.952 588.178 613.357 585.151 612.166 582.819C610.28 579.147 607.03 577.31 602.414 577.31C598.32 577.31 595.343 578.874 593.482 582C591.621 585.126 590.69 588.898 590.69 593.315C590.69 597.558 591.621 601.093 593.482 603.922C595.343 606.751 598.296 608.165 602.34 608.165ZM602.601 571.467C607.737 571.467 612.079 573.179 615.627 576.603C619.175 580.027 620.95 585.064 620.95 591.714C620.95 598.141 619.386 603.451 616.26 607.644C613.134 611.837 608.283 613.934 601.707 613.934C596.224 613.934 591.869 612.085 588.643 608.388C585.418 604.666 583.805 599.679 583.805 593.426C583.805 586.727 585.505 581.392 588.904 577.422C592.303 573.452 596.869 571.467 602.601 571.467ZM635.651 572.621V599.084C635.651 601.118 635.974 602.781 636.619 604.071C637.81 606.453 640.031 607.644 643.281 607.644C647.946 607.644 651.122 605.56 652.809 601.391C653.727 599.158 654.186 596.094 654.186 592.198V572.621H660.886V612.482H654.558L654.633 606.602C653.764 608.115 652.685 609.393 651.395 610.435C648.839 612.52 645.737 613.562 642.09 613.562C636.408 613.562 632.537 611.664 630.478 607.867C629.361 605.833 628.803 603.116 628.803 599.716V572.621H635.651ZM671.567 572.621H677.932V579.506C678.453 578.166 679.731 576.541 681.765 574.631C683.8 572.695 686.145 571.728 688.8 571.728C688.924 571.728 689.135 571.74 689.433 571.765C689.73 571.79 690.239 571.839 690.959 571.914V578.985C690.562 578.911 690.189 578.861 689.842 578.836C689.519 578.812 689.16 578.799 688.763 578.799C685.388 578.799 682.795 579.891 680.984 582.074C679.173 584.233 678.267 586.727 678.267 589.555V612.482H671.567V572.621Z" fill="#C2C2C2"/>
<path d="M421.122 702.819C418.666 703.638 415.726 704.047 412.302 704.047C405.155 704.047 399.25 701.914 394.585 697.646C388.928 692.51 386.099 684.966 386.099 675.017C386.099 664.992 389.002 657.412 394.809 652.276C399.548 648.082 405.441 645.986 412.488 645.986C419.584 645.986 425.539 648.206 430.353 652.648C435.911 657.784 438.69 664.967 438.69 674.198C438.69 679.086 438.094 683.18 436.903 686.48C435.936 689.631 434.509 692.249 432.623 694.333L438.95 700.251L432.958 706.504L426.333 700.251C424.323 701.467 422.586 702.323 421.122 702.819ZM418.666 692.919L413.12 687.634L419.038 681.455L424.584 686.741C425.452 684.954 426.06 683.391 426.408 682.051C426.953 680.041 427.226 677.696 427.226 675.017C427.226 668.863 425.961 664.111 423.43 660.762C420.924 657.387 417.252 655.7 412.413 655.7C407.872 655.7 404.25 657.313 401.545 660.538C398.841 663.764 397.488 668.59 397.488 675.017C397.488 682.535 399.424 687.919 403.295 691.17C405.801 693.279 408.803 694.333 412.302 694.333C413.617 694.333 414.882 694.172 416.098 693.849C416.768 693.676 417.624 693.366 418.666 692.919ZM470.773 681.009H458.937V702.521H447.734V647.661H474.644C478.489 647.735 481.442 648.206 483.502 649.075C485.586 649.943 487.348 651.221 488.787 652.908C489.978 654.298 490.921 655.836 491.615 657.524C492.31 659.211 492.658 661.134 492.658 663.293C492.658 665.898 492 668.466 490.685 670.997C489.37 673.503 487.199 675.277 484.172 676.319C486.702 677.337 488.489 678.788 489.531 680.674C490.598 682.535 491.132 685.388 491.132 689.234V692.919C491.132 695.425 491.231 697.125 491.429 698.018C491.727 699.432 492.422 700.474 493.514 701.144V702.521H480.896C480.549 701.306 480.301 700.326 480.152 699.581C479.854 698.043 479.693 696.467 479.668 694.854L479.594 689.755C479.544 686.257 478.899 683.924 477.658 682.758C476.442 681.592 474.147 681.009 470.773 681.009ZM477.733 671.034C480.015 669.992 481.157 667.933 481.157 664.856C481.157 661.531 480.053 659.298 477.844 658.156C476.604 657.511 474.743 657.189 472.261 657.189H458.937V671.927H471.927C474.507 671.927 476.442 671.63 477.733 671.034ZM558.014 676.505H547.146C546.948 674.992 546.439 673.627 545.62 672.411C544.429 670.774 542.581 669.955 540.075 669.955C536.502 669.955 534.058 671.729 532.742 675.277C532.048 677.163 531.7 679.669 531.7 682.795C531.7 685.773 532.048 688.167 532.742 689.979C534.008 693.353 536.39 695.04 539.889 695.04C542.37 695.04 544.132 694.371 545.174 693.031C546.216 691.691 546.849 689.954 547.072 687.82H557.903C557.654 691.046 556.488 694.098 554.404 696.976C551.079 701.616 546.154 703.936 539.628 703.936C533.102 703.936 528.301 702 525.224 698.13C522.147 694.259 520.609 689.234 520.609 683.056C520.609 676.084 522.309 670.662 525.708 666.791C529.107 662.92 533.797 660.985 539.777 660.985C544.863 660.985 549.02 662.126 552.245 664.409C555.496 666.692 557.419 670.724 558.014 676.505ZM599.179 667.089C602.603 671.382 604.315 676.456 604.315 682.312C604.315 688.267 602.603 693.366 599.179 697.609C595.754 701.827 590.556 703.936 583.584 703.936C576.611 703.936 571.413 701.827 567.989 697.609C564.565 693.366 562.853 688.267 562.853 682.312C562.853 676.456 564.565 671.382 567.989 667.089C571.413 662.796 576.611 660.65 583.584 660.65C590.556 660.65 595.754 662.796 599.179 667.089ZM583.547 669.62C580.445 669.62 578.051 670.724 576.363 672.932C574.701 675.116 573.87 678.242 573.87 682.312C573.87 686.381 574.701 689.52 576.363 691.728C578.051 693.936 580.445 695.04 583.547 695.04C586.648 695.04 589.03 693.936 590.693 691.728C592.355 689.52 593.186 686.381 593.186 682.312C593.186 678.242 592.355 675.116 590.693 672.932C589.03 670.724 586.648 669.62 583.547 669.62ZM648.866 647.735V702.521H638.556V696.901C637.043 699.308 635.318 701.058 633.383 702.149C631.447 703.241 629.041 703.787 626.162 703.787C621.423 703.787 617.428 701.876 614.178 698.055C610.952 694.209 609.339 689.284 609.339 683.279C609.339 676.356 610.927 670.91 614.103 666.94C617.304 662.97 621.572 660.985 626.907 660.985C629.363 660.985 631.547 661.531 633.457 662.623C635.368 663.69 636.919 665.178 638.11 667.089V647.735H648.866ZM620.282 682.498C620.282 686.244 621.026 689.234 622.515 691.467C623.979 693.725 626.212 694.854 629.214 694.854C632.217 694.854 634.499 693.738 636.063 691.505C637.626 689.271 638.407 686.381 638.407 682.833C638.407 677.87 637.154 674.322 634.648 672.188C633.11 670.898 631.323 670.253 629.289 670.253C626.187 670.253 623.904 671.431 622.44 673.788C621.001 676.121 620.282 679.024 620.282 682.498ZM693.268 690.611C692.995 693.018 691.742 695.462 689.509 697.944C686.035 701.889 681.172 703.861 674.919 703.861C669.758 703.861 665.205 702.199 661.26 698.874C657.315 695.549 655.342 690.14 655.342 682.646C655.342 675.624 657.116 670.24 660.664 666.493C664.237 662.747 668.865 660.873 674.547 660.873C677.922 660.873 680.961 661.506 683.666 662.772C686.37 664.037 688.604 666.034 690.365 668.764C691.953 671.171 692.983 673.962 693.454 677.138C693.727 678.999 693.839 681.679 693.789 685.177H666.024C666.173 689.247 667.451 692.1 669.858 693.738C671.322 694.755 673.083 695.264 675.143 695.264C677.326 695.264 679.1 694.643 680.465 693.403C681.209 692.733 681.867 691.802 682.438 690.611H693.268ZM682.773 678.18C682.599 675.376 681.743 673.255 680.204 671.816C678.691 670.352 676.805 669.62 674.547 669.62C672.091 669.62 670.18 670.389 668.815 671.927C667.476 673.466 666.632 675.55 666.285 678.18H682.773Z" fill="#C2C2C2"/>
<path d="M122.898 252.607C123.072 251.023 118.759 251.09 118.404 252.531C116.09 262.57 112.33 272.159 107.382 281.148C104.404 286.526 100.056 296.553 92.5372 292.438C87.9737 289.93 84.3942 281.76 82.451 277.195C73.3029 255.526 71.501 229.022 70.4306 205.755C69.9322 195.213 69.4437 184.517 70.2735 174.048C70.6516 169.479 75.5114 139.524 84.3365 150.698C90.9393 159.051 94.0952 172.312 96.6581 182.404C99.588 193.817 100.93 205.306 101.997 217.003C102.154 218.989 107.109 218.749 107.084 216.736C107.002 204.174 104.842 191.525 101.601 179.402C98.9596 169.602 96.0793 157.419 89.7962 149.277C86.6547 145.206 81.6002 142.19 76.4674 144.263C68.6513 147.342 66.3456 160.393 65.0924 167.644C60.9994 190.876 62.768 215.866 66.0427 239.096C67.7372 251.025 69.7571 263.26 73.7442 274.705C76.6545 282.915 81.9971 294.567 90.941 297.81C112.325 305.64 121.228 266.329 122.898 252.607ZM139.297 217.028C146.96 221.308 149.101 205.83 149.442 201.281C149.537 199.99 148.351 198.449 148.219 199.762C147.944 202.541 146.604 209.299 145.16 211.765C143.33 214.848 142.468 214.555 140.771 211.529C138.067 206.76 138.434 201.999 137.711 194.752C137.165 189.182 136.907 178.798 130.38 176.83C129.657 176.605 127.564 176.577 127.244 177.651C121.927 195.507 124.014 213.341 124.004 231.396C118.976 216.349 116.973 199.604 115.094 184.271C113.181 168.71 112.211 154.781 112.629 139.061C112.68 137.351 108.476 135.723 108.139 137.45C103.849 160.598 112.134 227.024 123.754 243.211C124.594 244.408 128.563 244.688 128.544 242.77C128.051 222.73 124.154 202.876 129.904 183.286C132.535 188.443 132.151 198.654 132.735 202.322C133.456 206.654 135.011 214.657 139.297 217.028ZM165.432 165.593C150.569 170.514 151.998 184.723 153.263 198.135C150.959 190.119 149.791 181.843 148.705 175.25C148.422 173.732 144.989 176.951 144.926 178.47C144.926 178.47 147.065 204.187 153.784 214.797C154.821 216.423 159.434 215.589 159.701 213.655C161.948 199.302 151.372 176.529 167.32 167.322C169.508 166.058 166.747 165.13 165.432 165.593ZM179.701 198.103C181.458 200.204 182.943 200.978 185.748 199.754C194.179 196.37 195.179 180.116 194.998 170.38C196.045 169.281 194.282 167.085 193.108 168.306C192.085 180.667 190.49 193.407 185.267 195.581C184.982 195.944 183.377 195.733 182.196 193.003C179.233 186.158 176.262 175.016 178.417 167.442C179.275 164.474 170.402 164.009 171.451 167.112C172.905 171.515 173.875 191.18 179.701 198.103ZM170.653 159.562C172.236 157.165 172.493 154.098 173.916 151.595C174.765 150.067 170.813 150.074 170.094 150.885C168.011 153.274 165.086 156.001 164.926 159.407C164.899 160.56 166.76 160.87 167.53 160.92C168.72 160.925 169.967 160.601 170.653 159.562ZM229.563 150.078C222.231 150.998 213.621 160.667 209.931 168.237C204.687 166.863 198.198 166.159 195.238 160.945C192.855 156.733 193.691 151.157 195.845 147.094C197.278 144.437 202.195 136.851 206.046 136.754C210.566 136.617 211.044 144.896 210.1 149.001C209.689 150.772 213.305 152.838 213.776 151.429C216.165 143.917 215.111 131.471 204.471 133.856C194.245 136.1 184.866 149.576 188.263 159.829C190.718 167.164 200.491 169.187 208.333 171.978C206.173 177.231 204.799 182.475 204.837 187.25C204.955 197.22 215.419 198.299 220.576 190.872C227.343 181.179 222.91 173.502 214.086 169.695C216.809 161.991 223.68 153.079 230.559 151.975C231.392 150.506 230.292 149.113 229.563 150.078ZM216.553 188.101C215.779 189.586 213.262 193.364 210.943 191.488C209.77 190.484 209.828 185.703 209.965 184.141C210.326 180.569 211.368 177.149 212.564 173.739C217.823 176.34 220.661 180.141 216.553 188.101ZM268.491 73.0088C257.272 76.6178 246.417 83.083 236.046 88.6748C234.541 89.4943 233.021 90.3722 231.516 91.1916C231.69 82.5855 232.236 81.1329 231.216 72.7711C231.011 70.9606 226.501 70.9435 226.142 72.6343C224.229 81.9972 224.429 84.9976 224.908 94.9076C217.565 99.1473 210.307 103.535 203.156 108.109C182.742 121.23 174.645 125.707 165.513 136.271C164.176 137.637 167.827 138.051 168.653 137.425C180.372 129.373 186.96 123.74 207.687 110.389C213.434 106.725 219.282 103.15 225.137 99.6714C225.241 101.737 225.362 103.745 225.424 105.736C226.058 120.453 227.361 135.129 229.444 149.702C231.303 162.771 233.858 175.934 239.452 187.935C242.793 195.006 246.994 202.026 255.735 200.292C258.808 199.705 256.677 197.128 254.338 197.786C247.016 199.837 239.845 171.142 238.946 167.359C236.348 156.348 234.98 145.071 233.788 133.842C232.59 122.517 231.827 111.089 231.49 99.7121C231.474 98.4852 231.458 97.2582 231.442 96.0312C234.059 94.5694 236.677 93.1075 239.257 91.6671C249.866 85.8883 261.538 81.523 271.666 75.0823C274.235 73.4507 269.695 72.6104 268.491 73.0088ZM289.611 117.041C289.852 121.056 289.602 124.563 288.977 128.534C288.362 132.351 286.163 137.279 282.897 131.451C279.567 125.511 279.272 119.005 276.515 114.316C275.916 113.278 271.882 112.887 271.485 114.254C269.873 119.684 269.722 125.162 269.906 130.791C269.989 133.76 270.108 136.708 269.999 139.688C269.958 141.245 269.742 142.755 269.563 144.243C269.481 143.845 269.437 143.425 269.328 142.895C267.843 135.098 263.408 114.911 259.818 107.835C258.992 106.235 254.549 105.734 254.233 107.499C251.375 124.133 252.053 129.676 251.796 145.846C249.321 137.534 247.483 129.298 246.162 120.071C245.889 118.399 241.48 117.187 241.546 118.929C242.233 133.565 245.471 146.284 251.475 159.68C252.183 161.249 257.042 163.241 256.98 161.249C256.255 144.063 255.696 125.792 257.49 118.279C259.116 126.834 259.581 126.269 261.323 134.511C262.234 138.831 263.402 148.047 266.588 149.026C268.663 149.707 271.797 149.826 272.805 148.404C273.566 147.322 274.292 144.726 274.443 142.76C275.013 135.953 273.825 129.271 274.407 122.655C276.294 130.12 278.146 139.238 285.315 138.808C294.698 138.187 292.876 122.525 292.267 115.903C292.117 114.358 289.519 115.512 289.611 117.041ZM312.609 112.764C313.805 115.436 315.574 117.728 318.524 118.299C329.748 120.522 329.172 101.025 329.196 94.3848C329.174 93.0622 326.716 93.344 326.685 94.7465C326.562 99.4163 326.138 111.529 321.151 112.827C318.848 113.464 317.854 109.686 317.114 106.948C314.953 98.7509 314.739 90.0721 313.91 81.6988C313.772 79.4047 308.166 81.2569 308.192 83.6153C308.236 86.2605 308.332 88.8257 308.487 91.4067C306.173 87.0559 301.806 84.6318 296.76 89.4244C288.048 97.718 287.865 118.643 292.277 128.854C295.975 137.4 304.92 136.192 308.289 128.065C310.281 123.207 311.66 118.059 312.609 112.764ZM300.664 129.847C294.992 129.017 295.704 112.435 296.345 107.12C297.974 93.6686 300.961 91.6473 302.913 92.2017C304.668 92.672 305.023 97.3131 305.067 98.6727C305.051 100.017 307.801 102.039 309.238 101.358C309.158 102.591 309.057 103.786 308.925 105.099C308.432 109.983 307.047 130.711 300.664 129.847ZM358.26 75.775C350.928 76.6948 342.318 86.3637 338.628 93.9338C333.384 92.5601 326.895 91.8559 323.934 86.6421C321.552 82.4297 322.387 76.8537 324.542 72.7911C325.975 70.1341 330.892 62.5479 334.743 62.4511C339.263 62.3141 339.74 70.5933 338.797 74.6984C338.385 76.4691 342.001 78.5353 342.473 77.1255C344.862 69.6144 343.808 57.1678 333.168 59.5525C322.942 61.7972 313.562 75.2729 316.96 85.5258C319.415 92.8613 329.187 94.8841 337.03 97.6752C334.87 102.928 333.496 108.171 333.533 112.947C333.652 122.917 344.116 123.996 349.273 116.568C356.04 106.876 351.607 99.1985 342.783 95.392C345.505 87.6881 352.377 78.7759 359.256 77.6723C360.089 76.2025 358.988 74.8103 358.26 75.775ZM345.25 113.798C344.476 115.283 341.959 119.06 339.64 117.185C338.467 116.181 338.525 111.4 338.661 109.838C339.023 106.266 340.064 102.846 341.26 99.4358C346.52 102.037 349.358 105.838 345.25 113.798ZM136.06 335.96C134.563 342.017 132.634 347.927 130.041 353.628C127.363 359.525 119.452 375.714 113.484 363.236C111.339 358.837 109.935 352.378 109.863 345.744C109.793 335.944 111.523 332.175 112.112 330.797C114.593 324.815 120.736 327.747 120.974 332.356C121.429 334.171 125.381 334.164 124.975 332.519C123.453 326.029 117.818 321.322 111.459 325.982C102.082 332.78 102.774 351.024 105.504 359.437C108.693 369.414 115.309 374.792 124.322 369.589C131.22 365.606 136.908 344.965 138.249 335.982C138.548 333.93 136.478 334.285 136.06 335.96ZM151.902 329.138C151.24 329.619 150.631 330.02 149.979 330.347C147.859 331.472 146.066 331.963 144.615 331.762C143.977 331.686 143.217 331.482 142.328 331.055C141.402 330.651 140.741 330.191 140.34 329.582L139.883 324.851C139.794 322.727 139.902 320.687 140.207 318.731C141.297 316.766 142.768 315.373 144.544 314.594C146.32 313.816 147.985 314.388 149.481 316.294C151.027 318.714 151.89 321.579 151.995 324.93C152.007 326.407 151.976 327.809 151.902 329.138ZM151.279 333.454C151.232 333.629 151.206 333.842 151.159 334.017C150.92 335.145 150.606 336.315 150.255 337.506C149.889 338.756 149.379 339.842 148.767 340.838C147.442 342.74 146.378 343.552 145.479 343.28C144.602 343.045 143.881 342.225 143.338 340.857C142.796 339.489 142.312 338.136 141.982 336.794C141.89 336.55 141.836 336.285 141.766 336.078C141.739 335.945 141.792 335.865 141.924 335.838C142.057 335.811 142.307 335.815 142.599 335.893C143.36 336.097 144.417 336.13 145.824 335.911C147.771 335.43 149.621 334.609 151.279 333.454ZM156.829 326.194C156.867 322.662 156.622 320.182 156.169 318.713C155.162 315.684 153.671 313.529 151.71 312.188C149.712 310.869 147.569 310.326 145.259 310.522C142.971 310.756 140.802 311.711 138.77 313.329C137.941 313.264 137.219 313.384 136.545 313.674C135.872 313.964 135.497 314.428 135.442 315.102C135.423 315.756 135.411 316.505 135.324 317.297L135.187 317.574C135.06 317.696 134.955 317.856 134.87 318.053C133.901 319.8 133.304 321.678 133.116 323.665C132.95 325.69 133.525 327.286 134.922 328.507C134.942 331.71 135.258 334.742 135.893 337.639C136.49 340.558 137.574 342.949 139.202 344.827C140.831 346.706 143.114 347.662 146.168 347.729C149.137 347.646 151.448 346.51 153.138 344.298C154.791 342.107 155.932 339.372 156.56 336.092C157.131 333.141 157.323 330.904 157.12 329.439C160.197 327.316 162.871 324.239 165.142 320.208C165.41 319.559 165.462 319.133 165.296 318.932C165.152 318.768 164.881 318.727 164.541 318.824C164.202 318.921 163.868 319.114 163.555 319.344C163.243 319.573 163.048 319.835 162.964 320.032C161.49 322.019 159.444 324.042 156.829 326.194ZM149.658 235.487C149.658 235.487 152.057 266.196 154.193 281.628C156.125 295.595 157.849 310.572 163.033 323.75C164.951 328.527 170.169 339.707 177.794 335.354C183.32 332.164 185.758 314.289 185.86 307.356C185.875 306.012 183.533 305.98 183.48 307.346C183.358 312.015 180.242 331.715 174.317 332.416C171.307 332.77 167.098 317.941 166.521 316C164.955 310.376 163.788 304.671 162.657 298.944C158.44 277.593 158.248 257.132 154.169 235.85C153.881 234.236 149.65 233.761 149.658 235.487ZM171.466 222.896C171.466 222.896 173.865 253.605 176 269.037C177.932 283.004 179.657 297.982 184.841 311.159C186.759 315.936 191.977 327.116 199.602 322.763C205.128 319.573 207.566 301.698 207.668 294.765C207.683 293.421 205.341 293.389 205.288 294.755C205.166 299.424 202.05 319.124 196.125 319.825C193.115 320.179 188.906 305.351 188.329 303.409C186.763 297.785 185.596 292.08 184.465 286.354C180.248 265.002 180.056 244.542 175.977 223.259C175.689 221.645 171.458 221.17 171.466 222.896ZM230.693 278.801C228.987 284.583 227.252 301.706 219.459 305.167C217.18 306.186 214.662 303.881 213.954 302.312C211.835 297.7 211.169 292.349 211.449 287.439C216.287 294.19 228.402 278.344 225.314 271.968C224.049 269.434 220.146 266.1 216.056 267.324C210.799 268.925 208.211 274.721 206.851 279.561C204.373 288.459 203.874 309.863 217.867 310.289C227.919 310.569 232.178 286.598 233.169 278.806C233.378 276.856 231.207 277.12 230.693 278.801ZM214.323 275.544C216.662 271.029 220.241 268.32 220.342 274.492C220.37 275.91 218.236 284.461 215.251 285.887C214 286.461 212.22 286.203 211.525 286.456C211.862 282.157 212.912 278.238 214.323 275.544ZM262.087 263.198C260.589 269.255 258.661 275.166 256.067 280.866C253.39 286.764 245.478 302.953 239.51 290.475C237.366 286.076 235.961 279.617 235.889 272.983C235.819 263.183 237.55 259.414 238.139 258.036C240.619 252.054 246.762 254.985 247.001 259.595C247.455 261.41 251.407 261.403 251.001 259.758C249.48 253.268 243.844 248.56 237.485 253.221C228.108 260.019 228.8 278.263 231.531 286.675C234.72 296.653 241.336 302.031 250.348 296.828C257.247 292.845 262.934 272.204 264.275 263.221C264.574 261.169 262.504 261.523 262.087 263.198ZM302.386 182.766C291.168 186.375 280.312 192.84 269.942 198.432C268.437 199.251 266.916 200.129 265.411 200.949C265.585 192.342 266.131 190.89 265.111 182.528C264.907 180.718 260.397 180.701 260.038 182.391C258.125 191.754 258.324 194.755 258.804 204.665C251.46 208.904 244.202 213.292 237.051 217.866C216.638 230.987 208.541 235.464 199.409 246.028C198.071 247.394 201.722 247.808 202.548 247.182C214.267 239.13 220.856 233.497 241.582 220.146C247.329 216.482 253.178 212.907 259.032 209.428C259.137 211.494 259.257 213.502 259.319 215.493C259.953 230.21 261.256 244.886 263.34 259.459C265.199 272.528 267.754 285.691 273.348 297.692C276.688 304.763 280.89 311.783 289.631 310.049C292.704 309.462 290.573 306.885 288.233 307.543C280.912 309.594 273.74 280.899 272.842 277.116C270.243 266.105 268.875 254.828 267.683 243.599C266.485 232.274 265.723 220.846 265.385 209.469C265.369 208.242 265.353 207.015 265.337 205.788C267.955 204.326 270.572 202.865 273.153 201.424C283.762 195.645 295.434 191.28 305.562 184.839C308.131 183.208 303.59 182.367 302.386 182.766ZM284.509 266.918C286.266 269.019 287.752 269.793 290.556 268.57C298.987 265.185 299.988 248.932 299.806 239.196C300.853 238.097 299.09 235.9 297.917 237.122C296.893 249.482 295.298 262.222 290.075 264.396C289.79 264.759 288.185 264.548 287.004 261.818C284.042 254.973 281.07 243.831 283.225 236.258C284.083 233.29 275.21 232.825 276.26 235.927C277.714 240.33 278.683 259.996 284.509 266.918ZM275.461 228.377C277.044 225.98 277.301 222.914 278.725 220.411C279.573 218.883 275.621 218.889 274.902 219.7C272.82 222.089 269.894 224.817 269.734 228.222C269.708 229.375 271.568 229.685 272.339 229.735C273.528 229.741 274.775 229.416 275.461 228.377ZM314.275 235.392C313.613 235.873 313.004 236.274 312.352 236.601C310.232 237.726 308.439 238.217 306.988 238.016C306.35 237.939 305.59 237.736 304.701 237.309C303.775 236.904 303.114 236.445 302.713 235.836L302.256 231.105C302.167 228.981 302.275 226.941 302.58 224.984C303.67 223.019 305.141 221.626 306.917 220.848C308.693 220.07 310.358 220.642 311.854 222.547C313.4 224.968 314.263 227.833 314.368 231.184C314.38 232.661 314.349 234.063 314.275 235.392ZM313.652 239.708C313.605 239.883 313.579 240.096 313.532 240.271C313.293 241.399 312.979 242.569 312.628 243.76C312.262 245.01 311.752 246.096 311.14 247.092C309.815 248.994 308.751 249.806 307.852 249.534C306.975 249.299 306.254 248.479 305.711 247.111C305.169 245.743 304.685 244.39 304.355 243.048C304.263 242.804 304.209 242.539 304.139 242.332C304.112 242.199 304.165 242.119 304.297 242.092C304.43 242.065 304.68 242.069 304.972 242.147C305.733 242.351 306.79 242.384 308.197 242.165C310.144 241.683 311.994 240.862 313.652 239.708ZM319.202 232.448C319.24 228.915 318.995 226.436 318.542 224.966C317.535 221.938 316.044 219.783 314.083 218.442C312.085 217.123 309.942 216.58 307.632 216.776C305.344 217.009 303.175 217.965 301.143 219.583C300.314 219.518 299.592 219.638 298.918 219.928C298.245 220.218 297.87 220.681 297.815 221.356C297.796 222.01 297.784 222.759 297.697 223.551L297.56 223.828C297.433 223.95 297.328 224.11 297.243 224.307C296.274 226.054 295.677 227.931 295.489 229.919C295.323 231.944 295.898 233.54 297.295 234.761C297.315 237.964 297.631 240.995 298.266 243.893C298.863 246.812 299.947 249.203 301.575 251.081C303.204 252.96 305.487 253.916 308.541 253.982C311.51 253.9 313.821 252.764 315.511 250.552C317.164 248.361 318.305 245.626 318.933 242.345C319.504 239.395 319.696 237.158 319.493 235.692C322.57 233.57 325.244 230.493 327.515 226.462C327.783 225.812 327.835 225.387 327.669 225.186C327.525 225.022 327.254 224.981 326.914 225.078C326.575 225.175 326.241 225.368 325.928 225.598C325.616 225.827 325.421 226.089 325.337 226.285C323.863 228.273 321.817 230.296 319.202 232.448ZM358.667 205.559C358.727 204.634 357.772 215.57 355.295 221.302C352.971 226.699 349.184 224.336 347.953 219.805C345.911 212.33 346.147 199.633 342.914 195.318C341.894 193.979 339.541 194.101 338.877 194.237C333.379 195.334 331.017 219.594 330.663 223.606C329.994 217.564 329.855 211.413 329.099 205.223C328.819 203.11 323.528 201.912 323.463 204.026C323.055 216.081 324.469 229.407 329.453 240.524C330.225 242.205 334.376 241.342 334.501 239.588C335.114 231.915 335.479 224.238 336.305 216.59C336.479 215.006 337.304 207.013 338.369 201.75C340.651 211.955 339.039 229.204 349.876 229.475C361.367 229.764 360.669 206.628 360.138 205.451C360.116 204.128 358.778 204.209 358.667 205.559Z" fill="black"/>
</svg>
