<svg width="1000" height="1000" viewBox="0 0 1000 1000" fill="none" xmlns="http://www.w3.org/2000/svg">
<path fill-rule="evenodd" clip-rule="evenodd" d="M578.206 10.8704C555.8 4.86684 532.77 18.1633 526.766 40.5689L474.485 235.686C468.481 258.091 481.778 281.122 504.183 287.125L678.346 333.792L606.259 602.826L640.066 611.885L712.154 342.851L885.724 389.359C908.13 395.362 931.16 382.066 937.163 359.66L989.445 164.543C995.448 142.138 982.152 119.107 959.746 113.104L578.206 10.8704Z" fill="#333333"/>
<path d="M691.875 171.908C689.363 174.021 686.302 175.291 682.692 175.717C679.113 176.125 675.165 175.75 670.849 174.594C666.483 173.424 662.881 171.368 660.042 168.425C657.209 165.458 655.367 161.837 654.515 157.56C653.688 153.29 653.917 148.66 655.202 143.668L656.454 138.996C658.616 130.927 662.168 125.176 667.109 121.742C672.076 118.315 677.968 117.515 684.786 119.342C690.378 120.84 694.494 123.481 697.134 127.264C699.781 131.022 700.781 135.627 700.135 141.079L693.072 139.187C693.647 131.744 690.378 127.07 683.265 125.164C678.532 123.896 674.492 124.601 671.146 127.279C667.831 129.939 665.316 134.418 663.603 140.714L662.43 145.092C660.82 151.101 660.912 156.251 662.706 160.543C664.506 164.811 667.749 167.573 672.433 168.828C675.082 169.538 677.478 169.864 679.623 169.808C681.767 169.752 683.676 169.199 685.351 168.149L688.574 156.119L676.177 152.797L677.714 147.058L697.138 152.263L691.875 171.908ZM717.055 186.975C711.659 185.529 707.742 182.587 705.304 178.148C702.872 173.685 702.452 168.486 704.042 162.551L704.377 161.3C705.435 157.351 707.126 154.032 709.45 151.343C711.806 148.636 714.565 146.773 717.73 145.754C720.925 144.718 724.105 144.624 727.269 145.471C732.443 146.858 736.009 149.64 737.965 153.818C739.921 157.996 740.048 163.261 738.346 169.613L737.587 172.446L710.621 165.22C709.668 169.171 709.957 172.652 711.489 175.665C713.053 178.66 715.527 180.611 718.911 181.518C721.315 182.162 723.482 182.217 725.412 181.683C727.343 181.149 729.15 180.24 730.835 178.956L734.125 183.308C729.416 187.54 723.726 188.762 717.055 186.975ZM725.77 151.063C723.023 150.327 720.449 150.715 718.046 152.227C715.65 153.714 713.748 156.201 712.34 159.688L732.279 165.031L732.417 164.515C733.148 161.005 732.932 158.082 731.77 155.746C730.615 153.387 728.615 151.826 725.77 151.063ZM763.168 145.549L760.585 155.187L768.017 157.178L766.607 162.439L759.176 160.448L752.562 185.133C752.134 186.727 752.144 188.017 752.589 189.004C753.041 189.966 754.064 190.661 755.658 191.088C756.443 191.299 757.561 191.441 759.014 191.514L757.535 197.033C755.613 197.043 753.806 196.822 752.114 196.369C749.073 195.554 747.026 194.02 745.974 191.766C744.922 189.513 744.849 186.694 745.756 183.309L752.37 158.624L745.123 156.682L746.532 151.422L753.78 153.364L756.362 143.725L763.168 145.549ZM808.597 210.715C808.415 209.825 808.471 208.341 808.764 206.264C804.72 208.703 800.503 209.334 796.113 208.158C792.188 207.107 789.259 205.139 787.324 202.255C785.421 199.352 784.926 196.197 785.839 192.788C786.95 188.643 789.38 185.851 793.131 184.411C796.912 182.953 801.66 182.99 807.375 184.521L813.997 186.296L814.834 183.169C815.472 180.79 815.267 178.711 814.219 176.932C813.177 175.128 811.271 173.855 808.5 173.112C806.072 172.462 803.872 172.529 801.9 173.315C799.928 174.101 798.709 175.365 798.242 177.106L791.4 175.273C791.932 173.286 793.144 171.561 795.034 170.096C796.956 168.613 799.264 167.654 801.956 167.219C804.674 166.79 807.479 166.964 810.373 167.739C814.959 168.968 818.243 171.084 820.225 174.086C822.214 177.063 822.718 180.576 821.739 184.624L816.83 202.945C815.851 206.599 815.538 209.63 815.892 212.038L815.734 212.627L808.597 210.715ZM798.693 202.501C800.827 203.073 802.998 203.063 805.207 202.472C807.415 201.881 809.185 200.818 810.517 199.282L812.705 191.115L807.371 189.686C799.032 187.451 794.209 188.774 792.901 193.655C792.33 195.789 792.594 197.647 793.694 199.23C794.795 200.813 796.461 201.903 798.693 202.501Z" fill="white"/>
<rect x="553.451" y="21.1528" width="437.5" height="253.323" rx="35.5958" transform="rotate(15 553.451 21.1528)" stroke="white" stroke-width="6" stroke-dasharray="8 8"/>
<rect x="16" y="370" width="630" height="630" rx="16" fill="#333333"/>
<rect x="47.9609" y="401.961" width="567.04" height="567.04" rx="11.3408" fill="white"/>
<path d="M461.895 441.648H575.302V555.056" stroke="#C2C2C2" stroke-width="22.6816"/>
<path d="M201.057 441.648H87.6487V555.056" stroke="#C2C2C2" stroke-width="22.6816"/>
<path d="M461.895 929.301H575.302V815.893" stroke="#C2C2C2" stroke-width="22.6816"/>
<path d="M201.057 929.301H87.6487V815.893" stroke="#C2C2C2" stroke-width="22.6816"/>
<path d="M196.654 639.612L187.269 612.299L177.295 639.612H196.654ZM182.892 603.124H192.361L214.793 664.947H205.618L199.347 646.43H174.896L168.204 664.947H159.619L182.892 603.124ZM226.198 642.937C226.198 647.763 227.222 651.803 229.27 655.057C231.318 658.312 234.601 659.939 239.118 659.939C242.625 659.939 245.501 658.438 247.745 655.436C250.018 652.406 251.154 648.071 251.154 642.432C251.154 636.736 249.99 632.528 247.661 629.806C245.332 627.057 242.456 625.682 239.034 625.682C235.218 625.682 232.118 627.141 229.733 630.059C227.376 632.977 226.198 637.269 226.198 642.937ZM237.603 619.075C241.054 619.075 243.943 619.804 246.272 621.263C247.619 622.105 249.148 623.578 250.859 625.682V602.914H258.14V664.947H251.322V658.677C249.555 661.454 247.465 663.46 245.052 664.695C242.639 665.929 239.875 666.546 236.761 666.546C231.739 666.546 227.39 664.442 223.715 660.234C220.039 655.997 218.201 650.372 218.201 643.358C218.201 636.792 219.871 631.111 223.21 626.313C226.576 621.488 231.374 619.075 237.603 619.075ZM274.174 642.937C274.174 647.763 275.199 651.803 277.247 655.057C279.295 658.312 282.577 659.939 287.095 659.939C290.602 659.939 293.477 658.438 295.722 655.436C297.995 652.406 299.131 648.071 299.131 642.432C299.131 636.736 297.967 632.528 295.638 629.806C293.309 627.057 290.433 625.682 287.01 625.682C283.195 625.682 280.094 627.141 277.71 630.059C275.353 632.977 274.174 637.269 274.174 642.937ZM285.58 619.075C289.03 619.075 291.92 619.804 294.249 621.263C295.596 622.105 297.125 623.578 298.836 625.682V602.914H306.117V664.947H299.299V658.677C297.532 661.454 295.441 663.46 293.029 664.695C290.616 665.929 287.852 666.546 284.738 666.546C279.716 666.546 275.367 664.442 271.691 660.234C268.016 655.997 266.178 650.372 266.178 643.358C266.178 636.792 267.848 631.111 271.186 626.313C274.553 621.488 279.351 619.075 285.58 619.075ZM369.497 619.874H377.872C376.806 622.764 374.435 629.357 370.76 639.654C368.01 647.398 365.709 653.711 363.858 658.592C359.481 670.096 356.395 677.11 354.599 679.635C352.803 682.16 349.717 683.423 345.34 683.423C344.274 683.423 343.446 683.38 342.857 683.296C342.296 683.212 341.595 683.058 340.753 682.833V675.931C342.072 676.296 343.026 676.521 343.615 676.605C344.204 676.689 344.723 676.731 345.172 676.731C346.575 676.731 347.599 676.493 348.244 676.016C348.917 675.567 349.479 675.006 349.927 674.332C350.068 674.108 350.573 672.957 351.443 670.881C352.312 668.805 352.944 667.262 353.336 666.252L336.671 619.874H345.256L357.334 656.572L369.497 619.874ZM402.323 660.065C407.345 660.065 410.782 658.172 412.634 654.384C414.514 650.568 415.454 646.332 415.454 641.674C415.454 637.466 414.78 634.043 413.434 631.406C411.301 627.253 407.626 625.177 402.407 625.177C397.778 625.177 394.411 626.945 392.307 630.48C390.203 634.015 389.151 638.279 389.151 643.274C389.151 648.071 390.203 652.069 392.307 655.268C394.411 658.466 397.75 660.065 402.323 660.065ZM402.618 618.57C408.426 618.57 413.335 620.506 417.348 624.377C421.36 628.249 423.366 633.945 423.366 641.464C423.366 648.731 421.598 654.735 418.063 659.476C414.528 664.218 409.043 666.589 401.608 666.589C395.407 666.589 390.483 664.498 386.836 660.318C383.189 656.109 381.365 650.47 381.365 643.4C381.365 635.824 383.287 629.792 387.131 625.303C390.974 620.814 396.137 618.57 402.618 618.57ZM439.989 619.874V649.797C439.989 652.097 440.354 653.977 441.083 655.436C442.43 658.129 444.941 659.476 448.617 659.476C453.891 659.476 457.483 657.119 459.39 652.406C460.429 649.881 460.948 646.416 460.948 642.011V619.874H468.523V664.947H461.368L461.453 658.298C460.471 660.009 459.25 661.454 457.791 662.633C454.901 664.989 451.394 666.168 447.27 666.168C440.845 666.168 436.468 664.021 434.139 659.729C432.877 657.428 432.246 654.356 432.246 650.512V619.874H439.989ZM480.601 619.874H487.798V627.66C488.387 626.145 489.832 624.307 492.133 622.147C494.433 619.958 497.085 618.864 500.087 618.864C500.227 618.864 500.465 618.878 500.802 618.906C501.139 618.934 501.714 618.99 502.528 619.075V627.071C502.079 626.987 501.658 626.93 501.265 626.902C500.9 626.874 500.494 626.86 500.045 626.86C496.229 626.86 493.297 628.095 491.249 630.564C489.201 633.005 488.177 635.824 488.177 639.023V664.947H480.601V619.874Z" fill="#C2C2C2"/>
<path d="M197.418 767.098C194.64 768.024 191.315 768.487 187.443 768.487C179.363 768.487 172.686 766.074 167.411 761.249C161.014 755.441 157.816 746.912 157.816 735.661C157.816 724.326 161.098 715.755 167.664 709.947C173.022 705.205 179.686 702.835 187.654 702.835C195.678 702.835 202.412 705.346 207.855 710.368C214.139 716.176 217.282 724.298 217.282 734.735C217.282 740.262 216.608 744.892 215.262 748.623C214.167 752.186 212.554 755.146 210.422 757.503L217.576 764.195L210.801 771.265L203.309 764.195C201.037 765.569 199.073 766.537 197.418 767.098ZM194.64 755.904L188.369 749.928L195.061 742.942L201.332 748.918C202.313 746.898 203.001 745.13 203.394 743.615C204.011 741.342 204.32 738.691 204.32 735.661C204.32 728.703 202.889 723.33 200.027 719.542C197.193 715.727 193.041 713.819 187.57 713.819C182.435 713.819 178.339 715.642 175.281 719.29C172.223 722.937 170.694 728.394 170.694 735.661C170.694 744.162 172.882 750.25 177.259 753.926C180.093 756.311 183.487 757.503 187.443 757.503C188.93 757.503 190.361 757.321 191.736 756.956C192.494 756.76 193.462 756.409 194.64 755.904ZM253.559 742.437H240.176V766.762H227.508V704.728H257.936C262.285 704.813 265.623 705.346 267.952 706.328C270.309 707.31 272.301 708.755 273.928 710.662C275.275 712.234 276.341 713.973 277.127 715.881C277.912 717.789 278.305 719.963 278.305 722.404C278.305 725.35 277.561 728.254 276.074 731.116C274.587 733.949 272.132 735.956 268.71 737.134C271.571 738.284 273.591 739.926 274.77 742.058C275.976 744.162 276.579 747.389 276.579 751.737V755.904C276.579 758.738 276.692 760.659 276.916 761.669C277.253 763.269 278.038 764.447 279.273 765.205V766.762H265.006C264.613 765.387 264.333 764.279 264.164 763.437C263.828 761.697 263.645 759.916 263.617 758.092L263.533 752.327C263.477 748.371 262.748 745.733 261.345 744.415C259.97 743.096 257.375 742.437 253.559 742.437ZM261.429 731.158C264.01 729.979 265.301 727.651 265.301 724.172C265.301 720.412 264.052 717.887 261.555 716.596C260.152 715.867 258.048 715.502 255.242 715.502H240.176V732.168H254.864C257.781 732.168 259.97 731.831 261.429 731.158ZM352.206 737.344H339.917C339.693 735.633 339.118 734.09 338.192 732.715C336.845 730.863 334.755 729.937 331.921 729.937C327.881 729.937 325.117 731.943 323.63 735.956C322.845 738.088 322.452 740.922 322.452 744.457C322.452 747.823 322.845 750.531 323.63 752.579C325.061 756.395 327.755 758.303 331.711 758.303C334.516 758.303 336.508 757.545 337.687 756.03C338.865 754.515 339.581 752.551 339.833 750.138H352.08C351.799 753.786 350.481 757.236 348.124 760.491C344.364 765.738 338.795 768.361 331.416 768.361C324.037 768.361 318.608 766.173 315.129 761.796C311.65 757.419 309.911 751.737 309.911 744.751C309.911 736.867 311.833 730.737 315.676 726.36C319.52 721.983 324.823 719.795 331.585 719.795C337.336 719.795 342.036 721.085 345.683 723.667C349.358 726.248 351.533 730.807 352.206 737.344ZM398.752 726.697C402.624 731.551 404.56 737.288 404.56 743.91C404.56 750.643 402.624 756.409 398.752 761.207C394.88 765.976 389.002 768.361 381.119 768.361C373.235 768.361 367.357 765.976 363.485 761.207C359.613 756.409 357.677 750.643 357.677 743.91C357.677 737.288 359.613 731.551 363.485 726.697C367.357 721.843 373.235 719.416 381.119 719.416C389.002 719.416 394.88 721.843 398.752 726.697ZM381.076 729.559C377.569 729.559 374.862 730.807 372.954 733.304C371.074 735.773 370.134 739.308 370.134 743.91C370.134 748.511 371.074 752.06 372.954 754.557C374.862 757.054 377.569 758.303 381.076 758.303C384.584 758.303 387.277 757.054 389.157 754.557C391.037 752.06 391.976 748.511 391.976 743.91C391.976 739.308 391.037 735.773 389.157 733.304C387.277 730.807 384.584 729.559 381.076 729.559ZM454.936 704.813V766.762H443.278V760.407C441.567 763.128 439.617 765.106 437.428 766.341C435.24 767.575 432.518 768.193 429.264 768.193C423.905 768.193 419.388 766.032 415.712 761.712C412.065 757.363 410.241 751.793 410.241 745.004C410.241 737.176 412.037 731.018 415.628 726.528C419.248 722.039 424.073 719.795 430.105 719.795C432.883 719.795 435.352 720.412 437.512 721.647C439.673 722.853 441.426 724.536 442.773 726.697V704.813H454.936ZM422.614 744.12C422.614 748.357 423.456 751.737 425.139 754.262C426.795 756.816 429.32 758.092 432.715 758.092C436.11 758.092 438.691 756.83 440.458 754.305C442.226 751.779 443.11 748.511 443.11 744.499C443.11 738.887 441.693 734.875 438.859 732.462C437.12 731.004 435.1 730.274 432.799 730.274C429.292 730.274 426.711 731.607 425.055 734.272C423.428 736.909 422.614 740.192 422.614 744.12ZM505.143 753.295C504.834 756.016 503.418 758.78 500.892 761.585C496.964 766.046 491.465 768.277 484.395 768.277C478.559 768.277 473.411 766.397 468.95 762.637C464.489 758.878 462.258 752.761 462.258 744.288C462.258 736.348 464.264 730.26 468.277 726.023C472.317 721.787 477.549 719.669 483.974 719.669C487.79 719.669 491.227 720.384 494.285 721.815C497.343 723.246 499.868 725.504 501.86 728.591C503.656 731.312 504.82 734.469 505.353 738.06C505.662 740.164 505.788 743.194 505.732 747.15H474.337C474.505 751.751 475.95 754.978 478.672 756.83C480.327 757.98 482.319 758.555 484.648 758.555C487.117 758.555 489.123 757.854 490.666 756.451C491.507 755.693 492.251 754.641 492.896 753.295H505.143ZM493.275 739.238C493.079 736.068 492.111 733.669 490.371 732.042C488.66 730.386 486.527 729.559 483.974 729.559C481.197 729.559 479.036 730.428 477.493 732.168C475.978 733.907 475.024 736.264 474.631 739.238H493.275Z" fill="#C2C2C2"/>
<path d="M534.472 224.345L548.824 170.782L563.944 174.833C568.604 176.081 572.448 178.216 575.477 181.235C578.506 184.255 580.479 187.925 581.398 192.245C582.342 196.573 582.165 201.204 580.869 206.14L579.952 209.562C578.599 214.614 576.431 218.778 573.451 222.054C570.495 225.336 566.929 227.509 562.754 228.572C558.603 229.641 554.118 229.557 549.298 228.318L534.472 224.345ZM554.33 178.487L543.083 220.462L550.514 222.453C555.959 223.912 560.643 223.353 564.566 220.777C568.514 218.208 571.326 213.796 573.002 207.542L573.84 204.415C575.47 198.332 575.3 193.227 573.331 189.098C571.393 184.951 567.806 182.15 562.571 180.695L554.33 178.487ZM591.494 239.624L584.43 237.731L598.783 184.168L605.846 186.06L591.494 239.624ZM626.623 223.447C621.031 220.083 617.189 216.766 615.094 213.497C613.031 210.211 612.498 206.703 613.497 202.975C614.628 198.757 617.241 195.725 621.337 193.878C625.464 192.014 630.225 191.804 635.621 193.25C639.3 194.236 642.383 195.824 644.871 198.016C647.384 200.214 649.09 202.774 649.99 205.696C650.914 208.625 650.978 211.573 650.183 214.54L643.083 212.638C643.95 209.4 643.6 206.586 642.033 204.195C640.472 201.779 637.816 200.068 634.063 199.063C630.581 198.129 627.651 198.172 625.275 199.192C622.93 200.193 621.393 202.055 620.664 204.777C620.079 206.96 620.502 209.058 621.934 211.072C623.397 213.067 626.181 215.285 630.285 217.725C634.413 220.172 637.525 222.491 639.619 224.682C641.744 226.855 643.138 229.108 643.801 231.441C644.488 233.781 644.467 236.312 643.738 239.034C642.575 243.375 639.949 246.404 635.862 248.122C631.781 249.814 626.907 249.902 621.242 248.384C617.563 247.398 614.317 245.779 611.503 243.527C608.696 241.25 606.75 238.652 605.666 235.733C604.607 232.82 604.494 229.807 605.329 226.692L612.429 228.594C611.561 231.832 612.064 234.713 613.937 237.239C615.841 239.747 618.792 241.537 622.79 242.608C626.517 243.607 629.578 243.612 631.972 242.624C634.366 241.636 635.915 239.829 636.618 237.205C637.321 234.581 636.944 232.311 635.486 230.396C634.034 228.456 631.08 226.14 626.623 223.447ZM693.132 248.641C690.951 254.129 687.682 257.945 683.322 260.089C678.993 262.215 673.91 262.496 668.073 260.932C661.746 259.237 657.277 255.608 654.667 250.045C652.081 244.49 651.807 237.91 653.844 230.307L655.224 225.157C656.558 220.178 658.614 216.037 661.392 212.733C664.194 209.436 667.496 207.219 671.296 206.082C675.104 204.92 679.153 204.915 683.445 206.065C689.135 207.589 693.27 210.406 695.849 214.514C698.435 218.598 699.257 223.523 698.317 229.291L691.217 227.388C691.747 222.957 691.238 219.508 689.691 217.043C688.168 214.585 685.567 212.863 681.888 211.877C677.375 210.668 673.384 211.386 669.916 214.032C666.471 216.684 663.924 221.087 662.275 227.243L660.885 232.431C659.327 238.243 659.303 243.191 660.811 247.276C662.319 251.36 665.255 253.987 669.621 255.156C673.545 256.208 676.786 256.13 679.344 254.923C681.933 253.697 684.162 250.97 686.032 246.739L693.132 248.641ZM746.169 254.218C744.762 259.466 742.65 263.816 739.833 267.267C737.022 270.693 733.722 273.003 729.933 274.195C726.144 275.388 722.091 275.406 717.774 274.249C713.556 273.119 710.092 271.087 707.382 268.153C704.679 265.194 702.932 261.559 702.142 257.246C701.384 252.916 701.657 248.218 702.961 243.153L703.996 239.29C705.376 234.14 707.491 229.83 710.339 226.361C713.187 222.892 716.522 220.553 720.342 219.342C724.194 218.113 728.229 218.064 732.447 219.195C736.739 220.345 740.237 222.399 742.94 225.358C745.675 228.298 747.396 231.98 748.103 236.401C748.818 240.799 748.475 245.609 747.075 250.833L746.169 254.218ZM740.069 248.877C741.771 242.525 741.8 237.315 740.156 233.247C738.519 229.154 735.407 226.494 730.821 225.265C726.357 224.069 722.381 224.83 718.892 227.549C715.435 230.25 712.861 234.607 711.171 240.621L710.116 244.557C708.467 250.713 708.456 255.902 710.085 260.124C711.745 264.327 714.844 267.037 719.381 268.253C723.943 269.475 727.918 268.766 731.307 266.125C734.702 263.46 737.268 259.035 739.004 252.85L740.069 248.877ZM802.111 238.649L792.352 275.07C790.974 280.115 788.272 283.821 784.248 286.186C780.248 288.558 775.497 289.217 769.996 288.163L768.1 287.734C762.239 286.164 757.991 283.33 755.356 279.233C752.721 275.136 752.122 270.31 753.558 264.754L763.336 228.26L770.326 230.133L760.607 266.406C759.568 270.281 759.827 273.583 761.382 276.313C762.944 279.019 765.699 280.901 769.648 281.959C773.646 283.03 776.985 282.781 779.666 281.212C782.371 279.65 784.243 276.932 785.282 273.057L795.011 236.747L802.111 238.649ZM840.071 306.23L832.971 304.328L817.065 255.826L806.006 297.102L798.905 295.2L813.258 241.636L820.358 243.539L836.288 292.244L847.397 250.784L854.424 252.667L840.071 306.23ZM901.316 271.461L884.099 266.848L871.305 314.599L864.278 312.716L877.073 264.965L859.893 260.362L861.45 254.549L902.874 265.649L901.316 271.461Z" fill="white"/>
</svg>
