<svg width="1000" height="1002" viewBox="0 0 1000 1002" fill="none" xmlns="http://www.w3.org/2000/svg">
<ellipse cx="362.938" cy="705.208" rx="295.147" ry="267.429" fill="#333333"/>
<ellipse cx="362.938" cy="351.545" rx="206.86" ry="187.868" fill="#333333"/>
<path d="M193.975 749.514H186.287L169.602 698.313L149.972 749.514H148.5L168.947 696.022L154.062 649.892H161.75L173.037 685.226L186.614 649.892H188.25L173.855 687.516L193.975 749.514ZM259.761 749.514H252.563V696.84C252.563 693.351 251.854 690.352 250.437 687.843C249.019 685.226 247.383 683.917 245.529 683.917C242.149 683.917 239.204 685.062 236.696 687.353C234.297 689.534 232.933 692.26 232.606 695.532V749.514H225.572V696.84C225.572 693.242 224.863 690.188 223.446 687.68C222.028 685.172 220.338 683.917 218.375 683.917C215.103 683.917 212.268 685.008 209.868 687.189C207.469 689.261 205.997 691.878 205.452 695.041V749.514H198.418V684.081H205.452V690.461C208.178 685.117 212.486 682.445 218.375 682.445C225.245 682.445 229.716 685.717 231.788 692.26C234.079 685.717 238.659 682.445 245.529 682.445C249.346 682.445 252.672 683.863 255.508 686.698C258.343 689.534 259.761 692.914 259.761 696.84V749.514ZM335.669 749.514H328.472V738.063C321.492 747.224 312.223 751.804 300.663 751.804C291.066 751.804 282.832 748.369 275.962 741.498C269.091 734.628 265.656 726.394 265.656 716.797C265.656 707.091 269.091 698.858 275.962 692.096C282.832 685.226 291.066 681.791 300.663 681.791C310.369 681.791 318.602 685.226 325.364 692.096C332.234 698.858 335.669 707.091 335.669 716.797V749.514ZM328.635 716.797C328.635 707.528 325.909 699.621 320.456 693.078C315.003 686.535 308.406 683.263 300.663 683.263C293.029 683.263 286.486 686.535 281.033 693.078C275.58 699.621 272.854 707.528 272.854 716.797C272.854 726.067 275.58 733.973 281.033 740.517C286.486 747.06 293.029 750.332 300.663 750.332C308.406 750.332 315.003 747.06 320.456 740.517C325.909 733.973 328.635 726.067 328.635 716.797ZM392.437 749.514C392.437 760.637 388.511 770.07 380.659 777.813C372.807 785.665 363.32 789.591 352.196 789.591C341.182 789.591 331.748 785.665 323.896 777.813C316.045 770.07 312.119 760.637 312.119 749.514C312.119 743.843 313.209 738.554 315.39 733.646L316.699 734.137C314.627 739.153 313.591 744.279 313.591 749.514C313.591 760.201 317.408 769.307 325.042 776.832C332.566 784.466 341.618 788.283 352.196 788.283C361.357 788.283 369.154 784.466 375.588 776.832C382.023 769.307 385.24 760.201 385.24 749.514C385.24 731.083 375.97 720.123 357.431 716.634C351.869 715.543 347.452 713.471 344.181 710.418C340.909 707.255 339.382 703.384 339.6 698.803C339.818 694.223 341.454 690.352 344.508 687.189C347.561 684.026 351.324 682.445 355.795 682.445C360.266 682.445 364.083 684.081 367.246 687.353C370.408 690.515 371.989 694.332 371.989 698.803C371.989 701.421 371.39 703.929 370.19 706.328L369.372 705.837C370.463 703.765 371.008 701.421 371.008 698.803C371.008 694.659 369.536 691.115 366.591 688.171C363.647 685.117 360.157 683.59 356.122 683.59C353.396 683.59 351.051 684.79 349.088 687.189C347.125 689.588 346.144 692.86 346.144 697.004C346.144 704.311 350.179 708.727 358.249 710.254C368.609 712.217 376.788 716.47 382.786 723.013C389.22 729.884 392.437 738.717 392.437 749.514Z" fill="white"/>
<path d="M164.057 800.115C164.551 797.311 163.173 795.167 159.921 793.682L153.099 790.961C145.182 787.426 141.423 782.56 141.824 776.363C141.989 773.488 142.931 770.943 144.651 768.728C146.372 766.513 148.787 764.781 151.897 763.532C155.008 762.259 158.366 761.647 161.971 761.694C166.943 761.788 170.961 763.273 174.024 766.147C177.088 768.999 178.596 772.828 178.549 777.635H168.227C168.345 775.302 167.827 773.488 166.672 772.192C165.541 770.896 163.774 770.224 161.37 770.177C159.014 770.13 156.964 770.672 155.22 771.803C153.476 772.91 152.439 774.442 152.109 776.398C151.662 778.966 153.382 781.005 157.27 782.513L161.936 784.28L164.622 785.517C171.574 788.958 174.825 793.788 174.378 800.009C174.166 803.049 173.188 805.677 171.444 807.892C169.724 810.083 167.367 811.768 164.375 812.946C161.406 814.124 158.13 814.678 154.548 814.608C150.896 814.537 147.644 813.771 144.793 812.31C141.941 810.849 139.774 808.787 138.289 806.124C136.899 803.65 136.251 800.822 136.345 797.641L146.701 797.677C146.372 803.261 149.117 806.101 154.937 806.195C157.459 806.195 159.532 805.641 161.158 804.534C162.784 803.426 163.75 801.953 164.057 800.115ZM209.548 803.261H191.591L186.29 813.865H174.873L202.372 762.401H211.951L221.742 813.865H211.173L209.548 803.261ZM195.833 794.672H208.24L205.341 775.514L195.833 794.672ZM238.779 805.347H260.623L259.139 813.865H226.938L235.881 762.401H246.237L238.779 805.347ZM299.292 791.562H279.569L277.165 805.347H300.353L298.868 813.865H265.324L274.267 762.401H307.74L306.22 770.99H283.139L280.983 783.255H300.777L299.292 791.562Z" fill="white"/>
<mask id="path-5-inside-1_258:735" fill="white">
<rect x="412.729" y="480.896" width="520.272" height="520.272" rx="10.4263"/>
</mask>
<rect x="412.729" y="480.896" width="520.272" height="520.272" rx="10.4263" fill="#333333" stroke="white" stroke-width="33.3642" mask="url(#path-5-inside-1_258:735)"/>
<rect x="448.178" y="516.346" width="450.96" height="450.96" rx="9.0192" fill="white"/>
<path d="M777.375 547.91H867.567V638.102" stroke="#C2C2C2" stroke-width="18.0384"/>
<path d="M569.934 547.91H479.742V638.102" stroke="#C2C2C2" stroke-width="18.0384"/>
<path d="M777.375 935.734H867.567V845.542" stroke="#C2C2C2" stroke-width="18.0384"/>
<path d="M569.934 935.734H479.742V845.542" stroke="#C2C2C2" stroke-width="18.0384"/>
<path d="M566.432 705.111L558.969 683.389L551.036 705.111H566.432ZM555.488 676.093H563.019L580.858 725.26H573.562L568.575 710.533H549.129L543.807 725.26H536.979L555.488 676.093ZM589.928 707.755C589.928 711.593 590.743 714.806 592.371 717.394C594 719.983 596.611 721.277 600.203 721.277C602.993 721.277 605.28 720.083 607.065 717.696C608.872 715.286 609.776 711.838 609.776 707.353C609.776 702.824 608.85 699.477 606.998 697.313C605.146 695.126 602.859 694.033 600.136 694.033C597.102 694.033 594.636 695.193 592.74 697.513C590.865 699.834 589.928 703.248 589.928 707.755ZM598.998 688.778C601.743 688.778 604.041 689.358 605.893 690.518C606.964 691.188 608.18 692.359 609.541 694.033V675.925H615.332V725.26H609.91V720.273C608.504 722.482 606.842 724.077 604.923 725.059C603.004 726.041 600.806 726.532 598.329 726.532C594.335 726.532 590.877 724.858 587.953 721.511C585.03 718.142 583.569 713.668 583.569 708.09C583.569 702.869 584.897 698.35 587.552 694.535C590.229 690.697 594.045 688.778 598.998 688.778ZM628.084 707.755C628.084 711.593 628.898 714.806 630.527 717.394C632.156 719.983 634.766 721.277 638.359 721.277C641.148 721.277 643.435 720.083 645.22 717.696C647.028 715.286 647.931 711.838 647.931 707.353C647.931 702.824 647.005 699.477 645.153 697.313C643.301 695.126 641.014 694.033 638.292 694.033C635.257 694.033 632.792 695.193 630.895 697.513C629.021 699.834 628.084 703.248 628.084 707.755ZM637.154 688.778C639.898 688.778 642.197 689.358 644.049 690.518C645.12 691.188 646.336 692.359 647.697 694.033V675.925H653.487V725.26H648.065V720.273C646.659 722.482 644.997 724.077 643.078 725.059C641.159 726.041 638.961 726.532 636.485 726.532C632.491 726.532 629.032 724.858 626.109 721.511C623.186 718.142 621.724 713.668 621.724 708.09C621.724 702.869 623.052 698.35 625.707 694.535C628.385 690.697 632.2 688.778 637.154 688.778ZM703.893 689.414H710.553C709.705 691.712 707.82 696.956 704.897 705.144C702.71 711.303 700.88 716.323 699.408 720.206C695.927 729.354 693.472 734.933 692.044 736.941C690.616 738.949 688.162 739.953 684.681 739.953C683.833 739.953 683.175 739.919 682.706 739.853C682.26 739.786 681.702 739.663 681.033 739.484V733.995C682.081 734.285 682.84 734.464 683.309 734.531C683.777 734.598 684.19 734.631 684.547 734.631C685.663 734.631 686.477 734.442 686.99 734.062C687.526 733.705 687.972 733.259 688.329 732.724C688.441 732.545 688.842 731.63 689.534 729.979C690.226 728.328 690.728 727.101 691.04 726.297L677.786 689.414H684.614L694.22 718.599L703.893 689.414ZM729.999 721.377C733.993 721.377 736.726 719.871 738.199 716.859C739.694 713.824 740.441 710.455 740.441 706.751C740.441 703.404 739.906 700.682 738.835 698.584C737.139 695.282 734.216 693.631 730.066 693.631C726.384 693.631 723.707 695.037 722.033 697.848C720.36 700.66 719.523 704.051 719.523 708.023C719.523 711.838 720.36 715.018 722.033 717.562C723.707 720.105 726.362 721.377 729.999 721.377ZM730.233 688.376C734.852 688.376 738.757 689.916 741.948 692.995C745.138 696.074 746.734 700.604 746.734 706.584C746.734 712.363 745.328 717.138 742.517 720.909C739.705 724.68 735.343 726.565 729.43 726.565C724.499 726.565 720.583 724.903 717.682 721.578C714.781 718.231 713.331 713.746 713.331 708.123C713.331 702.099 714.859 697.301 717.916 693.731C720.973 690.161 725.079 688.376 730.233 688.376ZM759.954 689.414V713.211C759.954 715.04 760.244 716.535 760.824 717.696C761.896 719.838 763.893 720.909 766.816 720.909C771.01 720.909 773.867 719.034 775.384 715.286C776.209 713.278 776.622 710.522 776.622 707.019V689.414H782.647V725.26H776.957L777.024 719.972C776.243 721.333 775.272 722.482 774.112 723.419C771.814 725.293 769.025 726.23 765.745 726.23C760.635 726.23 757.154 724.523 755.302 721.11C754.298 719.28 753.796 716.837 753.796 713.78V689.414H759.954ZM792.253 689.414H797.976V695.606C798.444 694.401 799.594 692.939 801.423 691.221C803.253 689.481 805.362 688.61 807.749 688.61C807.861 688.61 808.05 688.622 808.318 688.644C808.586 688.666 809.043 688.711 809.69 688.778V695.137C809.333 695.07 808.999 695.025 808.686 695.003C808.396 694.981 808.073 694.97 807.716 694.97C804.681 694.97 802.349 695.951 800.72 697.915C799.092 699.856 798.277 702.099 798.277 704.642V725.26H792.253V689.414Z" fill="#C2C2C2"/>
<path d="M567.039 806.498C564.83 807.235 562.186 807.603 559.107 807.603C552.681 807.603 547.37 805.684 543.175 801.846C538.088 797.227 535.544 790.444 535.544 781.496C535.544 772.482 538.155 765.665 543.376 761.046C547.638 757.275 552.937 755.39 559.274 755.39C565.656 755.39 571.011 757.387 575.34 761.381C580.338 766 582.837 772.46 582.837 780.76C582.837 785.156 582.302 788.837 581.23 791.805C580.36 794.639 579.077 796.993 577.381 798.867L583.071 804.189L577.683 809.812L571.725 804.189C569.918 805.282 568.356 806.052 567.039 806.498ZM564.83 797.595L559.843 792.843L565.165 787.287L570.152 792.039C570.933 790.433 571.48 789.027 571.792 787.822C572.283 786.015 572.528 783.906 572.528 781.496C572.528 775.963 571.39 771.69 569.114 768.677C566.861 765.643 563.558 764.126 559.207 764.126C555.124 764.126 551.866 765.576 549.434 768.477C547.002 771.377 545.786 775.717 545.786 781.496C545.786 788.257 547.527 793.099 551.007 796.022C553.261 797.919 555.961 798.867 559.107 798.867C560.29 798.867 561.428 798.722 562.521 798.432C563.123 798.276 563.893 797.997 564.83 797.595ZM611.688 786.885H601.045V806.23H590.97V756.896H615.169C618.627 756.963 621.283 757.387 623.135 758.168C625.009 758.949 626.593 760.098 627.887 761.615C628.958 762.865 629.806 764.248 630.431 765.766C631.056 767.283 631.368 769.012 631.368 770.953C631.368 773.296 630.777 775.606 629.594 777.882C628.412 780.135 626.459 781.731 623.737 782.668C626.013 783.583 627.62 784.888 628.557 786.584C629.516 788.257 629.996 790.823 629.996 794.282V797.595C629.996 799.849 630.085 801.377 630.264 802.181C630.531 803.452 631.156 804.39 632.138 804.992V806.23H620.792C620.479 805.137 620.256 804.256 620.122 803.586C619.855 802.203 619.709 800.786 619.687 799.336L619.62 794.75C619.576 791.604 618.995 789.507 617.88 788.458C616.786 787.409 614.723 786.885 611.688 786.885ZM617.947 777.915C620 776.978 621.026 775.126 621.026 772.359C621.026 769.369 620.033 767.361 618.047 766.335C616.932 765.754 615.258 765.464 613.027 765.464H601.045V778.718H612.725C615.046 778.718 616.786 778.451 617.947 777.915ZM690.141 782.835H680.368C680.189 781.474 679.732 780.247 678.995 779.153C677.924 777.681 676.262 776.944 674.009 776.944C670.795 776.944 668.598 778.54 667.415 781.731C666.79 783.426 666.478 785.68 666.478 788.492C666.478 791.169 666.79 793.322 667.415 794.951C668.553 797.986 670.695 799.503 673.841 799.503C676.072 799.503 677.657 798.901 678.594 797.696C679.531 796.491 680.1 794.929 680.301 793.01H690.041C689.817 795.911 688.769 798.655 686.894 801.243C683.904 805.416 679.475 807.502 673.607 807.502C667.739 807.502 663.421 805.762 660.654 802.281C657.887 798.8 656.504 794.282 656.504 788.726C656.504 782.456 658.032 777.58 661.089 774.1C664.146 770.619 668.363 768.878 673.741 768.878C678.315 768.878 682.052 769.905 684.953 771.957C687.876 774.01 689.605 777.636 690.141 782.835ZM727.158 774.367C730.238 778.227 731.777 782.791 731.777 788.056C731.777 793.412 730.238 797.997 727.158 801.812C724.079 805.606 719.405 807.502 713.135 807.502C706.865 807.502 702.19 805.606 699.111 801.812C696.032 797.997 694.492 793.412 694.492 788.056C694.492 782.791 696.032 778.227 699.111 774.367C702.19 770.507 706.865 768.577 713.135 768.577C719.405 768.577 724.079 770.507 727.158 774.367ZM713.101 776.643C710.312 776.643 708.159 777.636 706.641 779.622C705.146 781.586 704.399 784.397 704.399 788.056C704.399 791.716 705.146 794.538 706.641 796.524C708.159 798.51 710.312 799.503 713.101 799.503C715.89 799.503 718.032 798.51 719.527 796.524C721.022 794.538 721.77 791.716 721.77 788.056C721.77 784.397 721.022 781.586 719.527 779.622C718.032 777.636 715.89 776.643 713.101 776.643ZM771.84 756.963V806.23H762.569V801.177C761.208 803.341 759.657 804.914 757.917 805.896C756.177 806.878 754.012 807.368 751.424 807.368C747.162 807.368 743.57 805.65 740.647 802.214C737.746 798.756 736.296 794.326 736.296 788.927C736.296 782.701 737.724 777.804 740.58 774.233C743.458 770.663 747.296 768.878 752.093 768.878C754.302 768.878 756.266 769.369 757.984 770.351C759.702 771.31 761.097 772.649 762.168 774.367V756.963H771.84ZM746.136 788.224C746.136 791.593 746.805 794.282 748.144 796.29C749.46 798.32 751.469 799.336 754.168 799.336C756.868 799.336 758.921 798.332 760.327 796.323C761.733 794.315 762.435 791.716 762.435 788.525C762.435 784.062 761.309 780.872 759.055 778.953C757.672 777.792 756.065 777.212 754.235 777.212C751.446 777.212 749.393 778.272 748.077 780.392C746.783 782.489 746.136 785.1 746.136 788.224ZM811.77 795.52C811.524 797.685 810.398 799.882 808.389 802.114C805.266 805.661 800.892 807.435 795.269 807.435C790.628 807.435 786.534 805.94 782.986 802.95C779.438 799.96 777.664 795.096 777.664 788.358C777.664 782.043 779.26 777.201 782.45 773.832C785.663 770.463 789.825 768.778 794.935 768.778C797.969 768.778 800.702 769.347 803.135 770.485C805.567 771.623 807.575 773.419 809.159 775.873C810.587 778.038 811.513 780.548 811.937 783.404C812.183 785.078 812.283 787.487 812.238 790.634H787.27C787.404 794.293 788.553 796.859 790.717 798.332C792.034 799.246 793.618 799.704 795.47 799.704C797.434 799.704 799.029 799.146 800.256 798.03C800.926 797.428 801.517 796.591 802.03 795.52H811.77ZM802.331 784.341C802.175 781.82 801.405 779.912 800.022 778.618C798.661 777.301 796.965 776.643 794.935 776.643C792.726 776.643 791.007 777.335 789.78 778.718C788.575 780.102 787.817 781.976 787.504 784.341H802.331Z" fill="#C2C2C2"/>
<path d="M791.354 488.186C791.354 487.284 791.011 486.586 790.325 486.093C789.651 485.588 788.466 485.154 786.77 484.794C785.086 484.433 783.745 484 782.746 483.494C781.759 482.989 781.026 482.387 780.544 481.69C780.075 480.992 779.841 480.162 779.841 479.199C779.841 477.599 780.514 476.246 781.862 475.139C783.221 474.032 784.954 473.479 787.059 473.479C789.273 473.479 791.065 474.05 792.437 475.193C793.82 476.336 794.512 477.798 794.512 479.578H791.155C791.155 478.664 790.764 477.876 789.982 477.214C789.212 476.553 788.238 476.222 787.059 476.222C785.844 476.222 784.893 476.486 784.208 477.016C783.522 477.545 783.179 478.237 783.179 479.091C783.179 479.897 783.498 480.505 784.136 480.914C784.773 481.323 785.922 481.714 787.582 482.087C789.254 482.46 790.608 482.905 791.643 483.422C792.677 483.939 793.441 484.565 793.934 485.299C794.44 486.021 794.692 486.905 794.692 487.952C794.692 489.696 793.994 491.097 792.599 492.156C791.203 493.203 789.393 493.726 787.167 493.726C785.603 493.726 784.22 493.449 783.017 492.896C781.814 492.343 780.869 491.573 780.183 490.586C779.51 489.588 779.173 488.511 779.173 487.356H782.511C782.572 488.475 783.017 489.365 783.847 490.027C784.689 490.676 785.796 491.001 787.167 491.001C788.43 491.001 789.441 490.749 790.199 490.243C790.969 489.726 791.354 489.04 791.354 488.186ZM806.873 491.001C808.064 491.001 809.105 490.64 809.995 489.919C810.885 489.197 811.378 488.294 811.475 487.212H814.633C814.573 488.33 814.188 489.395 813.478 490.406C812.768 491.416 811.818 492.222 810.627 492.824C809.448 493.425 808.196 493.726 806.873 493.726C804.214 493.726 802.097 492.842 800.521 491.073C798.957 489.293 798.175 486.863 798.175 483.783V483.224C798.175 481.323 798.524 479.632 799.222 478.153C799.919 476.673 800.918 475.524 802.217 474.706C803.529 473.888 805.075 473.479 806.855 473.479C809.045 473.479 810.861 474.135 812.305 475.446C813.761 476.757 814.536 478.459 814.633 480.553H811.475C811.378 479.29 810.897 478.255 810.031 477.449C809.177 476.631 808.118 476.222 806.855 476.222C805.159 476.222 803.841 476.835 802.903 478.062C801.977 479.278 801.514 481.04 801.514 483.35V483.981C801.514 486.231 801.977 487.964 802.903 489.179C803.829 490.394 805.153 491.001 806.873 491.001ZM830.441 493.365C830.248 492.98 830.092 492.295 829.972 491.308C828.42 492.92 826.567 493.726 824.414 493.726C822.489 493.726 820.907 493.185 819.667 492.102C818.44 491.007 817.827 489.624 817.827 487.952C817.827 485.918 818.597 484.342 820.137 483.224C821.689 482.093 823.866 481.527 826.669 481.527H829.917V479.993C829.917 478.826 829.569 477.9 828.871 477.214C828.173 476.517 827.144 476.168 825.785 476.168C824.594 476.168 823.595 476.468 822.789 477.07C821.983 477.671 821.58 478.399 821.58 479.253H818.224C818.224 478.279 818.567 477.341 819.252 476.438C819.95 475.524 820.889 474.802 822.068 474.273C823.259 473.744 824.564 473.479 825.983 473.479C828.233 473.479 829.996 474.044 831.271 475.175C832.546 476.294 833.208 477.84 833.256 479.813V488.8C833.256 490.592 833.484 492.018 833.942 493.077V493.365H830.441ZM824.901 490.821C825.947 490.821 826.94 490.55 827.878 490.009C828.817 489.467 829.496 488.764 829.917 487.897V483.891H827.301C823.21 483.891 821.165 485.088 821.165 487.482C821.165 488.529 821.514 489.347 822.212 489.937C822.91 490.526 823.806 490.821 824.901 490.821ZM841.647 473.84L841.755 476.294C843.247 474.417 845.196 473.479 847.602 473.479C851.729 473.479 853.81 475.807 853.846 480.463V493.365H850.508V480.445C850.496 479.037 850.171 477.996 849.533 477.323C848.908 476.649 847.927 476.312 846.592 476.312C845.509 476.312 844.559 476.601 843.74 477.178C842.922 477.756 842.285 478.514 841.828 479.452V493.365H838.489V473.84H841.647ZM871.188 473.84L871.278 476.005C872.71 474.321 874.641 473.479 877.071 473.479C879.802 473.479 881.66 474.526 882.647 476.619C883.297 475.68 884.139 474.923 885.173 474.345C886.22 473.768 887.453 473.479 888.873 473.479C893.156 473.479 895.333 475.747 895.405 480.282V493.365H892.067V480.481C892.067 479.085 891.748 478.044 891.11 477.359C890.473 476.661 889.402 476.312 887.898 476.312C886.659 476.312 885.631 476.685 884.812 477.431C883.994 478.165 883.519 479.157 883.387 480.408V493.365H880.03V480.571C880.03 477.732 878.641 476.312 875.862 476.312C873.672 476.312 872.174 477.244 871.368 479.109V493.365H868.03V473.84H871.188ZM908.561 493.726C905.914 493.726 903.76 492.86 902.1 491.128C900.44 489.383 899.61 487.055 899.61 484.144V483.53C899.61 481.593 899.977 479.867 900.711 478.351C901.457 476.823 902.491 475.632 903.815 474.778C905.15 473.912 906.594 473.479 908.146 473.479C910.684 473.479 912.657 474.315 914.065 475.987C915.472 477.659 916.176 480.054 916.176 483.169V484.559H902.948C902.996 486.484 903.556 488.042 904.627 489.233C905.709 490.412 907.081 491.001 908.741 491.001C909.92 491.001 910.919 490.761 911.737 490.279C912.555 489.798 913.271 489.161 913.884 488.367L915.923 489.955C914.287 492.469 911.833 493.726 908.561 493.726ZM908.146 476.222C906.798 476.222 905.667 476.715 904.753 477.702C903.839 478.676 903.273 480.048 903.057 481.816H912.837V481.563C912.741 479.867 912.284 478.556 911.466 477.629C910.648 476.691 909.541 476.222 908.146 476.222Z" fill="black"/>
<path d="M526.649 9.25297C560.842 24.4418 586.071 38.3235 608.479 55.537C630.884 72.7479 650.644 93.4244 673.753 122.388C674.387 123.182 674.486 124.295 674.007 125.185L568.025 322.047C567.422 323.166 566.176 323.614 565.114 323.246C494.404 298.796 412.291 236.913 360.63 165.71C359.913 164.722 360.029 163.354 360.961 162.48L523.932 9.66085C524.624 9.01165 525.655 8.8114 526.649 9.25297Z" fill="#333333" stroke="white" stroke-width="9.2394"/>
</svg>
