<svg width="1001" height="1000" viewBox="0 0 1001 1000" fill="none" xmlns="http://www.w3.org/2000/svg">
<path d="M318.473 871.007L316.612 310.494C316.534 228.893 250.323 162.814 168.721 162.893C165.655 162.911 162.591 163.009 159.529 163.188C79.3991 168.244 17.0039 234.78 17.1007 315.07L16.9739 386.507C17.0221 413.768 39.1605 435.819 66.3805 435.772C67.3897 435.779 68.3768 435.728 69.4042 435.674C96.0444 433.911 116.765 411.815 116.815 385.117L116.734 313.484C116.785 286.785 137.505 264.69 164.145 262.926C191.352 261.225 214.779 281.902 216.478 309.069C216.551 310.076 216.563 311.064 216.576 312.093L217.993 877.665C217.774 903.501 238.57 924.606 264.386 924.806C265.658 924.826 266.887 924.766 268.135 924.686C295.954 922.541 317.532 899.53 317.887 871.631L318.473 871.007Z" stroke="#333333" stroke-width="24.2403" stroke-linecap="round" stroke-linejoin="round"/>
<path d="M219.761 171.983L191.617 269.545" stroke="#333333" stroke-width="24.2403" stroke-linecap="round" stroke-linejoin="round"/>
<path d="M317.113 496.321L217.242 521.928" stroke="#333333" stroke-width="24.2403" stroke-linecap="round" stroke-linejoin="round"/>
<path d="M318.295 795.739L218.424 821.346" stroke="#333333" stroke-width="24.2403" stroke-linecap="round" stroke-linejoin="round"/>
<path d="M218.035 722.078L317.711 696.68" stroke="#333333" stroke-width="24.2403" stroke-linecap="round" stroke-linejoin="round"/>
<path d="M217.656 621.982L317.527 596.376" stroke="#333333" stroke-width="24.2403" stroke-linecap="round" stroke-linejoin="round"/>
<path d="M216.906 421.873L316.777 396.266" stroke="#333333" stroke-width="24.2403" stroke-linecap="round" stroke-linejoin="round"/>
<path d="M314.953 296.464L216.682 321.615" stroke="#333333" stroke-width="24.2403" stroke-linecap="round" stroke-linejoin="round"/>
<path d="M134.065 275.381L103.477 177.486" stroke="#333333" stroke-width="24.2403" stroke-linecap="round" stroke-linejoin="round"/>
<path d="M16.9551 311.047L116.495 325.405" stroke="#333333" stroke-width="24.2403" stroke-linecap="round" stroke-linejoin="round"/>
<rect x="279.791" y="249.512" width="720.399" height="720.399" rx="22.2201" fill="#333333"/>
<rect x="310.039" y="279.732" width="658.96" height="658.96" rx="13.1792" fill="white"/>
<path d="M791.074 325.854H922.866V457.646" stroke="#C2C2C2" stroke-width="26.3584"/>
<path d="M487.953 325.854H356.161V457.646" stroke="#C2C2C2" stroke-width="26.3584"/>
<path d="M791.074 892.557H922.866V760.765" stroke="#C2C2C2" stroke-width="26.3584"/>
<path d="M487.953 892.557H356.161V760.765" stroke="#C2C2C2" stroke-width="26.3584"/>
<path d="M482.836 555.427L471.93 523.686L460.339 555.427H482.836ZM466.843 513.024H477.847L503.915 584.869H493.253L485.966 563.35H457.551L449.775 584.869H439.798L466.843 513.024ZM517.169 559.291C517.169 564.899 518.359 569.594 520.739 573.376C523.119 577.158 526.934 579.049 532.183 579.049C536.259 579.049 539.601 577.305 542.209 573.816C544.85 570.295 546.171 565.257 546.171 558.704C546.171 552.085 544.818 547.194 542.112 544.032C539.405 540.836 536.063 539.239 532.086 539.239C527.651 539.239 524.048 540.934 521.277 544.325C518.538 547.716 517.169 552.705 517.169 559.291ZM530.423 531.56C534.433 531.56 537.791 532.408 540.498 534.103C542.063 535.082 543.84 536.793 545.828 539.239V512.78H554.289V584.869H546.366V577.582C544.312 580.81 541.883 583.141 539.079 584.576C536.275 586.01 533.064 586.728 529.445 586.728C523.608 586.728 518.555 584.282 514.283 579.392C510.012 574.468 507.876 567.931 507.876 559.78C507.876 552.15 509.816 545.548 513.696 539.972C517.609 534.364 523.184 531.56 530.423 531.56ZM572.923 559.291C572.923 564.899 574.113 569.594 576.493 573.376C578.873 577.158 582.688 579.049 587.938 579.049C592.013 579.049 595.355 577.305 597.964 573.816C600.605 570.295 601.925 565.257 601.925 558.704C601.925 552.085 600.572 547.194 597.866 544.032C595.16 540.836 591.818 539.239 587.84 539.239C583.406 539.239 579.803 540.934 577.031 544.325C574.292 547.716 572.923 552.705 572.923 559.291ZM586.177 531.56C590.187 531.56 593.546 532.408 596.252 534.103C597.817 535.082 599.594 536.793 601.583 539.239V512.78H610.044V584.869H602.121V577.582C600.067 580.81 597.637 583.141 594.833 584.576C592.029 586.01 588.818 586.728 585.199 586.728C579.363 586.728 574.309 584.282 570.038 579.392C565.766 574.468 563.631 567.931 563.631 559.78C563.631 552.15 565.571 545.548 569.451 539.972C573.363 534.364 578.939 531.56 586.177 531.56ZM683.698 532.49H693.43C692.191 535.848 689.436 543.51 685.165 555.476C681.97 564.475 679.296 571.811 677.144 577.484C672.058 590.852 668.471 599.003 666.385 601.938C664.298 604.872 660.711 606.339 655.625 606.339C654.386 606.339 653.424 606.29 652.74 606.193C652.088 606.095 651.272 605.916 650.294 605.655V597.634C651.827 598.058 652.935 598.319 653.62 598.416C654.305 598.514 654.908 598.563 655.429 598.563C657.06 598.563 658.25 598.286 659 597.732C659.782 597.21 660.434 596.558 660.956 595.775C661.119 595.515 661.706 594.178 662.717 591.765C663.727 589.352 664.461 587.559 664.917 586.385L645.55 532.49H655.527L669.564 575.137L683.698 532.49ZM721.845 579.196C727.682 579.196 731.676 576.995 733.828 572.593C736.012 568.159 737.104 563.236 737.104 557.823C737.104 552.933 736.322 548.955 734.757 545.89C732.279 541.065 728.008 538.652 721.943 538.652C716.563 538.652 712.651 540.706 710.206 544.814C707.76 548.922 706.537 553.878 706.537 559.682C706.537 565.257 707.76 569.904 710.206 573.62C712.651 577.337 716.531 579.196 721.845 579.196ZM722.188 530.973C728.937 530.973 734.643 533.223 739.305 537.723C743.968 542.222 746.299 548.841 746.299 557.579C746.299 566.024 744.245 573.001 740.137 578.511C736.029 584.021 729.654 586.777 721.014 586.777C713.808 586.777 708.086 584.347 703.848 579.489C699.609 574.599 697.49 568.045 697.49 559.829C697.49 551.025 699.723 544.015 704.19 538.799C708.657 533.582 714.656 530.973 722.188 530.973ZM765.617 532.49V567.263C765.617 569.936 766.041 572.121 766.889 573.816C768.454 576.946 771.372 578.511 775.643 578.511C781.773 578.511 785.946 575.772 788.164 570.295C789.37 567.36 789.973 563.334 789.973 558.215V532.49H798.776V584.869H790.462L790.56 577.142C789.419 579.131 788.001 580.81 786.305 582.179C782.947 584.918 778.871 586.287 774.078 586.287C766.612 586.287 761.525 583.793 758.819 578.805C757.352 576.131 756.618 572.561 756.618 568.094V532.49H765.617ZM812.813 532.49H821.176V541.537C821.861 539.777 823.54 537.641 826.213 535.131C828.887 532.587 831.968 531.316 835.457 531.316C835.62 531.316 835.897 531.332 836.288 531.365C836.68 531.397 837.348 531.462 838.293 531.56V540.853C837.772 540.755 837.283 540.69 836.826 540.657C836.402 540.624 835.93 540.608 835.408 540.608C830.974 540.608 827.567 542.043 825.186 544.912C822.806 547.749 821.616 551.025 821.616 554.742V584.869H812.813V532.49Z" fill="#C2C2C2"/>
<path d="M483.724 703.579C480.497 704.655 476.633 705.193 472.133 705.193C462.743 705.193 454.983 702.389 448.854 696.781C441.42 690.031 437.703 680.12 437.703 667.045C437.703 653.873 441.518 643.912 449.147 637.163C455.375 631.653 463.118 628.897 472.378 628.897C481.703 628.897 489.528 631.816 495.853 637.652C503.157 644.401 506.809 653.84 506.809 665.969C506.809 672.392 506.026 677.772 504.461 682.108C503.189 686.249 501.315 689.689 498.837 692.428L507.151 700.204L499.277 708.421L490.571 700.204C487.93 701.802 485.648 702.927 483.724 703.579ZM480.497 690.569L473.209 683.625L480.986 675.506L488.273 682.451C489.414 680.103 490.213 678.049 490.669 676.289C491.387 673.648 491.745 670.566 491.745 667.045C491.745 658.959 490.082 652.715 486.757 648.314C483.464 643.879 478.638 641.662 472.28 641.662C466.313 641.662 461.553 643.782 457.999 648.02C454.445 652.259 452.668 658.6 452.668 667.045C452.668 676.924 455.212 684 460.298 688.271C463.591 691.042 467.536 692.428 472.133 692.428C473.861 692.428 475.524 692.216 477.122 691.792C478.002 691.564 479.127 691.156 480.497 690.569ZM548.967 674.919H533.414V703.188H518.693V631.098H554.053C559.107 631.196 562.987 631.816 565.693 632.957C568.432 634.098 570.747 635.777 572.638 637.994C574.203 639.82 575.442 641.842 576.355 644.059C577.268 646.276 577.724 648.803 577.724 651.639C577.724 655.063 576.86 658.437 575.132 661.763C573.404 665.056 570.551 667.387 566.573 668.757C569.899 670.094 572.246 672.001 573.616 674.479C575.018 676.924 575.719 680.674 575.719 685.728V690.569C575.719 693.863 575.849 696.096 576.11 697.27C576.501 699.128 577.414 700.498 578.849 701.378V703.188H562.269C561.813 701.59 561.487 700.302 561.291 699.324C560.9 697.302 560.688 695.232 560.655 693.113L560.558 686.412C560.492 681.815 559.645 678.75 558.014 677.218C556.417 675.685 553.401 674.919 548.967 674.919ZM558.112 661.812C561.112 660.443 562.612 657.736 562.612 653.693C562.612 649.324 561.161 646.39 558.259 644.89C556.629 644.042 554.183 643.619 550.923 643.619H533.414V662.986H550.483C553.874 662.986 556.417 662.595 558.112 661.812ZM663.605 669.001H649.324C649.063 667.012 648.395 665.219 647.319 663.622C645.754 661.47 643.325 660.394 640.032 660.394C635.337 660.394 632.125 662.725 630.397 667.387C629.484 669.865 629.028 673.158 629.028 677.267C629.028 681.179 629.484 684.326 630.397 686.706C632.06 691.14 635.19 693.357 639.787 693.357C643.048 693.357 645.363 692.477 646.732 690.716C648.102 688.956 648.933 686.673 649.226 683.869H663.458C663.132 688.108 661.6 692.118 658.861 695.9C654.492 701.997 648.02 705.046 639.445 705.046C630.87 705.046 624.561 702.503 620.518 697.416C616.475 692.33 614.453 685.728 614.453 677.609C614.453 668.447 616.687 661.323 621.154 656.237C625.62 651.15 631.783 648.607 639.641 648.607C646.325 648.607 651.786 650.107 656.024 653.107C660.296 656.106 662.823 661.404 663.605 669.001ZM717.696 656.628C722.196 662.268 724.446 668.936 724.446 676.631C724.446 684.456 722.196 691.156 717.696 696.732C713.197 702.275 706.366 705.046 697.204 705.046C688.042 705.046 681.212 702.275 676.712 696.732C672.213 691.156 669.963 684.456 669.963 676.631C669.963 668.936 672.213 662.268 676.712 656.628C681.212 650.987 688.042 648.167 697.204 648.167C706.366 648.167 713.197 650.987 717.696 656.628ZM697.155 659.954C693.08 659.954 689.933 661.404 687.716 664.306C685.532 667.176 684.44 671.284 684.44 676.631C684.44 681.978 685.532 686.103 687.716 689.004C689.933 691.906 693.08 693.357 697.155 693.357C701.231 693.357 704.361 691.906 706.546 689.004C708.73 686.103 709.822 681.978 709.822 676.631C709.822 671.284 708.73 667.176 706.546 664.306C704.361 661.404 701.231 659.954 697.155 659.954ZM782.988 631.196V703.188H769.44V695.803C767.451 698.965 765.185 701.264 762.642 702.698C760.099 704.133 756.936 704.85 753.154 704.85C746.927 704.85 741.677 702.34 737.406 697.319C733.167 692.265 731.048 685.793 731.048 677.902C731.048 668.806 733.135 661.649 737.308 656.432C741.514 651.215 747.122 648.607 754.132 648.607C757.36 648.607 760.229 649.324 762.74 650.759C765.251 652.161 767.288 654.117 768.853 656.628V631.196H782.988ZM745.427 676.875C745.427 681.799 746.405 685.728 748.361 688.662C750.285 691.629 753.219 693.113 757.165 693.113C761.11 693.113 764.109 691.645 766.163 688.711C768.218 685.777 769.245 681.978 769.245 677.316C769.245 670.795 767.598 666.132 764.305 663.328C762.283 661.633 759.936 660.785 757.262 660.785C753.187 660.785 750.187 662.334 748.263 665.431C746.372 668.496 745.427 672.311 745.427 676.875ZM841.334 687.537C840.975 690.7 839.329 693.911 836.394 697.172C831.83 702.356 825.439 704.948 817.223 704.948C810.441 704.948 804.458 702.764 799.274 698.395C794.089 694.026 791.497 686.918 791.497 677.071C791.497 667.844 793.829 660.769 798.491 655.845C803.186 650.922 809.267 648.46 816.734 648.46C821.168 648.46 825.162 649.292 828.716 650.955C832.27 652.617 835.204 655.242 837.519 658.829C839.606 661.991 840.959 665.659 841.578 669.833C841.937 672.278 842.084 675.799 842.019 680.397H805.534C805.729 685.744 807.409 689.493 810.571 691.645C812.495 692.982 814.81 693.651 817.516 693.651C820.385 693.651 822.716 692.835 824.51 691.205C825.488 690.325 826.352 689.102 827.102 687.537H841.334ZM827.542 671.202C827.314 667.518 826.189 664.73 824.167 662.839C822.179 660.915 819.701 659.954 816.734 659.954C813.506 659.954 810.995 660.964 809.202 662.986C807.441 665.007 806.333 667.746 805.876 671.202H827.542Z" fill="#C2C2C2"/>
<path d="M390.756 196.145C390.756 193.986 389.994 192.336 388.471 191.193C386.947 190.025 384.205 188.807 380.244 187.537C376.283 186.242 373.147 184.973 370.837 183.729C364.54 180.326 361.392 175.743 361.392 169.979C361.392 166.983 362.229 164.317 363.905 161.981C365.606 159.62 368.031 157.779 371.18 156.459C374.354 155.139 377.908 154.479 381.844 154.479C385.805 154.479 389.334 155.202 392.432 156.649C395.529 158.071 397.929 160.09 399.63 162.705C401.356 165.32 402.22 168.291 402.22 171.617H390.794C390.794 169.078 389.994 167.11 388.395 165.714C386.795 164.292 384.548 163.581 381.653 163.581C378.86 163.581 376.689 164.178 375.141 165.371C373.592 166.539 372.817 168.088 372.817 170.018C372.817 171.82 373.719 173.331 375.521 174.55C377.35 175.769 380.028 176.911 383.558 177.978C390.058 179.933 394.793 182.357 397.764 185.252C400.734 188.146 402.22 191.752 402.22 196.068C402.22 200.867 400.404 204.638 396.773 207.38C393.143 210.097 388.255 211.455 382.11 211.455C377.845 211.455 373.96 210.681 370.456 209.132C366.952 207.558 364.273 205.412 362.42 202.695C360.592 199.979 359.678 196.83 359.678 193.25H371.142C371.142 199.369 374.798 202.429 382.11 202.429C384.827 202.429 386.947 201.883 388.471 200.791C389.994 199.674 390.756 198.125 390.756 196.145ZM421.415 191.155V210.693H409.989V155.24H431.622C435.786 155.24 439.442 156.002 442.591 157.525C445.765 159.049 448.202 161.22 449.903 164.038C451.604 166.831 452.455 170.018 452.455 173.598C452.455 179.031 450.589 183.322 446.856 186.471C443.149 189.594 438.008 191.155 431.432 191.155H421.415ZM421.415 181.9H431.622C434.644 181.9 436.941 181.189 438.516 179.768C440.115 178.346 440.915 176.314 440.915 173.674C440.915 170.957 440.115 168.761 438.516 167.085C436.916 165.409 434.707 164.546 431.889 164.495H421.415V181.9ZM493.702 186.661H471.765V201.515H497.511V210.693H460.339V155.24H497.435V164.495H471.765V177.711H493.702V186.661ZM547.746 192.222C547.314 198.188 545.105 202.886 541.119 206.313C537.158 209.741 531.928 211.455 525.428 211.455C518.318 211.455 512.72 209.068 508.632 204.295C504.569 199.496 502.538 192.92 502.538 184.566V181.177C502.538 175.845 503.478 171.147 505.356 167.085C507.235 163.022 509.914 159.912 513.393 157.754C516.896 155.57 520.959 154.479 525.58 154.479C531.979 154.479 537.133 156.192 541.043 159.62C544.953 163.048 547.213 167.859 547.822 174.055H536.396C536.117 170.475 535.114 167.885 533.388 166.285C531.687 164.66 529.084 163.848 525.58 163.848C521.771 163.848 518.915 165.219 517.011 167.961C515.132 170.678 514.167 174.905 514.116 180.644V184.833C514.116 190.825 515.018 195.205 516.82 197.973C518.648 200.74 521.518 202.124 525.428 202.124C528.957 202.124 531.585 201.324 533.312 199.725C535.063 198.1 536.066 195.599 536.32 192.222H547.746ZM567.398 210.693H555.973V155.24H567.398V210.693ZM610.017 199.268H589.983L586.175 210.693H574.025L594.668 155.24H605.256L626.013 210.693H613.863L610.017 199.268ZM593.068 190.013H606.932L599.962 169.256L593.068 190.013ZM642.618 201.515H666.879V210.693H631.192V155.24H642.618V201.515ZM738.442 184.224C738.442 189.683 737.478 194.469 735.548 198.582C733.618 202.695 730.851 205.869 727.245 208.104C723.665 210.338 719.552 211.455 714.905 211.455C710.31 211.455 706.209 210.351 702.604 208.142C698.998 205.933 696.205 202.784 694.225 198.696C692.244 194.583 691.241 189.86 691.216 184.528V181.786C691.216 176.327 692.193 171.528 694.148 167.39C696.129 163.226 698.909 160.039 702.489 157.83C706.095 155.596 710.208 154.479 714.829 154.479C719.45 154.479 723.551 155.596 727.131 157.83C730.736 160.039 733.517 163.226 735.472 167.39C737.452 171.528 738.442 176.314 738.442 181.748V184.224ZM726.864 181.71C726.864 175.896 725.823 171.478 723.741 168.456C721.659 165.435 718.688 163.924 714.829 163.924C710.995 163.924 708.037 165.422 705.955 168.418C703.873 171.389 702.819 175.756 702.794 181.52V184.224C702.794 189.886 703.835 194.278 705.917 197.401C707.999 200.524 710.995 202.086 714.905 202.086C718.739 202.086 721.685 200.588 723.741 197.592C725.798 194.57 726.839 190.178 726.864 184.414V181.71ZM780.108 188.032H758.171V210.693H746.745V155.24H782.851V164.495H758.171V178.815H780.108V188.032ZM822.841 188.032H800.903V210.693H789.478V155.24H825.583V164.495H800.903V178.815H822.841V188.032ZM865.573 186.661H843.636V201.515H869.382V210.693H832.21V155.24H869.306V164.495H843.636V177.711H865.573V186.661ZM896.613 190.394H887.511V210.693H876.085V155.24H896.689C903.24 155.24 908.293 156.7 911.848 159.62C915.402 162.54 917.18 166.666 917.18 171.998C917.18 175.781 916.354 178.942 914.704 181.481C913.079 183.995 910.604 186.001 907.277 187.499L919.274 210.16V210.693H907.011L896.613 190.394ZM887.511 181.139H896.728C899.597 181.139 901.818 180.415 903.393 178.968C904.967 177.495 905.754 175.477 905.754 172.912C905.754 170.297 905.005 168.24 903.507 166.742C902.034 165.244 899.762 164.495 896.689 164.495H887.511V181.139Z" fill="#333333"/>
</svg>
